<svg width="20" height="20" viewBox="0 0 20 20" fill="none" xmlns="http://www.w3.org/2000/svg">
<path d="M6.36426 9.25H7.8601V10.75H6.36426V9.25ZM17.5 5.5V16C17.5 16.825 16.8269 17.5 16.0042 17.5H3.99584C3.16564 17.5 2.49999 16.825 2.49999 16L2.50747 5.5C2.50747 4.675 3.16564 4 3.99584 4H5.03462V2.5H6.53046V4H13.7604V2.5H15.2562V4H16.0042C16.8269 4 17.5 4.675 17.5 5.5ZM3.62188 7H16.3781V5.125H3.62188V7ZM16.3781 16.375V8.5H3.62188V16.375H16.3781ZM12.3476 10.75H13.8435V9.25H12.3476V10.75ZM9.35595 10.75H10.8518V9.25H9.35595V10.75Z" fill="#32A1C8"/>
</svg>
