<svg width="14" height="13" viewBox="0 0 14 13" fill="none" xmlns="http://www.w3.org/2000/svg">
<path d="M13.0421 4.28258C13.1416 4.58124 13.2412 4.97945 13.3407 5.27811C13.4403 5.87543 13.5398 6.37319 13.4403 6.97051C13.4403 7.46828 13.3407 7.96604 13.1416 8.4638C12.9425 9.16068 12.6439 9.85754 12.1461 10.4549C11.8474 10.7535 11.5488 11.0522 11.2501 11.3508C10.7524 11.8486 10.155 12.1473 9.55772 12.4459C8.9604 12.7446 8.26353 12.8441 7.56666 12.9437C6.57113 13.0432 5.67516 12.8441 4.67963 12.5455C3.6841 12.1473 2.88767 11.5499 2.1908 10.7535C1.69304 10.1562 1.29483 9.45933 1.09572 8.66291C0.797063 7.86649 0.69751 7.07006 0.69751 6.17409C0.797063 4.8799 1.19527 3.78482 1.9917 2.78929C2.68857 1.89331 3.48499 1.19644 4.38097 0.798231C5.47605 0.300467 6.57113 0.101361 7.76577 0.200914C8.56219 0.300467 9.25906 0.499572 9.95593 0.798231C10.5532 1.09689 11.051 1.4951 11.5488 1.89331C11.6483 1.99287 11.5488 1.99287 11.5488 2.09242C11.3497 2.29152 11.1506 2.49063 10.9515 2.68974C10.7524 2.88884 10.6528 2.9884 10.5532 3.08795C10.5532 3.1875 10.4537 3.1875 10.4537 3.08795C9.95593 2.59018 9.45817 2.29152 8.86085 2.09242C8.46264 1.89331 8.06442 1.79376 7.66621 1.69421C7.16845 1.59465 6.57113 1.69421 6.07337 1.79376C5.5756 1.89331 5.07784 2.09242 4.58007 2.39108C3.98276 2.78929 3.48499 3.1875 3.08678 3.78482C2.68857 4.28258 2.48946 4.8799 2.29036 5.47722C2.09125 6.37319 2.1908 7.26917 2.48946 8.06559C2.78812 9.06112 3.38544 9.75799 4.18186 10.4549C5.17739 11.1517 6.27247 11.5499 7.46711 11.4504C8.9604 11.3508 10.155 10.7535 11.051 9.55889C11.5488 8.86202 11.947 8.16515 12.0465 7.26917C12.1461 6.67185 12.1461 6.07454 11.947 5.47722C11.947 5.37767 11.947 5.37766 11.947 5.27811C12.2456 5.07901 12.6439 4.68079 13.0421 4.28258Z" fill="white"/>
<path d="M6.57109 9.95709C6.47154 9.95709 6.47154 9.95709 6.57109 9.95709C6.07333 9.55888 5.67512 9.16067 5.27691 8.76246C4.8787 8.36424 4.48048 7.86648 3.98272 7.46827C3.78361 7.26916 3.58451 7.07006 3.3854 6.87095C3.3854 6.87095 3.28585 6.7714 3.3854 6.7714C3.68406 6.47274 3.98272 6.17408 4.38093 5.87542C4.48048 5.77587 4.48048 5.87542 4.58004 5.97497C4.67959 6.07453 4.8787 6.27363 5.0778 6.47274C5.47601 6.87095 5.97378 7.36871 6.37199 7.76693C6.47154 7.86648 6.57109 7.86648 6.57109 7.76693C7.56662 6.7714 8.66171 5.67632 9.65724 4.68079C10.4537 3.88436 11.2501 2.98839 12.1461 2.19196C12.2456 2.09241 12.3452 1.99286 12.4447 1.89331C12.4447 1.79375 12.5443 1.89331 12.5443 1.89331C12.9425 2.19196 13.2411 2.49062 13.6394 2.78928C13.7389 2.88883 13.7389 2.88883 13.6394 2.98839C13.4402 3.08794 13.3407 3.28705 13.1416 3.3866C12.8429 3.68526 12.6438 3.88436 12.3452 4.18302C12.0465 4.48168 11.6483 4.87989 11.3496 5.17855C11.051 5.47721 10.7523 5.87542 10.3541 6.17408C10.2546 6.27363 10.0554 6.47274 9.95589 6.57229C9.65724 6.87095 9.35858 7.16961 8.96036 7.56782C8.76126 7.76693 8.66171 7.86648 8.4626 8.06559C8.36305 8.16514 8.26349 8.36424 8.06439 8.4638C7.76573 8.6629 7.56662 8.86201 7.36752 9.16067C7.16841 9.35977 6.86975 9.65843 6.67065 9.85754C6.57109 9.95709 6.57109 9.95709 6.57109 9.95709Z" fill="white"/>
</svg>
