<svg width="20" height="20" viewBox="0 0 20 20" fill="none" xmlns="http://www.w3.org/2000/svg">
<path fill-rule="evenodd" clip-rule="evenodd" d="M9.35778 4.08888C8.76725 3.50282 7.96632 3.17358 7.13118 3.17358C6.29603 3.17358 5.4951 3.50282 4.90457 4.08888C4.31403 4.67493 3.98227 5.46978 3.98227 6.29858C3.98227 7.12739 4.31403 7.92224 4.90457 8.50829C5.4951 9.09434 6.29603 9.42358 7.13118 9.42358C7.96632 9.42358 8.76725 9.09434 9.35778 8.50829C9.94832 7.92224 10.2801 7.12739 10.2801 6.29858C10.2801 5.46978 9.94832 4.67493 9.35778 4.08888ZM6.01787 5.19373C6.31314 4.9007 6.7136 4.73608 7.13118 4.73608C7.54875 4.73608 7.94921 4.9007 8.24448 5.19373C8.53975 5.48676 8.70563 5.88418 8.70563 6.29858C8.70563 6.71298 8.53975 7.11041 8.24448 7.40344C7.94921 7.69646 7.54875 7.86108 7.13118 7.86108C6.7136 7.86108 6.31314 7.69646 6.01787 7.40344C5.7226 7.11041 5.55672 6.71298 5.55672 6.29858C5.55672 5.88418 5.7226 5.48676 6.01787 5.19373ZM11.7926 11.3155C10.3836 10.5745 8.3849 10.2048 7.13118 10.2048C5.02928 10.2048 0.833374 11.2439 0.833374 13.3298V15.6736H12.6395V15.6736H19.1667V13.6926C19.1667 11.9295 15.6202 11.0512 13.8436 11.0512C13.2811 11.0512 12.5412 11.1392 11.7926 11.3155ZM13.0907 12.3493C13.3057 12.6454 13.429 12.9722 13.429 13.3298V14.419H17.9025V13.6926C17.9025 13.27 15.8198 12.3059 13.8436 12.3059C13.5929 12.3059 13.3404 12.3214 13.0907 12.3493ZM2.3291 13.3298C2.3291 12.8298 4.79312 11.6892 7.13118 11.6892C9.46923 11.6892 11.9332 12.8298 11.9332 13.3298V14.1892H2.3291V13.3298ZM15.7256 5.88176C15.2264 5.38641 14.5495 5.10813 13.8436 5.10813C13.1377 5.10813 12.4607 5.38641 11.9616 5.88176C11.4624 6.37712 11.182 7.04896 11.182 7.74949C11.182 8.45003 11.4624 9.12187 11.9616 9.61723C12.4607 10.1126 13.1377 10.3909 13.8436 10.3909C14.5495 10.3909 15.2264 10.1126 15.7256 9.61723C16.2247 9.12187 16.5051 8.45003 16.5051 7.74949C16.5051 7.04896 16.2247 6.37712 15.7256 5.88176ZM12.9026 6.81563C13.1521 6.56795 13.4906 6.42881 13.8436 6.42881C14.1965 6.42881 14.535 6.56795 14.7846 6.81563C15.0342 7.06331 15.1744 7.39923 15.1744 7.74949C15.1744 8.09976 15.0342 8.43568 14.7846 8.68336C14.535 8.93104 14.1965 9.07018 13.8436 9.07018C13.4906 9.07018 13.1521 8.93104 12.9026 8.68336C12.653 8.43568 12.5128 8.09976 12.5128 7.74949C12.5128 7.39923 12.653 7.06331 12.9026 6.81563Z" fill="#32A1C8"/>
</svg>
