<svg width="18" height="17" viewBox="0 0 18 17" fill="none" xmlns="http://www.w3.org/2000/svg">
<path opacity="0.4" d="M12.3347 7.54659C13.8902 7.54659 15.151 6.28581 15.151 4.73033C15.151 3.1757 13.8902 1.91406 12.3347 1.91406" stroke="#6E7B94" stroke-width="1.5" stroke-linecap="round" stroke-linejoin="round"/>
<path d="M13.6299 10.6064C14.0946 10.6381 14.5558 10.7047 15.0111 10.8055C15.6424 10.931 16.4026 11.1899 16.6725 11.7562C16.8451 12.1192 16.8451 12.542 16.6725 12.9051C16.4034 13.4714 15.6424 13.7302 15.0111 13.8601" stroke="#6E7B94" stroke-width="1.5" stroke-linecap="round" stroke-linejoin="round"/>
<path fill-rule="evenodd" clip-rule="evenodd" d="M6.84351 11.2129C9.99547 11.2129 12.6879 11.6904 12.6879 13.5978C12.6879 15.506 10.0126 15.9998 6.84351 15.9998C3.69155 15.9998 1 15.5231 1 13.6149C1 11.7066 3.67447 11.2129 6.84351 11.2129Z" stroke="#6E7B94" stroke-width="1.5" stroke-linecap="round" stroke-linejoin="round"/>
<path opacity="0.4" fill-rule="evenodd" clip-rule="evenodd" d="M6.84364 8.49039C4.76455 8.49039 3.09888 6.82387 3.09888 4.74477C3.09888 2.66652 4.76455 1 6.84364 1C8.92274 1 10.5893 2.66652 10.5893 4.74477C10.5893 6.82387 8.92274 8.49039 6.84364 8.49039Z" stroke="#6E7B94" stroke-width="1.5" stroke-linecap="round" stroke-linejoin="round"/>
</svg>
