<svg width="22" height="17" viewBox="0 0 22 17" fill="none" xmlns="http://www.w3.org/2000/svg">
<path opacity="0.4" d="M16.4394 7.54586C17.9946 7.54586 19.2562 6.28515 19.2562 4.72996C19.2562 3.17477 17.9946 1.91406 16.4394 1.91406" stroke="#6E7B94" stroke-width="1.5" stroke-linecap="round" stroke-linejoin="round"/>
<path d="M17.7343 10.6064C18.1987 10.6385 18.6605 10.7043 19.1151 10.8066C19.7468 10.9303 20.5066 11.1892 20.7771 11.7559C20.9497 12.1189 20.9497 12.5415 20.7771 12.9054C20.5075 13.4722 19.7468 13.7302 19.1151 13.8601" stroke="#6E7B94" stroke-width="1.5" stroke-linecap="round" stroke-linejoin="round"/>
<path opacity="0.4" d="M5.4676 7.54586C3.91241 7.54586 2.65082 6.28515 2.65082 4.72996C2.65082 3.17477 3.91241 1.91406 5.4676 1.91406" stroke="#6E7B94" stroke-width="1.5" stroke-linecap="round" stroke-linejoin="round"/>
<path d="M4.17194 10.6064C3.70751 10.6385 3.24576 10.7043 2.79112 10.8066C2.15944 10.9303 1.39964 11.1892 1.13006 11.7559C0.956566 12.1189 0.956566 12.5415 1.13006 12.9054C1.39875 13.4722 2.15944 13.7302 2.79112 13.8601" stroke="#6E7B94" stroke-width="1.5" stroke-linecap="round" stroke-linejoin="round"/>
<path fill-rule="evenodd" clip-rule="evenodd" d="M10.948 11.2129C14.0993 11.2129 16.7915 11.6898 16.7915 13.5982C16.7915 15.5057 14.1171 16.0004 10.948 16.0004C7.79577 16.0004 5.10443 15.5235 5.10443 13.6151C5.10443 11.7067 7.77887 11.2129 10.948 11.2129Z" stroke="#6E7B94" stroke-width="1.5" stroke-linecap="round" stroke-linejoin="round"/>
<path opacity="0.4" fill-rule="evenodd" clip-rule="evenodd" d="M10.9483 8.49037C8.86996 8.49037 7.20355 6.82397 7.20355 4.74474C7.20355 2.66641 8.86996 1 10.9483 1C13.0266 1 14.693 2.66641 14.693 4.74474C14.693 6.82397 13.0266 8.49037 10.9483 8.49037Z" stroke="#6E7B94" stroke-width="1.5" stroke-linecap="round" stroke-linejoin="round"/>
</svg>
