<svg width="28" height="22" viewBox="0 0 28 22" fill="none" xmlns="http://www.w3.org/2000/svg">
<path opacity="0.4" d="M21.1396 9.90959C23.1798 9.90959 24.8349 8.25573 24.8349 6.21554C24.8349 4.17535 23.1798 2.52148 21.1396 2.52148" stroke="#6E7B94" stroke-width="1.5" stroke-linecap="round" stroke-linejoin="round"/>
<path d="M22.8386 13.924C23.4479 13.966 24.0536 14.0523 24.6501 14.1866C25.4787 14.3488 26.4755 14.6884 26.8303 15.4319C27.0567 15.9081 27.0567 16.4625 26.8303 16.9399C26.4767 17.6834 25.4787 18.0218 24.6501 18.1922" stroke="#6E7B94" stroke-width="1.5" stroke-linecap="round" stroke-linejoin="round"/>
<path opacity="0.4" d="M6.74563 9.90959C4.70544 9.90959 3.05042 8.25573 3.05042 6.21554C3.05042 4.17535 4.70544 2.52148 6.74563 2.52148" stroke="#6E7B94" stroke-width="1.5" stroke-linecap="round" stroke-linejoin="round"/>
<path d="M5.04683 13.924C4.43757 13.966 3.83182 14.0523 3.2354 14.1866C2.40672 14.3488 1.40997 14.6884 1.05632 15.4319C0.828721 15.9081 0.828721 16.4625 1.05632 16.9399C1.4088 17.6834 2.40672 18.0218 3.2354 18.1922" stroke="#6E7B94" stroke-width="1.5" stroke-linecap="round" stroke-linejoin="round"/>
<path fill-rule="evenodd" clip-rule="evenodd" d="M13.9368 14.7195C18.0708 14.7195 21.6026 15.3451 21.6026 17.8486C21.6026 20.351 18.0942 21 13.9368 21C9.80152 21 6.27087 20.3744 6.27087 17.8708C6.27087 15.3673 9.77935 14.7195 13.9368 14.7195Z" stroke="#6E7B94" stroke-width="1.5" stroke-linecap="round" stroke-linejoin="round"/>
<path opacity="0.4" fill-rule="evenodd" clip-rule="evenodd" d="M13.9367 11.1484C11.2103 11.1484 9.02417 8.96235 9.02417 6.23471C9.02417 3.50823 11.2103 1.32214 13.9367 1.32214C16.6632 1.32214 18.8493 3.50823 18.8493 6.23471C18.8493 8.96235 16.6632 11.1484 13.9367 11.1484Z" stroke="#6E7B94" stroke-width="1.5" stroke-linecap="round" stroke-linejoin="round"/>
</svg>
