<svg width="22" height="22" viewBox="0 0 22 22" fill="none" xmlns="http://www.w3.org/2000/svg">
<path opacity="0.4" fill-rule="evenodd" clip-rule="evenodd" d="M11.7502 7.32727C11.7502 6.91306 11.4144 6.57727 11.0002 6.57727C10.5859 6.57727 10.2502 6.91306 10.2502 7.32727V10.2405H7.3335C6.91928 10.2405 6.5835 10.5763 6.5835 10.9905C6.5835 11.4047 6.91928 11.7405 7.3335 11.7405H10.2502V14.6536C10.2502 15.0678 10.5859 15.4036 11.0002 15.4036C11.4144 15.4036 11.7502 15.0678 11.7502 14.6536V11.7405H14.6668C15.081 11.7405 15.4168 11.4047 15.4168 10.9905C15.4168 10.5763 15.081 10.2405 14.6668 10.2405H11.7502V7.32727Z" fill="#6E7B94"/>
<path fill-rule="evenodd" clip-rule="evenodd" d="M15.6857 1H6.31429C3.04762 1 1 3.31208 1 6.58516V15.4148C1 18.6879 3.0381 21 6.31429 21H15.6857C18.9619 21 21 18.6879 21 15.4148V6.58516C21 3.31208 18.9619 1 15.6857 1Z" stroke="#6E7B94" stroke-width="1.5" stroke-linecap="round" stroke-linejoin="round"/>
</svg>
