<svg width="28" height="27" viewBox="0 0 28 27" fill="none" xmlns="http://www.w3.org/2000/svg">
<path fill-rule="evenodd" clip-rule="evenodd" d="M10.7484 18.0378C5.49051 18.0378 1 18.8325 1 22.0168C1 25.1997 5.46179 26.0245 10.7484 26.0245C16.0062 26.0245 20.4967 25.2284 20.4967 22.0455C20.4967 18.8626 16.0349 18.0378 10.7484 18.0378Z" stroke="#6E7B94" stroke-width="1.5" stroke-linecap="round" stroke-linejoin="round"/>
<path opacity="0.4" fill-rule="evenodd" clip-rule="evenodd" d="M10.7484 13.4963C14.2171 13.4963 16.9965 10.7155 16.9965 7.24814C16.9965 3.77938 14.2171 1 10.7484 1C7.281 1 4.50024 3.77938 4.50024 7.24814C4.50024 10.7155 7.281 13.4963 10.7484 13.4963Z" stroke="#6E7B94" stroke-width="1.5" stroke-linecap="round" stroke-linejoin="round"/>
<path d="M23.5054 9.09631V14.5812" stroke="#6E7B94" stroke-width="1.5" stroke-linecap="round" stroke-linejoin="round"/>
<path d="M26.3041 11.8386H20.7097" stroke="#6E7B94" stroke-width="1.5" stroke-linecap="round" stroke-linejoin="round"/>
</svg>
