<svg width="50" height="50" viewBox="0 0 50 50" fill="none" xmlns="http://www.w3.org/2000/svg">
<g clip-path="url(#clip0)">
<path d="M36.4582 22.917C28.9915 22.917 22.9165 28.992 22.9165 36.4587C22.9165 43.9253 28.9915 50.0003 36.4582 50.0003C43.9248 50.0003 49.9998 43.9253 49.9998 36.4587C49.9998 28.992 43.9248 22.917 36.4582 22.917ZM41.6665 38.542H38.5415V41.667C38.5415 42.817 37.6082 43.7503 36.4582 43.7503C35.3082 43.7503 34.3748 42.817 34.3748 41.667V38.542H31.2498C30.0998 38.542 29.1665 37.6087 29.1665 36.4587C29.1665 35.3087 30.0998 34.3753 31.2498 34.3753H34.3748V31.2503C34.3748 30.1003 35.3082 29.167 36.4582 29.167C37.6082 29.167 38.5415 30.1003 38.5415 31.2503V34.3753H41.6665C42.8165 34.3753 43.7498 35.3087 43.7498 36.4587C43.7498 37.6087 42.8165 38.542 41.6665 38.542Z" fill="#6E7B94"/>
<path d="M3.125 40.625V34.375H11.4583H18.8833C19.1708 31.9312 19.9625 29.6417 21.1458 27.6042H18.2292C17.3667 27.6042 16.6667 26.9042 16.6667 26.0417C16.6667 25.1792 17.3667 24.4792 18.2292 24.4792H23.4375V21.3542H18.2292C17.3667 21.3542 16.6667 20.6542 16.6667 19.7917C16.6667 18.9292 17.3667 18.2292 18.2292 18.2292H23.4375V15.1042H18.2292C17.3667 15.1042 16.6667 14.4042 16.6667 13.5417C16.6667 12.6792 17.3667 11.9792 18.2292 11.9792H23.4375V8.85417H18.2292C17.3667 8.85417 16.6667 8.15417 16.6667 7.29167C16.6667 6.42917 17.3667 5.72917 18.2292 5.72917H23.4375V1.5625C23.4375 0.7 22.7375 0 21.875 0H11.4583C10.5958 0 9.89583 0.7 9.89583 1.5625V5.72917H5.72917C4.86667 5.72917 4.16667 6.42917 4.16667 7.29167V31.25H1.5625C0.7 31.25 0 31.95 0 32.8125V42.1875C0 43.05 0.7 43.75 1.5625 43.75H20.3396C19.8875 42.7542 19.5292 41.7083 19.2646 40.625H3.125ZM7.29167 8.85417H9.89583V11.9792H7.29167V8.85417ZM7.29167 15.1042H9.89583V18.2292H7.29167V15.1042ZM7.29167 21.3542H9.89583V24.4792H7.29167V21.3542ZM7.29167 27.6042H9.89583V31.25H7.29167V27.6042Z" fill="#6E7B94"/>
</g>
<defs>
<clipPath id="clip0">
<rect width="50" height="50" fill="white"/>
</clipPath>
</defs>
</svg>
