<svg width="173" height="61" viewBox="0 0 173 61" fill="none" xmlns="http://www.w3.org/2000/svg">
<path fill-rule="evenodd" clip-rule="evenodd" d="M13.0167 3.91675H159.728C162.989 3.91675 164.169 4.28196 165.361 4.96022C166.538 5.62752 167.5 6.65924 168.122 7.92108C168.755 9.19933 169.096 10.4645 169.096 13.9471V46.06C169.096 49.5426 168.755 50.8078 168.122 52.0861C167.5 53.3479 166.538 54.3797 165.361 55.047C164.169 55.7252 162.989 56.0904 159.741 56.0904H13.0046C9.75647 56.0904 8.57645 55.7252 7.38427 55.047C6.2074 54.3797 5.24514 53.3479 4.62278 52.0861C3.99019 50.8078 3.64957 49.5426 3.64957 46.06V13.9471C3.64957 10.4645 3.99019 9.19933 4.62278 7.92108C5.24514 6.65924 6.2074 5.62752 7.38427 4.96022C8.57645 4.28196 9.75647 3.91675 13.0046 3.91675H13.0167Z" fill="black"/>
<path fill-rule="evenodd" clip-rule="evenodd" d="M22.8215 42.7469L22.9675 42.7861C22.9181 42.7763 22.8694 42.7632 22.8215 42.7469ZM43.6239 27.8774C44.1713 28.2035 44.512 28.634 44.6215 29.0774L44.6458 29.247C44.5971 29.7427 44.2443 30.2383 43.6117 30.6166L24.3908 42.3165C24.0015 42.5643 23.6244 42.6687 23.296 42.6687C22.9553 42.6687 22.6634 42.5513 22.4201 42.3296L22.3471 42.2513C22.0282 41.8389 21.8673 41.3121 21.897 40.7774V17.7166C21.897 17.0123 22.0916 16.4775 22.4201 16.1514C22.6634 15.9297 22.9553 15.8123 23.296 15.8123C23.6244 15.8123 24.0015 15.9297 24.3908 16.1645L43.6117 27.8774H43.6239ZM23.2838 15.6558H23.4541H23.2838ZM134.96 42.2122H137.223V25.9079H134.96V42.2122ZM155.397 31.7774L152.794 38.847H152.721L150.02 31.7774H147.575L151.626 41.6643L149.315 47.1556H151.687L157.928 31.7774H155.397ZM142.527 40.36C141.784 40.36 140.75 39.9687 140.75 38.9774C140.75 37.7122 142.04 37.2296 143.147 37.2296C144.157 37.2296 144.619 37.4644 145.227 37.7774C145.145 38.4854 144.826 39.1374 144.329 39.6123C143.832 40.0872 143.192 40.3529 142.527 40.36ZM142.806 31.4253C141.152 31.4253 139.461 32.2079 138.755 33.9165L140.763 34.8296C141.201 33.9165 142.003 33.6296 142.831 33.6296C144.011 33.6296 145.203 34.3731 145.227 35.7165V35.8861C144.497 35.4713 143.682 35.2563 142.855 35.26C140.69 35.26 138.476 36.5383 138.476 38.9252C138.476 41.1165 140.264 42.5252 142.247 42.5252C143.78 42.5252 144.619 41.7817 145.154 40.9209H145.227V42.1861H147.417V35.9252C147.417 33.0426 145.398 31.4253 142.794 31.4253H142.806ZM128.768 33.7731H125.544V28.1644H128.768C130.471 28.1644 131.444 29.6774 131.444 30.9687C131.444 32.2339 130.471 33.76 128.768 33.76V33.7731ZM128.719 25.9079H123.269V42.2122H125.544V36.0296H128.707C131.225 36.0296 133.695 34.0731 133.695 30.9687C133.695 27.8644 131.225 25.9079 128.707 25.9079H128.719ZM99.0483 40.36C97.4912 40.36 96.1773 38.9513 96.1773 37.0209C96.1773 35.0644 97.4912 33.6296 99.0483 33.6296C100.605 33.6296 101.822 35.0644 101.822 37.0209C101.822 38.9513 100.605 40.36 99.0483 40.36ZM101.664 32.6905H101.579C101.233 32.288 100.811 31.9693 100.341 31.7556C99.871 31.542 99.3639 31.4382 98.8537 31.4513C97.5145 31.5056 96.2478 32.1179 95.3232 33.1581C94.3985 34.1982 93.8888 35.584 93.9025 37.0209C93.8922 38.4529 94.4041 39.8326 95.3291 40.8657C96.254 41.8989 97.5188 42.5037 98.8537 42.5513C99.3664 42.5654 99.8757 42.4596 100.346 42.2411C100.817 42.0226 101.238 41.6967 101.579 41.2861H101.664V42.0817C101.664 44.2078 100.605 45.3426 98.9023 45.3426C98.333 45.3309 97.7799 45.1372 97.3139 44.7863C96.8479 44.4354 96.4903 43.9433 96.2868 43.373L94.3161 44.2469C94.6874 45.2229 95.3226 46.0574 96.1399 46.6431C96.9572 47.2289 97.9193 47.5391 98.9023 47.5339C101.566 47.5339 103.817 45.8382 103.817 41.7556V31.7905H101.664V32.7035V32.6905ZM105.386 42.2122H107.661V25.9079H105.386V42.2122ZM111.007 36.8252C110.982 36.4218 111.033 36.0171 111.156 35.6349C111.279 35.2528 111.472 34.9007 111.723 34.5995C111.975 34.2982 112.28 34.0538 112.62 33.8806C112.961 33.7073 113.331 33.6087 113.707 33.5905C114.62 33.5905 115.386 34.0731 115.629 34.7644L111.007 36.8383V36.8252ZM118.062 34.9861C117.637 33.747 116.323 31.4644 113.634 31.4644C110.97 31.4644 108.756 33.6948 108.756 36.9948C108.756 40.1122 110.946 42.5513 113.89 42.5513C116.262 42.5513 117.637 40.9861 118.208 40.0861L116.444 38.8339C116.179 39.304 115.803 39.6918 115.355 39.9594C114.908 40.227 114.402 40.365 113.89 40.36C112.734 40.36 111.907 39.7991 111.384 38.6774L118.306 35.6122L118.062 34.9861ZM62.9543 33.16V35.5078H68.1975C68.1218 36.6104 67.7019 37.6535 67.0053 38.4687C66.4782 39.0446 65.8441 39.4954 65.1442 39.792C64.4443 40.0886 63.6941 40.2243 62.9422 40.1904C62.1798 40.1888 61.4253 40.025 60.7223 39.7087C60.0193 39.3923 59.3818 38.9296 58.8467 38.3474C58.3115 37.7651 57.8894 37.0749 57.6047 36.3166C57.32 35.5583 57.1784 34.747 57.188 33.9296C57.1737 32.7159 57.4929 31.5246 58.1058 30.5041C58.7187 29.4836 59.5982 28.6791 60.6347 28.1909C61.6711 27.7027 62.8187 27.5524 63.9342 27.7588C65.0498 27.9651 66.084 28.519 66.908 29.3514L68.453 27.6948C67.7279 26.9259 66.867 26.3199 65.9207 25.9123C64.9745 25.5047 63.9618 25.3036 62.9422 25.3209C60.8014 25.3207 58.7465 26.2235 57.2214 27.8343C55.6963 29.4451 54.8235 31.6345 54.7915 33.9296C54.8235 36.2247 55.6963 38.4141 57.2214 40.0249C58.7465 41.6357 60.8014 42.5385 62.9422 42.5382C65.3387 42.5382 67.1391 41.7035 68.5503 40.1252C69.8293 38.6267 70.5105 36.651 70.4481 34.6209C70.4481 34.0731 70.4116 33.5774 70.3264 33.16H62.9422H62.9543ZM76.4211 40.36C74.8518 40.36 73.5015 38.9774 73.5015 36.9948C73.5015 34.9992 74.8518 33.6426 76.4211 33.6426C78.0026 33.6426 79.3408 34.9992 79.3408 36.9948C79.3408 38.9774 78.0026 40.36 76.4211 40.36ZM76.4211 31.4513C75.7379 31.4391 75.0593 31.5739 74.4255 31.8478C73.7917 32.1217 73.2156 32.5292 72.7312 33.046C72.2469 33.5629 71.8642 34.1787 71.6058 34.8569C71.3473 35.5352 71.2184 36.2622 71.2266 36.9948C71.2168 37.7285 71.3445 38.4569 71.6022 39.1367C71.8599 39.8165 72.2423 40.4338 72.7268 40.9521C73.2113 41.4703 73.788 41.8789 74.4226 42.1537C75.0572 42.4284 75.7369 42.5636 76.4211 42.5513C77.1054 42.5636 77.7851 42.4284 78.4197 42.1537C79.0543 41.8789 79.631 41.4703 80.1155 40.9521C80.6 40.4338 80.9824 39.8165 81.2401 39.1367C81.4978 38.4569 81.6255 37.7285 81.6157 36.9948C81.6239 36.2622 81.495 35.5352 81.2365 34.8569C80.9781 34.1787 80.5954 33.5629 80.111 33.046C79.6267 32.5292 79.0506 32.1217 78.4168 31.8478C77.783 31.5739 77.1044 31.4391 76.4211 31.4513ZM87.7591 40.36C86.1776 40.36 84.8394 38.9774 84.8394 36.9948C84.8394 34.9992 86.1776 33.6426 87.7591 33.6426C89.3162 33.6426 90.6787 34.9992 90.6787 36.9948C90.6787 38.9774 89.3162 40.36 87.7591 40.36ZM87.7591 31.4513C87.0758 31.4391 86.3972 31.5739 85.7634 31.8478C85.1296 32.1217 84.5535 32.5292 84.0692 33.046C83.5848 33.5629 83.2021 34.1787 82.9437 34.8569C82.6852 35.5352 82.5563 36.2622 82.5645 36.9948C82.5547 37.7285 82.6824 38.4569 82.9401 39.1367C83.1978 39.8165 83.5802 40.4338 84.0647 40.9521C84.5492 41.4703 85.1259 41.8789 85.7605 42.1537C86.3951 42.4284 87.0748 42.5636 87.7591 42.5513C88.4433 42.5636 89.123 42.4284 89.7576 42.1537C90.3922 41.8789 90.9689 41.4703 91.4534 40.9521C91.9379 40.4338 92.3203 39.8165 92.578 39.1367C92.8357 38.4569 92.9635 37.7285 92.9536 36.9948C92.9618 36.2622 92.8329 35.5352 92.5744 34.8569C92.316 34.1787 91.9333 33.5629 91.449 33.046C90.9646 32.5292 90.3885 32.1217 89.7547 31.8478C89.1209 31.5739 88.4423 31.4391 87.7591 31.4513Z" fill="white"/>
<path fill-rule="evenodd" clip-rule="evenodd" d="M61.4948 17.1298C61.4948 18.108 61.2271 18.8906 60.6797 19.4776C60.0714 20.1689 59.2564 20.521 58.271 20.521C57.3221 20.521 56.5071 20.1689 55.838 19.4645C55.5164 19.1248 55.2632 18.7181 55.0937 18.2694C54.9242 17.8208 54.8422 17.3397 54.8526 16.8558C54.8526 15.8124 55.1811 14.9254 55.8501 14.2211C56.5071 13.5167 57.31 13.1646 58.271 13.1646C58.7333 13.1646 59.1834 13.2689 59.6092 13.4645C60.0471 13.6602 60.3877 13.9211 60.6432 14.2472L60.0593 14.8602C59.8398 14.5847 59.5648 14.3663 59.2549 14.2217C58.9451 14.077 58.6086 14.0099 58.271 14.0254C57.5776 14.0254 56.9815 14.2863 56.4706 14.808C55.9718 15.3298 55.7163 16.008 55.7163 16.8428C55.7163 17.6776 55.9596 18.3558 56.4706 18.8776C56.9815 19.3993 57.5654 19.6602 58.271 19.6602C59.0009 19.6602 59.6092 19.3993 60.0958 18.8776C60.4121 18.5254 60.6067 18.0558 60.6554 17.4428H58.271V16.595H61.4461C61.4826 16.7776 61.4948 16.9602 61.4948 17.1167" fill="white"/>
<path fill-rule="evenodd" clip-rule="evenodd" d="M61.4945 17.1297H61.3851C61.3851 18.0949 61.1174 18.8254 60.6065 19.3993C59.9982 20.0645 59.2318 20.4036 58.2708 20.4036C57.3462 20.4036 56.5677 20.0645 55.9229 19.3862C55.6075 19.0565 55.3592 18.6602 55.1938 18.2225C55.0284 17.7847 54.9494 17.3149 54.9619 16.8428C54.9619 15.8254 55.2782 14.9906 55.9351 14.2993C56.2394 13.9683 56.6035 13.7074 57.0051 13.5325C57.4067 13.3575 57.8374 13.2723 58.2708 13.2819C58.7209 13.2819 59.1588 13.3732 59.5725 13.5689C59.9861 13.7645 60.3024 14.0123 60.5578 14.3254L60.643 14.2471L60.5578 14.1689L59.9861 14.7819L60.0591 14.8602L60.1442 14.7949C59.6941 14.208 59.0494 13.908 58.2708 13.908C57.5409 13.908 56.9205 14.1819 56.3973 14.7297C55.8742 15.2645 55.6066 15.9819 55.6066 16.8428C55.6066 17.7036 55.8742 18.408 56.3973 18.9558C56.9205 19.5036 57.553 19.7775 58.2708 19.7775C59.025 19.7775 59.6698 19.5036 60.1807 18.9558C60.5213 18.5906 60.716 18.0819 60.7646 17.4558V17.3254H58.3924V16.7123H61.4581V16.5949L61.3486 16.621C61.3851 16.7906 61.3972 16.9601 61.3972 17.1297H61.6162C61.6162 16.9471 61.604 16.7645 61.5675 16.5819L61.5554 16.4775H58.1491V17.5601H60.643V17.4428H60.5213C60.4848 18.0297 60.3024 18.4732 60.0104 18.7862C59.536 19.2949 58.9642 19.5427 58.2586 19.5427C57.5895 19.5427 57.0178 19.2819 56.5312 18.7862C56.0446 18.2906 55.8013 17.6514 55.8013 16.8428C55.8013 16.0341 56.0446 15.408 56.5312 14.8862C57.0178 14.3906 57.5895 14.1428 58.2586 14.1428C58.9885 14.1428 59.5481 14.4036 59.9617 14.9384L60.0469 15.0428L60.7038 14.3254L60.7768 14.2602L60.716 14.1689C60.4245 13.8083 60.0577 13.5267 59.6454 13.3471C59.2107 13.1491 58.7431 13.0471 58.2708 13.0471C57.2976 13.0471 56.446 13.4123 55.7769 14.1428C55.4422 14.4909 55.1777 14.909 54.9999 15.3712C54.822 15.8334 54.7345 16.3298 54.7429 16.8297C54.7429 17.8993 55.0835 18.8123 55.7769 19.5427C56.1023 19.8953 56.4912 20.1731 56.9199 20.3592C57.3487 20.5454 57.8083 20.6359 58.2708 20.6253C59.2805 20.6253 60.1199 20.2601 60.7525 19.5427L60.6795 19.4645L60.7525 19.5558C61.3242 18.9427 61.604 18.121 61.604 17.1167H61.4945V17.1297ZM66.5431 14.1819H63.5505V16.4254H66.2511V17.2601H63.5505V19.5036H66.5431V20.3645H62.7111V13.321H66.5431V14.1819Z" fill="white"/>
<path fill-rule="evenodd" clip-rule="evenodd" d="M66.5431 14.1821V14.0647H63.441V16.543H66.1417V17.143H63.441V19.6212H66.4336V20.2473H62.8206V13.4386H66.4336V14.1821H66.5431V14.0647V14.1952H66.6526V13.2039H62.6016V20.4821H66.6526V19.3864H63.66V17.3777H66.3607V16.3082H63.66V14.2995H66.6526V14.1821H66.531H66.5431ZM70.0954 20.3647H69.256V14.1821H67.4312V13.3212H71.9323V14.1821H70.1075V20.3647" fill="white"/>
<path fill-rule="evenodd" clip-rule="evenodd" d="M70.0955 20.3647V20.2473H69.3656V14.0647H67.5408V13.4386H71.823V14.0647H69.9982V20.3647H70.0955V20.2473V20.3777H70.2172V14.2995H72.0419V13.2039H67.3097V14.2995H69.1466V20.4821H70.205V20.3647H70.0955ZM75.2049 20.3647H76.0564V13.3212H75.2049V20.3647Z" fill="white"/>
<path fill-rule="evenodd" clip-rule="evenodd" d="M75.2048 20.3647H75.3142V13.4517H75.9347V20.2473H75.2048V20.3777H75.3142H75.1926V20.4821H76.1658V13.2039H75.0953V20.4821H75.2048V20.3647ZM79.791 20.3647H78.9395V14.1821H77.1147V13.3212H81.6158V14.1821H79.791V20.3647Z" fill="white"/>
<path fill-rule="evenodd" clip-rule="evenodd" d="M79.7908 20.3646V20.2472H79.0609V14.0646H77.2239V13.4386H81.5061V14.0646H79.6813V20.3646H79.7908V20.2472V20.3777H79.9003V14.2994H81.7251V13.2038H77.005V14.2994H78.8298V20.482H79.9003V20.3646H79.7786H79.7908ZM85.9707 18.8646C86.4573 19.3864 87.0656 19.6472 87.759 19.6472C88.4646 19.6472 89.0606 19.3864 89.5473 18.8646C90.0339 18.3429 90.2772 17.6646 90.2772 16.8429C90.2772 16.0212 90.0339 15.3559 89.5473 14.8212C89.0606 14.2994 88.4646 14.0386 87.759 14.0386C87.0534 14.0386 86.4573 14.2994 85.9707 14.8212C85.4841 15.3429 85.2408 16.0212 85.2408 16.8429C85.2408 17.6646 85.4841 18.3429 85.9707 18.8646ZM90.1677 19.4516C89.5229 20.169 88.72 20.5211 87.759 20.5211C86.7979 20.5211 85.995 20.169 85.3503 19.4516C85.0332 19.1089 84.7837 18.7014 84.6165 18.2532C84.4493 17.8051 84.3679 17.3255 84.3771 16.8429C84.3673 16.3614 84.4477 15.8827 84.6136 15.4351C84.7795 14.9875 85.0274 14.5802 85.3428 14.2372C85.6581 13.8942 86.0345 13.6226 86.4495 13.4383C86.8645 13.2541 87.3098 13.161 87.759 13.1647C88.2082 13.161 88.6534 13.2541 89.0685 13.4383C89.4835 13.6226 89.8598 13.8942 90.1752 14.2372C90.4905 14.5802 90.7385 14.9875 90.9044 15.4351C91.0702 15.8827 91.1507 16.3614 91.1409 16.8429C91.1409 17.8733 90.8124 18.7472 90.1677 19.4516Z" fill="white"/>
<path fill-rule="evenodd" clip-rule="evenodd" d="M85.9708 18.8646L85.8979 18.9428C86.4088 19.4907 87.0292 19.7776 87.7591 19.7776C88.489 19.7776 89.1216 19.4907 89.6204 18.9428C90.1313 18.395 90.3868 17.6907 90.3868 16.8559C90.3868 15.995 90.1313 15.2907 89.6204 14.7429C89.3806 14.4737 89.0914 14.2605 88.7711 14.1169C88.4508 13.9732 88.1063 13.9021 87.7591 13.9081C87.0292 13.9081 86.4088 14.195 85.8979 14.7429C85.6445 15.0193 85.4459 15.3478 85.3142 15.7088C85.1825 16.0697 85.1203 16.4555 85.1314 16.8429C85.1314 17.6907 85.3869 18.4081 85.8979 18.9428L86.056 18.7863C85.8212 18.5309 85.6376 18.2268 85.5162 17.8926C85.3949 17.5584 85.3385 17.2012 85.3504 16.8429C85.3504 16.0602 85.5937 15.4081 86.056 14.8994C86.2763 14.6547 86.5412 14.4613 86.8342 14.3312C87.1272 14.201 87.442 14.1369 87.7591 14.1429C88.4404 14.1429 89 14.4037 89.4622 14.8994C89.9367 15.4211 90.1678 16.0472 90.1678 16.8559C90.1678 17.6385 89.9245 18.2776 89.4622 18.7863C89 19.295 88.4404 19.5428 87.7591 19.5428C87.442 19.5488 87.1272 19.4847 86.8342 19.3545C86.5412 19.2244 86.2763 19.031 86.056 18.7863L85.9708 18.8646ZM90.1678 19.4515L90.0948 19.3733C89.4622 20.0646 88.6958 20.4037 87.7591 20.4167C87.3253 20.4186 86.8956 20.3273 86.4953 20.1482C86.095 19.9691 85.7321 19.7058 85.4283 19.3739C85.1244 19.042 84.8856 18.6482 84.7259 18.2157C84.5663 17.7832 84.4891 17.3209 84.4989 16.8559C84.4875 16.3898 84.5634 15.9261 84.7223 15.4921C84.8812 15.0581 85.1197 14.6627 85.4238 14.3294C85.7279 13.9961 86.0912 13.7317 86.4924 13.5517C86.8935 13.3718 87.3243 13.2801 87.7591 13.282C88.6958 13.282 89.4622 13.6211 90.0827 14.3255C90.7153 15.0168 91.0316 15.8516 91.0316 16.8429C91.0316 17.8472 90.7153 18.682 90.0948 19.3733L90.253 19.5428C90.9099 18.8124 91.2505 17.8994 91.2505 16.8429C91.2603 16.3459 91.177 15.852 91.0056 15.3901C90.8343 14.9283 90.5782 14.508 90.2527 14.1542C89.9272 13.8003 89.5388 13.52 89.1105 13.3299C88.6822 13.1397 88.2227 13.0436 87.7591 13.0472C87.2966 13.0454 86.8384 13.1428 86.4115 13.3337C85.9846 13.5246 85.5977 13.8052 85.2734 14.1589C84.9492 14.5126 84.6943 14.9322 84.5237 15.3932C84.353 15.8541 84.2701 16.347 84.2799 16.8429C84.2799 17.8994 84.6083 18.7994 85.2774 19.5428C85.9343 20.2733 86.7737 20.6385 87.7591 20.6385C88.7445 20.6385 89.5839 20.2733 90.253 19.5428L90.1678 19.4515ZM92.3332 20.3646V13.3211H93.3551L96.5424 18.7994H96.5789L96.5424 17.4428V13.3211H97.3939V20.3646H96.5059L93.1605 14.6255H93.124L93.1605 15.982V20.3646H92.3211" fill="white"/>
<path fill-rule="evenodd" clip-rule="evenodd" d="M92.3331 20.3647H92.4304V13.4517H93.282L96.4814 18.9299H96.6882L96.6517 17.443V13.4386H97.2721V20.2473H96.5665L93.2211 14.5082H93.0143L93.0508 15.9821V20.2473H92.3209V20.3777H92.4426H92.3209V20.4821H93.2698V15.9821L93.2333 14.6125H93.1238V14.743H93.1603V14.6125L93.0752 14.6778L96.4449 20.4821H97.4911V13.2039H96.4327V17.443L96.4692 18.7995H96.5787V18.6821H96.5422V18.8125L96.6395 18.7343L93.4158 13.2039H92.2114V20.4821H92.3331V20.3647Z" fill="white"/>
</svg>
