<svg width="25" height="25" viewBox="0 0 25 25" fill="none" xmlns="http://www.w3.org/2000/svg">
<path d="M9.91487 19.5624L7.68524 21.7269C7.10058 22.311 6.30762 22.6391 5.48079 22.6391C4.65396 22.6391 3.861 22.311 3.27635 21.7269C2.69169 21.1429 2.36324 20.3507 2.36324 19.5247C2.36324 18.6987 2.69169 17.9065 3.27635 17.3225L8.99531 11.5966C9.55664 11.034 10.313 10.7085 11.1078 10.6875C11.9027 10.6664 12.6752 10.9513 13.2656 11.4834L13.4168 11.6092C13.6557 11.8428 13.9777 11.9721 14.3119 11.9686C14.6462 11.965 14.9654 11.829 15.1992 11.5903C15.4331 11.3517 15.5625 11.03 15.559 10.6961C15.5554 10.3622 15.4192 10.0433 15.1803 9.80967C15.1093 9.71784 15.0336 9.62964 14.9536 9.5454C13.8783 8.61079 12.4876 8.11942 11.0632 8.17082C9.63875 8.22223 8.28715 8.81256 7.28214 9.82226L1.4876 15.5481C0.502974 16.6187 -0.0295386 18.028 0.00126565 19.4816C0.0320699 20.9352 0.62381 22.3207 1.65291 23.3487C2.68201 24.3768 4.06889 24.968 5.52393 24.9987C6.97897 25.0295 8.38966 24.4975 9.46139 23.5139L11.6406 21.3872C11.8558 21.1527 11.9741 20.8454 11.9717 20.5273C11.9693 20.2092 11.8464 19.9038 11.6277 19.6726C11.409 19.4413 11.1107 19.3014 10.793 19.281C10.4752 19.2606 10.1614 19.3611 9.91487 19.5624ZM23.3809 1.64251C22.3212 0.590476 20.8879 0 19.394 0C17.9 0 16.4668 0.590476 15.4071 1.64251L13.2278 3.76924C13.0127 4.00375 12.8944 4.31097 12.8968 4.62908C12.8992 4.94719 13.0221 5.25259 13.2408 5.48383C13.4595 5.71506 13.7577 5.85497 14.0755 5.8754C14.3933 5.89583 14.707 5.79527 14.9536 5.59395L17.1329 3.42947C17.7175 2.8454 18.5105 2.51727 19.3373 2.51727C20.1641 2.51727 20.9571 2.8454 21.5417 3.42947C22.1264 4.01354 22.4549 4.80571 22.4549 5.63171C22.4549 6.45771 22.1264 7.24988 21.5417 7.83395L15.8228 13.5598C15.2615 14.1224 14.5051 14.4479 13.7103 14.4689C12.9154 14.49 12.1429 14.2051 11.5525 13.673L11.4013 13.5472C11.1624 13.3136 10.8404 13.1843 10.5062 13.1878C10.1719 13.1914 9.85271 13.3274 9.61885 13.5661C9.38499 13.8047 9.2556 14.1264 9.25914 14.4603C9.26268 14.7942 9.39887 15.1131 9.63774 15.3467C9.72924 15.4402 9.82598 15.5284 9.92747 15.611C11.0041 16.5428 12.3942 17.0323 13.8177 16.9809C15.2413 16.9296 16.5924 16.3411 17.5989 15.3341L23.3305 9.60832C24.3903 8.55638 24.9904 7.12826 24.9999 5.6358C25.0093 4.14333 24.4273 2.70775 23.3809 1.64251Z" fill="#4E596F"/>
</svg>
