<svg width="177" height="40" viewBox="0 0 177 40" fill="none" xmlns="http://www.w3.org/2000/svg">
<path d="M26.0312 31.7969H11.6484L8.91406 40H0.191406L15.0117 0.1875H22.6133L37.5156 40H28.793L26.0312 31.7969ZM13.8633 25.1523H23.8164L18.8125 10.25L13.8633 25.1523ZM102.047 33.4102H122.117V40H91.793V35.1875L111.48 6.83203H91.8203V0.1875H121.68V4.89062L102.047 33.4102ZM136.035 40H127.832V0.1875H136.035V40ZM176.039 40H167.836L151.867 13.8047V40H143.664V0.1875H151.867L167.863 26.4375V0.1875H176.039V40Z" fill="#00DFFF"/>
<path d="M41.2344 40V0.1875H55.1797C60.0104 0.1875 63.6745 1.11719 66.1719 2.97656C68.6693 4.81771 69.918 7.52474 69.918 11.0977C69.918 13.0482 69.4167 14.7708 68.4141 16.2656C67.4115 17.7422 66.0169 18.8268 64.2305 19.5195C66.2721 20.0299 67.8763 21.0599 69.043 22.6094C70.2279 24.1589 70.8203 26.0547 70.8203 28.2969C70.8203 32.125 69.599 35.0234 67.1562 36.9922C64.7135 38.9609 61.2318 39.9635 56.7109 40H41.2344ZM49.4375 22.6641V33.4102H56.4648C58.3971 33.4102 59.901 32.9544 60.9766 32.043C62.0703 31.1133 62.6172 29.8372 62.6172 28.2148C62.6172 24.569 60.7305 22.7188 56.957 22.6641H49.4375ZM49.4375 16.8672H55.5078C59.6458 16.7943 61.7148 15.1445 61.7148 11.918C61.7148 10.1133 61.1862 8.81901 60.1289 8.03516C59.0898 7.23307 57.4401 6.83203 55.1797 6.83203H49.4375V16.8672ZM85.7227 40H77.5195V0.1875H85.7227V40Z" fill="#022F96"/>
</svg>
