<svg width="30" height="37" viewBox="0 0 37 44" fill="none" xmlns="http://www.w3.org/2000/svg">
<path fill-rule="evenodd" clip-rule="evenodd" d="M3.125 34.375V40.625H17.1729H19.2646H33.3125V34.375H24.9792H18.8833H17.5542H11.4583H3.125ZM18.2188 27.6041C19.0765 27.5985 19.7708 26.9007 19.7708 26.0417C19.7708 25.1826 19.0765 24.4848 18.2188 24.4792C17.361 24.4848 16.6667 25.1826 16.6667 26.0417C16.6667 26.9007 17.361 27.5985 18.2188 27.6041ZM18.2188 21.3541C19.0765 21.3485 19.7708 20.6507 19.7708 19.7917C19.7708 18.9326 19.0765 18.2348 18.2188 18.2292C17.361 18.2348 16.6667 18.9326 16.6667 19.7917C16.6667 20.6507 17.361 21.3485 18.2188 21.3541ZM18.2188 15.1041C19.0765 15.0985 19.7708 14.4007 19.7708 13.5417C19.7708 12.6826 19.0765 11.9848 18.2188 11.9792C17.361 11.9848 16.6667 12.6826 16.6667 13.5417C16.6667 14.4007 17.361 15.0985 18.2188 15.1041ZM18.2188 8.85413C19.0765 8.84852 19.7708 8.15069 19.7708 7.29167C19.7708 6.43264 19.0765 5.73481 18.2188 5.7292C17.361 5.73481 16.6667 6.43264 16.6667 7.29167C16.6667 8.15069 17.361 8.84852 18.2188 8.85413ZM14.5625 0H21.875H24.9792C25.8417 0 26.5417 0.7 26.5417 1.5625V5.72917H30.7083C31.5708 5.72917 32.2708 6.42917 32.2708 7.29167V31.25H34.875C35.7375 31.25 36.4375 31.95 36.4375 32.8125V42.1875C36.4375 43.05 35.7375 43.75 34.875 43.75H20.3396H16.0979H1.5625C0.7 43.75 0 43.05 0 42.1875V32.8125C0 31.95 0.7 31.25 1.5625 31.25H4.16667V7.29167C4.16667 6.42917 4.86667 5.72917 5.72917 5.72917H9.89583V1.5625C9.89583 0.7 10.5958 0 11.4583 0H14.5625ZM9.89583 8.85417H7.29167V11.9792H9.89583V8.85417ZM9.89583 15.1042H7.29167V18.2292H9.89583V15.1042ZM9.89583 21.3542H7.29167V24.4792H9.89583V21.3542ZM9.89583 27.6042H7.29167V31.25H9.89583V27.6042ZM26.5417 8.85417H29.1458V11.9792H26.5417V8.85417ZM26.5417 15.1042H29.1458V18.2292H26.5417V15.1042ZM26.5417 21.3542H29.1458V24.4792H26.5417V21.3542ZM26.5417 27.6042H29.1458V31.25H26.5417V27.6042Z" fill="white"/>
</svg>
