<svg width="29" height="32" viewBox="0 0 29 32" fill="none" xmlns="http://www.w3.org/2000/svg">
<path opacity="0.4" d="M1.13898 12.1063H27.8749" stroke="#6E7B94" stroke-width="1.5" stroke-linecap="round" stroke-linejoin="round"/>
<path opacity="0.4" fill-rule="evenodd" clip-rule="evenodd" d="M7.08685 17.9645C7.08685 17.5503 7.42264 17.2145 7.83685 17.2145H7.85075C8.26496 17.2145 8.60075 17.5503 8.60075 17.9645C8.60075 18.3787 8.26496 18.7145 7.85075 18.7145H7.83685C7.42264 18.7145 7.08685 18.3787 7.08685 17.9645ZM14.5069 17.2145C14.0927 17.2145 13.7569 17.5503 13.7569 17.9645C13.7569 18.3787 14.0927 18.7145 14.5069 18.7145H14.5208C14.935 18.7145 15.2708 18.3787 15.2708 17.9645C15.2708 17.5503 14.935 17.2145 14.5208 17.2145H14.5069ZM21.1631 17.2145C20.7489 17.2145 20.4131 17.5503 20.4131 17.9645C20.4131 18.3787 20.7489 18.7145 21.1631 18.7145H21.177C21.5912 18.7145 21.927 18.3787 21.927 17.9645C21.927 17.5503 21.5912 17.2145 21.177 17.2145H21.1631ZM21.1631 23.0442C20.7489 23.0442 20.4131 23.38 20.4131 23.7942C20.4131 24.2084 20.7489 24.5442 21.1631 24.5442H21.177C21.5912 24.5442 21.927 24.2084 21.927 23.7942C21.927 23.38 21.5912 23.0442 21.177 23.0442H21.1631ZM13.7569 23.7942C13.7569 23.38 14.0927 23.0442 14.5069 23.0442H14.5208C14.935 23.0442 15.2708 23.38 15.2708 23.7942C15.2708 24.2084 14.935 24.5442 14.5208 24.5442H14.5069C14.0927 24.5442 13.7569 24.2084 13.7569 23.7942ZM7.83685 23.0442C7.42264 23.0442 7.08685 23.38 7.08685 23.7942C7.08685 24.2084 7.42264 24.5442 7.83685 24.5442H7.85075C8.26496 24.5442 8.60075 24.2084 8.60075 23.7942C8.60075 23.38 8.26496 23.0442 7.85075 23.0442H7.83685Z" fill="#6E7B94"/>
<path d="M20.5656 1V5.93617" stroke="#6E7B94" stroke-width="1.5" stroke-linecap="round" stroke-linejoin="round"/>
<path d="M8.44828 1V5.93617" stroke="#6E7B94" stroke-width="1.5" stroke-linecap="round" stroke-linejoin="round"/>
<path fill-rule="evenodd" clip-rule="evenodd" d="M20.8574 3.3689H8.15644C3.75141 3.3689 1 5.8228 1 10.3334V23.9079C1 28.4895 3.75141 31.0001 8.15644 31.0001H20.8435C25.2624 31.0001 27.9999 28.532 27.9999 24.0214V10.3334C28.0138 5.8228 25.2763 3.3689 20.8574 3.3689Z" stroke="#6E7B94" stroke-width="1.5" stroke-linecap="round" stroke-linejoin="round"/>
</svg>
