<svg width="20" height="22" viewBox="0 0 20 22" fill="none" xmlns="http://www.w3.org/2000/svg">
<path opacity="0.4" d="M1.09253 8.40421H18.9165" stroke="#6E7B94" stroke-width="1.5" stroke-linecap="round" stroke-linejoin="round"/>
<path opacity="0.4" fill-rule="evenodd" clip-rule="evenodd" d="M4.80786 12.3097C4.80786 11.8955 5.14365 11.5597 5.55786 11.5597H5.56713C5.98134 11.5597 6.31713 11.8955 6.31713 12.3097C6.31713 12.7239 5.98134 13.0597 5.56713 13.0597H5.55786C5.14365 13.0597 4.80786 12.7239 4.80786 12.3097ZM10.0046 11.5597C9.59037 11.5597 9.25459 11.8955 9.25459 12.3097C9.25459 12.7239 9.59037 13.0597 10.0046 13.0597H10.0138C10.4281 13.0597 10.7638 12.7239 10.7638 12.3097C10.7638 11.8955 10.4281 11.5597 10.0138 11.5597H10.0046ZM14.442 11.5597C14.0278 11.5597 13.692 11.8955 13.692 12.3097C13.692 12.7239 14.0278 13.0597 14.442 13.0597H14.4513C14.8655 13.0597 15.2013 12.7239 15.2013 12.3097C15.2013 11.8955 14.8655 11.5597 14.4513 11.5597H14.442ZM14.442 15.4462C14.0278 15.4462 13.692 15.782 13.692 16.1962C13.692 16.6104 14.0278 16.9462 14.442 16.9462H14.4513C14.8655 16.9462 15.2013 16.6104 15.2013 16.1962C15.2013 15.782 14.8655 15.4462 14.4513 15.4462H14.442ZM9.25459 16.1962C9.25459 15.782 9.59037 15.4462 10.0046 15.4462H10.0138C10.4281 15.4462 10.7638 15.782 10.7638 16.1962C10.7638 16.6104 10.4281 16.9462 10.0138 16.9462H10.0046C9.59037 16.9462 9.25459 16.6104 9.25459 16.1962ZM5.55786 15.4462C5.14365 15.4462 4.80786 15.782 4.80786 16.1962C4.80786 16.6104 5.14365 16.9462 5.55786 16.9462H5.56713C5.98134 16.9462 6.31713 16.6104 6.31713 16.1962C6.31713 15.782 5.98134 15.4462 5.56713 15.4462H5.55786Z" fill="#6E7B94"/>
<path d="M14.0438 1V4.29078" stroke="#6E7B94" stroke-width="1.5" stroke-linecap="round" stroke-linejoin="round"/>
<path d="M5.9654 1V4.29078" stroke="#6E7B94" stroke-width="1.5" stroke-linecap="round" stroke-linejoin="round"/>
<path fill-rule="evenodd" clip-rule="evenodd" d="M14.2383 2.57922H5.77096C2.83427 2.57922 1 4.21516 1 7.22225V16.2719C1 19.3263 2.83427 21 5.77096 21H14.229C17.175 21 19 19.3546 19 16.3475V7.22225C19.0092 4.21516 17.1842 2.57922 14.2383 2.57922Z" stroke="#6E7B94" stroke-width="1.5" stroke-linecap="round" stroke-linejoin="round"/>
</svg>
