<svg width="203" height="157" viewBox="0 0 203 157" fill="none" xmlns="http://www.w3.org/2000/svg">
<path d="M202.525 83.9426C202.518 97.288 198.805 110.374 191.793 121.766C184.782 133.159 174.743 142.418 162.775 148.529C162.237 148.809 161.694 149.078 161.148 149.336L161.035 149.392L160.645 149.576C160.323 149.733 160.007 149.879 159.679 150.025C157.634 150.954 155.536 151.789 153.386 152.528C152.166 152.95 150.932 153.34 149.685 153.699L148.194 154.107C131.6 158.489 113.981 156.969 98.3997 149.812C97.7613 149.515 97.1229 149.212 96.4958 148.899L95.3659 148.339C84.1825 142.529 74.6959 133.963 67.8191 123.466C67.096 122.372 66.4068 121.252 65.7514 120.106C65.1676 119.109 64.6027 118.099 64.0566 117.076C58.7489 106.825 55.9888 95.4651 56.0061 83.9426C56.0061 82.5835 56.0438 81.2318 56.1191 79.8877C57.1782 61.0046 65.6266 43.2761 79.6673 30.4728C93.708 17.6695 112.233 10.8017 131.303 11.3299C150.373 11.8581 168.482 19.7407 181.78 33.3013C195.077 46.8618 202.514 65.0303 202.508 83.9426H202.525Z" fill="url(#paint0_linear)"/>
<path d="M1.16708 24.7319C1.16708 10.9518 12.4374 -0.196142 26.2632 0.00286782C39.6557 0.195438 50.5454 11.1787 50.6301 24.5721C50.6776 32.0729 47.3849 38.8046 42.153 43.3707C41.6007 43.8525 41.6804 44.7319 42.3112 45.1051L46.9712 47.8624C47.7246 48.3083 47.4085 49.4631 46.533 49.4631L25.4306 49.4579C11.9878 49.208 1.16708 38.2342 1.16708 24.7319Z" fill="#7ACAA6"/>
<path d="M46.9712 47.8623L42.3109 45.105C41.6835 44.734 41.5964 43.8558 42.1456 43.3768C47.4373 38.7621 50.7472 31.9323 50.6273 24.3319C50.4197 11.1853 39.7793 0.393735 26.6363 0.0107405C24.7726 -0.0435349 22.9536 0.108866 21.2005 0.445864C32.5606 2.62363 41.2183 12.637 41.2938 24.5717C41.3303 30.3516 39.3834 35.6749 36.0944 39.9025C34.1083 42.4553 34.7537 46.1571 37.5374 47.8044L37.6349 47.862C38.3801 48.303 38.0777 49.4357 37.2243 49.4602L46.5327 49.4624C47.4082 49.463 47.7246 48.3079 46.9712 47.8623Z" fill="#57BE92"/>
<path d="M121.673 89.7706H65.5677C51.5549 89.7706 43.8864 73.4401 52.8363 62.6574L53.334 62.0576C57.2768 57.3075 59.4349 51.3283 59.4349 45.155V34.3358C59.4352 15.3725 74.8077 0 93.771 0C112.734 0 128.107 15.3725 128.107 34.3358V45.5202C128.107 51.7582 130.31 57.7956 134.329 62.5673C143.39 73.3279 135.741 89.7706 121.673 89.7706Z" fill="#C59191"/>
<path d="M151.165 117.575V154.666H36.0763V117.854C36.0763 109.52 41.0714 101.998 48.7497 98.7658L67.3291 90.6888L73.5845 87.9689C78.3313 85.9052 81.4008 81.2228 81.4008 76.0467V73.6458H105.837V75.9241C105.837 81.1217 108.937 85.8225 113.718 87.8708L138.847 98.6431C146.335 101.961 151.165 109.382 151.165 117.575Z" fill="white"/>
<path d="M67.3275 99.5325C73.6686 101.427 83.0018 103.448 94.3785 103.249C105.053 103.063 113.815 100.987 119.913 99.0394L122.942 91.8251L113.717 87.8709C108.937 85.8223 105.839 81.123 105.839 75.923V73.6465H81.4023V76.0469C81.4023 81.2224 78.3323 85.9045 73.5864 87.9681L66.1142 91.217L67.3275 99.5325Z" fill="#FFCEBF"/>
<path d="M138.846 98.6417L119.916 90.5283L119.913 90.5286V154.666H151.165V117.576C151.165 109.383 146.336 101.961 138.846 98.6417Z" fill="#8795DE"/>
<path d="M67.3291 90.689V154.666H36.0763V117.854C36.0763 109.52 41.0714 101.998 48.7497 98.7659L67.3291 90.689Z" fill="#8795DE"/>
<path d="M102.091 87.0589C104.902 87.0589 107.581 86.4944 110.023 85.4757C107.403 83.0578 105.838 79.6173 105.838 75.9232V73.6467H81.402V76.0468C81.402 77.9164 80.9994 79.721 80.2638 81.3615C83.964 84.8888 88.9699 87.0586 94.4855 87.0586H102.091V87.0589Z" fill="#FFB09E"/>
<path d="M118.043 36.8866V57.1019C118.043 68.4905 108.811 77.7225 97.4228 77.7225H89.8178C78.4291 77.7225 69.1971 68.4902 69.1971 57.1019V36.8866C69.1971 29.4778 75.203 23.4717 82.612 23.4717H104.629C112.038 23.472 118.043 29.4778 118.043 36.8866Z" fill="#FFCEBF"/>
<path d="M118.043 47.4045C118.034 47.4324 118.023 47.4594 118.015 47.4879C117.269 50.0622 115.313 54.9249 110.585 58.5706C108.384 60.2684 105.873 61.495 103.122 62.2168C101.875 62.544 101.129 63.8199 101.457 65.0667C101.732 66.1151 102.677 66.8091 103.713 66.8091C103.909 66.8091 104.108 66.7842 104.307 66.7321C107.665 65.8508 110.736 64.3486 113.436 62.2674C115.3 60.8299 116.809 59.2421 118.03 57.6457C118.035 57.4648 118.044 57.2848 118.044 57.1027V47.4045H118.043Z" fill="#7A6D79"/>
<path d="M100.562 68.6687H95.0929C92.6033 68.6687 90.585 66.6504 90.585 64.1608C90.585 61.6711 92.6033 59.6528 95.0929 59.6528H100.562C103.052 59.6528 105.07 61.6711 105.07 64.1608C105.07 66.6507 103.052 68.6687 100.562 68.6687Z" fill="#685E68"/>
<path d="M98.4933 18.1216C99.017 11.5166 105.341 7.13316 111.393 4.86279C121.404 10.8616 128.107 21.8151 128.107 34.3356V36.6961C127.553 36.8123 127.003 36.9141 126.458 36.9954C123.124 37.4933 120.285 37.2778 118.345 36.9954C105.845 35.3303 97.8607 26.0989 98.4933 18.1216Z" fill="#B98080"/>
<path d="M93.771 0C101.525 0 108.679 2.57149 114.427 6.90708C111.559 11.8964 104.975 21.7611 92.6287 29.064C83.4633 34.4857 74.8209 36.3075 69.4988 36.9953H59.4355V34.3355C59.4352 15.3725 74.8077 0 93.771 0V0Z" fill="#C59191"/>
<path d="M132.153 154.666H57.439L53.3181 115.791C53.0258 113.034 55.1874 110.631 57.96 110.631H131.633C134.405 110.631 136.567 113.034 136.274 115.791L132.153 154.666Z" fill="#EFEDEF"/>
<path d="M131.632 110.631H122.296C125.069 110.631 127.23 113.034 126.938 115.791L122.817 154.666H132.153L136.274 115.791C136.567 113.034 134.405 110.631 131.632 110.631Z" fill="#E5E1E5"/>
<path d="M154.7 157H2.2998C1.02939 157 0 155.97 0 154.7C0 153.43 1.02939 152.4 2.2998 152.4H154.7C155.971 152.4 157 153.43 157 154.7C157 155.97 155.971 157 154.7 157Z" fill="#C9BFC8"/>
<path d="M94.7961 139.184C98.4054 139.184 101.331 136.258 101.331 132.649C101.331 129.04 98.4054 126.114 94.7961 126.114C91.1869 126.114 88.261 129.04 88.261 132.649C88.261 136.258 91.1869 139.184 94.7961 139.184Z" fill="#C9BFC8"/>
<path d="M16.5629 27.0654C17.8518 27.0654 18.8967 26.0205 18.8967 24.7315C18.8967 23.4426 17.8518 22.3977 16.5629 22.3977C15.2739 22.3977 14.229 23.4426 14.229 24.7315C14.229 26.0205 15.2739 27.0654 16.5629 27.0654Z" fill="white"/>
<path d="M25.8988 27.0654C27.1878 27.0654 28.2327 26.0205 28.2327 24.7315C28.2327 23.4426 27.1878 22.3977 25.8988 22.3977C24.6099 22.3977 23.565 23.4426 23.565 24.7315C23.565 26.0205 24.6099 27.0654 25.8988 27.0654Z" fill="white"/>
<path d="M35.2348 27.0654C36.5238 27.0654 37.5687 26.0205 37.5687 24.7315C37.5687 23.4426 36.5238 22.3977 35.2348 22.3977C33.9459 22.3977 32.901 23.4426 32.901 24.7315C32.901 26.0205 33.9459 27.0654 35.2348 27.0654Z" fill="white"/>
<defs>
<linearGradient id="paint0_linear" x1="129.566" y1="19.1891" x2="127.103" y2="162.353" gradientUnits="userSpaceOnUse">
<stop stop-color="white" stop-opacity="0"/>
<stop offset="1" stop-color="#64B5F6" stop-opacity="0.6"/>
</linearGradient>
</defs>
</svg>
