<svg width="19" height="17" viewBox="0 0 19 17" fill="none" xmlns="http://www.w3.org/2000/svg">
<path fill-rule="evenodd" clip-rule="evenodd" d="M14.5184 4.05067V4.05067C14.1797 4.05067 13.8728 3.85545 13.7284 3.55036C13.4678 2.99829 13.1364 2.29277 12.9403 1.90868C12.6506 1.33755 12.1812 1.00522 11.531 1.00068C11.5201 0.999773 7.27794 0.999773 7.26704 1.00068C6.61691 1.00522 6.14838 1.33755 5.85782 1.90868C5.6626 2.29277 5.33118 2.99829 5.07058 3.55036C4.92621 3.85545 4.6184 4.05067 4.28062 4.05067V4.05067C2.46824 4.05067 1 5.51891 1 7.33038V12.7203C1 14.5308 2.46824 16 4.28062 16H14.5184C16.3298 16 17.7981 14.5308 17.7981 12.7203V7.33038C17.7981 5.51891 16.3298 4.05067 14.5184 4.05067Z" stroke="#6E7B94" stroke-width="1.5" stroke-linecap="round" stroke-linejoin="round"/>
<path opacity="0.4" fill-rule="evenodd" clip-rule="evenodd" d="M6.51303 9.7025C6.51212 11.2942 7.81148 12.5963 9.40048 12.5954C10.9868 12.5936 12.2825 11.297 12.2852 9.70886C12.2879 8.1144 10.9931 6.81505 9.4023 6.81323C7.8024 6.81142 6.50032 8.13256 6.51303 9.7025Z" stroke="#6E7B94" stroke-width="1.5" stroke-linecap="round" stroke-linejoin="round"/>
<path opacity="0.4" d="M13.8507 7.57839C13.763 7.56939 13.6764 7.5465 13.5793 7.50744C13.4714 7.45948 13.3779 7.39848 13.2876 7.30669C13.1252 7.13403 13.0312 6.90823 13.0312 6.67529C13.0312 6.55156 13.0565 6.42892 13.1059 6.31783C13.1554 6.20528 13.2141 6.11034 13.3202 6.00706C13.4008 5.93681 13.4835 5.88028 13.5964 5.83052C13.9314 5.6978 14.3298 5.7771 14.5788 6.026C14.6534 6.09953 14.7163 6.18826 14.7511 6.26308L14.7718 6.31614C14.822 6.42892 14.8473 6.55156 14.8473 6.67529C14.8473 6.91295 14.7545 7.13274 14.5823 7.31569C14.4334 7.46555 14.2379 7.5577 14.0293 7.5784L13.9393 7.58285L13.8507 7.57839Z" fill="#6E7B94"/>
</svg>
