<svg width="16" height="15" viewBox="0 0 16 15" fill="none" xmlns="http://www.w3.org/2000/svg">
<path d="M11.7083 1.90412L12.5087 2.50545V1.50437C12.5087 1.2392 12.614 0.984854 12.8016 0.79731C12.9892 0.609761 13.2437 0.504375 13.509 0.504375C13.7744 0.504375 14.0288 0.60976 14.2164 0.797309C14.404 0.984854 14.5094 1.2392 14.5094 1.50437V6.00437C14.5094 6.26955 14.404 6.52389 14.2164 6.71144C14.0288 6.89899 13.7744 7.00437 13.509 7.00437H9.00795C8.7426 7.00437 8.48815 6.89899 8.30055 6.71144C8.11296 6.52389 8.0076 6.26955 8.0076 6.00437C8.0076 5.73919 8.11296 5.48485 8.30055 5.29731C8.48815 5.10976 8.7426 5.00437 9.00795 5.00437H10.8534H11.9716L11.226 4.171C10.7581 3.64792 10.1852 3.2292 9.54475 2.94206C8.90428 2.65492 8.21052 2.5058 7.50861 2.50436L7.50498 2.50438C6.69694 2.50862 5.90197 2.70854 5.18809 3.08705C4.47422 3.46556 3.8627 4.01138 3.4059 4.67781C2.9491 5.34423 2.66062 6.1114 2.56516 6.91366C2.4697 7.71592 2.57011 8.52935 2.85779 9.28432C3.14546 10.0393 3.61184 10.7133 4.21698 11.2487C4.82212 11.7841 5.54801 12.1649 6.3325 12.3586C7.11699 12.5522 7.93673 12.5529 8.72155 12.3606C9.50637 12.1683 10.2329 11.7888 10.839 11.2544L10.8604 11.2355L10.8795 11.2143C10.9745 11.1091 11.0906 11.0253 11.2204 10.9683C11.3502 10.9114 11.4906 10.8827 11.6323 10.8841C11.774 10.8855 11.9138 10.917 12.0425 10.9765C12.1711 11.036 12.2856 11.1221 12.3784 11.2292L12.7562 10.9017L12.3784 11.2292C12.4712 11.3362 12.5402 11.4618 12.5808 11.5975L13.0598 11.4541L12.5808 11.5975C12.6214 11.7332 12.6327 11.8759 12.614 12.0163C12.5952 12.1567 12.5468 12.2916 12.4721 12.4119C12.3973 12.5322 12.2977 12.6353 12.1801 12.7142L12.153 12.7324L12.1284 12.754C11.1347 13.6286 9.91335 14.2037 8.60599 14.4124C7.29862 14.6211 5.95885 14.455 4.74209 13.9333C3.52533 13.4117 2.48147 12.5558 1.73156 11.465C0.981661 10.3743 0.556449 9.09332 0.505241 7.77076C0.454033 6.4482 0.778927 5.13822 1.44224 3.99277C2.10556 2.84732 3.08012 1.91334 4.2529 1.29919C5.42567 0.68503 6.74859 0.415872 8.06818 0.522945C9.38778 0.630018 10.65 1.10893 11.7083 1.90412Z" fill="#022F96" stroke="white"/>
</svg>
