<svg width="27" height="27" viewBox="0 0 27 27" fill="none" xmlns="http://www.w3.org/2000/svg">
<path fill-rule="evenodd" clip-rule="evenodd" d="M13.571 1.0001C9.18358 0.982373 5.10696 3.2588 2.82563 7.00043C0.544293 10.7421 0.391149 15.4029 2.42196 19.2858L2.67237 19.7739C2.87761 20.158 2.92055 20.608 2.79161 21.0239C2.43428 21.973 2.13561 22.943 1.8973 23.9286C1.8973 24.4286 2.04039 24.7143 2.57697 24.7024C3.52737 24.4926 4.46334 24.2222 5.37914 23.8929C5.77358 23.7843 6.19296 23.8094 6.57156 23.9644C6.91736 24.131 7.62088 24.5596 7.64473 24.5596C12.2394 26.9755 17.851 26.309 21.7497 22.8843C25.6484 19.4595 27.0249 13.9875 25.2095 9.13004C23.3942 4.27261 18.7639 1.03816 13.571 1.0001V1.0001Z" stroke="#6E7B94" stroke-width="1.5" stroke-linecap="round" stroke-linejoin="round"/>
<ellipse opacity="0.4" cx="7.6089" cy="13.5" rx="0.596207" ry="0.595237" fill="#6E7B94" stroke="#6E7B94" stroke-width="1.5" stroke-linecap="round" stroke-linejoin="round"/>
<ellipse opacity="0.4" cx="13.571" cy="13.5" rx="0.596207" ry="0.595237" fill="#6E7B94" stroke="#6E7B94" stroke-width="1.5" stroke-linecap="round" stroke-linejoin="round"/>
<ellipse opacity="0.4" cx="19.5331" cy="13.5" rx="0.596207" ry="0.595237" fill="#6E7B94" stroke="#6E7B94" stroke-width="1.5" stroke-linecap="round" stroke-linejoin="round"/>
</svg>
