<svg width="22" height="22" viewBox="0 0 22 22" fill="none" xmlns="http://www.w3.org/2000/svg">
<path opacity="0.4" fill-rule="evenodd" clip-rule="evenodd" d="M8.93664 7.86719C8.64377 7.57426 8.1689 7.57421 7.87598 7.86708C7.58305 8.15994 7.583 8.63481 7.87586 8.92774L9.93794 10.9902L7.87826 13.0499C7.58537 13.3428 7.58537 13.8177 7.87826 14.1106C8.17116 14.4035 8.64603 14.4035 8.93892 14.1106L10.9985 12.051L13.0607 14.1137C13.3536 14.4066 13.8285 14.4067 14.1214 14.1138C14.4143 13.8209 14.4144 13.3461 14.1215 13.0531L12.0591 10.9904L14.1195 8.93004C14.4124 8.63714 14.4124 8.16227 14.1195 7.86938C13.8266 7.57648 13.3517 7.57648 13.0588 7.86938L10.9986 9.92958L8.93664 7.86719Z" fill="#FFFFFF"/>
<path fill-rule="evenodd" clip-rule="evenodd" d="M15.6854 1H6.31351C3.04757 1 1 3.31243 1 6.58486V15.4151C1 18.6876 3.03784 21 6.31351 21H15.6843C18.9611 21 21 18.6876 21 15.4151V6.58486C21 3.31243 18.9611 1 15.6854 1Z" stroke="#FFFFFF" stroke-width="1.5" stroke-linecap="round" stroke-linejoin="round"/>
</svg>
