<svg width="17" height="17" viewBox="0 0 17 17" fill="none" xmlns="http://www.w3.org/2000/svg">
<rect y="0.00390625" width="16.6802" height="16.6795" rx="8.33977" fill="#00DFFF"/>
<path fill-rule="evenodd" clip-rule="evenodd" d="M10.9615 10.6816C10.7163 10.9259 10.3202 10.9309 10.0691 10.6916L10.0374 10.6607L6.05087 6.67514C5.80733 6.4166 5.80233 6.01463 6.04002 5.75109C6.28355 5.50173 6.68221 5.49673 6.93158 5.74025C6.93408 5.74192 6.93575 5.74358 6.93825 5.74609L8.49368 7.30229L9.90899 5.88619C10.1634 5.64351 10.5645 5.64601 10.8164 5.89203C10.8614 5.93707 10.8998 5.98794 10.929 6.04465C11.0733 6.29568 11.0316 6.61092 10.8272 6.81608L9.41776 8.22467L10.9507 9.75835C11.2092 10.0027 11.2192 10.4105 10.974 10.6682C10.9721 10.6711 10.9697 10.6734 10.9672 10.6758C10.9653 10.6776 10.9633 10.6794 10.9615 10.6816ZM5.94753 9.86947L6.51799 9.29903C6.7757 9.05801 7.17935 9.07302 7.42038 9.32989C7.66057 9.58842 7.6464 9.99207 7.38869 10.2323L6.82073 10.8002C6.5697 11.0354 6.17771 11.0287 5.93418 10.7852L5.91584 10.7718C5.67898 10.5125 5.69316 10.1113 5.94753 9.86947Z" fill="white"/>
</svg>
