<svg width="22" height="22" viewBox="0 0 22 22" fill="none" xmlns="http://www.w3.org/2000/svg">
<path opacity="0.4" fill-rule="evenodd" clip-rule="evenodd" d="M8.93639 7.86719C8.64353 7.57426 8.16865 7.57421 7.87573 7.86708C7.58281 8.15994 7.58276 8.63481 7.87562 8.92774L9.93784 10.9904L7.87832 13.0499C7.58542 13.3428 7.58542 13.8177 7.87832 14.1106C8.17121 14.4035 8.64608 14.4035 8.93898 14.1106L10.9984 12.0512L13.0605 14.1137C13.3533 14.4066 13.8282 14.4067 14.1211 14.1138C14.4141 13.8209 14.4141 13.3461 14.1213 13.0531L12.0591 10.9905L14.1195 8.93003C14.4124 8.63714 14.4124 8.16227 14.1195 7.86937C13.8266 7.57648 13.3517 7.57648 13.0589 7.86937L10.9985 9.92973L8.93639 7.86719Z" fill="#6E7B94"/>
<path fill-rule="evenodd" clip-rule="evenodd" d="M15.6854 1H6.31351C3.04757 1 1 3.31243 1 6.58486V15.4151C1 18.6876 3.03784 21 6.31351 21H15.6843C18.9611 21 21 18.6876 21 15.4151V6.58486C21 3.31243 18.9611 1 15.6854 1Z" stroke="#6E7B94" stroke-width="1.5" stroke-linecap="round" stroke-linejoin="round"/>
</svg>
