<svg width="25" height="25" viewBox="0 0 25 25" fill="none" xmlns="http://www.w3.org/2000/svg">
<path fill-rule="evenodd" clip-rule="evenodd" d="M16.981 23.0438C17.6126 23.4764 18.4159 23.9384 19.3562 24.2949C21.1802 24.9862 22.5433 25.0275 23.1738 24.9906C24.5793 24.9112 24.7685 24.021 24.0141 22.9145C23.1532 21.6536 22.3238 20.2264 22.4053 18.647C23.7423 16.6722 24.4553 14.3415 24.4521 11.9567C24.4521 5.35334 19.0986 0 12.4949 0C5.8912 0 0.537598 5.35334 0.537598 11.9567C0.537598 18.5601 5.8912 23.9134 12.4949 23.9134C14.0798 23.9134 15.594 23.6047 16.981 23.0438ZM12.4949 2.17394C9.9002 2.17394 7.4118 3.20462 5.57709 5.03925C3.74238 6.87387 2.71165 9.36215 2.71165 11.9567C2.71165 14.5512 3.74238 17.0395 5.57709 18.8741C7.4118 20.7088 9.9002 21.7394 12.4949 21.7394C13.9841 21.7394 15.3918 21.4079 16.6527 20.8155C16.8331 20.7306 17.0334 20.697 17.2317 20.7183C17.4299 20.7395 17.6185 20.8149 17.7767 20.9362C18.3452 21.372 19.1518 21.8927 20.1269 22.2623C20.5508 22.4232 20.9378 22.5395 21.2846 22.6221C20.9226 21.9623 20.5562 21.1764 20.3888 20.4373C20.2149 19.6742 19.954 18.3459 20.4606 17.6372C21.646 15.9806 22.2817 13.9937 22.2781 11.9567C22.2781 9.36215 21.2474 6.87387 19.4127 5.03925C17.5779 3.20462 15.0895 2.17394 12.4949 2.17394Z" fill="#6E7B94"/>
</svg>
