<svg width="24" height="25" viewBox="0 0 24 25" fill="none" xmlns="http://www.w3.org/2000/svg">
<path fill-rule="evenodd" clip-rule="evenodd" d="M16.4434 23.0438C17.075 23.4764 17.8783 23.9384 18.8186 24.2949C20.6426 24.9862 22.0057 25.0275 22.6362 24.9906C24.0417 24.9112 24.2309 24.021 23.4765 22.9145C22.6156 21.6536 21.7862 20.2264 21.8677 18.647C23.2047 16.6722 23.9177 14.3415 23.9146 11.9567C23.9146 5.35334 18.561 0 11.9573 0C5.3536 0 0 5.35334 0 11.9567C0 18.5601 5.3536 23.9134 11.9573 23.9134C13.5422 23.9134 15.0564 23.6047 16.4434 23.0438ZM11.9573 2.17394C9.3626 2.17394 6.8742 3.20462 5.03949 5.03925C3.20478 6.87387 2.17405 9.36215 2.17405 11.9567C2.17405 14.5512 3.20478 17.0395 5.03949 18.8741C6.8742 20.7088 9.3626 21.7394 11.9573 21.7394C13.4465 21.7394 14.8542 21.4079 16.1151 20.8155C16.2955 20.7306 16.4958 20.697 16.6941 20.7183C16.8923 20.7395 17.0809 20.8149 17.2391 20.9362C17.8076 21.3721 18.6142 21.8927 19.5893 22.2623C20.0132 22.4232 20.4002 22.5395 20.747 22.6221C20.385 21.9623 20.0187 21.1764 19.8512 20.4373C19.6773 19.6742 19.4164 18.3459 19.923 17.6372C21.1084 15.9806 21.7441 13.9937 21.7405 11.9567C21.7405 9.36215 20.7098 6.87387 18.8751 5.03925C17.0403 3.20462 14.5519 2.17394 11.9573 2.17394Z" fill="#6E7B94"/>
</svg>
