<svg width="30" height="30" viewBox="0 0 30 30" fill="none" xmlns="http://www.w3.org/2000/svg">
<path d="M15.4688 4.21875C15.9858 4.21875 16.4062 4.63922 16.4062 5.15625H17.3438C17.3438 4.12219 16.5028 3.28125 15.4688 3.28125C14.4347 3.28125 13.5938 4.12219 13.5938 5.15625V6.09375C13.5938 7.12781 14.4347 7.96875 15.4688 7.96875C16.5028 7.96875 17.3438 7.12781 17.3438 6.09375H16.4062C16.4062 6.61078 15.9858 7.03125 15.4688 7.03125C14.9517 7.03125 14.5312 6.61078 14.5312 6.09375V5.15625C14.5312 4.63922 14.9517 4.21875 15.4688 4.21875Z" fill="#6E7B94" fill-opacity="0.4"/>
<path d="M20.625 3.28125H18.2812V7.96875H19.2188V6.09375H20.625C20.8833 6.09375 21.0938 6.30422 21.0938 6.5625V7.96875H22.0312V6.5625C22.0312 6.20109 21.8902 5.87438 21.6656 5.625C21.8906 5.37562 22.0312 5.04891 22.0312 4.6875C22.0312 3.91219 21.4003 3.28125 20.625 3.28125ZM19.2188 5.15625V4.21875H20.625C20.8833 4.21875 21.0938 4.42922 21.0938 4.6875C21.0938 4.94578 20.8833 5.15625 20.625 5.15625H19.2188Z" fill="#6E7B94" fill-opacity="0.4"/>
<path d="M25.4433 6.09375H25.1817L24.2442 3.28125H22.9688V7.96875H23.9062V5.23219L24.5058 7.03125H26.1192L26.7188 5.23219V7.96875H27.6562V3.28125H26.3808L25.4433 6.09375Z" fill="#6E7B94" fill-opacity="0.4"/>
<path d="M2.34375 9.84375H3.28125V10.7812H2.34375V9.84375Z" fill="#6E7B94"/>
<path d="M4.21875 9.84375H5.15625V10.7812H4.21875V9.84375Z" fill="#6E7B94"/>
<path d="M6.09375 9.84375H7.03125V10.7812H6.09375V9.84375Z" fill="#6E7B94"/>
<path d="M24.375 14.5312H16.875C16.0997 14.5312 15.4688 15.1622 15.4688 15.9375V16.875C15.4688 17.6503 16.0997 18.2812 16.875 18.2812V19.2188C16.0997 19.2188 15.4688 19.8497 15.4688 20.625V21.5625C15.4688 22.3378 16.0997 22.9688 16.875 22.9688V23.9062C16.0997 23.9062 15.4688 24.5372 15.4688 25.3125V26.25C15.4688 27.0253 16.0997 27.6562 16.875 27.6562H24.375C25.1503 27.6562 25.7812 27.0253 25.7812 26.25V25.3125C25.7812 24.5372 25.1503 23.9062 24.375 23.9062V22.9688C25.1503 22.9688 25.7812 22.3378 25.7812 21.5625V20.625C25.7812 19.8497 25.1503 19.2188 24.375 19.2188V18.2812C25.1503 18.2812 25.7812 17.6503 25.7812 16.875V15.9375C25.7812 15.1622 25.1503 14.5312 24.375 14.5312ZM24.8438 25.3125V26.25C24.8438 26.5087 24.6333 26.7188 24.375 26.7188H16.875C16.6167 26.7188 16.4062 26.5087 16.4062 26.25V25.3125C16.4062 25.0538 16.6167 24.8438 16.875 24.8438H24.375C24.6333 24.8438 24.8438 25.0538 24.8438 25.3125ZM23.4375 23.9062H17.8125V22.9688H23.4375V23.9062ZM24.8438 20.625V21.5625C24.8438 21.8212 24.6333 22.0312 24.375 22.0312H16.875C16.6167 22.0312 16.4062 21.8212 16.4062 21.5625V20.625C16.4062 20.3663 16.6167 20.1562 16.875 20.1562H24.375C24.6333 20.1562 24.8438 20.3663 24.8438 20.625ZM23.4375 19.2188H17.8125V18.2812H23.4375V19.2188ZM24.8438 16.875C24.8438 17.1337 24.6333 17.3438 24.375 17.3438H16.875C16.6167 17.3438 16.4062 17.1337 16.4062 16.875V15.9375C16.4062 15.6788 16.6167 15.4688 16.875 15.4688H24.375C24.6333 15.4688 24.8438 15.6788 24.8438 15.9375V16.875Z" fill="#6E7B94"/>
<path d="M27.1875 0.46875H14.0625C12.7702 0.46875 11.7188 1.52016 11.7188 2.8125V7.96875H1.875C1.09969 7.96875 0.46875 8.59969 0.46875 9.375V28.125C0.46875 28.9003 1.09969 29.5312 1.875 29.5312H26.25C27.0253 29.5312 27.6562 28.9003 27.6562 28.125V10.7339C28.7245 10.5159 29.5312 9.56953 29.5312 8.4375V2.8125C29.5312 1.52016 28.4798 0.46875 27.1875 0.46875ZM1.875 8.90625H11.7661C11.9841 9.97453 12.9305 10.7812 14.0625 10.7812H15.7181L16.4995 11.7188H1.40625V9.375C1.40625 9.11672 1.61672 8.90625 1.875 8.90625ZM26.25 28.5938H1.875C1.61672 28.5938 1.40625 28.3838 1.40625 28.125V12.6562H17.2805L17.6339 13.0805C17.9058 13.4067 18.3052 13.5938 18.7298 13.5938C19.3439 13.5938 19.8638 13.2014 20.0644 12.6562H26.7188V28.125C26.7188 28.3838 26.5083 28.5938 26.25 28.5938ZM20.1562 11.7188V10.7812H26.7188V11.7188H20.1562ZM28.5938 8.4375C28.5938 9.21281 27.9628 9.84375 27.1875 9.84375H19.2188V12.1673C19.2188 12.4369 18.9994 12.6562 18.7298 12.6562C18.5841 12.6562 18.4472 12.592 18.3539 12.4805L16.1569 9.84375H14.0625C13.2872 9.84375 12.6562 9.21281 12.6562 8.4375V2.8125C12.6562 2.03719 13.2872 1.40625 14.0625 1.40625H27.1875C27.9628 1.40625 28.5938 2.03719 28.5938 2.8125V8.4375Z" fill="#6E7B94"/>
<path d="M8.4375 23.9062C11.2805 23.9062 13.5938 21.593 13.5938 18.75C13.5938 15.907 11.2805 13.5938 8.4375 13.5938C5.59453 13.5938 3.28125 15.907 3.28125 18.75C3.28125 21.593 5.59453 23.9062 8.4375 23.9062ZM8.4375 22.9688C7.44281 22.9688 6.52922 22.6209 5.80734 22.043L8.63156 19.2188H12.6286C12.3947 21.3248 10.605 22.9688 8.4375 22.9688ZM11.7305 16.1198C12.2161 16.7269 12.5381 17.4689 12.6286 18.2812H9.56906L11.7305 16.1198ZM11.0677 15.457L8.4375 18.0872L5.80734 15.457C6.52922 14.8791 7.44281 14.5312 8.4375 14.5312C9.43219 14.5312 10.3458 14.8791 11.0677 15.457ZM5.14453 16.1198L7.77469 18.75L5.14453 21.3802C4.56656 20.6583 4.21875 19.7447 4.21875 18.75C4.21875 17.7553 4.56656 16.8417 5.14453 16.1198Z" fill="#6E7B94" fill-opacity="0.4"/>
<path d="M2.34375 24.8438H3.28125V25.7812H2.34375V24.8438Z" fill="#6E7B94"/>
<path d="M4.21875 24.8438H14.5312V25.7812H4.21875V24.8438Z" fill="#6E7B94"/>
<path d="M2.34375 26.7188H5.15625V27.6562H2.34375V26.7188Z" fill="#6E7B94"/>
<path d="M6.09375 26.7188H14.5312V27.6562H6.09375V26.7188Z" fill="#6E7B94"/>
</svg>
