<svg width="190" height="153" viewBox="0 0 190 153" fill="none" xmlns="http://www.w3.org/2000/svg">
<path d="M189.814 78.8588C189.807 92.3061 186.128 105.492 179.18 116.971C172.232 128.451 162.284 137.78 150.426 143.938C149.732 144.305 149.026 144.655 148.315 144.994C147.996 145.152 147.683 145.298 147.358 145.445C145.332 146.382 143.253 147.223 141.122 147.968C139.442 148.56 137.718 149.096 135.977 149.559C119.533 153.974 102.075 152.442 86.6354 145.231C86.0028 144.932 85.3702 144.627 84.7488 144.311C73.1888 138.482 63.3824 129.646 56.3429 118.718C49.3033 107.79 45.286 95.1652 44.706 82.1482C44.1259 69.1311 47.0041 56.194 53.0433 44.6736C59.0825 33.1531 68.0635 23.4671 79.0585 16.6164C90.0535 9.76575 102.664 5.99884 115.586 5.7049C128.508 5.41097 141.274 8.60067 152.564 14.9444C163.855 21.2882 173.26 30.556 179.808 41.7901C186.357 53.0243 189.811 65.8173 189.814 78.8475V78.8588Z" fill="url(#paint0_linear)"/>
<g clip-path="url(#clip0)">
<path d="M5.46816 110.059L5.53289 110.126C5.28879 112.153 5.26712 114.177 5.45418 116.165L0 121.769L3.48318 130.233L10.893 130.317C12.2381 132.11 13.809 133.743 15.5864 135.168L15.6642 142.489L24.0794 145.996L29.2861 140.878C31.5448 141.135 33.8044 141.099 36.0164 140.788L41.3126 146L49.7301 142.496L49.8191 134.656C51.3501 133.384 52.759 131.938 54.0134 130.332L61.92 130.246L65.4091 121.783L59.8822 116.098C60.1263 114.071 60.148 112.046 59.9609 110.059H47.1477L33.0488 118.871L18.2694 110.059H5.46816Z" fill="#D9DDFF"/>
<path d="M47.1474 110.059C47.7414 112.888 47.5227 115.92 46.3382 118.793C43.2169 126.364 34.584 129.957 27.0559 126.819C20.3878 124.04 16.8276 116.912 18.2694 110.059H47.1474V110.059Z" fill="white"/>
<path d="M118.522 99.8725C115.756 99.8728 113.31 98.0791 112.429 95.4006C112.407 95.3351 112.387 95.2692 112.368 95.203L105.882 72.7704L101.962 94.9361C101.484 97.6428 99.1725 99.5414 96.5696 99.5414C96.2459 99.5414 95.9186 99.5123 95.5886 99.4516C92.6071 98.9024 90.6261 95.9903 91.1639 92.9474L98.4918 51.514C98.4958 51.4923 98.4998 51.4706 98.5041 51.4489C99.0561 48.5247 101.475 46.3435 104.387 46.1448C104.531 46.1348 104.675 46.1302 104.818 46.1302C107.56 46.1302 110.027 47.9187 110.91 50.602C110.931 50.6676 110.951 50.7335 110.971 50.7999L118.448 76.6627L125.656 50.8561C125.674 50.7911 125.694 50.7261 125.714 50.6619C126.577 47.9492 129.059 46.1279 131.827 46.1279C131.948 46.1279 132.069 46.1313 132.191 46.1385C135.104 46.3064 137.544 48.4614 138.127 51.3782C138.131 51.4005 138.135 51.4227 138.14 51.445L145.901 92.891C146.47 95.9282 144.519 98.8607 141.542 99.4413C141.195 99.5092 140.848 99.542 140.507 99.542C137.926 99.542 135.626 97.6751 135.124 94.9932L130.955 72.7319L124.695 95.1449C124.676 95.2099 124.657 95.2746 124.636 95.3391C123.778 98.0366 121.334 99.8588 118.554 99.8728C118.544 99.8725 118.533 99.8725 118.522 99.8725Z" fill="#7776D0"/>
<path d="M145.902 92.8905L138.14 51.4445L138.127 51.3777C137.544 48.4609 135.104 46.3059 132.191 46.138C132.069 46.1309 131.948 46.1274 131.827 46.1274C129.281 46.1274 126.978 47.6679 125.953 50.0258C126.139 50.453 126.282 50.9055 126.376 51.3777L126.389 51.4445L130.608 73.9732L130.955 72.7314L135.124 94.9927C135.626 97.6746 137.926 99.5415 140.507 99.5415C140.848 99.5415 141.195 99.5087 141.542 99.4408C144.519 98.8602 146.47 95.9277 145.902 92.8905Z" fill="#6967BF"/>
<path d="M26.3328 99.8725C11.8126 99.8725 0 87.8176 0 73C0 58.1824 11.8126 46.1274 26.3328 46.1274C31.609 46.1274 36.7013 47.7155 41.0594 50.7202C46.8167 54.6893 40.8746 64.1063 34.9171 59.9986C32.3801 58.2494 29.4116 57.325 26.333 57.325C17.8633 57.325 10.9728 64.3566 10.9728 73C10.9728 81.6434 17.8633 88.675 26.333 88.675C29.7715 88.675 33.051 87.3607 35.2627 84.6703C39.8061 79.1414 48.1831 86.3744 43.6697 91.8659C39.4009 97.0592 33.0217 99.8725 26.3328 99.8725Z" fill="#7776D0"/>
<path d="M29.3086 50.7202C32.0373 52.6011 32.138 55.7056 30.8547 58.0145C32.2891 58.4642 33.6561 59.1294 34.9168 59.9986C40.8743 64.1063 46.8167 54.6893 41.0591 50.7202C36.701 47.7158 31.6087 46.1274 26.3325 46.1274C24.3155 46.1274 22.3508 46.3601 20.4625 46.8004C23.6069 47.5324 26.5999 48.8524 29.3086 50.7202Z" fill="#6967BF"/>
<path d="M35.2621 84.6703C34.5775 85.5032 33.7904 86.2038 32.9281 86.7747C33.4719 88.3602 33.2926 90.1937 31.9184 91.8659C28.8957 95.5435 24.8146 98.0275 20.3142 99.1644C22.2479 99.6275 24.2625 99.8725 26.3325 99.8725C33.0214 99.8725 39.4009 97.0591 43.6688 91.8659C48.1826 86.3743 39.8055 79.1416 35.2621 84.6703Z" fill="#6967BF"/>
<path d="M73.089 78.6159C79.8626 76.4361 84.7707 70.165 84.7707 62.7837C84.7707 53.5994 77.1738 46.1274 67.8358 46.1274H56.7566C56.7544 46.1274 56.7521 46.1277 56.7498 46.1277C56.7475 46.1277 56.7452 46.1274 56.743 46.1274C53.7132 46.1274 51.2568 48.634 51.2568 51.7262V94.2738C51.2568 97.3657 53.7132 99.8725 56.743 99.8725C59.773 99.8725 62.2291 97.366 62.2291 94.2738V82.9725L75.166 97.9728C76.2505 99.2304 77.7644 99.8725 79.2866 99.8725C80.5737 99.8725 81.8669 99.4126 82.9089 98.4767C85.1833 96.4336 85.4046 92.8959 83.4025 90.575L73.089 78.6159ZM67.8361 57.325C71.0681 57.325 73.7984 59.8249 73.7984 62.784C73.7984 65.7431 71.0681 68.243 67.8361 68.243C66.5375 68.243 64.3649 68.2519 62.2895 68.2618C62.2793 66.1982 62.2707 64.0552 62.2707 62.7843C62.2707 61.693 62.2656 59.4847 62.2596 57.3252H67.8361V57.325Z" fill="#7776D0"/>
<path d="M83.4028 90.575L73.089 78.6159C79.8626 76.4361 84.7707 70.165 84.7707 62.7837C84.7707 53.5994 77.1738 46.1274 67.8358 46.1274H56.7566C56.7544 46.1274 56.7521 46.1277 56.7498 46.1277C56.7475 46.1277 56.7452 46.1274 56.743 46.1274C56.3229 46.1274 55.914 46.1756 55.5211 46.2669C62.0201 47.0981 67.3739 51.5674 69.3948 57.5226C71.8996 58.1682 73.7982 60.3162 73.7982 62.7837C73.7982 65.2514 71.8993 67.3995 69.3942 68.0451C68.2447 71.4305 66.0174 74.3351 63.1148 76.364C60.9439 77.8816 60.612 80.9735 62.3417 82.9793L68.8923 90.5747C69.1036 90.8197 69.2898 91.078 69.4518 91.3469L75.1661 97.9725C76.2505 99.2301 77.7644 99.8723 79.2866 99.8723C80.5738 99.8723 81.8666 99.4126 82.9089 98.4764C85.1836 96.4336 85.4049 92.8959 83.4028 90.575Z" fill="#6967BF"/>
<path d="M46.3547 5.54657V16.7603C46.3547 19.8238 43.8713 22.3069 40.8081 22.3069H21.2165L12.1194 29.0785V22.3072H5.54658C2.48343 22.3072 0 19.8238 0 16.7606V5.54686C0 2.48343 2.48343 0 5.54658 0H40.8079C43.8713 0 46.3547 2.48343 46.3547 5.54657Z" fill="#FFD54D"/>
<path d="M40.8081 0H29.0574C32.1209 0 34.604 2.48343 34.604 5.54657V16.7603C34.604 19.8235 32.1206 22.3069 29.0574 22.3069H40.8079C43.8713 22.3069 46.3544 19.8235 46.3544 16.7603V5.54657C46.3547 2.48343 43.8713 0 40.8081 0Z" fill="#FFC919"/>
<path d="M131.125 140.453V129.24C131.125 126.176 128.642 123.693 125.579 123.693H105.987L96.8901 116.921V123.693H90.3173C87.2538 123.693 84.7707 126.176 84.7707 129.24V140.453C84.7707 143.517 87.2541 146 90.3173 146H125.579C128.642 146 131.125 143.516 131.125 140.453Z" fill="#FFD54D"/>
<path d="M125.579 123.693H113.828C116.892 123.693 119.375 126.176 119.375 129.239V140.453C119.375 143.517 116.892 146 113.828 146H125.579C128.642 146 131.125 143.517 131.125 140.453V129.239C131.125 126.176 128.642 123.693 125.579 123.693Z" fill="#FFC919"/>
<path d="M145.993 116.059C145.993 111.515 142.305 107.832 137.757 107.832C134.661 107.832 131.965 109.539 130.559 112.061C129.152 109.539 126.456 107.832 123.36 107.832C118.812 107.832 115.124 111.515 115.124 116.059C115.124 116.059 114.287 125.629 130.559 132.985C146.831 125.629 145.993 116.059 145.993 116.059Z" fill="#FF8CCC"/>
<path d="M145.993 116.059C145.993 111.515 142.305 107.832 137.757 107.832C135.456 107.832 133.376 108.775 131.882 110.294C133.342 111.779 134.242 113.814 134.242 116.059C134.242 116.059 134.862 123.138 124.684 129.799C126.34 130.883 128.282 131.956 130.559 132.985C146.831 125.629 145.993 116.059 145.993 116.059Z" fill="#FF78C2"/>
<path d="M76.6811 36.2589V15.2261H93.7423V36.2589" fill="#FFD54D"/>
<path d="M128.849 36.2591V26.7905H145.91V36.2591" fill="#D9DDFF"/>
<path d="M102.765 36.259V0H119.826V36.259" fill="#FF8CCC"/>
<path d="M137.38 0L140.044 5.39744L146 6.26289L141.69 10.4644L142.707 16.3968L137.38 13.5957L132.052 16.3968L133.07 10.4644L128.759 6.26289L134.716 5.39744L137.38 0Z" fill="#FFD54D"/>
<path d="M49.8333 36.259C57.9438 36.259 64.5186 29.6841 64.5186 21.5737C64.5186 13.4632 57.9438 6.88843 49.8333 6.88843C41.7229 6.88843 35.1481 13.4632 35.1481 21.5737C35.1481 29.6841 41.7229 36.259 49.8333 36.259Z" fill="#A6F5CF"/>
<path d="M49.8333 6.88843C47.7443 6.88843 45.7573 7.32472 43.958 8.11089C49.1438 10.3773 52.7679 15.5523 52.7679 21.5737C52.7679 27.595 49.1438 32.7701 43.958 35.0365C45.757 35.8227 47.7443 36.259 49.8333 36.259C57.9437 36.259 64.5186 29.6841 64.5186 21.5737C64.5186 13.4633 57.9437 6.88843 49.8333 6.88843Z" fill="#8AEDBD"/>
<path d="M54.5361 27.7431C54.0345 27.7434 53.5304 27.5729 53.1172 27.2244L48.4133 23.2582C47.9168 22.8396 47.6302 22.2233 47.6302 21.5737V13.7148C47.6302 12.4981 48.6166 11.5117 49.8333 11.5117C51.0501 11.5117 52.0365 12.4981 52.0365 13.7148V20.5495L55.9574 23.8556C57.4405 25.106 56.6551 27.7431 54.5361 27.7431Z" fill="white"/>
</g>
<defs>
<linearGradient id="paint0_linear" x1="117.521" y1="13.6329" x2="114.998" y2="157.866" gradientUnits="userSpaceOnUse">
<stop stop-color="white" stop-opacity="0"/>
<stop offset="1" stop-color="#64B5F6" stop-opacity="0.6"/>
</linearGradient>
<clipPath id="clip0">
<rect width="146" height="146" fill="white"/>
</clipPath>
</defs>
</svg>
