<svg width="17" height="17" viewBox="0 0 17 17" fill="none" xmlns="http://www.w3.org/2000/svg">
<path opacity="0.4" d="M7.9489 1.03027H4.97682C2.53254 1.03027 1 2.76074 1 5.21058V11.8193C1 14.2691 2.52539 15.9996 4.97682 15.9996H11.9909C14.4431 15.9996 15.9685 14.2691 15.9685 11.8193V8.61746" stroke="#6E7B94" stroke-linecap="round" stroke-linejoin="round"/>
<path fill-rule="evenodd" clip-rule="evenodd" d="M5.83143 7.49462L11.7716 1.55443C12.5117 0.815189 13.7111 0.815189 14.4512 1.55443L15.4186 2.52181C16.1586 3.26185 16.1586 4.46213 15.4186 5.20137L9.44975 11.1702C9.12623 11.4937 8.68745 11.6757 8.2296 11.6757H5.25195L5.32667 8.67105C5.3378 8.2291 5.51824 7.80781 5.83143 7.49462Z" stroke="#6E7B94" stroke-linecap="round" stroke-linejoin="round"/>
<path d="M10.8687 2.47266L14.4981 6.10211" stroke="#6E7B94" stroke-linecap="round" stroke-linejoin="round"/>
</svg>
