<svg width="31" height="27" viewBox="0 0 31 27" fill="none" xmlns="http://www.w3.org/2000/svg">
<path d="M14.2578 23.7342C14.629 23.6785 14.966 23.4851 15.2023 23.1921L20.5994 16.1956C20.9306 15.5878 20.7717 14.8284 20.225 14.406C19.6783 13.9836 18.9067 14.0241 18.4068 14.5015L13.853 20.346L8.67505 16.2633C8.37777 16.0314 8.00084 15.9279 7.62745 15.9756C7.25407 16.0233 6.91491 16.2182 6.68484 16.5174L1.1696 23.7342C0.70022 24.3532 0.812918 25.2362 1.42259 25.7163C1.72133 25.9436 2.09835 26.0411 2.46926 25.987C2.84016 25.9329 3.17396 25.7316 3.39593 25.4283L8.051 19.3465L13.2289 23.4293C13.5188 23.6624 13.8883 23.7719 14.2578 23.7342Z" fill="#022F96"/>
<path fill-rule="evenodd" clip-rule="evenodd" d="M30.3432 6.88278C29.5767 8.74598 27.7676 9.9613 25.7604 9.96132C23.0284 9.96133 20.8111 7.74175 20.8018 4.99767C20.795 2.98168 21.9988 1.16039 23.8511 0.384148C25.7035 -0.392092 27.8391 0.0298337 29.2607 1.45293C30.6824 2.87602 31.1097 5.01959 30.3432 6.88278ZM27.9024 4.99766C27.9024 3.80943 26.9434 2.84618 25.7604 2.84618C24.5774 2.84618 23.6184 3.80943 23.6184 4.99766C23.6184 6.18589 24.5774 7.14913 25.7604 7.14913C26.9434 7.14913 27.9024 6.18589 27.9024 4.99766Z" fill="#00DFFF"/>
</svg>
