<svg width="24" height="22" viewBox="0 0 24 22" fill="none" xmlns="http://www.w3.org/2000/svg">
<path fill-rule="evenodd" clip-rule="evenodd" d="M18.8783 21C21.1282 21 22.9498 19.1772 22.9498 16.9285V13.6885C21.4618 13.6885 20.2619 12.4886 20.2619 11.0018C20.2619 9.51383 21.4618 8.31505 22.9498 8.31505L22.9474 5.07152C22.9474 2.82276 21.1258 1 18.8771 1H4.82296C2.57421 1 0.751444 2.82276 0.751444 5.07152L0.750244 8.41945C2.23701 8.41945 3.43699 9.51383 3.43699 11.0018C3.43699 12.4886 2.23701 13.6885 0.750244 13.6885V16.9285C0.750244 19.1772 2.57181 21 4.82056 21H18.8783Z" stroke="#6E7B94" stroke-width="1.5" stroke-linecap="round" stroke-linejoin="round"/>
<path opacity="0.4" fill-rule="evenodd" clip-rule="evenodd" d="M11.8496 13.1255L13.9375 14.2235C14.1331 14.3255 14.3623 14.1599 14.3251 13.9427L13.9255 11.6159L15.6163 9.97077C15.7747 9.81597 15.6871 9.54838 15.4687 9.51598L13.1335 9.17639L12.0883 7.05963C11.9911 6.86163 11.7092 6.86163 11.6108 7.05963L10.5656 9.17639L8.23162 9.51598C8.01323 9.54838 7.92563 9.81597 8.08403 9.97077L9.77359 11.6159L9.374 13.9427C9.3368 14.1599 9.566 14.3255 9.76159 14.2235L11.8496 13.1255Z" stroke="#6E7B94" stroke-width="1.5" stroke-linecap="round" stroke-linejoin="round"/>
</svg>
