<svg width="21" height="21" viewBox="0 0 21 21" fill="none" xmlns="http://www.w3.org/2000/svg">
<path d="M20.9443 10.1111C20.9443 4.58767 16.4678 0.111084 10.9443 0.111084C5.42092 0.111084 0.944336 4.58767 0.944336 10.1111C0.944336 15.1033 4.60059 19.24 9.38184 19.99V13.0017H6.84275V10.1111H9.38184V7.90796C9.38184 5.40208 10.874 4.01733 13.1592 4.01733C14.2529 4.01733 15.3975 4.21265 15.3975 4.21265V6.67358H14.1358C12.8935 6.67358 12.5068 7.44508 12.5068 8.23608V10.1111H15.2803L14.8369 13.0017H12.5068V19.99C17.2881 19.24 20.9443 15.1033 20.9443 10.1111Z" fill="white"/>
<path d="M14.8369 13.0017L15.2803 10.1111H12.5069V8.23608C12.5069 7.44508 12.8936 6.67358 14.1358 6.67358H15.3975V4.21265C15.3975 4.21265 14.2529 4.01733 13.1592 4.01733C10.8741 4.01733 9.38186 5.40208 9.38186 7.90796V10.1111H6.84277V13.0017H9.38186V19.99C9.89161 20.0701 10.4131 20.1111 10.9444 20.1111C11.4756 20.1111 11.9971 20.0701 12.5069 19.99V13.0017H14.8369Z" fill="#1877F2"/>
</svg>
