<svg width="21" height="25" viewBox="0 0 21 25" fill="none" xmlns="http://www.w3.org/2000/svg">
<path fill-rule="evenodd" clip-rule="evenodd" d="M13.937 1.10754H5.73015C3.18988 1.10754 1 3.16665 1 5.70815V18.9548C1 21.6394 3.04554 23.7503 5.73015 23.7503H15.5852C18.1267 23.7503 20.1871 21.4963 20.1871 18.9548V7.61674L13.937 1.10754Z" stroke="#6E7B94" stroke-width="1.5" stroke-linecap="round" stroke-linejoin="round"/>
<path d="M13.6128 1.09302V4.68196C13.6128 6.43387 15.0304 7.85513 16.7823 7.85883C18.4059 7.86254 20.0677 7.86377 20.18 7.85637" stroke="#6E7B94" stroke-width="1.5" stroke-linecap="round" stroke-linejoin="round"/>
<path opacity="0.4" fill-rule="evenodd" clip-rule="evenodd" d="M10.6485 8.81747C10.5078 8.67612 10.3165 8.59666 10.117 8.59668C9.91752 8.5967 9.72626 8.67618 9.58553 8.81756L6.08418 12.3349C5.79196 12.6285 5.79304 13.1034 6.08661 13.3956C6.38017 13.6878 6.85504 13.6867 7.14726 13.3932L9.36757 11.1627V17.4566C9.36757 17.8708 9.70336 18.2066 10.1176 18.2066C10.5318 18.2066 10.8676 17.8708 10.8676 17.4566V11.1633L13.0882 13.3933C13.3805 13.6868 13.8554 13.6878 14.1489 13.3955C14.4424 13.1032 14.4434 12.6284 14.1511 12.3349L10.6485 8.81747Z" fill="#6E7B94"/>
</svg>
