<svg width="15" height="16" viewBox="0 0 15 16" fill="none" xmlns="http://www.w3.org/2000/svg">
<path opacity="0.4" d="M11.8587 9.62094L11.8587 14.9996" stroke="white" stroke-width="1.5" stroke-linecap="round" stroke-linejoin="round"/>
<path fill-rule="evenodd" clip-rule="evenodd" d="M11.8587 1.44171C13.0413 1.44171 14 2.40041 14 3.58304C14 4.76567 13.0413 5.72437 11.8587 5.72437C10.6752 5.72437 9.71733 4.76567 9.71733 3.58304C9.71733 2.40041 10.6752 1.44171 11.8587 1.44171Z" stroke="white" stroke-width="1.5" stroke-linecap="round" stroke-linejoin="round"/>
<path opacity="0.4" d="M3.14133 6.82129L3.14133 1.44173" stroke="white" stroke-width="1.5" stroke-linecap="round" stroke-linejoin="round"/>
<path fill-rule="evenodd" clip-rule="evenodd" d="M3.14131 15C4.32482 15 5.28264 14.0413 5.28264 12.8587C5.28264 11.676 4.32482 10.7173 3.14131 10.7173C1.95868 10.7173 0.999985 11.676 0.999985 12.8587C0.999985 14.0413 1.95868 15 3.14131 15Z" stroke="white" stroke-width="1.5" stroke-linecap="round" stroke-linejoin="round"/>
</svg>
