<svg width="12" height="17" viewBox="0 0 12 17" fill="none" xmlns="http://www.w3.org/2000/svg">
<path fill-rule="evenodd" clip-rule="evenodd" d="M1.45716 1.58354V16.2713C1.45716 16.6736 1.13096 16.9998 0.728578 16.9998C0.326195 16.9998 0 16.6736 0 16.2713V0.788778C0 0.478355 0.194215 0.213284 0.467788 0.108401C0.616564 0.0166798 0.798623 -0.0221181 0.983953 0.0125589L7.4212 1.21703C7.46259 1.22177 7.50415 1.23014 7.54548 1.24234C7.93139 1.35628 8.15186 1.7615 8.03792 2.14741L6.45047 7.52391C6.39661 7.70635 6.27765 7.85181 6.12641 7.94245C6.01879 8.02541 5.88392 8.07476 5.73752 8.07476H3.1875C2.83542 8.07476 2.55 7.78934 2.55 7.43726C2.55 7.08517 2.83542 6.79975 3.1875 6.79975H5.14494L6.41137 2.51052L1.45716 1.58354Z" fill="#4E596F"/>
<path fill-rule="evenodd" clip-rule="evenodd" d="M8.41512 4.01411C8.46878 3.67482 8.78417 3.45995 9.11956 3.5342L11.213 3.99764C11.5484 4.07188 11.7768 4.40712 11.7231 4.74642C11.7066 4.85101 11.6652 4.94377 11.606 5.01989C11.5975 5.06745 11.5841 5.11487 11.5656 5.16151L9.81965 9.56366C9.77765 9.66956 9.7136 9.76014 9.63486 9.83222C9.54462 9.96668 9.39119 10.0552 9.21709 10.0552H3.18414C2.90648 10.0552 2.6814 9.8301 2.6814 9.55244C2.6814 9.27478 2.90648 9.04969 3.18414 9.04969H8.45637C8.45915 9.04192 8.46208 9.03417 8.46515 9.02643L10.0568 5.01339L8.92525 4.76289C8.58985 4.68865 8.36146 4.35341 8.41512 4.01411Z" fill="#4E596F"/>
</svg>
