<svg width="30" height="30" viewBox="0 0 30 30" fill="none" xmlns="http://www.w3.org/2000/svg">
<path d="M16.4796 2.73098C17.0063 2.81021 17.4598 3.24721 17.5587 3.77041C17.9529 3.78308 18.2758 4.06924 18.5844 4.31483C18.8931 4.56043 19.2854 4.79081 19.6616 4.67166L19.5183 3.59072C19.4863 3.34893 19.4518 3.09985 19.3285 2.88943C19.1523 2.58933 18.8259 2.41631 18.516 2.25817C18.1478 2.07057 17.7729 1.88043 17.3663 1.80628C16.9597 1.73212 16.5094 1.78917 16.1912 2.05282C16.0401 2.17832 15.9222 2.40363 16.0344 2.56493C16.1275 2.69993 16.318 2.70658 16.4796 2.73098Z" fill="#6E7B94"/>
<path d="M20.3863 3.06055C20.7117 3.09002 21.0074 3.33244 21.1002 3.64554C21.1135 3.69054 21.1224 3.74188 21.0986 3.78276C21.067 3.83726 20.9934 3.8474 20.9307 3.84518C20.8288 3.84348 20.7285 3.81981 20.6366 3.77578C20.5153 3.71418 20.42 3.61122 20.3679 3.48551C20.3169 3.3593 20.3127 3.21902 20.3562 3.09002" fill="#6E7B94"/>
<path d="M22.9884 15.563C22.6322 15.4866 22.2472 15.1434 22.0456 14.8547C21.9129 14.6642 21.821 14.4456 21.6717 14.2675C21.5066 14.0707 21.281 13.9347 21.0534 13.8156C20.059 13.2972 18.9554 13.0233 17.8341 13.0164C17.0992 13.0119 15.9916 12.9124 15.5689 12.1481C15.4989 12.0216 15.5616 11.8673 15.5904 11.7253C15.6193 11.5834 15.5698 11.3894 15.4253 11.3821C15.1496 11.3682 15.0856 11.6971 14.7383 11.6569C14.4873 11.6277 14.1479 11.4414 14.063 11.193C13.9857 10.9667 14.0646 10.4609 14.0814 10.2204C14.1124 9.77548 15.8383 9.80336 16.1504 9.82935C16.0918 10.1691 16.435 10.6999 16.8149 10.3909C17.1442 10.1234 16.7363 9.38442 17.0231 9.01492C17.3974 8.53197 17.8778 8.04997 18.2999 7.59681C18.4187 7.4691 18.5382 7.34107 18.6745 7.23238C18.9721 6.99566 19.3365 6.86193 19.6651 6.67052C19.0231 5.67736 17.8591 5.04357 16.6768 5.04325C16.5855 5.04325 16.4857 5.04991 16.4185 5.1117C16.3301 5.19283 16.3351 5.33131 16.3478 5.45047C16.3824 5.77877 16.4229 6.10676 16.4695 6.43348L15.4586 6.03197C15.2086 5.93278 14.9462 5.82409 14.7833 5.60987C14.6207 5.39564 14.6103 5.04167 14.8334 4.89178C15.1477 4.68041 15.625 5.0122 15.9355 4.79576C16.1225 4.6652 16.171 4.37714 16.3817 4.28999C16.5703 4.21235 16.7744 4.33911 16.9737 4.38347C17.1727 4.42784 17.4544 4.26717 17.3581 4.08718C16.8118 3.72306 16.1881 3.34215 15.5439 3.46954C15.2197 3.53356 14.9338 3.72211 14.6179 3.81876C13.8557 4.05232 13.0458 3.7313 12.3137 3.41567C12.2022 3.3675 12.0868 3.31712 12.0048 3.22743C11.9116 3.12571 11.8723 2.98564 11.7928 2.87283C11.5405 2.51568 10.6019 2.51663 10.6633 2.49921C10.5844 2.49255 10.4317 2.67065 10.3528 2.66367C10.2837 2.65765 9.58176 3.37574 9.45342 3.46194C9.02339 3.75158 8.53917 3.87042 8.01534 4.02506C7.50038 4.17717 6.91507 4.76438 7.7165 4.804C8.37312 4.83632 9.32856 4.6015 9.96774 4.45446C10.0856 4.42752 10.2143 4.39837 10.323 4.45129C10.4295 4.50294 10.4868 4.61861 10.5321 4.72794C10.9316 5.70057 10.9816 6.78157 10.6738 7.78695C10.5686 8.12666 10.4215 8.48539 10.5252 8.82574C10.6747 9.31629 11.2921 9.57234 11.3843 10.0768C11.4239 10.2939 11.3573 10.5303 11.4473 10.7316C11.6587 11.2034 12.3036 10.9924 12.6677 10.9081C12.6658 10.9087 12.7216 11.6426 12.7716 11.7231C12.9485 12.0067 13.4111 12.079 13.7027 12.1604C14.7779 12.4612 15.7239 12.9185 16.6929 13.4711C16.9274 13.6049 17.1727 13.7487 17.3093 13.982C17.6753 14.6063 17.0691 15.3453 16.9908 16.0646C16.9699 16.2692 16.9928 16.4759 17.0581 16.6709C17.1233 16.8659 17.2294 17.0448 17.3692 17.1956C17.5286 17.3655 17.7279 17.4945 17.8864 17.6659C18.2555 18.0652 18.3589 18.6521 18.3005 19.193C18.2426 19.734 18.0435 20.2477 17.8769 20.7655C17.5651 21.735 17.3631 22.7364 17.2748 23.7509C17.2484 24.0529 17.4107 24.1315 17.6813 24.0485C18.067 23.9306 17.9976 23.5665 18.0952 23.2794C18.3756 22.4523 19.268 21.7155 20.0289 21.3552C20.367 21.1952 20.7381 21.0738 21.0005 20.8073C21.3706 20.4315 21.4518 19.8395 21.8232 19.4646C22.1394 19.1452 22.6195 19.032 22.9387 18.7151C23.2847 18.3713 23.4054 17.8674 23.6301 17.4485C23.7993 17.1332 24.1232 16.8756 24.2661 16.5583C24.6936 15.608 23.5385 15.6809 22.9884 15.563Z" fill="#6E7B94"/>
<path d="M15 0C6.71568 0 0 6.71568 0 15C0 23.2843 6.71568 30 15 30C23.2843 30 30 23.2843 30 15C30 6.71568 23.2843 0 15 0ZM20.0019 27.7852C19.6473 27.6448 19.2569 27.5954 18.882 27.6664C18.3309 27.7706 17.7526 28.0996 17.2481 27.854C16.7483 27.6109 16.6475 26.8868 16.9207 26.4026C17.1939 25.9184 17.7215 25.637 18.2441 25.4478C17.8888 25.1604 17.3447 25.2938 16.9765 25.5647C16.6083 25.8353 16.3335 26.2194 15.9583 26.4802C15.5831 26.741 15.0254 26.8447 14.6939 26.53C14.6828 26.7895 14.3795 26.9381 14.1197 26.9372C13.8598 26.9362 13.6022 26.8447 13.3448 26.8792C12.9972 26.9255 12.7139 27.1989 12.5599 27.5139C12.4154 27.8099 12.366 28.1414 12.3238 28.4688C6.02865 27.2199 1.26759 21.6564 1.26759 15C1.26759 7.42775 7.42806 1.26759 15 1.26759C17.7415 1.26759 20.2953 2.07821 22.4414 3.4678C22.3999 3.68456 22.3846 3.9029 22.4217 4.12093C22.5067 4.62289 22.9611 5.10109 23.4637 5.01838L23.5556 4.65363C24.19 4.78134 24.7306 5.29408 24.8916 5.9209C24.7964 5.98424 24.7214 6.07355 24.6754 6.17824C24.6294 6.28294 24.6143 6.39863 24.6321 6.5116C25.4034 6.65642 25.9003 7.44866 26.0309 8.22253C26.1614 8.99639 26.0236 9.788 26.0325 10.5729C26.0464 11.8073 26.5452 13.1639 27.6702 13.6719C27.983 13.8132 28.3563 13.8696 28.6738 13.7625C28.7105 14.1707 28.7324 14.583 28.7324 15.0003C28.7324 20.8075 25.1068 25.7808 20.0019 27.7852Z" fill="#6E7B94"/>
</svg>
