<svg width="174" height="61" viewBox="0 0 174 61" fill="none" xmlns="http://www.w3.org/2000/svg">
<path fill-rule="evenodd" clip-rule="evenodd" d="M13.8147 3.91699H160.526C163.787 3.91699 164.967 4.28221 166.159 4.96047C167.336 5.62776 168.298 6.65949 168.92 7.92132C169.553 9.19958 169.894 10.4648 169.894 13.9474V46.0603C169.894 49.5429 169.553 50.8081 168.92 52.0863C168.298 53.3482 167.336 54.3799 166.159 55.0472C164.967 55.7255 163.787 56.0907 160.539 56.0907H13.8025C10.5544 56.0907 9.37439 55.7255 8.18221 55.0472C7.00534 54.3799 6.04309 53.3482 5.42072 52.0863C4.78813 50.8081 4.44751 49.5429 4.44751 46.0603V13.9474C4.44751 10.4648 4.78813 9.19958 5.42072 7.92132C6.04309 6.65949 7.00534 5.62776 8.18221 4.96047C9.37439 4.28221 10.5544 3.91699 13.8025 3.91699H13.8147Z" fill="black"/>
<path d="M41.3687 30.0431C41.393 27.604 42.5852 25.3605 44.5194 24.0823C43.9134 23.1556 43.1139 22.3935 42.1846 21.8568C41.2553 21.3201 40.2219 21.0236 39.1668 20.991C36.9284 20.7301 34.7508 22.4257 33.6073 22.4257C32.4394 22.4257 30.6755 21.017 28.7777 21.0562C27.5499 21.0991 26.3534 21.482 25.3046 22.1677C24.2557 22.8534 23.3903 23.8186 22.7925 24.9692C20.2013 29.7822 22.1356 36.8387 24.6172 40.7257C25.8581 42.6169 27.2936 44.743 29.2035 44.6648C31.0526 44.5865 31.7582 43.3996 33.9844 43.3996C36.2106 43.3996 36.8554 44.6648 38.7896 44.6256C40.7847 44.5865 42.0377 42.7083 43.2421 40.7909C44.1301 39.4344 44.8236 37.9344 45.2737 36.3561C44.1166 35.8311 43.1293 34.9525 42.4349 33.8298C41.7405 32.7072 41.3696 31.3902 41.3687 30.0431ZM37.7069 18.4345C38.7947 17.0374 39.3315 15.2405 39.2033 13.4258C37.5366 13.6214 36.0038 14.4693 34.909 15.8127C34.37 16.4696 33.9573 17.2339 33.6942 18.0621C33.4312 18.8902 33.3231 19.7658 33.3762 20.6388C34.2067 20.6477 35.0282 20.4539 35.7786 20.0719C36.5289 19.69 37.1883 19.1301 37.7069 18.4345Z" fill="white"/>
<path d="M66.8549 38.6647H61.1007L59.7139 43.0473H57.2809L62.7309 26.8474H65.2734L70.7234 43.0473H68.2417L66.8549 38.6647ZM61.6968 36.643H66.2588L64.0082 29.5343H63.9474L61.6968 36.643ZM82.4992 37.1387C82.4992 40.8039 80.6745 43.1647 77.9008 43.1647C77.2008 43.2047 76.5043 43.0327 75.8912 42.6682C75.2781 42.3038 74.773 41.7616 74.4337 41.1039H74.3851V46.9473H72.1224V31.23H74.3121V33.1865H74.3486C74.7032 32.5297 75.2176 31.9885 75.8369 31.6209C76.4561 31.2533 77.1569 31.0731 77.8643 31.0996C80.6623 31.0996 82.4992 33.4735 82.4992 37.1387ZM80.1757 37.1387C80.1757 34.7517 79.02 33.1735 77.2561 33.1735C75.5408 33.1735 74.3729 34.7778 74.3729 37.1387C74.3729 39.5126 75.5408 41.1169 77.2682 41.1169C79.02 41.1169 80.1757 39.5517 80.1757 37.1387ZM94.6157 37.1387C94.6157 40.8039 92.791 43.1647 90.0295 43.1647C89.3294 43.2047 88.633 43.0327 88.0199 42.6682C87.4067 42.3038 86.9016 41.7616 86.5624 41.1039H86.5016V46.9473H84.251V31.23H86.4407V33.1865H86.4772C86.8308 32.5317 87.3433 31.9918 87.9603 31.6243C88.5772 31.2569 89.2754 31.0755 89.9808 31.0996C92.7788 31.0996 94.6157 33.4735 94.6157 37.1387ZM92.3043 37.1387C92.3043 34.7517 91.1487 33.1735 89.3847 33.1735C87.6573 33.1735 86.5016 34.7778 86.5016 37.1387C86.5016 39.5126 87.6573 41.1169 89.3847 41.1169C91.1487 41.1169 92.3043 39.5517 92.3043 37.1387ZM102.633 38.5343C102.803 40.1386 104.251 41.1952 106.246 41.1952C108.156 41.1952 109.53 40.1386 109.53 38.6908C109.53 37.4256 108.691 36.6821 106.732 36.1604L104.786 35.6517C102 34.9343 100.723 33.5517 100.723 31.2952C100.723 28.4909 102.985 26.5735 106.209 26.5735C109.409 26.5735 111.598 28.4909 111.671 31.2952H109.384C109.25 29.6778 107.997 28.6865 106.185 28.6865C104.36 28.6865 103.119 29.6778 103.119 31.1256C103.119 32.2604 103.91 32.9517 105.856 33.4604L107.523 33.8908C110.625 34.6734 111.902 36.0169 111.902 38.3778C111.902 41.4169 109.652 43.3082 106.075 43.3082C102.73 43.3082 100.467 41.456 100.321 38.5343H102.633ZM116.793 28.4387V31.23H118.885V33.1474H116.793V39.6691C116.793 40.6734 117.206 41.143 118.131 41.143C118.374 41.143 118.618 41.1169 118.861 41.0908V42.9951C118.459 43.0865 118.034 43.1256 117.62 43.1125C115.382 43.1125 114.518 42.1995 114.518 39.9169V33.1474H112.912V31.23H114.518V28.4387H116.793ZM120.09 37.1387C120.09 33.4213 122.133 31.0865 125.321 31.0865C128.508 31.0865 130.552 33.4343 130.552 37.1387C130.552 40.8691 128.52 43.1908 125.321 43.1908C122.121 43.1908 120.09 40.8691 120.09 37.1387ZM128.24 37.1387C128.24 34.5952 127.145 33.0952 125.321 33.0952C123.496 33.0952 122.401 34.5952 122.401 37.1387C122.401 39.6952 123.496 41.1821 125.321 41.1821C127.145 41.1821 128.24 39.6952 128.24 37.1387ZM132.413 31.23H134.566V33.2387H134.615C134.919 31.9474 136.026 31.0604 137.267 31.1126C137.522 31.1126 137.79 31.1387 138.045 31.2039V33.4735C137.715 33.3616 137.37 33.3088 137.023 33.3169C136.694 33.3012 136.365 33.3626 136.059 33.4968C135.754 33.631 135.479 33.8349 135.255 34.0943C135.03 34.3536 134.861 34.6623 134.759 34.9988C134.657 35.3353 134.624 35.6916 134.663 36.043V43.0473H132.413V31.23ZM148.459 39.5778C148.155 41.7169 146.208 43.1908 143.714 43.1908C140.515 43.1908 138.532 40.8821 138.532 37.1908C138.532 33.4865 140.527 31.0865 143.629 31.0865C146.67 31.0865 148.592 33.33 148.592 36.9169V37.7387H140.807V37.8952C140.772 38.3297 140.824 38.7673 140.959 39.1787C141.094 39.5902 141.308 39.9663 141.589 40.282C141.87 40.5977 142.21 40.8459 142.587 41.0101C142.963 41.1742 143.369 41.2507 143.775 41.2343C144.87 41.3386 145.904 40.6734 146.318 39.5778H148.459ZM140.819 36.056H146.33C146.35 35.6652 146.295 35.2742 146.167 34.9074C146.04 34.5405 145.843 34.2058 145.59 33.9242C145.336 33.6426 145.031 33.4202 144.694 33.2708C144.357 33.1214 143.994 33.0483 143.629 33.0561C142.887 33.0561 142.175 33.3721 141.651 33.9347C141.126 34.4973 140.831 35.2604 140.831 36.056H140.819Z" fill="white"/>
<path d="M61.4167 14.6517C61.8905 14.6167 62.3657 14.6948 62.8079 14.8804C63.2502 15.0659 63.6486 15.3544 63.9744 15.7249C64.3002 16.0954 64.5453 16.5388 64.692 17.0231C64.8387 17.5074 64.8835 18.0205 64.823 18.5256C64.823 21.0038 63.57 22.4386 61.4167 22.4386H58.7891V14.6517H61.4167ZM59.9204 21.3299H61.2829C61.6209 21.3509 61.959 21.2911 62.2728 21.155C62.5866 21.0188 62.8683 20.8097 63.0976 20.5427C63.3268 20.2756 63.498 19.9573 63.5986 19.6108C63.6992 19.2642 63.7268 18.898 63.6795 18.5386C63.7268 18.1792 63.6992 17.8131 63.5986 17.4665C63.498 17.1199 63.3268 16.8017 63.0976 16.5346C62.8683 16.2676 62.5866 16.0584 62.2728 15.9223C61.959 15.7861 61.6209 15.7264 61.2829 15.7473H59.9204V21.3299ZM66.1003 19.4908C66.076 19.1108 66.1248 18.7295 66.2437 18.3706C66.3626 18.0117 66.549 17.6829 66.7915 17.4045C67.0339 17.1261 67.3271 16.9041 67.6529 16.7524C67.9788 16.6006 68.3302 16.5223 68.6854 16.5223C69.0406 16.5223 69.3921 16.6006 69.7179 16.7524C70.0437 16.9041 70.3369 17.1261 70.5793 17.4045C70.8218 17.6829 71.0082 18.0117 71.1271 18.3706C71.246 18.7295 71.2948 19.1108 71.2705 19.4908C71.2948 19.8708 71.246 20.2521 71.1271 20.611C71.0082 20.9699 70.8218 21.2987 70.5793 21.5771C70.3369 21.8555 70.0437 22.0775 69.7179 22.2292C69.3921 22.381 69.0406 22.4593 68.6854 22.4593C68.3302 22.4593 67.9788 22.381 67.6529 22.2292C67.3271 22.0775 67.0339 21.8555 66.7915 21.5771C66.549 21.2987 66.3626 20.9699 66.2437 20.611C66.1248 20.2521 66.076 19.8708 66.1003 19.4908ZM70.1513 19.4908C70.1513 18.2256 69.6282 17.4821 68.6915 17.4821C67.7426 17.4821 67.2195 18.2256 67.2195 19.4908C67.2195 20.7821 67.7426 21.5125 68.6793 21.5125C69.6282 21.5125 70.1513 20.7691 70.1513 19.4908ZM78.1316 22.4386H77.0125L75.8811 18.1082H75.7959L74.6646 22.4386H73.5697L72.0491 16.5691H73.1439L74.1171 21.043H74.2023L75.3337 16.556H76.3677L77.4991 21.043H77.5842L78.5574 16.556H79.6401L78.1316 22.4386ZM80.9053 16.5691H81.9515V17.4952H82.0367C82.3165 16.8039 82.9734 16.3865 83.6668 16.4517C83.9332 16.429 84.2009 16.471 84.45 16.5746C84.6991 16.6782 84.9232 16.8407 85.1056 17.0501C85.2881 17.2594 85.4241 17.5102 85.5035 17.7838C85.583 18.0573 85.6038 18.3465 85.5646 18.6299V22.4386H84.4697V18.9169C84.4697 17.9778 84.1047 17.5082 83.3018 17.5082C83.1204 17.4976 82.9389 17.5295 82.7701 17.6015C82.6012 17.6736 82.449 17.7843 82.324 17.9257C82.199 18.0672 82.1042 18.2361 82.0462 18.4208C81.9882 18.6054 81.9683 18.8014 81.988 18.9952V22.4386H80.9053V16.5691ZM87.292 14.2734H88.3625V22.4386H87.2798L87.292 14.2734ZM89.871 19.4908C89.8467 19.1108 89.8955 18.7295 90.0144 18.3706C90.1333 18.0117 90.3197 17.6829 90.5622 17.4045C90.8046 17.1261 91.0978 16.9041 91.4236 16.7524C91.7495 16.6006 92.1009 16.5223 92.4561 16.5223C92.8113 16.5223 93.1628 16.6006 93.4886 16.7524C93.8144 16.9041 94.1076 17.1261 94.35 17.4045C94.5925 17.6829 94.7789 18.0117 94.8978 18.3706C95.0167 18.7295 95.0655 19.1108 95.0412 19.4908C95.0655 19.8708 95.0167 20.2521 94.8978 20.611C94.7789 20.9699 94.5925 21.2987 94.35 21.5771C94.1076 21.8555 93.8144 22.0775 93.4886 22.2292C93.1628 22.381 92.8113 22.4593 92.4561 22.4593C92.1009 22.4593 91.7495 22.381 91.4236 22.2292C91.0978 22.0775 90.8046 21.8555 90.5622 21.5771C90.3197 21.2987 90.1333 20.9699 90.0144 20.611C89.8955 20.2521 89.8467 19.8708 89.871 19.4908ZM93.922 19.4908C93.922 18.2256 93.3867 17.4821 92.4622 17.4821C91.5133 17.4821 90.9902 18.2256 90.9902 19.4908C90.9902 20.7821 91.5133 21.5125 92.45 21.5125C93.3867 21.5125 93.922 20.7691 93.922 19.4908ZM96.1726 20.7691C96.1726 19.7256 96.9025 19.1125 98.2163 19.0212L99.7005 18.9299V18.4212C99.7005 17.8082 99.3112 17.456 98.5691 17.456C97.9608 17.456 97.5472 17.6908 97.4377 18.1082H96.3794C96.501 17.0908 97.3769 16.4517 98.6178 16.4517C99.9924 16.4517 100.771 17.1821 100.771 18.4212V22.4386H99.7248V21.6038H99.6396C99.2868 22.2169 98.6664 22.5691 97.9973 22.5299C97.7672 22.5555 97.5347 22.529 97.3147 22.4522C97.0947 22.3753 96.8922 22.2499 96.7202 22.084C96.5483 21.918 96.4107 21.7153 96.3164 21.4888C96.222 21.2623 96.173 21.0171 96.1726 20.7691ZM99.7005 20.2734V19.7778L98.3623 19.8691C97.608 19.9212 97.2674 20.2082 97.2674 20.7169C97.2674 21.2386 97.6932 21.5517 98.2771 21.5517C98.4495 21.5714 98.6237 21.5537 98.7895 21.4996C98.9553 21.4455 99.1092 21.3561 99.2421 21.2368C99.375 21.1175 99.484 20.9707 99.5628 20.8051C99.6415 20.6396 99.6884 20.4588 99.7005 20.2734ZM102.194 19.4908C102.194 17.6386 103.082 16.4647 104.469 16.4647C105.163 16.4256 105.82 16.8299 106.148 17.4952H106.221V14.2734H107.316V22.4386H106.27V21.5125H106.184C105.832 22.1647 105.175 22.556 104.469 22.5299C103.07 22.5299 102.194 21.356 102.194 19.4908ZM103.313 19.4908C103.313 20.743 103.861 21.4864 104.773 21.4864C105.686 21.4864 106.245 20.7299 106.245 19.5038C106.245 18.2778 105.674 17.5082 104.773 17.5082C103.861 17.5082 103.313 18.2647 103.313 19.4908ZM111.78 19.4908C111.756 19.1108 111.805 18.7295 111.924 18.3706C112.043 18.0117 112.229 17.6829 112.472 17.4045C112.714 17.1261 113.007 16.9041 113.333 16.7524C113.659 16.6006 114.01 16.5223 114.366 16.5223C114.721 16.5223 115.072 16.6006 115.398 16.7524C115.724 16.9041 116.017 17.1261 116.259 17.4045C116.502 17.6829 116.688 18.0117 116.807 18.3706C116.926 18.7295 116.975 19.1108 116.951 19.4908C116.975 19.8708 116.926 20.2521 116.807 20.611C116.688 20.9699 116.502 21.2987 116.259 21.5771C116.017 21.8555 115.724 22.0775 115.398 22.2292C115.072 22.381 114.721 22.4593 114.366 22.4593C114.01 22.4593 113.659 22.381 113.333 22.2292C113.007 22.0775 112.714 21.8555 112.472 21.5771C112.229 21.2987 112.043 20.9699 111.924 20.611C111.805 20.2521 111.756 19.8708 111.78 19.4908ZM115.831 19.4908C115.831 18.2256 115.296 17.4821 114.372 17.4821C113.423 17.4821 112.9 18.2256 112.9 19.4908C112.9 20.7821 113.423 21.5125 114.359 21.5125C115.296 21.5125 115.831 20.7691 115.831 19.4908ZM118.398 16.5691H119.432V17.4952H119.517C119.797 16.8039 120.454 16.3865 121.16 16.4517C121.425 16.431 121.691 16.4746 121.939 16.5791C122.187 16.6836 122.409 16.8464 122.59 17.0555C122.771 17.2646 122.906 17.5147 122.985 17.7872C123.064 18.0597 123.084 18.3477 123.045 18.6299V22.4386H121.975V18.9169C121.975 17.9778 121.586 17.5082 120.783 17.5082C120.602 17.4996 120.422 17.5329 120.255 17.6058C120.087 17.6788 119.937 17.7897 119.813 17.9309C119.689 18.0721 119.596 18.2404 119.538 18.4241C119.481 18.6078 119.462 18.8026 119.481 18.9952V22.4386H118.386V16.5691H118.398ZM129.164 15.0952V16.5952H130.344V17.5604H129.164V20.5865C129.164 21.1995 129.396 21.4734 129.931 21.4734L130.344 21.4473V22.4125C130.15 22.4517 129.955 22.4647 129.761 22.4647C128.544 22.4647 128.082 22.0082 128.082 20.8865V17.5604H127.206V16.5952H128.082V15.0952H129.164ZM131.816 14.2734H132.899V17.5082H132.984C133.276 16.8169 133.945 16.3865 134.651 16.4647C134.915 16.4489 135.179 16.4957 135.425 16.6019C135.67 16.7081 135.891 16.8709 136.071 17.0789C136.251 17.2869 136.386 17.5349 136.467 17.8052C136.547 18.0756 136.571 18.3616 136.537 18.643V22.4256H135.454V18.9299C135.454 17.9908 135.04 17.5212 134.286 17.5212C134.1 17.5032 133.912 17.5293 133.736 17.5977C133.56 17.6661 133.4 17.775 133.268 17.9169C133.136 18.0587 133.034 18.23 132.97 18.4185C132.907 18.6071 132.882 18.8084 132.899 19.0082V22.4386H131.816V14.2734ZM142.838 20.8473C142.69 21.3829 142.372 21.8459 141.938 22.1557C141.505 22.4655 140.984 22.6026 140.466 22.543C140.106 22.552 139.748 22.4773 139.417 22.3239C139.087 22.1706 138.791 21.9423 138.551 21.6547C138.31 21.3672 138.131 21.0272 138.025 20.6581C137.918 20.2891 137.888 19.8997 137.936 19.5169C137.889 19.1322 137.919 18.7412 138.025 18.3702C138.131 17.9993 138.31 17.657 138.55 17.3665C138.789 17.076 139.085 16.844 139.415 16.6862C139.746 16.5284 140.104 16.4484 140.466 16.4517C141.986 16.4517 142.899 17.5604 142.899 19.4125V19.8038H139.043V19.8821C139.026 20.0977 139.051 20.3148 139.117 20.5193C139.183 20.7239 139.288 20.9114 139.425 21.0698C139.563 21.2283 139.729 21.3542 139.915 21.4394C140.1 21.5246 140.301 21.5673 140.502 21.5647C141.025 21.6299 141.536 21.343 141.804 20.8473H142.838ZM139.043 18.956H141.804C141.818 18.7596 141.793 18.5624 141.731 18.3768C141.67 18.1911 141.573 18.0212 141.448 17.8777C141.322 17.7343 141.17 17.6204 141.001 17.5433C140.832 17.4662 140.65 17.4276 140.466 17.4299C140.278 17.4264 140.091 17.4635 139.917 17.5389C139.743 17.6144 139.585 17.7266 139.452 17.8691C139.319 18.0115 139.215 18.1811 139.144 18.3679C139.074 18.5546 139.039 18.7546 139.043 18.956Z" fill="white"/>
</svg>
