<svg width="31" height="32" viewBox="0 0 31 32" fill="none" xmlns="http://www.w3.org/2000/svg">
<path d="M10.9858 29.1571V24.557C10.9858 23.387 11.9397 22.4362 13.1215 22.4284H17.4506C18.6381 22.4284 19.6008 23.3814 19.6008 24.557V24.557V29.1714C19.6005 30.1648 20.4014 30.9767 21.4046 31H24.2906C27.1677 31 29.5 28.691 29.5 25.8427V25.8427V12.7568C29.4846 11.6362 28.9532 10.584 28.057 9.89955L18.1866 2.02795C16.4574 0.657349 13.9993 0.657349 12.2701 2.02795L2.44304 9.91383C1.54339 10.5955 1.01108 11.6495 1 12.771V25.8427C1 28.691 3.33231 31 6.20937 31H9.09544C10.1235 31 10.957 30.1749 10.957 29.1571V29.1571" stroke="#6E7B94" stroke-width="1.5" stroke-linecap="round" stroke-linejoin="round"/>
</svg>
