<svg width="17" height="18" viewBox="0 0 17 18" fill="none" xmlns="http://www.w3.org/2000/svg">
<path d="M6.2557 15.8195V13.3984C6.25568 12.7826 6.75772 12.2822 7.37975 12.2781H9.65823C10.2832 12.2781 10.7899 12.7797 10.7899 13.3984V13.3984V15.827C10.7897 16.3499 11.2113 16.7772 11.7392 16.7895H13.2582C14.7725 16.7895 16 15.5742 16 14.0751V14.0751V7.18776C15.9919 6.59802 15.7122 6.04422 15.2405 5.68397L10.0456 1.54103C9.13548 0.819658 7.84174 0.819658 6.93165 1.54103L1.75949 5.69149C1.28599 6.05028 1.00583 6.605 1 7.19528V14.0751C1 15.5742 2.22753 16.7895 3.74177 16.7895H5.26076C5.80186 16.7895 6.24051 16.3552 6.24051 15.8195V15.8195" stroke="#6E7B94" stroke-width="1.5" stroke-linecap="round" stroke-linejoin="round"/>
</svg>
