<svg width="18" height="20" viewBox="0 0 18 20" fill="none" xmlns="http://www.w3.org/2000/svg">
<path d="M16.5916 18.2143C16.5916 19.2005 15.7983 20 14.8196 20H2.63635C1.65765 20 0.864258 19.2005 0.864258 18.2143V1.7857C0.864258 0.799492 1.65765 0 2.63635 0H10.2208C10.5738 0 10.9123 0.141484 11.1616 0.393281L16.2034 5.48469C16.452 5.73574 16.5916 6.07598 16.5916 6.43066V18.2143Z" fill="white"/>
<path d="M3.83181 20H2.6362C1.65776 20 0.864258 19.2004 0.864258 18.2141V1.7859C0.864258 0.799609 1.65776 0 2.6362 0H3.83181C2.85338 0 2.05988 0.799609 2.05988 1.7859V18.2141C2.05988 19.2004 2.85338 20 3.83181 20Z" fill="#E9F0F4"/>
<path d="M16.5914 6.43059V7.0841H11.9698C10.6498 7.0841 9.57617 5.99961 9.57617 4.6668V0H10.2206C10.5733 0 10.9121 0.141641 11.1612 0.393164L16.2032 5.48453C16.4519 5.73562 16.5914 6.07605 16.5914 6.43059Z" fill="#E9F0F4"/>
<path d="M16.4729 5.87684H11.9705C11.3089 5.87684 10.7725 5.3352 10.7725 4.66676V0.121094C10.9163 0.18668 11.0483 0.278437 11.1618 0.393125L16.2038 5.48449C16.3174 5.59914 16.4079 5.73195 16.4729 5.87684Z" fill="#FAF063"/>
<path d="M15.8621 17.3441H1.59417C0.713735 17.3441 0 16.6234 0 15.7344V9.85916C0 8.97018 0.713773 8.24951 1.59417 8.24951H15.8621C16.7425 8.24951 17.4563 8.97021 17.4563 9.85916V15.7344C17.4563 16.6234 16.7425 17.3441 15.8621 17.3441Z" fill="#FAF063"/>
<path d="M2.59051 17.3441H1.59417C0.713773 17.3441 0 16.6233 0 15.7344V9.85916C0 8.97021 0.713812 8.24951 1.59417 8.24951H2.59055C1.71015 8.24951 0.996381 8.97025 0.996381 9.85916V15.7344C0.996342 16.6233 1.71012 17.3441 2.59051 17.3441Z" fill="#F3D332"/>
<path d="M8.97956 9.97827C8.81448 9.97827 8.68066 10.1133 8.68066 10.2801V15.3138C8.68066 15.4805 8.81448 15.6156 8.97956 15.6156C9.14464 15.6156 9.27845 15.4805 9.27845 15.3138V10.2801C9.27845 10.1133 9.14464 9.97827 8.97956 9.97827Z" fill="white"/>
<path d="M7.38535 15.012H4.61116L7.55836 10.4449C7.61821 10.3521 7.62301 10.2337 7.5707 10.1363C7.51844 10.0389 7.41758 9.97827 7.3079 9.97827H4.16189C3.99681 9.97827 3.86299 10.1133 3.86299 10.2801C3.86299 10.4468 3.99681 10.5819 4.16189 10.5819H6.75642L3.80922 15.149C3.74937 15.2418 3.74457 15.3602 3.79687 15.4575C3.84914 15.5549 3.95 15.6156 4.05967 15.6156H7.38543C7.55051 15.6156 7.68433 15.4805 7.68433 15.3138C7.68433 15.1471 7.55043 15.012 7.38535 15.012Z" fill="white"/>
<path d="M11.9615 9.97827H10.5734C10.2893 9.97827 10.2744 10.1032 10.2744 10.2801V15.3138C10.2744 15.4805 10.4082 15.6156 10.5733 15.6156C10.7384 15.6156 10.8722 15.4805 10.8722 15.3138V13.4275C11.1963 13.4256 11.7108 13.4229 11.9614 13.4229C12.9172 13.4229 13.6948 12.6503 13.6948 11.7006C13.6947 10.7509 12.9173 9.97827 11.9615 9.97827ZM11.9615 12.8193C11.7126 12.8193 11.2057 12.8219 10.8803 12.8238C10.8785 12.4873 10.8758 11.9569 10.8758 11.7006C10.8758 11.4852 10.8743 10.9312 10.8732 10.5819H11.9615C12.5771 10.5819 13.097 11.0941 13.097 11.7006C13.097 12.307 12.577 12.8193 11.9615 12.8193Z" fill="white"/>
</svg>
