<svg width="18" height="20" viewBox="0 0 18 20" fill="none" xmlns="http://www.w3.org/2000/svg">
<path d="M16.7531 18.2143C16.7531 19.2005 15.952 20 14.9638 20H2.66234C1.67413 20 0.873047 19.2005 0.873047 18.2143V1.78571C0.873047 0.799477 1.67413 0 2.66234 0H10.3204C10.6768 0 11.0186 0.141489 11.2704 0.39328L16.3611 5.48467C16.6122 5.73573 16.7531 6.07598 16.7531 6.43066V18.2143Z" fill="white"/>
<path d="M3.86943 20H2.66218C1.67425 20 0.873047 19.2004 0.873047 18.2141V1.78592C0.873047 0.799598 1.67425 0 2.66218 0H3.86943C2.8815 0 2.08029 0.799598 2.08029 1.78592V18.2141C2.08029 19.2004 2.8815 20 3.86943 20Z" fill="#E9F0F4"/>
<path d="M16.7532 6.43058V7.0841H12.0868C10.754 7.0841 9.66992 5.9996 9.66992 4.6668V0H10.3206C10.6768 0 11.0188 0.14165 11.2703 0.393159L16.3613 5.48451C16.6124 5.73561 16.7532 6.07606 16.7532 6.43058Z" fill="#E9F0F4"/>
<path d="M16.6327 5.87707H12.0866C11.4186 5.87707 10.877 5.33542 10.877 4.66701V0.121338C11.0222 0.186931 11.1554 0.278682 11.2701 0.39337L16.3611 5.48472C16.4757 5.5994 16.5671 5.7322 16.6327 5.87707Z" fill="#0275B1"/>
<path d="M16.0161 17.3441H1.60966C0.720684 17.3441 0 16.6234 0 15.7344V9.85917C0 8.9702 0.720684 8.24951 1.60966 8.24951H16.0161C16.9051 8.24951 17.6258 8.9702 17.6258 9.85917V15.7344C17.6258 16.6234 16.9051 17.3441 16.0161 17.3441Z" fill="#0275B1"/>
<path d="M2.61569 17.3441H1.60966C0.720724 17.3441 0 16.6234 0 15.7344V9.85917C0 8.97024 0.720724 8.24951 1.60966 8.24951H2.61569C1.72676 8.24951 1.00604 8.97024 1.00604 9.85917V15.7344C1.00604 16.6234 1.72676 17.3441 2.61569 17.3441Z" fill="#022F96"/>
<path d="M1.92215 15.3245C1.84252 15.3245 1.76606 15.293 1.70956 15.2369C1.65274 15.1805 1.62062 15.1038 1.62034 15.0238C1.6203 15.0076 1.61455 13.4037 1.61455 12.792C1.61455 12.2843 1.61133 10.5717 1.61133 10.5717C1.61117 10.4915 1.64292 10.4146 1.6995 10.3579C1.75612 10.3012 1.83298 10.2693 1.91314 10.2693H3.1739C4.42968 10.2693 5.27338 11.285 5.27338 12.7969C5.27338 13.4693 5.08248 14.0888 4.7358 14.5413C4.36183 15.0294 3.82211 15.3041 3.21604 15.3147C2.85857 15.3209 1.96131 15.3243 1.92328 15.3245C1.92296 15.3245 1.92256 15.3245 1.92215 15.3245ZM2.21551 10.8729C2.2164 11.3884 2.21817 12.4176 2.21817 12.7919C2.21817 13.2399 2.22123 14.2216 2.22292 14.7194C2.52654 14.7178 2.98091 14.715 3.20553 14.7111C4.06763 14.696 4.66976 13.9088 4.66976 12.7969C4.66976 11.8668 4.2768 10.8729 3.1739 10.8729H2.21551V10.8729Z" fill="white"/>
<path d="M14.2673 15.3922C12.8362 15.3922 11.6719 14.2279 11.6719 12.7968C11.6719 11.3657 12.8362 10.2014 14.2673 10.2014C14.7874 10.2014 15.2893 10.3548 15.7186 10.6448C15.8567 10.7382 15.893 10.9258 15.7998 11.0639C15.7065 11.2021 15.5189 11.2383 15.3807 11.145C15.0515 10.9226 14.6665 10.8051 14.2673 10.8051C13.169 10.8051 12.2755 11.6986 12.2755 12.7969C12.2755 13.8951 13.169 14.7887 14.2673 14.7887C14.687 14.7887 15.043 14.6612 15.3254 14.4097C15.3803 14.3608 15.4326 14.3067 15.4809 14.2491C15.588 14.1213 15.7784 14.1046 15.9061 14.2117C16.0338 14.3188 16.0506 14.5091 15.9435 14.6368C15.8765 14.7169 15.8035 14.7921 15.7268 14.8605C15.3362 15.2083 14.8315 15.3922 14.2673 15.3922Z" fill="white"/>
<path d="M8.47237 15.3922C7.04126 15.3922 5.87695 14.2279 5.87695 12.7968C5.87695 11.3657 7.04126 10.2014 8.47237 10.2014C9.90347 10.2014 11.0678 11.3657 11.0678 12.7968C11.0678 14.2279 9.90347 15.3922 8.47237 15.3922ZM8.47237 10.805C7.3741 10.805 6.48057 11.6986 6.48057 12.7968C6.48057 13.8951 7.3741 14.7886 8.47237 14.7886C9.57068 14.7886 10.4642 13.8951 10.4642 12.7968C10.4642 11.6986 9.57068 10.805 8.47237 10.805Z" fill="white"/>
</svg>
