<svg width="7" height="6" viewBox="0 0 7 6" fill="none" xmlns="http://www.w3.org/2000/svg">
<path fill-rule="evenodd" clip-rule="evenodd" d="M5.96126 5.68153C5.71606 5.92589 5.31991 5.93089 5.06887 5.69154L5.03718 5.66068L1.05062 1.67511C0.807091 1.41657 0.802087 1.0146 1.03978 0.751059C1.28331 0.5017 1.68197 0.496696 1.93133 0.740218C1.93384 0.741885 1.9355 0.743553 1.93801 0.746055L3.49343 2.30226L4.90874 0.886164C5.16312 0.643476 5.56427 0.645978 5.81614 0.892001C5.86118 0.937036 5.89955 0.987909 5.92874 1.04462C6.07302 1.29565 6.03132 1.61089 5.82699 1.81605L4.41751 3.22463L5.95042 4.75832C6.20896 5.00267 6.21897 5.41049 5.97377 5.66819C5.97187 5.67104 5.96944 5.67334 5.96692 5.67573C5.96501 5.67753 5.96306 5.67938 5.96126 5.68153ZM0.947285 4.86944L1.51774 4.299C1.77545 4.05798 2.17911 4.07299 2.42014 4.32986C2.66033 4.58839 2.64615 4.99204 2.38845 5.23222L1.82049 5.80016C1.56945 6.03535 1.17747 6.02867 0.93394 5.78515L0.915592 5.77181C0.678735 5.51244 0.692913 5.1113 0.947285 4.86944Z" fill="white"/>
</svg>
