<svg width="18" height="20" viewBox="0 0 18 20" fill="none" xmlns="http://www.w3.org/2000/svg">
<path d="M16.7531 18.2143C16.7531 19.2005 15.952 20 14.9638 20H2.66234C1.67413 20 0.873047 19.2005 0.873047 18.2143V1.78571C0.873047 0.799477 1.67413 0 2.66234 0H10.3204C10.6768 0 11.0186 0.141489 11.2704 0.39328L16.3611 5.48467C16.6122 5.73573 16.7531 6.07598 16.7531 6.43066V18.2143Z" fill="white"/>
<path d="M3.86943 20H2.66218C1.67425 20 0.873047 19.2004 0.873047 18.2141V1.78592C0.873047 0.799598 1.67425 0 2.66218 0H3.86943C2.8815 0 2.08029 0.799598 2.08029 1.78592V18.2141C2.08029 19.2004 2.8815 20 3.86943 20Z" fill="#E9F0F4"/>
<path d="M16.7532 6.43058V7.0841H12.0868C10.754 7.0841 9.66992 5.9996 9.66992 4.6668V0H10.3206C10.6768 0 11.0188 0.14165 11.2703 0.393159L16.3613 5.48451C16.6124 5.73561 16.7532 6.07606 16.7532 6.43058Z" fill="#E9F0F4"/>
<path d="M16.6327 5.87707H12.0866C11.4186 5.87707 10.877 5.33542 10.877 4.66701V0.121338C11.0222 0.186931 11.1554 0.278682 11.2701 0.39337L16.3611 5.48472C16.4757 5.5994 16.5671 5.7322 16.6327 5.87707Z" fill="#80E29E"/>
<path d="M16.0161 17.3441H1.60966C0.720684 17.3441 0 16.6234 0 15.7344V9.85917C0 8.9702 0.720684 8.24951 1.60966 8.24951H16.0161C16.9051 8.24951 17.6258 8.9702 17.6258 9.85917V15.7344C17.6258 16.6234 16.9051 17.3441 16.0161 17.3441Z" fill="#80E29E"/>
<path d="M2.61569 17.3441H1.60966C0.720724 17.3441 0 16.6234 0 15.7344V9.85917C0 8.97024 0.720724 8.24951 1.60966 8.24951H2.61569C1.72676 8.24951 1.00604 8.97024 1.00604 9.85917V15.7344C1.00604 16.6234 1.72676 17.3441 2.61569 17.3441Z" fill="#77D192"/>
<path d="M9.85543 14.7845C9.85487 14.7845 9.85427 14.7845 9.8537 14.7845C9.46058 14.7867 8.88972 14.7891 8.55089 14.7883V10.503C8.55089 10.3363 8.41576 10.2012 8.24908 10.2012C8.0824 10.2012 7.94727 10.3363 7.94727 10.503V15.0863C7.94727 15.2333 8.05318 15.359 8.19809 15.3838C8.21982 15.3875 8.24686 15.3922 8.73873 15.3922C8.98075 15.3922 9.33531 15.3911 9.85708 15.3881C10.0238 15.3872 10.1581 15.2514 10.1572 15.0846C10.1563 14.9185 10.0213 14.7845 9.85543 14.7845Z" fill="white"/>
<path d="M13.3651 12.5495C12.7563 12.325 12.1931 12.0794 12.0726 12.0264C11.8867 11.8958 11.7958 11.6831 11.8289 11.453C11.8685 11.177 12.0761 10.9568 12.3843 10.8639C13.1771 10.6249 13.8829 11.1942 13.8975 11.2061C14.0251 11.3126 14.215 11.296 14.322 11.1686C14.4293 11.041 14.4128 10.8507 14.2852 10.7434C14.2465 10.7108 13.3243 9.9505 12.2102 10.286C11.6792 10.4459 11.3042 10.8602 11.2314 11.3672C11.1641 11.8363 11.3671 12.2874 11.7612 12.5444C11.7746 12.5531 11.7886 12.5607 11.8031 12.5672C11.8293 12.5788 12.4531 12.8565 13.1562 13.1158C13.7168 13.3227 13.9992 13.6605 13.931 14.0429C13.8664 14.4042 13.47 14.7883 12.8623 14.7883C12.3309 14.7883 11.817 14.5711 11.4874 14.2074C11.3755 14.0839 11.1846 14.0745 11.0611 14.1865C10.9375 14.2984 10.9282 14.4893 11.0401 14.6128C11.4822 15.1006 12.1634 15.3919 12.8623 15.3919C13.6838 15.3919 14.3987 14.8576 14.5252 14.1489C14.6201 13.6176 14.3651 12.9184 13.3651 12.5495Z" fill="white"/>
<path d="M5.48163 12.6348L6.8603 10.6778C6.95631 10.5416 6.92364 10.3533 6.78738 10.2573C6.65108 10.1612 6.46283 10.194 6.36682 10.3302L5.11269 12.1104L3.86046 10.3304C3.76456 10.1941 3.57627 10.1612 3.43993 10.2572C3.3036 10.3531 3.27084 10.5414 3.36674 10.6777L4.7434 12.6346L3.13519 14.9174C3.03917 15.0537 3.07185 15.242 3.2081 15.3379C3.26094 15.3752 3.32158 15.3931 3.38167 15.3931C3.47651 15.3931 3.56987 15.3485 3.62867 15.265L5.11233 13.159L6.59378 15.2649C6.65253 15.3484 6.74597 15.3931 6.8409 15.3931C6.9009 15.3931 6.96151 15.3752 7.0143 15.3381C7.15064 15.2422 7.1834 15.0539 7.0875 14.9176L5.48163 12.6348Z" fill="white"/>
</svg>
