<svg width="18" height="20" viewBox="0 0 18 20" fill="none" xmlns="http://www.w3.org/2000/svg">
<path d="M16.7531 18.2143C16.7531 19.2005 15.952 20 14.9638 20H2.66234C1.67413 20 0.873047 19.2005 0.873047 18.2143V1.78571C0.873047 0.799477 1.67413 0 2.66234 0H10.3204C10.6768 0 11.0186 0.141489 11.2704 0.39328L16.3611 5.48467C16.6122 5.73573 16.7531 6.07598 16.7531 6.43066V18.2143Z" fill="white"/>
<path d="M3.86943 20H2.66218C1.67425 20 0.873047 19.2004 0.873047 18.2141V1.78592C0.873047 0.799598 1.67425 0 2.66218 0H3.86943C2.8815 0 2.08029 0.799598 2.08029 1.78592V18.2141C2.08029 19.2004 2.8815 20 3.86943 20Z" fill="#E9F0F4"/>
<path d="M16.7532 6.43058V7.0841H12.0868C10.754 7.0841 9.66992 5.9996 9.66992 4.6668V0H10.3206C10.6768 0 11.0188 0.14165 11.2703 0.393159L16.3613 5.48451C16.6124 5.73561 16.7532 6.07606 16.7532 6.43058Z" fill="#E9F0F4"/>
<path d="M16.6327 5.87707H12.0866C11.4186 5.87707 10.877 5.33542 10.877 4.66701V0.121338C11.0222 0.186931 11.1554 0.278682 11.2701 0.39337L16.3611 5.48472C16.4757 5.5994 16.5671 5.7322 16.6327 5.87707Z" fill="#200E32" fill-opacity="0.8"/>
<path d="M16.0161 17.3441H1.60966C0.720684 17.3441 0 16.6234 0 15.7344V9.85917C0 8.9702 0.720684 8.24951 1.60966 8.24951H16.0161C16.9051 8.24951 17.6258 8.9702 17.6258 9.85917V15.7344C17.6258 16.6234 16.9051 17.3441 16.0161 17.3441Z" fill="#200E32" fill-opacity="0.8"/>
<path d="M2.61569 17.3441H1.60966C0.720724 17.3441 0 16.6234 0 15.7344V9.85917C0 8.97024 0.720724 8.24951 1.60966 8.24951H2.61569C1.72676 8.24951 1.00604 8.97024 1.00604 9.85917V15.7344C1.00604 16.6234 1.72676 17.3441 2.61569 17.3441Z" fill="#230B34"/>
<path d="M3.58241 16C3.29362 16 3.02842 15.8713 2.78678 15.614C2.54515 15.3566 2.35361 15.0014 2.21217 14.5483C2.07072 14.0895 2 13.572 2 12.9958C2 12.4252 2.07072 11.9133 2.21217 11.4601C2.35361 11.0014 2.54515 10.6434 2.78678 10.386C3.02842 10.1287 3.29362 10 3.58241 10C3.87413 10 4.13934 10.1287 4.37803 10.386C4.61966 10.6434 4.80973 11.0014 4.94823 11.4601C5.08967 11.9133 5.16039 12.4252 5.16039 12.9958C5.16039 13.572 5.08967 14.0895 4.94823 14.5483C4.80973 15.0014 4.61966 15.3566 4.37803 15.614C4.1364 15.8713 3.87119 16 3.58241 16ZM3.58241 14.951C3.76805 14.951 3.9316 14.8727 4.07304 14.7161C4.21448 14.5538 4.32499 14.3245 4.40455 14.028C4.48411 13.7315 4.52389 13.3874 4.52389 12.9958C4.52389 12.6042 4.48411 12.2629 4.40455 11.972C4.32499 11.6755 4.21448 11.449 4.07304 11.2923C3.9316 11.1357 3.76805 11.0573 3.58241 11.0573C3.39676 11.0573 3.23174 11.1357 3.08735 11.2923C2.94591 11.449 2.8354 11.6755 2.75584 11.972C2.67628 12.2629 2.6365 12.6042 2.6365 12.9958C2.6365 13.3874 2.67628 13.7315 2.75584 14.028C2.8354 14.3245 2.94591 14.5538 3.08735 14.7161C3.23174 14.8727 3.39676 14.951 3.58241 14.951Z" fill="white"/>
<path d="M7.72034 10.0839V11.0322H6.89819V15.9413H6.27938V11.0322H5.45723V10.0839H7.72034Z" fill="white"/>
<path d="M10.7311 10.0839V15.9413H10.1123V13.449H8.79067V15.9413H8.17185V10.0839H8.79067V12.4923H10.1123V10.0839H10.7311Z" fill="white"/>
<path d="M11.959 11.0322V12.5007H12.9977V13.4322H11.959V14.9846H13.1303V15.9413H11.3402V10.0755H13.1303V11.0322H11.959Z" fill="white"/>
<path d="M15.2839 15.9413L14.6032 13.6587H14.3115V15.9413H13.6927V10.0839H14.8508C15.0895 10.0839 15.2928 10.165 15.4607 10.3273C15.6287 10.4839 15.7539 10.6993 15.8365 10.9734C15.9219 11.242 15.9646 11.5441 15.9646 11.8797C15.9646 12.2657 15.9057 12.6154 15.7878 12.9287C15.67 13.2364 15.4946 13.449 15.2618 13.5664L16 15.9413H15.2839ZM14.3115 12.7776H14.8287C14.9966 12.7776 15.1219 12.7021 15.2044 12.551C15.2869 12.3944 15.3281 12.179 15.3281 11.9049C15.3281 11.6364 15.2869 11.4294 15.2044 11.2839C15.1219 11.1329 14.9966 11.0573 14.8287 11.0573H14.3115V12.7776Z" fill="white"/>
</svg>
