<svg width="18" height="20" viewBox="0 0 18 20" fill="none" xmlns="http://www.w3.org/2000/svg">
<path d="M16.7531 18.2143C16.7531 19.2005 15.952 20 14.9638 20H2.66234C1.67414 20 0.873047 19.2005 0.873047 18.2143V1.7857C0.873047 0.799492 1.67414 0 2.66234 0H10.3204C10.6768 0 11.0186 0.141484 11.2704 0.393281L16.3611 5.48469C16.6122 5.73574 16.7531 6.07598 16.7531 6.43066V18.2143Z" fill="white"/>
<path d="M3.86941 20H2.66219C1.67426 20 0.873047 19.2004 0.873047 18.2141V1.7859C0.873047 0.799609 1.67426 0 2.66219 0H3.86941C2.88148 0 2.08027 0.799609 2.08027 1.7859V18.2141C2.08027 19.2004 2.88148 20 3.86941 20Z" fill="#E9F0F4"/>
<path d="M16.7532 6.43059V7.0841H12.0868C10.754 7.0841 9.66992 5.99961 9.66992 4.6668V0H10.3206C10.6768 0 11.0188 0.141641 11.2703 0.393164L16.3612 5.48453C16.6124 5.73562 16.7532 6.07605 16.7532 6.43059Z" fill="#E9F0F4"/>
<path d="M16.6327 5.87684H12.0866C11.4186 5.87684 10.877 5.3352 10.877 4.66676V0.121094C11.0222 0.18668 11.1554 0.278437 11.2701 0.393125L16.3611 5.48449C16.4757 5.59914 16.5671 5.73195 16.6327 5.87684Z" fill="#DC4955"/>
<path d="M16.0161 17.3441H1.60965C0.720664 17.3441 0 16.6234 0 15.7344V9.85916C0 8.97018 0.720703 8.24951 1.60965 8.24951H16.0161C16.9051 8.24951 17.6257 8.97021 17.6257 9.85916V15.7344C17.6257 16.6234 16.905 17.3441 16.0161 17.3441Z" fill="#DC4955"/>
<path d="M2.61566 17.3441H1.60965C0.720703 17.3441 0 16.6233 0 15.7344V9.85916C0 8.97021 0.720742 8.24951 1.60965 8.24951H2.6157C1.72676 8.24951 1.00605 8.97025 1.00605 9.85916V15.7344C1.00602 16.6233 1.72672 17.3441 2.61566 17.3441Z" fill="#C42430"/>
<path d="M13.9716 10.8219C14.1383 10.8219 14.2734 10.6868 14.2734 10.5201C14.2734 10.3533 14.1383 10.2183 13.9716 10.2183H12.126C11.9593 10.2183 11.8242 10.3533 11.8242 10.5201V15.0737C11.8242 15.2404 11.9593 15.3755 12.126 15.3755C12.2927 15.3755 12.4278 15.2404 12.4278 15.0737V13.0556H13.825C13.9917 13.0556 14.1268 12.9205 14.1268 12.7538C14.1268 12.5871 13.9917 12.452 13.825 12.452H12.4278V10.8219H13.9716Z" fill="white"/>
<path d="M8.92 10.2695H7.65922C7.57906 10.2695 7.50223 10.3014 7.44563 10.3581C7.38902 10.4148 7.35727 10.4917 7.35742 10.5719V10.5758V10.576V14.9506C7.35742 14.9755 7.36074 14.9995 7.36645 15.0226V15.024C7.36672 15.104 7.39883 15.1807 7.45563 15.2371C7.51215 15.2932 7.58863 15.3247 7.66824 15.3247H7.66938C7.70742 15.3246 8.60465 15.3211 8.96219 15.3149C9.56824 15.3043 10.1079 15.0296 10.4819 14.5416C10.8286 14.0891 11.0195 13.4696 11.0195 12.7971C11.0195 11.2853 10.1758 10.2695 8.92 10.2695ZM8.95168 14.7113C8.72707 14.7152 8.2727 14.7181 7.96906 14.7196C7.96738 14.2219 7.9643 13.2401 7.9643 12.7922C7.9643 12.4178 7.96258 11.3886 7.96164 10.8732H8.92004C10.0229 10.8732 10.4159 11.867 10.4159 12.7971C10.4159 13.9091 9.81375 14.6963 8.95168 14.7113Z" fill="white"/>
<path d="M4.52906 10.2124H3.24129C2.97777 10.2124 2.96387 10.3272 2.96387 10.4897V15.1146C2.96387 15.2678 3.08801 15.3919 3.24117 15.3919C3.3943 15.3919 3.51848 15.2678 3.51848 15.1146V13.3815C3.81918 13.3797 4.29644 13.3773 4.52894 13.3773C5.41559 13.3773 6.13695 12.6674 6.13695 11.7948C6.13691 10.9223 5.4157 10.2124 4.52906 10.2124ZM4.52906 12.8227C4.29809 12.8227 3.82781 12.8251 3.52598 12.8269C3.52426 12.5177 3.5218 12.0304 3.5218 11.7949C3.5218 11.597 3.52039 11.088 3.51941 10.767H4.52902C5.10004 10.767 5.58242 11.2377 5.58242 11.7949C5.58246 12.3521 5.10004 12.8227 4.52906 12.8227Z" fill="white"/>
</svg>
