<svg width="32" height="32" viewBox="0 0 32 32" fill="none" xmlns="http://www.w3.org/2000/svg">
<path fill-rule="evenodd" clip-rule="evenodd" d="M13.9267 10.8096C13.9267 12.4659 12.5825 13.8101 10.9262 13.8101C9.27151 13.8101 7.92731 12.4659 7.92731 10.8096C7.92731 9.15329 9.27151 7.80908 10.9262 7.80908C12.5825 7.80908 13.9267 9.15329 13.9267 10.8096Z" stroke="#00DFFF" stroke-width="1.5" stroke-linecap="round" stroke-linejoin="round"/>
<path d="M30.9989 20.8302C29.3832 19.4242 27.9773 17.7321 26.1243 16.6155C24.2681 15.4988 22.2737 16.188 20.9864 17.854C19.743 19.4648 18.966 21.6315 17.0887 22.6474C14.7758 23.9005 13.4169 21.8802 11.4876 21.0707C9.33392 20.1686 7.69877 21.7908 6.44071 23.3495C5.18102 24.9099 3.90508 26.454 2.62427 27.9982" stroke="#00DFFF" stroke-width="1.5" stroke-linecap="round" stroke-linejoin="round"/>
<path fill-rule="evenodd" clip-rule="evenodd" d="M23.029 1H8.97096C4.07038 1 1 4.4686 1 9.37731V22.6227C1 27.5314 4.05738 31 8.97096 31H23.0274C27.9426 31 31 27.5314 31 22.6227V9.37731C31 4.4686 27.9426 1 23.029 1Z" stroke="#6E7B94" stroke-width="1.5" stroke-linecap="round" stroke-linejoin="round"/>
</svg>
