<svg width="22" height="22" viewBox="0 0 22 22" fill="none" xmlns="http://www.w3.org/2000/svg">
<path fill-rule="evenodd" clip-rule="evenodd" d="M15.686 1H6.31397C3.04692 1 1 3.3124 1 6.58487V15.4151C1 18.6876 3.03825 21 6.31397 21H15.6849C18.9617 21 21 18.6876 21 15.4151V6.58487C21 3.3124 18.9617 1 15.686 1Z" stroke="#6E7B94" stroke-width="1.5" stroke-linecap="round" stroke-linejoin="round"/>
<path opacity="0.4" fill-rule="evenodd" clip-rule="evenodd" d="M9.61785 7.53972C9.61785 8.64391 8.72172 9.54005 7.61753 9.54005C6.51442 9.54005 5.61829 8.64391 5.61829 7.53972C5.61829 6.43554 6.51442 5.5394 7.61753 5.5394C8.72172 5.5394 9.61785 6.43554 9.61785 7.53972Z" stroke="#6E7B94" stroke-width="1.5" stroke-linecap="round" stroke-linejoin="round"/>
<path opacity="0.4" d="M20.9992 14.2201C19.9221 13.2828 18.9848 12.1547 17.7494 11.4103C16.512 10.6659 15.1824 11.1253 14.3242 12.236C13.4952 13.3099 12.9773 14.7543 11.7257 15.4315C10.1838 16.267 9.27787 14.9201 7.99163 14.3805C6.55586 13.7791 5.46576 14.8605 4.62706 15.8997C3.78727 16.9399 2.93664 17.9693 2.08276 18.9988" stroke="#6E7B94" stroke-width="1.5" stroke-linecap="round" stroke-linejoin="round"/>
</svg>
