<svg width="25" height="25" viewBox="0 0 25 25" fill="none" xmlns="http://www.w3.org/2000/svg">
<path fill-rule="evenodd" clip-rule="evenodd" d="M17.8889 1H7.11107C3.35396 1 1 3.65926 1 7.4226V17.5774C1 21.3407 3.34399 24 7.11107 24H17.8877C21.656 24 24 21.3407 24 17.5774V7.4226C24 3.65926 21.656 1 17.8889 1Z" stroke="#6E7B94" stroke-width="1.5" stroke-linecap="round" stroke-linejoin="round"/>
<path opacity="0.4" fill-rule="evenodd" clip-rule="evenodd" d="M10.9105 8.52071C10.9105 9.79053 9.87998 10.8211 8.61016 10.8211C7.34159 10.8211 6.31104 9.79053 6.31104 8.52071C6.31104 7.25089 7.34159 6.22034 8.61016 6.22034C9.87998 6.22034 10.9105 7.25089 10.9105 8.52071Z" stroke="#6E7B94" stroke-width="1.5" stroke-linecap="round" stroke-linejoin="round"/>
<path opacity="0.4" d="M23.999 16.2031C22.7603 15.1252 21.6824 13.828 20.2618 12.9719C18.8387 12.1158 17.3097 12.6441 16.3228 13.9214C15.3695 15.1564 14.7738 16.8175 13.3345 17.5963C11.5613 18.5571 10.5195 17.0081 9.04032 16.3875C7.38918 15.6959 6.13557 16.9396 5.17105 18.1346C4.20529 19.3309 3.22708 20.5148 2.24512 21.6986" stroke="#6E7B94" stroke-width="1.5" stroke-linecap="round" stroke-linejoin="round"/>
</svg>
