<svg width="20" height="20" viewBox="0 0 20 20" fill="none" xmlns="http://www.w3.org/2000/svg">
<g clip-path="url(#clip0)">
<path d="M19.4064 7.12708L16.9479 5.07526V2.16434C16.9479 1.91301 16.7286 1.72108 16.4727 1.72108H12.8946L11.4597 0.523807C10.6143 -0.175362 9.38956 -0.175362 8.54416 0.528377L7.10926 1.72108H3.48546C3.23413 1.72108 3.01021 1.90844 3.01021 2.16434V5.12096L0.597389 7.12708C0.496855 7.2139 0.437449 7.34642 0.442018 7.47895H0.451158V17.7106C0.451158 18.9718 1.46564 20 2.72232 20H17.2769C18.5382 20 19.5481 18.9673 19.5481 17.7106V7.47895H19.5572C19.5664 7.34185 19.5115 7.2139 19.4064 7.12708ZM16.9479 6.2634L18.3874 7.46067L16.9479 8.52999V6.2634ZM9.12909 1.22755C9.63633 0.807131 10.3721 0.811701 10.8793 1.23212L11.4597 1.72108H8.53959L9.12909 1.22755ZM3.92416 2.63503H16.034V9.21088L10.829 13.086C10.3355 13.447 9.66832 13.447 9.17935 13.086L3.92416 9.17432V2.63503ZM3.01021 6.30452V8.49343L1.61644 7.4561L3.01021 6.30452ZM18.6387 17.706C18.6433 18.4646 18.0355 19.0815 17.2815 19.0861H2.72232C1.96831 19.0815 1.36054 18.4646 1.36511 17.7106V8.38832L8.64013 13.8217C9.44897 14.4204 10.5548 14.4204 11.3637 13.8217L18.6387 8.38832V17.706Z" fill="#6E7B94"/>
<path d="M9.63629 6.29089H7.16864C6.91731 6.29089 6.71167 6.49653 6.71167 6.74787C6.71167 6.9992 6.91731 7.20484 7.16864 7.20484H9.63629C9.88763 7.20484 10.0933 6.9992 10.0933 6.74787C10.0933 6.49653 9.88763 6.29089 9.63629 6.29089Z" fill="#6E7B94"/>
<path d="M12.8351 8.57568H7.16864C6.91731 8.57568 6.71167 8.78132 6.71167 9.03266C6.71167 9.28399 6.91731 9.48963 7.16864 9.48963H12.8351C13.0864 9.48963 13.2921 9.28399 13.2921 9.03266C13.2921 8.78132 13.0864 8.57568 12.8351 8.57568Z" fill="#6E7B94"/>
</g>
<defs>
<clipPath id="clip0">
<rect width="20" height="20" fill="white"/>
</clipPath>
</defs>
</svg>
