<svg width="17" height="17" viewBox="0 0 17 17" fill="none" xmlns="http://www.w3.org/2000/svg">
<path opacity="0.4" fill-rule="evenodd" clip-rule="evenodd" d="M9.24997 5.74545C9.24997 5.33124 8.91418 4.99545 8.49997 4.99545C8.08575 4.99545 7.74997 5.33124 7.74997 5.74545V7.74288H5.75C5.33579 7.74288 5 8.07867 5 8.49288C5 8.90709 5.33579 9.24288 5.75 9.24288H7.74997V11.2402C7.74997 11.6544 8.08575 11.9902 8.49997 11.9902C8.91418 11.9902 9.24997 11.6544 9.24997 11.2402V9.24288H11.25C11.6642 9.24288 12 8.90709 12 8.49288C12 8.07867 11.6642 7.74288 11.25 7.74288H9.24997V5.74545Z" fill="white"/>
<path fill-rule="evenodd" clip-rule="evenodd" d="M12.0143 1H4.98571C2.53571 1 1 2.73406 1 5.18887V11.8111C1 14.2659 2.52857 16 4.98571 16H12.0143C14.4714 16 16 14.2659 16 11.8111V5.18887C16 2.73406 14.4714 1 12.0143 1Z" stroke="white" stroke-width="1.5" stroke-linecap="round" stroke-linejoin="round"/>
</svg>
