<svg width="225" height="450" viewBox="0 0 225 450" fill="none" xmlns="http://www.w3.org/2000/svg">
<path fill-rule="evenodd" clip-rule="evenodd" d="M32.7586 0H192.069C209.209 0 223.103 13.9427 223.103 31.1419V418.858C223.103 436.057 209.209 450 192.069 450H32.7586C15.6188 450 1.72414 436.057 1.72414 418.858V31.1419C1.72414 13.9427 15.6188 0 32.7586 0Z" fill="#444444"/>
<path fill-rule="evenodd" clip-rule="evenodd" d="M33.2759 2.59521H191.552C207.549 2.59521 220.517 15.6084 220.517 31.661V418.339C220.517 434.392 207.549 447.405 191.552 447.405H33.2759C17.2786 447.405 4.31034 434.392 4.31034 418.339V31.661C4.31034 15.6084 17.2786 2.59521 33.2759 2.59521Z" fill="#141414"/>
<rect x="219.483" y="43.2527" width="3.79314" height="3.46021" fill="#141414"/>
<rect x="1.72414" y="43.2527" width="3.7931" height="3.46021" fill="#141414"/>
<rect x="219.483" y="403.114" width="3.79314" height="3.46021" fill="#141414"/>
<rect x="1.72414" y="403.114" width="3.7931" height="3.46021" fill="#141414"/>
<path fill-rule="evenodd" clip-rule="evenodd" d="M15.604 33.0212C15.604 22.5235 24.0945 14.0134 34.5692 14.0134H190.604C201.078 14.0134 209.569 22.5228 209.569 33.0212V415.94C209.569 426.438 201.079 434.948 190.604 434.948H34.5692C24.095 434.948 15.604 426.438 15.604 415.94V33.0212Z" fill="white"/>
<path fill-rule="evenodd" clip-rule="evenodd" d="M89.6552 20.7614C90.7979 20.7614 91.7242 19.8319 91.7242 18.6853C91.7242 17.5386 90.7979 16.6091 89.6552 16.6091C88.5126 16.6091 87.5863 17.5386 87.5863 18.6853C87.5863 19.8319 88.5126 20.7614 89.6552 20.7614Z" fill="#444444"/>
<path fill-rule="evenodd" clip-rule="evenodd" d="M137.586 22.1453C139.491 22.1453 141.034 20.5961 141.034 18.6851C141.034 16.774 139.491 15.2249 137.586 15.2249C135.682 15.2249 134.138 16.774 134.138 18.6851C134.138 20.5961 135.682 22.1453 137.586 22.1453Z" fill="#444444"/>
<path fill-rule="evenodd" clip-rule="evenodd" d="M101.034 17.301H124.138C124.9 17.301 125.517 17.9207 125.517 18.6851C125.517 19.4495 124.9 20.0692 124.138 20.0692H101.034C100.273 20.0692 99.6551 19.4495 99.6551 18.6851C99.6551 17.9207 100.273 17.301 101.034 17.301Z" fill="#444444"/>
<path fill-rule="evenodd" clip-rule="evenodd" d="M0 93.77C0 93.3887 0.36989 93.0796 0.829606 93.0796H2.06897V125.952H0.829606C0.371427 125.952 0 125.642 0 125.261V93.77Z" fill="#444444"/>
<path fill-rule="evenodd" clip-rule="evenodd" d="M0 134.773C0 134.392 0.36989 134.083 0.829606 134.083H2.06897V166.955H0.829606C0.371427 166.955 0 166.645 0 166.265V134.773Z" fill="#444444"/>
<path fill-rule="evenodd" clip-rule="evenodd" d="M0 61.5912C0 61.2093 0.36989 60.8997 0.829606 60.8997H2.06897V78.8927H0.829606C0.371427 78.8927 0 78.5842 0 78.2012V61.5912Z" fill="#444444"/>
<path fill-rule="evenodd" clip-rule="evenodd" d="M222.931 103.46H223.966C224.537 103.46 225 103.846 225 104.324V156.229C225 156.707 224.536 157.093 223.966 157.093H222.931V103.46Z" fill="#444444"/>
<path fill-rule="evenodd" clip-rule="evenodd" d="M57.5863 14.0137V17.124C57.5863 23.9967 63.1522 29.5654 70.018 29.5654H154.982C161.847 29.5654 167.414 23.9952 167.414 17.124V16.2607V16.0886V14.0137H57.5863Z" fill="#212121"/>
</svg>
