<svg width="225" height="450" viewBox="0 0 225 450" fill="none" xmlns="http://www.w3.org/2000/svg">
<path fill-rule="evenodd" clip-rule="evenodd" d="M32.7586 0.000488281H192.069C209.209 0.000488281 223.103 13.9432 223.103 31.1424V418.859C223.103 436.058 209.209 450.001 192.069 450.001H32.7586C15.6188 450.001 1.72415 436.058 1.72415 418.859V31.1424C1.72415 13.9432 15.6188 0.000488281 32.7586 0.000488281Z" fill="#444444"/>
<path fill-rule="evenodd" clip-rule="evenodd" d="M33.2758 2.5957H191.552C207.549 2.5957 220.517 15.6089 220.517 31.6614V418.34C220.517 434.392 207.549 447.405 191.552 447.405H33.2758C17.2786 447.405 4.31033 434.392 4.31033 418.34V31.6614C4.31033 15.6089 17.2786 2.5957 33.2758 2.5957Z" fill="#141414"/>
<rect x="219.483" y="43.2532" width="3.79314" height="3.46021" fill="#141414"/>
<rect x="1.72415" y="43.2532" width="3.7931" height="3.46021" fill="#141414"/>
<rect x="219.483" y="403.115" width="3.79314" height="3.46021" fill="#141414"/>
<rect x="1.72415" y="403.115" width="3.7931" height="3.46021" fill="#141414"/>
<path fill-rule="evenodd" clip-rule="evenodd" d="M15.604 33.0216C15.604 22.524 24.0945 14.0139 34.5692 14.0139H190.604C201.078 14.0139 209.57 22.5233 209.57 33.0216V415.94C209.57 426.438 201.079 434.948 190.604 434.948H34.5692C24.095 434.948 15.604 426.439 15.604 415.94V33.0216Z" fill="url(#paint0_linear)"/>
<path fill-rule="evenodd" clip-rule="evenodd" d="M89.6552 20.7619C90.7979 20.7619 91.7242 19.8324 91.7242 18.6857C91.7242 17.5391 90.7979 16.6096 89.6552 16.6096C88.5126 16.6096 87.5863 17.5391 87.5863 18.6857C87.5863 19.8324 88.5126 20.7619 89.6552 20.7619Z" fill="#444444"/>
<path fill-rule="evenodd" clip-rule="evenodd" d="M137.586 22.1458C139.491 22.1458 141.034 20.5966 141.034 18.6855C141.034 16.7745 139.491 15.2253 137.586 15.2253C135.682 15.2253 134.138 16.7745 134.138 18.6855C134.138 20.5966 135.682 22.1458 137.586 22.1458Z" fill="#444444"/>
<path fill-rule="evenodd" clip-rule="evenodd" d="M101.034 17.3015H124.138C124.9 17.3015 125.517 17.9212 125.517 18.6856C125.517 19.45 124.9 20.0697 124.138 20.0697H101.034C100.273 20.0697 99.6551 19.45 99.6551 18.6856C99.6551 17.9212 100.273 17.3015 101.034 17.3015Z" fill="#444444"/>
<path fill-rule="evenodd" clip-rule="evenodd" d="M0 93.7704C0 93.3892 0.36989 93.0801 0.829606 93.0801H2.06897V125.952H0.829606C0.371427 125.952 0 125.642 0 125.262V93.7704Z" fill="#444444"/>
<path fill-rule="evenodd" clip-rule="evenodd" d="M0 134.774C0 134.393 0.36989 134.083 0.829606 134.083H2.06897V166.955H0.829606C0.371427 166.955 0 166.646 0 166.265V134.774Z" fill="#444444"/>
<path fill-rule="evenodd" clip-rule="evenodd" d="M0 61.5917C0 61.2098 0.36989 60.9001 0.829606 60.9001H2.06897V78.8932H0.829606C0.371427 78.8932 0 78.5847 0 78.2016V61.5917Z" fill="#444444"/>
<path fill-rule="evenodd" clip-rule="evenodd" d="M222.931 103.461H223.966C224.537 103.461 225 103.847 225 104.325V156.23C225 156.707 224.536 157.094 223.966 157.094H222.931V103.461Z" fill="#444444"/>
<path fill-rule="evenodd" clip-rule="evenodd" d="M57.5863 14.0142V17.1245C57.5863 23.9972 63.1522 29.5659 70.018 29.5659H154.982C161.847 29.5659 167.414 23.9957 167.414 17.1245V16.2612V16.0891V14.0142H57.5863Z" fill="#212121"/>
<path d="M75.875 227.312H67.6562L66.0938 232H61.1094L69.5781 209.25H73.9219L82.4375 232H77.4531L75.875 227.312ZM68.9219 223.516H74.6094L71.75 215L68.9219 223.516ZM119.312 228.234H130.781V232H113.453V229.25L124.703 213.047H113.469V209.25H130.531V211.938L119.312 228.234ZM138.734 232H134.047V209.25H138.734V232ZM161.594 232H156.906L147.781 217.031V232H143.094V209.25H147.781L156.922 224.25V209.25H161.594V232Z" fill="#ABE1F9"/>
<path d="M84.5625 232V209.25H92.5312C95.2917 209.25 97.3854 209.781 98.8125 210.844C100.24 211.896 100.953 213.443 100.953 215.484C100.953 216.599 100.667 217.583 100.094 218.438C99.5208 219.281 98.724 219.901 97.7031 220.297C98.8698 220.589 99.7865 221.177 100.453 222.062C101.13 222.948 101.469 224.031 101.469 225.312C101.469 227.5 100.771 229.156 99.375 230.281C97.9792 231.406 95.9896 231.979 93.4062 232H84.5625ZM89.25 222.094V228.234H93.2656C94.3698 228.234 95.2292 227.974 95.8438 227.453C96.4688 226.922 96.7812 226.193 96.7812 225.266C96.7812 223.182 95.7031 222.125 93.5469 222.094H89.25ZM89.25 218.781H92.7188C95.0833 218.74 96.2656 217.797 96.2656 215.953C96.2656 214.922 95.9635 214.182 95.3594 213.734C94.7656 213.276 93.8229 213.047 92.5312 213.047H89.25V218.781ZM109.984 232H105.297V209.25H109.984V232Z" fill="#022F96"/>
<defs>
<linearGradient id="paint0_linear" x1="122.285" y1="-52.2443" x2="173.63" y2="690.639" gradientUnits="userSpaceOnUse">
<stop stop-color="#00DFFF"/>
<stop offset="1" stop-color="#022F96"/>
</linearGradient>
</defs>
</svg>
