<svg width="21" height="20" viewBox="0 0 21 20" fill="none" xmlns="http://www.w3.org/2000/svg">
<path opacity="0.4" fill-rule="evenodd" clip-rule="evenodd" d="M14.584 0.75H5.915C2.894 0.75 1 2.889 1 5.916V14.084C1 17.111 2.885 19.25 5.915 19.25H14.583C17.614 19.25 19.5 17.111 19.5 14.084V5.916C19.5 2.889 17.614 0.75 14.584 0.75Z" stroke="#022F96" stroke-width="1.5" stroke-linecap="round" stroke-linejoin="round"/>
<path fill-rule="evenodd" clip-rule="evenodd" d="M8.94226 9.99995C8.94226 11.0219 8.11326 11.8519 7.09026 11.8519C6.06826 11.8519 5.23926 11.0219 5.23926 9.99995C5.23926 8.97795 6.06826 8.14795 7.09026 8.14795C8.11326 8.14795 8.94226 8.97795 8.94226 9.99995Z" stroke="#022F96" stroke-width="1.5" stroke-linecap="round" stroke-linejoin="round"/>
<path d="M8.94238 10H15.2604V11.852" stroke="#022F96" stroke-width="1.5" stroke-linecap="round" stroke-linejoin="round"/>
<path d="M12.4316 11.8515V9.99951" stroke="#022F96" stroke-width="1.5" stroke-linecap="round" stroke-linejoin="round"/>
</svg>
