<svg width="16" height="20" viewBox="0 0 16 20" fill="none" xmlns="http://www.w3.org/2000/svg">
<path fill-rule="evenodd" clip-rule="evenodd" d="M9.803 6C9.925 5.442 10.041 4.747 10.068 4.037C10.098 3.222 10.018 2.247 9.558 1.442C9.048 0.546 8.146 0 6.9 0C6.518 0 6.16 0.126 5.87 0.38C5.607 0.61 5.457 0.896 5.364 1.126C5.216 1.493 5.124 1.969 5.047 2.371L5.011 2.556C4.817 3.543 4.563 4.523 3.793 5.293C3.705 5.381 3.598 5.483 3.476 5.598C2.353 6.662 0 8.893 0 12.5C0 14.537 0.87 16.4 2.149 17.75C3.422 19.094 5.171 20 7 20H12C12.648 20 13.354 19.84 13.93 19.457C14.535 19.053 15 18.387 15 17.5C15 17.031 14.87 16.625 14.66 16.285C15.149 15.875 15.5 15.272 15.5 14.5C15.5 14.031 15.37 13.624 15.16 13.286C15.649 12.876 16 12.272 16 11.5C16 10.891 15.782 10.387 15.449 10C15.781 9.613 16 9.109 16 8.5C16 7.612 15.535 6.947 14.93 6.543C14.354 6.159 13.648 6 13 6H9.803Z" fill="#022F96"/>
</svg>
