<svg width="32" height="32" viewBox="0 0 18 18" fill="none" xmlns="http://www.w3.org/2000/svg">
<path d="M9 18C13.9706 18 18 13.9706 18 9C18 4.02944 13.9706 0 9 0C4.02944 0 0 4.02944 0 9C0 13.9706 4.02944 18 9 18Z" fill="white"/>
<mask id="mask0" style="mask-type:alpha" maskUnits="userSpaceOnUse" x="0" y="1" width="18" height="17">
<path d="M8.99999 17.2125C13.4424 17.2125 17.0437 13.6112 17.0437 9.16875C17.0437 4.72631 13.4424 1.125 8.99999 1.125C4.55755 1.125 0.956238 4.72631 0.956238 9.16875C0.956238 13.6112 4.55755 17.2125 8.99999 17.2125Z" fill="#E98500"/>
</mask>
<g mask="url(#mask0)">
<path d="M14.9625 7.5937L8.83125 12.8812L5.56875 9.6187L-0.28125 15.1312V17.3812H17.1562L17.7188 3.375L15.3562 8.0437L14.9625 7.5937Z" fill="#E98500"/>
<path d="M-0.28125 0.956299V13.5L5.56875 7.98755L8.8875 11.3063L14.2313 6.75005L13.8375 6.30005L16.4813 5.6813L16.1438 0.956299H-0.28125Z" fill="#5F9AF9"/>
<path d="M14.2313 6.75002L8.8875 11.3063L5.56875 7.98752L-0.28125 13.5V15.1313L5.56875 9.61877L8.83125 12.8813L14.9625 7.59377L15.3563 8.04377L16.4813 5.68127L13.8375 6.30002L14.2313 6.75002Z" fill="white"/>
</g>
</svg>
