<svg width="19" height="20" viewBox="0 0 19 20" fill="none" xmlns="http://www.w3.org/2000/svg">
<path fill-rule="evenodd" clip-rule="evenodd" d="M3.33333 0C2.44928 0 1.60143 0.35119 0.976311 0.976311C0.35119 1.60143 0 2.44928 0 3.33333V16.6667C0 17.5507 0.35119 18.3986 0.976311 19.0237C1.60143 19.6488 2.44928 20 3.33333 20H15.5556C15.8502 20 16.1329 19.8829 16.3412 19.6746C16.5496 19.4662 16.6667 19.1836 16.6667 18.8889C16.6667 18.5942 16.5496 18.3116 16.3412 18.1032C16.1329 17.8948 15.8502 17.7778 15.5556 17.7778H3.33333C3.03865 17.7778 2.75603 17.6607 2.54766 17.4523C2.33929 17.244 2.22222 16.9614 2.22222 16.6667V3.33333C2.22222 3.03865 2.33929 2.75603 2.54766 2.54766C2.75603 2.33929 3.03865 2.22222 3.33333 2.22222H15.5556C15.8502 2.22222 16.1329 2.10516 16.3412 1.89679C16.5496 1.68841 16.6667 1.4058 16.6667 1.11111C16.6667 0.816426 16.5496 0.533811 16.3412 0.325437C16.1329 0.117063 15.8502 0 15.5556 0H3.33333ZM14.1189 4.77C14.0164 4.66388 13.8938 4.57923 13.7582 4.521C13.6227 4.46277 13.4769 4.43212 13.3293 4.43083C13.1818 4.42955 13.0355 4.45766 12.8989 4.51353C12.7624 4.5694 12.6383 4.6519 12.534 4.75623C12.4297 4.86055 12.3472 4.98461 12.2913 5.12116C12.2354 5.25771 12.2073 5.40402 12.2086 5.55156C12.2099 5.69909 12.2405 5.84489 12.2988 5.98045C12.357 6.11601 12.4417 6.23861 12.5478 6.34111L15.0956 8.88889H5.55556C5.26087 8.88889 4.97826 9.00595 4.76988 9.21433C4.56151 9.4227 4.44444 9.70532 4.44444 10C4.44444 10.2947 4.56151 10.5773 4.76988 10.7857C4.97826 10.994 5.26087 11.1111 5.55556 11.1111H15.0956L12.5478 13.6589C12.3454 13.8684 12.2334 14.1491 12.2359 14.4404C12.2385 14.7318 12.3553 15.0105 12.5613 15.2165C12.7673 15.4225 13.046 15.5393 13.3373 15.5419C13.6287 15.5444 13.9093 15.4324 14.1189 15.23L18.5633 10.7856C18.7716 10.5772 18.8887 10.2946 18.8887 10C18.8887 9.70537 18.7716 9.42281 18.5633 9.21445L14.1189 4.77Z" fill="#6E7B94"/>
</svg>
