<svg width="18" height="18" viewBox="0 0 18 18" fill="none" xmlns="http://www.w3.org/2000/svg">
<path d="M17.7169 9.31379C17.7177 8.70808 17.6661 8.10342 17.5628 7.50647H9.12207V10.9298H13.9565C13.8576 11.4765 13.6482 11.9977 13.341 12.4619C13.0338 12.9261 12.6351 13.3238 12.1689 13.6309V15.853H15.0542C16.7436 14.3061 17.7169 12.0186 17.7169 9.31379Z" fill="#4285F4"/>
<path d="M9.12192 17.9999C11.5373 17.9999 13.571 17.2123 15.054 15.8543L12.1688 13.6322C11.3657 14.1729 10.3315 14.4816 9.12192 14.4816C6.78736 14.4816 4.80585 12.9187 4.09727 10.8126H1.125V13.1026C1.86995 14.5748 3.01226 15.8123 4.42439 16.6771C5.83651 17.5418 7.46288 17.9998 9.12192 17.9999Z" fill="#34A853"/>
<path d="M4.09721 10.8124C3.72261 9.70877 3.72261 8.51366 4.09721 7.41007V5.12006H1.12493C0.49825 6.35846 0.171875 7.72523 0.171875 9.11121C0.171875 10.4972 0.49825 11.864 1.12493 13.1024L4.09721 10.8124Z" fill="#FBBC04"/>
<path d="M9.12192 3.74109C10.3983 3.72038 11.6317 4.19931 12.5554 5.07436L15.11 2.53745C13.4901 1.02651 11.3441 0.196976 9.12192 0.222751C7.46288 0.222826 5.83651 0.68082 4.42439 1.5456C3.01226 2.41038 1.86995 3.64791 1.125 5.12004L4.09727 7.41005C4.80585 5.30398 6.78736 3.74109 9.12192 3.74109Z" fill="#EA4335"/>
</svg>
