<svg width="181" height="181" viewBox="0 0 181 181" fill="none" xmlns="http://www.w3.org/2000/svg">
<path d="M145.181 107.173C145.174 120.62 141.495 133.806 134.547 145.285C127.6 156.764 117.652 166.094 105.793 172.252C105.099 172.619 104.393 172.969 103.683 173.307C103.363 173.465 103.05 173.612 102.725 173.759C100.699 174.696 98.6199 175.537 96.4889 176.282C94.8095 176.874 93.0853 177.41 91.3443 177.873C74.9007 182.288 57.4426 180.756 42.0026 173.544C41.37 173.245 40.7374 172.941 40.116 172.625C28.556 166.795 18.7496 157.96 11.7101 147.032C4.67052 136.104 0.653211 123.479 0.0731471 110.462C-0.506917 97.4449 2.37133 84.5078 8.41051 72.9873C14.4497 61.4668 23.4307 51.7808 34.4257 44.9302C45.4207 38.0795 58.0308 34.3126 70.9531 34.0186C83.8755 33.7247 96.6412 36.9144 107.932 43.2582C119.222 49.6019 128.627 58.8697 135.176 70.1038C141.724 81.338 145.178 94.1311 145.181 107.161V107.173Z" fill="url(#paint0_linear)"/>
<path d="M39.8984 79.9219H107.711V133.203H39.8984V79.9219Z" fill="#AAE1F9"/>
<path d="M32.6328 133.203H114.977V138.047C114.977 140.616 113.956 143.08 112.139 144.897C110.322 146.714 107.858 147.734 105.289 147.734H42.3203C39.751 147.734 37.287 146.714 35.4702 144.897C33.6534 143.08 32.6328 140.616 32.6328 138.047V133.203Z" fill="#F9E109"/>
<path d="M49.5859 99.2969V79.9219H39.8984V133.203H107.711V123.516H73.8047C67.3815 123.516 61.2213 120.964 56.6794 116.422C52.1375 111.88 49.5859 105.72 49.5859 99.2969Z" fill="#57B7EB"/>
<path d="M47.1641 140.469C45.2371 140.469 43.3891 139.703 42.0265 138.341C40.6639 136.978 39.8984 135.13 39.8984 133.203H32.6328V138.047C32.6328 140.616 33.6534 143.08 35.4702 144.897C37.287 146.714 39.751 147.734 42.3203 147.734H105.289C107.431 147.727 109.511 147.011 111.202 145.696C112.894 144.381 114.102 142.543 114.637 140.469H47.1641Z" fill="#FCBC04"/>
<path d="M168.258 82.3438H139.195C136.52 82.3438 134.352 84.5124 134.352 87.1875V116.25C134.352 118.925 136.52 121.094 139.195 121.094H168.258C170.933 121.094 173.102 118.925 173.102 116.25V87.1875C173.102 84.5124 170.933 82.3438 168.258 82.3438Z" fill="#C4F236"/>
<path d="M153.727 108.984C157.739 108.984 160.992 105.731 160.992 101.719C160.992 97.7061 157.739 94.4531 153.727 94.4531C149.714 94.4531 146.461 97.7061 146.461 101.719C146.461 105.731 149.714 108.984 153.727 108.984Z" fill="#57B7EB"/>
<path d="M141.617 94.4531V82.3438H139.195C137.911 82.3438 136.679 82.8541 135.77 83.7624C134.862 84.6708 134.352 85.9029 134.352 87.1875V116.25C134.352 117.535 134.862 118.767 135.77 119.675C136.679 120.583 137.911 121.094 139.195 121.094H168.258C169.542 121.094 170.774 120.583 171.683 119.675C172.591 118.767 173.102 117.535 173.102 116.25V113.828H160.992C155.854 113.828 150.926 111.787 147.292 108.153C143.658 104.52 141.617 99.5917 141.617 94.4531Z" fill="#A1D51C"/>
<path d="M156.148 101.719C157.486 101.719 158.57 100.634 158.57 99.2969C158.57 97.9593 157.486 96.875 156.148 96.875C154.811 96.875 153.727 97.9593 153.727 99.2969C153.727 100.634 154.811 101.719 156.148 101.719Z" fill="#AAE1F9"/>
<path d="M32.6328 29.0625H61.6953V67.8125H32.6328V29.0625Z" fill="#C4F236"/>
<path d="M90.7578 43.5938C101.458 43.5938 110.133 34.9193 110.133 24.2188C110.133 13.5182 101.458 4.84375 90.7578 4.84375C80.0573 4.84375 71.3828 13.5182 71.3828 24.2188C71.3828 34.9193 80.0573 43.5938 90.7578 43.5938Z" fill="#F89C8D"/>
<path d="M85.9141 31.4844V16.9531L100.445 24.2188L85.9141 31.4844Z" fill="#AAE1F9"/>
<path d="M98.0234 36.3281C92.8849 36.3281 87.9568 34.2868 84.3232 30.6533C80.6897 27.0198 78.6484 22.0917 78.6484 16.9531C78.6422 13.5965 79.5193 10.2972 81.1914 7.38672C78.6396 8.88579 76.4652 10.9495 74.8349 13.4196C73.2046 15.8896 72.1619 18.7003 71.7867 21.6359C71.4114 24.5716 71.7137 27.5542 72.6703 30.3548C73.6269 33.1555 75.2124 35.6998 77.3051 37.7925C79.3978 39.8852 81.9421 41.4707 84.7428 42.4273C87.5435 43.3839 90.5261 43.6862 93.4617 43.311C96.3974 42.9358 99.2081 41.893 101.678 40.2628C104.148 38.6325 106.212 36.458 107.711 33.9062C104.753 35.5568 101.41 36.3926 98.0234 36.3281Z" fill="#F8664F"/>
<path d="M168.258 7.26562H139.195C136.52 7.26562 134.352 9.43425 134.352 12.1094V41.1719C134.352 43.847 136.52 46.0156 139.195 46.0156H168.258C170.933 46.0156 173.102 43.847 173.102 41.1719V12.1094C173.102 9.43425 170.933 7.26562 168.258 7.26562Z" fill="#AAE1F9"/>
<path d="M141.617 19.375V7.26562H139.195C137.911 7.26563 136.679 7.77595 135.77 8.68433C134.862 9.59271 134.352 10.8247 134.352 12.1094V41.1719C134.352 42.4565 134.862 43.6885 135.77 44.5969C136.679 45.5053 137.911 46.0156 139.195 46.0156H168.258C169.542 46.0156 170.774 45.5053 171.683 44.5969C172.591 43.6885 173.102 42.4565 173.102 41.1719V38.75H160.992C155.854 38.75 150.926 36.7087 147.292 33.0752C143.658 29.4417 141.617 24.5136 141.617 19.375Z" fill="#57B7EB"/>
<path d="M39.8984 46.0156V29.0625H32.6328V67.8125H61.6953V60.5469H54.4297C50.5758 60.5469 46.8797 59.0159 44.1545 56.2908C41.4294 53.5656 39.8984 49.8696 39.8984 46.0156Z" fill="#A1D51C"/>
<path d="M71.5333 104.541L79.9227 99.6973L89.6102 116.476C90.2525 117.589 90.4266 118.911 90.0941 120.151C89.7616 121.392 88.9499 122.45 87.8374 123.093C86.7249 123.735 85.4028 123.909 84.1619 123.577C82.9211 123.244 81.8631 122.432 81.2208 121.32L71.5333 104.541Z" fill="#F8664F"/>
<path d="M86.0594 110.316L79.932 99.6843L71.5281 104.528L77.268 114.458L81.4578 112.036L86.0594 110.316Z" fill="#CC5144"/>
<path d="M122.848 91.6922L81.4578 107.192L69.3484 86.2187L103.473 58.125L122.848 91.6922Z" fill="#C4F236"/>
<path d="M58.8719 92.2769L69.3586 86.2222L81.468 107.196L70.9813 113.25C69.3125 114.214 67.3294 114.475 65.4681 113.976C63.6068 113.477 62.0199 112.26 61.0564 110.591L56.2127 102.202C55.2492 100.533 54.9881 98.5498 55.4868 96.6885C55.9855 94.8273 57.2031 93.2403 58.8719 92.2769Z" fill="#F89C8D"/>
<path d="M52.0005 104.619L56.1952 102.197L61.039 110.586L56.8443 113.008C55.7318 113.65 54.4097 113.824 53.1689 113.492C51.928 113.159 50.8701 112.348 50.2277 111.235C49.5854 110.123 49.4113 108.801 49.7438 107.56C50.0763 106.319 50.888 105.261 52.0005 104.619Z" fill="#CC5144"/>
<path d="M84.2672 99.7813C84.0164 99.8749 83.7735 99.9883 83.5406 100.12L78.9148 102.784L81.4578 107.192L122.848 91.6922L119.82 86.4609L84.2672 99.7813Z" fill="#A1D51C"/>
<path d="M77.5828 103.559C75.6555 104.662 73.4622 105.214 71.2425 105.154C69.0229 105.094 66.8624 104.425 64.9974 103.22C63.1323 102.015 61.6346 100.32 60.6678 98.3214C59.701 96.3225 59.3024 94.0962 59.5156 91.886L58.8617 92.2735C58.0344 92.7502 57.3092 93.3852 56.7275 94.1424C56.1457 94.8996 55.719 95.764 55.4716 96.6862C55.2241 97.6084 55.1609 98.5703 55.2855 99.5169C55.4101 100.464 55.72 101.376 56.1977 102.203L61.0414 110.583C61.5181 111.41 62.1532 112.135 62.9103 112.717C63.6675 113.299 64.5319 113.726 65.4541 113.973C66.3763 114.22 67.3382 114.284 68.2848 114.159C69.2315 114.034 70.1443 113.725 70.9711 113.247L81.4578 107.192L78.9148 102.784L77.5828 103.559Z" fill="#F8664F"/>
<path d="M47.1641 147.734V142.891C47.1641 142.248 47.4192 141.632 47.8734 141.178C48.3276 140.724 48.9436 140.469 49.5859 140.469C50.2283 140.469 50.8443 140.724 51.2985 141.178C51.7526 141.632 52.0078 142.248 52.0078 142.891V147.734H47.1641Z" fill="#57B7EB"/>
<path d="M95.6016 147.734V142.891C95.6016 142.248 95.8567 141.632 96.3109 141.178C96.7651 140.724 97.3811 140.469 98.0234 140.469C98.6658 140.469 99.2818 140.724 99.736 141.178C100.19 141.632 100.445 142.248 100.445 142.891V147.734H95.6016Z" fill="#57B7EB"/>
<path d="M160.992 14.5312H156.148C154.221 14.5312 152.373 15.2967 151.011 16.6593C149.648 18.0219 148.883 19.8699 148.883 21.7969V24.2188H146.461C145.819 24.2188 145.203 24.4739 144.748 24.9281C144.294 25.3823 144.039 25.9983 144.039 26.6406C144.039 27.2829 144.294 27.899 144.748 28.3531C145.203 28.8073 145.819 29.0625 146.461 29.0625H148.883V36.3281C148.883 36.9704 149.138 37.5865 149.592 38.0406C150.046 38.4948 150.662 38.75 151.305 38.75C151.947 38.75 152.563 38.4948 153.017 38.0406C153.471 37.5865 153.727 36.9704 153.727 36.3281V29.0625H156.148C156.791 29.0625 157.407 28.8073 157.861 28.3531C158.315 27.899 158.57 27.2829 158.57 26.6406C158.57 25.9983 158.315 25.3823 157.861 24.9281C157.407 24.4739 156.791 24.2188 156.148 24.2188H153.727V21.7969C153.727 21.1546 153.982 20.5385 154.436 20.0844C154.89 19.6302 155.506 19.375 156.148 19.375H160.992C161.635 19.375 162.251 19.1198 162.705 18.6656C163.159 18.2115 163.414 17.5954 163.414 16.9531C163.414 16.3108 163.159 15.6948 162.705 15.2406C162.251 14.7864 161.635 14.5312 160.992 14.5312Z" fill="#FCBC04"/>
<path d="M114.977 55.7031C114.453 55.7031 113.943 55.5332 113.523 55.2188C113.01 54.8334 112.67 54.2596 112.579 53.6238C112.488 52.9879 112.654 52.342 113.039 51.8281L120.305 42.1406C120.69 41.6268 121.264 41.2871 121.9 41.1962C122.536 41.1054 123.181 41.2709 123.695 41.6563C124.209 42.0417 124.549 42.6154 124.64 43.2513C124.731 43.8871 124.565 44.533 124.18 45.0469L116.914 54.7344C116.688 55.0352 116.396 55.2793 116.06 55.4475C115.723 55.6156 115.353 55.7031 114.977 55.7031Z" fill="#F9E109"/>
<path d="M122.242 65.3906C121.866 65.3906 121.495 65.3031 121.159 65.1349C120.823 64.9668 120.53 64.7227 120.305 64.4219C119.919 63.908 119.754 63.2621 119.845 62.6262C119.935 61.9904 120.275 61.4166 120.789 61.0313L130.477 53.7656C130.731 53.5748 131.021 53.436 131.329 53.357C131.637 53.2781 131.957 53.2606 132.272 53.3056C132.587 53.3506 132.89 53.4571 133.164 53.6192C133.437 53.7812 133.676 53.9956 133.867 54.25C134.058 54.5044 134.197 54.794 134.276 55.1021C134.355 55.4102 134.372 55.7308 134.327 56.0456C134.282 56.3605 134.176 56.6634 134.014 56.9371C133.852 57.2107 133.637 57.4498 133.383 57.6406L123.695 64.9062C123.276 65.2207 122.766 65.3906 122.242 65.3906Z" fill="#F9E109"/>
<path d="M129.508 75.0782C128.865 75.1425 128.224 74.9489 127.724 74.5401C127.225 74.1314 126.908 73.5409 126.844 72.8986C126.78 72.2562 126.973 71.6147 127.382 71.1151C127.791 70.6155 128.381 70.2987 129.023 70.2345L141.133 67.8126C141.775 67.6842 142.442 67.8161 142.987 68.1795C143.532 68.5428 143.911 69.1078 144.039 69.7501C144.168 70.3924 144.036 71.0595 143.672 71.6045C143.309 72.1495 142.744 72.5279 142.102 72.6564L129.992 75.0782H129.508Z" fill="#F9E109"/>
<path d="M52.0078 41.1719H47.1641C46.5217 41.1719 45.9057 40.9167 45.4515 40.4625C44.9973 40.0083 44.7422 39.3923 44.7422 38.75C44.7422 38.1077 44.9973 37.4917 45.4515 37.0375C45.9057 36.5833 46.5217 36.3281 47.1641 36.3281H52.0078C52.6501 36.3281 53.2661 36.5833 53.7203 37.0375C54.1745 37.4917 54.4297 38.1077 54.4297 38.75C54.4297 39.3923 54.1745 40.0083 53.7203 40.4625C53.2661 40.9167 52.6501 41.1719 52.0078 41.1719Z" fill="#FCBC04"/>
<path d="M52.0078 50.8594H42.3203C41.678 50.8594 41.062 50.6042 40.6078 50.15C40.1536 49.6958 39.8984 49.0798 39.8984 48.4375C39.8984 47.7952 40.1536 47.1792 40.6078 46.725C41.062 46.2708 41.678 46.0156 42.3203 46.0156H52.0078C52.6501 46.0156 53.2661 46.2708 53.7203 46.725C54.1745 47.1792 54.4297 47.7952 54.4297 48.4375C54.4297 49.0798 54.1745 49.6958 53.7203 50.15C53.2661 50.6042 52.6501 50.8594 52.0078 50.8594Z" fill="#FCBC04"/>
<path d="M52.0078 60.5469H42.3203C41.678 60.5469 41.062 60.2917 40.6078 59.8375C40.1536 59.3833 39.8984 58.7673 39.8984 58.125C39.8984 57.4827 40.1536 56.8667 40.6078 56.4125C41.062 55.9583 41.678 55.7031 42.3203 55.7031H52.0078C52.6501 55.7031 53.2661 55.9583 53.7203 56.4125C54.1745 56.8667 54.4297 57.4827 54.4297 58.125C54.4297 58.7673 54.1745 59.3833 53.7203 59.8375C53.2661 60.2917 52.6501 60.5469 52.0078 60.5469Z" fill="#FCBC04"/>
<path d="M151.305 38.7501C151.783 38.7477 152.25 38.6038 152.646 38.3366C153.043 38.0694 153.351 37.6908 153.533 37.2485C151.86 36.5524 150.295 35.6228 148.883 34.4875V36.3282C148.883 36.9705 149.138 37.5865 149.592 38.0407C150.046 38.4949 150.662 38.7501 151.305 38.7501Z" fill="#E59730"/>
<path d="M42.3203 60.5469H52.0078C52.214 60.5325 52.4174 60.4918 52.6133 60.4258C49.1479 59.9828 45.9581 58.3063 43.6281 55.7031H42.3203C41.678 55.7031 41.062 55.9583 40.6078 56.4125C40.1536 56.8667 39.8984 57.4827 39.8984 58.125C39.8984 58.7673 40.1536 59.3833 40.6078 59.8375C41.062 60.2917 41.678 60.5469 42.3203 60.5469Z" fill="#E59730"/>
<defs>
<linearGradient id="paint0_linear" x1="72.8885" y1="41.9466" x2="70.3653" y2="186.179" gradientUnits="userSpaceOnUse">
<stop stop-color="white" stop-opacity="0"/>
<stop offset="1" stop-color="#64B5F6" stop-opacity="0.6"/>
</linearGradient>
</defs>
</svg>
