<svg width="27" height="27" viewBox="0 0 27 27" fill="none" xmlns="http://www.w3.org/2000/svg">
<path fill-rule="evenodd" clip-rule="evenodd" d="M19.3568 1H7.64189C3.55946 1 1 3.89054 1 7.98108V19.0189C1 23.1095 3.54595 26 7.64189 26H19.3554C23.4514 26 26 23.1095 26 19.0189V7.98108C26 3.89054 23.4514 1 19.3568 1Z" stroke="#6E7B94" stroke-width="1.5" stroke-linecap="round" stroke-linejoin="round"/>
<path opacity="0.4" d="M7.44607 15.1178C6.55282 15.1178 5.82715 14.3922 5.82715 13.5003C5.82715 12.6084 6.55282 11.8813 7.44607 11.8813C8.33931 11.8813 9.06499 12.6084 9.06499 13.5003C9.06499 14.3922 8.33931 15.1178 7.44607 15.1178Z" fill="#6E7B94"/>
<path opacity="0.4" d="M13.4993 15.1178C12.606 15.1178 11.8804 14.3922 11.8804 13.5003C11.8804 12.6084 12.606 11.8813 13.4993 11.8813C14.3925 11.8813 15.1182 12.6084 15.1182 13.5003C15.1182 14.3922 14.3925 15.1178 13.4993 15.1178Z" fill="#6E7B94"/>
<path opacity="0.4" d="M19.552 15.1178C18.6588 15.1178 17.9331 14.3922 17.9331 13.5003C17.9331 12.6084 18.6588 11.8813 19.552 11.8813C20.4453 11.8813 21.1709 12.6084 21.1709 13.5003C21.1709 14.3922 20.4453 15.1178 19.552 15.1178Z" fill="#6E7B94"/>
</svg>
