<svg width="25" height="5" viewBox="0 0 25 5" fill="none" xmlns="http://www.w3.org/2000/svg">
<path d="M5.47743 2.49896C5.47743 1.12202 4.35642 0 2.97654 0C1.59875 0 0.475647 1.12202 0.475647 2.49896C0.475647 3.87798 1.59875 5 2.97654 5C4.35642 5 5.47743 3.87798 5.47743 2.49896Z" fill="#6E7B94"/>
<path d="M15.0638 2.49896C15.0638 1.12202 13.9407 0 12.563 0C11.1832 0 10.0622 1.12202 10.0622 2.49896C10.0622 3.87798 11.1832 5 12.563 5C13.9407 5 15.0638 3.87798 15.0638 2.49896Z" fill="#6E7B94"/>
<path d="M24.6505 2.49896C24.6505 1.12202 23.5295 0 22.1496 0C20.7718 0 19.6487 1.12202 19.6487 2.49896C19.6487 3.87798 20.7718 5 22.1496 5C23.5295 5 24.6505 3.87798 24.6505 2.49896Z" fill="#6E7B94"/>
</svg>
