<svg width="20" height="20" viewBox="0 0 20 20" fill="none" xmlns="http://www.w3.org/2000/svg">
<path d="M19.375 16.8751H10.625C10.28 16.8751 10 16.5964 10 16.2501C10 15.9039 10 4.09512 10 3.75012C10 3.40512 10.28 3.12512 10.625 3.12512H19.375C19.72 3.12512 20 3.40512 20 3.75012V16.2501C20 16.5964 19.72 16.8751 19.375 16.8751Z" fill="#ECEFF1"/>
<path d="M16.875 6.87512H10.625C10.28 6.87512 10 6.59637 10 6.25012C10 5.90387 10.28 5.62512 10.625 5.62512H16.875C17.22 5.62512 17.5 5.90512 17.5 6.25012C17.5 6.59512 17.22 6.87512 16.875 6.87512Z" fill="#1976D2"/>
<path d="M16.875 9.37512H10.625C10.28 9.37512 10 9.09637 10 8.75012C10 8.40387 10.28 8.12512 10.625 8.12512H16.875C17.22 8.12512 17.5 8.40512 17.5 8.75012C17.5 9.09512 17.22 9.37512 16.875 9.37512Z" fill="#1976D2"/>
<path d="M16.875 11.8751H10.625C10.28 11.8751 10 11.5964 10 11.2501C10 10.9039 10.28 10.6251 10.625 10.6251H16.875C17.22 10.6251 17.5 10.9051 17.5 11.2501C17.5 11.5951 17.22 11.8751 16.875 11.8751Z" fill="#1976D2"/>
<path d="M16.875 14.3751H10.625C10.28 14.3751 10 14.0964 10 13.7501C10 13.4039 10.28 13.1251 10.625 13.1251H16.875C17.22 13.1251 17.5 13.4051 17.5 13.7501C17.5 14.0951 17.22 14.3751 16.875 14.3751Z" fill="#1976D2"/>
<path d="M11.0238 0.770088C10.8813 0.650088 10.69 0.600088 10.51 0.636338L0.51 2.51134C0.215 2.56634 0 2.82509 0 3.12509V16.8751C0 17.1751 0.21375 17.4338 0.51 17.4888L10.51 19.3638C10.5487 19.3713 10.5863 19.3751 10.625 19.3751C10.77 19.3751 10.9113 19.3251 11.0238 19.2313C11.1675 19.1126 11.25 18.9363 11.25 18.7501V1.25009C11.25 1.06384 11.1675 0.888838 11.0238 0.770088Z" fill="#1565C0"/>
<path d="M8.12134 13.1952C8.08884 13.4814 7.86384 13.7102 7.57759 13.7452C7.55134 13.7489 7.52634 13.7502 7.50009 13.7502C7.24259 13.7502 7.00759 13.5902 6.91509 13.3452L5.62509 9.90519L4.33509 13.3452C4.23509 13.6127 3.97259 13.7764 3.68259 13.7464C3.39884 13.7164 3.17134 13.4964 3.13134 13.2127L2.50634 8.83769C2.45759 8.49769 2.69509 8.18019 3.03634 8.13144C3.37884 8.08144 3.69509 8.32019 3.74384 8.66144L4.02259 10.6164L5.03884 7.90519C5.22134 7.41769 6.02634 7.41769 6.21009 7.90519L7.16759 10.4577L7.50384 7.43019C7.54259 7.08769 7.86009 6.84143 8.19384 6.87768C8.53759 6.91768 8.78384 7.22644 8.74634 7.56894L8.12134 13.1952Z" fill="#FAFAFA"/>
</svg>
