<svg width="99" height="70" viewBox="0 0 99 70" fill="none" xmlns="http://www.w3.org/2000/svg">
<g opacity="0.5">
<path d="M57.4324 23.5661C62.4902 22.9991 67.4753 25.1167 70.5724 29.1477C73.6696 33.1787 74.4268 38.535 72.5684 43.2661L72.3404 43.8602C72.1515 44.3287 72.1581 44.8531 72.3586 45.3167C72.8889 46.3667 73.3542 47.4483 73.7518 48.5553C73.8141 49.1319 73.6847 49.4793 73.0644 49.5324C71.9421 49.4087 70.829 49.2135 69.7318 48.9478C69.2634 48.8717 68.7828 48.9529 68.3655 49.1788C67.9874 49.4141 67.2295 49.996 67.202 49.9989C62.2039 53.3576 55.6491 53.288 50.7261 49.8239" stroke="#6E7B94" stroke-width="1.5" stroke-linecap="round" stroke-linejoin="round"/>
<path fill-rule="evenodd" clip-rule="evenodd" d="M42.1023 16.0001C35.7844 15.9746 29.914 19.2527 26.6289 24.6406C23.3438 30.0286 23.1233 36.7402 26.0476 42.3315L26.4082 43.0344C26.7038 43.5875 26.7656 44.2356 26.5799 44.8344C26.0654 46.2011 25.6353 47.598 25.2921 49.0172C25.2921 49.7372 25.4982 50.1487 26.2708 50.1315C27.6394 49.8293 28.9872 49.4399 30.306 48.9658C30.874 48.8094 31.4779 48.8456 32.023 49.0687C32.521 49.3087 33.5341 49.9258 33.5684 49.9258C40.1848 53.4048 48.2654 52.445 53.8796 47.5133C59.4937 42.5817 61.4758 34.702 58.8617 27.7073C56.2476 20.7126 49.58 16.055 42.1023 16.0001V16.0001Z" stroke="#6E7B94" stroke-width="1.5" stroke-linecap="round" stroke-linejoin="round"/>
<ellipse opacity="0.4" cx="33.5169" cy="33.9997" rx="0.858537" ry="0.857141" fill="#6E7B94" stroke="#6E7B94" stroke-width="1.5" stroke-linecap="round" stroke-linejoin="round"/>
<ellipse opacity="0.4" cx="42.1023" cy="33.9997" rx="0.858537" ry="0.857141" fill="#6E7B94" stroke="#6E7B94" stroke-width="1.5" stroke-linecap="round" stroke-linejoin="round"/>
<ellipse opacity="0.4" cx="50.6878" cy="33.9997" rx="0.858537" ry="0.857141" fill="#6E7B94" stroke="#6E7B94" stroke-width="1.5" stroke-linecap="round" stroke-linejoin="round"/>
</g>
<rect opacity="0.2" x="1" y="1" width="97.1429" height="68" rx="10" stroke="#6E7B94" stroke-linejoin="round" stroke-dasharray="8 8"/>
</svg>
