<svg width="169" height="85" viewBox="0 0 169 85" fill="none" xmlns="http://www.w3.org/2000/svg">
<rect y="0.935547" width="168.92" height="83.9032" rx="10" fill="white"/>
<rect x="0.5" y="1.43555" width="167.92" height="82.9032" rx="9.5" stroke="#6E7B94" stroke-opacity="0.1"/>
<path d="M19.7233 74.1299H18.1764L17.7077 76.5322H16.8698L17.3386 74.1299H15.9382V73.3271H17.4909L17.8952 71.2529H16.3835V70.4385H18.0534L18.5339 68.001H19.3718L18.8913 70.4385H20.4382L20.9186 68.001H21.7624L21.2819 70.4385H22.4772V71.2529H21.1237L20.7194 73.3271H22.0378V74.1299H20.5671L20.0983 76.5322H19.2546L19.7233 74.1299ZM18.3288 73.3271H19.8757L20.28 71.2529H18.7331L18.3288 73.3271ZM24.7507 73.1924V76.5322H23.6257V68.001H26.7721C27.7057 68.001 28.4362 68.2393 28.9636 68.7158C29.4948 69.1924 29.7604 69.8232 29.7604 70.6084C29.7604 71.4365 29.5007 72.0752 28.9811 72.5244C28.4655 72.9697 27.7253 73.1924 26.7604 73.1924H24.7507ZM24.7507 72.2725H26.7721C27.3737 72.2725 27.8346 72.1318 28.155 71.8506C28.4753 71.5654 28.6354 71.1553 28.6354 70.6201C28.6354 70.1123 28.4753 69.7061 28.155 69.4014C27.8346 69.0967 27.3952 68.9385 26.8366 68.9268H24.7507V72.2725ZM32.11 70.96C32.5905 70.3701 33.2155 70.0752 33.985 70.0752C35.3249 70.0752 36.0007 70.8311 36.0124 72.3428V76.5322H34.9284V72.3369C34.9245 71.8799 34.819 71.542 34.612 71.3232C34.4089 71.1045 34.0905 70.9951 33.6569 70.9951C33.3054 70.9951 32.9968 71.0889 32.7311 71.2764C32.4655 71.4639 32.2585 71.71 32.11 72.0146V76.5322H31.0261V67.5322H32.11V70.96ZM37.3483 73.3037C37.3483 72.6826 37.4694 72.124 37.7116 71.6279C37.9577 71.1318 38.2975 70.749 38.7311 70.4795C39.1686 70.21 39.6667 70.0752 40.2253 70.0752C41.0886 70.0752 41.7858 70.374 42.3171 70.9717C42.8522 71.5693 43.1198 72.3643 43.1198 73.3564V73.4326C43.1198 74.0498 43.0007 74.6045 42.7624 75.0967C42.528 75.585 42.1901 75.9658 41.7487 76.2393C41.3112 76.5127 40.8073 76.6494 40.237 76.6494C39.3776 76.6494 38.6804 76.3506 38.1452 75.7529C37.6139 75.1553 37.3483 74.3643 37.3483 73.3799V73.3037ZM38.4382 73.4326C38.4382 74.1357 38.6003 74.7002 38.9245 75.126C39.2526 75.5518 39.6901 75.7646 40.237 75.7646C40.7878 75.7646 41.2253 75.5498 41.5495 75.1201C41.8737 74.6865 42.0358 74.0811 42.0358 73.3037C42.0358 72.6084 41.8698 72.0459 41.5378 71.6162C41.2096 71.1826 40.7721 70.9658 40.2253 70.9658C39.6901 70.9658 39.2585 71.1787 38.9304 71.6045C38.6022 72.0303 38.4382 72.6396 38.4382 73.4326ZM45.5046 70.1924L45.5397 70.9893C46.0241 70.3799 46.6569 70.0752 47.4382 70.0752C48.778 70.0752 49.4538 70.8311 49.4655 72.3428V76.5322H48.3815V72.3369C48.3776 71.8799 48.2721 71.542 48.0651 71.3232C47.862 71.1045 47.5436 70.9951 47.11 70.9951C46.7585 70.9951 46.4499 71.0889 46.1843 71.2764C45.9186 71.4639 45.7116 71.71 45.5632 72.0146V76.5322H44.4792V70.1924H45.5046ZM50.8425 73.3096C50.8425 72.3213 51.071 71.5361 51.528 70.9541C51.985 70.3682 52.5905 70.0752 53.3444 70.0752C54.1179 70.0752 54.7214 70.3486 55.155 70.8955L55.2077 70.1924H56.1979V76.3799C56.1979 77.2002 55.9538 77.8467 55.4655 78.3193C54.9811 78.792 54.3288 79.0283 53.5085 79.0283C53.0514 79.0283 52.6042 78.9307 52.1667 78.7354C51.7292 78.54 51.3952 78.2725 51.1647 77.9326L51.7272 77.2822C52.1921 77.8564 52.7604 78.1436 53.4323 78.1436C53.9596 78.1436 54.3698 77.9951 54.6628 77.6982C54.9596 77.4014 55.1081 76.9834 55.1081 76.4443V75.8994C54.6745 76.3994 54.0827 76.6494 53.3327 76.6494C52.5905 76.6494 51.9889 76.3506 51.528 75.7529C51.071 75.1553 50.8425 74.3408 50.8425 73.3096ZM51.9323 73.4326C51.9323 74.1475 52.0788 74.71 52.3718 75.1201C52.6647 75.5264 53.0749 75.7295 53.6022 75.7295C54.2858 75.7295 54.7878 75.4189 55.1081 74.7979V71.9033C54.7761 71.2979 54.278 70.9951 53.6139 70.9951C53.0866 70.9951 52.6745 71.2002 52.3776 71.6104C52.0807 72.0205 51.9323 72.6279 51.9323 73.4326ZM59.6081 73.5967L58.9284 74.3057V76.5322H57.8444V67.5322H58.9284V72.9756L59.5085 72.2783L61.4831 70.1924H62.8014L60.3346 72.8408L63.0886 76.5322H61.8171L59.6081 73.5967ZM66.4343 76.6494C65.5749 76.6494 64.8757 76.3682 64.3366 75.8057C63.7975 75.2393 63.528 74.4834 63.528 73.5381V73.3389C63.528 72.71 63.6471 72.1494 63.8854 71.6572C64.1276 71.1611 64.4636 70.7744 64.8932 70.4971C65.3268 70.2158 65.7956 70.0752 66.2995 70.0752C67.1237 70.0752 67.7643 70.3467 68.2214 70.8896C68.6784 71.4326 68.9069 72.21 68.9069 73.2217V73.6729H64.612C64.6276 74.2979 64.8093 74.8037 65.1569 75.1904C65.5085 75.5732 65.9538 75.7646 66.4929 75.7646C66.8757 75.7646 67.1999 75.6865 67.4655 75.5303C67.7311 75.374 67.9636 75.167 68.1628 74.9092L68.8249 75.4248C68.2936 76.2412 67.4968 76.6494 66.4343 76.6494ZM66.2995 70.9658C65.862 70.9658 65.4948 71.126 65.1979 71.4463C64.9011 71.7627 64.7175 72.208 64.6471 72.7822H67.8229V72.7002C67.7917 72.1494 67.6432 71.7236 67.3776 71.4229C67.112 71.1182 66.7526 70.9658 66.2995 70.9658ZM71.6374 68.6572V70.1924H72.821V71.0303H71.6374V74.9619C71.6374 75.2158 71.6901 75.4072 71.7956 75.5361C71.9011 75.6611 72.0807 75.7236 72.3346 75.7236C72.4596 75.7236 72.6315 75.7002 72.8503 75.6533V76.5322C72.5651 76.6104 72.2878 76.6494 72.0182 76.6494C71.5339 76.6494 71.1686 76.5029 70.9225 76.21C70.6764 75.917 70.5534 75.501 70.5534 74.9619V71.0303H69.3991V70.1924H70.5534V68.6572H71.6374ZM73.6882 73.3037C73.6882 72.6826 73.8093 72.124 74.0514 71.6279C74.2975 71.1318 74.6374 70.749 75.071 70.4795C75.5085 70.21 76.0065 70.0752 76.5651 70.0752C77.4284 70.0752 78.1257 70.374 78.6569 70.9717C79.1921 71.5693 79.4596 72.3643 79.4596 73.3564V73.4326C79.4596 74.0498 79.3405 74.6045 79.1022 75.0967C78.8679 75.585 78.53 75.9658 78.0886 76.2393C77.6511 76.5127 77.1471 76.6494 76.5768 76.6494C75.7175 76.6494 75.0202 76.3506 74.485 75.7529C73.9538 75.1553 73.6882 74.3643 73.6882 73.3799V73.3037ZM74.778 73.4326C74.778 74.1357 74.9401 74.7002 75.2643 75.126C75.5925 75.5518 76.03 75.7646 76.5768 75.7646C77.1276 75.7646 77.5651 75.5498 77.8893 75.1201C78.2136 74.6865 78.3757 74.0811 78.3757 73.3037C78.3757 72.6084 78.2096 72.0459 77.8776 71.6162C77.5495 71.1826 77.112 70.9658 76.5651 70.9658C76.03 70.9658 75.5983 71.1787 75.2702 71.6045C74.9421 72.0303 74.778 72.6396 74.778 73.4326ZM84.7331 76.5322C84.6706 76.4072 84.6198 76.1846 84.5807 75.8643C84.0768 76.3877 83.4753 76.6494 82.7761 76.6494C82.1511 76.6494 81.6374 76.4736 81.235 76.1221C80.8366 75.7666 80.6374 75.3174 80.6374 74.7744C80.6374 74.1143 80.8874 73.6025 81.3874 73.2393C81.8913 72.8721 82.5983 72.6885 83.5085 72.6885H84.5632V72.1904C84.5632 71.8115 84.4499 71.5107 84.2233 71.2881C83.9968 71.0615 83.6628 70.9482 83.2214 70.9482C82.8346 70.9482 82.5104 71.0459 82.2487 71.2412C81.987 71.4365 81.8561 71.6729 81.8561 71.9502H80.7663C80.7663 71.6338 80.8776 71.3291 81.1003 71.0361C81.3268 70.7393 81.6315 70.5049 82.0143 70.333C82.4011 70.1611 82.8249 70.0752 83.2858 70.0752C84.0163 70.0752 84.5886 70.2588 85.0026 70.626C85.4167 70.9893 85.6315 71.4912 85.6471 72.1318V75.0498C85.6471 75.6318 85.7214 76.0947 85.8698 76.4385V76.5322H84.7331ZM82.9343 75.7061C83.2741 75.7061 83.5964 75.6182 83.9011 75.4424C84.2057 75.2666 84.4264 75.0381 84.5632 74.7568V73.4561H83.7136C82.3854 73.4561 81.7214 73.8447 81.7214 74.6221C81.7214 74.9619 81.8346 75.2275 82.0612 75.4189C82.2878 75.6104 82.5788 75.7061 82.9343 75.7061ZM88.3718 70.1924L88.4069 70.9893C88.8913 70.3799 89.5241 70.0752 90.3054 70.0752C91.6452 70.0752 92.321 70.8311 92.3327 72.3428V76.5322H91.2487V72.3369C91.2448 71.8799 91.1393 71.542 90.9323 71.3232C90.7292 71.1045 90.4108 70.9951 89.9772 70.9951C89.6257 70.9951 89.3171 71.0889 89.0514 71.2764C88.7858 71.4639 88.5788 71.71 88.4304 72.0146V76.5322H87.3464V70.1924H88.3718Z" fill="white"/>
<path d="M21.1339 56.4365C21.1339 55.999 20.9789 55.6618 20.669 55.4248C20.3637 55.1878 19.81 54.9486 19.0079 54.707C18.2058 54.4655 17.5678 54.1966 17.0938 53.9004C16.1869 53.3307 15.7335 52.5879 15.7335 51.6719C15.7335 50.8698 16.0593 50.209 16.711 49.6895C17.3672 49.1699 18.2172 48.9102 19.2608 48.9102C19.9535 48.9102 20.571 49.0378 21.1133 49.293C21.6557 49.5482 22.0818 49.9128 22.3917 50.3867C22.7016 50.8561 22.8565 51.3779 22.8565 51.9521H21.1339C21.1339 51.4326 20.9698 51.027 20.6417 50.7354C20.3181 50.4391 19.8533 50.291 19.2471 50.291C18.682 50.291 18.2422 50.4118 17.9278 50.6533C17.6179 50.8949 17.463 51.2321 17.463 51.665C17.463 52.0296 17.6316 52.335 17.9688 52.5811C18.3061 52.8226 18.862 53.0596 19.6368 53.292C20.4115 53.5199 21.0336 53.7819 21.503 54.0781C21.9724 54.3698 22.3165 54.707 22.5352 55.0898C22.754 55.4681 22.8633 55.9124 22.8633 56.4229C22.8633 57.2523 22.5443 57.9131 21.9063 58.4053C21.2728 58.8929 20.4115 59.1367 19.3223 59.1367C18.6023 59.1367 17.9392 59.0046 17.3331 58.7402C16.7315 58.4714 16.2621 58.1022 15.9249 57.6328C15.5922 57.1634 15.4258 56.6165 15.4258 55.9922H17.1553C17.1553 56.5573 17.3422 56.9948 17.7159 57.3047C18.0896 57.6146 18.6251 57.7695 19.3223 57.7695C19.9239 57.7695 20.3751 57.6488 20.6758 57.4072C20.9812 57.1611 21.1339 56.8376 21.1339 56.4365ZM32.3926 50.9951C32.3926 51.8063 32.2286 52.401 31.9005 52.7793C31.5769 53.153 31.046 53.3649 30.3077 53.415V59H28.7422L28.7012 58.2754C28.2136 58.8496 27.5209 59.1367 26.6231 59.1367C25.821 59.1367 25.2126 58.902 24.7979 58.4326C24.3878 57.9632 24.1827 57.2842 24.1827 56.3955V51.6035H25.8438V56.375C25.8438 57.3138 26.2335 57.7832 27.0128 57.7832C27.8194 57.7832 28.364 57.4938 28.6465 56.915V51.6035H30.3077V52.5332C30.6358 52.5013 30.8728 52.4102 31.0186 52.2598C31.169 52.1094 31.2556 51.861 31.2784 51.5146L31.2921 50.9951H32.3926ZM26.2813 60.6475C26.2813 60.4059 26.3611 60.2031 26.5206 60.0391C26.6846 59.8796 26.9171 59.7998 27.2178 59.7998C27.5186 59.7998 27.751 59.8796 27.9151 60.0391C28.0792 60.2031 28.1612 60.4059 28.1612 60.6475C28.1612 60.889 28.0792 61.0895 27.9151 61.249C27.751 61.4085 27.5186 61.4883 27.2178 61.4883C26.9171 61.4883 26.6846 61.4085 26.5206 61.249C26.3611 61.0895 26.2813 60.889 26.2813 60.6475ZM38.7637 55.8281L38.0255 56.5869V59H36.3643V48.5H38.0255V54.5566L38.545 53.9072L40.5889 51.6035H42.585L39.837 54.6865L42.879 59H40.9581L38.7637 55.8281ZM45.4424 59H43.7813V51.6035H45.4424V59ZM43.6788 49.6826C43.6788 49.4274 43.7585 49.2155 43.918 49.0469C44.0821 48.8783 44.3145 48.7939 44.6153 48.7939C44.9161 48.7939 45.1485 48.8783 45.3126 49.0469C45.4766 49.2155 45.5587 49.4274 45.5587 49.6826C45.5587 49.9333 45.4766 50.1429 45.3126 50.3115C45.1485 50.4756 44.9161 50.5576 44.6153 50.5576C44.3145 50.5576 44.0821 50.4756 43.918 50.3115C43.7585 50.1429 43.6788 49.9333 43.6788 49.6826ZM50.5147 59.1367C49.462 59.1367 48.6075 58.8063 47.9512 58.1455C47.2995 57.4801 46.9737 56.596 46.9737 55.4932V55.2881C46.9737 54.5498 47.115 53.8913 47.3975 53.3125C47.6846 52.7292 48.0857 52.2757 48.6006 51.9521C49.1156 51.6286 49.6898 51.4668 50.3233 51.4668C51.3305 51.4668 52.1075 51.7881 52.6544 52.4307C53.2058 53.0732 53.4815 53.9824 53.4815 55.1582V55.8281H48.6485C48.6986 56.4388 48.9014 56.9219 49.2569 57.2773C49.6169 57.6328 50.0681 57.8105 50.6104 57.8105C51.3715 57.8105 51.9913 57.5029 52.4698 56.8877L53.3653 57.7422C53.0691 58.1842 52.6726 58.5283 52.1758 58.7744C51.6837 59.016 51.1299 59.1367 50.5147 59.1367ZM50.3165 52.7998C49.8607 52.7998 49.4916 52.9593 49.209 53.2783C48.9311 53.5973 48.7533 54.0417 48.6758 54.6113H51.8409V54.4883C51.8044 53.9323 51.6563 53.513 51.3965 53.2305C51.1368 52.9434 50.7768 52.7998 50.3165 52.7998ZM52.5587 50.3936V50.4688H51.2256L50.2003 49.4023L49.1817 50.4688H47.8624V50.3799L49.7149 48.4932H50.6924L52.5587 50.3936ZM56.3184 51.6035L56.3663 52.458C56.9131 51.7972 57.6309 51.4668 58.5196 51.4668C60.06 51.4668 60.8438 52.3486 60.8712 54.1123V59H59.21V54.208C59.21 53.7386 59.1075 53.3923 58.9024 53.1689C58.7019 52.9411 58.3715 52.8271 57.9112 52.8271C57.2413 52.8271 56.7422 53.1302 56.4141 53.7363V59H54.753V51.6035H56.3184ZM72.5333 55.377C72.5333 56.5208 72.2735 57.4346 71.754 58.1182C71.2344 58.7972 70.5372 59.1367 69.6622 59.1367C68.851 59.1367 68.2016 58.8701 67.7139 58.3369V61.8438H66.0528V51.6035H67.584L67.6524 52.3555C68.14 51.763 68.8031 51.4668 69.6417 51.4668C70.544 51.4668 71.2504 51.804 71.7608 52.4785C72.2758 53.1484 72.5333 54.0804 72.5333 55.2744V55.377ZM70.879 55.2334C70.879 54.4951 70.7309 53.9095 70.4346 53.4766C70.143 53.0436 69.7237 52.8271 69.1768 52.8271C68.4978 52.8271 68.0102 53.1074 67.7139 53.668V56.9492C68.0147 57.5234 68.5069 57.8105 69.1905 57.8105C69.7191 57.8105 70.1316 57.5986 70.4278 57.1748C70.7286 56.7464 70.879 56.0993 70.879 55.2334ZM78.3643 59C78.2914 58.8587 78.2276 58.6286 78.1729 58.3096C77.6443 58.861 76.9971 59.1367 76.2315 59.1367C75.4887 59.1367 74.8825 58.9248 74.4131 58.501C73.9437 58.0771 73.709 57.5531 73.709 56.9287C73.709 56.1403 74.0007 55.5365 74.584 55.1172C75.1719 54.6934 76.0105 54.4814 77.0997 54.4814H78.1182V53.9961C78.1182 53.6133 78.0111 53.3079 77.7969 53.0801C77.5827 52.8477 77.2569 52.7314 76.8194 52.7314C76.4411 52.7314 76.1312 52.8271 75.8897 53.0186C75.6482 53.2054 75.5274 53.4447 75.5274 53.7363H73.8663C73.8663 53.3307 74.0007 52.9525 74.2696 52.6016C74.5385 52.2461 74.9031 51.9681 75.3633 51.7676C75.8282 51.5671 76.3454 51.4668 76.9151 51.4668C77.781 51.4668 78.4714 51.6855 78.9864 52.123C79.5014 52.556 79.7657 53.1667 79.7794 53.9551V57.291C79.7794 57.9564 79.8728 58.4873 80.0596 58.8838V59H78.3643ZM76.5391 57.8037C76.8672 57.8037 77.1749 57.724 77.462 57.5645C77.7536 57.4049 77.9724 57.1908 78.1182 56.9219V55.5273H77.2227C76.6075 55.5273 76.1449 55.6344 75.835 55.8486C75.5251 56.0628 75.3702 56.3659 75.3702 56.7578C75.3702 57.0768 75.475 57.332 75.6846 57.5234C75.8988 57.7103 76.1837 57.8037 76.5391 57.8037ZM85.3917 53.1211C85.1729 53.0846 84.9473 53.0664 84.7149 53.0664C83.9538 53.0664 83.4411 53.3581 83.1768 53.9414V59H81.5157V51.6035H83.1016L83.1426 52.4307C83.5437 51.7881 84.0997 51.4668 84.8106 51.4668C85.0476 51.4668 85.2436 51.4987 85.3985 51.5625L85.3917 53.1211ZM88.8643 49.8057V51.6035H90.17V52.834H88.8643V56.9629C88.8643 57.2454 88.919 57.4505 89.0284 57.5781C89.1423 57.7012 89.3428 57.7627 89.6299 57.7627C89.8214 57.7627 90.015 57.7399 90.211 57.6943V58.9795C89.8327 59.0843 89.4682 59.1367 89.1172 59.1367C87.8412 59.1367 87.2032 58.4326 87.2032 57.0244V52.834H85.9864V51.6035H87.2032V49.8057H88.8643ZM93.5264 49.8057V51.6035H94.8321V52.834H93.5264V56.9629C93.5264 57.2454 93.5811 57.4505 93.6905 57.5781C93.8044 57.7012 94.0049 57.7627 94.2921 57.7627C94.4835 57.7627 94.6771 57.7399 94.8731 57.6943V58.9795C94.4949 59.0843 94.1303 59.1367 93.7794 59.1367C92.5033 59.1367 91.8653 58.4326 91.8653 57.0244V52.834H90.6485V51.6035H91.8653V49.8057H93.5264ZM98.6944 56.6211L100.198 51.6035H101.969L99.0294 60.1211C98.5782 61.3652 97.8126 61.9873 96.7325 61.9873C96.4909 61.9873 96.2243 61.9463 95.9327 61.8643V60.5791L96.2471 60.5996C96.6664 60.5996 96.9809 60.5221 97.1905 60.3672C97.4047 60.2168 97.5733 59.9616 97.6964 59.6016L97.9356 58.9658L95.338 51.6035H97.129L98.6944 56.6211Z" fill="white"/>
<rect opacity="0.2" x="32.92" y="18" width="101" height="36" rx="5" stroke="#6E7B94" stroke-linejoin="round" stroke-dasharray="8 8"/>
<g opacity="0.5">
<path fill-rule="evenodd" clip-rule="evenodd" d="M49.5044 23.4961H43.4806C41.3807 23.4961 40.065 24.9917 40.065 27.1083V32.8195C40.065 34.936 41.3751 36.4316 43.4806 36.4316H49.5037C51.6099 36.4316 52.92 34.936 52.92 32.8195V27.1083C52.92 24.9917 51.6099 23.4961 49.5044 23.4961Z" stroke="#6E7B94" stroke-linecap="round" stroke-linejoin="round"/>
<path opacity="0.4" fill-rule="evenodd" clip-rule="evenodd" d="M45.6041 27.7259C45.6041 28.4401 45.0281 29.0197 44.3184 29.0197C43.6094 29.0197 43.0334 28.4401 43.0334 27.7259C43.0334 27.0117 43.6094 26.4321 44.3184 26.4321C45.0281 26.4321 45.6041 27.0117 45.6041 27.7259Z" stroke="#6E7B94" stroke-linecap="round" stroke-linejoin="round"/>
<path opacity="0.4" d="M52.9194 32.0466C52.2271 31.4404 51.6247 30.7108 50.8307 30.2293C50.0353 29.7478 49.1807 30.045 48.6291 30.7634C48.0963 31.4579 47.7634 32.3921 46.9589 32.8302C45.9678 33.3705 45.3856 32.4994 44.5589 32.1503C43.636 31.7614 42.9354 32.4608 42.3963 33.1329C41.8565 33.8057 41.3098 34.4715 40.7609 35.1373" stroke="#6E7B94" stroke-linecap="round" stroke-linejoin="round"/>
</g>
<rect opacity="0.2" x="58.92" y="23" width="70" height="3" fill="#6E7B94"/>
<rect x="58.92" y="28" width="70" height="2" fill="#E9F0F4"/>
<rect x="39.92" y="39" width="89" height="4" fill="#E9F0F4"/>
<rect x="39.92" y="44" width="89" height="4" fill="#E9F0F4"/>
<path opacity="0.5" d="M49.5518 64.6943L48.6827 65.5977V68H47.7452V60.8906H48.6827V64.4062L51.8419 60.8906H52.9747L50.1768 64.0303L53.1944 68H52.0714L49.5518 64.6943ZM54.7764 63.3564C55.1768 62.8649 55.6977 62.6191 56.3389 62.6191C57.4555 62.6191 58.0186 63.249 58.0284 64.5088V68H57.1251V64.5039C57.1218 64.123 57.0339 63.8415 56.8614 63.6592C56.6921 63.4769 56.4268 63.3857 56.0655 63.3857C55.7725 63.3857 55.5154 63.4639 55.294 63.6201C55.0727 63.7764 54.9001 63.9814 54.7764 64.2354V68H53.8731V60.5H54.7764V63.3564ZM59.1417 65.3096C59.1417 64.792 59.2426 64.3265 59.4444 63.9131C59.6495 63.4997 59.9327 63.1807 60.294 62.9561C60.6586 62.7314 61.0736 62.6191 61.5391 62.6191C62.2585 62.6191 62.8396 62.8682 63.2823 63.3662C63.7283 63.8643 63.9512 64.5267 63.9512 65.3535V65.417C63.9512 65.9313 63.8519 66.3936 63.6534 66.8037C63.4581 67.2106 63.1765 67.528 62.8087 67.7559C62.4441 67.9837 62.0241 68.0977 61.5489 68.0977C60.8327 68.0977 60.2517 67.8486 59.8057 67.3506C59.363 66.8525 59.1417 66.1934 59.1417 65.373V65.3096ZM60.0499 65.417C60.0499 66.0029 60.185 66.4733 60.4551 66.8281C60.7286 67.1829 61.0932 67.3604 61.5489 67.3604C62.0079 67.3604 62.3725 67.1813 62.6426 66.8232C62.9128 66.4619 63.0479 65.9574 63.0479 65.3096C63.0479 64.7301 62.9096 64.2614 62.6329 63.9033C62.3594 63.542 61.9949 63.3613 61.5391 63.3613C61.0932 63.3613 60.7335 63.5387 60.46 63.8936C60.1866 64.2484 60.0499 64.7562 60.0499 65.417ZM62.9844 61.8379V61.8867H62.2374L61.5049 61.0566L60.7774 61.8867H60.0303V61.8281L61.2315 60.5H61.7784L62.9844 61.8379ZM65.9385 62.7168L65.9678 63.3809C66.3715 62.873 66.8988 62.6191 67.5499 62.6191C68.6664 62.6191 69.2296 63.249 69.2393 64.5088V68H68.336V64.5039C68.3327 64.123 68.2449 63.8415 68.0723 63.6592C67.9031 63.4769 67.6378 63.3857 67.2764 63.3857C66.9835 63.3857 66.7263 63.4639 66.5049 63.6201C66.2836 63.7764 66.1111 63.9814 65.9874 64.2354V68H65.084V62.7168H65.9385ZM70.3868 65.3145C70.3868 64.4909 70.5772 63.8366 70.9581 63.3516C71.3389 62.8633 71.8435 62.6191 72.4717 62.6191C73.1163 62.6191 73.6192 62.847 73.9805 63.3027L74.0245 62.7168H74.8497V67.873C74.8497 68.5566 74.6462 69.0954 74.2393 69.4893C73.8357 69.8831 73.2921 70.0801 72.6085 70.0801C72.2276 70.0801 71.8549 69.9987 71.4903 69.8359C71.1257 69.6732 70.8474 69.4502 70.6553 69.167L71.1241 68.625C71.5115 69.1035 71.9851 69.3428 72.545 69.3428C72.9844 69.3428 73.3262 69.2191 73.5704 68.9717C73.8178 68.7243 73.9415 68.376 73.9415 67.9268V67.4727C73.5801 67.8893 73.087 68.0977 72.462 68.0977C71.8435 68.0977 71.3422 67.8486 70.9581 67.3506C70.5772 66.8525 70.3868 66.1738 70.3868 65.3145ZM71.295 65.417C71.295 66.0127 71.4171 66.4814 71.6612 66.8232C71.9053 67.1618 72.2471 67.3311 72.6866 67.3311C73.2562 67.3311 73.6745 67.0723 73.9415 66.5547V64.1426C73.6648 63.638 73.2497 63.3857 72.6964 63.3857C72.2569 63.3857 71.9135 63.5566 71.6661 63.8984C71.4187 64.2402 71.295 64.7464 71.295 65.417ZM80.8165 67.3604C81.1387 67.3604 81.4203 67.2627 81.6612 67.0674C81.9021 66.8721 82.0355 66.6279 82.0616 66.335H82.9161C82.8998 66.6377 82.7956 66.9258 82.6036 67.1992C82.4115 67.4727 82.1544 67.6908 81.8321 67.8535C81.5131 68.0163 81.1745 68.0977 80.8165 68.0977C80.0971 68.0977 79.5241 67.8584 79.0977 67.3799C78.6745 66.8981 78.463 66.2406 78.463 65.4072V65.2559C78.463 64.7415 78.5574 64.2842 78.7462 63.8838C78.935 63.4834 79.2051 63.1725 79.5567 62.9512C79.9115 62.7298 80.3298 62.6191 80.8116 62.6191C81.404 62.6191 81.8956 62.7965 82.2862 63.1514C82.6801 63.5062 82.89 63.9668 82.9161 64.5332H82.0616C82.0355 64.1914 81.9053 63.9115 81.671 63.6934C81.4398 63.472 81.1534 63.3613 80.8116 63.3613C80.3526 63.3613 79.9962 63.5273 79.7422 63.8594C79.4916 64.1882 79.3663 64.665 79.3663 65.29V65.4609C79.3663 66.0697 79.4916 66.5384 79.7422 66.8672C79.9929 67.196 80.351 67.3604 80.8165 67.3604ZM83.6924 65.3096C83.6924 64.792 83.7934 64.3265 83.9952 63.9131C84.2003 63.4997 84.4835 63.1807 84.8448 62.9561C85.2094 62.7314 85.6244 62.6191 86.0899 62.6191C86.8093 62.6191 87.3904 62.8682 87.8331 63.3662C88.279 63.8643 88.502 64.5267 88.502 65.3535V65.417C88.502 65.9313 88.4027 66.3936 88.2042 66.8037C88.0089 67.2106 87.7273 67.528 87.3594 67.7559C86.9949 67.9837 86.5749 68.0977 86.0997 68.0977C85.3835 68.0977 84.8025 67.8486 84.3565 67.3506C83.9138 66.8525 83.6924 66.1934 83.6924 65.373V65.3096ZM84.6006 65.417C84.6006 66.0029 84.7357 66.4733 85.0059 66.8281C85.2794 67.1829 85.6439 67.3604 86.0997 67.3604C86.5587 67.3604 86.9232 67.1813 87.1934 66.8232C87.4636 66.4619 87.5987 65.9574 87.5987 65.3096C87.5987 64.7301 87.4603 64.2614 87.1837 63.9033C86.9102 63.542 86.5456 63.3613 86.0899 63.3613C85.6439 63.3613 85.2842 63.5387 85.0108 63.8936C84.7374 64.2484 84.6006 64.7562 84.6006 65.417ZM86.5001 60.5H87.5938L86.2852 61.9355H85.5577L86.5001 60.5ZM95.1915 66.5986C95.1915 66.3545 95.0987 66.1657 94.9131 66.0322C94.7309 65.8955 94.4102 65.7783 93.9512 65.6807C93.4955 65.583 93.1325 65.4658 92.8624 65.3291C92.5954 65.1924 92.3969 65.0296 92.2667 64.8408C92.1397 64.652 92.0762 64.4274 92.0762 64.167C92.0762 63.734 92.2585 63.3678 92.6231 63.0684C92.9909 62.7689 93.4597 62.6191 94.0294 62.6191C94.6283 62.6191 95.1133 62.7738 95.4844 63.083C95.8588 63.3923 96.046 63.7878 96.046 64.2695H95.1378C95.1378 64.0221 95.032 63.8089 94.8204 63.6299C94.612 63.4508 94.3484 63.3613 94.0294 63.3613C93.7006 63.3613 93.4434 63.4329 93.2579 63.5762C93.0723 63.7194 92.9796 63.9066 92.9796 64.1377C92.9796 64.3558 93.0658 64.5202 93.2383 64.6309C93.4109 64.7415 93.7217 64.8473 94.171 64.9482C94.6234 65.0492 94.9896 65.1696 95.2696 65.3096C95.5495 65.4495 95.7562 65.6188 95.8897 65.8174C96.0264 66.0127 96.0948 66.252 96.0948 66.5352C96.0948 67.0072 95.906 67.3864 95.5284 67.6729C95.1508 67.9561 94.6609 68.0977 94.0587 68.0977C93.6355 68.0977 93.2611 68.0228 92.9356 67.873C92.6101 67.7233 92.3546 67.515 92.169 67.248C91.9867 66.9779 91.8956 66.6865 91.8956 66.374H92.7989C92.8152 66.6768 92.9356 66.9176 93.1602 67.0967C93.3881 67.2725 93.6876 67.3604 94.0587 67.3604C94.4005 67.3604 94.6739 67.292 94.879 67.1553C95.0873 67.0153 95.1915 66.8298 95.1915 66.5986ZM102.911 62.2969C102.911 62.8828 102.791 63.2962 102.55 63.5371C102.312 63.7747 101.933 63.9001 101.412 63.9131V68H100.553L100.533 67.4775C100.182 67.891 99.6658 68.0977 98.9854 68.0977C98.4223 68.0977 97.9926 67.9349 97.6964 67.6094C97.4034 67.2806 97.2553 66.7956 97.252 66.1543V62.7168H98.1553V66.1299C98.1553 66.9307 98.4809 67.3311 99.1319 67.3311C99.822 67.3311 100.281 67.0739 100.509 66.5596V62.7168H101.412V63.3564C101.634 63.3499 101.8 63.319 101.91 63.2637C102.021 63.2051 102.099 63.1172 102.145 63C102.193 62.8828 102.218 62.6484 102.218 62.2969H102.911ZM98.7706 69.1963C98.7706 69.0498 98.8145 68.9261 98.9024 68.8252C98.9936 68.7243 99.127 68.6738 99.3028 68.6738C99.4786 68.6738 99.612 68.7243 99.7032 68.8252C99.7943 68.9261 99.8399 69.0498 99.8399 69.1963C99.8399 69.3428 99.7943 69.4648 99.7032 69.5625C99.612 69.6602 99.4786 69.709 99.3028 69.709C99.127 69.709 98.9936 69.6602 98.9024 69.5625C98.8145 69.4648 98.7706 69.3428 98.7706 69.1963ZM107.418 65.5537L106.852 66.1445V68H105.948V60.5H106.852V65.0361L107.335 64.4551L108.981 62.7168H110.079L108.023 64.9238L110.318 68H109.259L107.418 65.5537ZM111.993 68H111.09V62.7168H111.993V68ZM111.017 61.3154C111.017 61.1689 111.061 61.0452 111.148 60.9443C111.24 60.8434 111.373 60.793 111.549 60.793C111.725 60.793 111.858 60.8434 111.949 60.9443C112.04 61.0452 112.086 61.1689 112.086 61.3154C112.086 61.4619 112.04 61.584 111.949 61.6816C111.858 61.7793 111.725 61.8281 111.549 61.8281C111.373 61.8281 111.24 61.7793 111.148 61.6816C111.061 61.584 111.017 61.4619 111.017 61.3154ZM115.636 68.0977C114.92 68.0977 114.337 67.8633 113.888 67.3945C113.439 66.9225 113.214 66.2926 113.214 65.5049V65.3389C113.214 64.8148 113.313 64.3477 113.512 63.9375C113.714 63.5241 113.994 63.2018 114.352 62.9707C114.713 62.7363 115.104 62.6191 115.523 62.6191C116.21 62.6191 116.744 62.8454 117.125 63.2979C117.506 63.7503 117.696 64.3981 117.696 65.2412V65.6172H114.117C114.13 66.138 114.282 66.5596 114.571 66.8818C114.864 67.2008 115.235 67.3604 115.685 67.3604C116.004 67.3604 116.274 67.2952 116.495 67.165C116.717 67.0348 116.91 66.8623 117.076 66.6475L117.628 67.0771C117.185 67.7575 116.521 68.0977 115.636 68.0977ZM115.523 63.3613C115.159 63.3613 114.853 63.4948 114.606 63.7617C114.358 64.0254 114.205 64.3965 114.147 64.875H116.793V64.8066C116.767 64.3477 116.643 63.9928 116.422 63.7422C116.201 63.4883 115.901 63.3613 115.523 63.3613ZM116.998 61.8379V61.8867H116.251L115.519 61.0566L114.791 61.8867H114.044V61.8281L115.245 60.5H115.792L116.998 61.8379ZM114.967 69.1963C114.967 69.0498 115.011 68.9261 115.099 68.8252C115.19 68.7243 115.323 68.6738 115.499 68.6738C115.675 68.6738 115.808 68.7243 115.899 68.8252C115.991 68.9261 116.036 69.0498 116.036 69.1963C116.036 69.3428 115.991 69.4648 115.899 69.5625C115.808 69.6602 115.675 69.709 115.499 69.709C115.323 69.709 115.19 69.6602 115.099 69.5625C115.011 69.4648 114.967 69.3428 114.967 69.1963ZM119.601 62.7168L119.63 63.3809C120.034 62.873 120.561 62.6191 121.212 62.6191C122.329 62.6191 122.892 63.249 122.901 64.5088V68H121.998V64.5039C121.995 64.123 121.907 63.8415 121.734 63.6592C121.565 63.4769 121.3 63.3857 120.939 63.3857C120.646 63.3857 120.388 63.4639 120.167 63.6201C119.946 63.7764 119.773 63.9814 119.649 64.2354V68H118.746V62.7168H119.601Z" fill="#6E7B94"/>
</svg>
