<svg width="192" height="132" viewBox="0 0 192 132" fill="none" xmlns="http://www.w3.org/2000/svg">
<rect opacity="0.2" x="1" y="1" width="190" height="92" rx="20" stroke="#6E7B94" stroke-width="2" stroke-linejoin="round" stroke-dasharray="8 8"/>
<g opacity="0.5">
<path fill-rule="evenodd" clip-rule="evenodd" d="M43.1891 11H24.5617C18.0683 11 14 15.6248 14 22.1697V39.8303C14 46.3752 18.0511 51 24.5617 51H43.1869C49.6997 51 53.7508 46.3752 53.7508 39.8303V22.1697C53.7508 15.6248 49.6997 11 43.1891 11Z" stroke="#6E7B94" stroke-width="1.5" stroke-linecap="round" stroke-linejoin="round"/>
<path opacity="0.4" fill-rule="evenodd" clip-rule="evenodd" d="M31.1282 24.0793C31.1282 26.2876 29.3471 28.0799 27.1524 28.0799C24.96 28.0799 23.1788 26.2876 23.1788 24.0793C23.1788 21.8709 24.96 20.0786 27.1524 20.0786C29.3471 20.0786 31.1282 21.8709 31.1282 24.0793Z" stroke="#6E7B94" stroke-width="1.5" stroke-linecap="round" stroke-linejoin="round"/>
<path opacity="0.4" d="M53.7491 37.4405C51.6083 35.5659 49.7453 33.3098 47.2901 31.821C44.8306 30.3321 42.188 31.251 40.4823 33.4724C38.8347 35.6201 37.8052 38.509 35.3177 39.8635C32.253 41.5344 30.4525 38.8405 27.896 37.7613C25.0424 36.5585 22.8758 38.7213 21.2088 40.7997C19.5397 42.8802 17.849 44.939 16.1519 46.9979" stroke="#6E7B94" stroke-width="1.5" stroke-linecap="round" stroke-linejoin="round"/>
</g>
<rect opacity="0.2" x="68" y="15" width="107" height="12" fill="#6E7B94"/>
<rect x="68" y="34" width="107" height="7" fill="#E9F0F4"/>
<rect x="16" y="63" width="159" height="7" fill="#E9F0F4"/>
<rect x="16" y="72" width="159" height="7" fill="#E9F0F4"/>
<path d="M27.082 124.616C26.9502 125.744 26.5327 126.616 25.8296 127.231C25.1313 127.841 24.2012 128.146 23.0391 128.146C21.7793 128.146 20.7686 127.695 20.0068 126.792C19.25 125.888 18.8716 124.68 18.8716 123.166V122.141C18.8716 121.149 19.0474 120.278 19.3989 119.526C19.7554 118.774 20.2583 118.198 20.9077 117.797C21.5571 117.392 22.3091 117.189 23.1636 117.189C24.2964 117.189 25.2046 117.507 25.8882 118.142C26.5718 118.771 26.9697 119.646 27.082 120.764H25.6685C25.5464 119.914 25.2803 119.299 24.8701 118.918C24.4648 118.537 23.896 118.347 23.1636 118.347C22.2651 118.347 21.5596 118.679 21.0469 119.343C20.5391 120.007 20.2852 120.952 20.2852 122.177V123.21C20.2852 124.367 20.5269 125.288 21.0103 125.971C21.4937 126.655 22.1699 126.997 23.0391 126.997C23.8203 126.997 24.4185 126.821 24.8335 126.469C25.2534 126.113 25.5317 125.495 25.6685 124.616H27.082ZM30.1509 121.035C30.7515 120.297 31.5327 119.929 32.4946 119.929C34.1694 119.929 35.0142 120.874 35.0288 122.763V128H33.6738V122.756C33.6689 122.185 33.5371 121.762 33.2783 121.489C33.0244 121.215 32.6265 121.079 32.0845 121.079C31.645 121.079 31.2593 121.196 30.9272 121.43C30.5952 121.665 30.3364 121.972 30.1509 122.353V128H28.7959V116.75H30.1509V121.035ZM45.5171 119.445C45.5171 120.324 45.3364 120.944 44.9751 121.306C44.6187 121.662 44.0498 121.85 43.2686 121.87V128H41.9795L41.9502 127.216C41.4229 127.836 40.6489 128.146 39.6284 128.146C38.7837 128.146 38.1392 127.902 37.6948 127.414C37.2554 126.921 37.0332 126.193 37.0283 125.231V120.075H38.3833V125.195C38.3833 126.396 38.8716 126.997 39.8481 126.997C40.8833 126.997 41.5718 126.611 41.9136 125.839V120.075H43.2686V121.035C43.6006 121.025 43.8496 120.979 44.0156 120.896C44.1816 120.808 44.2988 120.676 44.3672 120.5C44.4404 120.324 44.4771 119.973 44.4771 119.445H45.5171ZM51.2373 128C51.1592 127.844 51.0957 127.565 51.0469 127.165C50.417 127.819 49.665 128.146 48.791 128.146C48.0098 128.146 47.3677 127.927 46.8647 127.487C46.3667 127.043 46.1177 126.481 46.1177 125.803C46.1177 124.978 46.4302 124.338 47.0552 123.884C47.6851 123.425 48.5688 123.195 49.7065 123.195H51.0249V122.573C51.0249 122.099 50.8833 121.723 50.6001 121.445C50.3169 121.162 49.8994 121.02 49.3477 121.02C48.8643 121.02 48.459 121.142 48.1318 121.386C47.8047 121.63 47.6411 121.926 47.6411 122.272H46.2788C46.2788 121.877 46.418 121.496 46.6963 121.13C46.9795 120.759 47.3604 120.466 47.8389 120.251C48.3223 120.036 48.8521 119.929 49.4282 119.929C50.3413 119.929 51.0566 120.158 51.5742 120.617C52.0918 121.071 52.3604 121.699 52.3799 122.5V126.147C52.3799 126.875 52.4727 127.453 52.6582 127.883V128H51.2373ZM48.9888 126.967C49.4136 126.967 49.8164 126.857 50.1973 126.638C50.5781 126.418 50.854 126.132 51.0249 125.781V124.155H49.9629C48.3027 124.155 47.4727 124.641 47.4727 125.612C47.4727 126.037 47.6143 126.369 47.8975 126.608C48.1807 126.848 48.5444 126.967 48.9888 126.967ZM61.4033 127.041C61.8867 127.041 62.3091 126.894 62.6704 126.601C63.0317 126.308 63.2319 125.942 63.271 125.502H64.5527C64.5283 125.957 64.3721 126.389 64.084 126.799C63.7959 127.209 63.4102 127.536 62.9268 127.78C62.4482 128.024 61.9404 128.146 61.4033 128.146C60.3242 128.146 59.4648 127.788 58.8252 127.07C58.1904 126.347 57.873 125.361 57.873 124.111V123.884C57.873 123.112 58.0146 122.426 58.2979 121.826C58.5811 121.225 58.9863 120.759 59.5137 120.427C60.0459 120.095 60.6733 119.929 61.396 119.929C62.2847 119.929 63.022 120.195 63.6079 120.727C64.1987 121.259 64.5137 121.95 64.5527 122.8H63.271C63.2319 122.287 63.0366 121.867 62.6851 121.54C62.3384 121.208 61.9087 121.042 61.396 121.042C60.7075 121.042 60.1729 121.291 59.792 121.789C59.416 122.282 59.228 122.998 59.228 123.935V124.191C59.228 125.104 59.416 125.808 59.792 126.301C60.168 126.794 60.7051 127.041 61.4033 127.041ZM65.7173 123.964C65.7173 123.188 65.8687 122.49 66.1714 121.87C66.479 121.25 66.9038 120.771 67.4458 120.434C67.9927 120.097 68.6152 119.929 69.3135 119.929C70.3926 119.929 71.2642 120.302 71.9282 121.049C72.5972 121.796 72.9316 122.79 72.9316 124.03V124.125C72.9316 124.897 72.7827 125.59 72.4849 126.206C72.1919 126.816 71.7695 127.292 71.2178 127.634C70.6709 127.976 70.041 128.146 69.3281 128.146C68.2539 128.146 67.3823 127.773 66.7134 127.026C66.0493 126.279 65.7173 125.29 65.7173 124.06V123.964ZM67.0796 124.125C67.0796 125.004 67.2822 125.71 67.6875 126.242C68.0977 126.774 68.6445 127.041 69.3281 127.041C70.0166 127.041 70.5635 126.772 70.9688 126.235C71.374 125.693 71.5767 124.936 71.5767 123.964C71.5767 123.095 71.3691 122.392 70.9541 121.855C70.5439 121.313 69.9971 121.042 69.3135 121.042C68.6445 121.042 68.105 121.308 67.6948 121.84C67.2847 122.373 67.0796 123.134 67.0796 124.125ZM69.9287 116.75H71.5693L69.6064 118.903H68.5151L69.9287 116.75ZM79.7065 121.035C80.3071 120.297 81.0884 119.929 82.0503 119.929C83.7251 119.929 84.5698 120.874 84.5845 122.763V128H83.2295V122.756C83.2246 122.185 83.0928 121.762 82.834 121.489C82.5801 121.215 82.1821 121.079 81.6401 121.079C81.2007 121.079 80.8149 121.196 80.4829 121.43C80.1509 121.665 79.8921 121.972 79.7065 122.353V128H78.3516V116.75H79.7065V121.035ZM86.2544 123.964C86.2544 123.188 86.4058 122.49 86.7085 121.87C87.0161 121.25 87.4409 120.771 87.9829 120.434C88.5298 120.097 89.1523 119.929 89.8506 119.929C90.9297 119.929 91.8013 120.302 92.4653 121.049C93.1343 121.796 93.4688 122.79 93.4688 124.03V124.125C93.4688 124.897 93.3198 125.59 93.022 126.206C92.729 126.816 92.3066 127.292 91.7549 127.634C91.208 127.976 90.5781 128.146 89.8652 128.146C88.791 128.146 87.9194 127.773 87.2505 127.026C86.5864 126.279 86.2544 125.29 86.2544 124.06V123.964ZM87.6167 124.125C87.6167 125.004 87.8193 125.71 88.2246 126.242C88.6348 126.774 89.1816 127.041 89.8652 127.041C90.5537 127.041 91.1006 126.772 91.5059 126.235C91.9111 125.693 92.1138 124.936 92.1138 123.964C92.1138 123.095 91.9062 122.392 91.4912 121.855C91.0811 121.313 90.5342 121.042 89.8506 121.042C89.1816 121.042 88.6421 121.308 88.2319 121.84C87.8218 122.373 87.6167 123.134 87.6167 124.125ZM100.061 128C99.9824 127.844 99.9189 127.565 99.8701 127.165C99.2402 127.819 98.4883 128.146 97.6143 128.146C96.833 128.146 96.1909 127.927 95.688 127.487C95.1899 127.043 94.9409 126.481 94.9409 125.803C94.9409 124.978 95.2534 124.338 95.8784 123.884C96.5083 123.425 97.3921 123.195 98.5298 123.195H99.8481V122.573C99.8481 122.099 99.7065 121.723 99.4233 121.445C99.1401 121.162 98.7227 121.02 98.1709 121.02C97.6875 121.02 97.2822 121.142 96.9551 121.386C96.6279 121.63 96.4644 121.926 96.4644 122.272H95.1021C95.1021 121.877 95.2412 121.496 95.5195 121.13C95.8027 120.759 96.1836 120.466 96.6621 120.251C97.1455 120.036 97.6753 119.929 98.2515 119.929C99.1646 119.929 99.8799 120.158 100.397 120.617C100.915 121.071 101.184 121.699 101.203 122.5V126.147C101.203 126.875 101.296 127.453 101.481 127.883V128H100.061ZM97.812 126.967C98.2368 126.967 98.6396 126.857 99.0205 126.638C99.4014 126.418 99.6772 126.132 99.8481 125.781V124.155H98.7861C97.126 124.155 96.2959 124.641 96.2959 125.612C96.2959 126.037 96.4375 126.369 96.7207 126.608C97.0039 126.848 97.3677 126.967 97.812 126.967ZM96.9697 129.794C96.9697 129.575 97.0356 129.389 97.1675 129.238C97.3042 129.086 97.5044 129.011 97.7681 129.011C98.0317 129.011 98.2319 129.086 98.3687 129.238C98.5054 129.389 98.5737 129.575 98.5737 129.794C98.5737 130.014 98.5054 130.197 98.3687 130.344C98.2319 130.49 98.0317 130.563 97.7681 130.563C97.5044 130.563 97.3042 130.49 97.1675 130.344C97.0356 130.197 96.9697 130.014 96.9697 129.794ZM105.166 118.156V120.075H106.645V121.123H105.166V126.037C105.166 126.354 105.231 126.594 105.363 126.755C105.495 126.911 105.72 126.989 106.037 126.989C106.193 126.989 106.408 126.96 106.682 126.901V128C106.325 128.098 105.979 128.146 105.642 128.146C105.036 128.146 104.58 127.963 104.272 127.597C103.964 127.231 103.811 126.711 103.811 126.037V121.123H102.368V120.075H103.811V118.156H105.166ZM119.689 118.969H118.312V128H117.067L117.001 127.15C116.459 127.814 115.705 128.146 114.738 128.146C113.82 128.146 113.071 127.771 112.49 127.019C111.914 126.267 111.625 125.285 111.625 124.074V123.972C111.625 122.756 111.914 121.779 112.49 121.042C113.066 120.3 113.82 119.929 114.753 119.929C115.681 119.929 116.416 120.246 116.958 120.881V118.969H115.024V117.863H116.958V116.75H118.312V117.863H119.689V118.969ZM112.98 124.125C112.98 125.024 113.166 125.727 113.537 126.235C113.908 126.743 114.421 126.997 115.075 126.997C115.935 126.997 116.562 126.611 116.958 125.839V122.199C116.552 121.452 115.93 121.079 115.09 121.079C114.426 121.079 113.908 121.335 113.537 121.848C113.166 122.36 112.98 123.12 112.98 124.125ZM120.561 123.964C120.561 123.188 120.712 122.49 121.015 121.87C121.323 121.25 121.748 120.771 122.29 120.434C122.836 120.097 123.459 119.929 124.157 119.929C125.236 119.929 126.108 120.302 126.772 121.049C127.441 121.796 127.775 122.79 127.775 124.03V124.125C127.775 124.897 127.626 125.59 127.329 126.206C127.036 126.816 126.613 127.292 126.062 127.634C125.515 127.976 124.885 128.146 124.172 128.146C123.098 128.146 122.226 127.773 121.557 127.026C120.893 126.279 120.561 125.29 120.561 124.06V123.964ZM121.923 124.125C121.923 125.004 122.126 125.71 122.531 126.242C122.941 126.774 123.488 127.041 124.172 127.041C124.86 127.041 125.407 126.772 125.812 126.235C126.218 125.693 126.42 124.936 126.42 123.964C126.42 123.095 126.213 122.392 125.798 121.855C125.388 121.313 124.841 121.042 124.157 121.042C123.488 121.042 122.949 121.308 122.539 121.84C122.128 122.373 121.923 123.134 121.923 124.125ZM126.325 118.757V118.83H125.205L124.106 117.585L123.015 118.83H121.894V118.742L123.696 116.75H124.516L126.325 118.757ZM123.33 129.794C123.33 129.575 123.396 129.389 123.527 129.238C123.664 129.086 123.864 129.011 124.128 129.011C124.392 129.011 124.592 129.086 124.729 129.238C124.865 129.389 124.934 129.575 124.934 129.794C124.934 130.014 124.865 130.197 124.729 130.344C124.592 130.49 124.392 130.563 124.128 130.563C123.864 130.563 123.664 130.49 123.527 130.344C123.396 130.197 123.33 130.014 123.33 129.794ZM130.756 120.075L130.8 121.071C131.406 120.31 132.197 119.929 133.173 119.929C134.848 119.929 135.693 120.874 135.708 122.763V128H134.353V122.756C134.348 122.185 134.216 121.762 133.957 121.489C133.703 121.215 133.305 121.079 132.763 121.079C132.324 121.079 131.938 121.196 131.606 121.43C131.274 121.665 131.015 121.972 130.83 122.353V128H129.475V120.075H130.756ZM137.429 123.972C137.429 122.736 137.714 121.755 138.286 121.027C138.857 120.295 139.614 119.929 140.556 119.929C141.523 119.929 142.277 120.271 142.819 120.954L142.885 120.075H144.123V127.81C144.123 128.835 143.818 129.643 143.208 130.234C142.602 130.825 141.787 131.12 140.761 131.12C140.19 131.12 139.631 130.998 139.084 130.754C138.537 130.51 138.12 130.175 137.832 129.75L138.535 128.938C139.116 129.655 139.826 130.014 140.666 130.014C141.325 130.014 141.838 129.829 142.204 129.458C142.575 129.086 142.761 128.564 142.761 127.89V127.209C142.219 127.834 141.479 128.146 140.542 128.146C139.614 128.146 138.862 127.773 138.286 127.026C137.714 126.279 137.429 125.261 137.429 123.972ZM138.791 124.125C138.791 125.019 138.974 125.722 139.34 126.235C139.707 126.743 140.219 126.997 140.878 126.997C141.733 126.997 142.36 126.608 142.761 125.832V122.214C142.346 121.457 141.723 121.079 140.893 121.079C140.234 121.079 139.719 121.335 139.348 121.848C138.977 122.36 138.791 123.12 138.791 124.125ZM151.176 120.075L151.22 121.071C151.826 120.31 152.617 119.929 153.593 119.929C155.268 119.929 156.113 120.874 156.127 122.763V128H154.772V122.756C154.768 122.185 154.636 121.762 154.377 121.489C154.123 121.215 153.725 121.079 153.183 121.079C152.744 121.079 152.358 121.196 152.026 121.43C151.694 121.665 151.435 121.972 151.25 122.353V128H149.895V120.075H151.176ZM163.063 128C162.985 127.844 162.922 127.565 162.873 127.165C162.243 127.819 161.491 128.146 160.617 128.146C159.836 128.146 159.194 127.927 158.691 127.487C158.193 127.043 157.944 126.481 157.944 125.803C157.944 124.978 158.256 124.338 158.881 123.884C159.511 123.425 160.395 123.195 161.533 123.195H162.851V122.573C162.851 122.099 162.709 121.723 162.426 121.445C162.143 121.162 161.726 121.02 161.174 121.02C160.69 121.02 160.285 121.142 159.958 121.386C159.631 121.63 159.467 121.926 159.467 122.272H158.105C158.105 121.877 158.244 121.496 158.522 121.13C158.806 120.759 159.187 120.466 159.665 120.251C160.148 120.036 160.678 119.929 161.254 119.929C162.167 119.929 162.883 120.158 163.4 120.617C163.918 121.071 164.187 121.699 164.206 122.5V126.147C164.206 126.875 164.299 127.453 164.484 127.883V128H163.063ZM160.815 126.967C161.24 126.967 161.643 126.857 162.023 126.638C162.404 126.418 162.68 126.132 162.851 125.781V124.155H161.789C160.129 124.155 159.299 124.641 159.299 125.612C159.299 126.037 159.44 126.369 159.724 126.608C160.007 126.848 160.371 126.967 160.815 126.967ZM162.177 118.903H161.013L159.123 116.75H160.756L162.177 118.903ZM165.971 123.964C165.971 123.188 166.123 122.49 166.425 121.87C166.733 121.25 167.158 120.771 167.7 120.434C168.247 120.097 168.869 119.929 169.567 119.929C170.646 119.929 171.518 120.302 172.182 121.049C172.851 121.796 173.186 122.79 173.186 124.03V124.125C173.186 124.897 173.037 125.59 172.739 126.206C172.446 126.816 172.023 127.292 171.472 127.634C170.925 127.976 170.295 128.146 169.582 128.146C168.508 128.146 167.636 127.773 166.967 127.026C166.303 126.279 165.971 125.29 165.971 124.06V123.964ZM167.333 124.125C167.333 125.004 167.536 125.71 167.941 126.242C168.352 126.774 168.898 127.041 169.582 127.041C170.271 127.041 170.817 126.772 171.223 126.235C171.628 125.693 171.831 124.936 171.831 123.964C171.831 123.095 171.623 122.392 171.208 121.855C170.798 121.313 170.251 121.042 169.567 121.042C168.898 121.042 168.359 121.308 167.949 121.84C167.539 122.373 167.333 123.134 167.333 124.125Z" fill="#6E7B94"/>
</svg>
