<svg width="20" height="20" viewBox="0 0 20 20" fill="none" xmlns="http://www.w3.org/2000/svg">
<path d="M2.49999 0H13.1206L18.75 5.60752V18.75C18.75 19.4406 18.19 20 17.5 20H2.49999C1.80997 20 1.25 19.4406 1.25 18.75V1.24999C1.25 0.559387 1.81003 0 2.49999 0Z" fill="#E2574C"/>
<path d="M18.7319 5.62495H14.375C13.685 5.62495 13.125 5.06498 13.125 4.37496V0.0124512L18.7319 5.62495Z" fill="#B53629"/>
<path d="M14.0609 9.47683C14.2703 9.47683 14.3728 9.29433 14.3728 9.11746C14.3728 8.93432 14.2659 8.75745 14.0609 8.75745H12.8684C12.6352 8.75745 12.5052 8.95055 12.5052 9.1637V12.0943C12.5052 12.3556 12.654 12.5006 12.8552 12.5006C13.0552 12.5006 13.2046 12.3556 13.2046 12.0943V11.29H13.9259C14.1496 11.29 14.2615 11.1068 14.2615 10.925C14.2615 10.7469 14.1496 10.5699 13.9259 10.5699H13.2046V9.47683H14.0609ZM10.0302 8.75745H9.15771C8.92083 8.75745 8.75269 8.91996 8.75269 9.16117V12.0968C8.75269 12.3962 8.99455 12.4899 9.16767 12.4899H10.0833C11.167 12.4899 11.8827 11.7768 11.8827 10.6762C11.8821 9.51246 11.2084 8.75745 10.0302 8.75745ZM10.0721 11.7662H9.54023V9.48122H10.0196C10.7453 9.48122 11.0609 9.96812 11.0609 10.64C11.0609 11.2687 10.7508 11.7662 10.0721 11.7662ZM6.87587 8.75745H6.0115C5.76712 8.75745 5.63086 8.91867 5.63086 9.1637V12.0943C5.63086 12.3556 5.7871 12.5006 5.99708 12.5006C6.20706 12.5006 6.3633 12.3556 6.3633 12.0943V11.2387H6.90516C7.5739 11.2387 8.12579 10.7649 8.12579 10.003C8.12585 9.25747 7.59337 8.75745 6.87587 8.75745ZM6.86151 10.5512H6.36336V9.44559H6.86151C7.16901 9.44559 7.36464 9.68558 7.36464 9.9987C7.36399 10.3112 7.16901 10.5512 6.86151 10.5512Z" fill="white"/>
</svg>
