<svg width="16" height="15" viewBox="0 0 16 15" fill="none" xmlns="http://www.w3.org/2000/svg">
<path d="M0.481145 14.7448L1.34768 14.1737C2.13704 13.6534 2.8717 13.0544 3.54038 12.3859L6.75636 9.17101L5.83114 8.24609L2.61518 11.4611C1.94651 12.1295 1.34732 12.8639 0.82688 13.653L0.255516 14.5193C0.157691 14.6676 0.332787 14.8426 0.481145 14.7448Z" fill="white"/>
<path d="M1.68327 13.653C2.20371 12.8639 2.8029 12.1295 3.47158 11.461L6.25939 8.67414L5.8312 8.24609L2.61519 11.461C1.94652 12.1295 1.34732 12.8639 0.826883 13.653L0.255516 14.5193C0.157691 14.6676 0.332787 14.8426 0.481146 14.7448L1.33377 14.1828L1.68327 13.653Z" fill="#022F96"/>
<path d="M13.0907 4.23875C12.8442 3.99234 11.0118 2.1605 10.7652 1.91406L7.46582 5.0049L9.99887 7.53711L13.0907 4.23875Z" fill="white"/>
<path d="M11.8561 3.00454C11.3612 2.50976 10.8828 2.03158 10.7653 1.91406L7.46582 5.0049L8.55667 6.09538L11.8561 3.00454Z" fill="#022F96"/>
<path d="M14.5334 2.98574L12.0186 0.471689C11.6934 0.146644 11.1614 0.146644 10.8362 0.471689L10.6323 0.675577C10.3071 1.00062 10.3071 1.53249 10.6323 1.85754L13.1472 4.37159C13.4723 4.69664 14.0044 4.69664 14.3295 4.37159L14.5335 4.16771C14.8586 3.84269 14.8586 3.31079 14.5334 2.98574Z" fill="white"/>
<path d="M12.0937 2.20968L12.3433 1.96027C12.5814 1.72223 12.9102 1.62686 13.2211 1.6738L12.0186 0.471689C11.6934 0.146644 11.1614 0.146644 10.8362 0.471689L10.6323 0.675577C10.3071 1.00062 10.3071 1.5325 10.6323 1.85754L11.7996 3.0245C11.7737 2.73273 11.8716 2.43175 12.0937 2.20968Z" fill="#022F96"/>
<path d="M9.93423 11.6599C10.4925 10.6332 10.6562 9.70378 10.6864 9.05554C10.7114 8.51951 10.5094 7.99803 10.1298 7.61859L7.38423 4.87392C7.00467 4.49448 6.48301 4.29253 5.94681 4.3175C5.29835 4.34771 4.36858 4.51133 3.34159 5.06944C3.10313 5.19905 3.05711 5.52225 3.24904 5.71411L9.28935 11.7524C9.48127 11.9443 9.8046 11.8983 9.93423 11.6599Z" fill="white"/>
<path d="M5.01655 6.77755C6.01197 6.15737 6.87573 5.90675 7.46896 5.80826C7.85099 5.74484 8.20959 5.80814 8.49315 5.98248L7.3842 4.87392C7.00463 4.49448 6.48297 4.29253 5.94676 4.3175C5.29829 4.34771 4.36851 4.51133 3.34147 5.06944C3.10301 5.19905 3.05699 5.52225 3.24891 5.71411L4.79507 7.25972C4.74835 7.10074 4.83435 6.89107 5.01655 6.77755Z" fill="#022F96"/>
<path d="M0.0652323 14.3944C-0.0377154 14.5508 -0.0171623 14.7524 0.115221 14.8848C0.247664 15.0172 0.449346 15.0377 0.605799 14.9348C1.61766 14.269 2.53934 13.7078 3.68965 12.5579L4.85227 11.3956C4.94106 11.3068 4.94106 11.163 4.85227 11.0742C4.76345 10.9855 4.61952 10.9855 4.53073 11.0742L3.36811 12.2365C2.27615 13.3281 1.36572 13.8905 0.616955 14.3833C1.10268 13.6455 1.66635 12.7307 2.76446 11.633L5.80648 8.59193L6.41019 9.19544L5.28098 10.3242C5.19219 10.413 5.19219 10.5569 5.28098 10.6457C5.3698 10.7344 5.51373 10.7344 5.60252 10.6457L6.7317 9.51688L9.12845 11.9128C9.42811 12.2123 9.93148 12.1403 10.1338 11.7681C10.7247 10.6817 10.8839 9.69895 10.9134 9.06576C10.9402 8.49065 10.731 7.92726 10.3385 7.50815L13.061 4.59992C13.4763 4.94342 14.0984 4.9236 14.4902 4.53201L14.6941 4.32809C15.1087 3.91362 15.1087 3.23916 14.6941 2.82469L13.7489 1.87983C13.6602 1.79113 13.5162 1.79104 13.4274 1.87986C13.3386 1.96862 13.3386 2.11251 13.4274 2.20127L14.3726 3.1461C14.6099 3.38338 14.6099 3.7694 14.3726 4.00665L14.1686 4.21054C13.9314 4.4478 13.5452 4.4478 13.3078 4.21054C13.04 3.94277 11.1307 2.03408 10.793 1.69649C10.5563 1.45993 10.5564 1.07243 10.793 0.835963L10.9969 0.632044C11.2335 0.395518 11.6212 0.395548 11.8577 0.632074L12.6772 1.45123C12.766 1.53996 12.9099 1.53996 12.9987 1.45123C13.0875 1.36244 13.0875 1.21856 12.9987 1.12979L12.1793 0.310666C11.7649 -0.103596 11.0897 -0.103505 10.6754 0.310635L10.4715 0.514524C10.0803 0.905602 10.0594 1.52754 10.4035 1.9432L7.49432 4.66487C7.07514 4.27251 6.51202 4.06357 5.93616 4.09011C5.30283 4.11963 4.31974 4.27879 3.23294 4.86942C2.86058 5.07176 2.78868 5.57509 3.08822 5.8745L5.48496 8.27046L2.44288 11.3115C1.28881 12.4653 0.725116 13.3921 0.0652323 14.3944ZM10.7217 2.26812L12.736 4.28185L10.018 7.18519L7.81735 4.98524L10.7217 2.26812ZM3.40973 5.55309C3.32503 5.46848 3.3451 5.32587 3.45008 5.2688C4.46106 4.71938 5.37156 4.57153 5.95732 4.54425C6.42792 4.52222 6.88967 4.70078 7.22337 5.03434L9.96895 7.77901C10.3025 8.11239 10.4811 8.57371 10.4592 9.04461C10.4319 9.63019 10.284 10.5404 9.73438 11.551C9.67757 11.6554 9.53524 11.6766 9.45003 11.5914C9.3004 11.4418 3.55439 5.6977 3.40973 5.55309Z" fill="#022F96"/>
</svg>
