<svg width="20" height="20" viewBox="0 0 20 20" fill="none" xmlns="http://www.w3.org/2000/svg">
<path d="M10.9865 1.82046C11.3376 1.87328 11.6399 2.16461 11.7058 2.51341C11.9687 2.52186 12.1839 2.71263 12.3897 2.87636C12.5955 3.04009 12.857 3.19368 13.1078 3.11425L13.0123 2.39362C12.991 2.23243 12.9679 2.06637 12.8858 1.9261C12.7683 1.72603 12.5507 1.61068 12.3441 1.50526C12.0986 1.38019 11.8487 1.25343 11.5776 1.20399C11.3066 1.15456 11.0064 1.19258 10.7942 1.36836C10.6935 1.45202 10.6149 1.60223 10.6897 1.70976C10.7518 1.79976 10.8787 1.8042 10.9865 1.82046Z" fill="#6E7B94"/>
<path d="M13.5908 2.04019C13.8078 2.05984 14.0049 2.22146 14.0668 2.43019C14.0757 2.46019 14.0816 2.49441 14.0658 2.52166C14.0446 2.558 13.9956 2.56476 13.9538 2.56328C13.8859 2.56215 13.819 2.54637 13.7577 2.51702C13.6768 2.47594 13.6133 2.40731 13.5786 2.3235C13.5446 2.23936 13.5418 2.14584 13.5708 2.05984" fill="#6E7B94"/>
<path d="M15.3257 10.375C15.0882 10.3241 14.8315 10.0953 14.6972 9.9028C14.6087 9.77583 14.5474 9.63006 14.4479 9.51132C14.3378 9.38013 14.1874 9.2895 14.0357 9.21006C13.3728 8.86448 12.637 8.68183 11.8895 8.67725C11.3995 8.67429 10.6612 8.60796 10.3793 8.09839C10.3327 8.01409 10.3745 7.91121 10.3937 7.81656C10.4129 7.72191 10.38 7.59262 10.2836 7.58776C10.0998 7.57846 10.0572 7.79776 9.82562 7.77093C9.6583 7.75149 9.43203 7.62727 9.37541 7.46163C9.32387 7.31079 9.37647 6.97361 9.38767 6.81326C9.40837 6.51665 10.5589 6.53524 10.767 6.55256C10.7279 6.77904 10.9567 7.13291 11.21 6.92692C11.4295 6.74862 11.1576 6.25595 11.3488 6.00961C11.5983 5.68765 11.9186 5.36631 12.2 5.0642C12.2792 4.97906 12.3589 4.89371 12.4497 4.82125C12.6481 4.66344 12.8911 4.57428 13.1102 4.44668C12.6821 3.78457 11.9062 3.36204 11.1179 3.36183C11.0571 3.36183 10.9905 3.36627 10.9457 3.40747C10.8868 3.46155 10.8902 3.55387 10.8986 3.63331C10.9217 3.85218 10.9487 4.07084 10.9798 4.28865L10.3058 4.02098C10.1391 3.95485 9.96421 3.88239 9.85562 3.73957C9.74724 3.59676 9.74027 3.36078 9.889 3.26085C10.0986 3.11994 10.4167 3.34113 10.6238 3.19684C10.7484 3.10979 10.7807 2.91776 10.9212 2.85966C11.0469 2.8079 11.183 2.8924 11.3159 2.92198C11.4486 2.95156 11.6364 2.84445 11.5721 2.72445C11.2079 2.48171 10.7922 2.22777 10.3627 2.31269C10.1465 2.35537 9.95597 2.48107 9.74534 2.54551C9.23725 2.70121 8.69726 2.4872 8.20923 2.27678C8.13487 2.24467 8.05797 2.21108 8.00325 2.15129C7.94114 2.08347 7.91494 1.99009 7.86192 1.91488C7.69375 1.67679 7.06798 1.67742 7.10897 1.6658C7.05636 1.66136 6.95453 1.7801 6.90193 1.77545C6.85587 1.77143 6.38792 2.25016 6.30236 2.30762C6.01567 2.50072 5.69286 2.57994 5.34364 2.68304C5.00034 2.78445 4.61013 3.17592 5.14442 3.20233C5.58216 3.22388 6.21912 3.06733 6.64524 2.9693C6.72383 2.95135 6.80961 2.93191 6.88207 2.96719C6.95305 3.00163 6.99129 3.07874 7.0215 3.15163C7.2878 3.80004 7.32117 4.52071 7.11594 5.19096C7.0458 5.41744 6.94777 5.65659 7.01686 5.88349C7.11657 6.21053 7.52812 6.38123 7.58959 6.71756C7.616 6.86228 7.57164 7.01988 7.63164 7.15403C7.77255 7.46861 8.20247 7.3279 8.44522 7.27171C8.44395 7.27213 8.48113 7.76142 8.51451 7.81508C8.6324 8.00416 8.94084 8.05233 9.13521 8.10663C9.85203 8.30712 10.4827 8.61197 11.1287 8.98042C11.285 9.06957 11.4486 9.16548 11.5396 9.32098C11.7836 9.73717 11.3795 10.2298 11.3273 10.7094C11.3134 10.8458 11.3286 10.9836 11.3721 11.1136C11.4156 11.2436 11.4863 11.3629 11.5795 11.4634C11.6858 11.5766 11.8187 11.6626 11.9243 11.7769C12.1704 12.0431 12.2393 12.4344 12.2004 12.795C12.1618 13.1556 12.0291 13.4981 11.918 13.8433C11.7101 14.4896 11.5755 15.1573 11.5166 15.8336C11.499 16.035 11.6072 16.0874 11.7876 16.032C12.0447 15.9534 11.9985 15.7107 12.0635 15.5193C12.2505 14.9679 12.8454 14.4767 13.3527 14.2365C13.5781 14.1298 13.8255 14.0489 14.0004 13.8712C14.2472 13.6206 14.3013 13.226 14.5489 12.9761C14.7597 12.7631 15.0798 12.6877 15.2925 12.4764C15.5232 12.2472 15.6037 11.9113 15.7535 11.632C15.8663 11.4218 16.0822 11.25 16.1775 11.0386C16.4625 10.405 15.6924 10.4536 15.3257 10.375Z" fill="#6E7B94"/>
<path d="M10 0C4.47712 0 0 4.47712 0 10C0 15.5229 4.47712 20 10 20C15.5229 20 20 15.5229 20 10C20 4.47712 15.5229 0 10 0ZM13.3346 18.5235C13.0982 18.4299 12.8379 18.3969 12.588 18.4442C12.2206 18.5138 11.835 18.733 11.4987 18.5693C11.1655 18.4073 11.0984 17.9245 11.2805 17.6017C11.4626 17.2789 11.8143 17.0913 12.1627 16.9652C11.9259 16.7736 11.5631 16.8625 11.3177 17.0431C11.0722 17.2236 10.889 17.4796 10.6389 17.6535C10.3887 17.8274 10.0169 17.8964 9.79592 17.6867C9.78852 17.8597 9.58634 17.9588 9.41311 17.9581C9.23987 17.9575 9.06811 17.8964 8.89656 17.9195C8.66481 17.9503 8.47594 18.1326 8.37326 18.3426C8.27693 18.5399 8.24397 18.7609 8.21587 18.9792C4.0191 18.1466 0.845059 14.4376 0.845059 10C0.845059 4.95183 4.95204 0.845058 10 0.845058C11.8277 0.845058 13.5302 1.38547 14.9609 2.31187C14.9332 2.45637 14.9231 2.60194 14.9478 2.74729C15.0044 3.08193 15.3074 3.40073 15.6425 3.34559L15.7037 3.10242C16.1267 3.18756 16.4871 3.52939 16.5944 3.94727C16.5309 3.98949 16.4809 4.04903 16.4502 4.11883C16.4196 4.18863 16.4096 4.26575 16.4214 4.34107C16.9356 4.43761 17.2669 4.96578 17.3539 5.48168C17.441 5.99759 17.3491 6.52533 17.355 7.04863C17.3643 7.87151 17.6968 8.77593 18.4468 9.11459C18.6553 9.20881 18.9042 9.24642 19.1159 9.17501C19.1404 9.44712 19.1549 9.72198 19.1549 10.0002C19.1549 13.8716 16.7379 17.1872 13.3346 18.5235Z" fill="#6E7B94"/>
</svg>
