<svg width="13" height="13" viewBox="0 0 13 13" fill="none" xmlns="http://www.w3.org/2000/svg">
<path d="M6.94162 1.15015C7.16347 1.18352 7.35448 1.36759 7.39613 1.58798C7.56218 1.59331 7.6982 1.71385 7.82821 1.8173C7.95823 1.92075 8.12348 2.01779 8.28192 1.9676L8.22159 1.51229C8.20811 1.41044 8.19356 1.30552 8.14163 1.21689C8.06742 1.09048 7.92993 1.0176 7.79938 0.950993C7.64427 0.871971 7.48636 0.791881 7.3151 0.760646C7.14384 0.729411 6.95416 0.753438 6.82015 0.864496C6.75648 0.917355 6.70682 1.01226 6.75407 1.08021C6.79332 1.13707 6.87354 1.13987 6.94162 1.15015Z" fill="#6E7B94"/>
<path d="M8.58724 1.28906C8.72433 1.30148 8.84887 1.40359 8.88798 1.53547C8.89359 1.55443 8.89733 1.57605 8.88731 1.59327C8.87397 1.61623 8.843 1.6205 8.81657 1.61957C8.77365 1.61885 8.7314 1.60888 8.6927 1.59033C8.64159 1.56438 8.60144 1.52102 8.5795 1.46806C8.55802 1.4149 8.55627 1.35581 8.57456 1.30148" fill="#6E7B94"/>
<path d="M9.68319 6.55528C9.53316 6.52311 9.37097 6.37855 9.28608 6.25694C9.23015 6.17672 9.19144 6.08462 9.12857 6.0096C9.05902 5.92671 8.96398 5.86944 8.86814 5.81925C8.44929 5.6009 7.98443 5.4855 7.51209 5.48261C7.20254 5.48074 6.73601 5.43883 6.55795 5.11686C6.52845 5.0636 6.55488 4.9986 6.56702 4.9388C6.57917 4.879 6.55835 4.79731 6.49748 4.79423C6.38135 4.78836 6.35439 4.92692 6.20809 4.90997C6.10237 4.89768 5.95941 4.8192 5.92364 4.71455C5.89107 4.61924 5.9243 4.4062 5.93138 4.30489C5.94446 4.11748 6.67141 4.12922 6.80289 4.14017C6.7782 4.28326 6.92276 4.50685 7.0828 4.3767C7.22149 4.26404 7.0497 3.95276 7.1705 3.79712C7.32815 3.59369 7.53051 3.39066 7.70831 3.19978C7.75836 3.14598 7.80869 3.09206 7.86608 3.04627C7.99143 2.94656 8.14493 2.89023 8.28335 2.80961C8.01292 2.39127 7.52263 2.1243 7.02461 2.12417C6.98616 2.12417 6.94412 2.12697 6.91582 2.153C6.87858 2.18717 6.88071 2.24551 6.88605 2.2957C6.9006 2.43398 6.91769 2.57214 6.93731 2.70976L6.5115 2.54064C6.40618 2.49886 6.29565 2.45307 6.22704 2.36284C6.15857 2.2726 6.15416 2.1235 6.24813 2.06037C6.38055 1.97133 6.58157 2.11109 6.71239 2.01992C6.79114 1.96492 6.81157 1.84359 6.90033 1.80688C6.97976 1.77418 7.06572 1.82757 7.14968 1.84626C7.23351 1.86495 7.35217 1.79727 7.31159 1.72145C7.08147 1.56808 6.81877 1.40763 6.5474 1.46129C6.41085 1.48826 6.29045 1.56768 6.15736 1.60839C5.83634 1.70677 5.49515 1.57155 5.18681 1.4386C5.13982 1.41831 5.09123 1.39709 5.05666 1.35931C5.01742 1.31646 5.00087 1.25746 4.96736 1.20994C4.86111 1.05951 4.46573 1.05991 4.49163 1.05257C4.45839 1.04976 4.39405 1.12478 4.36081 1.12184C4.33171 1.11931 4.03605 1.42178 3.98199 1.45809C3.80085 1.58009 3.59689 1.63015 3.37624 1.69529C3.15933 1.75936 2.91279 2.00671 3.25037 2.02339C3.52694 2.03701 3.9294 1.93809 4.19863 1.87616C4.24829 1.86481 4.30248 1.85253 4.34827 1.87482C4.39312 1.89658 4.41728 1.9453 4.43637 1.99135C4.60462 2.40104 4.62571 2.85638 4.49603 3.27987C4.45172 3.42296 4.38978 3.57407 4.43343 3.71743C4.49643 3.92406 4.75646 4.03191 4.7953 4.24442C4.81199 4.33585 4.78396 4.43543 4.82187 4.52019C4.9109 4.71895 5.18254 4.63005 5.33591 4.59454C5.33511 4.59481 5.3586 4.90396 5.37969 4.93786C5.45417 5.05733 5.64906 5.08776 5.77187 5.12207C6.22477 5.24875 6.62322 5.44136 7.03141 5.67416C7.13019 5.73049 7.23351 5.79109 7.29104 5.88933C7.44521 6.15229 7.18986 6.46358 7.15689 6.76658C7.14808 6.85276 7.15774 6.93982 7.18522 7.02197C7.21271 7.10411 7.25738 7.17946 7.31627 7.24299C7.38341 7.31453 7.46737 7.36886 7.53411 7.44107C7.68962 7.60926 7.73313 7.85647 7.70857 8.08433C7.68415 8.31219 7.60032 8.52856 7.53011 8.74667C7.39878 9.15505 7.31371 9.57687 7.27649 10.0042C7.26541 10.1314 7.33375 10.1645 7.44775 10.1296C7.6102 10.0799 7.58096 9.92653 7.62208 9.8056C7.74021 9.45721 8.1161 9.14686 8.43659 8.99509C8.57902 8.92768 8.73533 8.87655 8.84585 8.76429C9.00176 8.60598 9.03593 8.35664 9.19237 8.19873C9.32559 8.06417 9.52782 8.01652 9.66223 7.88304C9.808 7.73821 9.85886 7.52597 9.9535 7.3495C10.0248 7.21669 10.1612 7.10817 10.2214 6.97455C10.4015 6.57423 9.91492 6.60494 9.68319 6.55528Z" fill="#6E7B94"/>
<path d="M6.3183 0C2.82878 0 0 2.82878 0 6.3183C0 9.80781 2.82878 12.6366 6.3183 12.6366C9.80781 12.6366 12.6366 9.80781 12.6366 6.3183C12.6366 2.82878 9.80781 0 6.3183 0ZM8.42519 11.7037C8.27583 11.6445 8.11138 11.6237 7.95346 11.6536C7.72134 11.6975 7.47773 11.8361 7.26523 11.7326C7.05472 11.6303 7.01227 11.3253 7.12734 11.1213C7.2424 10.9173 7.46465 10.7988 7.68476 10.7191C7.53513 10.598 7.30594 10.6542 7.15083 10.7684C6.99572 10.8824 6.87999 11.0441 6.72195 11.154C6.5639 11.2638 6.32897 11.3075 6.18935 11.1749C6.18468 11.2843 6.05693 11.3469 5.94748 11.3465C5.83802 11.3461 5.7295 11.3075 5.62111 11.322C5.47468 11.3415 5.35535 11.4567 5.29047 11.5894C5.22961 11.7141 5.20878 11.8537 5.19103 11.9916C2.53939 11.4655 0.533933 9.12211 0.533933 6.3183C0.533933 3.12871 3.12885 0.533933 6.3183 0.533933C7.47306 0.533933 8.5488 0.875383 9.45275 1.46071C9.43526 1.55201 9.42885 1.64398 9.44447 1.73582C9.48025 1.94725 9.67166 2.14868 9.88337 2.11384L9.92208 1.9602C10.1893 2.01399 10.417 2.22997 10.4848 2.494C10.4447 2.52068 10.4131 2.5583 10.3937 2.6024C10.3744 2.6465 10.368 2.69523 10.3755 2.74281C10.7004 2.80382 10.9097 3.13752 10.9647 3.46349C11.0197 3.78946 10.9616 4.1229 10.9654 4.45353C10.9713 4.97345 11.1814 5.54489 11.6552 5.75887C11.787 5.8184 11.9442 5.84216 12.078 5.79704C12.0934 5.96897 12.1027 6.14263 12.1027 6.31843C12.1027 8.76451 10.5755 10.8594 8.42519 11.7037Z" fill="#6E7B94"/>
</svg>
