<svg width="21" height="15" viewBox="0 0 21 15" fill="none" xmlns="http://www.w3.org/2000/svg">
<path d="M19.9609 14.5451H8.28384C7.72475 14.5451 7.27152 14.0856 7.27152 13.5187C7.27152 12.9518 7.72475 12.4922 8.28384 12.4922H19.9733C20.5324 12.4922 20.9856 12.9518 20.9856 13.5187C20.9856 14.0856 20.5324 14.5451 19.9733 14.5451H19.9609Z" fill="#6E7B94"/>
<path d="M19.961 8.55123H11.8877C11.4971 8.59491 11.1162 8.40818 10.9074 8.07058C10.6985 7.73299 10.6985 7.30402 10.9074 6.96642C11.1162 6.62883 11.4971 6.44209 11.8877 6.48577L19.9733 6.48577C20.4926 6.54383 20.8857 6.98875 20.8857 7.5185C20.8857 8.04825 20.4926 8.49317 19.9733 8.55123H19.961Z" fill="#6E7B94"/>
<path d="M19.9611 2.55374H15.4555C14.9362 2.49568 14.5431 2.05076 14.5431 1.52101C14.5431 0.991264 14.9362 0.546341 15.4555 0.488281H19.9611C20.4803 0.546341 20.8734 0.991264 20.8734 1.52101C20.8734 2.05076 20.4803 2.49568 19.9611 2.55374Z" fill="#6E7B94"/>
<path d="M3.33166 14.6938C3.53298 14.8894 3.80433 15 4.09026 15C4.37474 15 4.64754 14.8894 4.84887 14.6938L12.7253 1.77947C13.144 1.37261 13.144 0.712001 12.7253 0.305143C12.3066 -0.101714 11.6267 -0.101714 11.2081 0.305143L3.78025 12.207L1.83122 10.3144C1.41253 9.90617 0.734166 9.90617 0.314018 10.3144C-0.104672 10.7227 -0.104672 11.3805 0.314018 11.7888L3.33166 14.6938Z" fill="#6E7B94"/>
</svg>
