<svg width="16" height="17" viewBox="0 0 16 17" fill="none" xmlns="http://www.w3.org/2000/svg">
<path fill-rule="evenodd" clip-rule="evenodd" d="M14.6782 5.17143L14.1925 4.32857C13.7815 3.61539 12.8709 3.36935 12.1567 3.77857V3.77857C11.8168 3.97883 11.4111 4.03565 11.0293 3.93649C10.6474 3.83734 10.3206 3.59035 10.121 3.25C9.99264 3.03367 9.92364 2.78727 9.92103 2.53571V2.53571C9.93261 2.13241 9.78046 1.74159 9.49923 1.45229C9.218 1.16299 8.83164 0.999834 8.42817 1H7.4496C7.05433 0.999996 6.67534 1.15751 6.39651 1.43768C6.11768 1.71785 5.96199 2.09759 5.96389 2.49286V2.49286C5.95217 3.30896 5.28722 3.96437 4.47103 3.96429C4.21948 3.96167 3.97308 3.89268 3.75674 3.76429V3.76429C3.04258 3.35507 2.13195 3.6011 1.72103 4.31429L1.1996 5.17143C0.789183 5.88372 1.03187 6.79379 1.74246 7.20714V7.20714C2.20435 7.47382 2.4889 7.96665 2.4889 8.5C2.4889 9.03335 2.20435 9.52619 1.74246 9.79286V9.79286C1.03277 10.2034 0.789821 11.1113 1.1996 11.8214V11.8214L1.69246 12.6714C1.88499 13.0188 2.20802 13.2752 2.59008 13.3838C2.97213 13.4924 3.38171 13.4442 3.72817 13.25V13.25C4.06877 13.0513 4.47464 12.9968 4.85557 13.0988C5.2365 13.2007 5.56093 13.4506 5.75674 13.7929C5.88514 14.0092 5.95413 14.2556 5.95674 14.5071V14.5071C5.95674 15.3316 6.62512 16 7.4496 16H8.42817C9.24987 16 9.9171 15.336 9.92103 14.5143V14.5143C9.91912 14.1178 10.0758 13.7369 10.3562 13.4566C10.6365 13.1762 11.0174 13.0195 11.4139 13.0214C11.6648 13.0281 11.9102 13.0969 12.1282 13.2214V13.2214C12.8405 13.6318 13.7505 13.3892 14.1639 12.6786V12.6786L14.6782 11.8214C14.8772 11.4797 14.9319 11.0728 14.83 10.6907C14.7281 10.3086 14.4781 9.98291 14.1353 9.78571V9.78571C13.7925 9.58852 13.5425 9.26281 13.4406 8.88072C13.3388 8.49863 13.3934 8.09168 13.5925 7.75C13.7219 7.52399 13.9093 7.33659 14.1353 7.20714V7.20714C14.8416 6.79401 15.0838 5.88926 14.6782 5.17857V5.17857V5.17143Z" stroke="#6E7B94" stroke-linecap="round" stroke-linejoin="round"/>
<circle opacity="0.4" cx="7.94252" cy="8.49953" r="2.05714" stroke="#6E7B94" stroke-linecap="round" stroke-linejoin="round"/>
</svg>
