<svg width="14" height="15" viewBox="0 0 14 15" fill="none" xmlns="http://www.w3.org/2000/svg">
<path d="M13.795 6.45478L8.19499 0.227894C8.09709 0.119072 7.97237 0.0449667 7.83661 0.0149472C7.70084 -0.0150722 7.56011 0.000341661 7.43222 0.0592403C7.30433 0.118139 7.19501 0.217878 7.11809 0.345848C7.04117 0.473818 7.0001 0.624274 7.00007 0.778195V3.53748C5.08786 3.73425 3.31049 4.71737 2.0158 6.29446C0.721115 7.87155 0.00229024 9.92909 0 12.0644V13.232C0.0001105 13.3935 0.0454373 13.5511 0.129693 13.6827C0.213949 13.8143 0.332958 13.9136 0.470213 13.9666C0.607468 14.0196 0.756165 14.0239 0.89568 13.9787C1.0352 13.9335 1.15861 13.8412 1.24881 13.7146C1.93461 12.8077 2.77606 12.062 3.724 11.5208C4.67194 10.9797 5.70737 10.6541 6.76977 10.563C6.80477 10.5583 6.89227 10.5505 7.00007 10.5427V13.232C7.0001 13.3859 7.04117 13.5363 7.11809 13.6643C7.19501 13.7923 7.30433 13.892 7.43222 13.9509C7.56011 14.0098 7.70084 14.0252 7.83661 13.9952C7.97237 13.9652 8.09709 13.8911 8.19499 13.7823L13.795 7.55538C13.9263 7.40942 14 7.21148 14 7.00508C14 6.79869 13.9263 6.60075 13.795 6.45478ZM8.40009 11.353V9.72934C8.40009 9.52291 8.32634 9.32493 8.19506 9.17896C8.06378 9.03299 7.88574 8.95098 7.70008 8.95098C7.52158 8.95098 6.79287 8.9899 6.60667 9.01715C4.72005 9.21043 2.92422 10.0074 1.43642 11.3118C1.60529 9.59503 2.3377 8.00788 3.49343 6.8542C4.64915 5.70053 6.14696 5.0614 7.70008 5.05918C7.88574 5.05918 8.06378 4.97717 8.19506 4.8312C8.32634 4.68523 8.40009 4.48725 8.40009 4.28082V2.65716L12.3103 7.00508L8.40009 11.353Z" fill="#6E7B94"/>
</svg>
