<svg width="17" height="17" viewBox="0 0 17 17" fill="none" xmlns="http://www.w3.org/2000/svg">
<path d="M15.7697 7.91082L9.77397 1.24399C9.66916 1.12748 9.53563 1.04814 9.39027 1.016C9.24491 0.983863 9.09425 1.00037 8.95732 1.06343C8.82039 1.12649 8.70335 1.23327 8.621 1.37028C8.53864 1.50729 8.49467 1.66838 8.49464 1.83318V4.78741C6.44732 4.99808 4.54438 6.05066 3.15822 7.73917C1.77206 9.42768 1.00245 11.6306 1 13.9168V15.1668C1.00012 15.3398 1.04865 15.5085 1.13886 15.6494C1.22907 15.7903 1.35648 15.8966 1.50343 15.9534C1.65039 16.0102 1.80959 16.0147 1.95896 15.9663C2.10833 15.918 2.24047 15.8191 2.33704 15.6835C3.07129 14.7126 3.97219 13.9142 4.98711 13.3348C6.00202 12.7555 7.1106 12.4068 8.24807 12.3093C8.28554 12.3043 8.37922 12.2959 8.49464 12.2876V15.1668C8.49467 15.3316 8.53864 15.4927 8.621 15.6297C8.70335 15.7667 8.82039 15.8735 8.95732 15.9366C9.09425 15.9996 9.24491 16.0161 9.39027 15.984C9.53563 15.9519 9.66916 15.8725 9.77397 15.756L15.7697 9.08918C15.9102 8.9329 15.9891 8.72098 15.9891 8.5C15.9891 8.27903 15.9102 8.0671 15.7697 7.91082ZM9.99357 13.1551V11.4167C9.99357 11.1957 9.91461 10.9838 9.77405 10.8275C9.6335 10.6712 9.44287 10.5834 9.2441 10.5834C9.05299 10.5834 8.2728 10.6251 8.07344 10.6542C6.05353 10.8612 4.13082 11.7145 2.5379 13.1109C2.7187 11.2729 3.50286 9.57365 4.74024 8.33846C5.97762 7.10328 7.58125 6.41899 9.2441 6.41662C9.44287 6.41662 9.6335 6.32882 9.77405 6.17253C9.91461 6.01625 9.99357 5.80428 9.99357 5.58326V3.84489L14.1801 8.5L9.99357 13.1551Z" fill="#6E7B94" stroke="white" stroke-width="0.5"/>
</svg>
