<svg width="21" height="16" viewBox="0 0 21 16" fill="none" xmlns="http://www.w3.org/2000/svg">
<path fill-rule="evenodd" clip-rule="evenodd" d="M3.18333 6.64512C2.49411 6.42785 1.89417 5.99248 1.47389 5.4046C1.05361 4.81672 0.83577 4.10819 0.853178 3.38574C0.870586 2.6633 1.1223 1.96607 1.57041 1.39912C2.01851 0.832167 2.63872 0.426196 3.33761 0.24237C4.03649 0.0585428 4.77619 0.106819 5.44525 0.379924C6.11431 0.65303 6.6765 1.13617 7.04711 1.75656C7.41772 2.37694 7.57668 3.10097 7.50004 3.81955C7.4234 4.53813 7.11531 5.21234 6.62219 5.7406L8.0734 8.52815C8.55055 8.45956 9.05083 8.49495 9.54147 8.64964C10.0321 8.80432 10.4622 9.06225 10.8138 9.3921L13.6013 7.94089C13.4914 7.16228 13.6603 6.36988 14.0782 5.70376C14.496 5.03764 15.1359 4.54068 15.8847 4.30073C16.6336 4.06077 17.4431 4.09327 18.1703 4.39248C18.8975 4.69169 19.4954 5.23834 19.8586 5.93581C20.2217 6.63328 20.3265 7.43667 20.1545 8.20397C19.9826 8.97127 19.5449 9.65308 18.9189 10.1289C18.2928 10.6047 17.5188 10.8439 16.7334 10.8041C15.9481 10.7644 15.2021 10.4483 14.6273 9.91169L11.8398 11.3629C11.9182 11.9204 11.8542 12.4887 11.6537 13.0148C11.4532 13.5408 11.1227 14.0076 10.693 14.3714C10.2634 14.7352 9.7486 14.9843 9.19667 15.0953C8.64475 15.2064 8.07368 15.1759 7.53673 15.0066C6.99979 14.8373 6.51447 14.5348 6.12605 14.1273C5.73763 13.7197 5.45876 13.2204 5.31546 12.676C5.17216 12.1315 5.1691 11.5597 5.30655 11.0137C5.44401 10.4678 5.71751 9.96551 6.10154 9.55382L4.65139 6.76661C4.15911 6.83648 3.65743 6.79497 3.18333 6.64512Z" fill="#6E7B94"/>
</svg>
