<svg width="18" height="17" viewBox="0 0 18 17" fill="none" xmlns="http://www.w3.org/2000/svg">
<path fill-rule="evenodd" clip-rule="evenodd" d="M9.48895 1.36841L11.4147 5.24835C11.5102 5.44416 11.6958 5.57997 11.9113 5.61234L16.2208 6.23689C16.3953 6.25979 16.5532 6.35217 16.6598 6.49271C16.8604 6.75406 16.8304 7.12673 16.5895 7.35255L13.4676 10.3845C13.3097 10.5321 13.2386 10.7516 13.2797 10.9632L14.0321 15.2372C14.0842 15.5925 13.8434 15.9225 13.4905 15.981C13.3436 16.0039 13.1936 15.9802 13.0618 15.9138L9.21813 13.8997C9.02548 13.7946 8.79334 13.7946 8.60148 13.8997L4.73259 15.9281C4.40966 16.0907 4.01803 15.9683 3.84274 15.6541C3.77563 15.527 3.75116 15.3801 3.77484 15.2372L4.5273 10.9632C4.56362 10.7516 4.49335 10.5345 4.33938 10.3845L1.19295 7.35176C0.936342 7.09594 0.935552 6.68063 1.19137 6.42323C1.19216 6.42323 1.19216 6.42244 1.19295 6.42165C1.29796 6.32611 1.42824 6.26137 1.56879 6.23689L5.87825 5.61234C6.09223 5.5776 6.27778 5.44179 6.37489 5.24835L8.30065 1.36841C8.37724 1.21049 8.51462 1.08969 8.68122 1.03442C8.84782 0.978361 9.03021 0.990994 9.18813 1.07074C9.31762 1.13549 9.42263 1.23971 9.48895 1.36841Z" stroke="#6E7B94" stroke-width="1.5" stroke-linecap="round" stroke-linejoin="round"/>
</svg>
