<svg width="26" height="29" viewBox="0 0 26 29" fill="none" xmlns="http://www.w3.org/2000/svg">
<path fill-rule="evenodd" clip-rule="evenodd" d="M23.5586 16.3146C25.0797 19.5533 24.0676 22.3582 20.8288 23.8793L15.6154 26.3279C12.3684 27.8529 9.56351 26.8407 8.04239 23.602L3.13772 13.159C1.6166 9.92025 1.90997 7.45293 5.14871 5.93181L6.95811 5.08201C7.60825 4.77666 8.36421 4.79523 8.99857 5.13213L10.3409 5.84295C10.9756 6.17843 11.7309 6.19699 12.3813 5.89308L13.1084 5.5516C16.3554 4.0266 18.3295 5.11636 19.8817 8.42119L23.5586 16.3146Z" stroke="#6E7B94" stroke-width="1.5" stroke-linecap="round" stroke-linejoin="round"/>
<path opacity="0.4" fill-rule="evenodd" clip-rule="evenodd" d="M8.73241 12.7821C9.73742 12.31 10.1643 11.1262 9.69247 10.1216C9.22045 9.11655 8.03697 8.68948 7.03196 9.16149C6.02735 9.63332 5.59989 10.817 6.0719 11.822C6.54373 12.8266 7.7278 13.2539 8.73241 12.7821Z" stroke="#6E7B94" stroke-linecap="round" stroke-linejoin="round"/>
</svg>
