<svg width="205" height="168" viewBox="0 0 205 168" fill="none" xmlns="http://www.w3.org/2000/svg">
<path d="M204.103 94.4295C204.112 104.611 201.979 114.681 197.841 123.996C193.703 133.31 187.651 141.664 180.073 148.52C177.966 150.43 175.75 152.217 173.436 153.875C170.467 156.003 167.341 157.906 164.086 159.569H164.052C163.358 159.931 162.652 160.275 161.941 160.608C161.617 160.766 161.299 160.913 160.969 161.06C158.91 161.998 156.798 162.84 154.633 163.585C152.927 164.15 151.175 164.715 149.406 165.178C139.203 167.873 128.537 168.372 118.124 166.641C116.89 166.438 115.673 166.206 114.462 165.941L113.438 165.709C110.347 164.992 107.308 164.075 104.338 162.964C102.612 162.32 100.921 161.614 99.2644 160.846C98.6217 160.546 97.979 160.241 97.3477 159.925C96.9154 159.71 96.4889 159.49 96.0623 159.27C84.4897 153.234 74.7403 144.252 67.8124 133.243C60.8845 122.235 57.0271 109.595 56.6351 96.6195C56.2431 83.6435 59.3306 70.7973 65.5815 59.3961C71.8324 47.9949 81.0221 38.4486 92.2095 31.7345C103.397 25.0205 116.18 21.38 129.25 21.1859C142.32 20.9918 155.207 24.2511 166.592 30.6299C177.976 37.0088 187.449 46.278 194.04 57.4884C200.632 68.6989 204.105 81.4477 204.103 94.4295Z" fill="url(#paint0_linear)"/>
<path d="M112.35 44.7999H5.25C2.35036 44.7999 0 42.4495 0 39.5499V5.25C0 2.35036 2.35036 0 5.25 0H112.35C115.25 0 117.6 2.35036 117.6 5.25V39.5499C117.6 42.4495 115.249 44.7999 112.35 44.7999Z" fill="#EDF6FF"/>
<path d="M25.2958 30.5353H13.9043C11.0152 30.5353 8.66479 28.185 8.66479 25.2958V13.9043C8.66479 11.0152 11.0152 8.66479 13.9043 8.66479H25.2958C28.185 8.66479 30.5353 11.0152 30.5353 13.9043V25.2958C30.5353 28.185 28.185 30.5353 25.2958 30.5353ZM13.9043 13.7353C13.8111 13.7353 13.7353 13.8111 13.7353 13.9043V25.2958C13.7353 25.389 13.8111 25.4648 13.9043 25.4648H25.2958C25.389 25.4648 25.4648 25.389 25.4648 25.2958V13.9043C25.4648 13.8111 25.389 13.7353 25.2958 13.7353H13.9043Z" fill="#817D84"/>
<path d="M58.9749 22.4002H41.8248C40.3751 22.4002 39.1998 21.2248 39.1998 19.7752V13.825C39.1998 12.3753 40.3751 11.2 41.8248 11.2H58.9749C60.4245 11.2 61.5999 12.3753 61.5999 13.825V19.7748C61.5999 21.2248 60.4249 22.4002 58.9749 22.4002Z" fill="#C9DBFD"/>
<path d="M112.191 0H104.417C107.404 0 109.825 2.42123 109.825 5.40848V39.3914C109.825 42.3783 107.404 44.7999 104.417 44.7999H112.191C115.178 44.7999 117.6 42.3783 117.6 39.3914V5.40848C117.6 2.42123 115.178 0 112.191 0V0Z" fill="#D8E2F3"/>
<path d="M58.8958 11.2H51.1212C52.6149 11.2 53.8256 12.4107 53.8256 13.904V19.6954C53.8256 21.1891 52.6149 22.3995 51.1212 22.3995H58.8958C60.3891 22.3995 61.5999 21.1887 61.5999 19.6954V13.904C61.5999 12.4107 60.3891 11.2 58.8958 11.2Z" fill="#AECAFC"/>
<path d="M78.3999 36.1351H39.2001C37.8 36.1351 36.665 35.0001 36.665 33.6C36.665 32.1999 37.8 31.0649 39.2001 31.0649H78.3999C79.8 31.0649 80.935 32.1999 80.935 33.6C80.9353 35.0001 79.8 36.1351 78.3999 36.1351Z" fill="#817D84"/>
<path d="M106.4 36.1351H89.6001C88.2 36.1351 87.065 35.0001 87.065 33.6C87.065 32.1999 88.2 31.0649 89.6001 31.0649H106.4C107.8 31.0649 108.935 32.1999 108.935 33.6C108.935 35.0001 107.8 36.1351 106.4 36.1351Z" fill="#817D84"/>
<path d="M112.35 100.8H5.25C2.35036 100.8 0 98.4495 0 95.5499V61.25C0 58.3504 2.35036 56 5.25 56H112.35C115.25 56 117.6 58.3504 117.6 61.25V95.5499C117.6 98.4495 115.249 100.8 112.35 100.8Z" fill="#EDF6FF"/>
<path d="M25.2958 86.5353H13.9043C11.0152 86.5353 8.66479 84.1849 8.66479 81.2958V69.9043C8.66479 67.0152 11.0152 64.6648 13.9043 64.6648H25.2958C28.185 64.6648 30.5353 67.0152 30.5353 69.9043V81.2958C30.5353 84.1849 28.185 86.5353 25.2958 86.5353ZM13.9043 69.735C13.8111 69.735 13.7353 69.8108 13.7353 69.904V81.2955C13.7353 81.3887 13.8111 81.4645 13.9043 81.4645H25.2958C25.389 81.4645 25.4648 81.3887 25.4648 81.2955V69.904C25.4648 69.8108 25.389 69.735 25.2958 69.735H13.9043Z" fill="#817D84"/>
<path d="M58.9749 78.3998H41.8248C40.3751 78.3998 39.1998 77.2245 39.1998 75.7748V69.8249C39.1998 68.3753 40.3751 67.2 41.8248 67.2H58.9749C60.4245 67.2 61.5999 68.3753 61.5999 69.8249V75.7748C61.5999 77.2248 60.4249 78.3998 58.9749 78.3998Z" fill="#C9DBFD"/>
<path d="M112.191 56H104.417C107.404 56 109.825 58.4216 109.825 61.4085V95.3914C109.825 98.3783 107.404 100.8 104.417 100.8H112.191C115.178 100.8 117.6 98.3783 117.6 95.3914V61.4085C117.6 58.4212 115.178 56 112.191 56Z" fill="#D8E2F3"/>
<path d="M58.8958 67.2H51.1212C52.6149 67.2 53.8256 68.4107 53.8256 69.9044V75.6958C53.8256 77.1894 52.6149 78.3998 51.1212 78.3998H58.8958C60.3891 78.3998 61.5999 77.1891 61.5999 75.6958V69.9044C61.5999 68.4107 60.3891 67.2 58.8958 67.2Z" fill="#AECAFC"/>
<path d="M78.3999 92.1351H39.2001C37.8 92.1351 36.665 91.0001 36.665 89.6C36.665 88.1999 37.8 87.0649 39.2001 87.0649H78.3999C79.8 87.0649 80.935 88.1999 80.935 89.6C80.9353 91.0001 79.8 92.1351 78.3999 92.1351Z" fill="#817D84"/>
<path d="M106.4 92.1351H89.6001C88.2 92.1351 87.065 91.0001 87.065 89.6C87.065 88.1999 88.2 87.0649 89.6001 87.0649H106.4C107.8 87.0649 108.935 88.1999 108.935 89.6C108.935 91.0001 107.8 92.1351 106.4 92.1351Z" fill="#817D84"/>
<path d="M168 164.377V146.259C168 136.793 161.95 128.74 153.506 125.755C151.239 124.954 131.764 128.355 131.764 128.355C131.764 128.355 112.29 124.953 110.023 125.755C101.579 128.739 95.529 136.793 95.529 146.259V164.377C95.529 166.378 97.1512 168 99.1525 168H164.376C166.378 168 168 166.378 168 164.377Z" fill="#E27F84"/>
<path d="M149.474 125.857L138.484 124.518C150.492 124.518 160.225 134.251 160.225 146.259V164.377C160.225 166.378 158.603 168 156.602 168H164.376C166.378 168 168 166.378 168 164.377V146.259C168 136.793 161.95 128.74 153.506 125.755L149.474 125.857Z" fill="#C9646D"/>
<path d="M127.332 111.984H136.198V130.794H127.332V111.984Z" fill="#F2CDBE"/>
<path d="M153.506 102.776C153.506 114.907 143.57 124.718 131.393 124.514C119.472 124.315 110.023 114.341 110.023 102.418V81.035C110.023 73.0301 116.513 66.5408 124.518 66.5408H139.012C147.017 66.5408 153.506 73.0301 153.506 81.035V102.776H153.506Z" fill="#F2CDBE"/>
<path d="M153.506 102.776C153.506 114.907 143.57 124.718 131.393 124.514C119.472 124.315 110.023 114.341 110.023 102.418V81.035C110.023 73.0301 116.513 66.5408 124.518 66.5408H139.012C147.017 66.5408 153.506 73.0301 153.506 81.035V102.776H153.506Z" fill="#F6E2C1"/>
<path d="M139.012 66.541H131.236C139.241 66.541 145.731 73.0303 145.731 81.0353V102.777C145.731 113.45 138.038 122.324 127.894 124.164C129.032 124.372 130.199 124.494 131.393 124.514C143.57 124.718 153.506 114.907 153.506 102.777V81.0353C153.506 73.0303 147.017 66.541 139.012 66.541Z" fill="#F2D0AC"/>
<path d="M146.208 60.514C146.242 60.1118 146.259 59.7049 146.259 59.2941C146.259 51.2891 139.769 44.7998 131.764 44.7998C123.76 44.7998 117.27 51.2891 117.27 59.2941C117.27 59.7049 117.287 60.1118 117.321 60.514V63.5115H146.258L146.208 60.514Z" fill="#FFE07D"/>
<path d="M146.259 59.2941C146.259 51.2891 139.769 44.7998 131.764 44.7998C130.417 44.7998 129.115 44.9875 127.877 45.3314C133.993 47.0307 138.484 52.6361 138.484 59.2941C138.484 59.7049 138.467 60.1118 138.433 60.514L138.484 63.5115H146.258L146.208 60.514C146.242 60.1118 146.259 59.7049 146.259 59.2941Z" fill="#F1CB86"/>
<path d="M139.012 59.2939H124.517C112.51 59.2939 102.776 69.0278 102.776 81.0352V84.6587C102.776 86.6599 104.398 88.2822 106.4 88.2822H117.27C123.785 88.2822 129.292 83.9831 131.118 78.0683C131.207 77.7822 131.465 77.5826 131.764 77.5826C132.064 77.5826 132.322 77.7822 132.411 78.0683C134.237 83.9831 139.744 88.2822 146.259 88.2822H157.129C159.131 88.2822 160.753 86.6599 160.753 84.6587V81.0352C160.753 69.0278 151.019 59.2939 139.012 59.2939Z" fill="#FFE07D"/>
<path d="M139.012 59.2939H131.237C143.245 59.2939 152.978 69.0278 152.978 81.0352V84.6587C152.978 86.6599 151.356 88.2822 149.355 88.2822H157.13C159.131 88.2822 160.753 86.6599 160.753 84.6587V81.0352C160.753 69.0278 151.019 59.2939 139.012 59.2939Z" fill="#F1CB86"/>
<path d="M141.427 139.012L139.012 168H124.518L122.102 139.012V124.518H141.427V139.012Z" fill="#D8E2F3"/>
<path d="M148.672 139.43L153.505 125.759C151.238 124.958 148.8 124.518 146.258 124.518H131.764L142.241 140.232C143.897 142.716 147.678 142.245 148.672 139.43Z" fill="#EDF6FF"/>
<path d="M110.025 125.76L114.857 139.431C115.852 142.245 119.632 142.717 121.288 140.233L131.765 124.519H117.271C114.729 124.518 112.292 124.959 110.025 125.76Z" fill="#EDF6FF"/>
<path d="M124.518 99.8762C123.117 99.8762 121.982 98.7412 121.982 97.3411V95.5292C121.982 94.1291 123.117 92.9941 124.518 92.9941C125.918 92.9941 127.053 94.1291 127.053 95.5292V97.3411C127.053 98.7412 125.918 99.8762 124.518 99.8762Z" fill="#828282"/>
<path d="M139.012 99.8762C137.612 99.8762 136.477 98.7412 136.477 97.3411V95.5292C136.477 94.1291 137.612 92.9941 139.012 92.9941C140.412 92.9941 141.547 94.1291 141.547 95.5292V97.3411C141.547 98.7412 140.412 99.8762 139.012 99.8762Z" fill="#828282"/>
<defs>
<linearGradient id="paint0_linear" x1="130.655" y1="29.1313" x2="128.167" y2="173.492" gradientUnits="userSpaceOnUse">
<stop stop-color="white" stop-opacity="0"/>
<stop offset="1" stop-color="#64B5F6" stop-opacity="0.6"/>
</linearGradient>
</defs>
</svg>
