<svg width="15" height="14" viewBox="0 0 15 14" fill="none" xmlns="http://www.w3.org/2000/svg">
<path fill-rule="evenodd" clip-rule="evenodd" d="M14.5833 1.87516C14.5833 1.5989 14.4735 1.33394 14.2782 1.13859C14.0828 0.943243 13.8179 0.833496 13.5416 0.833496H1.04158C0.765317 0.833496 0.500364 0.943243 0.305014 1.13859C0.109663 1.33394 -8.2016e-05 1.5989 -8.2016e-05 1.87516C-8.2016e-05 2.15143 0.109663 2.41638 0.305014 2.61173C0.500364 2.80708 0.765317 2.91683 1.04158 2.91683H13.5416C13.8179 2.91683 14.0828 2.80708 14.2782 2.61173C14.4735 2.41638 14.5833 2.15143 14.5833 1.87516ZM14.5833 7.0835C14.5833 6.80723 14.4735 6.54228 14.2782 6.34693C14.0828 6.15158 13.8179 6.04183 13.5416 6.04183H1.04158C0.765317 6.04183 0.500364 6.15158 0.305014 6.34693C0.109663 6.54228 -8.2016e-05 6.80723 -8.2016e-05 7.0835C-8.2016e-05 7.35976 0.109663 7.62471 0.305014 7.82007C0.500364 8.01542 0.765317 8.12516 1.04158 8.12516H13.5416C13.8179 8.12516 14.0828 8.01542 14.2782 7.82007C14.4735 7.62471 14.5833 7.35976 14.5833 7.0835ZM8.33325 12.2918C8.33325 12.0156 8.2235 11.7506 8.02815 11.5553C7.8328 11.3599 7.56785 11.2502 7.29158 11.2502H1.04158C0.765317 11.2502 0.500364 11.3599 0.305014 11.5553C0.109663 11.7506 -8.2016e-05 12.0156 -8.2016e-05 12.2918C-8.2016e-05 12.5681 0.109663 12.833 0.305014 13.0284C0.500364 13.2238 0.765317 13.3335 1.04158 13.3335H7.29158C7.56785 13.3335 7.8328 13.2238 8.02815 13.0284C8.2235 12.833 8.33325 12.5681 8.33325 12.2918Z" fill="#022F96"/>
</svg>
