<svg width="17" height="14" viewBox="0 0 17 14" fill="none" xmlns="http://www.w3.org/2000/svg">
<path opacity="0.4" d="M9.88721 1.1875V3.0025" stroke="#6E7B94" stroke-width="1.5" stroke-linecap="round" stroke-linejoin="round"/>
<path opacity="0.4" d="M9.88721 11.3193V12.8373" stroke="#6E7B94" stroke-width="1.5" stroke-linecap="round" stroke-linejoin="round"/>
<path opacity="0.4" d="M9.88721 8.7427V5.12695" stroke="#6E7B94" stroke-width="1.5" stroke-linecap="round" stroke-linejoin="round"/>
<path fill-rule="evenodd" clip-rule="evenodd" d="M13.5266 13C14.8931 13 16 11.9069 16 10.5574V8.61298C15.0957 8.61298 14.3675 7.89378 14.3675 7.00077C14.3675 6.10776 15.0957 5.38779 16 5.38779L15.9992 3.44264C15.9992 2.09309 14.8916 1 13.5258 1H3.47419C2.10842 1 1.00078 2.09309 1.00078 3.44264L1 5.45114C1.90426 5.45114 2.63251 6.10776 2.63251 7.00077C2.63251 7.89378 1.90426 8.61298 1 8.61298V10.5574C1 11.9069 2.10685 13 3.4734 13H13.5266Z" stroke="#6E7B94" stroke-width="1.5" stroke-linecap="round" stroke-linejoin="round"/>
</svg>
