<svg width="20" height="20" viewBox="0 0 20 20" fill="none" xmlns="http://www.w3.org/2000/svg">
<path fill-rule="evenodd" clip-rule="evenodd" d="M10.7524 1.6665C10.7524 1.25229 10.4166 0.916504 10.0024 0.916504C9.58816 0.916504 9.25237 1.25229 9.25237 1.6665V9.24446H1.66663C1.25241 9.24446 0.916626 9.58025 0.916626 9.99446C0.916626 10.4087 1.25241 10.7445 1.66663 10.7445H9.25237V18.3222C9.25237 18.7364 9.58816 19.0722 10.0024 19.0722C10.4166 19.0722 10.7524 18.7364 10.7524 18.3222V10.7445H18.3382C18.7524 10.7445 19.0882 10.4087 19.0882 9.99446C19.0882 9.58025 18.7524 9.24446 18.3382 9.24446H10.7524V1.6665Z" fill="white"/>
</svg>
