<svg width="20" height="25" viewBox="0 0 20 25" fill="none" xmlns="http://www.w3.org/2000/svg">
<path fill-rule="evenodd" clip-rule="evenodd" d="M8.71625 3.68C8.46625 4.94625 8.04625 6.84625 6.50875 8.38375C6.36875 8.52375 6.215 8.67125 6.0525 8.82875C4.625 10.205 2.5 12.255 2.5 15.625C2.5 17.4538 3.2875 19.1875 4.50125 20.4688C5.7225 21.7575 7.28625 22.5 8.75 22.5H15C15.44 22.5 15.8075 22.3875 16.025 22.2412C16.2062 22.1212 16.25 22.0163 16.25 21.875C16.25 21.735 16.2062 21.6288 16.025 21.5088C15.8075 21.3638 15.44 21.25 15 21.25H13.75C13.4185 21.25 13.1005 21.1183 12.8661 20.8839C12.6317 20.6495 12.5 20.3315 12.5 20C12.5 19.6685 12.6317 19.3505 12.8661 19.1161C13.1005 18.8817 13.4185 18.75 13.75 18.75H15.625C16.065 18.75 16.4325 18.6375 16.65 18.4912C16.8312 18.3712 16.875 18.2663 16.875 18.125C16.875 17.985 16.8312 17.8788 16.65 17.7588C16.4325 17.6138 16.065 17.5 15.625 17.5H14.375C14.0435 17.5 13.7255 17.3683 13.4911 17.1339C13.2567 16.8995 13.125 16.5815 13.125 16.25C13.125 15.9185 13.2567 15.6005 13.4911 15.3661C13.7255 15.1317 14.0435 15 14.375 15H16.25C16.69 15 17.0575 14.8875 17.275 14.7413C17.4562 14.6213 17.5 14.5162 17.5 14.375C17.5 14.235 17.4562 14.1287 17.275 14.0087C17.0575 13.8637 16.69 13.75 16.25 13.75H15C14.6685 13.75 14.3505 13.6183 14.1161 13.3839C13.8817 13.1495 13.75 12.8315 13.75 12.5C13.75 12.1685 13.8817 11.8505 14.1161 11.6161C14.3505 11.3817 14.6685 11.25 15 11.25H16.25C16.69 11.25 17.0575 11.1375 17.275 10.9913C17.4562 10.8713 17.5 10.7662 17.5 10.625C17.5 10.485 17.4562 10.3787 17.275 10.2587C17.0575 10.1137 16.69 10 16.25 10H10.625C10.4263 10.0001 10.2304 9.95272 10.0536 9.86192C9.87681 9.77113 9.72423 9.63949 9.60849 9.47793C9.49276 9.31637 9.41722 9.12954 9.38813 8.93294C9.35905 8.73635 9.37726 8.53565 9.44125 8.3475V8.34625L9.44625 8.33375L9.4625 8.28375L9.52875 8.07125C9.58375 7.88375 9.66 7.6125 9.73875 7.28625C9.92882 6.52164 10.0452 5.74057 10.0862 4.95375C10.1187 4.0975 10.005 3.44125 9.77625 3.04125C9.64125 2.80375 9.4375 2.59 8.96375 2.5225C8.90375 2.7275 8.84875 3.0075 8.76875 3.4175L8.71625 3.68ZM12.2537 7.5C12.4062 6.8025 12.5512 5.93375 12.585 5.04625C12.6225 4.0275 12.5225 2.80875 11.9475 1.8025C11.31 0.6825 10.1825 0 8.625 0C8.1475 0 7.7 0.1575 7.3375 0.475C7.00875 0.7625 6.82125 1.12 6.705 1.4075C6.52 1.86625 6.405 2.46125 6.30875 2.96375L6.26375 3.195C6.02125 4.42875 5.70375 5.65375 4.74125 6.61625C4.63125 6.72625 4.4975 6.85375 4.345 6.9975C2.94125 8.3275 0 11.1163 0 15.625C0 18.1712 1.0875 20.5 2.68625 22.1875C4.2775 23.8675 6.46375 25 8.75 25H15C15.81 25 16.6925 24.8 17.4125 24.3213C18.1687 23.8163 18.75 22.9837 18.75 21.875C18.75 21.2887 18.5875 20.7812 18.325 20.3563C18.9362 19.8438 19.375 19.09 19.375 18.125C19.375 17.5387 19.2125 17.03 18.95 16.6075C19.5612 16.095 20 15.34 20 14.375C20 13.6137 19.7275 12.9838 19.3112 12.5C19.7262 12.0162 20 11.3863 20 10.625C20 9.515 19.4187 8.68375 18.6625 8.17875C17.9425 7.69875 17.06 7.5 16.25 7.5H12.2537Z" fill="#6E7B94"/>
</svg>
