<svg width="21" height="20" viewBox="0 0 21 20" fill="none" xmlns="http://www.w3.org/2000/svg">
<path d="M0.0869764 19.1926C-0.0502873 19.401 -0.022883 19.6699 0.153628 19.8464C0.330219 20.0229 0.599128 20.0503 0.807732 19.9131C2.15688 19.0253 3.38579 18.2771 4.91954 16.7438L6.4697 15.1942C6.58808 15.0758 6.58808 14.8839 6.4697 14.7656C6.35127 14.6473 6.15936 14.6473 6.04097 14.7656L4.49081 16.3153C3.03487 17.7708 1.82096 18.5207 0.822606 19.1777C1.47024 18.1939 2.2218 16.9743 3.68594 15.5106L7.74197 11.4559L8.54692 12.2606L7.0413 13.7657C6.92292 13.8841 6.92292 14.0759 7.0413 14.1942C7.15973 14.3126 7.35164 14.3126 7.47003 14.1942L8.97561 12.6892L12.1713 15.8838C12.5708 16.2831 13.242 16.1871 13.5118 15.6908C14.2995 14.2423 14.5119 12.9319 14.5512 12.0877C14.587 11.3209 14.308 10.5697 13.7846 10.0109L17.4147 6.13323C17.9684 6.59123 18.7979 6.56481 19.3202 6.04268L19.5922 5.77079C20.145 5.21816 20.145 4.31888 19.5922 3.76625L18.3319 2.50644C18.2136 2.38817 18.0216 2.38805 17.9032 2.50648C17.7848 2.62483 17.7848 2.81667 17.9032 2.93502L19.1635 4.1948C19.4799 4.51118 19.4799 5.02587 19.1635 5.34221L18.8915 5.61406C18.5752 5.93039 18.0602 5.93039 17.7438 5.61406C17.3866 5.25703 14.8409 2.7121 14.3906 2.26198C14.0751 1.94657 14.0752 1.4299 14.3906 1.11462L14.6626 0.842726C14.9781 0.527358 15.4949 0.527398 15.8103 0.842766L16.9029 1.93498C17.0213 2.05329 17.2132 2.05329 17.3316 1.93498C17.45 1.81659 17.45 1.62474 17.3316 1.50639L16.2391 0.414221C15.6865 -0.138128 14.7863 -0.138006 14.2339 0.414181L13.962 0.686032C13.4404 1.20747 13.4125 2.03672 13.8713 2.59093L9.99243 6.21982C9.43352 5.69669 8.68269 5.41809 7.91489 5.45348C7.07045 5.49284 5.75965 5.70505 4.31058 6.49256C3.81411 6.76235 3.71824 7.43345 4.11762 7.83266L7.31329 11.0273L3.25718 15.082C1.71842 16.6204 0.966822 17.8562 0.0869764 19.1926ZM14.2955 3.02416L16.9814 5.70913L13.3574 9.58026L10.4231 6.64699L14.2955 3.02416ZM4.54631 7.40412C4.43338 7.2913 4.46013 7.10115 4.6001 7.02507C5.94809 6.29251 7.16208 6.09537 7.9431 6.05901C8.57057 6.02963 9.18623 6.2677 9.63117 6.71245L13.2919 10.372C13.7366 10.8165 13.9749 11.4316 13.9456 12.0595C13.9092 12.8402 13.712 14.0538 12.9792 15.4014C12.9034 15.5405 12.7137 15.5689 12.6 15.4552C12.4005 15.2558 4.73919 7.59693 4.54631 7.40412Z" fill="#6E7B94"/>
</svg>
