<svg width="18" height="18" viewBox="0 0 18 18" fill="none" xmlns="http://www.w3.org/2000/svg">
<path opacity="0.6" fill-rule="evenodd" clip-rule="evenodd" d="M6.99992 2.00002C5.67385 2.00002 4.4021 2.52682 3.46443 3.46451C2.52676 4.40221 1.99998 5.674 1.99998 7.00011C1.99998 8.32621 2.52676 9.59801 3.46443 10.5357C4.4021 11.4734 5.67385 12.0002 6.99992 12.0002C8.32599 12.0002 9.59774 11.4734 10.5354 10.5357C11.4731 9.59801 11.9999 8.32621 11.9999 7.00011C11.9999 5.674 11.4731 4.40221 10.5354 3.46451C9.59774 2.52682 8.32599 2.00002 6.99992 2.00002ZM2.20579e-07 7.00011C2.10977e-06 5.89135 0.263372 4.79845 0.768423 3.81141C1.27347 2.82436 2.00576 1.97141 2.90497 1.32279C3.80419 0.674164 4.84461 0.248424 5.94057 0.0806274C7.03653 -0.0871696 8.15667 0.00777583 9.20875 0.357645C10.2608 0.707514 11.2148 1.3023 11.992 2.09302C12.7692 2.88374 13.3475 3.84778 13.6792 4.90575C14.0109 5.96372 14.0866 7.08536 13.9 8.1783C13.7134 9.27124 13.2698 10.3042 12.6059 11.1922L17.7068 16.2923C17.8944 16.4798 17.9999 16.7342 18 16.9994C18.0001 17.2647 17.8948 17.5191 17.7073 17.7068C17.5198 17.8944 17.2654 17.9999 17.0002 18C16.7349 18.0001 16.4805 17.8948 16.2928 17.7073L11.1929 12.6072C10.1524 13.3856 8.91582 13.8589 7.62158 13.9743C6.32734 14.0897 5.02653 13.8426 3.86477 13.2606C2.70301 12.6786 1.72616 11.7848 1.04359 10.6791C0.361022 9.57338 -0.000325922 8.29952 2.20579e-07 7.00011Z" fill="#6E7B94"/>
</svg>
