<svg width="17" height="17" viewBox="0 0 17 17" fill="none" xmlns="http://www.w3.org/2000/svg">
<path opacity="0.4" d="M1.04459 11.4688C1.04459 11.4688 1.16139 12.8984 1.18854 13.3492C1.22473 13.9538 1.45835 14.6292 1.84826 15.098C2.39858 15.7627 3.04678 15.9971 3.91215 15.9988C4.9297 16.0004 12.3289 16.0004 13.3465 15.9988C14.2118 15.9971 14.8601 15.7627 15.4104 15.098C15.8003 14.6292 16.0339 13.9538 16.0709 13.3492C16.0972 12.8984 16.214 11.4688 16.214 11.4688" stroke="#6E7B94" stroke-width="1.5" stroke-linecap="round" stroke-linejoin="round"/>
<path d="M5.72672 3.12147V2.81629C5.72672 1.81272 6.53944 1 7.543 1H9.66694C10.6697 1 11.4832 1.81272 11.4832 2.81629L11.484 3.12147" stroke="#6E7B94" stroke-width="1.5" stroke-linecap="round" stroke-linejoin="round"/>
<path d="M8.60496 12.457V11.3926" stroke="#6E7B94" stroke-width="1.5" stroke-linecap="round" stroke-linejoin="round"/>
<path fill-rule="evenodd" clip-rule="evenodd" d="M1 5.63829V8.49023C2.57774 9.53081 4.46806 10.2596 6.54264 10.5484C6.79106 9.64268 7.6079 8.97885 8.60077 8.97885C9.57801 8.97885 10.4113 9.64268 10.6433 10.5566C12.7261 10.2679 14.6238 9.53903 16.2098 8.49023V5.63829C16.2098 4.24482 15.0886 3.1228 13.6951 3.1228H3.5229C2.12942 3.1228 1 4.24482 1 5.63829Z" stroke="#6E7B94" stroke-width="1.5" stroke-linecap="round" stroke-linejoin="round"/>
</svg>
