<svg width="10" height="10" viewBox="0 0 10 10" fill="none" xmlns="http://www.w3.org/2000/svg">
<path opacity="0.4" fill-rule="evenodd" clip-rule="evenodd" d="M1.34044 0.219725C1.04758 -0.0731986 0.572708 -0.073248 0.279784 0.219615C-0.01314 0.512477 -0.0131894 0.987351 0.279673 1.28027L3.93803 4.9394L0.283421 8.59401C-0.00947219 8.8869 -0.00947219 9.36178 0.283421 9.65467C0.576314 9.94757 1.05119 9.94757 1.34408 9.65467L4.99858 6.00017L8.65744 9.65979C8.9503 9.95271 9.42518 9.95276 9.7181 9.6599C10.011 9.36704 10.0111 8.89217 9.71821 8.59924L6.05924 4.93951L9.71486 1.28389C10.0078 0.990998 10.0078 0.516124 9.71486 0.223231C9.42197 -0.0696626 8.94709 -0.0696626 8.6542 0.223231L4.99869 3.87874L1.34044 0.219725Z" fill="#6E7B94"/>
</svg>
