<svg width="107" height="107" viewBox="0 0 107 107" fill="none" xmlns="http://www.w3.org/2000/svg">
<g opacity="0.85">
<circle cx="3.46463" cy="3.46463" r="3.46463" fill="#0498C1"/>
<circle cx="3.46463" cy="23.3428" r="3.46463" fill="#0498C1"/>
<circle cx="3.46463" cy="43.2212" r="3.46463" fill="#0498C1"/>
<circle cx="3.46463" cy="63.0996" r="3.46463" fill="#0498C1"/>
<circle cx="3.46463" cy="82.9778" r="3.46463" fill="#0498C1"/>
<circle cx="3.46463" cy="102.856" r="3.46463" fill="#0498C1"/>
<circle cx="23.3429" cy="3.46463" r="3.46463" fill="#0498C1"/>
<circle cx="23.3429" cy="23.3428" r="3.46463" fill="#0498C1"/>
<circle cx="23.3429" cy="43.2212" r="3.46463" fill="#0498C1"/>
<circle cx="23.3429" cy="63.0996" r="3.46463" fill="#0498C1"/>
<circle cx="23.3429" cy="82.9778" r="3.46463" fill="#0498C1"/>
<circle cx="23.3429" cy="102.856" r="3.46463" fill="#0498C1"/>
<circle cx="43.2212" cy="3.46463" r="3.46463" fill="#0498C1"/>
<circle cx="43.2212" cy="23.3428" r="3.46463" fill="#0498C1"/>
<circle cx="43.2212" cy="43.2212" r="3.46463" fill="#0498C1"/>
<circle cx="43.2212" cy="63.0996" r="3.46463" fill="#0498C1"/>
<circle cx="43.2212" cy="82.9778" r="3.46463" fill="#0498C1"/>
<circle cx="43.2212" cy="102.856" r="3.46463" fill="#0498C1"/>
<circle cx="63.0996" cy="3.46463" r="3.46463" fill="#0498C1"/>
<circle cx="82.9778" cy="3.46463" r="3.46463" fill="#0498C1"/>
<circle cx="102.856" cy="3.46463" r="3.46463" fill="#0498C1"/>
<circle cx="63.0996" cy="23.3428" r="3.46463" fill="#0498C1"/>
<circle cx="82.9778" cy="23.3428" r="3.46463" fill="#0498C1"/>
<circle cx="102.856" cy="23.3428" r="3.46463" fill="#0498C1"/>
<circle cx="63.0996" cy="43.2212" r="3.46463" fill="#0498C1"/>
<circle cx="82.9778" cy="43.2212" r="3.46463" fill="#0498C1"/>
<circle cx="102.856" cy="43.2212" r="3.46463" fill="#0498C1"/>
<circle cx="63.0996" cy="63.0996" r="3.46463" fill="#0498C1"/>
<circle cx="63.0996" cy="82.9778" r="3.46463" fill="#0498C1"/>
<circle cx="63.0996" cy="102.856" r="3.46463" fill="#0498C1"/>
<circle cx="82.9778" cy="63.0996" r="3.46463" fill="#0498C1"/>
<circle cx="82.9778" cy="82.9778" r="3.46463" fill="#0498C1"/>
<circle cx="82.9778" cy="102.856" r="3.46463" fill="#0498C1"/>
<circle cx="102.856" cy="63.0996" r="3.46463" fill="#0498C1"/>
<circle cx="102.856" cy="82.9778" r="3.46463" fill="#0498C1"/>
<circle cx="102.856" cy="102.856" r="3.46463" fill="#0498C1"/>
</g>
</svg>
