<svg width="107" height="108" viewBox="0 0 107 108" fill="none" xmlns="http://www.w3.org/2000/svg">
<g opacity="0.5">
<circle cx="3.46463" cy="4.21194" r="3.46463" fill="#0498C1"/>
<circle cx="3.46463" cy="24.0904" r="3.46463" fill="#0498C1"/>
<circle cx="3.46463" cy="43.9685" r="3.46463" fill="#0498C1"/>
<circle cx="3.46463" cy="63.8467" r="3.46463" fill="#0498C1"/>
<circle cx="3.46463" cy="83.7251" r="3.46463" fill="#0498C1"/>
<circle cx="3.46463" cy="103.604" r="3.46463" fill="#0498C1"/>
<circle cx="23.3429" cy="4.21194" r="3.46463" fill="#0498C1"/>
<circle cx="23.3429" cy="24.0904" r="3.46463" fill="#0498C1"/>
<circle cx="23.3429" cy="43.9685" r="3.46463" fill="#0498C1"/>
<circle cx="23.3429" cy="63.8467" r="3.46463" fill="#0498C1"/>
<circle cx="23.3429" cy="83.7251" r="3.46463" fill="#0498C1"/>
<circle cx="23.3429" cy="103.604" r="3.46463" fill="#0498C1"/>
<circle cx="43.2213" cy="4.21194" r="3.46463" fill="#0498C1"/>
<circle cx="43.2213" cy="24.0904" r="3.46463" fill="#0498C1"/>
<circle cx="43.2213" cy="43.9685" r="3.46463" fill="#0498C1"/>
<circle cx="43.2213" cy="63.8467" r="3.46463" fill="#0498C1"/>
<circle cx="43.2213" cy="83.7251" r="3.46463" fill="#0498C1"/>
<circle cx="43.2213" cy="103.604" r="3.46463" fill="#0498C1"/>
<circle cx="63.0996" cy="4.21194" r="3.46463" fill="#0498C1"/>
<circle cx="82.9779" cy="4.21194" r="3.46463" fill="#0498C1"/>
<circle cx="102.856" cy="4.21194" r="3.46463" fill="#0498C1"/>
<circle cx="63.0996" cy="24.0904" r="3.46463" fill="#0498C1"/>
<circle cx="82.9779" cy="24.0904" r="3.46463" fill="#0498C1"/>
<circle cx="102.856" cy="24.0904" r="3.46463" fill="#0498C1"/>
<circle cx="63.0996" cy="43.9685" r="3.46463" fill="#0498C1"/>
<circle cx="82.9779" cy="43.9685" r="3.46463" fill="#0498C1"/>
<circle cx="102.856" cy="43.9685" r="3.46463" fill="#0498C1"/>
<circle cx="63.0996" cy="63.8467" r="3.46463" fill="#0498C1"/>
<circle cx="63.0996" cy="83.7251" r="3.46463" fill="#0498C1"/>
<circle cx="63.0996" cy="103.604" r="3.46463" fill="#0498C1"/>
<circle cx="82.9779" cy="63.8467" r="3.46463" fill="#0498C1"/>
<circle cx="82.9779" cy="83.7251" r="3.46463" fill="#0498C1"/>
<circle cx="82.9779" cy="103.604" r="3.46463" fill="#0498C1"/>
<circle cx="102.856" cy="63.8467" r="3.46463" fill="#0498C1"/>
<circle cx="102.856" cy="83.7251" r="3.46463" fill="#0498C1"/>
<circle cx="102.856" cy="103.604" r="3.46463" fill="#0498C1"/>
</g>
</svg>
