<svg width="17" height="19" viewBox="0 0 17 19" fill="none" xmlns="http://www.w3.org/2000/svg">
<path fill-rule="evenodd" clip-rule="evenodd" d="M14.9526 10.2153C15.9485 12.3357 15.2858 14.1721 13.1653 15.168L9.75208 16.7711C7.62622 17.7695 5.78981 17.1069 4.79392 14.9864L1.58277 8.14928C0.586877 6.02884 0.778948 4.41345 2.89939 3.41756L4.08402 2.86118C4.50968 2.66126 5.00461 2.67342 5.41994 2.894L6.29876 3.35938C6.71432 3.57902 7.20882 3.59117 7.63467 3.3922L8.1107 3.16863C10.2365 2.17019 11.529 2.88367 12.5452 5.04738L14.9526 10.2153Z" stroke="#414346" stroke-width="1.5" stroke-linecap="round" stroke-linejoin="round"/>
<path opacity="0.4" fill-rule="evenodd" clip-rule="evenodd" d="M5.24554 7.90166C5.90353 7.59263 6.18301 6.81753 5.8741 6.1598C5.56506 5.50181 4.79022 5.2222 4.13223 5.53124C3.4745 5.84015 3.19464 6.61511 3.50367 7.2731C3.81259 7.93083 4.58781 8.21058 5.24554 7.90166Z" stroke="#414346" stroke-linecap="round" stroke-linejoin="round"/>
</svg>
