<svg width="22" height="17" viewBox="0 0 22 17" fill="none" xmlns="http://www.w3.org/2000/svg">
<path opacity="0.4" d="M16.4392 7.54586C17.9944 7.54586 19.256 6.28515 19.256 4.72996C19.256 3.17477 17.9944 1.91406 16.4392 1.91406" stroke="#414346" stroke-width="1.5" stroke-linecap="round" stroke-linejoin="round"/>
<path d="M17.7344 10.6055C18.1988 10.6375 18.6606 10.7033 19.1152 10.8057C19.7469 10.9293 20.5067 11.1882 20.7771 11.755C20.9497 12.118 20.9497 12.5406 20.7771 12.9045C20.5076 13.4712 19.7469 13.7292 19.1152 13.8591" stroke="#414346" stroke-width="1.5" stroke-linecap="round" stroke-linejoin="round"/>
<path opacity="0.4" d="M5.46693 7.54586C3.91174 7.54586 2.65015 6.28515 2.65015 4.72996C2.65015 3.17477 3.91174 1.91406 5.46693 1.91406" stroke="#414346" stroke-width="1.5" stroke-linecap="round" stroke-linejoin="round"/>
<path d="M4.172 10.6055C3.70758 10.6375 3.24582 10.7033 2.79119 10.8057C2.1595 10.9293 1.3997 11.1882 1.13012 11.755C0.956627 12.118 0.956627 12.5406 1.13012 12.9045C1.39881 13.4712 2.1595 13.7292 2.79119 13.8591" stroke="#414346" stroke-width="1.5" stroke-linecap="round" stroke-linejoin="round"/>
<path fill-rule="evenodd" clip-rule="evenodd" d="M10.9485 11.2129C14.0998 11.2129 16.7921 11.6898 16.7921 13.5982C16.7921 15.5057 14.1176 16.0004 10.9485 16.0004C7.79632 16.0004 5.10498 15.5235 5.10498 13.6151C5.10498 11.7067 7.77941 11.2129 10.9485 11.2129Z" stroke="#414346" stroke-width="1.5" stroke-linecap="round" stroke-linejoin="round"/>
<path opacity="0.4" fill-rule="evenodd" clip-rule="evenodd" d="M10.9486 8.49037C8.87026 8.49037 7.20386 6.82397 7.20386 4.74474C7.20386 2.66641 8.87026 1 10.9486 1C13.0269 1 14.6933 2.66641 14.6933 4.74474C14.6933 6.82397 13.0269 8.49037 10.9486 8.49037Z" stroke="#414346" stroke-width="1.5" stroke-linecap="round" stroke-linejoin="round"/>
</svg>
