<svg width="19" height="17" viewBox="0 0 19 17" fill="none" xmlns="http://www.w3.org/2000/svg">
<path fill-rule="evenodd" clip-rule="evenodd" d="M14.596 16C16.2835 16 17.6497 14.6329 17.6497 12.9464V10.5164C16.5337 10.5164 15.6337 9.61643 15.6337 8.50135C15.6337 7.38537 16.5337 6.48629 17.6497 6.48629L17.6479 4.05364C17.6479 2.36707 16.2817 1 14.5951 1H4.05454C2.36797 1 1.0009 2.36707 1.0009 4.05364L1 6.56459C2.11508 6.56459 3.01506 7.38537 3.01506 8.50135C3.01506 9.61643 2.11508 10.5164 1 10.5164V12.9464C1 14.6329 2.36617 16 4.05274 16H14.596Z" stroke="#414346" stroke-width="1.5" stroke-linecap="round" stroke-linejoin="round"/>
<path opacity="0.4" fill-rule="evenodd" clip-rule="evenodd" d="M9.32448 10.0944L10.8904 10.9179C11.0371 10.9944 11.209 10.8702 11.1811 10.7073L10.8814 8.9622L12.1495 7.72832C12.2683 7.61223 12.2026 7.41153 12.0388 7.38723L10.2875 7.13253L9.50358 5.54497C9.43068 5.39647 9.21918 5.39647 9.14538 5.54497L8.3615 7.13253L6.61103 7.38723C6.44724 7.41153 6.38154 7.61223 6.50034 7.72832L7.76751 8.9622L7.46782 10.7073C7.43992 10.8702 7.61181 10.9944 7.75851 10.9179L9.32448 10.0944Z" stroke="#414346" stroke-width="1.5" stroke-linecap="round" stroke-linejoin="round"/>
</svg>
