<svg width="15" height="17" viewBox="0 0 15 17" fill="none" xmlns="http://www.w3.org/2000/svg">
<path fill-rule="evenodd" clip-rule="evenodd" d="M1.00062 9.84034V9.6761C1.02471 9.19018 1.18045 8.71937 1.45177 8.3122C1.90338 7.8231 2.21253 7.22373 2.34679 6.57698C2.34679 6.07713 2.34679 5.57013 2.39044 5.07027C2.61602 2.66381 4.99546 1 7.34579 1H7.40401C9.75434 1 12.1338 2.66381 12.3666 5.07027C12.4103 5.57013 12.3666 6.07713 12.403 6.57698C12.5391 7.22523 12.8479 7.82646 13.298 8.31934C13.5714 8.7229 13.7274 9.192 13.7492 9.6761V9.8332C13.7654 10.486 13.5406 11.1226 13.1161 11.6255C12.5552 12.2136 11.7941 12.5795 10.9768 12.6538C8.58025 12.9109 6.16227 12.9109 3.76572 12.6538C2.94936 12.5762 2.18932 12.2109 1.6264 11.6255C1.2085 11.1222 0.986681 10.4894 1.00062 9.84034Z" fill="#414346" stroke="#414346" stroke-linecap="round" stroke-linejoin="round"/>
<g opacity="0.4">
<path fill-rule="evenodd" clip-rule="evenodd" d="M5.54126 15.1387C5.91572 15.6087 6.46561 15.9129 7.06923 15.9839C7.67285 16.0549 8.28043 15.8869 8.75751 15.5171C8.90424 15.4078 9.03626 15.2806 9.15044 15.1387" fill="#414346"/>
<path d="M5.54126 15.1387C5.91572 15.6087 6.46561 15.9129 7.06923 15.9839C7.67285 16.0549 8.28043 15.8869 8.75751 15.5171C8.90424 15.4078 9.03626 15.2806 9.15044 15.1387" stroke="#414346" stroke-linecap="round" stroke-linejoin="round"/>
</g>
</svg>
