<svg width="15" height="15" viewBox="0 0 15 15" fill="none" xmlns="http://www.w3.org/2000/svg">
<path fill-rule="evenodd" clip-rule="evenodd" d="M7.54264 6.1688e-05C4.91017 -0.0105762 2.46418 1.35528 1.09538 3.60028C-0.273426 5.84527 -0.365312 8.64179 0.853179 10.9715L1.00342 11.2644C1.12657 11.4948 1.15233 11.7649 1.07497 12.0144C0.860569 12.5838 0.681369 13.1659 0.538381 13.7572C0.538381 14.0572 0.624235 14.2287 0.946188 14.2215C1.51643 14.0956 2.07801 13.9334 2.6275 13.7358C2.86416 13.6706 3.11579 13.6857 3.34295 13.7787C3.55043 13.8787 3.97255 14.1358 3.98685 14.1358C6.74368 15.5854 10.1106 15.1855 12.4499 13.1306C14.7891 11.0758 15.615 7.79252 14.5258 4.87805C13.4366 1.96358 10.6584 0.0228981 7.54264 6.1688e-05Z" fill="#414346"/>
<ellipse cx="3.96539" cy="7.49972" rx="0.357725" ry="0.357144" fill="white" stroke="white" stroke-linecap="round" stroke-linejoin="round"/>
<ellipse cx="7.54278" cy="7.49972" rx="0.357725" ry="0.357144" fill="white" stroke="white" stroke-linecap="round" stroke-linejoin="round"/>
<ellipse cx="11.1199" cy="7.49972" rx="0.357725" ry="0.357144" fill="white" stroke="white" stroke-linecap="round" stroke-linejoin="round"/>
</svg>
