<svg width="7" height="7" viewBox="0 0 7 7" fill="none" xmlns="http://www.w3.org/2000/svg">
<path d="M3.02803 5.62093C2.24828 4.89316 1.52051 4.11341 0.740763 3.38564C0.740763 3.59358 0.740763 3.80151 0.740763 4.00944C1.46853 3.22969 2.24828 2.50192 2.97605 1.72217C3.39192 1.30631 2.76812 0.734489 2.35225 1.09837C1.62448 1.87812 0.84473 2.60589 0.116962 3.38564C-0.038988 3.54159 -0.0389881 3.85349 0.116962 4.00944C0.896713 4.73721 1.62448 5.51696 2.40423 6.24473C2.8201 6.60861 3.4439 5.98481 3.02803 5.62093Z" fill="white"/>
<path d="M6.14704 5.62093C5.36728 4.89316 4.63952 4.11341 3.85977 3.38564C3.85977 3.59358 3.85977 3.80151 3.85977 4.00944C4.58753 3.22969 5.36729 2.50192 6.09505 1.72217C6.51092 1.30631 5.88712 0.734489 5.47125 1.09837C4.74348 1.87812 3.96373 2.60589 3.23597 3.38564C3.08002 3.54159 3.08002 3.85349 3.23597 4.00944C4.01572 4.73721 4.74348 5.51696 5.52323 6.24473C5.9391 6.60861 6.5629 5.98481 6.14704 5.62093Z" fill="white"/>
</svg>
