<svg width="292" height="212" viewBox="0 0 292 212" fill="none" xmlns="http://www.w3.org/2000/svg">
<rect width="292" height="211.679" fill="white"/>
<path d="M0.418457 31.7937H291.582" stroke="#C4C4C4" stroke-width="0.418338"/>
<path d="M116.795 22.2034H114.954L114.222 20.2988H110.87L110.178 22.2034H108.382L111.648 13.8186H113.438L116.795 22.2034ZM113.678 18.8861L112.523 15.7747L111.39 18.8861H113.678ZM116.78 20.4704L118.393 20.2244C118.461 20.5371 118.601 20.7754 118.81 20.9394C119.02 21.0995 119.314 21.1796 119.691 21.1796C120.107 21.1796 120.419 21.1033 120.629 20.9508C120.77 20.844 120.841 20.7011 120.841 20.5218C120.841 20.3998 120.803 20.2988 120.726 20.2187C120.646 20.1425 120.467 20.0719 120.189 20.0071C118.892 19.7211 118.071 19.4599 117.724 19.2235C117.243 18.8956 117.003 18.44 117.003 17.8566C117.003 17.3304 117.211 16.8881 117.626 16.5297C118.042 16.1712 118.686 15.992 119.56 15.992C120.391 15.992 121.009 16.1274 121.413 16.3981C121.817 16.6688 122.095 17.0692 122.248 17.5992L120.732 17.8795C120.667 17.643 120.543 17.4619 120.36 17.3361C120.181 17.2103 119.924 17.1474 119.588 17.1474C119.165 17.1474 118.862 17.2065 118.679 17.3247C118.557 17.4085 118.496 17.5172 118.496 17.6507C118.496 17.7651 118.549 17.8623 118.656 17.9424C118.801 18.0491 119.3 18.1997 120.154 18.3942C121.012 18.5887 121.611 18.827 121.95 19.1091C122.286 19.3951 122.454 19.7936 122.454 20.3045C122.454 20.8612 122.221 21.3397 121.756 21.7401C121.291 22.1405 120.602 22.3406 119.691 22.3406C118.864 22.3406 118.208 22.1729 117.724 21.8373C117.243 21.5018 116.929 21.0461 116.78 20.4704ZM122.959 20.4704L124.572 20.2244C124.64 20.5371 124.779 20.7754 124.989 20.9394C125.199 21.0995 125.492 21.1796 125.87 21.1796C126.286 21.1796 126.598 21.1033 126.808 20.9508C126.949 20.844 127.02 20.7011 127.02 20.5218C127.02 20.3998 126.981 20.2988 126.905 20.2187C126.825 20.1425 126.646 20.0719 126.368 20.0071C125.071 19.7211 124.249 19.4599 123.902 19.2235C123.422 18.8956 123.182 18.44 123.182 17.8566C123.182 17.3304 123.39 16.8881 123.805 16.5297C124.221 16.1712 124.865 15.992 125.738 15.992C126.57 15.992 127.187 16.1274 127.592 16.3981C127.996 16.6688 128.274 17.0692 128.427 17.5992L126.911 17.8795C126.846 17.643 126.722 17.4619 126.539 17.3361C126.36 17.2103 126.103 17.1474 125.767 17.1474C125.344 17.1474 125.041 17.2065 124.858 17.3247C124.736 17.4085 124.675 17.5172 124.675 17.6507C124.675 17.7651 124.728 17.8623 124.835 17.9424C124.98 18.0491 125.479 18.1997 126.333 18.3942C127.191 18.5887 127.79 18.827 128.129 19.1091C128.465 19.3951 128.632 19.7936 128.632 20.3045C128.632 20.8612 128.4 21.3397 127.935 21.7401C127.47 22.1405 126.781 22.3406 125.87 22.3406C125.043 22.3406 124.387 22.1729 123.902 21.8373C123.422 21.5018 123.107 21.0461 122.959 20.4704ZM129.704 15.3057V13.8186H131.311V15.3057H129.704ZM129.704 22.2034V16.1293H131.311V22.2034H129.704ZM132.474 22.6037L134.31 22.8268C134.34 23.0403 134.411 23.1871 134.521 23.2672C134.674 23.3816 134.914 23.4388 135.242 23.4388C135.661 23.4388 135.976 23.3759 136.186 23.25C136.327 23.1661 136.434 23.0308 136.506 22.8439C136.556 22.7105 136.58 22.4646 136.58 22.1061V21.2196C136.1 21.8755 135.494 22.2034 134.762 22.2034C133.946 22.2034 133.299 21.8583 132.823 21.1681C132.449 20.6229 132.262 19.9442 132.262 19.132C132.262 18.114 132.506 17.3361 132.994 16.7985C133.486 16.2608 134.096 15.992 134.825 15.992C135.576 15.992 136.195 16.3219 136.683 16.9815V16.1293H138.188V21.5799C138.188 22.2968 138.128 22.8325 138.01 23.1871C137.892 23.5417 137.726 23.8201 137.513 24.0222C137.299 24.2242 137.013 24.3825 136.655 24.4969C136.3 24.6113 135.85 24.6685 135.305 24.6685C134.275 24.6685 133.545 24.4912 133.114 24.1365C132.684 23.7858 132.468 23.3396 132.468 22.7982C132.468 22.7448 132.47 22.68 132.474 22.6037ZM133.909 19.0405C133.909 19.6849 134.033 20.1577 134.281 20.4589C134.533 20.7563 134.842 20.9051 135.208 20.9051C135.6 20.9051 135.932 20.7525 136.203 20.4475C136.474 20.1386 136.609 19.683 136.609 19.0805C136.609 18.4514 136.479 17.9843 136.22 17.6793C135.961 17.3742 135.633 17.2217 135.236 17.2217C134.851 17.2217 134.533 17.3723 134.281 17.6736C134.033 17.971 133.909 18.4266 133.909 19.0405ZM144.967 22.2034H143.36V19.1034C143.36 18.4476 143.325 18.0243 143.257 17.8337C143.188 17.6392 143.076 17.4886 142.919 17.3819C142.767 17.2751 142.582 17.2217 142.365 17.2217C142.086 17.2217 141.837 17.298 141.615 17.4505C141.394 17.603 141.242 17.8051 141.158 18.0568C141.078 18.3084 141.038 18.7736 141.038 19.4523V22.2034H139.431V16.1293H140.923V17.0215C141.453 16.3352 142.121 15.992 142.925 15.992C143.28 15.992 143.604 16.0568 143.897 16.1865C144.191 16.3123 144.412 16.4744 144.561 16.6726C144.713 16.8709 144.818 17.0959 144.875 17.3475C144.936 17.5992 144.967 17.9595 144.967 18.4285V22.2034ZM149.779 20.2702L151.38 20.539C151.174 21.1262 150.848 21.5742 150.402 21.8831C149.96 22.1881 149.405 22.3406 148.738 22.3406C147.682 22.3406 146.9 21.9956 146.393 21.3054C145.993 20.7525 145.792 20.0548 145.792 19.2121C145.792 18.2055 146.055 17.4181 146.582 16.8499C147.108 16.278 147.773 15.992 148.578 15.992C149.481 15.992 150.194 16.2913 150.717 16.89C151.239 17.4848 151.489 18.398 151.466 19.6296H147.44C147.451 20.1062 147.581 20.478 147.829 20.7449C148.076 21.008 148.385 21.1395 148.755 21.1395C149.007 21.1395 149.218 21.0709 149.39 20.9336C149.562 20.7964 149.691 20.5752 149.779 20.2702ZM149.87 18.6459C149.859 18.1807 149.739 17.828 149.51 17.5878C149.281 17.3437 149.003 17.2217 148.675 17.2217C148.324 17.2217 148.034 17.3494 147.806 17.6049C147.577 17.8604 147.464 18.2074 147.468 18.6459H149.87ZM158.011 22.2034H156.518V21.3111C156.27 21.6581 155.977 21.9174 155.637 22.089C155.302 22.2568 154.962 22.3406 154.619 22.3406C153.922 22.3406 153.323 22.0604 152.823 21.4999C152.328 20.9356 152.08 20.1501 152.08 19.1435C152.08 18.114 152.322 17.3323 152.806 16.7985C153.29 16.2608 153.902 15.992 154.642 15.992C155.321 15.992 155.908 16.2742 156.404 16.8385V13.8186H158.011V22.2034ZM153.721 19.0348C153.721 19.683 153.811 20.152 153.99 20.4418C154.249 20.8612 154.612 21.0709 155.077 21.0709C155.447 21.0709 155.761 20.9146 156.021 20.6019C156.28 20.2854 156.41 19.8145 156.41 19.1892C156.41 18.4914 156.284 17.99 156.032 17.685C155.78 17.3761 155.458 17.2217 155.065 17.2217C154.684 17.2217 154.364 17.3742 154.105 17.6793C153.849 17.9805 153.721 18.4323 153.721 19.0348ZM167.475 17.9252L165.89 18.2112C165.837 17.8947 165.715 17.6564 165.524 17.4962C165.337 17.3361 165.093 17.256 164.792 17.256C164.392 17.256 164.071 17.3952 163.831 17.6736C163.595 17.9481 163.477 18.4095 163.477 19.0577C163.477 19.7783 163.597 20.2873 163.837 20.5848C164.081 20.8822 164.407 21.0309 164.815 21.0309C165.12 21.0309 165.37 20.9451 165.564 20.7735C165.759 20.5981 165.896 20.2988 165.976 19.8755L167.555 20.1444C167.391 20.8688 167.076 21.416 166.611 21.7858C166.146 22.1557 165.522 22.3406 164.741 22.3406C163.852 22.3406 163.143 22.0604 162.613 21.4999C162.087 20.9394 161.824 20.1634 161.824 19.1721C161.824 18.1692 162.089 17.3895 162.619 16.8328C163.149 16.2723 163.866 15.992 164.769 15.992C165.509 15.992 166.096 16.1522 166.531 16.4725C166.969 16.7889 167.284 17.2732 167.475 17.9252ZM169.959 13.8186V16.9014C170.477 16.2952 171.097 15.992 171.817 15.992C172.187 15.992 172.521 16.0607 172.818 16.1979C173.116 16.3352 173.339 16.5106 173.488 16.7241C173.64 16.9376 173.743 17.1741 173.796 17.4333C173.854 17.6926 173.882 18.0949 173.882 18.6401V22.2034H172.275V18.9947C172.275 18.358 172.244 17.9538 172.183 17.7822C172.122 17.6106 172.014 17.4753 171.857 17.3761C171.705 17.2732 171.512 17.2217 171.28 17.2217C171.013 17.2217 170.775 17.2865 170.565 17.4162C170.355 17.5458 170.201 17.7422 170.102 18.0053C170.006 18.2646 169.959 18.6497 169.959 19.1606V22.2034H168.351V13.8186H169.959ZM176.378 17.9824L174.919 17.7193C175.083 17.1321 175.365 16.6974 175.766 16.4153C176.166 16.1331 176.761 15.992 177.55 15.992C178.267 15.992 178.801 16.0778 179.152 16.2494C179.502 16.4172 179.748 16.6326 179.889 16.8957C180.034 17.155 180.107 17.6335 180.107 18.3313L180.09 20.2073C180.09 20.7411 180.114 21.1357 180.164 21.3912C180.217 21.6429 180.315 21.9136 180.456 22.2034H178.866C178.824 22.0966 178.772 21.9384 178.711 21.7287C178.685 21.6333 178.665 21.5704 178.654 21.5399C178.379 21.8068 178.086 22.007 177.773 22.1405C177.461 22.2739 177.127 22.3406 176.772 22.3406C176.147 22.3406 175.653 22.171 175.291 21.8316C174.933 21.4922 174.753 21.0633 174.753 20.5447C174.753 20.2016 174.835 19.8965 174.999 19.6296C175.163 19.3589 175.392 19.153 175.686 19.0119C175.983 18.867 176.41 18.7412 176.967 18.6344C177.718 18.4933 178.238 18.3618 178.528 18.2398V18.0796C178.528 17.7708 178.452 17.5515 178.299 17.4219C178.147 17.2884 177.859 17.2217 177.436 17.2217C177.15 17.2217 176.927 17.2789 176.767 17.3933C176.606 17.5039 176.477 17.7002 176.378 17.9824ZM178.528 19.2864C178.322 19.3551 177.996 19.4371 177.55 19.5324C177.104 19.6277 176.812 19.7211 176.675 19.8126C176.465 19.9613 176.361 20.1501 176.361 20.3789C176.361 20.6038 176.444 20.7983 176.612 20.9622C176.78 21.1262 176.993 21.2082 177.253 21.2082C177.543 21.2082 177.819 21.1129 178.082 20.9222C178.277 20.7773 178.404 20.6 178.465 20.3903C178.507 20.253 178.528 19.9918 178.528 19.6067V19.2864ZM182.894 22.2034H181.287V16.1293H182.78V16.9929C183.035 16.5849 183.264 16.3161 183.466 16.1865C183.672 16.0568 183.904 15.992 184.164 15.992C184.53 15.992 184.882 16.0931 185.222 16.2952L184.724 17.6964C184.453 17.521 184.202 17.4333 183.969 17.4333C183.744 17.4333 183.554 17.4962 183.397 17.6221C183.241 17.7441 183.117 17.9672 183.025 18.2913C182.938 18.6154 182.894 19.2941 182.894 20.3274V22.2034ZM188.364 16.1293V17.4105H187.265V19.8584C187.265 20.3541 187.275 20.6439 187.294 20.7277C187.317 20.8078 187.365 20.8745 187.437 20.9279C187.513 20.9813 187.605 21.008 187.712 21.008C187.86 21.008 188.076 20.9565 188.358 20.8536L188.495 22.1004C188.121 22.2606 187.698 22.3406 187.225 22.3406C186.936 22.3406 186.674 22.293 186.442 22.1976C186.209 22.0985 186.038 21.9727 185.927 21.8202C185.82 21.6638 185.746 21.4541 185.704 21.191C185.67 21.0042 185.653 20.6267 185.653 20.0586V17.4105H184.915V16.1293H185.653V14.9225L187.265 13.9845V16.1293H188.364Z" fill="#78797D"/>
<path d="M30.6161 196.906V191.623H28.6429V190.916H33.39V191.623H31.4086V196.906H30.6161ZM35.8104 195.508L36.5702 195.602C36.4504 196.046 36.2284 196.391 35.9043 196.636C35.5802 196.881 35.1662 197.004 34.6624 197.004C34.0278 197.004 33.5239 196.809 33.1508 196.419C32.7804 196.027 32.5952 195.478 32.5952 194.773C32.5952 194.043 32.7831 193.477 33.159 193.073C33.5348 192.67 34.0223 192.469 34.6215 192.469C35.2016 192.469 35.6755 192.666 36.0432 193.061C36.4109 193.456 36.5947 194.012 36.5947 194.728C36.5947 194.772 36.5934 194.837 36.5907 194.924H33.3551C33.3823 195.401 33.5171 195.766 33.7595 196.019C34.0019 196.272 34.3042 196.399 34.6665 196.399C34.9361 196.399 35.1662 196.328 35.3569 196.186C35.5475 196.045 35.6987 195.819 35.8104 195.508ZM33.3959 194.32H35.8185C35.7858 193.955 35.6932 193.681 35.5407 193.498C35.3065 193.215 35.0028 193.073 34.6297 193.073C34.292 193.073 34.0074 193.187 33.7759 193.413C33.5471 193.639 33.4204 193.941 33.3959 194.32ZM36.8621 195.61L37.5893 195.496C37.6301 195.787 37.7432 196.011 37.9284 196.166C38.1163 196.321 38.3777 196.399 38.7127 196.399C39.0505 196.399 39.301 196.331 39.4644 196.195C39.6279 196.056 39.7096 195.894 39.7096 195.709C39.7096 195.542 39.6374 195.412 39.493 195.316C39.3923 195.251 39.1417 195.168 38.7413 195.067C38.2021 194.931 37.8276 194.814 37.6179 194.716C37.4109 194.615 37.2529 194.477 37.144 194.303C37.0378 194.126 36.9846 193.931 36.9846 193.719C36.9846 193.526 37.0282 193.347 37.1154 193.184C37.2053 193.018 37.3265 192.88 37.479 192.771C37.5934 192.687 37.7486 192.616 37.9447 192.559C38.1435 192.499 38.356 192.469 38.582 192.469C38.9225 192.469 39.2207 192.518 39.4767 192.616C39.7354 192.714 39.9261 192.847 40.0486 193.016C40.1712 193.182 40.2556 193.406 40.3019 193.686L39.5829 193.784C39.5502 193.561 39.4549 193.387 39.2969 193.261C39.1417 193.136 38.9211 193.073 38.6351 193.073C38.2974 193.073 38.0564 193.129 37.912 193.241C37.7677 193.353 37.6955 193.483 37.6955 193.633C37.6955 193.728 37.7255 193.814 37.7854 193.891C37.8453 193.97 37.9393 194.035 38.0673 194.087C38.1408 194.114 38.3573 194.177 38.7168 194.275C39.237 194.413 39.5993 194.528 39.8035 194.618C40.0105 194.705 40.1726 194.833 40.2897 195.002C40.4068 195.171 40.4653 195.38 40.4653 195.631C40.4653 195.876 40.3932 196.108 40.2488 196.325C40.1072 196.541 39.9016 196.708 39.6319 196.828C39.3623 196.945 39.0573 197.004 38.7168 197.004C38.1531 197.004 37.7227 196.886 37.4259 196.652C37.1317 196.418 36.9438 196.071 36.8621 195.61ZM42.6038 196.248L42.71 196.897C42.503 196.941 42.3178 196.963 42.1544 196.963C41.8875 196.963 41.6805 196.92 41.5334 196.836C41.3864 196.752 41.2829 196.641 41.2229 196.505C41.163 196.366 41.1331 196.076 41.1331 195.635V193.139H40.5938V192.567H41.1331V191.492L41.8643 191.051V192.567H42.6038V193.139H41.8643V195.676C41.8643 195.886 41.8766 196.02 41.9011 196.08C41.9283 196.14 41.9706 196.188 42.0278 196.223C42.0877 196.259 42.1721 196.276 42.281 196.276C42.3627 196.276 42.4703 196.267 42.6038 196.248ZM47.8039 195.316L48.527 195.41C48.4481 195.909 48.2452 196.3 47.9183 196.583C47.5942 196.863 47.1952 197.004 46.7213 197.004C46.1276 197.004 45.6496 196.81 45.2874 196.423C44.9279 196.034 44.7481 195.477 44.7481 194.753C44.7481 194.284 44.8257 193.874 44.981 193.523C45.1362 193.172 45.3718 192.909 45.6877 192.734C46.0064 192.557 46.3523 192.469 46.7254 192.469C47.1966 192.469 47.582 192.589 47.8816 192.828C48.1811 193.065 48.3732 193.403 48.4576 193.842L47.7427 193.952C47.6746 193.66 47.5534 193.441 47.3791 193.294C47.2075 193.147 46.9991 193.073 46.754 193.073C46.3836 193.073 46.0826 193.207 45.8511 193.474C45.6196 193.738 45.5039 194.157 45.5039 194.732C45.5039 195.315 45.6156 195.738 45.8389 196.003C46.0622 196.267 46.3536 196.399 46.7132 196.399C47.0018 196.399 47.2429 196.31 47.4363 196.133C47.6296 195.956 47.7522 195.684 47.8039 195.316ZM48.5411 194.736C48.5411 193.933 48.7644 193.338 49.2111 192.951C49.5842 192.63 50.0391 192.469 50.5756 192.469C51.1721 192.469 51.6596 192.665 52.0381 193.057C52.4167 193.447 52.606 193.986 52.606 194.675C52.606 195.233 52.5216 195.673 52.3527 195.994C52.1866 196.313 51.9428 196.561 51.6214 196.738C51.3028 196.915 50.9542 197.004 50.5756 197.004C49.9682 197.004 49.4766 196.809 49.1008 196.419C48.7277 196.03 48.5411 195.469 48.5411 194.736ZM49.2969 194.736C49.2969 195.292 49.4181 195.709 49.6605 195.986C49.9029 196.261 50.2079 196.399 50.5756 196.399C50.9406 196.399 51.2442 196.26 51.4866 195.982C51.729 195.704 51.8502 195.281 51.8502 194.712C51.8502 194.175 51.7277 193.769 51.4825 193.494C51.2401 193.216 50.9378 193.078 50.5756 193.078C50.2079 193.078 49.9029 193.215 49.6605 193.49C49.4181 193.765 49.2969 194.181 49.2969 194.736ZM53.1144 196.906V190.916H53.8498V196.906H53.1144ZM54.3786 194.736C54.3786 193.933 54.6019 193.338 55.0486 192.951C55.4217 192.63 55.8765 192.469 56.4131 192.469C57.0095 192.469 57.497 192.665 57.8756 193.057C58.2542 193.447 58.4435 193.986 58.4435 194.675C58.4435 195.233 58.359 195.673 58.1902 195.994C58.024 196.313 57.7803 196.561 57.4589 196.738C57.1402 196.915 56.7916 197.004 56.4131 197.004C55.8057 197.004 55.3141 196.809 54.9383 196.419C54.5651 196.03 54.3786 195.469 54.3786 194.736ZM55.1343 194.736C55.1343 195.292 55.2555 195.709 55.4979 195.986C55.7403 196.261 56.0454 196.399 56.4131 196.399C56.778 196.399 57.0817 196.26 57.3241 195.982C57.5665 195.704 57.6877 195.281 57.6877 194.712C57.6877 194.175 57.5651 193.769 57.32 193.494C57.0776 193.216 56.7753 193.078 56.4131 193.078C56.0454 193.078 55.7403 193.215 55.4979 193.49C55.2555 193.765 55.1343 194.181 55.1343 194.736ZM58.96 196.906V192.567H59.6218V193.225C59.7907 192.917 59.946 192.714 60.0876 192.616C60.2319 192.518 60.3899 192.469 60.5615 192.469C60.8093 192.469 61.0612 192.548 61.3173 192.706L61.064 193.388C60.8842 193.282 60.7045 193.229 60.5247 193.229C60.364 193.229 60.2197 193.278 60.0917 193.376C59.9637 193.471 59.8724 193.605 59.8179 193.776C59.7362 194.038 59.6954 194.324 59.6954 194.634V196.906H58.96Z" fill="#78797D"/>
<path d="M100.897 196.906V191.623H98.9241V190.916H103.671V191.623H101.69V196.906H100.897ZM106.092 195.508L106.851 195.602C106.732 196.046 106.51 196.391 106.186 196.636C105.861 196.881 105.447 197.004 104.944 197.004C104.309 197.004 103.805 196.809 103.432 196.419C103.062 196.027 102.876 195.478 102.876 194.773C102.876 194.043 103.064 193.477 103.44 193.073C103.816 192.67 104.304 192.469 104.903 192.469C105.483 192.469 105.957 192.666 106.324 193.061C106.692 193.456 106.876 194.012 106.876 194.728C106.876 194.772 106.875 194.837 106.872 194.924H103.636C103.664 195.401 103.798 195.766 104.041 196.019C104.283 196.272 104.585 196.399 104.948 196.399C105.217 196.399 105.447 196.328 105.638 196.186C105.829 196.045 105.98 195.819 106.092 195.508ZM103.677 194.32H106.1C106.067 193.955 105.974 193.681 105.822 193.498C105.588 193.215 105.284 193.073 104.911 193.073C104.573 193.073 104.289 193.187 104.057 193.413C103.828 193.639 103.702 193.941 103.677 194.32ZM107.143 195.61L107.871 195.496C107.911 195.787 108.024 196.011 108.21 196.166C108.398 196.321 108.659 196.399 108.994 196.399C109.332 196.399 109.582 196.331 109.746 196.195C109.909 196.056 109.991 195.894 109.991 195.709C109.991 195.542 109.919 195.412 109.774 195.316C109.674 195.251 109.423 195.168 109.023 195.067C108.483 194.931 108.109 194.814 107.899 194.716C107.692 194.615 107.534 194.477 107.425 194.303C107.319 194.126 107.266 193.931 107.266 193.719C107.266 193.526 107.309 193.347 107.397 193.184C107.487 193.018 107.608 192.88 107.76 192.771C107.875 192.687 108.03 192.616 108.226 192.559C108.425 192.499 108.637 192.469 108.863 192.469C109.204 192.469 109.502 192.518 109.758 192.616C110.017 192.714 110.207 192.847 110.33 193.016C110.452 193.182 110.537 193.406 110.583 193.686L109.864 193.784C109.831 193.561 109.736 193.387 109.578 193.261C109.423 193.136 109.202 193.073 108.916 193.073C108.579 193.073 108.338 193.129 108.193 193.241C108.049 193.353 107.977 193.483 107.977 193.633C107.977 193.728 108.007 193.814 108.067 193.891C108.127 193.97 108.221 194.035 108.349 194.087C108.422 194.114 108.639 194.177 108.998 194.275C109.518 194.413 109.881 194.528 110.085 194.618C110.292 194.705 110.454 194.833 110.571 195.002C110.688 195.171 110.747 195.38 110.747 195.631C110.747 195.876 110.674 196.108 110.53 196.325C110.388 196.541 110.183 196.708 109.913 196.828C109.644 196.945 109.339 197.004 108.998 197.004C108.434 197.004 108.004 196.886 107.707 196.652C107.413 196.418 107.225 196.071 107.143 195.61ZM112.885 196.248L112.991 196.897C112.784 196.941 112.599 196.963 112.436 196.963C112.169 196.963 111.962 196.92 111.815 196.836C111.668 196.752 111.564 196.641 111.504 196.505C111.444 196.366 111.414 196.076 111.414 195.635V193.139H110.875V192.567H111.414V191.492L112.146 191.051V192.567H112.885V193.139H112.146V195.676C112.146 195.886 112.158 196.02 112.182 196.08C112.21 196.14 112.252 196.188 112.309 196.223C112.369 196.259 112.453 196.276 112.562 196.276C112.644 196.276 112.752 196.267 112.885 196.248ZM118.085 195.316L118.808 195.41C118.729 195.909 118.526 196.3 118.2 196.583C117.875 196.863 117.476 197.004 117.003 197.004C116.409 197.004 115.931 196.81 115.569 196.423C115.209 196.034 115.029 195.477 115.029 194.753C115.029 194.284 115.107 193.874 115.262 193.523C115.417 193.172 115.653 192.909 115.969 192.734C116.288 192.557 116.634 192.469 117.007 192.469C117.478 192.469 117.863 192.589 118.163 192.828C118.462 193.065 118.654 193.403 118.739 193.842L118.024 193.952C117.956 193.66 117.835 193.441 117.66 193.294C117.489 193.147 117.28 193.073 117.035 193.073C116.665 193.073 116.364 193.207 116.132 193.474C115.901 193.738 115.785 194.157 115.785 194.732C115.785 195.315 115.897 195.738 116.12 196.003C116.343 196.267 116.635 196.399 116.994 196.399C117.283 196.399 117.524 196.31 117.718 196.133C117.911 195.956 118.033 195.684 118.085 195.316ZM118.822 194.736C118.822 193.933 119.046 193.338 119.492 192.951C119.865 192.63 120.32 192.469 120.857 192.469C121.453 192.469 121.941 192.665 122.319 193.057C122.698 193.447 122.887 193.986 122.887 194.675C122.887 195.233 122.803 195.673 122.634 195.994C122.468 196.313 122.224 196.561 121.903 196.738C121.584 196.915 121.235 197.004 120.857 197.004C120.249 197.004 119.758 196.809 119.382 196.419C119.009 196.03 118.822 195.469 118.822 194.736ZM119.578 194.736C119.578 195.292 119.699 195.709 119.942 195.986C120.184 196.261 120.489 196.399 120.857 196.399C121.222 196.399 121.525 196.26 121.768 195.982C122.01 195.704 122.131 195.281 122.131 194.712C122.131 194.175 122.009 193.769 121.764 193.494C121.521 193.216 121.219 193.078 120.857 193.078C120.489 193.078 120.184 193.215 119.942 193.49C119.699 193.765 119.578 194.181 119.578 194.736ZM123.396 196.906V190.916H124.131V196.906H123.396ZM124.66 194.736C124.66 193.933 124.883 193.338 125.33 192.951C125.703 192.63 126.158 192.469 126.694 192.469C127.291 192.469 127.778 192.665 128.157 193.057C128.535 193.447 128.725 193.986 128.725 194.675C128.725 195.233 128.64 195.673 128.471 195.994C128.305 196.313 128.062 196.561 127.74 196.738C127.421 196.915 127.073 197.004 126.694 197.004C126.087 197.004 125.595 196.809 125.22 196.419C124.846 196.03 124.66 195.469 124.66 194.736ZM125.416 194.736C125.416 195.292 125.537 195.709 125.779 195.986C126.022 196.261 126.327 196.399 126.694 196.399C127.059 196.399 127.363 196.26 127.605 195.982C127.848 195.704 127.969 195.281 127.969 194.712C127.969 194.175 127.846 193.769 127.601 193.494C127.359 193.216 127.057 193.078 126.694 193.078C126.327 193.078 126.022 193.215 125.779 193.49C125.537 193.765 125.416 194.181 125.416 194.736ZM129.241 196.906V192.567H129.903V193.225C130.072 192.917 130.227 192.714 130.369 192.616C130.513 192.518 130.671 192.469 130.843 192.469C131.091 192.469 131.342 192.548 131.599 192.706L131.345 193.388C131.165 193.282 130.986 193.229 130.806 193.229C130.645 193.229 130.501 193.278 130.373 193.376C130.245 193.471 130.154 193.605 130.099 193.776C130.017 194.038 129.977 194.324 129.977 194.634V196.906H129.241Z" fill="#78797D"/>
<rect x="10.04" y="184.906" width="15.0602" height="15.0602" rx="1.67335" fill="#15BCAC"/>
<rect x="79.4844" y="184.906" width="15.0602" height="15.0602" rx="1.67335" fill="#1C75BC"/>
<g clip-path="url(#clip0_5692_25554)">
<path d="M34.928 148.865H34.0537V153.895H34.928V148.865Z" fill="#939598"/>
<path d="M32.8634 159.227H32.4108V156.226L31.5031 156.56V156.151L32.7928 155.667H32.8634V159.227ZM36.4041 157.716C36.4041 158.243 36.3141 158.635 36.134 158.891C35.9539 159.147 35.6725 159.275 35.2896 159.275C34.9116 159.275 34.6317 159.151 34.45 158.901C34.2683 158.649 34.1742 158.274 34.1677 157.776V157.175C34.1677 156.655 34.2578 156.268 34.4379 156.015C34.6179 155.761 34.9002 155.635 35.2847 155.635C35.666 155.635 35.9466 155.757 36.1267 156.002C36.3068 156.246 36.3993 156.622 36.4041 157.132V157.716ZM35.9539 157.1C35.9539 156.719 35.9004 156.441 35.7933 156.268C35.6863 156.092 35.5167 156.005 35.2847 156.005C35.0544 156.005 34.8864 156.092 34.781 156.265C34.6755 156.439 34.6212 156.706 34.6179 157.066V157.786C34.6179 158.169 34.6731 158.452 34.7834 158.635C34.8954 158.817 35.0641 158.908 35.2896 158.908C35.5119 158.908 35.6765 158.822 35.7836 158.65C35.8923 158.478 35.9491 158.207 35.9539 157.837V157.1Z" fill="#939598"/>
<path d="M54.4905 148.865H53.6162V153.895H54.4905V148.865Z" fill="#939598"/>
<path d="M53.3563 159.227H51.0347V158.903L52.2612 157.54C52.4429 157.334 52.5678 157.167 52.6359 157.039C52.7057 156.909 52.7406 156.775 52.7406 156.638C52.7406 156.453 52.6846 156.301 52.5727 156.182C52.4607 156.064 52.3115 156.005 52.1249 156.005C51.901 156.005 51.7266 156.069 51.6017 156.197C51.4784 156.324 51.4168 156.5 51.4168 156.728H50.9666C50.9666 156.402 51.0712 156.138 51.2805 155.937C51.4914 155.736 51.7729 155.635 52.1249 155.635C52.4542 155.635 52.7146 155.722 52.9061 155.895C53.0975 156.067 53.1932 156.297 53.1932 156.584C53.1932 156.933 52.971 157.348 52.5264 157.83L51.5774 158.859H53.3563V159.227ZM56.055 157.716C56.055 158.243 55.965 158.635 55.7849 158.891C55.6048 159.147 55.3233 159.275 54.9405 159.275C54.5625 159.275 54.2826 159.151 54.1009 158.901C53.9192 158.649 53.8251 158.274 53.8186 157.776V157.175C53.8186 156.655 53.9087 156.268 54.0887 156.015C54.2688 155.761 54.5511 155.635 54.9356 155.635C55.3169 155.635 55.5975 155.757 55.7776 156.002C55.9577 156.246 56.0502 156.622 56.055 157.132V157.716ZM55.6048 157.1C55.6048 156.719 55.5513 156.441 55.4442 156.268C55.3371 156.092 55.1676 156.005 54.9356 156.005C54.7052 156.005 54.5373 156.092 54.4319 156.265C54.3264 156.439 54.2721 156.706 54.2688 157.066V157.786C54.2688 158.169 54.324 158.452 54.4343 158.635C54.5462 158.817 54.715 158.908 54.9405 158.908C55.1627 158.908 55.3274 158.822 55.4345 158.65C55.5432 158.478 55.6 158.207 55.6048 157.837V157.1Z" fill="#939598"/>
<path d="M74.1619 148.865H73.2876V153.895H74.1619V148.865Z" fill="#939598"/>
<path d="M71.3402 157.236H71.6784C71.891 157.233 72.0581 157.177 72.1797 157.068C72.3014 156.959 72.3623 156.813 72.3623 156.628C72.3623 156.212 72.1554 156.005 71.7417 156.005C71.547 156.005 71.3913 156.061 71.2745 156.173C71.1593 156.283 71.1017 156.43 71.1017 156.613H70.6515C70.6515 156.332 70.7537 156.1 70.9581 155.915C71.1642 155.728 71.4254 155.635 71.7417 155.635C72.0759 155.635 72.3379 155.723 72.5277 155.9C72.7175 156.077 72.8125 156.323 72.8125 156.637C72.8125 156.791 72.7622 156.941 72.6616 157.085C72.5626 157.229 72.4272 157.337 72.2552 157.409C72.4499 157.47 72.5999 157.573 72.7054 157.715C72.8125 157.858 72.866 158.033 72.866 158.239C72.866 158.557 72.7622 158.809 72.5545 158.995C72.3468 159.182 72.0767 159.275 71.7441 159.275C71.4116 159.275 71.1406 159.185 70.9314 159.005C70.7237 158.825 70.6199 158.587 70.6199 158.292H71.0725C71.0725 158.479 71.1333 158.628 71.255 158.74C71.3767 158.852 71.5397 158.908 71.7441 158.908C71.9615 158.908 72.1278 158.851 72.243 158.737C72.3582 158.624 72.4158 158.461 72.4158 158.248C72.4158 158.042 72.3525 157.884 72.226 157.774C72.0994 157.663 71.9169 157.607 71.6784 157.603H71.3402V157.236ZM75.7059 157.715C75.7059 158.243 75.6159 158.634 75.4358 158.891C75.2557 159.147 74.9742 159.275 74.5914 159.275C74.2133 159.275 73.9335 159.15 73.7518 158.9C73.5701 158.649 73.476 158.274 73.4695 157.776V157.175C73.4695 156.654 73.5595 156.267 73.7396 156.014C73.9197 155.761 74.202 155.635 74.5865 155.635C74.9677 155.635 75.2484 155.757 75.4285 156.002C75.6086 156.246 75.701 156.622 75.7059 157.131V157.715ZM75.2557 157.1C75.2557 156.718 75.2022 156.441 75.0951 156.267C74.988 156.092 74.8185 156.005 74.5865 156.005C74.3561 156.005 74.1882 156.091 74.0827 156.265C73.9773 156.439 73.9229 156.705 73.9197 157.066V157.786C73.9197 158.169 73.9749 158.452 74.0852 158.635C74.1971 158.817 74.3658 158.908 74.5914 158.908C74.8136 158.908 74.9783 158.822 75.0854 158.65C75.1941 158.478 75.2508 158.207 75.2557 157.837V157.1Z" fill="#939598"/>
<path d="M93.8333 148.865H92.959V153.895H93.8333V148.865Z" fill="#939598"/>
<path d="M92.237 158.037H92.7286V158.404H92.237V159.227H91.7844V158.404H90.171V158.139L91.7576 155.684H92.237V158.037ZM90.682 158.037H91.7844V156.299L91.7308 156.397L90.682 158.037ZM95.3568 157.716C95.3568 158.243 95.2667 158.635 95.0867 158.891C94.9066 159.147 94.6251 159.275 94.2422 159.275C93.8642 159.275 93.5844 159.151 93.4027 158.901C93.221 158.649 93.1269 158.274 93.1204 157.776V157.175C93.1204 156.655 93.2104 156.268 93.3905 156.015C93.5706 155.761 93.8529 155.635 94.2374 155.635C94.6186 155.635 94.8993 155.757 95.0794 156.002C95.2594 156.246 95.3519 156.622 95.3568 157.132V157.716ZM94.9066 157.1C94.9066 156.719 94.853 156.441 94.746 156.268C94.6389 156.092 94.4694 156.005 94.2374 156.005C94.007 156.005 93.8391 156.092 93.7336 156.265C93.6282 156.439 93.5738 156.706 93.5706 157.066V157.786C93.5706 158.169 93.6257 158.452 93.7361 158.635C93.848 158.817 94.0167 158.908 94.2422 158.908C94.4645 158.908 94.6292 158.822 94.7362 158.65C94.8449 158.478 94.9017 158.207 94.9066 157.837V157.1Z" fill="#939598"/>
<path d="M113.506 148.865H112.631V153.895H113.506V148.865Z" fill="#939598"/>
<path d="M110.194 157.45L110.374 155.684H112.19V156.1H110.756L110.649 157.066C110.823 156.964 111.02 156.913 111.241 156.913C111.563 156.913 111.82 157.02 112.01 157.234C112.199 157.446 112.294 157.734 112.294 158.098C112.294 158.463 112.195 158.751 111.997 158.962C111.801 159.171 111.526 159.275 111.172 159.275C110.859 159.275 110.604 159.189 110.406 159.015C110.208 158.842 110.095 158.601 110.068 158.295H110.493C110.521 158.498 110.593 158.651 110.71 158.755C110.827 158.857 110.981 158.908 111.172 158.908C111.382 158.908 111.546 158.837 111.664 158.694C111.784 158.551 111.844 158.354 111.844 158.103C111.844 157.866 111.779 157.676 111.649 157.533C111.521 157.389 111.35 157.317 111.136 157.317C110.94 157.317 110.786 157.359 110.674 157.445L110.554 157.543L110.194 157.45ZM115.008 157.716C115.008 158.243 114.918 158.635 114.738 158.891C114.557 159.147 114.276 159.275 113.893 159.275C113.515 159.275 113.235 159.151 113.054 158.901C112.872 158.649 112.778 158.274 112.771 157.776V157.175C112.771 156.655 112.861 156.268 113.041 156.015C113.221 155.761 113.504 155.635 113.888 155.635C114.269 155.635 114.55 155.757 114.73 156.002C114.91 156.246 115.003 156.622 115.008 157.132V157.716ZM114.557 157.1C114.557 156.719 114.504 156.441 114.397 156.268C114.29 156.092 114.12 156.005 113.888 156.005C113.658 156.005 113.49 156.092 113.385 156.265C113.279 156.439 113.225 156.706 113.221 157.066V157.786C113.221 158.169 113.277 158.452 113.387 158.635C113.499 158.817 113.668 158.908 113.893 158.908C114.115 158.908 114.28 158.822 114.387 158.65C114.496 158.478 114.553 158.207 114.557 157.837V157.1Z" fill="#939598"/>
<path d="M133.178 148.865H132.304V153.895H133.178V148.865Z" fill="#939598"/>
<path d="M131.407 155.681V156.063H131.324C130.974 156.07 130.695 156.174 130.487 156.375C130.279 156.576 130.159 156.859 130.127 157.224C130.313 157.01 130.568 156.903 130.891 156.903C131.199 156.903 131.445 157.012 131.628 157.229C131.813 157.446 131.906 157.727 131.906 158.071C131.906 158.436 131.806 158.728 131.606 158.947C131.409 159.166 131.142 159.275 130.808 159.275C130.469 159.275 130.194 159.146 129.983 158.886C129.772 158.625 129.667 158.289 129.667 157.879V157.706C129.667 157.054 129.806 156.556 130.083 156.212C130.362 155.866 130.777 155.689 131.327 155.681H131.407ZM130.816 157.278C130.661 157.278 130.519 157.324 130.39 157.416C130.26 157.509 130.17 157.625 130.12 157.764V157.93C130.12 158.222 130.185 158.457 130.317 158.635C130.448 158.814 130.612 158.903 130.808 158.903C131.011 158.903 131.17 158.829 131.285 158.679C131.402 158.53 131.46 158.335 131.46 158.093C131.46 157.849 131.401 157.653 131.283 157.504C131.166 157.353 131.01 157.278 130.816 157.278ZM134.66 157.716C134.66 158.243 134.57 158.635 134.39 158.891C134.21 159.147 133.929 159.275 133.546 159.275C133.168 159.275 132.888 159.151 132.706 158.901C132.525 158.649 132.431 158.274 132.424 157.776V157.175C132.424 156.655 132.514 156.268 132.694 156.015C132.874 155.761 133.157 155.635 133.541 155.635C133.922 155.635 134.203 155.757 134.383 156.002C134.563 156.246 134.656 156.622 134.66 157.132V157.716ZM134.21 157.1C134.21 156.719 134.157 156.441 134.05 156.268C133.943 156.092 133.773 156.005 133.541 156.005C133.311 156.005 133.143 156.092 133.037 156.265C132.932 156.439 132.878 156.706 132.874 157.066V157.786C132.874 158.169 132.929 158.452 133.04 158.635C133.152 158.817 133.32 158.908 133.546 158.908C133.768 158.908 133.933 158.822 134.04 158.65C134.149 158.478 134.205 158.207 134.21 157.837V157.1Z" fill="#939598"/>
<path d="M152.849 148.865H151.975V153.895H152.849V148.865Z" fill="#939598"/>
<path d="M151.579 155.936L150.111 159.227H149.639L151.102 156.053H149.184V155.683H151.579V155.936ZM154.311 157.715C154.311 158.243 154.221 158.634 154.041 158.891C153.861 159.147 153.58 159.275 153.197 159.275C152.819 159.275 152.539 159.15 152.357 158.9C152.176 158.649 152.081 158.274 152.075 157.776V157.175C152.075 156.654 152.165 156.267 152.345 156.014C152.525 155.761 152.807 155.635 153.192 155.635C153.573 155.635 153.854 155.757 154.034 156.002C154.214 156.246 154.307 156.622 154.311 157.131V157.715ZM153.861 157.1C153.861 156.718 153.808 156.441 153.701 156.267C153.593 156.092 153.424 156.005 153.192 156.005C152.962 156.005 152.794 156.091 152.688 156.265C152.583 156.439 152.528 156.705 152.525 157.066V157.786C152.525 158.169 152.58 158.452 152.691 158.635C152.803 158.817 152.971 158.908 153.197 158.908C153.419 158.908 153.584 158.822 153.691 158.65C153.8 158.478 153.856 158.207 153.861 157.837V157.1Z" fill="#939598"/>
<path d="M172.412 148.865H171.538V153.895H172.412V148.865Z" fill="#939598"/>
<path d="M171.09 156.608C171.09 156.785 171.043 156.942 170.949 157.08C170.857 157.218 170.731 157.326 170.572 157.404C170.757 157.483 170.903 157.599 171.01 157.752C171.119 157.904 171.173 158.077 171.173 158.27C171.173 158.577 171.069 158.821 170.861 159.003C170.655 159.184 170.384 159.275 170.046 159.275C169.706 159.275 169.432 159.184 169.226 159.003C169.022 158.819 168.92 158.575 168.92 158.27C168.92 158.079 168.971 157.906 169.075 157.752C169.181 157.598 169.326 157.481 169.511 157.401C169.354 157.324 169.229 157.216 169.139 157.078C169.048 156.94 169.002 156.783 169.002 156.608C169.002 156.31 169.098 156.073 169.289 155.898C169.481 155.722 169.733 155.635 170.046 155.635C170.358 155.635 170.609 155.722 170.801 155.898C170.994 156.073 171.09 156.31 171.09 156.608ZM170.723 158.26C170.723 158.063 170.659 157.901 170.533 157.776C170.408 157.651 170.244 157.589 170.041 157.589C169.839 157.589 169.676 157.65 169.552 157.774C169.431 157.897 169.37 158.059 169.37 158.26C169.37 158.462 169.429 158.62 169.547 158.735C169.667 158.85 169.834 158.908 170.046 158.908C170.257 158.908 170.423 158.85 170.543 158.735C170.663 158.618 170.723 158.46 170.723 158.26ZM170.046 156.005C169.869 156.005 169.726 156.06 169.616 156.17C169.507 156.279 169.452 156.427 169.452 156.615C169.452 156.795 169.506 156.941 169.613 157.053C169.722 157.164 169.866 157.219 170.046 157.219C170.226 157.219 170.37 157.164 170.477 157.053C170.586 156.941 170.64 156.795 170.64 156.615C170.64 156.435 170.584 156.289 170.472 156.175C170.36 156.061 170.218 156.005 170.046 156.005ZM173.962 157.715C173.962 158.243 173.872 158.634 173.692 158.891C173.512 159.147 173.23 159.275 172.847 159.275C172.469 159.275 172.189 159.15 172.008 158.9C171.826 158.649 171.732 158.274 171.725 157.776V157.175C171.725 156.654 171.815 156.267 171.995 156.014C172.176 155.761 172.458 155.635 172.842 155.635C173.224 155.635 173.504 155.757 173.684 156.002C173.864 156.246 173.957 156.622 173.962 157.131V157.715ZM173.512 157.1C173.512 156.718 173.458 156.441 173.351 156.267C173.244 156.092 173.074 156.005 172.842 156.005C172.612 156.005 172.444 156.091 172.339 156.265C172.233 156.439 172.179 156.705 172.176 157.066V157.786C172.176 158.169 172.231 158.452 172.341 158.635C172.453 158.817 172.622 158.908 172.847 158.908C173.069 158.908 173.234 158.822 173.341 158.65C173.45 158.478 173.507 158.207 173.512 157.837V157.1Z" fill="#939598"/>
<path d="M192.084 148.865H191.209V153.895H192.084V148.865Z" fill="#939598"/>
<path d="M190.318 157.669C190.224 157.781 190.111 157.871 189.98 157.939C189.85 158.008 189.707 158.042 189.552 158.042C189.347 158.042 189.169 157.991 189.016 157.891C188.865 157.79 188.749 157.649 188.666 157.467C188.583 157.284 188.542 157.082 188.542 156.861C188.542 156.625 188.586 156.411 188.676 156.221C188.766 156.032 188.895 155.886 189.06 155.786C189.226 155.685 189.419 155.635 189.639 155.635C189.99 155.635 190.265 155.766 190.467 156.029C190.669 156.29 190.771 156.647 190.771 157.1V157.231C190.771 157.921 190.635 158.425 190.362 158.743C190.089 159.059 189.678 159.221 189.128 159.229H189.041V158.85H189.135C189.507 158.843 189.793 158.747 189.992 158.56C190.192 158.372 190.3 158.075 190.318 157.669ZM189.625 157.669C189.775 157.669 189.914 157.623 190.041 157.531C190.169 157.438 190.262 157.324 190.321 157.188V157.007C190.321 156.712 190.257 156.472 190.128 156.287C190 156.102 189.838 156.01 189.642 156.01C189.444 156.01 189.285 156.086 189.165 156.238C189.045 156.389 188.985 156.589 188.985 156.837C188.985 157.079 189.042 157.278 189.157 157.436C189.274 157.591 189.43 157.669 189.625 157.669ZM193.613 157.716C193.613 158.243 193.523 158.635 193.343 158.891C193.163 159.147 192.881 159.275 192.499 159.275C192.121 159.275 191.841 159.151 191.659 158.901C191.477 158.649 191.383 158.274 191.377 157.776V157.175C191.377 156.655 191.467 156.268 191.647 156.015C191.827 155.761 192.109 155.635 192.494 155.635C192.875 155.635 193.156 155.757 193.336 156.002C193.516 156.246 193.608 156.622 193.613 157.132V157.716ZM193.163 157.1C193.163 156.719 193.109 156.441 193.002 156.268C192.895 156.092 192.726 156.005 192.494 156.005C192.263 156.005 192.095 156.092 191.99 156.265C191.885 156.439 191.83 156.706 191.827 157.066V157.786C191.827 158.169 191.882 158.452 191.992 158.635C192.104 158.817 192.273 158.908 192.499 158.908C192.721 158.908 192.886 158.822 192.993 158.65C193.101 158.478 193.158 158.207 193.163 157.837V157.1Z" fill="#939598"/>
<path d="M211.756 148.865H210.881V153.895H211.756V148.865Z" fill="#939598"/>
<path d="M208.054 159.227H207.602V156.226L206.694 156.56V156.151L207.984 155.667H208.054V159.227ZM211.595 157.716C211.595 158.243 211.505 158.635 211.325 158.891C211.145 159.147 210.863 159.275 210.481 159.275C210.103 159.275 209.823 159.151 209.641 158.901C209.459 158.649 209.365 158.274 209.359 157.776V157.175C209.359 156.655 209.449 156.268 209.629 156.015C209.809 155.761 210.091 155.635 210.476 155.635C210.857 155.635 211.138 155.757 211.318 156.002C211.498 156.246 211.59 156.622 211.595 157.132V157.716ZM211.145 157.1C211.145 156.719 211.091 156.441 210.984 156.268C210.877 156.092 210.708 156.005 210.476 156.005C210.245 156.005 210.077 156.092 209.972 156.265C209.866 156.439 209.812 156.706 209.809 157.066V157.786C209.809 158.169 209.864 158.452 209.974 158.635C210.086 158.817 210.255 158.908 210.481 158.908C210.703 158.908 210.867 158.822 210.975 158.65C211.083 158.478 211.14 158.207 211.145 157.837V157.1ZM214.394 157.716C214.394 158.243 214.304 158.635 214.123 158.891C213.943 159.147 213.662 159.275 213.279 159.275C212.901 159.275 212.621 159.151 212.439 158.901C212.258 158.649 212.164 158.274 212.157 157.776V157.175C212.157 156.655 212.247 156.268 212.427 156.015C212.607 155.761 212.89 155.635 213.274 155.635C213.655 155.635 213.936 155.757 214.116 156.002C214.296 156.246 214.389 156.622 214.394 157.132V157.716ZM213.943 157.1C213.943 156.719 213.89 156.441 213.783 156.268C213.676 156.092 213.506 156.005 213.274 156.005C213.044 156.005 212.876 156.092 212.77 156.265C212.665 156.439 212.611 156.706 212.607 157.066V157.786C212.607 158.169 212.663 158.452 212.773 158.635C212.885 158.817 213.054 158.908 213.279 158.908C213.501 158.908 213.666 158.822 213.773 158.65C213.882 158.478 213.939 158.207 213.943 157.837V157.1Z" fill="#939598"/>
<path d="M231.428 148.865H230.554V153.895H231.428V148.865Z" fill="#939598"/>
<path d="M227.705 159.227H227.253V156.226L226.345 156.56V156.151L227.635 155.667H227.705V159.227ZM230.504 159.227H230.051V156.226L229.143 156.56V156.151L230.433 155.667H230.504V159.227ZM234.044 157.716C234.044 158.243 233.954 158.635 233.774 158.891C233.594 159.147 233.313 159.275 232.93 159.275C232.552 159.275 232.272 159.151 232.09 158.901C231.909 158.649 231.815 158.274 231.808 157.776V157.175C231.808 156.655 231.898 156.268 232.078 156.015C232.258 155.761 232.541 155.635 232.925 155.635C233.306 155.635 233.587 155.757 233.767 156.002C233.947 156.246 234.04 156.622 234.044 157.132V157.716ZM233.594 157.1C233.594 156.719 233.541 156.441 233.434 156.268C233.327 156.092 233.157 156.005 232.925 156.005C232.695 156.005 232.527 156.092 232.421 156.265C232.316 156.439 232.262 156.706 232.258 157.066V157.786C232.258 158.169 232.313 158.452 232.424 158.635C232.536 158.817 232.704 158.908 232.93 158.908C233.152 158.908 233.317 158.822 233.424 158.65C233.533 158.478 233.589 158.207 233.594 157.837V157.1Z" fill="#939598"/>
<path d="M251.099 148.865H250.225V153.895H251.099V148.865Z" fill="#939598"/>
<path d="M247.356 159.227H246.903V156.226L245.996 156.559V156.151L247.285 155.666H247.356V159.227ZM250.997 159.227H248.675V158.903L249.902 157.54C250.083 157.334 250.208 157.167 250.276 157.039C250.346 156.909 250.381 156.775 250.381 156.637C250.381 156.452 250.325 156.301 250.213 156.182C250.101 156.064 249.952 156.005 249.765 156.005C249.541 156.005 249.367 156.069 249.242 156.197C249.119 156.323 249.057 156.5 249.057 156.727H248.607C248.607 156.401 248.712 156.138 248.921 155.936C249.132 155.735 249.413 155.635 249.765 155.635C250.095 155.635 250.355 155.721 250.546 155.895C250.738 156.067 250.834 156.297 250.834 156.584C250.834 156.933 250.611 157.348 250.167 157.83L249.218 158.859H250.997V159.227ZM253.695 157.715C253.695 158.243 253.605 158.634 253.425 158.891C253.245 159.147 252.964 159.275 252.581 159.275C252.203 159.275 251.923 159.15 251.741 158.9C251.56 158.649 251.465 158.274 251.459 157.776V157.175C251.459 156.654 251.549 156.267 251.729 156.014C251.909 155.761 252.191 155.635 252.576 155.635C252.957 155.635 253.238 155.757 253.418 156.002C253.598 156.246 253.69 156.622 253.695 157.131V157.715ZM253.245 157.1C253.245 156.718 253.192 156.441 253.085 156.267C252.977 156.092 252.808 156.005 252.576 156.005C252.346 156.005 252.178 156.091 252.072 156.265C251.967 156.439 251.912 156.705 251.909 157.066V157.786C251.909 158.169 251.964 158.452 252.075 158.635C252.187 158.817 252.355 158.908 252.581 158.908C252.803 158.908 252.968 158.822 253.075 158.65C253.184 158.478 253.24 158.207 253.245 157.837V157.1Z" fill="#939598"/>
<path d="M270.662 148.865H269.788V153.895H270.662V148.865Z" fill="#939598"/>
<path d="M267.007 159.227H266.555V156.226L265.647 156.559V156.151L266.937 155.666H267.007V159.227ZM268.981 157.236H269.319C269.532 157.233 269.699 157.177 269.821 157.068C269.942 156.959 270.003 156.813 270.003 156.628C270.003 156.212 269.796 156.005 269.383 156.005C269.188 156.005 269.032 156.061 268.915 156.173C268.8 156.283 268.743 156.43 268.743 156.613H268.292C268.292 156.332 268.395 156.1 268.599 155.915C268.805 155.728 269.066 155.635 269.383 155.635C269.717 155.635 269.979 155.723 270.169 155.9C270.358 156.077 270.453 156.323 270.453 156.637C270.453 156.791 270.403 156.941 270.302 157.085C270.203 157.229 270.068 157.337 269.896 157.409C270.091 157.47 270.241 157.573 270.346 157.715C270.453 157.858 270.507 158.033 270.507 158.239C270.507 158.557 270.403 158.809 270.195 158.995C269.988 159.182 269.718 159.275 269.385 159.275C269.052 159.275 268.781 159.185 268.572 159.005C268.365 158.825 268.261 158.587 268.261 158.292H268.713C268.713 158.479 268.774 158.628 268.896 158.74C269.018 158.852 269.181 158.908 269.385 158.908C269.602 158.908 269.769 158.851 269.884 158.737C269.999 158.624 270.057 158.461 270.057 158.248C270.057 158.042 269.993 157.884 269.867 157.774C269.74 157.663 269.558 157.607 269.319 157.603H268.981V157.236ZM273.347 157.715C273.347 158.243 273.257 158.634 273.077 158.891C272.897 159.147 272.615 159.275 272.232 159.275C271.854 159.275 271.574 159.15 271.393 158.9C271.211 158.649 271.117 158.274 271.11 157.776V157.175C271.11 156.654 271.2 156.267 271.38 156.014C271.561 155.761 271.843 155.635 272.227 155.635C272.609 155.635 272.889 155.757 273.069 156.002C273.249 156.246 273.342 156.622 273.347 157.131V157.715ZM272.897 157.1C272.897 156.718 272.843 156.441 272.736 156.267C272.629 156.092 272.459 156.005 272.227 156.005C271.997 156.005 271.829 156.091 271.724 156.265C271.618 156.439 271.564 156.705 271.561 157.066V157.786C271.561 158.169 271.616 158.452 271.726 158.635C271.838 158.817 272.007 158.908 272.232 158.908C272.454 158.908 272.619 158.822 272.726 158.65C272.835 158.478 272.892 158.207 272.897 157.837V157.1Z" fill="#939598"/>
<path d="M25.2006 131.37H20.1733V132.245H25.2006V131.37Z" fill="#939598"/>
<path d="M25.2006 112.89H20.1733V113.765H25.2006V112.89Z" fill="#939598"/>
<path d="M25.2006 94.301H20.1733V95.1758H25.2006V94.301Z" fill="#939598"/>
<path d="M25.2006 75.821H20.1733V76.6958H25.2006V75.821Z" fill="#939598"/>
<path d="M25.2006 57.3413H20.1733V58.2161H25.2006V57.3413Z" fill="#939598"/>
<path d="M285.306 149.85H20.1733V150.724H285.306V149.85Z" fill="#939598"/>
<path d="M15.0529 147.677C15.0529 148.204 14.9628 148.596 14.7828 148.852C14.6027 149.108 14.3212 149.236 13.9383 149.236C13.5603 149.236 13.2805 149.111 13.0988 148.862C12.9171 148.61 12.823 148.235 12.8165 147.737V147.136C12.8165 146.616 12.9065 146.229 13.0866 145.976C13.2667 145.722 13.549 145.596 13.9335 145.596C14.3147 145.596 14.5954 145.718 14.7755 145.963C14.9555 146.207 15.048 146.583 15.0529 147.092V147.677ZM14.6027 147.061C14.6027 146.68 14.5491 146.402 14.4421 146.229C14.335 146.053 14.1655 145.966 13.9335 145.966C13.7031 145.966 13.5352 146.053 13.4297 146.226C13.3243 146.4 13.2699 146.667 13.2667 147.027V147.747C13.2667 148.13 13.3218 148.413 13.4322 148.596C13.5441 148.778 13.7128 148.869 13.9383 148.869C14.1606 148.869 14.3253 148.783 14.4323 148.611C14.541 148.439 14.5978 148.168 14.6027 147.798V147.061Z" fill="#939598"/>
<path d="M11.8113 130.674H9.48977V130.35L10.7163 128.987C10.898 128.781 11.0229 128.614 11.091 128.486C11.1608 128.356 11.1957 128.222 11.1957 128.084C11.1957 127.899 11.1397 127.748 11.0277 127.629C10.9158 127.511 10.7665 127.452 10.58 127.452C10.3561 127.452 10.1817 127.516 10.0568 127.644C9.93348 127.77 9.87183 127.947 9.87183 128.174H9.42163C9.42163 127.848 9.52627 127.585 9.73555 127.383C9.94646 127.182 10.2279 127.082 10.58 127.082C10.9093 127.082 11.1697 127.169 11.3611 127.342C11.5526 127.514 11.6483 127.744 11.6483 128.031C11.6483 128.38 11.426 128.795 10.9815 129.277L10.0324 130.306H11.8113V130.674ZM14.5101 129.162C14.5101 129.69 14.4201 130.081 14.24 130.338C14.0599 130.594 13.7784 130.722 13.3956 130.722C13.0175 130.722 12.7377 130.597 12.556 130.347C12.3743 130.096 12.2802 129.721 12.2737 129.223V128.622C12.2737 128.101 12.3637 127.714 12.5438 127.461C12.7239 127.208 13.0062 127.082 13.3907 127.082C13.7719 127.082 14.0526 127.204 14.2327 127.449C14.4128 127.693 14.5052 128.069 14.5101 128.578V129.162ZM14.0599 128.547C14.0599 128.165 14.0064 127.888 13.8993 127.714C13.7922 127.539 13.6227 127.452 13.3907 127.452C13.1603 127.452 12.9924 127.538 12.8869 127.712C12.7815 127.886 12.7271 128.152 12.7239 128.513V129.233C12.7239 129.616 12.7791 129.899 12.8894 130.082C13.0013 130.264 13.17 130.355 13.3956 130.355C13.6178 130.355 13.7825 130.269 13.8896 130.097C13.9983 129.925 14.055 129.654 14.0599 129.284V128.547Z" fill="#939598"/>
<path d="M11.3903 110.968H11.8819V111.335H11.3903V112.158H10.9377V111.335H9.32429V111.07L10.9109 108.615H11.3903V110.968ZM9.83533 110.968H10.9377V109.23L10.8842 109.328L9.83533 110.968ZM14.5101 110.647C14.5101 111.174 14.4201 111.566 14.24 111.822C14.0599 112.078 13.7784 112.206 13.3956 112.206C13.0175 112.206 12.7377 112.081 12.556 111.832C12.3743 111.58 12.2802 111.205 12.2737 110.707V110.106C12.2737 109.585 12.3637 109.199 12.5438 108.945C12.7239 108.692 13.0062 108.566 13.3907 108.566C13.7719 108.566 14.0526 108.688 14.2327 108.933C14.4128 109.177 14.5052 109.553 14.5101 110.062V110.647ZM14.0599 110.031C14.0599 109.65 14.0064 109.372 13.8993 109.199C13.7922 109.023 13.6227 108.936 13.3907 108.936C13.1603 108.936 12.9924 109.023 12.8869 109.196C12.7815 109.37 12.7271 109.637 12.7239 109.997V110.717C12.7239 111.1 12.7791 111.383 12.8894 111.566C13.0013 111.748 13.17 111.839 13.3956 111.839C13.6178 111.839 13.7825 111.753 13.8896 111.581C13.9983 111.409 14.055 111.138 14.0599 110.768V110.031Z" fill="#939598"/>
<path d="M11.2565 90.0992V90.4812H11.1738C10.8233 90.4877 10.5443 90.5915 10.3366 90.7927C10.129 90.9939 10.0089 91.277 9.97647 91.642C10.163 91.4278 10.4177 91.3208 10.7406 91.3208C11.0488 91.3208 11.2946 91.4295 11.4779 91.6469C11.6629 91.8643 11.7554 92.1449 11.7554 92.4889C11.7554 92.8539 11.6556 93.1459 11.456 93.3649C11.2581 93.5839 10.9921 93.6934 10.6579 93.6934C10.3188 93.6934 10.0438 93.5637 9.83289 93.3041C9.62199 93.0429 9.51654 92.7071 9.51654 92.2966V92.1238C9.51654 91.4717 9.65525 90.9736 9.93267 90.6297C10.2117 90.2841 10.6262 90.1073 11.1762 90.0992H11.2565ZM10.6652 91.6955C10.511 91.6955 10.3691 91.7418 10.2393 91.8342C10.1095 91.9267 10.0195 92.0427 9.96917 92.1822V92.3477C9.96917 92.6397 10.0349 92.875 10.1663 93.0534C10.2977 93.2319 10.4615 93.3211 10.6579 93.3211C10.8606 93.3211 11.0196 93.2465 11.1348 93.0972C11.2516 92.948 11.31 92.7525 11.31 92.5108C11.31 92.2674 11.2508 92.0711 11.1324 91.9219C11.0156 91.771 10.8598 91.6955 10.6652 91.6955ZM14.5101 92.1336C14.5101 92.6608 14.4201 93.0526 14.24 93.309C14.0599 93.5653 13.7784 93.6934 13.3956 93.6934C13.0175 93.6934 12.7377 93.5685 12.556 93.3187C12.3743 93.0672 12.2802 92.6925 12.2737 92.1944V91.5933C12.2737 91.0726 12.3637 90.6856 12.5438 90.4325C12.7239 90.1795 13.0062 90.0529 13.3907 90.0529C13.7719 90.0529 14.0526 90.1754 14.2327 90.4204C14.4128 90.6637 14.5052 91.0401 14.5101 91.5495V92.1336ZM14.0599 91.5179C14.0599 91.1366 14.0064 90.8592 13.8993 90.6856C13.7922 90.5104 13.6227 90.4228 13.3907 90.4228C13.1603 90.4228 12.9924 90.5096 12.8869 90.6832C12.7815 90.8568 12.7271 91.1237 12.7239 91.4838V92.2041C12.7239 92.587 12.7791 92.8701 12.8894 93.0534C13.0013 93.2351 13.17 93.326 13.3956 93.326C13.6178 93.326 13.7825 93.24 13.8896 93.068C13.9983 92.8961 14.055 92.6251 14.0599 92.2552V91.5179Z" fill="#939598"/>
<path d="M11.6386 72.5114C11.6386 72.6883 11.5915 72.8456 11.4974 72.9835C11.4049 73.1214 11.2792 73.2293 11.1202 73.3072C11.3052 73.3867 11.4512 73.5027 11.5583 73.6552C11.6669 73.8077 11.7213 73.9805 11.7213 74.1735C11.7213 74.4801 11.6175 74.7243 11.4098 74.906C11.2038 75.0877 10.932 75.1786 10.5946 75.1786C10.2539 75.1786 9.98053 75.0877 9.77449 74.906C9.57007 74.7227 9.46787 74.4785 9.46787 74.1735C9.46787 73.9821 9.51978 73.8093 9.62361 73.6552C9.72906 73.5011 9.87426 73.3842 10.0592 73.3048C9.90184 73.2269 9.77773 73.119 9.68688 72.9811C9.59603 72.8432 9.5506 72.6866 9.5506 72.5114C9.5506 72.2129 9.64632 71.9761 9.83776 71.8008C10.0292 71.6256 10.2815 71.538 10.5946 71.538C10.9061 71.538 11.1575 71.6256 11.349 71.8008C11.542 71.9761 11.6386 72.2129 11.6386 72.5114ZM11.2711 74.1638C11.2711 73.9659 11.2078 73.8044 11.0813 73.6795C10.9564 73.5546 10.7925 73.4921 10.5897 73.4921C10.3869 73.4921 10.2239 73.5538 10.1006 73.6771C9.9789 73.8004 9.91807 73.9626 9.91807 74.1638C9.91807 74.3649 9.97728 74.5231 10.0957 74.6383C10.2158 74.7535 10.3821 74.8111 10.5946 74.8111C10.8055 74.8111 10.971 74.7535 11.091 74.6383C11.2111 74.5215 11.2711 74.3633 11.2711 74.1638ZM10.5946 71.9079C10.4177 71.9079 10.2742 71.9631 10.1638 72.0734C10.0552 72.1821 10.0008 72.3305 10.0008 72.5187C10.0008 72.6988 10.0543 72.8448 10.1614 72.9568C10.2701 73.0671 10.4145 73.1222 10.5946 73.1222C10.7747 73.1222 10.9182 73.0671 11.0253 72.9568C11.134 72.8448 11.1884 72.6988 11.1884 72.5187C11.1884 72.3386 11.1324 72.1918 11.0204 72.0783C10.9085 71.9647 10.7665 71.9079 10.5946 71.9079ZM14.5101 73.6187C14.5101 74.1459 14.4201 74.5377 14.24 74.7941C14.0599 75.0504 13.7784 75.1786 13.3956 75.1786C13.0175 75.1786 12.7377 75.0536 12.556 74.8038C12.3743 74.5523 12.2802 74.1776 12.2737 73.6795V73.0784C12.2737 72.5577 12.3637 72.1707 12.5438 71.9176C12.7239 71.6646 13.0062 71.538 13.3907 71.538C13.7719 71.538 14.0526 71.6605 14.2327 71.9055C14.4128 72.1488 14.5052 72.5252 14.5101 73.0346V73.6187ZM14.0599 73.003C14.0599 72.6217 14.0064 72.3443 13.8993 72.1707C13.7922 71.9955 13.6227 71.9079 13.3907 71.9079C13.1603 71.9079 12.9924 71.9947 12.8869 72.1683C12.7815 72.3419 12.7271 72.6088 12.7239 72.9689V73.6892C12.7239 74.0721 12.7791 74.3552 12.8894 74.5385C13.0013 74.7202 13.17 74.8111 13.3956 74.8111C13.6178 74.8111 13.7825 74.7251 13.8896 74.5531C13.9983 74.3812 14.055 74.1102 14.0599 73.7403V73.003Z" fill="#939598"/>
<path d="M7.62999 56.6169H7.17735V53.6164L6.26965 53.9498V53.541L7.55941 53.0567H7.62999V56.6169ZM11.1707 55.1057C11.1707 55.633 11.0807 56.0248 10.9006 56.2811C10.7205 56.5374 10.4391 56.6656 10.0562 56.6656C9.67819 56.6656 9.39834 56.5407 9.21663 56.2909C9.03493 56.0394 8.94084 55.6646 8.93435 55.1666V54.5655C8.93435 54.0447 9.02439 53.6578 9.20447 53.4047C9.38455 53.1516 9.66683 53.0251 10.0513 53.0251C10.4326 53.0251 10.7132 53.1476 10.8933 53.3925C11.0734 53.6359 11.1659 54.0123 11.1707 54.5217V55.1057ZM10.7205 54.4901C10.7205 54.1088 10.667 53.8314 10.5599 53.6578C10.4529 53.4826 10.2833 53.395 10.0513 53.395C9.82096 53.395 9.65304 53.4818 9.54759 53.6554C9.44214 53.829 9.38779 54.0958 9.38455 54.456V55.1763C9.38455 55.5592 9.43971 55.8423 9.55003 56.0256C9.66197 56.2073 9.83069 56.2982 10.0562 56.2982C10.2785 56.2982 10.4431 56.2122 10.5502 56.0402C10.6589 55.8682 10.7157 55.5973 10.7205 55.2274V54.4901ZM13.9693 55.1057C13.9693 55.633 13.8792 56.0248 13.6992 56.2811C13.5191 56.5374 13.2376 56.6656 12.8547 56.6656C12.4767 56.6656 12.1969 56.5407 12.0152 56.2909C11.8335 56.0394 11.7394 55.6646 11.7329 55.1666V54.5655C11.7329 54.0447 11.8229 53.6578 12.003 53.4047C12.1831 53.1516 12.4654 53.0251 12.8499 53.0251C13.2311 53.0251 13.5118 53.1476 13.6919 53.3925C13.8719 53.6359 13.9644 54.0123 13.9693 54.5217V55.1057ZM13.5191 54.4901C13.5191 54.1088 13.4655 53.8314 13.3585 53.6578C13.2514 53.4826 13.0819 53.395 12.8499 53.395C12.6195 53.395 12.4516 53.4818 12.3461 53.6554C12.2407 53.829 12.1863 54.0958 12.1831 54.456V55.1763C12.1831 55.5592 12.2382 55.8423 12.3486 56.0256C12.4605 56.2073 12.6292 56.2982 12.8547 56.2982C13.077 56.2982 13.2417 56.2122 13.3487 56.0402C13.4574 55.8682 13.5142 55.5973 13.5191 55.2274V54.4901Z" fill="#939598"/>
<path d="M34.5996 132.135C34.5996 132.135 45.4191 100.643 72.9598 113.218C100.5 125.793 105.746 111.031 111.101 93.098C115.473 78.6641 125.2 55.045 139.626 89.4896C148.369 110.266 161.155 58.1068 161.155 58.1068C161.155 58.1068 164.871 41.8139 174.598 71.7752C184.324 101.627 191.319 122.403 200.608 115.186C209.898 107.969 214.597 80.6324 219.406 75.8211C224.324 71.0098 231.318 94.6289 238.313 94.5196C246.182 94.4102 265.744 59.5283 265.744 59.5283" stroke="#00A79D" stroke-width="1.17135" stroke-miterlimit="10"/>
<path d="M31.3208 113.655C31.3208 113.655 41.9218 90.8016 53.2877 104.142C65.4187 118.357 67.7138 130.495 78.424 127.652C89.2435 124.809 91.1014 89.5988 103.014 85.9903C114.926 82.3818 119.844 111.687 131.538 118.576C143.232 125.465 154.051 99.9868 156.128 95.0662C158.204 90.1455 160.281 84.4594 166.401 92.4418C172.193 99.9868 172.74 106.985 179.078 96.4877C185.417 85.8809 190.226 71.7751 197.22 70.3536C204.105 69.0414 212.083 96.3783 217.766 100.534C223.34 104.689 231.209 62.2618 237.11 59.5281C241.919 57.3412 258.968 103.705 258.968 103.705" stroke="#1C75BC" stroke-width="1.17135" stroke-miterlimit="10"/>
<path d="M36.6757 132.135C36.6757 133.338 35.6921 134.322 34.49 134.322C33.2878 134.322 32.3042 133.338 32.3042 132.135C32.3042 130.932 33.2878 129.948 34.49 129.948C35.6921 129.948 36.6757 130.932 36.6757 132.135Z" fill="#15BCAC"/>
<path d="M67.1674 110.594C67.1674 111.797 66.1838 112.781 64.9817 112.781C63.7795 112.781 62.7959 111.797 62.7959 110.594C62.7959 109.391 63.7795 108.407 64.9817 108.407C66.0745 108.407 67.1674 109.391 67.1674 110.594Z" fill="#15BCAC"/>
<path d="M94.0522 117.154C94.0522 118.357 93.0686 119.341 91.8664 119.341C90.6643 119.341 89.6807 118.357 89.6807 117.154C89.6807 115.952 90.6643 114.968 91.8664 114.968C93.0686 114.968 94.0522 115.952 94.0522 117.154Z" fill="#15BCAC"/>
<path d="M127.495 71.7753C127.495 72.9782 126.511 73.9623 125.309 73.9623C124.107 73.9623 123.123 72.9782 123.123 71.7753C123.123 70.5725 124.107 69.5884 125.309 69.5884C126.511 69.479 127.495 70.5725 127.495 71.7753Z" fill="#15BCAC"/>
<path d="M146.183 93.9728C146.183 95.1757 145.199 96.1598 143.997 96.1598C142.795 96.1598 141.812 95.1757 141.812 93.9728C141.812 92.77 142.795 91.7859 143.997 91.7859C145.199 91.7859 146.183 92.77 146.183 93.9728Z" fill="#15BCAC"/>
<path d="M166.729 54.061C166.729 55.2638 165.745 56.2479 164.543 56.2479C163.341 56.2479 162.357 55.2638 162.357 54.061C162.357 52.8582 163.341 51.874 164.543 51.874C165.745 51.874 166.729 52.8582 166.729 54.061Z" fill="#15BCAC"/>
<path d="M199.297 116.28C199.297 117.483 198.313 118.467 197.111 118.467C195.909 118.467 194.925 117.483 194.925 116.28C194.925 115.077 195.909 114.093 197.111 114.093C198.313 114.093 199.297 115.077 199.297 116.28Z" fill="#15BCAC"/>
<path d="M222.903 75.3837C222.903 76.5866 221.919 77.5707 220.717 77.5707C219.515 77.5707 218.531 76.5866 218.531 75.3837C218.531 74.1809 219.515 73.1968 220.717 73.1968C221.919 73.1968 222.903 74.1809 222.903 75.3837Z" fill="#15BCAC"/>
<path d="M267.93 59.5283C267.93 60.7311 266.946 61.7152 265.744 61.7152C264.542 61.7152 263.558 60.7311 263.558 59.5283C263.558 58.3254 264.542 57.3413 265.744 57.3413C266.946 57.232 267.93 58.3254 267.93 59.5283Z" fill="#15BCAC"/>
<path d="M240.607 94.0822C240.607 95.285 239.624 96.2692 238.422 96.2692C237.219 96.2692 236.236 95.285 236.236 94.0822C236.236 92.8794 237.219 91.8953 238.422 91.8953C239.624 91.8953 240.607 92.8794 240.607 94.0822Z" fill="#15BCAC"/>
<path d="M48.2607 100.096C48.2607 101.299 47.2771 102.283 46.0749 102.283C44.8728 102.283 43.8892 101.299 43.8892 100.096C43.8892 98.8933 44.8728 97.9092 46.0749 97.9092C47.1678 97.9092 48.2607 98.8933 48.2607 100.096Z" fill="#48A5E5"/>
<path d="M77.6591 128.089C77.6591 129.292 76.6755 130.276 75.4734 130.276C74.2712 130.276 73.2876 129.292 73.2876 128.089C73.2876 126.886 74.2712 125.902 75.4734 125.902C76.6755 125.902 77.6591 126.886 77.6591 128.089Z" fill="#48A5E5"/>
<path d="M33.6162 113.655C33.6162 114.858 32.6326 115.842 31.4304 115.842C30.2282 115.842 29.2446 114.858 29.2446 113.655C29.2446 112.453 30.2282 111.469 31.4304 111.469C32.5233 111.469 33.6162 112.453 33.6162 113.655Z" fill="#48A5E5"/>
<path d="M105.965 85.7717C105.965 86.9745 104.981 87.9586 103.779 87.9586C102.577 87.9586 101.593 86.9745 101.593 85.7717C101.593 84.5688 102.577 83.5847 103.779 83.5847C104.981 83.5847 105.965 84.5688 105.965 85.7717Z" fill="#48A5E5"/>
<path d="M137.112 119.451C137.112 120.654 136.128 121.638 134.926 121.638C133.724 121.638 132.74 120.654 132.74 119.451C132.74 118.248 133.724 117.264 134.926 117.264C136.128 117.155 137.112 118.248 137.112 119.451Z" fill="#48A5E5"/>
<path d="M163.232 88.9428C163.232 90.1456 162.248 91.1298 161.046 91.1298C159.844 91.1298 158.86 90.1456 158.86 88.9428C158.86 87.74 159.844 86.7559 161.046 86.7559C162.248 86.6465 163.232 87.6306 163.232 88.9428Z" fill="#48A5E5"/>
<path d="M175.581 101.518C175.581 102.721 174.598 103.705 173.396 103.705C172.194 103.705 171.21 102.721 171.21 101.518C171.21 100.315 172.194 99.3308 173.396 99.3308C174.598 99.2215 175.581 100.206 175.581 101.518Z" fill="#48A5E5"/>
<path d="M199.625 70.3537C199.625 71.5565 198.641 72.5407 197.439 72.5407C196.237 72.5407 195.253 71.5565 195.253 70.3537C195.253 69.1509 196.237 68.1667 197.439 68.1667C198.641 68.1667 199.625 69.1509 199.625 70.3537Z" fill="#48A5E5"/>
<path d="M220.717 100.643C220.717 101.846 219.734 102.83 218.531 102.83C217.329 102.83 216.346 101.846 216.346 100.643C216.346 99.4402 217.329 98.4561 218.531 98.4561C219.734 98.3467 220.717 99.3308 220.717 100.643Z" fill="#48A5E5"/>
<path d="M239.843 59.5283C239.843 60.7311 238.859 61.7152 237.657 61.7152C236.455 61.7152 235.471 60.7311 235.471 59.5283C235.471 58.3254 236.455 57.3413 237.657 57.3413C238.859 57.232 239.843 58.3254 239.843 59.5283Z" fill="#48A5E5"/>
<path d="M261.154 103.705C261.154 104.908 260.17 105.892 258.968 105.892C257.766 105.892 256.782 104.908 256.782 103.705C256.782 102.502 257.766 101.518 258.968 101.518C260.17 101.518 261.154 102.502 261.154 103.705Z" fill="#48A5E5"/>
</g>
<defs>
<clipPath id="clip0_5692_25554">
<rect width="279.45" height="110.441" fill="white" transform="translate(5.85693 51.874)"/>
</clipPath>
</defs>
</svg>
