<svg width="265" height="140" viewBox="0 0 265 140" fill="none" xmlns="http://www.w3.org/2000/svg">
<path d="M1.50607 48H262.876" stroke="#EFEFEF" stroke-width="1.6544" stroke-miterlimit="10"/>
<path d="M1.50604 58.2157H262.876" stroke="#EFEFEF" stroke-width="1.6544" stroke-miterlimit="10"/>
<path d="M1.50604 68.4309H262.876" stroke="#EFEFEF" stroke-width="1.6544" stroke-miterlimit="10"/>
<path d="M1.50604 78.5844H262.876" stroke="#EFEFEF" stroke-width="1.6544" stroke-miterlimit="10"/>
<path d="M1.50604 88.7998H262.876" stroke="#EFEFEF" stroke-width="1.6544" stroke-miterlimit="10"/>
<path d="M1.50604 99.0151H262.876" stroke="#EFEFEF" stroke-width="1.6544" stroke-miterlimit="10"/>
<path d="M1.50604 109.23H262.876" stroke="#EFEFEF" stroke-width="1.6544" stroke-miterlimit="10"/>
<path d="M10.1272 17H7.64243V7.63555C6.73458 8.48446 5.66461 9.11229 4.43252 9.51906V7.26416C5.08099 7.05194 5.78546 6.65106 6.54593 6.06155C7.30641 5.46614 7.82813 4.77346 8.11109 3.98351H10.1272V17ZM13.5052 14.3207L15.9988 13.9404C16.1049 14.4238 16.3201 14.7923 16.6443 15.0458C16.9686 15.2934 17.4225 15.4172 18.0061 15.4172C18.6487 15.4172 19.1321 15.2992 19.4563 15.0634C19.6744 14.8984 19.7835 14.6773 19.7835 14.4002C19.7835 14.2116 19.7245 14.0554 19.6066 13.9316C19.4828 13.8137 19.2058 13.7046 18.7754 13.6044C16.7711 13.1623 15.5007 12.7584 14.9642 12.3929C14.2214 11.886 13.85 11.1815 13.85 10.2795C13.85 9.466 14.1713 8.78216 14.8139 8.22802C15.4565 7.67387 16.4527 7.3968 17.8027 7.3968C19.0879 7.3968 20.0429 7.60608 20.6678 8.02463C21.2926 8.44319 21.723 9.06218 21.9588 9.88161L19.6155 10.3149C19.5153 9.9494 19.3237 9.66938 19.0407 9.47484C18.7636 9.2803 18.3657 9.18303 17.8469 9.18303C17.1926 9.18303 16.7239 9.27441 16.4409 9.45716C16.2523 9.58685 16.158 9.75486 16.158 9.96119C16.158 10.138 16.2405 10.2884 16.4056 10.4122C16.6296 10.5772 17.4019 10.8101 18.7224 11.1107C20.0488 11.4114 20.9743 11.7798 21.499 12.2161C22.0178 12.6582 22.2771 13.2743 22.2771 14.0642C22.2771 14.9249 21.9175 15.6647 21.1983 16.2837C20.4791 16.9027 19.415 17.2122 18.0061 17.2122C16.7269 17.2122 15.7129 16.9528 14.9642 16.4341C14.2214 15.9153 13.7351 15.2108 13.5052 14.3207ZM28.7677 7.60903V9.5898H27.0699V13.3745C27.0699 14.1409 27.0846 14.5889 27.1141 14.7186C27.1495 14.8424 27.2232 14.9455 27.3352 15.0281C27.4531 15.1106 27.5946 15.1519 27.7596 15.1519C27.9895 15.1519 28.3226 15.0723 28.7589 14.9131L28.9711 16.8408C28.3934 17.0884 27.739 17.2122 27.008 17.2122C26.56 17.2122 26.1561 17.1385 25.7965 16.9912C25.4369 16.8379 25.1717 16.6433 25.0007 16.4075C24.8356 16.1658 24.7207 15.8416 24.6558 15.4348C24.6028 15.146 24.5762 14.5624 24.5762 13.684V9.5898H23.4355V7.60903H24.5762V5.74321L27.0699 4.29301V7.60903H28.7677ZM37.3894 17L34.2944 4.03657H36.9737L38.928 12.9412L41.2978 4.03657H44.4105L46.6831 13.0915L48.6727 4.03657H51.3078L48.1598 17H45.3832L42.8011 7.30837L40.2279 17H37.3894ZM57.7365 14.0112L60.2124 14.4268C59.8941 15.3346 59.3901 16.0273 58.7003 16.5048C58.0165 16.9764 57.1587 17.2122 56.1271 17.2122C54.4941 17.2122 53.2856 16.6787 52.5016 15.6117C51.8826 14.7569 51.5731 13.6781 51.5731 12.3753C51.5731 10.8189 51.9798 9.60159 52.7934 8.72321C53.6069 7.83894 54.6356 7.3968 55.8795 7.3968C57.2766 7.3968 58.379 7.85957 59.1867 8.78511C59.9943 9.70475 60.3804 11.1166 60.3451 13.0208H54.1198C54.1375 13.7577 54.3379 14.3324 54.7211 14.7451C55.1043 15.1519 55.5818 15.3553 56.1536 15.3553C56.5427 15.3553 56.8699 15.2491 57.1352 15.0369C57.4004 14.8247 57.6009 14.4828 57.7365 14.0112ZM57.8779 11.4998C57.8603 10.7806 57.6746 10.2353 57.3209 9.86392C56.9671 9.48663 56.5368 9.29799 56.0298 9.29799C55.4875 9.29799 55.0394 9.49547 54.6857 9.89045C54.332 10.2854 54.1581 10.8219 54.164 11.4998H57.8779ZM67.8172 14.0112L70.2931 14.4268C69.9748 15.3346 69.4708 16.0273 68.781 16.5048C68.0972 16.9764 67.2394 17.2122 66.2078 17.2122C64.5748 17.2122 63.3663 16.6787 62.5823 15.6117C61.9633 14.7569 61.6538 13.6781 61.6538 12.3753C61.6538 10.8189 62.0606 9.60159 62.8741 8.72321C63.6876 7.83894 64.7163 7.3968 65.9602 7.3968C67.3573 7.3968 68.4597 7.85957 69.2674 8.78511C70.075 9.70475 70.4611 11.1166 70.4258 13.0208H64.2005C64.2182 13.7577 64.4186 14.3324 64.8018 14.7451C65.185 15.1519 65.6625 15.3553 66.2343 15.3553C66.6234 15.3553 66.9506 15.2491 67.2159 15.0369C67.4811 14.8247 67.6816 14.4828 67.8172 14.0112ZM67.9587 11.4998C67.941 10.7806 67.7553 10.2353 67.4016 9.86392C67.0479 9.48663 66.6175 9.29799 66.1105 9.29799C65.5682 9.29799 65.1201 9.49547 64.7664 9.89045C64.4127 10.2854 64.2388 10.8219 64.2447 11.4998H67.9587ZM72.3712 17V4.03657H74.856V10.9162L77.7652 7.60903H80.8248L77.6149 11.04L81.0547 17H78.3754L76.0144 12.782L74.856 13.9935V17H72.3712Z" fill="#32A1C8"/>
<path d="M28.8168 122.858C28.8168 123.91 28.0099 124.715 26.9547 124.715C25.8995 124.715 25.0927 123.91 25.0927 122.858C25.0927 121.805 25.8995 121 26.9547 121C27.9478 121 28.8168 121.805 28.8168 122.858Z" fill="#32A1C8"/>
<path d="M64.3199 122.857C64.3199 123.91 63.513 124.715 62.4578 124.715C61.4027 124.715 60.5958 123.91 60.5958 122.857C60.5958 121.805 61.4027 121 62.4578 121C63.513 121 64.3199 121.805 64.3199 122.857Z" fill="#32A1C8"/>
<path d="M100.257 122.857C100.257 123.91 99.4505 124.715 98.3953 124.715C97.3402 124.715 96.5333 123.91 96.5333 122.857C96.5333 121.805 97.3402 121 98.3953 121C99.4505 121 100.257 121.805 100.257 122.857Z" fill="#32A1C8"/>
<path d="M138.554 122.857C138.554 123.91 137.747 124.715 136.691 124.715C135.636 124.715 134.829 123.91 134.829 122.857C134.829 121.805 135.636 121 136.691 121C137.747 121 138.554 121.805 138.554 122.857Z" fill="#32A1C8"/>
<path d="M174.119 122.857C174.119 123.91 173.312 124.715 172.257 124.715C171.201 124.715 170.395 123.91 170.395 122.857C170.395 121.805 171.201 121 172.257 121C173.25 121 174.119 121.805 174.119 122.857Z" fill="#32A1C8"/>
<path d="M210.056 122.857C210.056 123.91 209.249 124.715 208.194 124.715C207.139 124.715 206.332 123.91 206.332 122.857C206.332 121.805 207.139 121 208.194 121C209.249 121 210.056 121.805 210.056 122.857Z" fill="#32A1C8"/>
<path d="M245.559 122.857C245.559 123.91 244.753 124.715 243.697 124.715C242.642 124.715 241.835 123.91 241.835 122.857C241.835 121.805 242.642 121 243.697 121C244.753 121 245.559 121.805 245.559 122.857Z" fill="#32A1C8"/>
<path d="M21.8115 138.048C21.4955 138.048 21.1895 138 20.8935 137.904C20.6015 137.804 20.3715 137.676 20.2035 137.52L20.4255 137.052C20.5855 137.196 20.7895 137.314 21.0375 137.406C21.2895 137.494 21.5475 137.538 21.8115 137.538C22.1595 137.538 22.4195 137.48 22.5915 137.364C22.7635 137.244 22.8495 137.086 22.8495 136.89C22.8495 136.746 22.8015 136.63 22.7055 136.542C22.6135 136.45 22.4975 136.38 22.3575 136.332C22.2215 136.284 22.0275 136.23 21.7755 136.17C21.4595 136.094 21.2035 136.018 21.0075 135.942C20.8155 135.866 20.6495 135.75 20.5095 135.594C20.3735 135.434 20.3055 135.22 20.3055 134.952C20.3055 134.728 20.3635 134.526 20.4795 134.346C20.5995 134.166 20.7795 134.022 21.0195 133.914C21.2595 133.806 21.5575 133.752 21.9135 133.752C22.1615 133.752 22.4055 133.784 22.6455 133.848C22.8855 133.912 23.0915 134.004 23.2635 134.124L23.0655 134.604C22.8895 134.492 22.7015 134.408 22.5015 134.352C22.3015 134.292 22.1055 134.262 21.9135 134.262C21.5735 134.262 21.3175 134.324 21.1455 134.448C20.9775 134.572 20.8935 134.732 20.8935 134.928C20.8935 135.072 20.9415 135.19 21.0375 135.282C21.1335 135.37 21.2515 135.44 21.3915 135.492C21.5355 135.54 21.7295 135.592 21.9735 135.648C22.2895 135.724 22.5435 135.8 22.7355 135.876C22.9275 135.952 23.0915 136.068 23.2275 136.224C23.3675 136.38 23.4375 136.59 23.4375 136.854C23.4375 137.074 23.3775 137.276 23.2575 137.46C23.1375 137.64 22.9555 137.784 22.7115 137.892C22.4675 137.996 22.1675 138.048 21.8115 138.048ZM26.0541 138.048C25.4941 138.048 25.0581 137.888 24.7461 137.568C24.4341 137.248 24.2781 136.788 24.2781 136.188V133.8H24.8781V136.164C24.8781 137.064 25.2721 137.514 26.0601 137.514C26.4441 137.514 26.7381 137.404 26.9421 137.184C27.1461 136.96 27.2481 136.62 27.2481 136.164V133.8H27.8301V136.188C27.8301 136.792 27.6741 137.254 27.3621 137.574C27.0501 137.89 26.6141 138.048 26.0541 138.048ZM32.6722 133.8V138H32.1802L29.6602 134.868V138H29.0602V133.8H29.5522L32.0722 136.932V133.8H32.6722Z" fill="#8B8B8B"/>
<path d="M58.8106 138L58.8046 134.94L57.2866 137.49H57.0106L55.4926 134.958V138H54.9166V133.8H55.4086L57.1606 136.752L58.8886 133.8H59.3806L59.3866 138H58.8106ZM62.543 138.048C62.119 138.048 61.737 137.956 61.397 137.772C61.057 137.584 60.789 137.326 60.593 136.998C60.401 136.67 60.305 136.304 60.305 135.9C60.305 135.496 60.401 135.13 60.593 134.802C60.789 134.474 61.057 134.218 61.397 134.034C61.737 133.846 62.119 133.752 62.543 133.752C62.963 133.752 63.343 133.846 63.683 134.034C64.023 134.218 64.289 134.474 64.481 134.802C64.673 135.126 64.769 135.492 64.769 135.9C64.769 136.308 64.673 136.676 64.481 137.004C64.289 137.328 64.023 137.584 63.683 137.772C63.343 137.956 62.963 138.048 62.543 138.048ZM62.543 137.514C62.851 137.514 63.127 137.444 63.371 137.304C63.619 137.164 63.813 136.972 63.953 136.728C64.097 136.48 64.169 136.204 64.169 135.9C64.169 135.596 64.097 135.322 63.953 135.078C63.813 134.83 63.619 134.636 63.371 134.496C63.127 134.356 62.851 134.286 62.543 134.286C62.235 134.286 61.955 134.356 61.703 134.496C61.455 134.636 61.259 134.83 61.115 135.078C60.975 135.322 60.905 135.596 60.905 135.9C60.905 136.204 60.975 136.48 61.115 136.728C61.259 136.972 61.455 137.164 61.703 137.304C61.955 137.444 62.235 137.514 62.543 137.514ZM69.2981 133.8V138H68.8061L66.2861 134.868V138H65.6861V133.8H66.1781L68.6981 136.932V133.8H69.2981Z" fill="#8B8B8B"/>
<path d="M93.4893 134.322H92.0493V133.8H95.5233V134.322H94.0833V138H93.4893V134.322ZM97.8406 138.048C97.2806 138.048 96.8446 137.888 96.5326 137.568C96.2206 137.248 96.0646 136.788 96.0646 136.188V133.8H96.6646V136.164C96.6646 137.064 97.0586 137.514 97.8466 137.514C98.2306 137.514 98.5246 137.404 98.7286 137.184C98.9326 136.96 99.0346 136.62 99.0346 136.164V133.8H99.6166V136.188C99.6166 136.792 99.4606 137.254 99.1486 137.574C98.8366 137.89 98.4006 138.048 97.8406 138.048ZM103.895 137.478V138H100.847V133.8H103.811V134.322H101.447V135.612H103.553V136.122H101.447V137.478H103.895Z" fill="#8B8B8B"/>
<path d="M135.154 133.8L133.75 138H133.12L131.974 134.646L130.828 138H130.186L128.782 133.8H129.4L130.534 137.214L131.716 133.8H132.268L133.426 137.232L134.584 133.8H135.154ZM138.936 137.478V138H135.888V133.8H138.852V134.322H136.488V135.612H138.594V136.122H136.488V137.478H138.936ZM143.519 133.8V138H143.027L140.507 134.868V138H139.907V133.8H140.399L142.919 136.932V133.8H143.519Z" fill="#8B8B8B"/>
<path d="M166.845 134.322H165.405V133.8H168.879V134.322H167.439V138H166.845V134.322ZM173.145 133.8V138H172.545V136.128H170.133V138H169.533V133.8H170.133V135.606H172.545V133.8H173.145ZM176.142 138.048C175.582 138.048 175.146 137.888 174.834 137.568C174.522 137.248 174.366 136.788 174.366 136.188V133.8H174.966V136.164C174.966 137.064 175.36 137.514 176.148 137.514C176.532 137.514 176.826 137.404 177.03 137.184C177.234 136.96 177.336 136.62 177.336 136.164V133.8H177.918V136.188C177.918 136.792 177.762 137.254 177.45 137.574C177.138 137.89 176.702 138.048 176.142 138.048Z" fill="#8B8B8B"/>
<path d="M204.181 134.322V135.786H206.287V136.302H204.181V138H203.581V133.8H206.545V134.322H204.181ZM210.197 138L209.291 136.71C209.179 136.718 209.091 136.722 209.027 136.722H207.989V138H207.389V133.8H209.027C209.571 133.8 209.999 133.93 210.311 134.19C210.623 134.45 210.779 134.808 210.779 135.264C210.779 135.588 210.699 135.864 210.539 136.092C210.379 136.32 210.151 136.486 209.855 136.59L210.851 138H210.197ZM209.009 136.212C209.389 136.212 209.679 136.13 209.879 135.966C210.079 135.802 210.179 135.568 210.179 135.264C210.179 134.96 210.079 134.728 209.879 134.568C209.679 134.404 209.389 134.322 209.009 134.322H207.989V136.212H209.009ZM211.749 133.8H212.349V138H211.749V133.8Z" fill="#8B8B8B"/>
<path d="M239.604 138.048C239.288 138.048 238.982 138 238.686 137.904C238.394 137.804 238.164 137.676 237.996 137.52L238.218 137.052C238.378 137.196 238.582 137.314 238.83 137.406C239.082 137.494 239.34 137.538 239.604 137.538C239.952 137.538 240.212 137.48 240.384 137.364C240.556 137.244 240.642 137.086 240.642 136.89C240.642 136.746 240.594 136.63 240.498 136.542C240.406 136.45 240.29 136.38 240.15 136.332C240.014 136.284 239.82 136.23 239.568 136.17C239.252 136.094 238.996 136.018 238.8 135.942C238.608 135.866 238.442 135.75 238.302 135.594C238.166 135.434 238.098 135.22 238.098 134.952C238.098 134.728 238.156 134.526 238.272 134.346C238.392 134.166 238.572 134.022 238.812 133.914C239.052 133.806 239.35 133.752 239.706 133.752C239.954 133.752 240.198 133.784 240.438 133.848C240.678 133.912 240.884 134.004 241.056 134.124L240.858 134.604C240.682 134.492 240.494 134.408 240.294 134.352C240.094 134.292 239.898 134.262 239.706 134.262C239.366 134.262 239.11 134.324 238.938 134.448C238.77 134.572 238.686 134.732 238.686 134.928C238.686 135.072 238.734 135.19 238.83 135.282C238.926 135.37 239.044 135.44 239.184 135.492C239.328 135.54 239.522 135.592 239.766 135.648C240.082 135.724 240.336 135.8 240.528 135.876C240.72 135.952 240.884 136.068 241.02 136.224C241.16 136.38 241.23 136.59 241.23 136.854C241.23 137.074 241.17 137.276 241.05 137.46C240.93 137.64 240.748 137.784 240.504 137.892C240.26 137.996 239.96 138.048 239.604 138.048ZM244.782 136.95H242.55L242.088 138H241.47L243.372 133.8H243.966L245.874 138H245.244L244.782 136.95ZM244.572 136.47L243.666 134.412L242.76 136.47H244.572ZM247.124 134.322H245.684V133.8H249.158V134.322H247.718V138H247.124V134.322Z" fill="#8B8B8B"/>
<path d="M242.084 60.5412L231.159 69.023C228.615 71.0042 225.325 71.9948 222.098 71.4376C219.553 71.0042 217.132 69.7041 215.456 67.4752L209.808 59.7982C205.711 54.2262 196.401 54.35 192.429 59.922L191.001 61.9651C186.781 67.9705 176.663 67.5372 173.064 61.2841L164.995 47.1682C161.084 40.2961 149.788 40.6056 146.374 47.6635L138.74 63.5129C135.388 70.5089 124.092 70.8804 120.181 64.132C116.333 57.5075 105.409 57.6313 101.747 64.3797L101.499 64.8131C98.0229 71.2519 87.7816 71.7472 83.4989 65.6798L76.1748 55.3406C72.0783 49.5828 62.3956 49.7066 58.5474 55.6501L40.3614 83.5723C35.2097 90.6921 25.7753 93.2924 17.7064 89.8253L1.25833 82.8293" stroke="#E98500" stroke-width="2" stroke-miterlimit="10"/>
<path d="M262.877 104.189L236.435 53.8546C232.96 47.1682 222.098 47.1682 218.56 53.8546L207.45 74.9665C204.47 80.6004 195.843 81.7149 191.188 77.0715C187.339 73.2949 180.574 73.233 176.602 76.9477L174.802 78.6812C169.96 83.2626 161.271 81.9625 158.54 76.2047L147.926 54.1642C144.636 47.4158 133.836 47.1063 130.05 53.6689L121.237 69.1468C117.823 75.1522 108.14 75.5237 104.044 69.8278L101.871 66.7323C98.0851 61.3459 89.1472 61.284 85.2369 66.6084L78.7197 75.4618C74.3129 81.4672 64.0096 80.4147 61.2165 73.7283L48.2442 42.5248C45.1408 35.0335 33.0375 34.9716 29.8099 42.401L3.05844 104.189" stroke="#32A1C8" stroke-width="3" stroke-miterlimit="10"/>
<path d="M62.1475 94.964C62.1475 98.8644 65.3129 102.022 69.2233 102.022C73.1336 102.022 76.299 98.8644 76.299 94.964C76.299 92.178 74.6853 89.7634 72.3267 88.649L69.2233 84.9962L66.306 88.5252C63.8854 89.7015 62.1475 92.1161 62.1475 94.964Z" fill="#32A1C8"/>
<path d="M65.847 95.8715C65.6257 95.8715 65.4283 95.8155 65.255 95.7035C65.0843 95.5888 64.9497 95.4235 64.851 95.2075C64.7523 94.9915 64.703 94.7355 64.703 94.4395C64.703 94.1435 64.7523 93.8875 64.851 93.6715C64.9497 93.4555 65.0843 93.2915 65.255 93.1795C65.4283 93.0648 65.6257 93.0075 65.847 93.0075C66.0657 93.0075 66.2603 93.0648 66.431 93.1795C66.6043 93.2915 66.7403 93.4555 66.839 93.6715C66.9377 93.8875 66.987 94.1435 66.987 94.4395C66.987 94.7355 66.9377 94.9915 66.839 95.2075C66.7403 95.4235 66.6043 95.5888 66.431 95.7035C66.2603 95.8155 66.0657 95.8715 65.847 95.8715ZM65.847 95.5155C66.071 95.5155 66.2497 95.4235 66.383 95.2395C66.519 95.0555 66.587 94.7888 66.587 94.4395C66.587 94.0901 66.519 93.8235 66.383 93.6395C66.2497 93.4555 66.071 93.3635 65.847 93.3635C65.6203 93.3635 65.439 93.4555 65.303 93.6395C65.1697 93.8235 65.103 94.0901 65.103 94.4395C65.103 94.7888 65.1697 95.0555 65.303 95.2395C65.439 95.4235 65.6203 95.5155 65.847 95.5155ZM68.515 95.8715C68.2936 95.8715 68.0963 95.8155 67.923 95.7035C67.7523 95.5888 67.6176 95.4235 67.519 95.2075C67.4203 94.9915 67.371 94.7355 67.371 94.4395C67.371 94.1435 67.4203 93.8875 67.519 93.6715C67.6176 93.4555 67.7523 93.2915 67.923 93.1795C68.0963 93.0648 68.2936 93.0075 68.515 93.0075C68.7336 93.0075 68.9283 93.0648 69.099 93.1795C69.2723 93.2915 69.4083 93.4555 69.507 93.6715C69.6056 93.8875 69.655 94.1435 69.655 94.4395C69.655 94.7355 69.6056 94.9915 69.507 95.2075C69.4083 95.4235 69.2723 95.5888 69.099 95.7035C68.9283 95.8155 68.7336 95.8715 68.515 95.8715ZM68.515 95.5155C68.739 95.5155 68.9176 95.4235 69.051 95.2395C69.187 95.0555 69.255 94.7888 69.255 94.4395C69.255 94.0901 69.187 93.8235 69.051 93.6395C68.9176 93.4555 68.739 93.3635 68.515 93.3635C68.2883 93.3635 68.107 93.4555 67.971 93.6395C67.8376 93.8235 67.771 94.0901 67.771 94.4395C67.771 94.7888 67.8376 95.0555 67.971 95.2395C68.107 95.4235 68.2883 95.5155 68.515 95.5155ZM70.9469 93.0075C71.3229 93.0075 71.6123 93.1288 71.8149 93.3715C72.0203 93.6141 72.1229 93.9581 72.1229 94.4035C72.1229 94.7155 72.0669 94.9821 71.9549 95.2035C71.8456 95.4221 71.6909 95.5888 71.4909 95.7035C71.2936 95.8155 71.0629 95.8715 70.7989 95.8715C70.6629 95.8715 70.5349 95.8581 70.4149 95.8315C70.2949 95.8021 70.1909 95.7608 70.1029 95.7075L70.2549 95.3955C70.3909 95.4835 70.5709 95.5275 70.7949 95.5275C71.0856 95.5275 71.3123 95.4381 71.4749 95.2595C71.6403 95.0781 71.7229 94.8155 71.7229 94.4715V94.3715C71.6429 94.4915 71.5323 94.5835 71.3909 94.6475C71.2496 94.7088 71.0909 94.7395 70.9149 94.7395C70.7309 94.7395 70.5656 94.7048 70.4189 94.6355C70.2749 94.5661 70.1616 94.4675 70.0789 94.3395C69.9989 94.2088 69.9589 94.0595 69.9589 93.8915C69.9589 93.7155 70.0016 93.5608 70.0869 93.4275C70.1749 93.2941 70.2936 93.1915 70.4429 93.1195C70.5923 93.0448 70.7603 93.0075 70.9469 93.0075ZM70.9829 94.4155C71.1083 94.4155 71.2203 94.3915 71.3189 94.3435C71.4176 94.2955 71.4936 94.2301 71.5469 94.1475C71.6029 94.0648 71.6309 93.9728 71.6309 93.8715C71.6309 93.7728 71.6043 93.6835 71.5509 93.6035C71.5003 93.5208 71.4243 93.4555 71.3229 93.4075C71.2243 93.3568 71.1043 93.3315 70.9629 93.3315C70.7789 93.3315 70.6296 93.3808 70.5149 93.4795C70.4029 93.5781 70.3469 93.7101 70.3469 93.8755C70.3469 94.0408 70.4043 94.1728 70.5189 94.2715C70.6336 94.3675 70.7883 94.4155 70.9829 94.4155Z" fill="white"/>
<path d="M70.9611 79.9193C70.9611 80.848 70.2162 81.5909 69.2852 81.5909C68.3542 81.5909 67.6094 80.848 67.6094 79.9193C67.6094 78.9906 68.3542 78.2477 69.2852 78.2477C70.1542 78.2477 70.9611 78.9906 70.9611 79.9193Z" fill="#32A1C8"/>
<path d="M235.194 29.5853C235.194 25.6848 232.028 22.5273 228.118 22.5273C224.208 22.5273 221.042 25.6848 221.042 29.5853C221.042 32.3713 222.656 34.7858 225.015 35.9003L228.118 39.553L231.035 36.0241C233.518 34.9097 235.194 32.4332 235.194 29.5853Z" fill="#32A1C8"/>
<path d="M225.463 29.3C225.647 29.3 225.811 29.3347 225.955 29.404C226.102 29.4733 226.216 29.5733 226.299 29.704C226.382 29.832 226.423 29.98 226.423 30.148C226.423 30.324 226.379 30.4787 226.291 30.612C226.206 30.7453 226.087 30.8493 225.935 30.924C225.786 30.996 225.618 31.032 225.431 31.032C225.055 31.032 224.764 30.9107 224.559 30.668C224.356 30.4253 224.255 30.0813 224.255 29.636C224.255 29.324 224.31 29.0587 224.419 28.84C224.531 28.6187 224.686 28.452 224.883 28.34C225.083 28.2253 225.315 28.168 225.579 28.168C225.715 28.168 225.843 28.1827 225.963 28.212C226.083 28.2387 226.187 28.2787 226.275 28.332L226.123 28.644C225.99 28.556 225.811 28.512 225.587 28.512C225.296 28.512 225.068 28.6027 224.903 28.784C224.738 28.9627 224.655 29.224 224.655 29.568C224.655 29.6107 224.656 29.644 224.659 29.668C224.739 29.548 224.848 29.4573 224.987 29.396C225.128 29.332 225.287 29.3 225.463 29.3ZM225.415 30.708C225.599 30.708 225.748 30.6587 225.863 30.56C225.978 30.4613 226.035 30.3293 226.035 30.164C226.035 29.9987 225.976 29.868 225.859 29.772C225.744 29.6733 225.59 29.624 225.395 29.624C225.27 29.624 225.158 29.648 225.059 29.696C224.963 29.744 224.887 29.8093 224.831 29.892C224.778 29.9747 224.751 30.0667 224.751 30.168C224.751 30.2667 224.776 30.3573 224.827 30.44C224.88 30.52 224.956 30.5853 225.055 30.636C225.156 30.684 225.276 30.708 225.415 30.708ZM227.868 31.032C227.647 31.032 227.449 30.976 227.276 30.864C227.105 30.7493 226.971 30.584 226.872 30.368C226.773 30.152 226.724 29.896 226.724 29.6C226.724 29.304 226.773 29.048 226.872 28.832C226.971 28.616 227.105 28.452 227.276 28.34C227.449 28.2253 227.647 28.168 227.868 28.168C228.087 28.168 228.281 28.2253 228.452 28.34C228.625 28.452 228.761 28.616 228.86 28.832C228.959 29.048 229.008 29.304 229.008 29.6C229.008 29.896 228.959 30.152 228.86 30.368C228.761 30.584 228.625 30.7493 228.452 30.864C228.281 30.976 228.087 31.032 227.868 31.032ZM227.868 30.676C228.092 30.676 228.271 30.584 228.404 30.4C228.54 30.216 228.608 29.9493 228.608 29.6C228.608 29.2507 228.54 28.984 228.404 28.8C228.271 28.616 228.092 28.524 227.868 28.524C227.641 28.524 227.46 28.616 227.324 28.8C227.191 28.984 227.124 29.2507 227.124 29.6C227.124 29.9493 227.191 30.216 227.324 30.4C227.46 30.584 227.641 30.676 227.868 30.676ZM230.536 31.032C230.314 31.032 230.117 30.976 229.944 30.864C229.773 30.7493 229.638 30.584 229.54 30.368C229.441 30.152 229.392 29.896 229.392 29.6C229.392 29.304 229.441 29.048 229.54 28.832C229.638 28.616 229.773 28.452 229.944 28.34C230.117 28.2253 230.314 28.168 230.536 28.168C230.754 28.168 230.949 28.2253 231.12 28.34C231.293 28.452 231.429 28.616 231.528 28.832C231.626 29.048 231.676 29.304 231.676 29.6C231.676 29.896 231.626 30.152 231.528 30.368C231.429 30.584 231.293 30.7493 231.12 30.864C230.949 30.976 230.754 31.032 230.536 31.032ZM230.536 30.676C230.76 30.676 230.938 30.584 231.072 30.4C231.208 30.216 231.276 29.9493 231.276 29.6C231.276 29.2507 231.208 28.984 231.072 28.8C230.938 28.616 230.76 28.524 230.536 28.524C230.309 28.524 230.128 28.616 229.992 28.8C229.858 28.984 229.792 29.2507 229.792 29.6C229.792 29.9493 229.858 30.216 229.992 30.4C230.128 30.584 230.309 30.676 230.536 30.676Z" fill="white"/>
<path d="M226.442 44.6297C226.442 43.7011 227.187 42.9581 228.118 42.9581C229.049 42.9581 229.794 43.7011 229.794 44.6297C229.794 45.5584 229.049 46.3014 228.118 46.3014C227.187 46.3014 226.442 45.5584 226.442 44.6297Z" fill="#32A1C8"/>
<path d="M165.119 25.8086C165.119 21.351 161.519 17.7601 157.05 17.7601C152.581 17.7601 148.981 21.351 148.981 25.8086C148.981 28.9661 150.843 31.6902 153.45 32.9904L156.988 37.1385L160.34 33.1142C163.195 31.876 165.119 29.09 165.119 25.8086Z" fill="#E98500"/>
<path d="M154.084 25.3C154.268 25.3 154.432 25.3347 154.576 25.404C154.722 25.4733 154.837 25.5733 154.92 25.704C155.002 25.832 155.044 25.98 155.044 26.148C155.044 26.324 155 26.4787 154.912 26.612C154.826 26.7453 154.708 26.8493 154.556 26.924C154.406 26.996 154.238 27.032 154.052 27.032C153.676 27.032 153.385 26.9107 153.18 26.668C152.977 26.4253 152.876 26.0813 152.876 25.636C152.876 25.324 152.93 25.0587 153.04 24.84C153.152 24.6187 153.306 24.452 153.504 24.34C153.704 24.2253 153.936 24.168 154.2 24.168C154.336 24.168 154.464 24.1827 154.584 24.212C154.704 24.2387 154.808 24.2787 154.896 24.332L154.744 24.644C154.61 24.556 154.432 24.512 154.208 24.512C153.917 24.512 153.689 24.6027 153.524 24.784C153.358 24.9627 153.276 25.224 153.276 25.568C153.276 25.6107 153.277 25.644 153.28 25.668C153.36 25.548 153.469 25.4573 153.608 25.396C153.749 25.332 153.908 25.3 154.084 25.3ZM154.036 26.708C154.22 26.708 154.369 26.6587 154.484 26.56C154.598 26.4613 154.656 26.3293 154.656 26.164C154.656 25.9987 154.597 25.868 154.48 25.772C154.365 25.6733 154.21 25.624 154.016 25.624C153.89 25.624 153.778 25.648 153.68 25.696C153.584 25.744 153.508 25.8093 153.452 25.892C153.398 25.9747 153.372 26.0667 153.372 26.168C153.372 26.2667 153.397 26.3573 153.448 26.44C153.501 26.52 153.577 26.5853 153.676 26.636C153.777 26.684 153.897 26.708 154.036 26.708ZM156.489 27.032C156.267 27.032 156.07 26.976 155.897 26.864C155.726 26.7493 155.591 26.584 155.493 26.368C155.394 26.152 155.345 25.896 155.345 25.6C155.345 25.304 155.394 25.048 155.493 24.832C155.591 24.616 155.726 24.452 155.897 24.34C156.07 24.2253 156.267 24.168 156.489 24.168C156.707 24.168 156.902 24.2253 157.073 24.34C157.246 24.452 157.382 24.616 157.481 24.832C157.579 25.048 157.629 25.304 157.629 25.6C157.629 25.896 157.579 26.152 157.481 26.368C157.382 26.584 157.246 26.7493 157.073 26.864C156.902 26.976 156.707 27.032 156.489 27.032ZM156.489 26.676C156.713 26.676 156.891 26.584 157.025 26.4C157.161 26.216 157.229 25.9493 157.229 25.6C157.229 25.2507 157.161 24.984 157.025 24.8C156.891 24.616 156.713 24.524 156.489 24.524C156.262 24.524 156.081 24.616 155.945 24.8C155.811 24.984 155.745 25.2507 155.745 25.6C155.745 25.9493 155.811 26.216 155.945 26.4C156.081 26.584 156.262 26.676 156.489 26.676ZM159.157 27.032C158.935 27.032 158.738 26.976 158.565 26.864C158.394 26.7493 158.259 26.584 158.161 26.368C158.062 26.152 158.013 25.896 158.013 25.6C158.013 25.304 158.062 25.048 158.161 24.832C158.259 24.616 158.394 24.452 158.565 24.34C158.738 24.2253 158.935 24.168 159.157 24.168C159.375 24.168 159.57 24.2253 159.741 24.34C159.914 24.452 160.05 24.616 160.149 24.832C160.247 25.048 160.297 25.304 160.297 25.6C160.297 25.896 160.247 26.152 160.149 26.368C160.05 26.584 159.914 26.7493 159.741 26.864C159.57 26.976 159.375 27.032 159.157 27.032ZM159.157 26.676C159.381 26.676 159.559 26.584 159.693 26.4C159.829 26.216 159.897 25.9493 159.897 25.6C159.897 25.2507 159.829 24.984 159.693 24.8C159.559 24.616 159.381 24.524 159.157 24.524C158.93 24.524 158.749 24.616 158.613 24.8C158.479 24.984 158.413 25.2507 158.413 25.6C158.413 25.9493 158.479 26.216 158.613 26.4C158.749 26.584 158.93 26.676 159.157 26.676Z" fill="white"/>
<path d="M158.974 41.4722C158.974 42.5247 158.105 43.3915 157.05 43.3915C155.995 43.3915 155.126 42.5247 155.126 41.4722C155.126 40.4197 155.995 39.553 157.05 39.553C158.105 39.553 158.974 40.4197 158.974 41.4722Z" fill="#E98500"/>
<path d="M35.3961 76.5762C35.3961 72.1186 31.7961 68.5277 27.3272 68.5277C22.8583 68.5277 19.2583 72.1186 19.2583 76.5762C19.2583 79.7337 21.1204 82.4578 23.7272 83.758L27.2651 87.906L30.6168 83.8818C33.472 82.6435 35.3961 79.8575 35.3961 76.5762Z" fill="#E98500"/>
<path d="M25.0198 78.032C24.7985 78.032 24.6011 77.976 24.4278 77.864C24.2571 77.7493 24.1225 77.584 24.0238 77.368C23.9251 77.152 23.8758 76.896 23.8758 76.6C23.8758 76.304 23.9251 76.048 24.0238 75.832C24.1225 75.616 24.2571 75.452 24.4278 75.34C24.6011 75.2253 24.7985 75.168 25.0198 75.168C25.2385 75.168 25.4331 75.2253 25.6038 75.34C25.7771 75.452 25.9131 75.616 26.0118 75.832C26.1105 76.048 26.1598 76.304 26.1598 76.6C26.1598 76.896 26.1105 77.152 26.0118 77.368C25.9131 77.584 25.7771 77.7493 25.6038 77.864C25.4331 77.976 25.2385 78.032 25.0198 78.032ZM25.0198 77.676C25.2438 77.676 25.4225 77.584 25.5558 77.4C25.6918 77.216 25.7598 76.9493 25.7598 76.6C25.7598 76.2507 25.6918 75.984 25.5558 75.8C25.4225 75.616 25.2438 75.524 25.0198 75.524C24.7931 75.524 24.6118 75.616 24.4758 75.8C24.3425 75.984 24.2758 76.2507 24.2758 76.6C24.2758 76.9493 24.3425 77.216 24.4758 77.4C24.6118 77.584 24.7931 77.676 25.0198 77.676ZM27.6878 78.032C27.4664 78.032 27.2691 77.976 27.0958 77.864C26.9251 77.7493 26.7904 77.584 26.6918 77.368C26.5931 77.152 26.5438 76.896 26.5438 76.6C26.5438 76.304 26.5931 76.048 26.6918 75.832C26.7904 75.616 26.9251 75.452 27.0958 75.34C27.2691 75.2253 27.4664 75.168 27.6878 75.168C27.9064 75.168 28.1011 75.2253 28.2718 75.34C28.4451 75.452 28.5811 75.616 28.6798 75.832C28.7784 76.048 28.8278 76.304 28.8278 76.6C28.8278 76.896 28.7784 77.152 28.6798 77.368C28.5811 77.584 28.4451 77.7493 28.2718 77.864C28.1011 77.976 27.9064 78.032 27.6878 78.032ZM27.6878 77.676C27.9118 77.676 28.0904 77.584 28.2238 77.4C28.3598 77.216 28.4278 76.9493 28.4278 76.6C28.4278 76.2507 28.3598 75.984 28.2238 75.8C28.0904 75.616 27.9118 75.524 27.6878 75.524C27.4611 75.524 27.2798 75.616 27.1438 75.8C27.0104 75.984 26.9438 76.2507 26.9438 76.6C26.9438 76.9493 27.0104 77.216 27.1438 77.4C27.2798 77.584 27.4611 77.676 27.6878 77.676ZM30.1197 75.168C30.4957 75.168 30.7851 75.2893 30.9877 75.532C31.1931 75.7747 31.2957 76.1187 31.2957 76.564C31.2957 76.876 31.2397 77.1427 31.1277 77.364C31.0184 77.5827 30.8637 77.7493 30.6637 77.864C30.4664 77.976 30.2357 78.032 29.9717 78.032C29.8357 78.032 29.7077 78.0187 29.5877 77.992C29.4677 77.9627 29.3637 77.9213 29.2757 77.868L29.4277 77.556C29.5637 77.644 29.7437 77.688 29.9677 77.688C30.2584 77.688 30.4851 77.5987 30.6477 77.42C30.8131 77.2387 30.8957 76.976 30.8957 76.632V76.532C30.8157 76.652 30.7051 76.744 30.5637 76.808C30.4224 76.8693 30.2637 76.9 30.0877 76.9C29.9037 76.9 29.7384 76.8653 29.5917 76.796C29.4477 76.7267 29.3344 76.628 29.2517 76.5C29.1717 76.3693 29.1317 76.22 29.1317 76.052C29.1317 75.876 29.1744 75.7213 29.2597 75.588C29.3477 75.4547 29.4664 75.352 29.6157 75.28C29.7651 75.2053 29.9331 75.168 30.1197 75.168ZM30.1557 76.576C30.2811 76.576 30.3931 76.552 30.4917 76.504C30.5904 76.456 30.6664 76.3907 30.7197 76.308C30.7757 76.2253 30.8037 76.1333 30.8037 76.032C30.8037 75.9333 30.7771 75.844 30.7237 75.764C30.6731 75.6813 30.5971 75.616 30.4957 75.568C30.3971 75.5173 30.2771 75.492 30.1357 75.492C29.9517 75.492 29.8024 75.5413 29.6877 75.64C29.5757 75.7387 29.5197 75.8707 29.5197 76.036C29.5197 76.2013 29.5771 76.3333 29.6917 76.432C29.8064 76.528 29.9611 76.576 30.1557 76.576Z" fill="white"/>
<path d="M29.2512 92.2399C29.2512 93.2924 28.3823 94.1592 27.3271 94.1592C26.2719 94.1592 25.403 93.2924 25.403 92.2399C25.403 91.1874 26.2719 90.3207 27.3271 90.3207C28.3823 90.3207 29.2512 91.1874 29.2512 92.2399Z" fill="#E98500"/>
</svg>
