<svg width="292" height="241" viewBox="0 0 292 241" fill="none" xmlns="http://www.w3.org/2000/svg">
<rect y="0.679199" width="292" height="240" fill="white"/>
<path d="M30.6161 196.335V191.053H28.6429V190.346H33.39V191.053H31.4086V196.335H30.6161ZM35.8104 194.938L36.5702 195.032C36.4504 195.476 36.2284 195.82 35.9043 196.066C35.5802 196.311 35.1662 196.433 34.6624 196.433C34.0278 196.433 33.5239 196.239 33.1508 195.849C32.7804 195.457 32.5952 194.908 32.5952 194.203C32.5952 193.473 32.7831 192.906 33.159 192.503C33.5348 192.1 34.0223 191.899 34.6215 191.899C35.2016 191.899 35.6755 192.096 36.0432 192.491C36.4109 192.886 36.5947 193.441 36.5947 194.158C36.5947 194.201 36.5934 194.267 36.5907 194.354H33.3551C33.3823 194.83 33.5171 195.195 33.7595 195.449C34.0019 195.702 34.3042 195.829 34.6665 195.829C34.9361 195.829 35.1662 195.758 35.3569 195.616C35.5475 195.475 35.6987 195.249 35.8104 194.938ZM33.3959 193.749H35.8185C35.7858 193.384 35.6932 193.111 35.5407 192.928C35.3065 192.645 35.0028 192.503 34.6297 192.503C34.292 192.503 34.0074 192.616 33.7759 192.842C33.5471 193.068 33.4204 193.371 33.3959 193.749ZM36.8621 195.04L37.5893 194.926C37.6301 195.217 37.7432 195.441 37.9284 195.596C38.1163 195.751 38.3777 195.829 38.7127 195.829C39.0505 195.829 39.301 195.761 39.4644 195.624C39.6279 195.485 39.7096 195.323 39.7096 195.138C39.7096 194.972 39.6374 194.841 39.493 194.746C39.3923 194.681 39.1417 194.598 38.7413 194.497C38.2021 194.361 37.8276 194.244 37.6179 194.145C37.4109 194.045 37.2529 193.907 37.144 193.733C37.0378 193.556 36.9846 193.361 36.9846 193.149C36.9846 192.955 37.0282 192.777 37.1154 192.613C37.2053 192.447 37.3265 192.31 37.479 192.201C37.5934 192.116 37.7486 192.046 37.9447 191.988C38.1435 191.928 38.356 191.899 38.582 191.899C38.9225 191.899 39.2207 191.948 39.4767 192.046C39.7354 192.144 39.9261 192.277 40.0486 192.446C40.1712 192.612 40.2556 192.835 40.3019 193.116L39.5829 193.214C39.5502 192.991 39.4549 192.816 39.2969 192.691C39.1417 192.566 38.9211 192.503 38.6351 192.503C38.2974 192.503 38.0564 192.559 37.912 192.671C37.7677 192.782 37.6955 192.913 37.6955 193.063C37.6955 193.158 37.7255 193.244 37.7854 193.32C37.8453 193.399 37.9393 193.465 38.0673 193.516C38.1408 193.544 38.3573 193.606 38.7168 193.704C39.237 193.843 39.5993 193.958 39.8035 194.047C40.0105 194.135 40.1726 194.263 40.2897 194.431C40.4068 194.6 40.4653 194.81 40.4653 195.061C40.4653 195.306 40.3932 195.537 40.2488 195.755C40.1072 195.97 39.9016 196.138 39.6319 196.258C39.3623 196.375 39.0573 196.433 38.7168 196.433C38.1531 196.433 37.7227 196.316 37.4259 196.082C37.1317 195.848 36.9438 195.5 36.8621 195.04ZM42.6038 195.677L42.71 196.327C42.503 196.371 42.3178 196.392 42.1544 196.392C41.8875 196.392 41.6805 196.35 41.5334 196.266C41.3864 196.181 41.2829 196.071 41.2229 195.935C41.163 195.796 41.1331 195.506 41.1331 195.065V192.569H40.5938V191.997H41.1331V190.922L41.8643 190.481V191.997H42.6038V192.569H41.8643V195.106C41.8643 195.315 41.8766 195.45 41.9011 195.51C41.9283 195.57 41.9706 195.618 42.0278 195.653C42.0877 195.688 42.1721 195.706 42.281 195.706C42.3627 195.706 42.4703 195.697 42.6038 195.677ZM47.8039 194.746L48.527 194.84C48.4481 195.338 48.2452 195.729 47.9183 196.012C47.5942 196.293 47.1952 196.433 46.7213 196.433C46.1276 196.433 45.6496 196.24 45.2874 195.853C44.9279 195.464 44.7481 194.907 44.7481 194.182C44.7481 193.714 44.8257 193.304 44.981 192.953C45.1362 192.601 45.3718 192.338 45.6877 192.164C46.0064 191.987 46.3523 191.899 46.7254 191.899C47.1966 191.899 47.582 192.018 47.8816 192.258C48.1811 192.495 48.3732 192.833 48.4576 193.271L47.7427 193.382C47.6746 193.09 47.5534 192.871 47.3791 192.724C47.2075 192.577 46.9991 192.503 46.754 192.503C46.3836 192.503 46.0826 192.637 45.8511 192.904C45.6196 193.168 45.5039 193.587 45.5039 194.162C45.5039 194.745 45.6156 195.168 45.8389 195.432C46.0622 195.697 46.3536 195.829 46.7132 195.829C47.0018 195.829 47.2429 195.74 47.4363 195.563C47.6296 195.386 47.7522 195.114 47.8039 194.746ZM48.5411 194.166C48.5411 193.362 48.7644 192.767 49.2111 192.381C49.5842 192.059 50.0391 191.899 50.5756 191.899C51.1721 191.899 51.6596 192.095 52.0381 192.487C52.4167 192.876 52.606 193.416 52.606 194.105C52.606 194.663 52.5216 195.103 52.3527 195.424C52.1866 195.743 51.9428 195.991 51.6214 196.168C51.3028 196.345 50.9542 196.433 50.5756 196.433C49.9682 196.433 49.4766 196.239 49.1008 195.849C48.7277 195.46 48.5411 194.899 48.5411 194.166ZM49.2969 194.166C49.2969 194.721 49.4181 195.138 49.6605 195.416C49.9029 195.691 50.2079 195.829 50.5756 195.829C50.9406 195.829 51.2442 195.69 51.4866 195.412C51.729 195.134 51.8502 194.711 51.8502 194.141C51.8502 193.605 51.7277 193.199 51.4825 192.924C51.2401 192.646 50.9378 192.507 50.5756 192.507C50.2079 192.507 49.9029 192.645 49.6605 192.92C49.4181 193.195 49.2969 193.61 49.2969 194.166ZM53.1144 196.335V190.346H53.8498V196.335H53.1144ZM54.3786 194.166C54.3786 193.362 54.6019 192.767 55.0486 192.381C55.4217 192.059 55.8765 191.899 56.4131 191.899C57.0095 191.899 57.497 192.095 57.8756 192.487C58.2542 192.876 58.4435 193.416 58.4435 194.105C58.4435 194.663 58.359 195.103 58.1902 195.424C58.024 195.743 57.7803 195.991 57.4589 196.168C57.1402 196.345 56.7916 196.433 56.4131 196.433C55.8057 196.433 55.3141 196.239 54.9383 195.849C54.5651 195.46 54.3786 194.899 54.3786 194.166ZM55.1343 194.166C55.1343 194.721 55.2555 195.138 55.4979 195.416C55.7403 195.691 56.0454 195.829 56.4131 195.829C56.778 195.829 57.0817 195.69 57.3241 195.412C57.5665 195.134 57.6877 194.711 57.6877 194.141C57.6877 193.605 57.5651 193.199 57.32 192.924C57.0776 192.646 56.7753 192.507 56.4131 192.507C56.0454 192.507 55.7403 192.645 55.4979 192.92C55.2555 193.195 55.1343 193.61 55.1343 194.166ZM58.96 196.335V191.997H59.6218V192.654C59.7907 192.347 59.946 192.144 60.0876 192.046C60.2319 191.948 60.3899 191.899 60.5615 191.899C60.8093 191.899 61.0612 191.978 61.3173 192.135L61.064 192.818C60.8842 192.712 60.7045 192.658 60.5247 192.658C60.364 192.658 60.2197 192.707 60.0917 192.805C59.9637 192.901 59.8724 193.034 59.8179 193.206C59.7362 193.467 59.6954 193.753 59.6954 194.064V196.335H58.96Z" fill="#78797D"/>
<path d="M30.6161 223.109V217.826H28.6429V217.12H33.39V217.826H31.4086V223.109H30.6161ZM35.8104 221.712L36.5702 221.806C36.4504 222.249 36.2284 222.594 35.9043 222.839C35.5802 223.084 35.1662 223.207 34.6624 223.207C34.0278 223.207 33.5239 223.012 33.1508 222.623C32.7804 222.23 32.5952 221.682 32.5952 220.976C32.5952 220.246 32.7831 219.68 33.159 219.277C33.5348 218.874 34.0223 218.672 34.6215 218.672C35.2016 218.672 35.6755 218.87 36.0432 219.264C36.4109 219.659 36.5947 220.215 36.5947 220.931C36.5947 220.975 36.5934 221.04 36.5907 221.127H33.3551C33.3823 221.604 33.5171 221.969 33.7595 222.222C34.0019 222.476 34.3042 222.602 34.6665 222.602C34.9361 222.602 35.1662 222.531 35.3569 222.39C35.5475 222.248 35.6987 222.022 35.8104 221.712ZM33.3959 220.523H35.8185C35.7858 220.158 35.6932 219.884 35.5407 219.702C35.3065 219.418 35.0028 219.277 34.6297 219.277C34.292 219.277 34.0074 219.39 33.7759 219.616C33.5471 219.842 33.4204 220.144 33.3959 220.523ZM36.8621 221.814L37.5893 221.699C37.6301 221.991 37.7432 222.214 37.9284 222.369C38.1163 222.525 38.3777 222.602 38.7127 222.602C39.0505 222.602 39.301 222.534 39.4644 222.398C39.6279 222.259 39.7096 222.097 39.7096 221.912C39.7096 221.746 39.6374 221.615 39.493 221.52C39.3923 221.454 39.1417 221.371 38.7413 221.27C38.2021 221.134 37.8276 221.017 37.6179 220.919C37.4109 220.818 37.2529 220.681 37.144 220.506C37.0378 220.329 36.9846 220.135 36.9846 219.922C36.9846 219.729 37.0282 219.55 37.1154 219.387C37.2053 219.221 37.3265 219.083 37.479 218.974C37.5934 218.89 37.7486 218.819 37.9447 218.762C38.1435 218.702 38.356 218.672 38.582 218.672C38.9225 218.672 39.2207 218.721 39.4767 218.819C39.7354 218.917 39.9261 219.051 40.0486 219.22C40.1712 219.386 40.2556 219.609 40.3019 219.89L39.5829 219.988C39.5502 219.764 39.4549 219.59 39.2969 219.465C39.1417 219.339 38.9211 219.277 38.6351 219.277C38.2974 219.277 38.0564 219.333 37.912 219.444C37.7677 219.556 37.6955 219.687 37.6955 219.836C37.6955 219.932 37.7255 220.018 37.7854 220.094C37.8453 220.173 37.9393 220.238 38.0673 220.29C38.1408 220.317 38.3573 220.38 38.7168 220.478C39.237 220.617 39.5993 220.731 39.8035 220.821C40.0105 220.908 40.1726 221.036 40.2897 221.205C40.4068 221.374 40.4653 221.584 40.4653 221.834C40.4653 222.079 40.3932 222.311 40.2488 222.529C40.1072 222.744 39.9016 222.911 39.6319 223.031C39.3623 223.148 39.0573 223.207 38.7168 223.207C38.1531 223.207 37.7227 223.09 37.4259 222.855C37.1317 222.621 36.9438 222.274 36.8621 221.814ZM42.6038 222.451L42.71 223.101C42.503 223.144 42.3178 223.166 42.1544 223.166C41.8875 223.166 41.6805 223.124 41.5334 223.039C41.3864 222.955 41.2829 222.845 41.2229 222.708C41.163 222.57 41.1331 222.279 41.1331 221.838V219.342H40.5938V218.77H41.1331V217.696L41.8643 217.254V218.77H42.6038V219.342H41.8643V221.879C41.8643 222.089 41.8766 222.224 41.9011 222.284C41.9283 222.343 41.9706 222.391 42.0278 222.427C42.0877 222.462 42.1721 222.48 42.281 222.48C42.3627 222.48 42.4703 222.47 42.6038 222.451ZM47.8039 221.52L48.527 221.614C48.4481 222.112 48.2452 222.503 47.9183 222.786C47.5942 223.067 47.1952 223.207 46.7213 223.207C46.1276 223.207 45.6496 223.013 45.2874 222.627C44.9279 222.237 44.7481 221.68 44.7481 220.956C44.7481 220.487 44.8257 220.077 44.981 219.726C45.1362 219.375 45.3718 219.112 45.6877 218.938C46.0064 218.761 46.3523 218.672 46.7254 218.672C47.1966 218.672 47.582 218.792 47.8816 219.032C48.1811 219.269 48.3732 219.606 48.4576 220.045L47.7427 220.155C47.6746 219.864 47.5534 219.644 47.3791 219.497C47.2075 219.35 46.9991 219.277 46.754 219.277C46.3836 219.277 46.0826 219.41 45.8511 219.677C45.6196 219.941 45.5039 220.361 45.5039 220.935C45.5039 221.518 45.6156 221.942 45.8389 222.206C46.0622 222.47 46.3536 222.602 46.7132 222.602C47.0018 222.602 47.2429 222.514 47.4363 222.337C47.6296 222.16 47.7522 221.887 47.8039 221.52ZM48.5411 220.939C48.5411 220.136 48.7644 219.541 49.2111 219.154C49.5842 218.833 50.0391 218.672 50.5756 218.672C51.1721 218.672 51.6596 218.868 52.0381 219.26C52.4167 219.65 52.606 220.189 52.606 220.878C52.606 221.437 52.5216 221.876 52.3527 222.198C52.1866 222.516 51.9428 222.764 51.6214 222.941C51.3028 223.118 50.9542 223.207 50.5756 223.207C49.9682 223.207 49.4766 223.012 49.1008 222.623C48.7277 222.233 48.5411 221.672 48.5411 220.939ZM49.2969 220.939C49.2969 221.495 49.4181 221.912 49.6605 222.19C49.9029 222.465 50.2079 222.602 50.5756 222.602C50.9406 222.602 51.2442 222.463 51.4866 222.185C51.729 221.908 51.8502 221.484 51.8502 220.915C51.8502 220.378 51.7277 219.973 51.4825 219.698C51.2401 219.42 50.9378 219.281 50.5756 219.281C50.2079 219.281 49.9029 219.418 49.6605 219.693C49.4181 219.969 49.2969 220.384 49.2969 220.939ZM53.1144 223.109V217.12H53.8498V223.109H53.1144ZM54.3786 220.939C54.3786 220.136 54.6019 219.541 55.0486 219.154C55.4217 218.833 55.8765 218.672 56.4131 218.672C57.0095 218.672 57.497 218.868 57.8756 219.26C58.2542 219.65 58.4435 220.189 58.4435 220.878C58.4435 221.437 58.359 221.876 58.1902 222.198C58.024 222.516 57.7803 222.764 57.4589 222.941C57.1402 223.118 56.7916 223.207 56.4131 223.207C55.8057 223.207 55.3141 223.012 54.9383 222.623C54.5651 222.233 54.3786 221.672 54.3786 220.939ZM55.1343 220.939C55.1343 221.495 55.2555 221.912 55.4979 222.19C55.7403 222.465 56.0454 222.602 56.4131 222.602C56.778 222.602 57.0817 222.463 57.3241 222.185C57.5665 221.908 57.6877 221.484 57.6877 220.915C57.6877 220.378 57.5651 219.973 57.32 219.698C57.0776 219.42 56.7753 219.281 56.4131 219.281C56.0454 219.281 55.7403 219.418 55.4979 219.693C55.2555 219.969 55.1343 220.384 55.1343 220.939ZM58.96 223.109V218.77H59.6218V219.428C59.7907 219.12 59.946 218.917 60.0876 218.819C60.2319 218.721 60.3899 218.672 60.5615 218.672C60.8093 218.672 61.0612 218.751 61.3173 218.909L61.064 219.591C60.8842 219.485 60.7045 219.432 60.5247 219.432C60.364 219.432 60.2197 219.481 60.0917 219.579C59.9637 219.674 59.8724 219.808 59.8179 219.979C59.7362 220.241 59.6954 220.527 59.6954 220.837V223.109H58.96Z" fill="#78797D"/>
<path d="M100.897 196.335V191.053H98.9241V190.346H103.671V191.053H101.69V196.335H100.897ZM106.092 194.938L106.851 195.032C106.732 195.476 106.51 195.82 106.186 196.066C105.861 196.311 105.447 196.433 104.944 196.433C104.309 196.433 103.805 196.239 103.432 195.849C103.062 195.457 102.876 194.908 102.876 194.203C102.876 193.473 103.064 192.906 103.44 192.503C103.816 192.1 104.304 191.899 104.903 191.899C105.483 191.899 105.957 192.096 106.324 192.491C106.692 192.886 106.876 193.441 106.876 194.158C106.876 194.201 106.875 194.267 106.872 194.354H103.636C103.664 194.83 103.798 195.195 104.041 195.449C104.283 195.702 104.585 195.829 104.948 195.829C105.217 195.829 105.447 195.758 105.638 195.616C105.829 195.475 105.98 195.249 106.092 194.938ZM103.677 193.749H106.1C106.067 193.384 105.974 193.111 105.822 192.928C105.588 192.645 105.284 192.503 104.911 192.503C104.573 192.503 104.289 192.616 104.057 192.842C103.828 193.068 103.702 193.371 103.677 193.749ZM107.143 195.04L107.871 194.926C107.911 195.217 108.024 195.441 108.21 195.596C108.398 195.751 108.659 195.829 108.994 195.829C109.332 195.829 109.582 195.761 109.746 195.624C109.909 195.485 109.991 195.323 109.991 195.138C109.991 194.972 109.919 194.841 109.774 194.746C109.674 194.681 109.423 194.598 109.023 194.497C108.483 194.361 108.109 194.244 107.899 194.145C107.692 194.045 107.534 193.907 107.425 193.733C107.319 193.556 107.266 193.361 107.266 193.149C107.266 192.955 107.309 192.777 107.397 192.613C107.487 192.447 107.608 192.31 107.76 192.201C107.875 192.116 108.03 192.046 108.226 191.988C108.425 191.928 108.637 191.899 108.863 191.899C109.204 191.899 109.502 191.948 109.758 192.046C110.017 192.144 110.207 192.277 110.33 192.446C110.452 192.612 110.537 192.835 110.583 193.116L109.864 193.214C109.831 192.991 109.736 192.816 109.578 192.691C109.423 192.566 109.202 192.503 108.916 192.503C108.579 192.503 108.338 192.559 108.193 192.671C108.049 192.782 107.977 192.913 107.977 193.063C107.977 193.158 108.007 193.244 108.067 193.32C108.127 193.399 108.221 193.465 108.349 193.516C108.422 193.544 108.639 193.606 108.998 193.704C109.518 193.843 109.881 193.958 110.085 194.047C110.292 194.135 110.454 194.263 110.571 194.431C110.688 194.6 110.747 194.81 110.747 195.061C110.747 195.306 110.674 195.537 110.53 195.755C110.388 195.97 110.183 196.138 109.913 196.258C109.644 196.375 109.339 196.433 108.998 196.433C108.434 196.433 108.004 196.316 107.707 196.082C107.413 195.848 107.225 195.5 107.143 195.04ZM112.885 195.677L112.991 196.327C112.784 196.371 112.599 196.392 112.436 196.392C112.169 196.392 111.962 196.35 111.815 196.266C111.668 196.181 111.564 196.071 111.504 195.935C111.444 195.796 111.414 195.506 111.414 195.065V192.569H110.875V191.997H111.414V190.922L112.146 190.481V191.997H112.885V192.569H112.146V195.106C112.146 195.315 112.158 195.45 112.182 195.51C112.21 195.57 112.252 195.618 112.309 195.653C112.369 195.688 112.453 195.706 112.562 195.706C112.644 195.706 112.752 195.697 112.885 195.677ZM118.085 194.746L118.808 194.84C118.729 195.338 118.526 195.729 118.2 196.012C117.875 196.293 117.476 196.433 117.003 196.433C116.409 196.433 115.931 196.24 115.569 195.853C115.209 195.464 115.029 194.907 115.029 194.182C115.029 193.714 115.107 193.304 115.262 192.953C115.417 192.601 115.653 192.338 115.969 192.164C116.288 191.987 116.634 191.899 117.007 191.899C117.478 191.899 117.863 192.018 118.163 192.258C118.462 192.495 118.654 192.833 118.739 193.271L118.024 193.382C117.956 193.09 117.835 192.871 117.66 192.724C117.489 192.577 117.28 192.503 117.035 192.503C116.665 192.503 116.364 192.637 116.132 192.904C115.901 193.168 115.785 193.587 115.785 194.162C115.785 194.745 115.897 195.168 116.12 195.432C116.343 195.697 116.635 195.829 116.994 195.829C117.283 195.829 117.524 195.74 117.718 195.563C117.911 195.386 118.033 195.114 118.085 194.746ZM118.822 194.166C118.822 193.362 119.046 192.767 119.492 192.381C119.865 192.059 120.32 191.899 120.857 191.899C121.453 191.899 121.941 192.095 122.319 192.487C122.698 192.876 122.887 193.416 122.887 194.105C122.887 194.663 122.803 195.103 122.634 195.424C122.468 195.743 122.224 195.991 121.903 196.168C121.584 196.345 121.235 196.433 120.857 196.433C120.249 196.433 119.758 196.239 119.382 195.849C119.009 195.46 118.822 194.899 118.822 194.166ZM119.578 194.166C119.578 194.721 119.699 195.138 119.942 195.416C120.184 195.691 120.489 195.829 120.857 195.829C121.222 195.829 121.525 195.69 121.768 195.412C122.01 195.134 122.131 194.711 122.131 194.141C122.131 193.605 122.009 193.199 121.764 192.924C121.521 192.646 121.219 192.507 120.857 192.507C120.489 192.507 120.184 192.645 119.942 192.92C119.699 193.195 119.578 193.61 119.578 194.166ZM123.396 196.335V190.346H124.131V196.335H123.396ZM124.66 194.166C124.66 193.362 124.883 192.767 125.33 192.381C125.703 192.059 126.158 191.899 126.694 191.899C127.291 191.899 127.778 192.095 128.157 192.487C128.535 192.876 128.725 193.416 128.725 194.105C128.725 194.663 128.64 195.103 128.471 195.424C128.305 195.743 128.062 195.991 127.74 196.168C127.421 196.345 127.073 196.433 126.694 196.433C126.087 196.433 125.595 196.239 125.22 195.849C124.846 195.46 124.66 194.899 124.66 194.166ZM125.416 194.166C125.416 194.721 125.537 195.138 125.779 195.416C126.022 195.691 126.327 195.829 126.694 195.829C127.059 195.829 127.363 195.69 127.605 195.412C127.848 195.134 127.969 194.711 127.969 194.141C127.969 193.605 127.846 193.199 127.601 192.924C127.359 192.646 127.057 192.507 126.694 192.507C126.327 192.507 126.022 192.645 125.779 192.92C125.537 193.195 125.416 193.61 125.416 194.166ZM129.241 196.335V191.997H129.903V192.654C130.072 192.347 130.227 192.144 130.369 192.046C130.513 191.948 130.671 191.899 130.843 191.899C131.091 191.899 131.342 191.978 131.599 192.135L131.345 192.818C131.165 192.712 130.986 192.658 130.806 192.658C130.645 192.658 130.501 192.707 130.373 192.805C130.245 192.901 130.154 193.034 130.099 193.206C130.017 193.467 129.977 193.753 129.977 194.064V196.335H129.241Z" fill="#78797D"/>
<path d="M165.321 196.335V191.053H163.348V190.346H168.095V191.053H166.114V196.335H165.321ZM170.515 194.938L171.275 195.032C171.155 195.476 170.933 195.82 170.609 196.066C170.285 196.311 169.871 196.433 169.367 196.433C168.733 196.433 168.229 196.239 167.856 195.849C167.485 195.457 167.3 194.908 167.3 194.203C167.3 193.473 167.488 192.906 167.864 192.503C168.24 192.1 168.727 191.899 169.327 191.899C169.907 191.899 170.381 192.096 170.748 192.491C171.116 192.886 171.3 193.441 171.3 194.158C171.3 194.201 171.298 194.267 171.296 194.354H168.06C168.087 194.83 168.222 195.195 168.465 195.449C168.707 195.702 169.009 195.829 169.372 195.829C169.641 195.829 169.871 195.758 170.062 195.616C170.253 195.475 170.404 195.249 170.515 194.938ZM168.101 193.749H170.524C170.491 193.384 170.398 193.111 170.246 192.928C170.012 192.645 169.708 192.503 169.335 192.503C168.997 192.503 168.712 192.616 168.481 192.842C168.252 193.068 168.126 193.371 168.101 193.749ZM171.567 195.04L172.294 194.926C172.335 195.217 172.448 195.441 172.633 195.596C172.821 195.751 173.083 195.829 173.418 195.829C173.756 195.829 174.006 195.761 174.17 195.624C174.333 195.485 174.415 195.323 174.415 195.138C174.415 194.972 174.342 194.841 174.198 194.746C174.097 194.681 173.847 194.598 173.446 194.497C172.907 194.361 172.533 194.244 172.323 194.145C172.116 194.045 171.958 193.907 171.849 193.733C171.743 193.556 171.69 193.361 171.69 193.149C171.69 192.955 171.733 192.777 171.82 192.613C171.91 192.447 172.032 192.31 172.184 192.201C172.298 192.116 172.454 192.046 172.65 191.988C172.849 191.928 173.061 191.899 173.287 191.899C173.628 191.899 173.926 191.948 174.182 192.046C174.441 192.144 174.631 192.277 174.754 192.446C174.876 192.612 174.961 192.835 175.007 193.116L174.288 193.214C174.255 192.991 174.16 192.816 174.002 192.691C173.847 192.566 173.626 192.503 173.34 192.503C173.002 192.503 172.761 192.559 172.617 192.671C172.473 192.782 172.401 192.913 172.401 193.063C172.401 193.158 172.431 193.244 172.49 193.32C172.55 193.399 172.644 193.465 172.772 193.516C172.846 193.544 173.062 193.606 173.422 193.704C173.942 193.843 174.304 193.958 174.509 194.047C174.716 194.135 174.878 194.263 174.995 194.431C175.112 194.6 175.17 194.81 175.17 195.061C175.17 195.306 175.098 195.537 174.954 195.755C174.812 195.97 174.607 196.138 174.337 196.258C174.067 196.375 173.762 196.433 173.422 196.433C172.858 196.433 172.428 196.316 172.131 196.082C171.837 195.848 171.649 195.5 171.567 195.04ZM177.309 195.677L177.415 196.327C177.208 196.371 177.023 196.392 176.859 196.392C176.593 196.392 176.386 196.35 176.239 196.266C176.091 196.181 175.988 196.071 175.928 195.935C175.868 195.796 175.838 195.506 175.838 195.065V192.569H175.299V191.997H175.838V190.922L176.569 190.481V191.997H177.309V192.569H176.569V195.106C176.569 195.315 176.582 195.45 176.606 195.51C176.633 195.57 176.676 195.618 176.733 195.653C176.793 195.688 176.877 195.706 176.986 195.706C177.068 195.706 177.175 195.697 177.309 195.677ZM182.509 194.746L183.232 194.84C183.153 195.338 182.95 195.729 182.623 196.012C182.299 196.293 181.9 196.433 181.426 196.433C180.833 196.433 180.355 196.24 179.992 195.853C179.633 195.464 179.453 194.907 179.453 194.182C179.453 193.714 179.531 193.304 179.686 192.953C179.841 192.601 180.077 192.338 180.393 192.164C180.711 191.987 181.057 191.899 181.43 191.899C181.902 191.899 182.287 192.018 182.587 192.258C182.886 192.495 183.078 192.833 183.163 193.271L182.448 193.382C182.38 193.09 182.258 192.871 182.084 192.724C181.913 192.577 181.704 192.503 181.459 192.503C181.089 192.503 180.788 192.637 180.556 192.904C180.325 193.168 180.209 193.587 180.209 194.162C180.209 194.745 180.321 195.168 180.544 195.432C180.767 195.697 181.059 195.829 181.418 195.829C181.707 195.829 181.948 195.74 182.141 195.563C182.335 195.386 182.457 195.114 182.509 194.746ZM183.246 194.166C183.246 193.362 183.47 192.767 183.916 192.381C184.289 192.059 184.744 191.899 185.281 191.899C185.877 191.899 186.365 192.095 186.743 192.487C187.122 192.876 187.311 193.416 187.311 194.105C187.311 194.663 187.227 195.103 187.058 195.424C186.892 195.743 186.648 195.991 186.327 196.168C186.008 196.345 185.659 196.433 185.281 196.433C184.673 196.433 184.182 196.239 183.806 195.849C183.433 195.46 183.246 194.899 183.246 194.166ZM184.002 194.166C184.002 194.721 184.123 195.138 184.366 195.416C184.608 195.691 184.913 195.829 185.281 195.829C185.646 195.829 185.949 195.69 186.192 195.412C186.434 195.134 186.555 194.711 186.555 194.141C186.555 193.605 186.433 193.199 186.188 192.924C185.945 192.646 185.643 192.507 185.281 192.507C184.913 192.507 184.608 192.645 184.366 192.92C184.123 193.195 184.002 193.61 184.002 194.166ZM187.819 196.335V190.346H188.555V196.335H187.819ZM189.084 194.166C189.084 193.362 189.307 192.767 189.754 192.381C190.127 192.059 190.582 191.899 191.118 191.899C191.715 191.899 192.202 192.095 192.581 192.487C192.959 192.876 193.149 193.416 193.149 194.105C193.149 194.663 193.064 195.103 192.895 195.424C192.729 195.743 192.485 195.991 192.164 196.168C191.845 196.345 191.497 196.433 191.118 196.433C190.511 196.433 190.019 196.239 189.643 195.849C189.27 195.46 189.084 194.899 189.084 194.166ZM189.839 194.166C189.839 194.721 189.961 195.138 190.203 195.416C190.445 195.691 190.75 195.829 191.118 195.829C191.483 195.829 191.787 195.69 192.029 195.412C192.272 195.134 192.393 194.711 192.393 194.141C192.393 193.605 192.27 193.199 192.025 192.924C191.783 192.646 191.48 192.507 191.118 192.507C190.75 192.507 190.445 192.645 190.203 192.92C189.961 193.195 189.839 193.61 189.839 194.166ZM193.665 196.335V191.997H194.327V192.654C194.496 192.347 194.651 192.144 194.793 192.046C194.937 191.948 195.095 191.899 195.267 191.899C195.514 191.899 195.766 191.978 196.022 192.135L195.769 192.818C195.589 192.712 195.41 192.658 195.23 192.658C195.069 192.658 194.925 192.707 194.797 192.805C194.669 192.901 194.577 193.034 194.523 193.206C194.441 193.467 194.4 193.753 194.4 194.064V196.335H193.665Z" fill="#78797D"/>
<path d="M240.622 196.335V191.053H238.649V190.346H243.396V191.053H241.415V196.335H240.622ZM245.816 194.938L246.576 195.032C246.456 195.476 246.234 195.82 245.91 196.066C245.586 196.311 245.172 196.433 244.668 196.433C244.034 196.433 243.53 196.239 243.157 195.849C242.786 195.457 242.601 194.908 242.601 194.203C242.601 193.473 242.789 192.906 243.165 192.503C243.541 192.1 244.028 191.899 244.627 191.899C245.207 191.899 245.681 192.096 246.049 192.491C246.417 192.886 246.601 193.441 246.601 194.158C246.601 194.201 246.599 194.267 246.597 194.354H243.361C243.388 194.83 243.523 195.195 243.765 195.449C244.008 195.702 244.31 195.829 244.672 195.829C244.942 195.829 245.172 195.758 245.363 195.616C245.553 195.475 245.705 195.249 245.816 194.938ZM243.402 193.749H245.824C245.792 193.384 245.699 193.111 245.547 192.928C245.312 192.645 245.009 192.503 244.636 192.503C244.298 192.503 244.013 192.616 243.782 192.842C243.553 193.068 243.426 193.371 243.402 193.749ZM246.868 195.04L247.595 194.926C247.636 195.217 247.749 195.441 247.934 195.596C248.122 195.751 248.384 195.829 248.719 195.829C249.056 195.829 249.307 195.761 249.47 195.624C249.634 195.485 249.715 195.323 249.715 195.138C249.715 194.972 249.643 194.841 249.499 194.746C249.398 194.681 249.148 194.598 248.747 194.497C248.208 194.361 247.833 194.244 247.624 194.145C247.417 194.045 247.259 193.907 247.15 193.733C247.044 193.556 246.991 193.361 246.991 193.149C246.991 192.955 247.034 192.777 247.121 192.613C247.211 192.447 247.332 192.31 247.485 192.201C247.599 192.116 247.754 192.046 247.951 191.988C248.149 191.928 248.362 191.899 248.588 191.899C248.928 191.899 249.227 191.948 249.483 192.046C249.741 192.144 249.932 192.277 250.055 192.446C250.177 192.612 250.261 192.835 250.308 193.116L249.589 193.214C249.556 192.991 249.461 192.816 249.303 192.691C249.148 192.566 248.927 192.503 248.641 192.503C248.303 192.503 248.062 192.559 247.918 192.671C247.774 192.782 247.701 192.913 247.701 193.063C247.701 193.158 247.731 193.244 247.791 193.32C247.851 193.399 247.945 193.465 248.073 193.516C248.147 193.544 248.363 193.606 248.723 193.704C249.243 193.843 249.605 193.958 249.809 194.047C250.016 194.135 250.178 194.263 250.296 194.431C250.413 194.6 250.471 194.81 250.471 195.061C250.471 195.306 250.399 195.537 250.255 195.755C250.113 195.97 249.907 196.138 249.638 196.258C249.368 196.375 249.063 196.433 248.723 196.433C248.159 196.433 247.729 196.316 247.432 196.082C247.138 195.848 246.95 195.5 246.868 195.04ZM252.61 195.677L252.716 196.327C252.509 196.371 252.324 196.392 252.16 196.392C251.893 196.392 251.686 196.35 251.539 196.266C251.392 196.181 251.289 196.071 251.229 195.935C251.169 195.796 251.139 195.506 251.139 195.065V192.569H250.6V191.997H251.139V190.922L251.87 190.481V191.997H252.61V192.569H251.87V195.106C251.87 195.315 251.882 195.45 251.907 195.51C251.934 195.57 251.976 195.618 252.034 195.653C252.094 195.688 252.178 195.706 252.287 195.706C252.369 195.706 252.476 195.697 252.61 195.677ZM257.81 194.746L258.533 194.84C258.454 195.338 258.251 195.729 257.924 196.012C257.6 196.293 257.201 196.433 256.727 196.433C256.133 196.433 255.655 196.24 255.293 195.853C254.934 195.464 254.754 194.907 254.754 194.182C254.754 193.714 254.832 193.304 254.987 192.953C255.142 192.601 255.378 192.338 255.694 192.164C256.012 191.987 256.358 191.899 256.731 191.899C257.202 191.899 257.588 192.018 257.887 192.258C258.187 192.495 258.379 192.833 258.463 193.271L257.749 193.382C257.68 193.09 257.559 192.871 257.385 192.724C257.213 192.577 257.005 192.503 256.76 192.503C256.389 192.503 256.089 192.637 255.857 192.904C255.626 193.168 255.51 193.587 255.51 194.162C255.51 194.745 255.621 195.168 255.845 195.432C256.068 195.697 256.36 195.829 256.719 195.829C257.008 195.829 257.249 195.74 257.442 195.563C257.635 195.386 257.758 195.114 257.81 194.746ZM258.547 194.166C258.547 193.362 258.77 192.767 259.217 192.381C259.59 192.059 260.045 191.899 260.581 191.899C261.178 191.899 261.665 192.095 262.044 192.487C262.423 192.876 262.612 193.416 262.612 194.105C262.612 194.663 262.527 195.103 262.359 195.424C262.192 195.743 261.949 195.991 261.627 196.168C261.309 196.345 260.96 196.433 260.581 196.433C259.974 196.433 259.482 196.239 259.107 195.849C258.734 195.46 258.547 194.899 258.547 194.166ZM259.303 194.166C259.303 194.721 259.424 195.138 259.666 195.416C259.909 195.691 260.214 195.829 260.581 195.829C260.946 195.829 261.25 195.69 261.492 195.412C261.735 195.134 261.856 194.711 261.856 194.141C261.856 193.605 261.734 193.199 261.488 192.924C261.246 192.646 260.944 192.507 260.581 192.507C260.214 192.507 259.909 192.645 259.666 192.92C259.424 193.195 259.303 193.61 259.303 194.166ZM263.12 196.335V190.346H263.856V196.335H263.12ZM264.384 194.166C264.384 193.362 264.608 192.767 265.054 192.381C265.428 192.059 265.882 191.899 266.419 191.899C267.015 191.899 267.503 192.095 267.881 192.487C268.26 192.876 268.449 193.416 268.449 194.105C268.449 194.663 268.365 195.103 268.196 195.424C268.03 195.743 267.786 195.991 267.465 196.168C267.146 196.345 266.797 196.433 266.419 196.433C265.812 196.433 265.32 196.239 264.944 195.849C264.571 195.46 264.384 194.899 264.384 194.166ZM265.14 194.166C265.14 194.721 265.261 195.138 265.504 195.416C265.746 195.691 266.051 195.829 266.419 195.829C266.784 195.829 267.088 195.69 267.33 195.412C267.572 195.134 267.694 194.711 267.694 194.141C267.694 193.605 267.571 193.199 267.326 192.924C267.083 192.646 266.781 192.507 266.419 192.507C266.051 192.507 265.746 192.645 265.504 192.92C265.261 193.195 265.14 193.61 265.14 194.166ZM268.966 196.335V191.997H269.628V192.654C269.797 192.347 269.952 192.144 270.093 192.046C270.238 191.948 270.396 191.899 270.567 191.899C270.815 191.899 271.067 191.978 271.323 192.135L271.07 192.818C270.89 192.712 270.71 192.658 270.531 192.658C270.37 192.658 270.226 192.707 270.098 192.805C269.97 192.901 269.878 193.034 269.824 193.206C269.742 193.467 269.701 193.753 269.701 194.064V196.335H268.966Z" fill="#78797D"/>
<rect x="10.04" y="184.335" width="15.0602" height="15.0602" rx="1.67335" fill="#E81D62"/>
<rect x="10.04" y="211.109" width="15.0602" height="15.0602" rx="1.67335" fill="#5949B7"/>
<rect x="79.4844" y="184.335" width="15.0602" height="15.0602" rx="1.67335" fill="#FFB100"/>
<rect x="141.398" y="184.335" width="15.0602" height="15.0602" rx="1.67335" fill="#32A1C8"/>
<rect x="216.699" y="184.335" width="15.0602" height="15.0602" rx="1.67335" fill="#00A79D"/>
<path d="M60.6662 134.986H52.8784V136.139H60.6662V134.986Z" fill="#939598"/>
<path d="M60.6662 106.728H52.8784V107.881H60.6662V106.728Z" fill="#939598"/>
<path d="M60.6662 78.1816H52.8784V79.335H60.6662V78.1816Z" fill="#939598"/>
<path d="M60.6662 49.6357H52.8784V50.7891H60.6662V49.6357Z" fill="#939598"/>
<path d="M60.6662 21.3777H52.8784V22.5311H60.6662V21.3777Z" fill="#939598"/>
<path d="M258.244 162.667H52.8779V164.686H258.244V162.667Z" fill="#939598"/>
<path d="M47.9652 162.704C47.9652 163.589 47.8141 164.247 47.5118 164.677C47.2094 165.107 46.7369 165.322 46.0941 165.322C45.4596 165.322 44.9897 165.113 44.6847 164.693C44.3797 164.271 44.2217 163.642 44.2108 162.806V161.797C44.2108 160.923 44.362 160.273 44.6643 159.848C44.9666 159.423 45.4405 159.211 46.086 159.211C46.726 159.211 47.1972 159.416 47.4995 159.828C47.8018 160.236 47.9571 160.868 47.9652 161.723V162.704ZM47.2094 161.67C47.2094 161.03 47.1196 160.564 46.9398 160.273C46.7601 159.979 46.4754 159.832 46.086 159.832C45.6992 159.832 45.4173 159.977 45.2403 160.269C45.0633 160.56 44.972 161.008 44.9666 161.613V162.822C44.9666 163.465 45.0592 163.94 45.2444 164.248C45.4323 164.553 45.7156 164.706 46.0941 164.706C46.4673 164.706 46.7437 164.561 46.9235 164.272C47.1059 163.984 47.2013 163.529 47.2094 162.908V161.67Z" fill="#939598"/>
<path d="M43.3464 136.794H39.449V136.251L41.508 133.963C41.813 133.617 42.0227 133.336 42.1371 133.121C42.2542 132.903 42.3128 132.679 42.3128 132.447C42.3128 132.137 42.2188 131.882 42.0309 131.683C41.843 131.484 41.5924 131.385 41.2792 131.385C40.9033 131.385 40.6106 131.493 40.4009 131.708C40.1939 131.92 40.0904 132.217 40.0904 132.598H39.3346C39.3346 132.051 39.5103 131.608 39.8616 131.271C40.2157 130.933 40.6882 130.764 41.2792 130.764C41.8321 130.764 42.2692 130.91 42.5906 131.201C42.912 131.49 43.0727 131.875 43.0727 132.357C43.0727 132.943 42.6995 133.64 41.9533 134.449L40.36 136.177H43.3464V136.794ZM47.877 134.257C47.877 135.142 47.7259 135.8 47.4235 136.23C47.1212 136.66 46.6487 136.876 46.0059 136.876C45.3713 136.876 44.9015 136.666 44.5965 136.247C44.2915 135.824 44.1335 135.195 44.1226 134.359V133.35C44.1226 132.476 44.2737 131.826 44.5761 131.401C44.8784 130.976 45.3523 130.764 45.9978 130.764C46.6378 130.764 47.109 130.97 47.4113 131.381C47.7136 131.789 47.8688 132.421 47.877 133.276V134.257ZM47.1212 133.223C47.1212 132.583 47.0313 132.118 46.8516 131.826C46.6718 131.532 46.3872 131.385 45.9978 131.385C45.611 131.385 45.3291 131.531 45.1521 131.822C44.9751 132.114 44.8838 132.562 44.8784 133.166V134.375C44.8784 135.018 44.971 135.493 45.1562 135.801C45.3441 136.106 45.6274 136.259 46.0059 136.259C46.3791 136.259 46.6555 136.114 46.8353 135.826C47.0177 135.537 47.1131 135.082 47.1212 134.461V133.223Z" fill="#939598"/>
<path d="M42.6396 106.349H43.4649V106.966H42.6396V108.347H41.8797V106.966H39.1712V106.521L41.8348 102.399H42.6396V106.349ZM40.0291 106.349H41.8797V103.432L41.7899 103.596L40.0291 106.349ZM47.877 105.81C47.877 106.695 47.7259 107.353 47.4235 107.783C47.1212 108.213 46.6487 108.429 46.0059 108.429C45.3713 108.429 44.9015 108.219 44.5965 107.799C44.2915 107.377 44.1335 106.748 44.1226 105.912V104.903C44.1226 104.029 44.2737 103.379 44.5761 102.954C44.8784 102.529 45.3523 102.317 45.9978 102.317C46.6378 102.317 47.109 102.523 47.4113 102.934C47.7136 103.342 47.8688 103.974 47.877 104.829V105.81ZM47.1212 104.776C47.1212 104.136 47.0313 103.671 46.8516 103.379C46.6718 103.085 46.3872 102.938 45.9978 102.938C45.611 102.938 45.3291 103.084 45.1521 103.375C44.9751 103.666 44.8838 104.115 44.8784 104.719V105.928C44.8784 106.571 44.971 107.046 45.1562 107.354C45.3441 107.659 45.6274 107.812 46.0059 107.812C46.3791 107.812 46.6555 107.667 46.8353 107.379C47.0177 107.09 47.1131 106.635 47.1212 106.014V104.776Z" fill="#939598"/>
<path d="M42.4149 74.7842V75.4256H42.276C41.6877 75.4365 41.2193 75.6108 40.8707 75.9486C40.5221 76.2863 40.3205 76.7615 40.266 77.3743C40.5792 77.0148 41.0068 76.8351 41.5488 76.8351C42.0663 76.8351 42.4789 77.0176 42.7867 77.3825C43.0972 77.7475 43.2524 78.2186 43.2524 78.796C43.2524 79.4088 43.0849 79.8991 42.7499 80.2668C42.4176 80.6344 41.971 80.8183 41.4099 80.8183C40.8407 80.8183 40.3791 80.6004 40.025 80.1646C39.6709 79.7261 39.4939 79.1624 39.4939 78.4733V78.1832C39.4939 77.0884 39.7268 76.2522 40.1925 75.6748C40.661 75.0947 41.3568 74.7979 42.2801 74.7842H42.4149ZM41.4222 77.4642C41.1634 77.4642 40.9251 77.5418 40.7073 77.6971C40.4894 77.8523 40.3382 78.0471 40.2538 78.2813V78.5591C40.2538 79.0493 40.3641 79.4442 40.5847 79.7438C40.8053 80.0434 41.0804 80.1932 41.4099 80.1932C41.7504 80.1932 42.0173 80.0679 42.2107 79.8174C42.4068 79.5668 42.5048 79.2386 42.5048 78.8328C42.5048 78.4243 42.4054 78.0947 42.2066 77.8442C42.0105 77.5909 41.749 77.4642 41.4222 77.4642ZM47.877 78.1996C47.877 79.0847 47.7259 79.7425 47.4235 80.1728C47.1212 80.6031 46.6487 80.8183 46.0059 80.8183C45.3713 80.8183 44.9015 80.6086 44.5965 80.1891C44.2915 79.767 44.1335 79.1378 44.1226 78.3017V77.2926C44.1226 76.4184 44.2737 75.7688 44.5761 75.3439C44.8784 74.9191 45.3523 74.7066 45.9978 74.7066C46.6378 74.7066 47.109 74.9122 47.4113 75.3235C47.7136 75.732 47.8688 76.3639 47.877 77.2191V78.1996ZM47.1212 77.166C47.1212 76.526 47.0313 76.0602 46.8516 75.7688C46.6718 75.4747 46.3872 75.3276 45.9978 75.3276C45.611 75.3276 45.3291 75.4733 45.1521 75.7647C44.9751 76.0561 44.8838 76.5042 44.8784 77.1088V78.3181C44.8784 78.9608 44.971 79.4361 45.1562 79.7438C45.3441 80.0489 45.6274 80.2014 46.0059 80.2014C46.3791 80.2014 46.6555 80.057 46.8353 79.7683C47.0177 79.4797 47.1131 79.0248 47.1212 78.4038V77.166Z" fill="#939598"/>
<path d="M43.0563 48.7302C43.0563 49.027 42.9773 49.2912 42.8194 49.5227C42.6641 49.7542 42.4531 49.9353 42.1861 50.0661C42.4966 50.1995 42.7417 50.3943 42.9215 50.6503C43.104 50.9063 43.1952 51.1963 43.1952 51.5204C43.1952 52.0352 43.0209 52.4451 42.6723 52.7501C42.3264 53.0552 41.8702 53.2077 41.3037 53.2077C40.7318 53.2077 40.2728 53.0552 39.927 52.7501C39.5838 52.4424 39.4122 52.0325 39.4122 51.5204C39.4122 51.1991 39.4994 50.909 39.6737 50.6503C39.8507 50.3915 40.0945 50.1954 40.4049 50.062C40.1408 49.9312 39.9324 49.7501 39.7799 49.5186C39.6274 49.2871 39.5511 49.0243 39.5511 48.7302C39.5511 48.229 39.7118 47.8314 40.0332 47.5372C40.3546 47.2431 40.7781 47.096 41.3037 47.096C41.8266 47.096 42.2488 47.2431 42.5702 47.5372C42.8943 47.8314 43.0563 48.229 43.0563 48.7302ZM42.4394 51.5041C42.4394 51.1718 42.3332 50.9008 42.1208 50.6911C41.9111 50.4814 41.636 50.3765 41.2955 50.3765C40.9551 50.3765 40.6814 50.48 40.4744 50.687C40.2701 50.894 40.168 51.1664 40.168 51.5041C40.168 51.8418 40.2674 52.1074 40.4662 52.3007C40.6678 52.4941 40.9469 52.5908 41.3037 52.5908C41.6578 52.5908 41.9356 52.4941 42.1371 52.3007C42.3387 52.1046 42.4394 51.8391 42.4394 51.5041ZM41.3037 47.717C41.0068 47.717 40.7658 47.8096 40.5806 47.9948C40.3981 48.1773 40.3069 48.4265 40.3069 48.7424C40.3069 49.0447 40.3968 49.2898 40.5765 49.4778C40.759 49.663 41.0014 49.7556 41.3037 49.7556C41.606 49.7556 41.8471 49.663 42.0268 49.4778C42.2093 49.2898 42.3005 49.0447 42.3005 48.7424C42.3005 48.4401 42.2066 48.1936 42.0186 48.003C41.8307 47.8123 41.5924 47.717 41.3037 47.717ZM47.877 50.589C47.877 51.4741 47.7259 52.1319 47.4235 52.5622C47.1212 52.9925 46.6487 53.2077 46.0059 53.2077C45.3713 53.2077 44.9015 52.998 44.5965 52.5785C44.2915 52.1564 44.1335 51.5272 44.1226 50.6911V49.682C44.1226 48.8078 44.2737 48.1582 44.5761 47.7333C44.8784 47.3085 45.3523 47.096 45.9978 47.096C46.6378 47.096 47.109 47.3017 47.4113 47.7129C47.7136 48.1214 47.8688 48.7533 47.877 49.6085V50.589ZM47.1212 49.5554C47.1212 48.9154 47.0313 48.4496 46.8516 48.1582C46.6718 47.8641 46.3872 47.717 45.9978 47.717C45.611 47.717 45.3291 47.8627 45.1521 48.1541C44.9751 48.4455 44.8838 48.8936 44.8784 49.4982V50.7075C44.8784 51.3502 44.971 51.8255 45.1562 52.1332C45.3441 52.4383 45.6274 52.5908 46.0059 52.5908C46.3791 52.5908 46.6555 52.4464 46.8353 52.1578C47.0177 51.8691 47.1131 51.4142 47.1212 50.7933V49.5554Z" fill="#939598"/>
<path d="M37.147 24.6792H36.3871V19.642L34.8633 20.2017V19.5153L37.0285 18.7024H37.147V24.6792ZM43.0912 22.1422C43.0912 23.0274 42.94 23.6851 42.6377 24.1154C42.3354 24.5457 41.8628 24.7609 41.2201 24.7609C40.5855 24.7609 40.1157 24.5512 39.8106 24.1318C39.5056 23.7096 39.3476 23.0805 39.3367 22.2443V21.2353C39.3367 20.361 39.4879 19.7114 39.7902 19.2866C40.0925 18.8617 40.5664 18.6492 41.2119 18.6492C41.8519 18.6492 42.3231 18.8549 42.6254 19.2661C42.9277 19.6747 43.083 20.3065 43.0912 21.1617V22.1422ZM42.3354 21.1086C42.3354 20.4686 42.2455 20.0029 42.0657 19.7114C41.886 19.4173 41.6014 19.2702 41.2119 19.2702C40.8252 19.2702 40.5433 19.4159 40.3662 19.7073C40.1892 19.9988 40.098 20.4468 40.0925 21.0514V22.2607C40.0925 22.9034 40.1851 23.3787 40.3703 23.6865C40.5582 23.9915 40.8415 24.144 41.2201 24.144C41.5932 24.144 41.8696 23.9997 42.0494 23.711C42.2319 23.4223 42.3272 22.9674 42.3354 22.3465V21.1086ZM47.7893 22.1422C47.7893 23.0274 47.6381 23.6851 47.3358 24.1154C47.0335 24.5457 46.561 24.7609 45.9182 24.7609C45.2836 24.7609 44.8138 24.5512 44.5088 24.1318C44.2037 23.7096 44.0458 23.0805 44.0349 22.2443V21.2353C44.0349 20.361 44.186 19.7114 44.4883 19.2866C44.7907 18.8617 45.2646 18.6492 45.91 18.6492C46.5501 18.6492 47.0212 18.8549 47.3236 19.2661C47.6259 19.6747 47.7811 20.3065 47.7893 21.1617V22.1422ZM47.0335 21.1086C47.0335 20.4686 46.9436 20.0029 46.7639 19.7114C46.5841 19.4173 46.2995 19.2702 45.91 19.2702C45.5233 19.2702 45.2414 19.4159 45.0644 19.7073C44.8873 19.9988 44.7961 20.4468 44.7907 21.0514V22.2607C44.7907 22.9034 44.8833 23.3787 45.0685 23.6865C45.2564 23.9915 45.5396 24.144 45.9182 24.144C46.2913 24.144 46.5678 23.9997 46.7475 23.711C46.93 23.4223 47.0253 22.9674 47.0335 22.3465V21.1086Z" fill="#939598"/>
<path d="M99.0279 105.863H76.8184V162.667H99.0279V105.863Z" fill="#FF2E5A"/>
<path d="M130.179 51.366H107.969V162.668H130.179V51.366Z" fill="#FFB100"/>
<path d="M161.042 79.9121H138.833V162.667H161.042V79.9121Z" fill="#00A79D"/>
<path d="M191.904 121.434H169.694V162.955H191.904V121.434Z" fill="#27AAE1"/>
<path d="M223.056 23.1079H200.846V162.956H223.056V23.1079Z" fill="#5949B7"/>
</svg>
