<svg width="7" height="7" viewBox="0 0 7 7" fill="none" xmlns="http://www.w3.org/2000/svg">
<path d="M6.83871 6.08152C5.97766 5.22101 5.11664 4.36051 4.25559 3.5C5.11664 2.63949 5.97766 1.77899 6.83871 0.918481C7.34098 0.416519 6.5517 -0.336424 6.0853 0.165538C5.22426 1.02604 4.36323 1.88655 3.50219 2.74706C2.64115 1.88655 1.78008 1.02604 0.919032 0.165538C0.416757 -0.336424 -0.336648 0.452373 0.165628 0.918481C1.02667 1.77899 1.8877 2.63949 2.74874 3.5C1.8877 4.36051 1.02667 5.22101 0.165628 6.08152C-0.336648 6.58348 0.452633 7.33642 0.919032 6.83446C1.78008 5.97396 2.64115 5.11345 3.50219 4.25294C4.36323 5.11345 5.22426 5.97396 6.0853 6.83446C6.5517 7.33642 7.30511 6.58348 6.83871 6.08152Z" fill="white"/>
</svg>
