<svg width="15" height="15" viewBox="0 0 15 15" fill="none" xmlns="http://www.w3.org/2000/svg">
<rect x="15" width="14.0488" height="14.0488" rx="1.56098" transform="rotate(90 15 0)" fill="#C4C4C4" fill-opacity="0.3"/>
<path opacity="0.6" d="M11.6982 9.90286C10.7382 8.94341 9.77816 7.98396 8.81811 7.02451C9.77816 6.06506 10.7382 5.10561 11.6982 4.14616C12.2583 3.58648 11.3782 2.74696 10.8582 3.30664C9.89816 4.26609 8.93813 5.22554 7.97808 6.18499C7.01803 5.22554 6.05795 4.26609 5.0979 3.30664C4.53787 2.74696 3.69784 3.62646 4.25787 4.14616C5.21792 5.10561 6.17795 6.06506 7.138 7.02451C6.17795 7.98396 5.21792 8.94341 4.25787 9.90286C3.69784 10.4625 4.57788 11.3021 5.0979 10.7424C6.05795 9.78293 7.01803 8.82348 7.97808 7.86403C8.93813 8.82348 9.89816 9.78293 10.8582 10.7424C11.3782 11.3021 12.2183 10.4625 11.6982 9.90286Z" fill="#272727"/>
</svg>
