<svg width="13" height="12" viewBox="0 0 13 12" fill="none" xmlns="http://www.w3.org/2000/svg">
<path fill-rule="evenodd" clip-rule="evenodd" d="M0 6C0 9.27273 2.79403 12 6.28656 12C9.7156 12 12.5731 9.33333 12.5731 6C12.5731 2.66667 9.7791 0 6.28656 0C2.79403 0 0 2.72727 0 6ZM0.762006 6C0.762006 3.09091 3.23854 0.727273 6.28656 0.727273C7.66636 0.727273 8.92904 1.21163 9.89788 2.01169L8.8633 3.01431C8.159 2.45786 7.25926 2.12121 6.28656 2.12121C4.06404 2.12121 2.22252 3.87879 2.22252 6C2.22252 8.12121 4.06404 9.87879 6.28656 9.87879C8.50908 9.87879 10.3506 8.12121 10.3506 6C10.3506 5.06117 9.98988 4.19357 9.39505 3.51806L10.4377 2.52298C11.2924 3.45156 11.8111 4.66866 11.8111 6C11.8111 8.90909 9.3346 11.2727 6.28656 11.2727C3.23854 11.2727 0.762006 8.90909 0.762006 6ZM8.34035 3.5211C7.77896 3.09883 7.06697 2.84848 6.28656 2.84848C4.44505 2.84848 2.98453 4.24242 2.98453 6C2.98453 7.75757 4.44505 9.15151 6.28656 9.15151C8.12809 9.15151 9.5886 7.75757 9.5886 6C9.5886 5.24639 9.32008 4.55963 8.86815 4.02095L8.09591 4.75798C8.35513 5.10223 8.50909 5.52816 8.50909 6C8.50909 7.21212 7.49308 8.0606 6.28656 8.0606C5.08005 8.0606 4.06404 7.15151 4.06404 5.93939C4.06404 4.72727 5.08005 3.87879 6.28656 3.87879C6.76172 3.87879 7.20733 4.01979 7.57297 4.26477L8.34035 3.5211ZM7.01463 4.80586C6.8016 4.67947 6.55177 4.60606 6.28656 4.60606C5.52456 4.60606 4.88955 5.21212 4.88955 5.93939C4.88955 6.66667 5.52456 7.27273 6.28656 7.27273C7.04858 7.27273 7.68358 6.66667 7.68358 5.93939C7.68358 5.71378 7.62247 5.49983 7.51541 5.31201L6.54057 6.24242C6.47707 6.30303 6.35007 6.36364 6.28656 6.36364C6.15956 6.36364 6.09607 6.30303 6.03256 6.24242C5.90556 6.12121 5.90556 5.87879 6.03256 5.75758L7.01463 4.80586Z" fill="white"/>
</svg>
