<svg width="13" height="12" viewBox="0 0 13 12" fill="none" xmlns="http://www.w3.org/2000/svg">
<g clip-path="url(#clip0)">
<path d="M11.035 4.67226C11.3694 4.92145 11.7038 5.10834 12.0382 5.35753C12.8408 5.85591 12.8408 5.85591 12.0382 6.41658C11.7038 6.60348 11.3694 6.85266 11.035 7.03956C11.3026 7.53793 11.5032 7.97401 11.7038 8.41009C11.9045 8.78388 11.8376 8.90847 11.3694 8.90847C10.8344 8.97077 10.2994 8.97077 9.69747 9.03307C9.6306 9.53144 9.6306 9.96753 9.56372 10.4036C9.49684 10.9643 9.42996 11.0266 8.89493 10.7774C8.42679 10.5905 8.02552 10.4036 7.49049 10.1544C7.1561 10.5905 6.88858 10.9643 6.55419 11.4004C6.28668 11.7118 6.15292 11.7118 5.88541 11.4004C5.55102 11.0266 5.2835 10.5905 4.94911 10.2167C4.94911 10.2167 4.94911 10.2167 4.88223 10.1544C4.41408 10.3413 3.87906 10.5905 3.41091 10.7774C3.07651 10.902 2.94276 10.8397 2.87588 10.5282C2.809 10.0921 2.74212 9.65604 2.74212 9.28226C2.74212 9.03307 2.60837 8.97077 2.40773 8.97077C2.00646 8.97077 1.53831 8.90847 1.13704 8.90847C0.602015 8.84618 0.535136 8.78388 0.80265 8.3478C1.00328 7.91172 1.20392 7.47564 1.47143 6.97726C1.00328 6.66577 0.602015 6.35429 0.133866 6.1051C-0.200526 5.85591 -0.200526 5.79361 0.133866 5.54442C0.668893 5.29523 1.13704 4.98375 1.60519 4.67226C1.33768 4.23618 1.13704 3.7378 0.869528 3.30172C0.735771 2.99024 0.80265 2.86564 1.13704 2.80334C1.60519 2.74105 2.07334 2.67875 2.54149 2.67875C2.809 2.67875 2.87588 2.55416 2.87588 2.36726C2.87588 1.93118 2.94276 1.4951 3.00964 1.05902C3.07651 0.685239 3.21027 0.685239 3.54466 0.809834C4.01281 1.05902 4.54784 1.24591 5.01599 1.4951C5.35038 1.05902 5.68477 0.622942 6.01916 0.186862C6.2198 -0.124624 6.35356 -0.124624 6.62107 0.186862C6.95546 0.622942 7.28985 0.996725 7.62424 1.43281C8.09239 1.24591 8.56054 1.05902 9.02869 0.809834C9.56372 0.560645 9.6306 0.622942 9.69747 1.18362C9.69747 1.5574 9.76435 1.93118 9.76435 2.30497C9.76435 2.49186 9.89811 2.61645 10.0987 2.61645C10.5669 2.61645 11.035 2.67875 11.5032 2.74105C11.8376 2.80334 11.9045 2.92794 11.7707 3.17713C11.5032 3.7378 11.3026 4.17388 11.035 4.67226ZM7.02234 4.92145C7.02234 4.54767 7.02234 4.23618 7.02234 3.8624V3.8001C7.02234 3.36402 6.68795 3.05253 6.28668 3.05253C5.88541 3.05253 5.55102 3.36402 5.55102 3.8001C5.55102 4.54767 5.55102 5.29523 5.55102 6.1051C5.55102 6.54118 5.88541 6.85266 6.28668 6.85266C6.68795 6.85266 7.02234 6.54118 7.02234 6.1051C7.02234 5.66902 7.02234 5.29523 7.02234 4.92145ZM5.55102 7.97401C5.55102 8.3478 5.88541 8.72158 6.28668 8.72158C6.68795 8.72158 7.02234 8.41009 7.02234 7.97401C7.02234 7.53793 6.75483 7.28874 6.28668 7.28874C5.88541 7.22645 5.55102 7.53793 5.55102 7.97401Z" fill="white"/>
</g>
<defs>
<clipPath id="clip0">
<rect width="12.5731" height="11.7119" fill="white"/>
</clipPath>
</defs>
</svg>
