<svg width="7" height="7" viewBox="0 0 7 7" fill="none" xmlns="http://www.w3.org/2000/svg">
<path d="M3.82048 1.71647C4.60023 2.44424 5.328 3.22399 6.10775 3.95176C6.10775 3.74383 6.10775 3.53589 6.10775 3.32796C5.37998 4.10771 4.60023 4.83548 3.87246 5.61523C3.45659 6.0311 4.08039 6.60291 4.49626 6.23903C5.22403 5.45928 6.00378 4.73151 6.73155 3.95176C6.8875 3.79581 6.8875 3.48391 6.73155 3.32796C5.9518 2.60019 5.22403 1.82044 4.44428 1.09267C4.02841 0.728788 3.40461 1.35259 3.82048 1.71647Z" fill="white"/>
<path d="M0.701475 1.71647C1.48123 2.44424 2.20899 3.22399 2.98874 3.95176C2.98874 3.74383 2.98874 3.53589 2.98874 3.32796C2.26098 4.10771 1.48123 4.83548 0.753457 5.61523C0.33759 6.0311 0.961391 6.60291 1.37726 6.23903C2.10503 5.45928 2.88478 4.73151 3.61254 3.95176C3.7685 3.79581 3.7685 3.48391 3.61255 3.32796C2.83279 2.60019 2.10503 1.82044 1.32528 1.09267C0.909408 0.728788 0.285608 1.35259 0.701475 1.71647Z" fill="white"/>
</svg>
