<svg width="15" height="15" viewBox="0 0 15 15" fill="none" xmlns="http://www.w3.org/2000/svg">
<rect x="14.0488" width="14.0488" height="14.0488" rx="1.56098" transform="rotate(90 14.0488 0)" fill="#C4C4C4" fill-opacity="0.3"/>
<g opacity="0.6">
<path d="M10.1707 9.25482C9.96395 9.22897 9.75716 9.22897 9.55036 9.20312C9.49866 9.20312 9.47281 9.20312 9.42111 9.25482C9.42111 9.28067 9.39527 9.28067 9.39527 9.30652C9.26602 9.38406 9.26602 9.51331 9.26602 9.64256C9.29187 9.8235 9.29187 9.9786 9.29187 10.1595C9.29187 10.2888 9.24017 10.3663 9.13677 10.418C8.74903 10.5731 8.36129 10.7282 7.97355 10.8833C7.8443 10.935 7.74091 10.9092 7.66336 10.8058C7.50826 10.6507 7.37901 10.4697 7.22392 10.3146C7.19807 10.2888 7.14637 10.2629 7.12052 10.2629C6.96543 10.2371 6.88788 10.2888 6.81033 10.418C6.70693 10.5473 6.57768 10.6765 6.47429 10.8058C6.37089 10.935 6.26749 10.9609 6.13825 10.8833C5.77635 10.7282 5.38861 10.5731 5.02672 10.4439C4.89748 10.3922 4.84578 10.3146 4.84578 10.1595C4.84578 9.95275 4.87163 9.74596 4.89748 9.51331C4.89748 9.46161 4.89748 9.40991 4.84578 9.35822C4.81993 9.35822 4.81993 9.33237 4.81993 9.33237C4.71653 9.22897 4.58728 9.22897 4.45804 9.22897C4.27709 9.25482 4.09615 9.25482 3.9152 9.28067C3.78595 9.28067 3.68256 9.22897 3.65671 9.09972C3.50161 8.71198 3.34651 8.32424 3.19142 7.96235C3.13972 7.8331 3.16557 7.72971 3.26897 7.65216C3.42406 7.49706 3.60501 7.36782 3.7601 7.21272C3.8118 7.18687 3.8118 7.13517 3.8118 7.08347C3.83765 6.95423 3.78595 6.85083 3.65671 6.77328C3.52746 6.66988 3.39821 6.54064 3.24312 6.43724C3.11387 6.33384 3.08802 6.23044 3.16557 6.1012C3.32067 5.73931 3.47576 5.35156 3.60501 4.98967C3.70841 4.86043 3.78595 4.80873 3.94105 4.80873C4.14784 4.80873 4.38049 4.83458 4.58728 4.86043C4.63898 4.86043 4.69068 4.86043 4.71653 4.80873C4.71653 4.78288 4.74238 4.78288 4.74238 4.75703C4.87163 4.67948 4.89748 4.57608 4.87163 4.44684C4.84578 4.26589 4.84578 4.08495 4.81993 3.904C4.81993 3.77475 4.87163 3.67136 5.00087 3.61966C5.38861 3.46456 5.7505 3.30947 6.13825 3.15437C6.26749 3.10267 6.37089 3.12852 6.47429 3.23192C6.62938 3.38701 6.75863 3.56796 6.91373 3.72306C6.93958 3.77475 6.99127 3.77475 7.01712 3.77475C7.14637 3.8006 7.24977 3.7489 7.32732 3.64551C7.43071 3.49041 7.55996 3.36116 7.66336 3.23192C7.76676 3.10267 7.87015 3.10267 7.9994 3.15437C8.36129 3.30947 8.72318 3.46456 9.11092 3.59381C9.26602 3.67136 9.31772 3.72306 9.31772 3.904C9.31772 4.1108 9.29187 4.31759 9.26602 4.52439C9.26602 4.57608 9.29187 4.60193 9.31772 4.65363C9.42111 4.80873 9.55036 4.83458 9.73131 4.80873C9.8864 4.78288 10.0415 4.78288 10.2224 4.78288C10.3517 4.78288 10.4551 4.83458 10.5068 4.96382C10.6619 5.35156 10.817 5.71346 10.9721 6.1012C11.0238 6.23044 10.9979 6.33384 10.8945 6.41139C10.7394 6.56648 10.5585 6.69573 10.4034 6.85083C10.3775 6.87668 10.3517 6.92838 10.3517 6.95423C10.3258 7.08347 10.3775 7.18687 10.5068 7.26442C10.636 7.36782 10.7653 7.47121 10.8945 7.60046C11.0238 7.70386 11.0496 7.80725 10.9979 7.96235C10.8428 8.32424 10.7136 8.68613 10.5585 9.04802C10.4292 9.22897 10.3517 9.28067 10.1707 9.25482ZM6.13825 3.72306C5.87975 3.82645 5.64711 3.904 5.41446 4.0074C5.36276 4.03325 5.33692 4.0591 5.36276 4.1108C5.36276 4.29174 5.38861 4.47269 5.38861 4.67948C5.38861 4.80873 5.36276 4.88628 5.28522 4.96382C5.18182 5.06722 5.07842 5.14477 5.00087 5.24817C4.92333 5.35156 4.81993 5.37741 4.71653 5.37741C4.50974 5.35156 4.32879 5.35156 4.122 5.32572C4.0703 5.32572 4.04445 5.32572 4.0186 5.37741C3.94105 5.63591 3.83765 5.86855 3.73426 6.1012C3.70841 6.1529 3.73425 6.17874 3.7601 6.20459C3.9152 6.33384 4.0703 6.46309 4.22539 6.59233C4.30294 6.66988 4.35464 6.74743 4.32879 6.85083C4.32879 6.98007 4.32879 7.08347 4.32879 7.21272C4.32879 7.31612 4.30294 7.41951 4.22539 7.49706C4.0703 7.62631 3.94105 7.75556 3.78595 7.8848C3.73426 7.91065 3.73425 7.96235 3.7601 7.9882C3.8635 8.22084 3.9669 8.45349 4.04445 8.68613C4.0703 8.73783 4.09615 8.76368 4.14784 8.73783C4.32879 8.71198 4.53559 8.71198 4.71653 8.68613C4.84578 8.68613 4.92333 8.71198 5.00087 8.78953C5.10427 8.89293 5.20767 8.99632 5.31107 9.09972C5.38861 9.17727 5.41446 9.25482 5.41446 9.35822C5.38861 9.56501 5.38861 9.77181 5.38861 9.95275C5.38861 10.0044 5.38861 10.0303 5.44031 10.0303C5.67296 10.1337 5.93145 10.2371 6.16409 10.3146C6.21579 10.3405 6.21579 10.3146 6.26749 10.2888C6.39674 10.1337 6.52599 9.9786 6.65523 9.8235C6.73278 9.74596 6.81033 9.72011 6.88788 9.72011C7.01712 9.72011 7.14637 9.72011 7.27562 9.72011C7.40486 9.72011 7.48241 9.74596 7.55996 9.84935C7.68921 10.0044 7.81845 10.1337 7.92185 10.2888C7.9477 10.3146 7.97355 10.3405 8.02525 10.3146C8.25789 10.2112 8.49054 10.1078 8.72318 10.0303C8.77488 10.0044 8.80073 9.9786 8.77488 9.9269C8.74903 9.74596 8.74903 9.53916 8.72318 9.35822C8.72318 9.25482 8.74903 9.17727 8.82658 9.09972C8.92998 8.99632 9.03337 8.89293 9.13677 8.78953C9.21432 8.71198 9.29187 8.68613 9.39527 8.68613C9.60206 8.71198 9.80885 8.71198 9.9898 8.71198C10.0415 8.71198 10.0673 8.71198 10.0673 8.66028C10.1707 8.42764 10.2741 8.16915 10.3517 7.9365C10.3775 7.8848 10.3517 7.8848 10.3258 7.8331C10.1707 7.70386 10.0156 7.57461 9.86055 7.44536C9.78301 7.36782 9.73131 7.29027 9.75716 7.16102C9.75716 7.03177 9.75716 6.90253 9.75716 6.79913C9.75716 6.69573 9.78301 6.59233 9.86055 6.54064C10.0156 6.41139 10.1449 6.28214 10.3 6.15289C10.3517 6.12705 10.3517 6.1012 10.3258 6.0495C10.2224 5.81685 10.119 5.58421 10.0415 5.35157C10.0156 5.29987 9.9898 5.27402 9.9381 5.29987C9.75716 5.32572 9.55036 5.32572 9.36942 5.35157C9.26602 5.35157 9.16262 5.32572 9.08507 5.24817C9.05922 5.14477 8.95583 5.04137 8.85243 4.93798C8.77488 4.86043 8.74903 4.78288 8.74903 4.67948C8.77488 4.49854 8.77488 4.31759 8.77488 4.1108C8.80073 4.03325 8.74903 3.98155 8.67148 3.9557C8.43884 3.87815 8.23204 3.77475 7.9994 3.69721C7.9477 3.67136 7.92185 3.67136 7.896 3.72306C7.76676 3.87815 7.63751 4.03325 7.50826 4.18834C7.43071 4.26589 7.35317 4.29174 7.24977 4.29174C7.12052 4.29174 7.01712 4.29174 6.88788 4.29174C6.75863 4.29174 6.68108 4.26589 6.60353 4.16249" fill="#272727"/>
<path d="M7.06866 9.22889C5.85374 9.22889 4.87146 8.24662 4.87146 7.05755C4.87146 5.84263 5.85374 4.86035 7.06866 4.86035C8.28358 4.86035 9.26585 5.84263 9.26585 7.05755C9.26585 8.24662 8.28358 9.22889 7.06866 9.22889ZM5.38845 7.0317C5.38845 7.96228 6.13808 8.71191 7.06866 8.71191C7.99923 8.71191 8.74886 7.96228 8.74886 7.0317C8.74886 6.10112 7.99923 5.35149 7.06866 5.35149C6.13808 5.35149 5.38845 6.10112 5.38845 7.0317Z" fill="#272727"/>
</g>
</svg>
