<svg width="15" height="15" viewBox="0 0 15 15" fill="none" xmlns="http://www.w3.org/2000/svg">
<rect x="14.0798" width="14.0488" height="14.028" rx="2" transform="rotate(90 14.0798 0)" fill="#C4C4C4" fill-opacity="0.3"/>
<g opacity="0.6">
<path d="M6.93322 5.4C7.35694 5.4 7.76331 5.56857 8.06292 5.86863C8.36254 6.16869 8.53086 6.57565 8.53086 7C8.53086 7.42435 8.36254 7.83131 8.06292 8.13137C7.76331 8.43143 7.35694 8.6 6.93322 8.6C6.5095 8.6 6.10313 8.43143 5.80352 8.13137C5.5039 7.83131 5.33558 7.42435 5.33558 7C5.33558 6.57565 5.5039 6.16869 5.80352 5.86863C6.10313 5.56857 6.5095 5.4 6.93322 5.4ZM6.93322 6.2C6.72136 6.2 6.51818 6.28429 6.36837 6.43431C6.21856 6.58434 6.1344 6.78783 6.1344 7C6.1344 7.21217 6.21856 7.41566 6.36837 7.56569C6.51818 7.71571 6.72136 7.8 6.93322 7.8C7.14508 7.8 7.34826 7.71571 7.49807 7.56569C7.64788 7.41566 7.73204 7.21217 7.73204 7C7.73204 6.78783 7.64788 6.58434 7.49807 6.43431C7.34826 6.28429 7.14508 6.2 6.93322 6.2ZM6.1344 11C6.03455 11 5.95067 10.928 5.93469 10.832L5.78691 9.772C5.53528 9.672 5.3196 9.536 5.11191 9.376L4.11738 9.78C4.02951 9.812 3.92167 9.78 3.87374 9.692L3.07492 8.308C3.05047 8.26679 3.04185 8.21806 3.05068 8.17095C3.0595 8.12383 3.08515 8.08155 3.12285 8.052L3.9656 7.388L3.93764 7L3.9656 6.6L3.12285 5.948C3.08515 5.91845 3.0595 5.87617 3.05068 5.82905C3.04185 5.78194 3.05047 5.73321 3.07492 5.692L3.87374 4.308C3.92167 4.22 4.02951 4.184 4.11738 4.22L5.11191 4.62C5.3196 4.464 5.53528 4.328 5.78691 4.228L5.93469 3.168C5.95067 3.072 6.03455 3 6.1344 3H7.73204C7.83189 3 7.91577 3.072 7.93175 3.168L8.07953 4.228C8.33116 4.328 8.54684 4.464 8.75453 4.62L9.74906 4.22C9.83693 4.184 9.94477 4.22 9.9927 4.308L10.7915 5.692C10.8434 5.78 10.8195 5.888 10.7436 5.948L9.90084 6.6L9.9288 7L9.90084 7.4L10.7436 8.052C10.8195 8.112 10.8434 8.22 10.7915 8.308L9.9927 9.692C9.94477 9.78 9.83693 9.816 9.74906 9.78L8.75453 9.38C8.54684 9.536 8.33116 9.672 8.07953 9.772L7.93175 10.832C7.91577 10.928 7.83189 11 7.73204 11H6.1344ZM6.63366 3.8L6.48588 4.844C6.00659 4.944 5.58321 5.2 5.27567 5.556L4.31309 5.14L4.01353 5.66L4.85629 6.28C4.69652 6.74667 4.69652 7.25333 4.85629 7.72L4.00954 8.344L4.3091 8.864L5.27966 8.448C5.58721 8.8 6.00659 9.056 6.48189 9.152L6.62967 10.2H7.23677L7.38455 9.156C7.85985 9.056 8.27923 8.8 8.58678 8.448L9.55734 8.864L9.8569 8.344L9.01015 7.724C9.16992 7.256 9.16992 6.748 9.01015 6.28L9.85291 5.66L9.55335 5.14L8.59077 5.556C8.27692 5.19213 7.8512 4.94307 7.38056 4.848L7.23278 3.8H6.63366Z" fill="#272727"/>
</g>
</svg>
