<svg width="13" height="13" viewBox="0 0 13 13" fill="none" xmlns="http://www.w3.org/2000/svg">
<path d="M7.63818 11.2061C7.63818 7.89248 7.63818 4.57884 7.63818 1.26521C7.57506 1.26521 7.57506 1.32545 7.51193 1.32545C6.62817 2.04843 5.68129 2.83165 4.79753 3.55463C4.41878 3.79562 4.04003 3.97636 3.59815 3.97636C2.77752 3.97636 1.95689 3.97636 1.13626 3.97636C1.07313 3.97636 1.01001 3.97636 0.946882 3.97636C0.946882 5.48256 0.946882 6.98876 0.946882 8.55521C1.01001 8.55521 1.07313 8.55521 1.07313 8.55521C1.45189 8.55521 1.83064 8.55521 2.20939 8.55521C2.58814 8.55521 2.77752 8.85645 2.65127 9.15769C2.58814 9.33843 2.39877 9.45893 2.20939 9.45893C1.76751 9.45893 1.32563 9.45893 0.820631 9.45893C0.378753 9.39868 0 9.03719 0 8.49496C0 6.98876 0 5.48256 0 3.97636C0 3.37388 0.378753 3.07265 1.01001 3.07265C1.83064 3.07265 2.65127 3.07265 3.53503 3.07265C3.85065 3.07265 4.10316 3.0124 4.29253 2.77141C5.30254 1.92793 6.37567 1.08446 7.38568 0.240992C7.57506 0.120496 7.70131 0 7.95381 0C8.26944 0 8.52194 0.240992 8.52194 0.542232C8.52194 0.602479 8.52194 0.722975 8.52194 0.783223C8.52194 4.45835 8.52194 8.07323 8.52194 11.7483C8.52194 11.9291 8.52194 12.0496 8.39569 12.2303C8.20631 12.5316 7.82756 12.6521 7.4488 12.4111C7.13318 12.1701 6.75442 11.8688 6.4388 11.6279C5.55504 10.9049 4.60816 10.1819 3.7244 9.45893C3.53503 9.33843 3.4719 9.15769 3.53503 8.97694C3.59815 8.7962 3.7244 8.6757 3.91378 8.6757C4.10315 8.61546 4.22941 8.73595 4.35566 8.7962C5.05004 9.33843 5.68129 9.88066 6.37567 10.4229C6.88068 10.6036 7.1963 10.9049 7.63818 11.2061Z" fill="white"/>
<path d="M11.1732 5.36206C11.4888 5.36206 11.8045 5.36206 12.1201 5.36206C12.4988 5.36206 12.6882 5.7838 12.4988 6.02479C12.3726 6.14528 12.2463 6.26578 12.057 6.26578C11.4257 6.26578 10.7945 6.26578 10.1632 6.26578C9.91071 6.26578 9.6582 6.08504 9.6582 5.84404C9.6582 5.60305 9.84758 5.42231 10.1001 5.42231C10.542 5.36206 10.8576 5.36206 11.1732 5.36206Z" fill="white"/>
<path d="M11.9938 9.09735C11.9938 9.33834 11.9307 9.45884 11.7413 9.57934C11.552 9.63958 11.4257 9.63958 11.2363 9.57934L11.1732 9.51909C10.7313 9.09735 10.2895 8.67562 9.84758 8.25388C9.59508 8.01289 9.72133 7.59115 10.1001 7.47066C10.2895 7.41041 10.4157 7.47066 10.542 7.59115C10.9838 8.01289 11.4257 8.43462 11.8676 8.85636C11.9307 8.91661 11.9938 9.0371 11.9938 9.09735Z" fill="white"/>
<path d="M12.057 2.71113C11.9938 2.77138 11.9307 2.95212 11.8676 3.01237C11.4257 3.43411 10.9838 3.85584 10.5419 4.27758C10.3526 4.45832 10.0369 4.45832 9.84757 4.27758C9.65819 4.09683 9.65819 3.79559 9.84757 3.61485C10.2894 3.19312 10.7313 2.77138 11.1732 2.34964C11.3626 2.1689 11.552 2.1689 11.7413 2.22915C11.9307 2.34964 11.9938 2.53039 12.057 2.71113Z" fill="white"/>
</svg>
