<svg width="19" height="17" viewBox="0 0 19 17" fill="none" xmlns="http://www.w3.org/2000/svg">
<path fill-rule="evenodd" clip-rule="evenodd" d="M14.5184 4.05067V4.05067C14.1797 4.05067 13.8728 3.85545 13.7284 3.55036C13.4678 2.99829 13.1364 2.29277 12.9403 1.90868C12.6506 1.33755 12.1812 1.00522 11.531 1.00068C11.5201 0.999773 7.27794 0.999773 7.26704 1.00068C6.61691 1.00522 6.14838 1.33755 5.85782 1.90868C5.6626 2.29277 5.33118 2.99829 5.07058 3.55036C4.92621 3.85545 4.6184 4.05067 4.28062 4.05067V4.05067C2.46824 4.05067 1 5.51891 1 7.33038V12.7203C1 14.5308 2.46824 16 4.28062 16H14.5184C16.3298 16 17.7981 14.5308 17.7981 12.7203V7.33038C17.7981 5.51891 16.3298 4.05067 14.5184 4.05067Z" stroke="#414346" stroke-linecap="round" stroke-linejoin="round"/>
<path opacity="0.4" fill-rule="evenodd" clip-rule="evenodd" d="M6.513 9.70226C6.51209 11.294 7.81145 12.5961 9.40045 12.5952C10.9867 12.5933 12.2825 11.2967 12.2852 9.70861C12.2879 8.11416 10.9931 6.81481 9.40227 6.81299C7.80237 6.81117 6.50029 8.13232 6.513 9.70226Z" stroke="#414346" stroke-linecap="round" stroke-linejoin="round"/>
<path opacity="0.4" d="M13.8507 7.57815C13.763 7.56915 13.6764 7.54626 13.5793 7.5072C13.4714 7.45924 13.3779 7.39824 13.2876 7.30645C13.1252 7.13378 13.0312 6.90799 13.0312 6.67505C13.0312 6.55131 13.0565 6.42868 13.1059 6.31759C13.1554 6.20504 13.2141 6.11009 13.3202 6.00682C13.4008 5.93657 13.4835 5.88004 13.5964 5.83028C13.9314 5.69755 14.3298 5.77686 14.5788 6.02576C14.6534 6.09928 14.7163 6.18801 14.7511 6.26284L14.7718 6.31589C14.822 6.42868 14.8473 6.55131 14.8473 6.67505C14.8473 6.9127 14.7545 7.13249 14.5823 7.31545C14.4334 7.4653 14.2379 7.55746 14.0293 7.57815L13.9393 7.58261L13.8507 7.57815Z" fill="#414346"/>
</svg>
