<svg width="15" height="15" viewBox="0 0 15 15" fill="none" xmlns="http://www.w3.org/2000/svg">
<path opacity="0.4" fill-rule="evenodd" clip-rule="evenodd" d="M6.34435 5.27807C6.05149 4.98515 5.57661 4.9851 5.28369 5.27796C4.99077 5.57083 4.99072 6.0457 5.28358 6.33862L6.43835 7.49364L5.28515 8.64684C4.99225 8.93974 4.99225 9.41461 5.28515 9.7075C5.57804 10.0004 6.05291 10.0004 6.34581 9.7075L7.4989 8.55441L8.65374 9.70949C8.9466 10.0024 9.42148 10.0025 9.7144 9.7096C10.0073 9.41674 10.0074 8.94186 9.71451 8.64894L8.55956 7.49375L9.71316 6.34015C10.006 6.04726 10.006 5.57239 9.71316 5.27949C9.42026 4.9866 8.94539 4.9866 8.6525 5.27949L7.49901 6.43298L6.34435 5.27807Z" fill="#FA6342"/>
<path fill-rule="evenodd" clip-rule="evenodd" d="M10.5455 1H4.45378C2.33092 1 1 2.50308 1 4.63016V10.3698C1 12.4969 2.32459 14 4.45378 14H10.5448C12.6747 14 14 12.4969 14 10.3698V4.63016C14 2.50308 12.6747 1 10.5455 1Z" stroke="#FA6342" stroke-width="0.5" stroke-linecap="round" stroke-linejoin="round"/>
</svg>
