<svg width="20" height="20" viewBox="0 0 20 20" fill="none" xmlns="http://www.w3.org/2000/svg">
<path opacity="0.4" style="fill: #FFFFFF;" fill-rule="evenodd" clip-rule="evenodd" d="M8.19591 7.1274C7.90305 6.83448 7.42818 6.83443 7.13525 7.12729C6.84233 7.42015 6.84228 7.89503 7.13514 8.18795L8.93798 9.99117L7.13728 11.7919C6.84439 12.0848 6.84439 12.5596 7.13728 12.8525C7.43018 13.1454 7.90505 13.1454 8.19794 12.8525L9.99853 11.0519L11.8015 12.8553C12.0944 13.1482 12.5693 13.1483 12.8622 12.8554C13.1551 12.5626 13.1552 12.0877 12.8623 11.7948L11.0592 9.99128L12.8604 8.19004C13.1533 7.89715 13.1533 7.42227 12.8604 7.12938C12.5675 6.83649 12.0927 6.83649 11.7998 7.12938L9.99864 8.93051L8.19591 7.1274Z" fill="#FFFFFF"/>
<path fill-rule="evenodd" clip-rule="evenodd" d="M14.2169 1H5.78216C2.84281 1 1 3.08119 1 6.02638V13.9736C1 16.9188 2.83405 19 5.78216 19H14.2159C17.165 19 19 16.9188 19 13.9736V6.02638C19 3.08119 17.165 1 14.2169 1Z" stroke="#FFFFFF" stroke-linecap="round" stroke-linejoin="round"/>
</svg>
