<svg width="24" height="24" viewBox="0 0 24 24" fill="none" xmlns="http://www.w3.org/2000/svg">
<path d="M15.2312 12.3602V16.0232C15.2312 16.3472 15.1952 16.6532 15.1142 16.9323C14.7812 18.2553 13.6832 19.0833 12.1712 19.0833H9.72313L7.00508 20.8923C6.60007 21.1713 6.06006 20.8743 6.06006 20.3883V19.0833C5.14204 19.0833 4.37703 18.7773 3.84602 18.2463C3.30601 17.7063 3 16.9413 3 16.0232V12.3602C3 10.6501 4.06202 9.47111 5.70005 9.31811C5.81705 9.30911 5.93406 9.30011 6.06006 9.30011H12.1712C14.0072 9.30011 15.2312 10.5241 15.2312 12.3602Z" fill="#414346"/>
<path d="M17.1753 15.2402C18.3183 15.2402 19.2813 14.8622 19.9473 14.1872C20.6223 13.5212 21.0003 12.5582 21.0003 11.4152V6.82507C21.0003 4.71003 19.2903 3 17.1753 3H9.52512C7.41008 3 5.70005 4.71003 5.70005 6.82507V7.50009C5.70005 7.75209 5.89805 7.95009 6.15006 7.95009H12.1712C14.6102 7.95009 16.5813 9.92113 16.5813 12.3602V14.7902C16.5813 15.0422 16.7793 15.2402 17.0313 15.2402H17.1753Z" fill="#414346"/>
</svg>
