<svg width="18" height="18" viewBox="0 0 18 18" fill="none" xmlns="http://www.w3.org/2000/svg">
<rect y="6.10352e-05" width="18.0007" height="18" rx="2" fill="white" fill-opacity="0.5"/>
<path fill-rule="evenodd" clip-rule="evenodd" d="M7.1964 6.12744C6.90354 5.83452 6.42866 5.83447 6.13574 6.12733C5.84282 6.42019 5.84277 6.89507 6.13563 7.18799L7.93847 8.99121L6.13777 10.7919C5.84488 11.0848 5.84488 11.5597 6.13777 11.8526C6.43067 12.1455 6.90554 12.1455 7.19843 11.8526L8.99902 10.052L10.802 11.8553C11.0949 12.1483 11.5697 12.1483 11.8627 11.8555C12.1556 11.5626 12.1556 11.0877 11.8628 10.7948L10.0597 8.99132L11.8609 7.19008C12.1538 6.89718 12.1538 6.42231 11.8609 6.12942C11.568 5.83652 11.0932 5.83652 10.8003 6.12942L8.99913 7.93055L7.1964 6.12744Z" fill="white"/>
</svg>
