<svg width="14" height="15" viewBox="0 0 14 15" fill="none" xmlns="http://www.w3.org/2000/svg">
<path d="M13.1266 2.77545C12.0039 2.66388 10.8812 2.5802 9.75145 2.51743V2.51046L9.59803 1.60391C9.49343 0.962343 9.34001 0 7.70821 0H5.88115C4.25633 0 4.10291 0.920502 3.99134 1.59693L3.84489 2.48954C3.19636 2.53138 2.54782 2.57322 1.89929 2.63598L0.476691 2.77545C0.183804 2.80335 -0.0254006 3.06137 0.00249339 3.34728C0.0303874 3.63319 0.281433 3.8424 0.57432 3.8145L1.99691 3.67503C5.65103 3.31241 9.33304 3.45188 13.029 3.82148C13.0499 3.82148 13.0639 3.82148 13.0848 3.82148C13.3498 3.82148 13.5799 3.61925 13.6078 3.34728C13.6287 3.06137 13.4195 2.80335 13.1266 2.77545Z" fill="#414346"/>
<path d="M11.8437 4.80474C11.6763 4.63041 11.4462 4.53278 11.2091 4.53278H2.39458C2.15748 4.53278 1.92038 4.63041 1.75999 4.80474C1.5996 4.97908 1.50894 5.21618 1.52289 5.46025L1.95525 12.6151C2.03196 13.675 2.12958 15 4.56334 15H9.04032C11.4741 15 11.5717 13.682 11.6484 12.6151L12.0808 5.46723C12.0947 5.21618 12.0041 4.97908 11.8437 4.80474ZM7.95943 11.5063H5.63726C5.35134 11.5063 5.11424 11.2692 5.11424 10.9833C5.11424 10.6974 5.35134 10.4603 5.63726 10.4603H7.95943C8.24534 10.4603 8.48244 10.6974 8.48244 10.9833C8.48244 11.2692 8.24534 11.5063 7.95943 11.5063ZM8.5452 8.71688H5.05845C4.77254 8.71688 4.53544 8.47978 4.53544 8.19386C4.53544 7.90795 4.77254 7.67085 5.05845 7.67085H8.5452C8.83112 7.67085 9.06822 7.90795 9.06822 8.19386C9.06822 8.47978 8.83112 8.71688 8.5452 8.71688Z" fill="#414346"/>
</svg>
