<svg width="17" height="18" viewBox="0 0 17 18" fill="none" xmlns="http://www.w3.org/2000/svg">
<path d="M15.7519 3.33054C14.4047 3.19665 13.0574 3.09623 11.7017 3.02092V3.01255L11.5176 1.92469C11.3921 1.15481 11.208 0 9.24985 0H7.05739C5.10759 0 4.92349 1.1046 4.7896 1.91632L4.61387 2.98745C3.83563 3.03766 3.05739 3.08787 2.27914 3.16318L0.57203 3.33054C0.220565 3.36402 -0.0304807 3.67364 0.00299207 4.01674C0.0364649 4.35983 0.33772 4.61088 0.689184 4.57741L2.3963 4.41004C6.78123 3.9749 11.1996 4.14226 15.6348 4.58577C15.6599 4.58577 15.6766 4.58577 15.7017 4.58577C16.0197 4.58577 16.2959 4.3431 16.3294 4.01674C16.3545 3.67364 16.1034 3.36402 15.7519 3.33054Z" fill="#ED3237"/>
<path d="M14.2123 5.76557C14.0115 5.55636 13.7353 5.43921 13.4508 5.43921H2.87339C2.58888 5.43921 2.30436 5.55636 2.11189 5.76557C1.91942 5.97477 1.81063 6.25929 1.82737 6.55218L2.3462 15.138C2.43825 16.4099 2.5554 17.9999 5.47591 17.9999H10.8483C13.7688 17.9999 13.8859 16.4183 13.978 15.138L14.4968 6.56055C14.5136 6.25929 14.4048 5.97477 14.2123 5.76557ZM9.55122 13.8074H6.76461C6.42151 13.8074 6.13699 13.5229 6.13699 13.1798C6.13699 12.8367 6.42151 12.5522 6.76461 12.5522H9.55122C9.89431 12.5522 10.1788 12.8367 10.1788 13.1798C10.1788 13.5229 9.89431 13.8074 9.55122 13.8074ZM10.2541 10.4601H6.07005C5.72695 10.4601 5.44243 10.1756 5.44243 9.83251C5.44243 9.48942 5.72695 9.2049 6.07005 9.2049H10.2541C10.5972 9.2049 10.8818 9.48942 10.8818 9.83251C10.8818 10.1756 10.5972 10.4601 10.2541 10.4601Z" fill="#ED3237"/>
</svg>
