<svg width="24" height="24" viewBox="0 0 24 24" fill="none" xmlns="http://www.w3.org/2000/svg">
<path d="M19.068 19H5.56272C5.2551 19 5 18.7449 5 18.4373C5 18.1297 5.2551 17.8746 5.56272 17.8746H19.068C19.3756 17.8746 19.6307 18.1297 19.6307 18.4373C19.6307 18.7449 19.3756 19 19.068 19Z" fill="#414346"/>
<path d="M17.5829 5.10579C16.1274 3.65022 14.7018 3.61271 13.2087 5.10579L12.3009 6.01364C12.2259 6.08867 12.1958 6.20872 12.2259 6.31376C12.7961 8.30204 14.3867 9.89266 16.375 10.4629C16.405 10.4704 16.435 10.4779 16.465 10.4779C16.5475 10.4779 16.6226 10.4479 16.6826 10.3879L17.5829 9.48C18.3257 8.74471 18.6859 8.03193 18.6859 7.31165C18.6934 6.56886 18.3332 5.84858 17.5829 5.10579Z" fill="#414346"/>
<path d="M15.0243 11.145C14.8067 11.04 14.5966 10.9349 14.394 10.8149C14.229 10.7174 14.0714 10.6123 13.9138 10.4998C13.7863 10.4172 13.6362 10.2972 13.4937 10.1771C13.4787 10.1696 13.4262 10.1246 13.3661 10.0646C13.1185 9.85451 12.8409 9.58441 12.5933 9.28429C12.5708 9.26928 12.5333 9.21676 12.4808 9.14924C12.4058 9.0592 12.2782 8.90914 12.1657 8.73658C12.0756 8.62403 11.9706 8.45897 11.873 8.2939C11.753 8.09132 11.648 7.88874 11.5429 7.67866C11.4052 7.38354 11.0179 7.29587 10.7876 7.52616L6.56848 11.7453C6.47094 11.8428 6.3809 12.0304 6.35839 12.1579L5.95323 15.0315C5.87821 15.5417 6.02076 16.0219 6.33588 16.3445C6.60599 16.6072 6.98114 16.7497 7.38629 16.7497C7.47633 16.7497 7.56637 16.7422 7.6564 16.7272L10.5375 16.322C10.6726 16.2995 10.8602 16.2095 10.9502 16.112L15.1762 11.8859C15.4019 11.6602 15.3171 11.2719 15.0243 11.145Z" fill="#414346"/>
</svg>
