<svg width="24" height="24" viewBox="0 0 24 24" fill="none" xmlns="http://www.w3.org/2000/svg">
<path d="M22.9089 15.2727C22.3064 15.2727 21.818 15.7611 21.818 16.3636V20.2752L14.9531 13.4103C14.5271 12.9843 13.8364 12.9843 13.4103 13.4103C12.9843 13.8364 12.9843 14.5271 13.4103 14.9531L20.2751 21.8178L16.3634 21.8181C15.7609 21.8181 15.2725 22.3066 15.2725 22.9091C15.2726 23.5116 15.761 23.9999 16.3635 23.9999L22.909 23.9995C23.5114 23.9995 23.9998 23.5111 23.9998 22.9086V16.3636C23.9998 15.7611 23.5114 15.2727 22.9089 15.2727Z" fill="#414346"/>
<path d="M1.09091 8.72727C1.69338 8.72727 2.18182 8.23884 2.18182 7.63636V3.72473L9.04669 10.5896C9.25971 10.8026 9.53891 10.9092 9.81804 10.9092C10.0972 10.9092 10.3764 10.8027 10.5895 10.5896C11.0155 10.1636 11.0155 9.47287 10.5895 9.04684L3.72473 2.18211L7.63644 2.18182C8.23891 2.18182 8.72735 1.69331 8.72727 1.09084C8.7272 0.488364 8.23876 0 7.63629 0L1.09084 0.000436364C0.488364 0.000436364 0 0.488873 0 1.09135V7.63636C0 8.23884 0.488436 8.72727 1.09091 8.72727Z" fill="#414346"/>
<path d="M9.04684 13.4103L2.18211 20.2751L2.18182 16.3634C2.18182 15.7609 1.69331 15.2725 1.09084 15.2725C0.488364 15.2725 0 15.761 0 16.3635L0.000436364 22.909C0.000436364 23.5114 0.488873 23.9998 1.09135 23.9998H7.63636C8.23884 23.9998 8.72727 23.5114 8.72727 22.9089C8.72727 22.3064 8.23884 21.818 7.63636 21.818H3.72473L10.5896 14.9531C11.0156 14.5271 11.0156 13.8364 10.5896 13.4103C10.1636 12.9843 9.4728 12.9843 9.04684 13.4103Z" fill="#414346"/>
<path d="M14.1818 10.9089C14.461 10.9089 14.7402 10.8024 14.9531 10.5893L21.8178 3.72458L21.8181 7.63644C21.8182 8.23891 22.3066 8.72735 22.9091 8.72727C23.5116 8.7272 24 8.23876 23.9999 7.63629L23.9995 1.09084C23.9994 0.488364 23.5111 0 22.9086 0H16.3636C15.7611 0 15.2727 0.488436 15.2727 1.09091C15.2727 1.69338 15.7611 2.18182 16.3636 2.18182H20.2751L13.4103 9.04662C12.9843 9.47266 12.9843 10.1633 13.4103 10.5894C13.6234 10.8024 13.9026 10.9089 14.1818 10.9089Z" fill="#414346"/>
</svg>
