<svg width="15" height="13" viewBox="0 0 15 13" fill="none" xmlns="http://www.w3.org/2000/svg">
<path fill-rule="evenodd" clip-rule="evenodd" d="M11.7832 13C13.2457 13 14.4297 11.8152 14.4297 10.3535V8.24756C13.4625 8.24756 12.6826 7.46757 12.6826 6.50117C12.6826 5.53399 13.4625 4.75479 14.4297 4.75479L14.4282 2.64649C14.4282 1.1848 13.2441 0 11.7825 0H2.64727C1.18558 0 0.000787614 1.1848 0.000787614 2.64649L7.62939e-06 4.82264C0.966408 4.82264 1.74639 5.53399 1.74639 6.50117C1.74639 7.46757 0.966408 8.24756 7.62939e-06 8.24756V10.3535C7.62939e-06 11.8152 1.18402 13 2.64571 13H11.7832Z" fill="#0498C1"/>
<path fill-rule="evenodd" clip-rule="evenodd" d="M7.21444 7.88132L8.57162 8.59501C8.69875 8.66131 8.84773 8.55367 8.82355 8.41249L8.56382 6.9001L9.66282 5.83075C9.76577 5.73013 9.70883 5.55619 9.56688 5.53513L8.04903 5.3144L7.36966 3.9385C7.30648 3.80981 7.12319 3.80981 7.05923 3.9385L6.37986 5.3144L4.86279 5.53513C4.72083 5.55619 4.66389 5.73013 4.76685 5.83075L5.86507 6.9001L5.60534 8.41249C5.58116 8.55367 5.73013 8.66131 5.85727 8.59501L7.21444 7.88132Z" fill="white"/>
</svg>
