<svg width="15" height="13" viewBox="0 0 15 13" fill="none" xmlns="http://www.w3.org/2000/svg">
<path opacity="0.6" fill-rule="evenodd" clip-rule="evenodd" d="M11.7832 13C13.2457 13 14.4297 11.8152 14.4297 10.3535V8.24756C13.4625 8.24756 12.6825 7.46757 12.6825 6.50117C12.6825 5.53399 13.4625 4.75479 14.4297 4.75479L14.4282 2.64649C14.4282 1.1848 13.2441 0 11.7824 0H2.64727C1.18558 0 0.000779984 1.1848 0.000779984 2.64649L0 4.82264C0.966401 4.82264 1.74639 5.53399 1.74639 6.50117C1.74639 7.46757 0.966401 8.24756 0 8.24756V10.3535C0 11.8152 1.18402 13 2.64571 13H11.7832Z" fill="#414346" fill-opacity="0.6"/>
<path fill-rule="evenodd" clip-rule="evenodd" d="M7.21438 7.88135L8.57155 8.59504C8.69869 8.66134 8.84767 8.5537 8.82349 8.41252L8.56375 6.90013L9.66275 5.83078C9.76571 5.73016 9.70877 5.55622 9.56681 5.53516L8.04896 5.31443L7.3696 3.93853C7.30642 3.80984 7.12312 3.80984 7.05916 3.93853L6.3798 5.31443L4.86273 5.53516C4.72077 5.55622 4.66383 5.73016 4.76679 5.83078L5.86501 6.90013L5.60527 8.41252C5.58109 8.5537 5.73007 8.66134 5.85721 8.59504L7.21438 7.88135Z" fill="white"/>
</svg>
