<svg width="15" height="15" viewBox="0 0 15 15" fill="none" xmlns="http://www.w3.org/2000/svg">
<path d="M7.5 0C6.01664 0 4.56659 0.439867 3.33323 1.26398C2.09986 2.08809 1.13856 3.25943 0.570907 4.62987C0.00324947 6.00032 -0.145275 7.50832 0.144114 8.96317C0.433503 10.418 1.14781 11.7544 2.1967 12.8033C3.2456 13.8522 4.58197 14.5665 6.03683 14.8559C7.49168 15.1453 8.99968 14.9968 10.3701 14.4291C11.7406 13.8614 12.9119 12.9001 13.736 11.6668C14.5601 10.4334 15 8.98336 15 7.5C14.9978 5.51156 14.2069 3.60521 12.8008 2.19917C11.3948 0.793133 9.48844 0.00223808 7.5 0ZM7.5 14.1176C6.19116 14.1176 4.9117 13.7295 3.82344 13.0024C2.73517 12.2752 1.88697 11.2417 1.38609 10.0325C0.885221 8.82324 0.754169 7.49266 1.00951 6.20896C1.26486 4.92526 1.89513 3.74611 2.82062 2.82062C3.74611 1.89512 4.92527 1.26485 6.20896 1.00951C7.49266 0.754166 8.82325 0.885217 10.0325 1.38609C11.2417 1.88696 12.2752 2.73517 13.0024 3.82343C13.7295 4.9117 14.1176 6.19115 14.1176 7.5C14.1157 9.2545 13.4178 10.9366 12.1772 12.1772C10.9366 13.4178 9.2545 14.1157 7.5 14.1176ZM10.939 9.48529C10.5902 10.0886 10.0888 10.5895 9.48517 10.9378C8.88153 11.2861 8.19689 11.4694 7.49999 11.4694C6.80308 11.4694 6.11844 11.2861 5.51479 10.9379C4.91114 10.5896 4.40973 10.0887 4.06088 9.48537C4.03119 9.43519 4.01174 9.37962 4.00366 9.32188C3.99557 9.26414 3.99901 9.20537 4.01377 9.14897C4.02854 9.09256 4.05434 9.03964 4.08968 8.99327C4.12502 8.9469 4.16921 8.90799 4.21968 8.8788C4.27015 8.84961 4.3259 8.83071 4.38372 8.8232C4.44154 8.81568 4.50027 8.81971 4.55653 8.83503C4.61278 8.85036 4.66544 8.87668 4.71146 8.91248C4.75748 8.94828 4.79594 8.99284 4.82463 9.0436C5.16168 9.62577 5.67877 10.0827 6.29802 10.3454C6.8641 10.5849 7.48881 10.6498 8.09203 10.5319C8.69526 10.4139 9.24949 10.1184 9.68368 9.68338C9.87474 9.49242 10.04 9.27731 10.1754 9.04353C10.2037 8.99218 10.2421 8.947 10.2881 8.91065C10.3342 8.87429 10.387 8.84748 10.4435 8.83179C10.5 8.8161 10.5591 8.81184 10.6173 8.81927C10.6755 8.82669 10.7317 8.84564 10.7824 8.87502C10.8332 8.9044 10.8776 8.94361 10.9131 8.99036C10.9485 9.03711 10.9743 9.09046 10.9889 9.14729C11.0034 9.20411 11.0065 9.26328 10.998 9.32131C10.9894 9.37935 10.9693 9.4351 10.939 9.48529H10.939ZM4.11765 6.02941C4.11765 5.88398 4.16077 5.74182 4.24157 5.6209C4.32236 5.49998 4.4372 5.40574 4.57156 5.35009C4.70592 5.29443 4.85376 5.27987 4.99639 5.30824C5.13903 5.33662 5.27004 5.40665 5.37288 5.50948C5.47571 5.61231 5.54574 5.74333 5.57411 5.88596C5.60248 6.02859 5.58792 6.17644 5.53227 6.3108C5.47661 6.44515 5.38237 6.55999 5.26145 6.64078C5.14053 6.72158 4.99837 6.7647 4.85294 6.7647C4.658 6.76449 4.4711 6.68695 4.33325 6.54911C4.1954 6.41126 4.11786 6.22436 4.11765 6.02941ZM9.41177 6.02941C9.41177 5.88398 9.45489 5.74182 9.53569 5.6209C9.61648 5.49998 9.73132 5.40574 9.86568 5.35009C10 5.29443 10.1479 5.27987 10.2905 5.30824C10.4331 5.33662 10.5642 5.40665 10.667 5.50948C10.7698 5.61231 10.8399 5.74333 10.8682 5.88596C10.8966 6.02859 10.882 6.17644 10.8264 6.3108C10.7707 6.44515 10.6765 6.55999 10.5556 6.64078C10.4347 6.72158 10.2925 6.7647 10.1471 6.7647C9.95211 6.76449 9.76521 6.68695 9.62737 6.54911C9.48952 6.41126 9.41198 6.22436 9.41177 6.02941Z" fill="#414346"/>
</svg>
