<svg width="21" height="21" viewBox="0 0 21 21" fill="none" xmlns="http://www.w3.org/2000/svg">
<path opacity="0.4" fill-rule="evenodd" clip-rule="evenodd" d="M14.584 1H5.915C2.894 1 1 3.139 1 6.166V14.334C1 17.361 2.885 19.5 5.915 19.5H14.583C17.614 19.5 19.5 17.361 19.5 14.334V6.166C19.5 3.139 17.614 1 14.584 1Z" stroke="#414346" stroke-width="1.5" stroke-linecap="round" stroke-linejoin="round"/>
<path fill-rule="evenodd" clip-rule="evenodd" d="M8.94177 10.2504C8.94177 11.2724 8.11277 12.1024 7.08977 12.1024C6.06777 12.1024 5.23877 11.2724 5.23877 10.2504C5.23877 9.22844 6.06777 8.39844 7.08977 8.39844C8.11277 8.39844 8.94177 9.22844 8.94177 10.2504Z" stroke="#414346" stroke-width="1.5" stroke-linecap="round" stroke-linejoin="round"/>
<path d="M8.94189 10.25H15.2599V12.102" stroke="#414346" stroke-width="1.5" stroke-linecap="round" stroke-linejoin="round"/>
<path d="M12.4312 12.101V10.249" stroke="#414346" stroke-width="1.5" stroke-linecap="round" stroke-linejoin="round"/>
</svg>
