<svg width="15" height="15" viewBox="0 0 15 15" fill="none" xmlns="http://www.w3.org/2000/svg">
<path opacity="0.6" d="M10.6425 0H4.3575C1.6275 0 0 1.6275 0 4.3575V10.635C0 13.3725 1.6275 15 4.3575 15H10.635C13.365 15 14.9925 13.3725 14.9925 10.6425V4.3575C15 1.6275 13.3725 0 10.6425 0ZM5.9325 10.6425C5.9325 11.1225 5.5425 11.5125 5.055 11.5125C4.575 11.5125 4.185 11.1225 4.185 10.6425V8.1975C4.185 7.7175 4.575 7.3275 5.055 7.3275C5.5425 7.3275 5.9325 7.7175 5.9325 8.1975V10.6425ZM10.815 10.6425C10.815 11.1225 10.425 11.5125 9.945 11.5125C9.4575 11.5125 9.0675 11.1225 9.0675 10.6425V4.3575C9.0675 3.8775 9.4575 3.4875 9.945 3.4875C10.425 3.4875 10.815 3.8775 10.815 4.3575V10.6425Z" fill="#414346"/>
</svg>
