<svg width="24" height="24" viewBox="0 0 24 24" fill="none" xmlns="http://www.w3.org/2000/svg">
<path d="M9.79251 17.1688V9.54881C9.79251 9.24881 9.88251 8.95631 10.0475 8.70881L12.095 5.66381C12.4175 5.17631 13.22 4.83131 13.9025 5.08631C14.6375 5.33381 15.125 6.15881 14.9675 6.89381L14.5775 9.34631C14.5475 9.57131 14.6075 9.77381 14.735 9.93131C14.8625 10.0738 15.05 10.1638 15.2525 10.1638H18.335C18.9275 10.1638 19.4375 10.4038 19.7375 10.8238C20.0225 11.2288 20.075 11.7538 19.8875 12.2863L18.0425 17.9038C17.81 18.8338 16.7975 19.5913 15.7925 19.5913H12.8675C12.365 19.5913 11.66 19.4188 11.3375 19.0963L10.3775 18.3538C10.01 18.0763 9.79251 17.6338 9.79251 17.1688Z" fill="#414346"/>
<path d="M7.4075 8.0863H6.635C5.4725 8.0863 5 8.5363 5 9.6463V17.1913C5 18.3013 5.4725 18.7513 6.635 18.7513H7.4075C8.57 18.7513 9.0425 18.3013 9.0425 17.1913V9.6463C9.0425 8.5363 8.57 8.0863 7.4075 8.0863Z" fill="#414346"/>
</svg>
