<svg width="13" height="13" viewBox="0 0 13 13" fill="none" xmlns="http://www.w3.org/2000/svg">
<path d="M1.03257 11.3588H9.62594C9.99158 11.3611 10.3465 11.2354 10.6294 11.0037C10.9122 10.772 11.1051 10.4487 11.1749 10.0897L11.846 6.4756C11.8872 6.25439 11.879 6.02683 11.8221 5.80915C11.7651 5.59148 11.6608 5.38906 11.5166 5.21633C11.368 5.03776 11.1819 4.89415 10.9715 4.79572C10.7611 4.69729 10.5315 4.64646 10.2992 4.64685H7.83643V2.58163C7.83643 1.51752 6.74496 1.03271 5.73197 1.03271C5.59504 1.03271 5.46372 1.08711 5.36689 1.18394C5.27006 1.28076 5.21567 1.41209 5.21567 1.54902C5.21567 2.53361 5.04012 3.56777 4.84186 3.76087L3.40396 5.16315H1.03257C0.895638 5.16315 0.764314 5.21755 0.667488 5.31437C0.570662 5.4112 0.516266 5.54252 0.516266 5.67946V10.8425C0.516266 10.9794 0.570662 11.1108 0.667488 11.2076C0.764314 11.3044 0.895638 11.3588 1.03257 11.3588ZM4.1304 5.89682L5.56262 4.5028C6.04279 4.03451 6.18839 2.89606 6.23382 2.13606C6.51314 2.20266 6.8064 2.33225 6.8064 2.58421V5.16573C6.8064 5.30266 6.8608 5.43399 6.95762 5.53081C7.05445 5.62764 7.18577 5.68204 7.32271 5.68204H10.3018C10.3828 5.68146 10.463 5.69874 10.5366 5.73265C10.6103 5.76655 10.6755 5.81626 10.7277 5.87823C10.7753 5.9341 10.8098 5.99993 10.8285 6.07088C10.8473 6.14183 10.8499 6.21609 10.8362 6.28818L10.165 9.90231C10.139 10.0249 10.0708 10.1345 9.97231 10.212C9.8738 10.2895 9.75121 10.3299 9.62594 10.3262H4.1304V5.89682ZM1.54887 6.19576H3.09779V10.3262H1.54887V6.19576Z" fill="#0498C1"/>
</svg>
