<svg width="160" height="46" viewBox="0 0 160 46" fill="none" xmlns="http://www.w3.org/2000/svg">
<g clip-path="url(#clip0)">
<path fill-rule="evenodd" clip-rule="evenodd" d="M0.367563 33.7678L1.79008 36.2386C6.8207 31.2126 10.0718 27.965 15.1031 22.9392C18.3527 26.1855 21.6025 29.4322 24.8523 32.6785C30.5379 26.9984 36.2174 21.3124 41.9036 15.6322L43.3624 17.0893L44.4106 11.7315L44.7861 11.4219V44.7404H0V34.0711L0.367563 33.7678Z" fill="#E78637"/>
<path fill-rule="evenodd" clip-rule="evenodd" d="M44.7861 10.9L44.1919 11.492L38.0096 11.8036L39.5986 13.0656C34.6809 17.9783 29.7697 22.8968 24.8523 27.8095C21.6025 24.5629 18.3527 21.3166 15.1031 18.0701L3.73438 29.4274L3.75373 29.3332L0 33.0733V0H44.7861V10.9L44.7861 10.9Z" fill="#21ABD2"/>
<path d="M154.215 9.9856C157.967 9.9856 159.843 11.9967 159.843 16.0185V29.5163H156.231V17.4073C156.231 16.3367 156.126 15.5049 155.916 14.9119C155.706 14.3185 155.356 13.8918 154.866 13.6314C154.376 13.371 153.711 13.2409 152.871 13.2409C152.031 13.2409 151.135 13.3637 150.183 13.6096C149.231 13.8557 148.335 14.1812 147.495 14.5862V29.5163H143.884V10.5064L147.495 10.0724V11.8954C149.847 10.6222 152.087 9.9856 154.215 9.9856Z" fill="#21ABD2"/>
<path d="M134.392 29.5169V9.39697H138.003V29.5169H134.392Z" fill="#21ABD2"/>
<path d="M136.154 6.64338C135.706 6.64338 135.286 6.52054 134.894 6.27446C134.502 6.02856 134.187 5.70312 133.949 5.29816C133.711 4.89293 133.592 4.45893 133.592 3.99593C133.592 3.50416 133.711 3.0556 133.949 2.65064C134.187 2.24547 134.502 1.92 134.894 1.6741C135.286 1.42799 135.706 1.30518 136.154 1.30518C136.63 1.30518 137.064 1.42802 137.456 1.6741C137.848 1.92 138.163 2.24547 138.401 2.65064C138.639 3.05563 138.758 3.50416 138.758 3.99593C138.758 4.45893 138.639 4.89293 138.401 5.29816C138.163 5.70315 137.848 6.02856 137.456 6.27446C137.064 6.52057 136.63 6.64338 136.154 6.64338Z" fill="#21ABD2"/>
<path d="M118.078 19.6209V16.1489H129.837V19.6209H118.078Z" fill="#21ABD2"/>
<path d="M105.354 26.3048H115.559V29.5166H100.188V27.8238L110.435 13.7184H100.902L101.322 10.5066H115.517V12.156L105.354 26.3048Z" fill="#21ABD2"/>
<path d="M92.5857 29.5169V9.39697H96.1973V29.5169H92.5857Z" fill="#21ABD2"/>
<path d="M94.3481 6.64338C93.9 6.64338 93.4801 6.52054 93.0884 6.27446C92.6962 6.02856 92.3814 5.70312 92.1434 5.29816C91.9054 4.89293 91.7864 4.45893 91.7864 3.99593C91.7864 3.50416 91.9054 3.0556 92.1434 2.65064C92.3814 2.24547 92.6962 1.92 93.0884 1.6741C93.4801 1.42799 93.9 1.30518 94.3481 1.30518C94.8241 1.30518 95.2582 1.42802 95.6501 1.6741C96.0421 1.92 96.3569 2.24547 96.5951 2.65064C96.8331 3.05563 96.9519 3.50416 96.9519 3.99593C96.9519 4.45893 96.8331 4.89293 96.5951 5.29816C96.3569 5.70315 96.0421 6.02856 95.6501 6.27446C95.2582 6.52057 94.8241 6.64338 94.3481 6.64338Z" fill="#21ABD2"/>
<path d="M77.5514 26.9559C79.5395 26.9559 81.163 26.37 82.4232 25.1981C83.6829 24.0262 84.3132 22.0804 84.3132 19.3606C84.3132 17.393 83.9491 15.8741 83.221 14.8035C82.4932 13.733 81.3731 13.1976 79.8612 13.1976C78.2093 13.1976 76.4874 13.6171 74.6955 14.4563V26.6087C75.7596 26.8401 76.7115 26.9559 77.5514 26.9559L77.5514 26.9559ZM80.8692 9.98581C82.4932 9.98581 83.851 10.3983 84.9429 11.2227C86.0349 12.0475 86.8468 13.1758 87.3789 14.6081C87.9107 16.0405 88.1767 17.6534 88.1767 19.4474C88.1767 21.9648 87.6516 24.0117 86.6019 25.5888C85.5518 27.1657 84.2291 28.3013 82.6331 28.9957C81.0372 29.6901 79.3852 30.0373 77.6774 30.0373C75.8016 30.0373 73.6037 29.6178 71.0839 28.7786V2.61353H74.6956V11.6785C76.6834 10.5501 78.7414 9.98578 80.8692 9.98578V9.98581Z" fill="#21ABD2"/>
<path d="M53.6102 24.6121C53.6102 25.3642 53.8272 25.9286 54.2611 26.3046C54.6952 26.6807 55.346 26.8689 56.2138 26.8689C58.1178 26.8689 59.9796 26.2902 61.7996 25.1328V20.619C59.3639 20.7348 57.3899 21.1254 55.8779 21.791C54.3661 22.4563 53.6102 23.3966 53.6102 24.6121ZM58.9438 9.9856C61.0997 9.9856 62.7164 10.4921 63.7945 11.5047C64.8723 12.5174 65.4114 14.1089 65.4114 16.2789V29.5163H62.1355L61.9257 27.8672C59.9937 29.3138 57.7679 30.0371 55.2482 30.0371C54.1841 30.0371 53.2322 29.8273 52.3921 29.4078C51.5523 28.9883 50.9014 28.3952 50.4395 27.6283C49.9775 26.8616 49.7463 25.9864 49.7463 25.0025C49.7463 23.4111 50.2925 22.0874 51.3842 21.0313C52.4761 19.9752 53.9321 19.2013 55.7521 18.7094C57.5721 18.2175 59.5879 17.9426 61.7997 17.8848V16.93C61.7997 15.6278 61.5475 14.6802 61.0436 14.0871C60.5397 13.494 59.6858 13.1974 58.4819 13.1974C56.4379 13.1974 54.3102 13.9495 52.0985 15.4542L50.5024 12.8502C53.1901 10.9406 56.004 9.9856 58.9438 9.9856H58.9438Z" fill="#21ABD2"/>
<path d="M56.2367 43.7909L55.7541 42.133H53.4728L52.9919 43.7909H51.6519L53.8541 36.687H55.365L57.5752 43.7909H56.2367H56.2367ZM54.8033 38.6898C54.7732 38.59 54.7464 38.4903 54.7227 38.3906C54.6989 38.2892 54.6815 38.196 54.6689 38.1093C54.6514 38.0112 54.6356 37.9164 54.6229 37.8281H54.604C54.5914 37.9164 54.5771 38.0112 54.5581 38.1093C54.5455 38.196 54.528 38.2892 54.5043 38.3906C54.4822 38.4903 54.4553 38.59 54.4236 38.6898L53.7323 41.1128H55.4947L54.8034 38.6898H54.8033ZM61.735 42.2721C61.735 42.7674 61.5673 43.1647 61.2335 43.4623C60.8981 43.7615 60.4013 43.9103 59.7432 43.9103C59.4331 43.9103 59.1372 43.8727 58.8556 43.7958C58.5725 43.719 58.3398 43.6291 58.1579 43.5277L58.5566 42.5075C58.6183 42.5451 58.6974 42.586 58.7924 42.6301C58.8889 42.6726 58.9885 42.7102 59.0929 42.7413C59.1989 42.774 59.3049 42.8001 59.411 42.8181C59.5185 42.8377 59.6166 42.8475 59.7052 42.8475C59.9283 42.8475 60.107 42.7952 60.2431 42.6922C60.3792 42.5876 60.4472 42.4486 60.4472 42.2721C60.4472 42.0742 60.376 41.9254 60.2321 41.8241C60.0881 41.7243 59.9061 41.6311 59.6878 41.5444C59.536 41.4872 59.3762 41.4186 59.2068 41.3384C59.0391 41.2583 58.8873 41.1602 58.7512 41.0441C58.6151 40.9264 58.5029 40.7809 58.4143 40.6027C58.3272 40.4261 58.283 40.207 58.283 39.9438C58.283 39.4746 58.438 39.0985 58.7512 38.814C59.0629 38.5295 59.5075 38.3873 60.0849 38.3873C60.4077 38.3873 60.6924 38.4233 60.9424 38.4952C61.194 38.5672 61.4123 38.6571 61.6006 38.7666L61.2114 39.6806C61.107 39.607 60.9614 39.5383 60.7747 39.4729C60.5865 39.4075 60.4124 39.3748 60.2479 39.3748C60.0248 39.3748 59.854 39.4271 59.7337 39.5317C59.6135 39.638 59.5534 39.7688 59.5534 39.9258C59.5534 40.1301 59.623 40.2806 59.7606 40.3787C59.8998 40.4752 60.0786 40.5667 60.2937 40.6534C60.4583 40.7171 60.626 40.7874 60.7969 40.861C60.9693 40.9362 61.1243 41.0343 61.2636 41.1569C61.4028 41.2779 61.5151 41.4267 61.6038 41.6049C61.6924 41.7815 61.735 42.0039 61.735 42.272V42.2721ZM66.1925 42.2721C66.1925 42.7674 66.0247 43.1647 65.6909 43.4623C65.3555 43.7615 64.8587 43.9103 64.2006 43.9103C63.8905 43.9103 63.5946 43.8727 63.313 43.7958C63.0299 43.719 62.7972 43.6291 62.6153 43.5277L63.014 42.5075C63.0757 42.5451 63.1548 42.586 63.2498 42.6301C63.3463 42.6726 63.4459 42.7102 63.5503 42.7413C63.6563 42.774 63.7623 42.8001 63.8684 42.8181C63.9759 42.8377 64.074 42.8475 64.1626 42.8475C64.3857 42.8475 64.5644 42.7952 64.7005 42.6922C64.8366 42.5876 64.9046 42.4486 64.9046 42.2721C64.9046 42.0742 64.8334 41.9254 64.6895 41.8241C64.5455 41.7243 64.3635 41.6311 64.1452 41.5444C63.9934 41.4872 63.8336 41.4186 63.6642 41.3384C63.4965 41.2583 63.3447 41.1602 63.2086 41.0441C63.0725 40.9264 62.9603 40.7809 62.8717 40.6027C62.7846 40.4261 62.7403 40.207 62.7403 39.9438C62.7403 39.4746 62.8953 39.0985 63.2086 38.814C63.5203 38.5295 63.9648 38.3873 64.5423 38.3873C64.865 38.3873 65.1498 38.4233 65.3998 38.4952C65.6514 38.5672 65.8697 38.6571 66.0579 38.7666L65.6687 39.6806C65.5643 39.607 65.4188 39.5383 65.2321 39.4729C65.0439 39.4075 64.8698 39.3748 64.7053 39.3748C64.4822 39.3748 64.3113 39.4271 64.1911 39.5317C64.0709 39.638 64.0107 39.7688 64.0107 39.9258C64.0107 40.1301 64.0804 40.2806 64.218 40.3787C64.3572 40.4752 64.5359 40.5667 64.7511 40.6534C64.9157 40.7171 65.0834 40.7874 65.2542 40.861C65.4267 40.9362 65.5817 41.0343 65.721 41.1569C65.8602 41.2779 65.9725 41.4267 66.0611 41.6049C66.1497 41.7815 66.1924 42.0039 66.1924 42.272L66.1925 42.2721ZM71.5595 40.7875C71.5595 40.8611 71.5595 40.9346 71.5595 41.0098C71.5595 41.085 71.5531 41.1635 71.5405 41.242L68.3796 41.7031C68.438 42.0955 68.5883 42.3865 68.832 42.5745C69.0741 42.7626 69.3762 42.8573 69.737 42.8573C69.9853 42.8573 70.2321 42.8263 70.4789 42.7658C70.7258 42.7053 70.9346 42.6252 71.1054 42.5271L71.4566 43.5278C71.2525 43.6389 70.9899 43.7305 70.6672 43.8024C70.3445 43.8743 70.0027 43.9103 69.6452 43.9103C69.237 43.9103 68.8795 43.8433 68.5741 43.7092C68.2688 43.5751 68.0109 43.3855 67.802 43.1402C67.5932 42.8933 67.435 42.6007 67.3274 42.2606C67.2183 41.9205 67.1645 41.5477 67.1645 41.1423C67.1645 40.7368 67.2166 40.3657 67.3227 40.0289C67.4271 39.6921 67.579 39.4011 67.7752 39.1574C67.9714 38.9122 68.2086 38.7225 68.4902 38.5884C68.7718 38.4544 69.0898 38.3873 69.4458 38.3873C69.7859 38.3873 70.0865 38.4446 70.3492 38.5574C70.6118 38.6718 70.8333 38.8337 71.0136 39.0462C71.1955 39.2588 71.3316 39.5122 71.4218 39.8082C71.5135 40.1041 71.5594 40.4294 71.5594 40.7875H71.5595ZM70.354 40.5537C70.354 40.1531 70.2701 39.8539 70.104 39.6545C69.9363 39.455 69.7069 39.3552 69.4127 39.3552C69.0915 39.3552 68.8289 39.4812 68.6232 39.7346C68.4175 39.9864 68.3084 40.3608 68.2957 40.8594L70.354 40.5537ZM75.1546 39.5416C74.9917 39.4909 74.8034 39.4648 74.5946 39.4648C74.4791 39.4648 74.3668 39.4746 74.2576 39.4943C74.1484 39.5139 74.0551 39.5384 73.9776 39.5711V43.791H72.7451V38.7667C72.9982 38.6571 73.2957 38.5672 73.6374 38.4953C73.9776 38.4233 74.3478 38.3873 74.7465 38.3873C74.9933 38.3873 75.2053 38.4037 75.3824 38.4364L75.1546 39.5417V39.5416ZM78.8653 43.7239C78.7878 43.7615 78.6817 43.7959 78.5457 43.8236C78.4096 43.8531 78.2656 43.8678 78.1154 43.8678C77.6423 43.8678 77.2911 43.7288 77.0617 43.4509C76.8339 43.1729 76.72 42.756 76.72 42.2001V39.504H76.0935V38.5034H76.72V37.3246L77.9429 36.9404V38.5034H78.8653V39.504H77.9429V42.1151C77.9429 42.3277 77.9967 42.4781 78.1059 42.5647C78.2134 42.6513 78.3463 42.6939 78.5045 42.6939C78.5758 42.6939 78.6422 42.6857 78.7054 42.6678C78.7688 42.6497 78.8225 42.6318 78.8653 42.6121V43.724V43.7239ZM81.334 36.9322C81.334 37.1366 81.2644 37.3083 81.1252 37.4489C80.9859 37.5895 80.8198 37.6598 80.6252 37.6598C80.4211 37.6598 80.2518 37.5895 80.1157 37.4489C79.9797 37.3083 79.9117 37.1366 79.9117 36.9322C79.9117 36.7311 79.9797 36.5611 80.1157 36.4237C80.2518 36.2864 80.4211 36.2177 80.6252 36.2177C80.8198 36.2177 80.9859 36.2864 81.1252 36.4237C81.2644 36.5611 81.334 36.7312 81.334 36.9322ZM79.994 43.791V38.5034H81.2422V43.791H79.994ZM85.4116 43.791H83.9798L82.1953 38.5034H83.6001L84.5035 41.7979C84.5589 42.0154 84.6032 42.2083 84.6332 42.3783C84.6522 42.4764 84.6697 42.568 84.6839 42.6513H84.7028C84.7092 42.568 84.725 42.4765 84.7487 42.3783C84.7614 42.2917 84.7804 42.2001 84.8041 42.102C84.8295 42.0055 84.8595 41.9042 84.8927 41.7979L85.7914 38.5034H87.1867L85.4117 43.7909L85.4116 43.791ZM92.1314 40.7875C92.1314 40.8611 92.1314 40.9347 92.1314 41.0099C92.1314 41.0851 92.125 41.1636 92.1123 41.242L88.9513 41.7031C89.0099 42.0955 89.1601 42.3865 89.4038 42.5746C89.6458 42.7626 89.9481 42.8574 90.3088 42.8574C90.5572 42.8574 90.804 42.8263 91.0508 42.7659C91.2976 42.7053 91.5063 42.6252 91.6772 42.5271L92.0285 43.5278C91.8244 43.639 91.5618 43.7305 91.239 43.8024C90.9163 43.8744 90.5746 43.9103 90.217 43.9103C89.8088 43.9103 89.4513 43.8433 89.1459 43.7092C88.8406 43.5752 88.5828 43.3855 88.3739 43.1402C88.165 42.8934 88.0068 42.6007 87.8993 42.2607C87.7901 41.9206 87.7363 41.5478 87.7363 41.1423C87.7363 40.7369 87.7885 40.3657 87.8945 40.0289C87.9989 39.6921 88.1508 39.4011 88.347 39.1575C88.5432 38.9122 88.7805 38.7225 89.062 38.5885C89.3437 38.4544 89.6617 38.3873 90.0176 38.3873C90.3578 38.3873 90.6584 38.4446 90.921 38.5574C91.1836 38.6718 91.4052 38.8337 91.5854 39.0463C91.7674 39.2588 91.9035 39.5122 91.9936 39.8082C92.0854 40.1041 92.1313 40.4294 92.1313 40.7875H92.1314ZM90.9258 40.5537C90.9258 40.1531 90.842 39.854 90.6758 39.6545C90.5081 39.455 90.2787 39.3553 89.9845 39.3553C89.6634 39.3553 89.4007 39.4812 89.195 39.7346C88.9894 39.9864 88.8802 40.3608 88.8675 40.8595L90.9258 40.5537H90.9258ZM99.8146 41.8601C99.8146 42.4993 99.5962 43.0013 99.1611 43.3643C98.7245 43.7288 98.0726 43.9103 97.2041 43.9103C97.0158 43.9103 96.8276 43.9005 96.6362 43.8792C96.4463 43.858 96.2644 43.8319 96.0903 43.8008C95.9147 43.7681 95.7502 43.7272 95.5967 43.6782C95.4417 43.6291 95.3072 43.5784 95.1933 43.5278V36.9551C95.4401 36.8439 95.7391 36.7523 96.0903 36.6804C96.44 36.6085 96.8054 36.5725 97.1867 36.5725C97.6028 36.5725 97.9651 36.6216 98.2736 36.7181C98.5806 36.8162 98.8368 36.9502 99.0425 37.1202C99.2482 37.292 99.4 37.4963 99.4982 37.7334C99.5978 37.9721 99.6469 38.2321 99.6469 38.5117C99.6469 38.716 99.6184 38.9057 99.5614 39.0774C99.5045 39.2507 99.4269 39.4043 99.3273 39.5417C99.2292 39.679 99.1169 39.7951 98.9934 39.8866C98.8701 39.9799 98.7419 40.0453 98.609 40.0829V40.1025C98.7419 40.1467 98.8796 40.217 99.0219 40.3134C99.1643 40.4099 99.2941 40.5293 99.4112 40.6731C99.5282 40.817 99.6247 40.987 99.7007 41.1833C99.7766 41.3794 99.8146 41.6051 99.8146 41.8601L99.8146 41.8601ZM98.4192 38.6424C98.4192 38.3187 98.3195 38.0686 98.1201 37.8904C97.9208 37.7105 97.6091 37.6222 97.1867 37.6222C97.0411 37.6222 96.8988 37.632 96.7596 37.6549C96.6203 37.6778 96.5064 37.7039 96.4162 37.7366V39.6904H97.2231C97.4462 39.6904 97.6233 39.6724 97.7562 39.6348C97.8891 39.5988 98.0062 39.5384 98.1091 39.4566C98.2008 39.37 98.2768 39.2572 98.3337 39.1166C98.3907 38.976 98.4192 38.8174 98.4192 38.6424ZM98.5537 41.7702C98.5537 41.3696 98.4144 41.0802 98.1359 40.8971C98.0284 40.8252 97.9082 40.7679 97.7753 40.7303C97.6424 40.6911 97.4635 40.6731 97.2421 40.6731H96.4163V42.7413C96.5064 42.774 96.6235 42.8018 96.7691 42.8231C96.9146 42.846 97.057 42.8574 97.1946 42.8574C98.1012 42.8574 98.5536 42.4945 98.5536 41.7702L98.5537 41.7702ZM102.343 36.9323C102.343 37.1366 102.274 37.3083 102.135 37.4489C101.995 37.5895 101.829 37.6598 101.635 37.6598C101.43 37.6598 101.261 37.5895 101.125 37.4489C100.989 37.3083 100.921 37.1366 100.921 36.9323C100.921 36.7312 100.989 36.5611 101.125 36.4238C101.261 36.2864 101.43 36.2178 101.635 36.2178C101.829 36.2178 101.995 36.2864 102.135 36.4238C102.274 36.5611 102.343 36.7312 102.343 36.9323ZM101.003 43.791V38.5035H102.252V43.791H101.003ZM103.303 43.791L105.277 39.5515H103.464V38.5035H107.014L105.04 42.7413H107.052V43.791H103.303H103.303ZM110.068 43.791V36.6871H111.361V43.791H110.068ZM115.601 43.791V40.3085C115.601 40.0404 115.529 39.8311 115.383 39.6807C115.238 39.5319 115.022 39.4567 114.739 39.4567C114.594 39.4567 114.454 39.4681 114.322 39.4943C114.189 39.5205 114.081 39.5483 113.997 39.5809V43.791H112.765V38.7667C113.024 38.6572 113.314 38.5673 113.633 38.4953C113.953 38.4233 114.315 38.3874 114.72 38.3874C115.453 38.3874 115.992 38.5411 116.337 38.8484C116.684 39.1542 116.858 39.5956 116.858 40.1695V43.791H115.601ZM120.679 43.724C120.602 43.7616 120.496 43.7959 120.359 43.8237C120.223 43.8531 120.079 43.8679 119.929 43.8679C119.456 43.8679 119.105 43.7288 118.875 43.4509C118.648 43.173 118.534 42.756 118.534 42.2001V39.5041H117.907V38.5035H118.534V37.3246L119.757 36.9404V38.5035H120.679V39.5041H119.757V42.1151C119.757 42.3277 119.81 42.4781 119.92 42.5648C120.027 42.6514 120.16 42.6939 120.318 42.6939C120.389 42.6939 120.456 42.6858 120.519 42.6678C120.582 42.6498 120.636 42.6318 120.679 42.6122V43.724V43.724ZM126.013 40.7875C126.013 40.8611 126.013 40.9347 126.013 41.0099C126.013 41.0851 126.006 41.1636 125.994 41.242L122.833 41.7031C122.891 42.0955 123.042 42.3865 123.285 42.5746C123.527 42.7626 123.83 42.8574 124.19 42.8574C124.439 42.8574 124.685 42.8263 124.932 42.7659C125.179 42.7053 125.388 42.6252 125.559 42.5271L125.91 43.5278C125.706 43.639 125.443 43.7305 125.121 43.8024C124.798 43.8744 124.456 43.9103 124.099 43.9103C123.69 43.9103 123.333 43.8433 123.027 43.7092C122.722 43.5752 122.464 43.3855 122.255 43.1402C122.047 42.8934 121.888 42.6007 121.781 42.2607C121.672 41.9206 121.618 41.5478 121.618 41.1423C121.618 40.7369 121.67 40.3657 121.776 40.0289C121.88 39.6921 122.032 39.4011 122.229 39.1575C122.425 38.9122 122.662 38.7225 122.944 38.5885C123.225 38.4544 123.543 38.3873 123.899 38.3873C124.239 38.3873 124.54 38.4446 124.803 38.5574C125.065 38.6718 125.287 38.8337 125.467 39.0463C125.649 39.2588 125.785 39.5122 125.875 39.8082C125.967 40.1041 126.013 40.4294 126.013 40.7875H126.013ZM124.807 40.5537C124.807 40.1531 124.723 39.854 124.557 39.6545C124.39 39.455 124.16 39.3553 123.866 39.3553C123.545 39.3553 123.282 39.4812 123.077 39.7346C122.871 39.9864 122.762 40.3608 122.749 40.8595L124.807 40.5537H124.807ZM127.206 43.791V36.0886H128.45V43.791H127.206ZM129.843 43.791V36.0886H131.086V43.791H129.843ZM133.819 36.9323C133.819 37.1366 133.75 37.3083 133.61 37.4489C133.471 37.5895 133.305 37.6598 133.11 37.6598C132.906 37.6598 132.737 37.5895 132.601 37.4489C132.465 37.3083 132.397 37.1366 132.397 36.9323C132.397 36.7312 132.465 36.5611 132.601 36.4238C132.737 36.2864 132.906 36.2178 133.11 36.2178C133.305 36.2178 133.471 36.2864 133.61 36.4238C133.75 36.5611 133.819 36.7312 133.819 36.9323ZM132.479 43.791V38.5035H133.727V43.791H132.479ZM139.181 43.724C139.181 44.0935 139.131 44.4221 139.028 44.7082C138.927 44.9943 138.78 45.2314 138.59 45.4194C138.4 45.6074 138.171 45.7513 137.902 45.8511C137.633 45.9492 137.335 45.9999 137.008 45.9999C136.615 45.9999 136.261 45.9606 135.943 45.8821C135.627 45.8037 135.358 45.7056 135.135 45.5878L135.497 44.5382C135.66 44.6281 135.862 44.7033 136.103 44.7655C136.345 44.8276 136.604 44.8586 136.883 44.8586C137.25 44.8586 137.519 44.7622 137.688 44.5692C137.859 44.3763 137.944 44.0935 137.944 43.724V43.3986C137.822 43.4591 137.682 43.5049 137.522 43.5375C137.361 43.5686 137.199 43.585 137.035 43.585C136.723 43.585 136.437 43.5277 136.177 43.4133C135.918 43.2972 135.698 43.1321 135.514 42.9162C135.332 42.7004 135.188 42.4388 135.084 42.1282C134.978 41.8191 134.926 41.4643 134.926 41.0654C134.926 40.6191 134.984 40.2267 135.103 39.8899C135.22 39.5531 135.388 39.2735 135.606 39.0511C135.823 38.8288 136.087 38.6637 136.399 38.5525C136.709 38.4429 137.057 38.3873 137.443 38.3873C137.789 38.3873 138.114 38.4233 138.419 38.4952C138.723 38.5672 138.977 38.6571 139.181 38.7666V43.7239L139.181 43.724ZM137.944 39.5237C137.881 39.491 137.797 39.4665 137.688 39.4468C137.58 39.4272 137.463 39.4174 137.337 39.4174C136.997 39.4174 136.717 39.5449 136.497 39.7984C136.278 40.0518 136.168 40.4572 136.168 41.0132C136.168 41.5364 136.27 41.9271 136.476 42.1871C136.682 42.4454 136.957 42.5746 137.299 42.5746C137.414 42.5746 137.533 42.5599 137.656 42.5304C137.78 42.5026 137.876 42.4667 137.944 42.4258V39.5237V39.5237ZM144.746 40.7875C144.746 40.8611 144.746 40.9347 144.746 41.0099C144.746 41.0851 144.74 41.1636 144.727 41.242L141.566 41.7031C141.625 42.0955 141.775 42.3865 142.019 42.5746C142.261 42.7626 142.563 42.8574 142.924 42.8574C143.172 42.8574 143.419 42.8263 143.666 42.7659C143.913 42.7053 144.121 42.6252 144.292 42.5271L144.643 43.5278C144.439 43.639 144.177 43.7305 143.854 43.8024C143.531 43.8744 143.19 43.9103 142.832 43.9103C142.424 43.9103 142.066 43.8433 141.761 43.7092C141.456 43.5752 141.198 43.3855 140.989 43.1402C140.78 42.8934 140.622 42.6007 140.514 42.2607C140.405 41.9206 140.351 41.5478 140.351 41.1423C140.351 40.7369 140.404 40.3657 140.509 40.0289C140.614 39.6921 140.766 39.4011 140.962 39.1575C141.158 38.9122 141.395 38.7225 141.677 38.5885C141.959 38.4544 142.277 38.3873 142.633 38.3873C142.973 38.3873 143.273 38.4446 143.536 38.5574C143.799 38.6718 144.02 38.8337 144.2 39.0463C144.382 39.2588 144.518 39.5122 144.609 39.8082C144.7 40.1041 144.746 40.4294 144.746 40.7875H144.746ZM143.541 40.5537C143.541 40.1531 143.457 39.854 143.291 39.6545C143.123 39.455 142.894 39.3553 142.599 39.3553C142.278 39.3553 142.016 39.4812 141.81 39.7346C141.604 39.9864 141.495 40.3608 141.482 40.8595L143.541 40.5537ZM148.769 43.791V40.3085C148.769 40.0404 148.696 39.8311 148.55 39.6807C148.405 39.5319 148.19 39.4567 147.906 39.4567C147.761 39.4567 147.622 39.4681 147.489 39.4943C147.356 39.5205 147.248 39.5483 147.164 39.5809V43.791H145.932V38.7667C146.191 38.6572 146.481 38.5673 146.801 38.4953C147.12 38.4233 147.482 38.3874 147.887 38.3874C148.62 38.3874 149.159 38.5411 149.504 38.8484C149.851 39.1542 150.025 39.5956 150.025 40.1695V43.791H148.769ZM154.699 43.5474C154.533 43.6586 154.346 43.7469 154.14 43.8123C153.935 43.8776 153.688 43.9104 153.397 43.9104C153.112 43.9104 152.837 43.8548 152.571 43.7436C152.305 43.6308 152.071 43.4608 151.865 43.2335C151.66 43.0046 151.497 42.7168 151.377 42.3686C151.255 42.0203 151.195 41.6116 151.195 41.1424C151.195 40.6731 151.255 40.2644 151.377 39.9161C151.497 39.5679 151.66 39.2817 151.865 39.0561C152.071 38.8305 152.305 38.6637 152.571 38.5526C152.837 38.443 153.112 38.3874 153.397 38.3874C153.688 38.3874 153.938 38.4201 154.148 38.4855C154.357 38.5509 154.542 38.6392 154.699 38.7471L154.31 39.7101C154.112 39.5596 153.868 39.4844 153.577 39.4844C153.275 39.4844 153.017 39.6202 152.805 39.8916C152.595 40.163 152.489 40.5766 152.489 41.1325C152.489 41.4072 152.516 41.6475 152.571 41.8535C152.628 42.0595 152.705 42.2312 152.808 42.3686C152.91 42.5059 153.027 42.6089 153.156 42.6775C153.286 42.7462 153.427 42.7806 153.577 42.7806C153.862 42.7806 154.106 42.7021 154.31 42.5451L154.699 43.5474L154.699 43.5474ZM160.001 40.7876C160.001 40.8611 160.001 40.9347 160.001 41.0099C160.001 41.0851 159.995 41.1636 159.982 41.2421L156.821 41.7031C156.88 42.0955 157.03 42.3866 157.274 42.5746C157.516 42.7626 157.818 42.8574 158.179 42.8574C158.427 42.8574 158.674 42.8264 158.92 42.7659C159.167 42.7054 159.376 42.6252 159.547 42.5272L159.898 43.5278C159.694 43.639 159.431 43.7306 159.109 43.8025C158.786 43.8744 158.444 43.9104 158.087 43.9104C157.679 43.9104 157.321 43.8433 157.016 43.7093C156.71 43.5752 156.452 43.3855 156.244 43.1403C156.035 42.8934 155.877 42.6008 155.769 42.2607C155.66 41.9206 155.606 41.5478 155.606 41.1424C155.606 40.7369 155.658 40.3658 155.764 40.0289C155.869 39.6921 156.021 39.4011 156.217 39.1575C156.413 38.9122 156.65 38.7226 156.932 38.5885C157.213 38.4544 157.531 38.3874 157.887 38.3874C158.227 38.3874 158.528 38.4447 158.791 38.5574C159.053 38.6719 159.275 38.8337 159.455 39.0463C159.637 39.2588 159.773 39.5123 159.863 39.8082C159.955 40.1041 160.001 40.4295 160.001 40.7876H160.001ZM158.795 40.5537C158.795 40.1532 158.712 39.854 158.545 39.6545C158.378 39.4551 158.148 39.3553 157.854 39.3553C157.533 39.3553 157.27 39.4812 157.065 39.7346C156.859 39.9864 156.75 40.3608 156.737 40.8595L158.796 40.5537H158.795Z" fill="#999999"/>
</g>
<defs>
<clipPath id="clip0">
<rect width="160" height="46" fill="white"/>
</clipPath>
</defs>
</svg>
