<svg width="24" height="24" viewBox="0 0 24 24" fill="none" xmlns="http://www.w3.org/2000/svg">
<path d="M16.9381 6.24298L14.8041 10.2048C14.3261 11.0923 14.1615 12.0667 14.2784 12.9884L9.75059 10.5496C10.6081 10.1323 11.3161 9.45053 11.7856 8.57893L13.9196 4.61709L16.9381 6.24298ZM20.0556 5.87766L12.5093 1.81294C12.0942 1.58938 11.5626 1.76304 11.3278 2.19884C11.0931 2.63464 11.2406 3.17412 11.6557 3.39768L12.4103 3.80415L10.2763 7.76599C9.56786 9.08131 7.98474 9.59841 6.73204 8.92367L5.87845 10.5084L10.3836 12.935L7.39606 18.4816L7.7239 19.6805L8.90533 19.2946L11.8929 13.748L16.4433 16.199L17.2969 14.6143C16.0442 13.9395 15.6049 12.3331 16.3134 11.0178L18.4474 7.05593L19.202 7.4624C19.6171 7.68596 20.1487 7.5123 20.3835 7.0765C20.6182 6.6407 20.4707 6.10122 20.0556 5.87766Z" fill="#272727"/>
</svg>
