<svg width="13" height="13" viewBox="0 0 13 13" fill="none" xmlns="http://www.w3.org/2000/svg">
<path d="M7.05702 2.5815H6.28256V1.54889C6.28224 1.44203 6.24882 1.3379 6.1869 1.25082C6.12497 1.16374 6.03758 1.09799 5.93676 1.06261C5.83593 1.02723 5.72661 1.02396 5.62385 1.05326C5.52109 1.08255 5.42993 1.14297 5.36292 1.2262L3.2977 3.80772C3.22227 3.90218 3.18233 4.0201 3.18482 4.14096C3.18731 4.26182 3.23207 4.37798 3.31133 4.46926L5.37655 6.84426C5.4457 6.92336 5.53731 6.97951 5.63919 7.00523C5.74106 7.03094 5.84834 7.025 5.94675 6.9882C6.04516 6.95139 6.13002 6.88547 6.19001 6.79922C6.25 6.71296 6.28229 6.61048 6.28256 6.50541V5.67932H7.31517C8.31164 5.67932 9.89153 6.55565 9.89153 8.90623C9.89179 9.0196 9.92933 9.12974 9.99838 9.21966C10.0674 9.30959 10.1641 9.3743 10.2736 9.40383C10.3831 9.43336 10.4992 9.42606 10.6041 9.38305C10.709 9.34005 10.7968 9.26374 10.8541 9.16588C11.2392 8.4989 11.442 7.74235 11.4422 6.97218C11.4424 6.20202 11.24 5.44535 10.8552 4.77817C10.4705 4.111 9.91698 3.55679 9.25029 3.17121C8.58359 2.78563 7.82718 2.58225 7.05702 2.5815Z" fill="#414346"/>
<path d="M2.29668 4.13055L4.10426 1.87172C4.18905 1.76466 4.228 1.62839 4.21259 1.49269C4.19718 1.357 4.12866 1.23293 4.02202 1.14762C3.91538 1.06231 3.7793 1.0227 3.64353 1.03745C3.50776 1.0522 3.38336 1.12011 3.29753 1.22634L1.23232 3.80786C1.15912 3.89949 1.11926 4.01328 1.11926 4.13055C1.11926 4.24782 1.15912 4.36161 1.23232 4.45324L3.29753 7.03476C3.38336 7.14099 3.50776 7.2089 3.64353 7.22365C3.7793 7.2384 3.91538 7.19879 4.02202 7.11348C4.12866 7.02816 4.19718 6.9041 4.21259 6.7684C4.228 6.63271 4.18905 6.49643 4.10426 6.38938L2.29668 4.13055Z" fill="#414346"/>
</svg>
