<svg width="24" height="24" viewBox="0 0 24 24" fill="none" xmlns="http://www.w3.org/2000/svg">
<path d="M19.7697 10.9108L13.774 4.24399C13.6692 4.12748 13.5356 4.04814 13.3903 4.016C13.2449 3.98386 13.0942 4.00037 12.9573 4.06343C12.8204 4.12649 12.7034 4.23327 12.621 4.37028C12.5386 4.50729 12.4947 4.66838 12.4946 4.83318V7.78741C10.4473 7.99808 8.54438 9.05066 7.15822 10.7392C5.77206 12.4277 5.00245 14.6306 5 16.9168V18.1668C5.00012 18.3398 5.04865 18.5085 5.13886 18.6494C5.22907 18.7903 5.35648 18.8966 5.50343 18.9534C5.65039 19.0102 5.80959 19.0147 5.95896 18.9663C6.10833 18.918 6.24047 18.8191 6.33704 18.6835C7.07129 17.7126 7.97219 16.9142 8.98711 16.3348C10.002 15.7555 11.1106 15.4068 12.2481 15.3093C12.2855 15.3043 12.3792 15.2959 12.4946 15.2876V18.1668C12.4947 18.3316 12.5386 18.4927 12.621 18.6297C12.7034 18.7667 12.8204 18.8735 12.9573 18.9366C13.0942 18.9996 13.2449 19.0161 13.3903 18.984C13.5356 18.9519 13.6692 18.8725 13.774 18.756L19.7697 12.0892C19.9102 11.9329 19.9891 11.721 19.9891 11.5C19.9891 11.279 19.9102 11.0671 19.7697 10.9108Z" fill="#414346"/>
</svg>
