<svg width="24" height="24" viewBox="0 0 24 24" fill="none" xmlns="http://www.w3.org/2000/svg">
<path d="M11.7502 4C9.78509 4 8.1875 5.59759 8.1875 7.56269C8.1875 9.4903 9.69508 11.0504 11.6602 11.1179C11.7202 11.1104 11.7802 11.1104 11.8252 11.1179C11.8402 11.1179 11.8477 11.1179 11.8627 11.1179C11.8702 11.1179 11.8702 11.1179 11.8777 11.1179C13.7978 11.0504 15.3054 9.4903 15.3129 7.56269C15.3129 5.59759 13.7153 4 11.7502 4Z" fill="#414346"/>
<path d="M15.5612 13.1122C13.4686 11.7171 10.0559 11.7171 7.94828 13.1122C6.99573 13.7497 6.4707 14.6123 6.4707 15.5348C6.4707 16.4574 6.99573 17.3124 7.94078 17.9424C8.99084 18.6475 10.3709 19 11.751 19C13.1311 19 14.5111 18.6475 15.5612 17.9424C16.5063 17.3049 17.0313 16.4499 17.0313 15.5198C17.0238 14.5973 16.5063 13.7422 15.5612 13.1122Z" fill="#414346"/>
<path d="M19.9932 8.00383C20.1133 9.45891 19.0782 10.734 17.6456 10.9065C17.6381 10.9065 17.6381 10.9065 17.6306 10.9065H17.6081C17.5631 10.9065 17.5181 10.9065 17.4806 10.9215C16.7531 10.959 16.0855 10.7265 15.583 10.299C16.3555 9.60892 16.7981 8.57386 16.7081 7.4488C16.6556 6.84126 16.4456 6.28623 16.1305 5.81371C16.4156 5.6712 16.7456 5.5812 17.0831 5.55119C18.5532 5.42369 19.8657 6.51875 19.9932 8.00383Z" fill="#414346"/>
<path d="M21.4925 14.9434C21.4325 15.6709 20.9675 16.301 20.1874 16.7285C19.4374 17.141 18.4924 17.336 17.5548 17.3135C18.0948 16.826 18.4098 16.2185 18.4698 15.5734C18.5449 14.6434 18.1023 13.7508 17.2173 13.0383C16.7148 12.6408 16.1297 12.3258 15.4922 12.0932C17.1498 11.6132 19.2349 11.9357 20.5175 12.9708C21.2075 13.5258 21.56 14.2234 21.4925 14.9434Z" fill="#414346"/>
<path d="M3.50773 8.00383C3.38772 9.45891 4.42278 10.734 5.85536 10.9065C5.86286 10.9065 5.86286 10.9065 5.87036 10.9065H5.89286C5.93786 10.9065 5.98286 10.9065 6.02037 10.9215C6.74791 10.959 7.41544 10.7265 7.91797 10.299C7.14543 9.60892 6.7029 8.57386 6.79291 7.4488C6.84541 6.84126 7.05542 6.28623 7.37044 5.81371C7.08542 5.6712 6.7554 5.5812 6.41789 5.55119C4.94781 5.42369 3.63523 6.51875 3.50773 8.00383Z" fill="#414346"/>
<path d="M2.00846 14.9434C2.06846 15.6709 2.53349 16.301 3.31353 16.7285C4.06357 17.141 5.00863 17.336 5.94618 17.3135C5.40615 16.826 5.09113 16.2185 5.03113 15.5734C4.95612 14.6434 5.39865 13.7508 6.28369 13.0383C6.78622 12.6408 7.37125 12.3258 8.00879 12.0932C6.3512 11.6132 4.26608 11.9357 2.98351 12.9708C2.29348 13.5258 1.94096 14.2234 2.00846 14.9434Z" fill="#414346"/>
</svg>
