<svg width="14" height="12" viewBox="0 0 14 12" fill="none" xmlns="http://www.w3.org/2000/svg">
<path d="M1.2551 11.025C1.1948 10.5426 1.07419 10.1205 1.01389 9.63807C0.712379 6.44205 2.88326 3.24603 5.95868 2.40179C6.32049 2.28119 6.68231 2.28119 7.04412 2.22089C7.34563 2.16058 7.40594 2.10028 7.40594 1.79877C7.40594 1.31635 7.40594 0.833933 7.40594 0.351514C7.40594 0.230909 7.46624 0.110305 7.52654 0.0500025C7.58684 -0.0102999 7.70745 0.0500025 7.76775 0.110305C9.45621 1.25605 11.1447 2.34149 12.8331 3.48723C13.0744 3.66814 13.0744 3.84905 12.8331 4.02996C11.1447 5.1757 9.45621 6.26114 7.76775 7.40689C7.70745 7.46719 7.52654 7.46719 7.46624 7.46719C7.40594 7.46719 7.40594 7.28628 7.40594 7.22598C7.40594 6.74356 7.40594 6.26114 7.40594 5.77872C7.40594 5.47721 7.34563 5.41691 7.04412 5.41691C6.19989 5.41691 5.35566 5.65812 4.63203 6.01993C2.82296 6.98477 1.61691 8.49233 1.3757 10.6029C1.3757 10.7235 1.3757 10.9044 1.3154 11.025C1.3154 11.025 1.3154 11.025 1.2551 11.025Z" fill="#32A1C8"/>
</svg>
