<svg width="17" height="17" viewBox="0 0 17 17" fill="none" xmlns="http://www.w3.org/2000/svg">
<path fill-rule="evenodd" clip-rule="evenodd" d="M7.46256 5.90486C7.46256 6.733 6.79046 7.40511 5.96232 7.40511C5.13499 7.40511 4.46289 6.733 4.46289 5.90486C4.46289 5.07672 5.13499 4.40462 5.96232 4.40462C6.79046 4.40462 7.46256 5.07672 7.46256 5.90486Z" fill="#0498C1"/>
<path d="M15.9998 10.9151C15.192 10.2122 14.489 9.36613 13.5625 8.80781C12.6344 8.24948 11.6372 8.59407 10.9936 9.42708C10.3719 10.2325 9.98338 11.3158 9.04472 11.8237C7.88824 12.4503 7.20883 11.4401 6.24415 11.0354C5.16732 10.5844 4.34975 11.3954 3.72072 12.1748C3.09088 12.955 2.45291 13.7271 1.8125 14.4991" stroke="#0498C1" stroke-linecap="round" stroke-linejoin="round"/>
<path fill-rule="evenodd" clip-rule="evenodd" d="M12.0145 1.00006H4.98548C2.53519 1.00006 1 2.73436 1 5.18872V11.8114C1 14.2658 2.52869 16.0001 4.98548 16.0001H12.0137C14.4713 16.0001 16 14.2658 16 11.8114V5.18872C16 2.73436 14.4713 1.00006 12.0145 1.00006Z" stroke="#FD830E" stroke-linecap="round" stroke-linejoin="round"/>
</svg>
