<svg width="21" height="20" viewBox="0 0 21 20" fill="none" xmlns="http://www.w3.org/2000/svg">
<g opacity="0.6" clip-path="url(#clip0_3101_2675)">
<path d="M8.257 2.5C9.7686 2.5 11.2183 3.08699 12.2872 4.13183C13.356 5.17668 13.9565 6.59379 13.9565 8.07143C13.9565 9.45143 13.4392 10.72 12.5886 11.6971L12.8254 11.9286H13.5181L17.9023 16.2143L16.587 17.5L12.2028 13.2143V12.5371L11.9661 12.3057C10.9319 13.1687 9.61673 13.6428 8.257 13.6429C6.7454 13.6429 5.29571 13.0559 4.22684 12.011C3.15798 10.9662 2.5575 9.54906 2.5575 8.07143C2.5575 6.59379 3.15798 5.17668 4.22684 4.13183C5.29571 3.08699 6.7454 2.5 8.257 2.5ZM8.257 4.21429C6.06488 4.21429 4.31119 5.92857 4.31119 8.07143C4.31119 10.2143 6.06488 11.9286 8.257 11.9286C10.4491 11.9286 12.2028 10.2143 12.2028 8.07143C12.2028 5.92857 10.4491 4.21429 8.257 4.21429Z" fill="#272727"/>
</g>
<defs>
<clipPath id="clip0_3101_2675">
<rect width="20.4598" height="20" fill="white"/>
</clipPath>
</defs>
</svg>
