<svg width="11" height="10" viewBox="0 0 11 10" fill="none" xmlns="http://www.w3.org/2000/svg">
<g opacity="0.85">
<path d="M5.49501 0.910248C5.67063 0.936656 5.82184 1.08232 5.85481 1.25672C5.98626 1.26095 6.09393 1.35634 6.19685 1.4382C6.29977 1.52007 6.43059 1.59686 6.55602 1.55714L6.50825 1.19683C6.49758 1.11623 6.48606 1.0332 6.44496 0.963064C6.38621 0.86303 6.27737 0.805355 6.17403 0.752644C6.05124 0.690109 5.92624 0.62673 5.79067 0.602012C5.6551 0.577293 5.50494 0.596307 5.39885 0.684194C5.34845 0.726024 5.30914 0.801129 5.34655 0.854896C5.37761 0.899896 5.44112 0.902114 5.49501 0.910248Z" fill="#414346"/>
<path d="M6.79768 1.02011C6.9062 1.02993 7.00478 1.11074 7.03574 1.21511C7.04018 1.2301 7.04314 1.24722 7.03521 1.26084C7.02465 1.27901 7.00013 1.28239 6.97921 1.28165C6.94524 1.28109 6.9118 1.27319 6.88116 1.25852C6.8407 1.23798 6.80892 1.20367 6.79156 1.16176C6.77455 1.11969 6.77316 1.07293 6.78765 1.02993" fill="#414346"/>
<path d="M7.66533 5.18753C7.54656 5.16208 7.41818 5.04768 7.35097 4.95145C7.3067 4.88796 7.27606 4.81507 7.22629 4.75571C7.17123 4.69011 7.096 4.64479 7.02013 4.60508C6.68856 4.43229 6.32057 4.34096 5.94666 4.33867C5.70161 4.33719 5.33231 4.30402 5.19134 4.04924C5.16799 4.00709 5.18891 3.95565 5.19853 3.90833C5.20815 3.861 5.19166 3.79636 5.14348 3.79393C5.05155 3.78928 5.0302 3.89892 4.91439 3.88551C4.8307 3.87579 4.71753 3.81368 4.68921 3.73086C4.66343 3.65544 4.68974 3.48685 4.69534 3.40668C4.7057 3.25837 5.28116 3.26767 5.38524 3.27633C5.3657 3.38957 5.48013 3.5665 5.60683 3.46351C5.71662 3.37435 5.58062 3.12802 5.67625 3.00485C5.80105 2.84387 5.96124 2.6832 6.10199 2.53215C6.14161 2.48958 6.18145 2.4469 6.22688 2.41067C6.32611 2.33176 6.44762 2.28719 6.5572 2.22338C6.34312 1.89233 5.955 1.68107 5.56076 1.68096C5.53033 1.68096 5.49704 1.68318 5.47464 1.70378C5.44516 1.73082 5.44685 1.77698 5.45108 1.8167C5.46259 1.92614 5.47612 2.03546 5.49165 2.14437L5.15457 2.01054C5.0712 1.97747 4.98371 1.94124 4.9294 1.86983C4.87519 1.79843 4.8717 1.68043 4.94609 1.63047C5.05091 1.56001 5.21005 1.67061 5.3136 1.59846C5.37595 1.55494 5.39211 1.45892 5.46238 1.42987C5.52525 1.40399 5.5933 1.44625 5.65977 1.46104C5.72613 1.47582 5.82007 1.42227 5.78794 1.36227C5.60577 1.2409 5.39782 1.11393 5.183 1.15639C5.0749 1.17773 4.97959 1.24058 4.87424 1.2728C4.62011 1.35065 4.35002 1.24364 4.10593 1.13844C4.06874 1.12238 4.03027 1.10558 4.00291 1.07569C3.97184 1.04178 3.95874 0.995092 3.93221 0.957487C3.8481 0.838439 3.53512 0.838756 3.55562 0.832946C3.5293 0.830728 3.47837 0.890094 3.45206 0.88777C3.42903 0.885763 3.19497 1.12513 3.15218 1.15386C3.00879 1.25041 2.84733 1.29002 2.67266 1.34157C2.50095 1.39227 2.30578 1.58801 2.57302 1.60121C2.79196 1.61198 3.11054 1.53371 3.32368 1.4847C3.36298 1.47572 3.40589 1.466 3.44213 1.48364C3.47763 1.50086 3.49676 1.53942 3.51187 1.57586C3.64506 1.90007 3.66175 2.2604 3.5591 2.59553C3.52402 2.70877 3.47499 2.82834 3.50954 2.94179C3.55942 3.10531 3.76526 3.19066 3.79601 3.35883C3.80922 3.43118 3.78703 3.50999 3.81704 3.57706C3.88752 3.73435 4.10255 3.664 4.22396 3.6359C4.22333 3.63611 4.24192 3.88076 4.25862 3.90759C4.31758 4.00213 4.47186 4.02621 4.56907 4.05336C4.9276 4.1536 5.24302 4.30603 5.56615 4.49025C5.64434 4.53483 5.72613 4.58279 5.77167 4.66053C5.89372 4.86863 5.69157 5.11496 5.66547 5.35475C5.6585 5.42294 5.66615 5.49184 5.68791 5.55685C5.70966 5.62185 5.74503 5.68148 5.79164 5.73175C5.84479 5.78837 5.91126 5.83136 5.96409 5.88851C6.08719 6.02161 6.12164 6.21724 6.1022 6.39755C6.08286 6.57787 6.0165 6.7491 5.96092 6.9217C5.85696 7.24487 5.78962 7.57868 5.76015 7.91686C5.75138 8.01753 5.80548 8.04373 5.89572 8.01605C6.02432 7.97676 6.00118 7.85538 6.03372 7.75968C6.12724 7.48398 6.4248 7.23839 6.67851 7.11828C6.79125 7.06494 6.91499 7.02448 7.00248 6.93564C7.1259 6.81036 7.15295 6.61304 7.27679 6.48808C7.38225 6.3816 7.54234 6.34389 7.64874 6.23826C7.76413 6.12365 7.80439 5.95569 7.87931 5.81605C7.93574 5.71094 8.04373 5.62506 8.09138 5.51932C8.23393 5.20253 7.84877 5.22683 7.66533 5.18753Z" fill="#414346"/>
<path d="M5.00167 0C2.23931 0 0 2.23856 0 5C0 7.76144 2.23931 10 5.00167 10C7.76403 10 10.0033 7.76144 10.0033 5C10.0033 2.23856 7.76403 0 5.00167 0ZM6.66952 9.26174C6.55128 9.21494 6.4211 9.19846 6.2961 9.22212C6.11234 9.25688 5.9195 9.36652 5.75127 9.28466C5.58464 9.20364 5.55103 8.96227 5.64212 8.80086C5.7332 8.63946 5.90914 8.54565 6.08339 8.48259C5.96493 8.38678 5.7835 8.43125 5.66072 8.52157C5.53793 8.61178 5.44632 8.73981 5.32121 8.82674C5.1961 8.91368 5.01012 8.94822 4.89959 8.84333C4.8959 8.92984 4.79477 8.97938 4.70812 8.97906C4.62148 8.97875 4.53557 8.94822 4.44977 8.95973C4.33385 8.97515 4.23938 9.06632 4.18803 9.17131C4.13984 9.26997 4.12336 9.38047 4.10931 9.48958C2.01022 9.07329 0.42267 7.21881 0.42267 5C0.42267 2.47592 2.47685 0.422529 5.00167 0.422529C5.9158 0.422529 6.76737 0.692737 7.48295 1.15593C7.46911 1.22819 7.46404 1.30097 7.4764 1.37364C7.50472 1.54096 7.65625 1.70036 7.82384 1.67279L7.85448 1.55121C8.06603 1.59378 8.2463 1.76469 8.29998 1.97363C8.26823 1.99475 8.2432 2.02452 8.22786 2.05941C8.21252 2.09431 8.20752 2.13288 8.21343 2.17053C8.47063 2.21881 8.63632 2.48289 8.67985 2.74084C8.72338 2.9988 8.67742 3.26267 8.68038 3.52432C8.68503 3.93575 8.85135 4.38797 9.22647 4.55729C9.33076 4.60441 9.45524 4.62321 9.56112 4.58751C9.57338 4.72356 9.58067 4.86099 9.58067 5.00011C9.58067 6.93582 8.37172 8.59361 6.66952 9.26174Z" fill="#414346"/>
</g>
</svg>
