<svg width="16" height="16" viewBox="0 0 16 16" fill="none" xmlns="http://www.w3.org/2000/svg">
<path d="M13.3334 4.85714H11.5219L10.4762 3.71429H7.04766V4.85714H9.97337L11.0191 6H13.3334V12.8571H4.19052V7.71429H3.04766V12.8571C3.04766 13.4857 3.56195 14 4.19052 14H13.3334C13.9619 14 14.4762 13.4857 14.4762 12.8571V6C14.4762 5.37143 13.9619 4.85714 13.3334 4.85714ZM5.9048 9.42857C5.9048 11.0057 7.1848 12.2857 8.76194 12.2857C10.3391 12.2857 11.6191 11.0057 11.6191 9.42857C11.6191 7.85143 10.3391 6.57143 8.76194 6.57143C7.1848 6.57143 5.9048 7.85143 5.9048 9.42857ZM8.76194 7.71429C9.7048 7.71429 10.4762 8.48571 10.4762 9.42857C10.4762 10.3714 9.7048 11.1429 8.76194 11.1429C7.81909 11.1429 7.04766 10.3714 7.04766 9.42857C7.04766 8.48571 7.81909 7.71429 8.76194 7.71429ZM4.19052 4.85714H5.9048V3.71429H4.19052V2H3.04766V3.71429H1.33337V4.85714H3.04766V6.57143H4.19052V4.85714Z" fill="#272727" fill-opacity="0.6"/>
</svg>
