<svg width="14" height="15" viewBox="0 0 14 15" fill="none" xmlns="http://www.w3.org/2000/svg">
<path d="M3.01392 6.61822C3.4363 7.67417 4.06987 8.73012 4.70344 9.71568C5.4074 10.7716 6.18177 11.8276 6.88573 12.8131C6.88573 12.8131 6.88573 12.8835 6.95613 12.8835L7.02652 12.8131C7.73049 11.7572 8.50485 10.7716 9.20882 9.71568C9.84239 8.80052 10.4056 7.81497 10.8983 6.75902C11.1095 6.26624 11.3207 5.77347 11.3207 5.21029C11.3911 4.29514 11.1799 3.52077 10.6871 2.74641C10.124 1.83126 9.27922 1.19769 8.22327 0.845703C8.22327 0.845703 8.22327 0.9161 8.29366 0.9161C8.71604 1.26808 8.92723 1.69046 8.92723 2.25364C8.92723 2.32403 8.99763 2.32403 8.99763 2.39443C10.0536 3.23919 10.5464 4.29514 10.4056 5.70307C10.1944 7.0406 9.49041 7.95576 8.29366 8.44853C6.95613 8.94131 5.75939 8.73012 4.70344 7.81497C3.01392 6.26624 3.22511 3.52077 5.19621 2.32403C5.26661 2.25364 5.26661 2.25364 5.33701 2.18324C5.4074 1.69046 5.68899 1.26808 6.04097 0.986497C6.04097 0.986497 6.04097 0.986497 6.11137 0.986497H6.04097C4.77383 1.33848 3.85868 2.04244 3.22511 3.16879C2.87313 3.87276 2.66194 4.64712 2.73233 5.49188C2.66194 5.77347 2.80273 6.19585 3.01392 6.61822Z" fill="#3296BD"/>
<path d="M5.82978 4.36558C5.61859 4.43598 5.4074 4.43598 5.19621 4.43598C4.63303 4.50638 4.28105 4.85836 4.21066 5.42153C4.14026 5.63272 4.21066 5.84391 4.14026 5.98471C4.14026 6.1255 4.14026 6.26629 4.14026 6.40709C4.14026 6.47748 4.14026 6.47748 4.14026 6.54788C4.77383 7.81502 6.32255 8.44859 7.66009 8.0966C8.43445 7.88541 9.06802 7.39264 9.4904 6.68867C9.70159 6.40709 9.84238 6.0551 9.84238 5.70312C9.84238 5.06955 9.34961 4.57678 8.78643 4.43598C8.57524 4.43598 8.43445 4.36558 8.22326 4.36558C8.08247 4.36558 8.08247 4.36559 8.01207 4.50638C7.87128 4.85836 7.73049 5.21034 7.66009 5.56233C7.5193 5.98471 7.3785 6.40709 7.16731 6.82947C7.16731 6.89986 7.09692 6.97026 7.02652 6.97026C6.95612 6.97026 6.88573 6.89986 6.88573 6.82947C6.88573 6.82947 6.88573 6.82947 6.88573 6.75907C6.60414 5.98471 6.32255 5.21035 6.04097 4.43598C5.97057 4.36559 5.90017 4.29519 5.82978 4.36558Z" fill="#3296BD"/>
<path d="M13.3622 12.1092C13.2918 11.7572 13.0806 11.546 12.7991 11.3348C12.0247 10.7013 11.0391 10.4197 10.0536 10.2085H9.98319C9.8424 10.4197 9.772 10.5605 9.63121 10.7717C9.70161 10.7717 9.70161 10.7717 9.772 10.7717C10.4056 10.9125 11.0391 11.0533 11.6727 11.3348C11.9543 11.4756 12.3063 11.6164 12.5175 11.898C12.7287 12.1796 12.7287 12.3908 12.5175 12.6724C12.3767 12.8132 12.1655 12.954 11.9543 13.0948C11.3911 13.3763 10.828 13.5875 10.1944 13.7283C7.94169 14.2211 5.7594 14.2211 3.50671 13.7987C2.80274 13.6579 2.09877 13.4467 1.39481 13.0948C1.18362 12.954 0.972428 12.8132 0.831635 12.6724C0.620445 12.4612 0.620445 12.1796 0.831635 11.9684C0.972428 11.8276 1.11322 11.6868 1.25401 11.6164C1.67639 11.3348 2.16917 11.194 2.66195 11.0533C3.01393 10.9125 3.43631 10.8421 3.78829 10.7717C3.6475 10.5605 3.5771 10.4197 3.43631 10.2085C3.43631 10.2085 3.36591 10.2085 3.29552 10.2085C2.73234 10.3493 2.23957 10.4901 1.67639 10.7013C1.18362 10.9125 0.761238 11.1237 0.409255 11.4756C-0.0835212 12.0388 -0.0835212 12.6724 0.409255 13.1652C0.761238 13.5875 1.18362 13.7987 1.606 14.0099C2.66195 14.4323 3.7179 14.6435 4.84424 14.7843C6.39297 14.9251 8.01209 14.9251 9.56081 14.6435C10.4056 14.5027 11.1799 14.2915 11.9543 13.9395C12.3767 13.7283 12.7991 13.5171 13.0806 13.1652C13.3622 12.8836 13.4326 12.5316 13.3622 12.1092Z" fill="#3296BD"/>
<path d="M7.02655 3.73193C7.87131 3.73193 8.50487 3.09836 8.50487 2.2536C8.50487 1.47923 7.87131 0.775269 7.02655 0.775269C6.18179 0.775269 5.54822 1.40884 5.54822 2.2536C5.54822 3.09836 6.18179 3.73193 7.02655 3.73193Z" fill="#3296BD"/>
<path d="M7.44892 4.64715C7.51931 4.50636 7.44892 4.29517 7.23773 4.29517C7.16733 4.29517 7.09693 4.29517 7.02654 4.29517C6.95614 4.29517 6.88574 4.29517 6.81535 4.29517C6.60416 4.29517 6.53376 4.50636 6.60416 4.64715C6.67455 4.71755 6.67455 4.78794 6.74495 4.85834C6.74495 4.92873 6.81535 4.99913 6.81535 5.06953C6.81535 5.21032 6.74495 5.42151 6.74495 5.5623C6.74495 5.6327 6.74495 5.7031 6.74495 5.77349C6.81535 5.98468 6.88574 6.12548 6.95614 6.33667L7.02654 6.40706L7.09693 6.33667C7.16733 6.12548 7.23773 5.98468 7.30812 5.77349V5.7031C7.30812 5.5623 7.30812 5.42151 7.23773 5.28072C7.23773 5.06953 7.23773 4.78794 7.44892 4.64715C7.37852 4.64715 7.44892 4.64715 7.44892 4.64715Z" fill="#3296BD"/>
</svg>
