<svg width="20" height="20" viewBox="0 0 20 20" fill="none" xmlns="http://www.w3.org/2000/svg">
<g opacity="0.6">
<path d="M9.27087 14.6875H11.1459V13.75H12.0834C12.599 13.75 13.0209 13.3281 13.0209 12.8125V10C13.0209 9.48438 12.599 9.0625 12.0834 9.0625H9.27087V8.125H13.0209V6.25H11.1459V5.3125H9.27087V6.25H8.33337C7.81775 6.25 7.39587 6.67188 7.39587 7.1875V10C7.39587 10.5156 7.81775 10.9375 8.33337 10.9375H11.1459V11.875H7.39587V13.75H9.27087V14.6875ZM17.7084 2.5H2.70837C1.66775 2.5 0.842749 3.33437 0.842749 4.375L0.833374 15.625C0.833374 16.6656 1.66775 17.5 2.70837 17.5H17.7084C18.749 17.5 19.5834 16.6656 19.5834 15.625V4.375C19.5834 3.33437 18.749 2.5 17.7084 2.5ZM17.7084 15.625H2.70837V4.375H17.7084V15.625Z" fill="#272727"/>
</g>
</svg>
