<svg width="15" height="15" viewBox="0 0 15 15" fill="none" xmlns="http://www.w3.org/2000/svg">
<path d="M7.80088 7.96318C7.73049 8.31517 7.58969 8.52636 7.30811 8.52636C7.02652 8.52636 6.88573 8.31517 6.81533 7.96318C5.54819 7.82239 4.28105 7.6112 3.2955 6.69604C3.2955 7.82239 3.2955 8.87834 3.2955 9.86389C3.2955 10.3567 3.50669 10.5679 3.99947 10.5679C6.25216 10.5679 8.50485 10.5679 10.7575 10.5679C11.2503 10.5679 11.4615 10.3567 11.4615 9.86389C11.4615 8.87834 11.4615 7.89279 11.4615 6.90723C11.4615 6.83684 11.4615 6.76644 11.4615 6.69604C10.3352 7.6112 9.06802 7.82239 7.80088 7.96318Z" fill="#3296BD"/>
<path d="M10.6872 5.07695C10.2648 5.07695 9.8424 5.07695 9.49041 5.07695C9.49041 5.00655 9.49041 4.93615 9.49041 4.86576C9.49041 4.30258 9.20883 4.021 8.64565 4.021C7.87129 4.021 7.09693 4.021 6.32257 4.021C5.40741 4.021 5.26662 4.16179 5.19622 5.07695C4.77384 5.07695 4.28107 5.07695 3.85869 5.07695C3.5067 5.07695 3.29551 5.28813 3.29551 5.64012C3.15472 6.13289 3.36591 6.48488 3.78829 6.76646C4.70345 7.40003 5.75939 7.61122 6.81534 7.61122C6.88574 7.54083 6.81534 7.25924 7.37852 7.25924C7.8009 7.25924 7.87129 7.40003 7.94169 7.61122C8.22328 7.54083 8.57526 7.54083 8.85684 7.47043C9.63121 7.32964 10.3352 7.11845 10.9687 6.62567C11.3207 6.41448 11.4615 6.13289 11.4615 5.64012C11.3207 5.28813 11.1799 5.07695 10.6872 5.07695ZM9.13843 5.07695C7.94169 5.07695 6.67455 5.07695 5.47781 5.07695C5.33701 4.58417 5.5482 4.30258 5.97058 4.30258C6.81534 4.30258 7.6601 4.30258 8.57526 4.30258C9.06803 4.30258 9.20883 4.51377 9.13843 5.07695Z" fill="#3296BD"/>
<path d="M7.30812 0.219604C3.43631 0.219604 0.268463 3.38745 0.268463 7.25926C0.268463 11.2015 3.43631 14.3693 7.30812 14.3693C11.1799 14.3693 14.3478 11.2015 14.3478 7.25926C14.3478 3.38745 11.1799 0.219604 7.30812 0.219604ZM7.23773 13.8061C3.6475 13.8061 0.761239 10.8495 0.831636 7.25926C0.831636 3.66904 3.78829 0.782777 7.30812 0.782777C10.8983 0.782777 13.7846 3.73943 13.7846 7.32966C13.7846 10.9199 10.828 13.8765 7.23773 13.8061Z" fill="#3296BD"/>
</svg>
