<svg width="15" height="15" viewBox="0 0 15 15" fill="none" xmlns="http://www.w3.org/2000/svg">
<path d="M7.09691 0.471924C3.2251 0.471924 0.057251 3.63977 0.057251 7.51158C0.057251 11.4538 3.2251 14.6216 7.09691 14.6216C10.9687 14.6216 14.1366 11.4538 14.1366 7.51158C14.1366 3.63977 10.9687 0.471924 7.09691 0.471924ZM7.02651 14.1289C3.43629 14.1289 0.550027 11.1722 0.620424 7.58198C0.620424 3.99175 3.57708 1.10549 7.09691 1.10549C10.6871 1.10549 13.5734 4.06215 13.5734 7.65238C13.5734 11.2426 10.6167 14.1289 7.02651 14.1289Z" fill="#3296BD"/>
<path d="M9.06802 8.42679C8.71604 8.2156 8.43445 8.14521 8.08247 8.42679C7.80088 8.63798 7.58969 8.56759 7.30811 8.3564C6.95612 8.00442 6.60414 7.65243 6.25216 7.30045C6.04097 7.08926 6.04097 6.80767 6.18176 6.52608C6.25216 6.38529 6.39295 6.10371 6.25216 5.96291C5.97057 5.47014 5.61859 5.04776 5.337 4.55498C5.26661 4.48458 5.12581 4.41418 5.05542 4.41418C4.56264 4.41418 3.85867 5.18855 3.85867 5.82212C3.92907 6.03331 3.99947 6.38529 4.14026 6.73727C4.70343 7.93402 5.61859 8.91957 6.67454 9.76433C7.30811 10.2571 8.01207 10.6795 8.78644 10.8203C9.42 10.9611 10.0536 10.5387 10.2648 9.90512C10.3352 9.62354 10.3352 9.41234 10.124 9.27155C9.77199 8.91957 9.42 8.70838 9.06802 8.42679Z" fill="#3296BD"/>
</svg>
