<svg width="20" height="20" viewBox="0 0 20 20" fill="none" xmlns="http://www.w3.org/2000/svg">
<g opacity="0.6">
<path d="M14.9603 11.618L15.417 12.0788L11.0056 16.52H10.5586V16.069L14.9603 11.618ZM16.7093 8.67676C16.5879 8.67676 16.4616 8.72578 16.3693 8.81892L15.4802 9.71598L17.3021 11.5542L18.1912 10.6572C18.3806 10.466 18.3806 10.1474 18.1912 9.96599L17.0543 8.81892C16.9571 8.72088 16.8357 8.67676 16.7093 8.67676ZM14.9603 10.2405L9.58691 15.6621V17.5004H11.4088L16.7822 12.0788L14.9603 10.2405Z" fill="#272727"/>
<path d="M1.66663 13.9707V16.6178H8.66371V14.9501H3.32843V13.9707C3.32843 13.406 6.06604 12.1177 8.66371 12.1177C9.50336 12.1266 10.3343 12.2413 11.1389 12.453L12.4684 11.1119C11.2439 10.6971 9.97566 10.4677 8.66371 10.4413C6.32843 10.4413 1.66663 11.6148 1.66663 13.9707ZM8.66371 2.5C6.73076 2.5 5.16517 4.07943 5.16517 6.02945C5.16517 7.97947 6.73076 9.5589 8.66371 9.5589C10.5966 9.5589 12.1622 7.97947 12.1622 6.02945C12.1622 4.07943 10.5966 2.5 8.66371 2.5ZM8.66371 7.79417C7.70161 7.79417 6.91444 7.00887 6.91444 6.02945C6.91444 5.05003 7.70161 4.26472 8.66371 4.26472C9.6258 4.26472 10.413 5.05885 10.413 6.02945C10.413 7.00005 9.63455 7.79417 8.66371 7.79417Z" fill="#272727"/>
</g>
</svg>
