<svg width="20" height="20" viewBox="0 0 20 20" fill="none" xmlns="http://www.w3.org/2000/svg">
<g opacity="0.6">
<path d="M16.8181 2.5H3.18178C2.34844 2.5 1.66663 3.175 1.66663 4V14.5C1.66663 15.325 2.34844 16 3.18178 16H6.96966V17.5H13.0303V16H16.8181C17.6515 16 18.3333 15.325 18.3333 14.5V4C18.3333 3.175 17.6515 2.5 16.8181 2.5ZM16.8181 14.5H3.18178V4H16.8181V14.5ZM15.303 5.5H6.96966V7H15.303V5.5ZM15.303 8.5H6.96966V10H15.303V8.5ZM6.21208 6.25L4.69693 5.5V7L6.21208 6.25ZM6.21208 9.25L4.69693 8.5V10L6.21208 9.25Z" fill="#272727"/>
<path d="M6.96966 11.5H15.303V13H6.96966V11.5Z" fill="#272727"/>
<path d="M4.69693 11.5L6.21208 12.25L4.69693 13V11.5Z" fill="#272727"/>
</g>
</svg>
