<svg width="18" height="18" viewBox="0 0 18 18" fill="none" xmlns="http://www.w3.org/2000/svg">
<g opacity="0.6">
<path d="M10.7763 5.09211V3.67105H7.93421V5.09211H10.7763ZM3.67105 6.51316V14.3289H15.0395V6.51316H3.67105ZM15.0395 5.09211C15.8282 5.09211 16.4605 5.72447 16.4605 6.51316V14.3289C16.4605 15.1176 15.8282 15.75 15.0395 15.75H3.67105C2.88237 15.75 2.25 15.1176 2.25 14.3289L2.25711 6.51316C2.25711 5.72447 2.88237 5.09211 3.67105 5.09211H6.51316V3.67105C6.51316 2.88237 7.14553 2.25 7.93421 2.25H10.7763C11.565 2.25 12.1974 2.88237 12.1974 3.67105V5.09211H15.0395Z" fill="#272727"/>
</g>
</svg>
