<svg width="18" height="18" viewBox="0 0 18 18" fill="none" xmlns="http://www.w3.org/2000/svg">
<g opacity="0.6">
<path fill-rule="evenodd" clip-rule="evenodd" d="M9 15.75C12.7279 15.75 15.75 12.7279 15.75 9C15.75 5.27208 12.7279 2.25 9 2.25C5.27208 2.25 2.25 5.27208 2.25 9C2.25 12.7279 5.27208 15.75 9 15.75ZM8.99999 14.329C11.9431 14.329 14.3289 11.9431 14.3289 9.00003C14.3289 6.05693 11.9431 3.67108 8.99999 3.67108C6.0569 3.67108 3.67105 6.05693 3.67105 9.00003C3.67105 11.9431 6.0569 14.329 8.99999 14.329Z" fill="#272727"/>
<path d="M5.09204 9.99446V9.53022L6.04611 7.84506H5.09204V7.22363H6.83934V7.79754L5.95655 9.37303H6.83934V9.99446H5.09204Z" fill="#272727"/>
<path d="M8.68534 9.99446V9.76965H8.67803C8.62563 9.86956 8.53851 9.94572 8.41666 9.99811C8.31188 10.0432 8.19673 10.0657 8.07123 10.0657C7.75808 10.0657 7.50402 9.9579 7.30907 9.74223C7.12142 9.53265 7.0276 9.27007 7.0276 8.95448C7.0276 8.64377 7.12325 8.38302 7.31455 8.17222C7.51316 7.95411 7.76539 7.84506 8.07123 7.84506C8.19551 7.84506 8.31005 7.86821 8.41484 7.91451C8.53181 7.96569 8.61954 8.04001 8.67803 8.13749H8.68534V7.91634H9.30676V9.99446H8.68534ZM8.68534 8.95448C8.68534 8.80217 8.63599 8.67606 8.53729 8.57615C8.4386 8.47623 8.3137 8.42627 8.16261 8.42627C8.01274 8.42627 7.88906 8.47867 7.79158 8.58346C7.69654 8.68459 7.64902 8.8107 7.64902 8.9618C7.64902 9.10679 7.69837 9.22986 7.79707 9.33099C7.8982 9.43335 8.02127 9.48452 8.16627 9.48452C8.31614 9.48452 8.44042 9.43396 8.53912 9.33282C8.6366 9.23169 8.68534 9.10558 8.68534 8.95448Z" fill="#272727"/>
<path d="M9.76004 9.99446V7.22363H10.3815V9.99446H9.76004Z" fill="#272727"/>
<path d="M12.9732 8.95448C12.9732 9.27129 12.8659 9.53448 12.6515 9.74406C12.4383 9.95364 12.172 10.0584 11.8528 10.0584C11.5335 10.0584 11.2679 9.95364 11.0559 9.74406C10.8414 9.53448 10.7342 9.27129 10.7342 8.95448C10.7342 8.63646 10.8414 8.37266 11.0559 8.16308C11.2679 7.9535 11.5335 7.84871 11.8528 7.84871C12.172 7.84871 12.4383 7.9535 12.6515 8.16308C12.8659 8.37266 12.9732 8.63646 12.9732 8.95448ZM12.3517 8.95448C12.3517 8.8107 12.3048 8.68825 12.211 8.58711C12.1148 8.48232 11.9953 8.42993 11.8528 8.42993C11.7114 8.42993 11.5926 8.48232 11.4964 8.58711C11.4026 8.68825 11.3556 8.8107 11.3556 8.95448C11.3556 9.09705 11.4026 9.2195 11.4964 9.32186C11.5926 9.42543 11.7114 9.47721 11.8528 9.47721C11.9953 9.47721 12.1148 9.42543 12.211 9.32186C12.3048 9.2195 12.3517 9.09705 12.3517 8.95448Z" fill="#272727"/>
</g>
</svg>
