<svg width="18" height="18" viewBox="0 0 18 18" fill="none" xmlns="http://www.w3.org/2000/svg">
<path d="M11.0795 5.31818V12.375C11.0795 13.7311 9.98114 14.8295 8.625 14.8295C7.26886 14.8295 6.17045 13.7311 6.17045 12.375V4.70455C6.17045 3.85773 6.85773 3.17045 7.70455 3.17045C8.55136 3.17045 9.23864 3.85773 9.23864 4.70455V11.1477C9.23864 11.4852 8.9625 11.7614 8.625 11.7614C8.2875 11.7614 8.01136 11.4852 8.01136 11.1477V5.31818H7.09091V11.1477C7.09091 11.9945 7.77818 12.6818 8.625 12.6818C9.47182 12.6818 10.1591 11.9945 10.1591 11.1477V4.70455C10.1591 3.34841 9.06068 2.25 7.70455 2.25C6.34841 2.25 5.25 3.34841 5.25 4.70455V12.375C5.25 14.2405 6.75955 15.75 8.625 15.75C10.4905 15.75 12 14.2405 12 12.375V5.31818H11.0795Z" fill="#272727" fill-opacity="0.6"/>
</svg>
