<svg width="18" height="17" viewBox="0 0 18 17" fill="none" xmlns="http://www.w3.org/2000/svg">
<path d="M10.4196 4.0647C12.543 4.0647 14.7308 4.0647 16.8542 4.0647C17.562 4.0647 17.8194 4.31701 17.8194 5.01086C17.8194 8.54318 17.8194 12.0755 17.8194 15.6078C17.8194 16.4909 17.7551 16.554 16.8542 16.554C12.6074 16.554 8.29615 16.554 4.04929 16.554C3.34148 16.554 3.08409 16.3017 3.14844 15.6078C3.14844 12.0755 3.14844 8.54318 3.14844 5.01086C3.08409 4.0647 3.08409 4.0647 4.11363 4.0647C6.17272 4.0647 8.29615 4.0647 10.4196 4.0647ZM3.85625 15.4817C8.2318 15.4817 12.543 15.4817 16.9186 15.4817C16.9186 11.8863 16.9186 8.35395 16.9186 4.82162C12.543 4.82162 8.16745 4.82162 3.85625 4.82162C3.85625 8.41703 3.85625 11.9494 3.85625 15.4817Z" fill="#32A1C8"/>
<path d="M14.9882 3.49704C14.3447 3.74935 14.216 3.43396 14.0873 2.99242C14.023 2.61396 13.9586 2.17242 13.8299 1.73088C9.58307 2.4878 5.33621 3.30781 1.025 4.06474C1.47543 7.91245 2.89105 11.5079 2.37628 15.4186C2.24758 14.7248 2.11889 14.094 1.9902 13.4002C1.41108 10.3725 0.831963 7.34475 0.252845 4.38012C0.124153 3.74935 0.317192 3.43396 0.960655 3.37089C5.20751 2.61396 9.51872 1.79395 13.7656 0.973949C14.216 0.910872 14.5377 0.910872 14.6021 1.35241C14.7951 2.04626 14.8595 2.74011 14.9882 3.49704Z" fill="#32A1C8"/>
<path d="M10.9345 11.3186C11.578 10.8771 12.0927 10.4986 12.6719 10.1832C12.9292 10.0571 13.3153 9.994 13.5727 10.1202C14.4092 10.4986 15.2457 10.8771 16.0822 11.3186C16.2753 11.3817 16.4683 11.634 16.4683 11.7602C16.5326 12.8956 16.4683 13.9679 16.4683 15.1033C12.4145 15.1033 8.36066 15.1033 4.24249 15.1033C4.24249 13.9048 4.24249 12.7063 4.24249 11.5078C4.24249 11.3817 4.43553 11.1925 4.56422 11.0663C5.59377 10.2463 6.55896 9.4263 7.5885 8.6063C7.97458 8.29091 8.29631 8.29091 8.61804 8.73245C9.45455 9.55245 10.1624 10.3725 10.9345 11.3186Z" fill="#32A1C8"/>
<path d="M13.7015 5.6416C14.2806 5.6416 14.731 6.08314 14.731 6.65084C14.731 7.21853 14.2806 7.72315 13.6371 7.72315C13.058 7.72315 12.6076 7.28161 12.6076 6.71391C12.6076 6.08314 13.1223 5.6416 13.7015 5.6416Z" fill="#32A1C8"/>
</svg>
