<svg width="14" height="13" viewBox="0 0 14 13" fill="none" xmlns="http://www.w3.org/2000/svg">
<path d="M6.99998 12.825C3.49998 12.825 0.599976 9.92502 0.599976 6.42502C0.599976 2.82502 3.49998 0.0250244 6.99998 0.0250244C10.5 0.0250244 13.4 2.92502 13.4 6.42502C13.5 10.025 10.6 12.825 6.99998 12.825ZM6.99998 11.325C9.69998 11.325 11.9 9.12502 11.9 6.42502C11.9 3.72502 9.69998 1.52502 6.99998 1.52502C4.29998 1.52502 2.09998 3.72502 2.09998 6.42502C2.19998 9.12502 4.29998 11.325 6.99998 11.325Z" fill="#FF494E"/>
<path d="M10.2 8.52502C10.2 8.52502 10.1 8.52502 10.2 8.52502C9.79999 8.92502 9.49999 9.22502 9.19999 9.52502C9.09999 9.62502 9.09999 9.62502 8.99999 9.52502C8.39999 8.92502 7.79999 8.32502 7.19999 7.72502C6.99999 7.52502 6.99999 7.52502 6.89999 7.72502C6.79999 7.82502 6.59999 7.92502 6.49999 8.02502C6.39999 8.12502 6.19999 8.32502 6.09999 8.42502C5.79999 8.82502 5.39999 9.12502 5.09999 9.52502C4.99999 9.62502 4.99999 9.62502 4.89999 9.52502C4.59999 9.22502 4.29999 8.92502 3.99999 8.62502C3.89999 8.52502 3.89999 8.52502 3.99999 8.42502C4.59999 7.82502 5.19999 7.22502 5.79999 6.62502C5.89999 6.52502 5.89999 6.52502 5.79999 6.32502C5.19999 5.72502 4.59999 5.02502 3.99999 4.42502C3.89999 4.32502 3.89999 4.32502 3.99999 4.22502C4.29999 3.92502 4.59999 3.62502 4.89999 3.32502C4.99999 3.22502 4.99999 3.32502 5.09999 3.32502C5.69999 3.92502 6.29999 4.52502 6.89999 5.12502C6.99999 5.22502 6.99999 5.22502 7.19999 5.12502C7.79999 4.52502 8.29999 3.92502 8.89999 3.42502C9.09999 3.22502 9.09999 3.22502 9.39999 3.42502C9.59999 3.62502 9.89999 3.92502 10.1 4.12502C10.2 4.22502 10.2 4.32502 10.1 4.42502C9.49999 5.02502 8.89999 5.62502 8.19999 6.22502C8.09999 6.32502 8.09999 6.32502 8.19999 6.42502C8.79999 7.12502 9.49999 7.82502 10.2 8.52502C10.1 8.42502 10.2 8.42502 10.2 8.52502Z" fill="#FF494E"/>
</svg>
