<svg width="14" height="14" viewBox="0 0 14 14" fill="none" xmlns="http://www.w3.org/2000/svg">
<path d="M11.4983 9.90913C11.5798 10.7859 11.7429 11.583 11.8245 12.3802C11.8245 12.6193 11.906 12.8584 11.6614 12.9381C11.4167 13.0975 11.2536 13.0178 11.009 12.8584C9.62267 11.9019 8.3179 11.0251 6.93158 10.0685C6.76849 9.98884 6.60539 9.90913 6.4423 9.90913C5.21908 9.90913 4.0774 9.90913 2.85418 9.90913C1.22322 9.90913 0 8.79318 0 7.11926C0 5.68447 0 4.24968 0 2.81489C0 1.22068 1.14167 0.0250244 2.85418 0.0250244C5.54527 0.0250244 8.23635 0.0250244 10.9274 0.0250244C12.5584 0.0250244 13.7816 1.22068 13.7816 2.81489C13.7816 4.24968 13.7816 5.60476 13.7816 7.03955C13.7816 8.39463 13.0477 9.35115 11.6614 9.74971C11.5798 9.90913 11.4983 9.90913 11.4983 9.90913ZM10.7643 11.7425C10.7643 11.583 10.7643 11.5033 10.7643 11.4236C10.6828 10.8657 10.6012 10.3077 10.5197 9.74971C10.4382 9.35115 10.6012 9.19173 11.009 9.11202C12.0691 9.03231 12.803 8.31492 12.803 7.27868C12.803 5.84389 12.803 4.4091 12.803 2.97431C12.803 1.85837 12.0691 1.06126 10.9274 1.06126C8.23635 1.06126 5.54527 1.06126 2.85418 1.06126C1.71251 1.06126 0.978574 1.85837 0.978574 2.97431C0.978574 4.4091 0.978574 5.84389 0.978574 7.19897C0.978574 8.31492 1.71251 9.11202 2.93573 9.11202C4.2405 9.11202 5.46372 9.11202 6.76848 9.11202C6.93158 9.11202 7.17623 9.19173 7.33932 9.27144C8.39945 9.98884 9.54112 10.7062 10.6012 11.5033C10.6012 11.583 10.6828 11.6628 10.7643 11.7425Z" fill="#32A1C8"/>
<path d="M6.84998 5.52513C5.54521 5.52513 4.24044 5.52513 3.01722 5.52513C2.93567 5.52513 2.85413 5.52513 2.77258 5.52513C2.52793 5.44542 2.36484 5.36571 2.36484 5.12658C2.36484 4.88745 2.52793 4.72803 2.77258 4.64832C2.85413 4.64832 2.93567 4.64832 3.01722 4.64832C5.62676 4.64832 8.23629 4.64832 10.8458 4.64832C10.9274 4.64832 11.0089 4.64832 11.0089 4.64832C11.2536 4.64832 11.4167 4.88745 11.4167 5.12658C11.4167 5.36571 11.2536 5.52513 11.0089 5.52513C10.9274 5.52513 10.8458 5.52513 10.7643 5.52513C9.45951 5.52513 8.15475 5.52513 6.84998 5.52513Z" fill="#32A1C8"/>
<path d="M6.84998 6.88013C8.15475 6.88013 9.45951 6.88013 10.7643 6.88013C10.8458 6.88013 10.9274 6.88013 11.0089 6.88013C11.2536 6.88013 11.4167 7.11926 11.4167 7.27868C11.4167 7.51781 11.2536 7.67723 11.0089 7.75694C10.9274 7.75694 10.8458 7.75694 10.8458 7.75694C8.23629 7.75694 5.62676 7.75694 3.01722 7.75694C2.93567 7.75694 2.85413 7.75694 2.77258 7.75694C2.52793 7.75694 2.36484 7.51781 2.36484 7.27868C2.36484 7.03955 2.52793 6.88013 2.77258 6.88013C2.85413 6.88013 2.93567 6.88013 3.01722 6.88013C4.24044 6.88013 5.54521 6.88013 6.84998 6.88013Z" fill="#32A1C8"/>
<path d="M7.99154 2.41638C8.97012 2.41638 9.86714 2.41638 10.8457 2.41638C11.2535 2.41638 11.4166 2.5758 11.4166 2.81493C11.4166 3.13378 11.1719 3.2932 10.8457 3.2932C8.97012 3.2932 7.01296 3.2932 5.13736 3.2932C4.89271 3.2932 4.72962 3.21349 4.64807 3.05407C4.64807 2.89464 4.64807 2.73522 4.72962 2.65551C4.81117 2.5758 5.05582 2.49609 5.21891 2.49609C6.11594 2.41638 7.09451 2.41638 7.99154 2.41638Z" fill="#32A1C8"/>
</svg>
