<svg width="10" height="13" viewBox="0 0 10 13" fill="none" xmlns="http://www.w3.org/2000/svg">
<path d="M9.9491 4.79554C9.9491 2.3986 7.95436 0.380127 5.44486 0.380127C2.9997 0.380127 0.940613 2.33552 0.940613 4.79554C0.940613 5.42631 1.0693 6.05708 1.32669 6.5617C1.45538 6.81401 1.58407 7.06632 1.77711 7.31863C2.16319 8.01248 2.871 9.02171 3.77185 10.0309C4.54401 10.914 4.93009 11.9233 5.18747 12.7433C5.25182 12.9956 5.6379 12.9956 5.70224 12.7433C5.95963 11.9233 6.34571 10.914 7.11786 10.0309C8.01871 9.02171 8.66217 7.9494 9.1126 7.31863C9.30564 7.06632 9.43433 6.81401 9.56302 6.5617C9.82041 6.05708 9.9491 5.42631 9.9491 4.79554ZM5.5092 6.94016C4.28662 6.94016 3.32143 5.994 3.32143 4.79554C3.32143 3.59707 4.28662 2.65091 5.5092 2.65091C6.73178 2.65091 7.69698 3.59707 7.69698 4.79554C7.69698 5.994 6.73178 6.94016 5.5092 6.94016Z" fill="#32A1C8"/>
</svg>
