<svg width="22" height="12" viewBox="0 0 22 12" fill="none" xmlns="http://www.w3.org/2000/svg">
<path d="M8.58258 11.4911C6.45915 11.4911 4.40007 11.4911 2.27664 11.4911C0.989718 11.4911 0.474945 10.9865 0.474945 9.72492C0.474945 7.07567 0.474945 4.4895 0.474945 1.84026C0.474945 0.641792 0.989718 0.0740967 2.27664 0.0740967C6.5235 0.0740967 10.7704 0.0740967 14.9529 0.0740967C15.532 0.0740967 15.9824 0.263329 16.4328 0.641792C17.7841 1.96641 19.1354 3.29104 20.4867 4.61566C21.2588 5.37259 21.2588 6.12951 20.4867 6.88644C19.1354 8.21106 17.7841 9.53569 16.4328 10.8603C16.0468 11.2388 15.5963 11.428 15.0816 11.428C12.8938 11.4911 10.7704 11.4911 8.58258 11.4911ZM10.5773 3.35411C10.4486 2.78642 10.7704 1.90334 9.80517 1.90334C8.83997 1.90334 9.22605 2.78642 9.03301 3.35411C8.3252 3.35411 7.68174 3.35411 7.03827 3.35411C6.90958 2.21872 6.78089 1.90334 6.26612 1.90334C5.30092 1.96641 5.687 2.78642 5.49396 3.35411C4.97919 3.54335 4.07834 3.16488 4.01399 4.04796C3.94965 5.12028 4.97919 4.61566 5.49396 4.86797C5.49396 5.56182 5.49396 6.19259 5.49396 6.82336C4.91485 6.94952 4.07834 6.63413 4.01399 7.51721C4.01399 8.52645 4.97919 8.08491 5.49396 8.27414C5.62266 8.77876 5.23657 9.66184 6.20177 9.66184C7.23131 9.66184 6.84523 8.77876 6.97392 8.27414C7.68173 8.27414 8.3252 8.27414 9.03301 8.27414C9.16171 8.84184 8.83997 9.66184 9.67648 9.66184C10.706 9.72492 10.3199 8.77876 10.513 8.21106C11.0921 8.08491 11.9929 8.4003 11.9929 7.45414C11.9929 6.50798 11.0921 6.88644 10.513 6.69721C10.513 6.00336 10.513 5.37259 10.513 4.74181C11.0921 4.61566 11.9929 4.93105 11.9929 3.98489C11.9929 3.16488 11.0921 3.48027 10.5773 3.35411ZM16.8833 4.74181C16.2398 4.74181 15.7894 5.24643 15.7894 5.87721C15.7894 6.4449 16.3041 6.94952 16.8833 6.94952C17.4624 6.94952 17.9772 6.4449 17.9772 5.87721C17.9772 5.24643 17.4624 4.74181 16.8833 4.74181Z" fill="#32A1C8"/>
<path d="M9.0974 6.82328C8.38959 6.82328 7.74613 6.82328 7.03832 6.82328C7.03832 6.12943 7.03832 5.49866 7.03832 4.80481C7.74613 4.80481 8.38959 4.80481 9.0974 4.80481C9.0974 5.49866 9.0974 6.12943 9.0974 6.82328Z" fill="#32A1C8"/>
</svg>
