<svg width="13" height="14" viewBox="0 0 13 14" fill="none" xmlns="http://www.w3.org/2000/svg">
<path d="M3.21687 1.75863C3.21687 2.07401 3.21687 2.32632 3.21687 2.64171C3.21687 2.70479 3.15253 2.70479 3.08818 2.76786C2.70211 3.02017 2.50906 3.46171 2.63775 3.90325C2.7021 4.34479 3.08818 4.66018 3.53861 4.72326C4.05338 4.78634 4.5038 4.53403 4.69684 4.09249C4.88988 3.65095 4.76119 3.08325 4.37511 2.83094C4.24642 2.76786 4.24641 2.70479 4.24641 2.57863C4.24641 2.32632 4.24641 2.07401 4.24641 1.8217C5.91941 1.8217 7.59243 1.8217 9.32978 1.8217C9.32978 2.07401 9.32978 2.3894 9.32978 2.64171L9.26543 2.70479C8.87935 2.9571 8.68631 3.39864 8.815 3.84018C8.87935 4.21864 9.26543 4.5971 9.65151 4.66018C10.1663 4.78634 10.6167 4.53403 10.8741 4.09249C11.0671 3.65095 10.9384 3.08325 10.5524 2.76786C10.488 2.70479 10.4237 2.64171 10.4237 2.51555C10.4237 2.26325 10.4237 2.01094 10.4237 1.75863C11.1958 1.5694 12.0323 1.88478 12.4184 2.45248C12.6114 2.70479 12.6758 3.02017 12.6758 3.33556C12.6758 5.54326 12.6758 7.81404 12.6758 10.0217C12.6758 10.6525 12.6758 11.2833 12.6758 11.9141C12.6758 12.671 12.2254 13.3018 11.4532 13.491C11.3245 13.5541 11.1315 13.5541 11.0028 13.5541C8.23588 13.5541 5.40464 13.5541 2.63775 13.5541C1.67256 13.5541 0.964752 12.8602 0.964752 11.9141C0.964752 9.07559 0.964752 6.23711 0.964752 3.33556C0.964752 2.57863 1.47952 1.88478 2.25168 1.75863C2.50906 1.75863 2.8308 1.75863 3.21687 1.75863ZM6.75592 12.2295C8.04285 12.2295 9.26543 12.2295 10.5524 12.2295C11.0671 12.2295 11.3889 11.9771 11.3889 11.4094C11.3889 9.58021 11.3889 7.75097 11.3889 5.92173C11.3889 5.79557 11.3889 5.73249 11.3889 5.60634C11.3245 5.29095 11.0028 5.10172 10.6167 5.10172C8.04285 5.10172 5.53334 5.10172 2.95948 5.10172C2.44471 5.10172 2.12299 5.35403 2.12299 5.92173C2.12299 7.75097 2.12299 9.58021 2.12299 11.4725C2.12299 11.9771 2.38037 12.2925 2.95948 12.2925C4.24641 12.2295 5.469 12.2295 6.75592 12.2295Z" fill="#32A1C8"/>
<path d="M9.39412 2.26321C9.39412 1.88474 9.39412 1.56936 9.39412 1.19089C9.39412 1.00166 9.45847 0.875506 9.65151 0.812429C9.84455 0.749351 9.97324 0.749351 10.1019 0.875506C10.2306 0.938583 10.295 1.06474 10.295 1.25397C10.295 1.94782 10.295 2.70475 10.295 3.3986C10.295 3.65091 10.1019 3.84014 9.84455 3.84014C9.58717 3.84014 9.39412 3.65091 9.39412 3.3986C9.39412 2.95706 9.39412 2.57859 9.39412 2.26321Z" fill="#32A1C8"/>
<path d="M3.28143 2.26337C3.28143 1.8849 3.28143 1.56952 3.28143 1.19105C3.28143 0.938743 3.47448 0.749512 3.73187 0.749512C3.98925 0.749512 4.18229 0.938743 4.18229 1.19105C4.18229 1.8849 4.18229 2.64183 4.18229 3.33568C4.18229 3.58799 3.98925 3.77722 3.73187 3.77722C3.47448 3.77722 3.28143 3.58799 3.28143 3.33568C3.28143 2.95722 3.28143 2.64183 3.28143 2.26337Z" fill="#32A1C8"/>
<path d="M5.14726 7.30931C5.14726 6.93084 5.14726 6.4893 5.14726 6.11084C5.59769 6.11084 5.98377 6.11084 6.43419 6.11084C6.43419 6.4893 6.43419 6.93084 6.43419 7.30931C5.98377 7.30931 5.59769 7.30931 5.14726 7.30931Z" fill="#32A1C8"/>
<path d="M8.36473 7.30931C7.91431 7.30931 7.52823 7.30931 7.0778 7.30931C7.0778 6.93084 7.0778 6.4893 7.0778 6.11084C7.52823 6.11084 7.91431 6.11084 8.36473 6.11084C8.36473 6.4893 8.36473 6.86777 8.36473 7.30931Z" fill="#32A1C8"/>
<path d="M10.3595 6.0481C10.3595 6.48964 10.3595 6.8681 10.3595 7.24656C9.9091 7.24656 9.52303 7.24656 9.0726 7.24656C9.0726 6.8681 9.0726 6.42656 9.0726 6.0481C9.52303 6.0481 9.97345 6.0481 10.3595 6.0481Z" fill="#32A1C8"/>
<path d="M3.1525 8.00317C3.60292 8.00317 3.989 8.00317 4.43942 8.00317C4.43942 8.38164 4.43942 8.82318 4.43942 9.20164C3.989 9.20164 3.60292 9.20164 3.1525 9.20164C3.1525 8.82318 3.1525 8.44471 3.1525 8.00317Z" fill="#32A1C8"/>
<path d="M6.43419 8.00317C6.43419 8.44471 6.43419 8.82318 6.43419 9.20164C5.98377 9.20164 5.59769 9.20164 5.14726 9.20164C5.14726 8.82318 5.14726 8.38164 5.14726 8.00317C5.59769 8.00317 5.98377 8.00317 6.43419 8.00317Z" fill="#32A1C8"/>
<path d="M8.36473 8.00317C8.36473 8.44471 8.36473 8.82318 8.36473 9.20164C7.91431 9.20164 7.52823 9.20164 7.0778 9.20164C7.0778 8.82318 7.0778 8.38164 7.0778 8.00317C7.52823 8.00317 7.91431 8.00317 8.36473 8.00317Z" fill="#32A1C8"/>
<path d="M10.3595 8.00317C10.3595 8.44471 10.3595 8.82318 10.3595 9.20164C9.9091 9.20164 9.52303 9.20164 9.0726 9.20164C9.0726 8.82318 9.0726 8.38164 9.0726 8.00317C9.52303 8.00317 9.97345 8.00317 10.3595 8.00317Z" fill="#32A1C8"/>
<path d="M3.1525 11.1572C3.1525 10.7157 3.1525 10.3372 3.1525 9.95874C3.60292 9.95874 3.989 9.95874 4.43942 9.95874C4.43942 10.3372 4.43942 10.7787 4.43942 11.1572C3.989 11.1572 3.53857 11.1572 3.1525 11.1572Z" fill="#32A1C8"/>
<path d="M5.14726 10.0219C5.59769 10.0219 5.98377 10.0219 6.43419 10.0219C6.43419 10.4003 6.43419 10.8419 6.43419 11.2203C5.98377 11.2203 5.59769 11.2203 5.14726 11.2203C5.14726 10.8419 5.14726 10.4003 5.14726 10.0219Z" fill="#32A1C8"/>
<path d="M8.36473 10.0219C8.36473 10.4634 8.36473 10.8419 8.36473 11.2203C7.91431 11.2203 7.52823 11.2203 7.0778 11.2203C7.0778 10.8419 7.0778 10.4003 7.0778 10.0219C7.52823 10.0219 7.91431 10.0219 8.36473 10.0219Z" fill="#32A1C8"/>
</svg>
