<svg width="18" height="19" viewBox="0 0 18 19" fill="none" xmlns="http://www.w3.org/2000/svg">
<path d="M7.15909 16.1967H12.6818C13.1911 16.1967 13.6268 15.8592 13.8109 15.3732L15.6641 10.6144C15.7193 10.4592 15.75 10.2972 15.75 10.1217V8.77166C15.75 8.02916 15.1977 7.42166 14.5227 7.42166H10.6507L11.2336 4.33691L11.252 4.12091C11.252 3.84416 11.1477 3.58766 10.982 3.40541L10.3316 2.69666L6.28773 7.14491C6.06682 7.38791 5.93182 7.72541 5.93182 8.09666V14.8467C5.93182 15.5892 6.48409 16.1967 7.15909 16.1967ZM7.15909 8.09666L9.82227 5.16716L9 8.77166H14.5227V10.1217L12.6818 14.8467H7.15909V8.09666ZM2.25 8.09666H4.70455V16.1967H2.25V8.09666Z" fill="#32A1C8"/>
</svg>
