<!-- <?xml version="1.0" encoding="iso-8859-1"?>
Generator: Adobe Illustrator 19.0.0, SVG Export Plug-In . SVG Version: 6.00 Build 0)
<svg version="1.1" id="Layer_1" xmlns="http://www.w3.org/2000/svg" xmlns:xlink="http://www.w3.org/1999/xlink" x="0px" y="0px"
	 viewBox="0 0 612 612" width="24" height="24" style="enable-background:new 0 0 512 512;" xml:space="preserve">
<g>
	<g>
		<g>
			<path d="M160,224H53.333C23.936,224,0,247.936,0,277.333V448c0,29.397,23.936,53.333,53.333,53.333h64
				c29.397,0,53.333-23.936,53.333-53.333V234.667C170.667,228.779,165.888,224,160,224z" fill="#0571ed"/>
			<path d="M512,304c0-12.821-5.099-24.768-13.867-33.6c9.963-10.901,15.04-25.536,13.632-40.725
				c-2.496-27.115-26.944-48.341-55.637-48.341H324.373c6.507-19.819,16.96-56.149,16.96-85.333c0-46.272-39.317-85.333-64-85.333
				c-22.165,0-37.995,12.459-38.677,12.992c-2.539,2.027-3.989,5.099-3.989,8.341v72.32l-47.957,103.893
				c-1.472,3.221-1.28,6.955,0.555,9.984c3.136,5.184,4.736,10.731,4.736,16.448v213.333c0,5.141-0.597,10.368-1.835,16.021
				c-1.259,5.739,2.347,11.413,8.064,12.693c9.365,2.112,18.539,3.285,25.771,3.285h195.819c23.232,0,43.563-15.659,48.32-37.269
				c2.453-11.115,1.003-22.336-3.84-32.043c15.765-7.936,26.368-24.192,26.368-42.688c0-7.531-1.728-14.784-5.013-21.333
				C501.397,338.731,512,322.496,512,304z" fill="#0571ed"/>
		</g>
	</g>
</g>
<g>
</g>
<g>
</g>
<g>
</g>
<g>
</g>
<g>
</g>
<g>
</g>
<g>
</g>
<g>
</g>
<g>
</g>
<g>
</g>
<g>
</g>
<g>
</g>
<g>
</g>
<g>
</g>
<g>
</g>
</svg> -->

<svg width="12" height="13" viewBox="0 0 12 13" fill="none" xmlns="http://www.w3.org/2000/svg">
<path d="M3.05713 5.91076C3.17702 5.73093 3.23697 5.55109 3.35685 5.43121C3.4168 5.31132 3.59663 5.19143 3.71652 5.0116C3.89635 4.83177 4.07618 4.59199 4.25601 4.35222C4.67562 3.75278 4.97534 3.0934 5.27505 2.43402C5.39494 2.1343 5.51483 1.89452 5.63472 1.5948C5.69466 1.47492 5.69466 1.35503 5.69466 1.23514C5.69466 0.995365 5.69466 0.75559 5.75461 0.575758C5.87449 0.156151 6.11427 -0.0236799 6.53387 0.0362639C6.95348 0.0962077 7.37309 0.276039 7.61286 0.575758C7.7927 0.815533 7.91258 1.11525 7.97253 1.41497C8.03247 1.95447 7.91258 2.49396 7.73275 3.03345C7.61286 3.39312 7.55292 3.69284 7.43303 4.0525C7.37309 4.17239 7.37309 4.35222 7.37309 4.53205C7.55292 4.47211 7.73275 4.47211 7.85264 4.41216C8.51202 4.29227 9.11146 4.23233 9.77084 4.29227C10.1904 4.35222 10.6101 4.41216 10.9098 4.71188C11.3893 5.07154 11.5692 5.67098 11.3893 6.21048C11.3893 6.27042 11.3893 6.33036 11.4493 6.45025C11.749 6.9298 11.8089 7.52924 11.4493 8.06873C11.3893 8.18862 11.3294 8.24857 11.3893 8.36845C11.5692 8.90795 11.3893 9.44744 11.0297 9.86705C10.9098 9.98694 10.9098 10.0469 10.9098 10.2267C10.9098 10.7662 10.7299 11.1858 10.2504 11.4855C9.83078 11.7852 9.29129 11.9651 8.7518 12.025C8.2123 12.025 7.73275 12.025 7.19326 12.025C6.95348 12.025 6.65376 12.025 6.41399 12.025C5.39494 12.025 4.31595 11.9051 3.29691 11.7852C3.23697 11.7852 3.11708 11.7852 3.05713 11.8452C2.8773 11.9651 2.69747 11.9651 2.51764 11.9651C2.03809 11.9651 1.55854 11.9651 1.07899 11.9651C0.659382 11.9651 0.299719 11.7852 0.119888 11.3656C0 11.1858 0 11.006 0 10.8261C0 9.50739 0 8.18862 0 6.86986C0 6.21048 0.47955 5.79087 1.07899 5.79087C1.55854 5.79087 2.03809 5.79087 2.51764 5.79087C2.69747 5.79087 2.8773 5.79087 3.05713 5.91076ZM3.59663 11.1259H3.65657C4.31595 11.1858 4.91539 11.2458 5.57477 11.3057C6.53387 11.3656 7.49298 11.4256 8.51202 11.3656C8.87168 11.3656 9.29129 11.2458 9.59101 11.0659C10.0106 10.8261 10.2504 10.5264 10.1305 9.98694C10.0706 9.86705 10.1305 9.74716 10.2504 9.62727C10.3103 9.56733 10.3103 9.56733 10.3703 9.50739C10.6101 9.32755 10.7299 9.08778 10.7299 8.78806C10.7299 8.60823 10.67 8.48834 10.6101 8.30851C10.5501 8.18862 10.5501 8.00879 10.67 7.8889C10.7299 7.82896 10.7299 7.82896 10.7899 7.76901C10.9098 7.64913 10.9697 7.52924 10.9697 7.34941C11.0297 7.04969 10.9098 6.86986 10.7299 6.63008C10.5501 6.45025 10.5501 6.33036 10.67 6.09059C10.9098 5.67098 10.7299 5.25138 10.3103 5.07154C10.0106 4.95166 9.65095 4.95166 9.35123 4.89171C8.69185 4.89171 8.09241 5.0116 7.49298 5.13149C7.13331 5.19143 6.83359 5.0116 6.77365 4.65194C6.71371 4.41216 6.71371 4.17239 6.77365 3.93261C6.89354 3.45306 7.01343 3.03345 7.13331 2.5539C7.19326 2.25418 7.31314 1.83458 7.19326 1.41497C7.13331 0.995365 6.83359 0.75559 6.41399 0.75559C6.35404 0.75559 6.2941 0.755589 6.2941 0.815533C6.2941 0.935421 6.23416 1.11525 6.2941 1.23514C6.2941 1.47492 6.2941 1.65475 6.23416 1.83458C5.87449 2.73374 5.45489 3.63289 4.97534 4.47211C4.73556 4.83177 4.49579 5.19143 4.19607 5.49115C3.89635 5.73093 3.71652 6.03064 3.59663 6.39031C3.59663 6.45025 3.59663 6.45025 3.59663 6.5102C3.59663 6.69003 3.59663 6.80991 3.59663 6.86986C3.59663 8.18862 3.59663 9.50738 3.59663 10.7662C3.59663 10.8861 3.59663 11.006 3.59663 11.1259ZM0.659382 8.848C0.659382 9.50739 0.659382 10.1668 0.659382 10.8861C0.659382 11.1259 0.839213 11.3057 1.07899 11.3057C1.55854 11.3057 2.03809 11.3057 2.51764 11.3057C2.81736 11.3057 2.93725 11.1858 2.93725 10.8861C2.93725 9.56733 2.93725 8.24857 2.93725 6.9298C2.93725 6.63008 2.81736 6.5102 2.51764 6.5102C2.03809 6.5102 1.55854 6.5102 1.13893 6.5102C0.839213 6.5102 0.719326 6.63008 0.719326 6.9298C0.659382 7.52924 0.659382 8.18862 0.659382 8.848Z" fill="#32A1C8"/>
</svg>
