<svg width="14" height="14" viewBox="0 0 14 14" fill="none" xmlns="http://www.w3.org/2000/svg">
<g clip-path="url(#clip0_3172_7219)">
<path d="M8.16667 1.75H3.96667C3.68819 1.75 3.42112 1.86062 3.22421 2.05754C3.0273 2.25445 2.91667 2.52152 2.91667 2.8V11.2C2.91667 11.7828 3.38392 12.25 3.96667 12.25H10.2667C10.8494 12.25 11.3167 11.7828 11.3167 11.2V4.9L8.16667 1.75ZM10.2667 11.2H3.96667V2.8H7.64167V5.425H10.2667V11.2Z" fill="#200E32"/>
<path d="M4.66667 9.30338L5.26863 8.42088L4.72314 7.61221H5.13887L5.49211 8.15556L5.83814 7.61221H6.25026L5.70237 8.43357L6.30433 9.30338H5.87539L5.4849 8.71851L5.09321 9.30338H4.66667Z" fill="#200E32"/>
<path d="M6.49657 9.30338V7.62606H6.85222V9.01844H7.73653V9.30338H6.49657Z" fill="#200E32"/>
<path d="M7.90114 8.75312L8.24717 8.72082C8.268 8.83233 8.31005 8.91424 8.37333 8.96653C8.43741 9.01883 8.52352 9.04498 8.63166 9.04498C8.7462 9.04498 8.83231 9.0219 8.88998 8.97576C8.94845 8.92885 8.97769 8.87424 8.97769 8.81195C8.97769 8.77196 8.96528 8.73812 8.94044 8.71043C8.91641 8.68198 8.87396 8.65737 8.81308 8.6366C8.77143 8.62276 8.67651 8.59815 8.52833 8.56277C8.33769 8.5174 8.20392 8.46164 8.12702 8.3955C8.01889 8.30245 7.96482 8.18901 7.96482 8.05519C7.96482 7.96906 7.99005 7.88869 8.04051 7.81409C8.09178 7.73872 8.16507 7.68143 8.26039 7.64221C8.35651 7.60299 8.47226 7.58337 8.60763 7.58337C8.8287 7.58337 8.99491 7.6299 9.10625 7.72296C9.21839 7.81602 9.27727 7.94022 9.28288 8.09557L8.92723 8.11057C8.91201 8.02366 8.87917 7.96137 8.8287 7.92368C8.77904 7.88523 8.70415 7.866 8.60402 7.866C8.50069 7.866 8.41979 7.88638 8.36132 7.92714C8.32367 7.95329 8.30485 7.98829 8.30485 8.03212C8.30485 8.07211 8.32247 8.10634 8.35771 8.13479C8.40257 8.17094 8.51151 8.20862 8.68452 8.24784C8.85754 8.28707 8.9853 8.32783 9.0678 8.37012C9.15111 8.41165 9.21599 8.46895 9.26245 8.54201C9.30971 8.6143 9.33334 8.7039 9.33334 8.8108C9.33334 8.9077 9.3053 8.99845 9.24923 9.08304C9.19316 9.16764 9.11386 9.2307 9.01133 9.27223C8.9088 9.31299 8.78104 9.33337 8.62805 9.33337C8.40537 9.33337 8.23436 9.28415 8.11501 9.18571C7.99566 9.08651 7.92437 8.94231 7.90114 8.75312Z" fill="#200E32"/>
</g>
<defs>
<clipPath id="clip0_3172_7219">
<rect width="14" height="14" fill="white"/>
</clipPath>
</defs>
</svg>
