<svg width="14" height="14" viewBox="0 0 14 14" fill="none" xmlns="http://www.w3.org/2000/svg">
<g clip-path="url(#clip0_3172_7230)">
<path d="M8.16666 1.75H3.96666C3.68818 1.75 3.42111 1.86062 3.22419 2.05754C3.02728 2.25445 2.91666 2.52152 2.91666 2.8V11.2C2.91666 11.7828 3.38391 12.25 3.96666 12.25H10.2667C10.8494 12.25 11.3167 11.7828 11.3167 11.2V4.9L8.16666 1.75ZM10.2667 11.2H3.96666V2.8H7.64166V5.425H10.2667V11.2Z" fill="#FF494E"/>
<path d="M5.25 9.35896V7.58337H5.82531C6.04332 7.58337 6.18543 7.59226 6.25164 7.61002C6.35338 7.63667 6.43857 7.6948 6.5072 7.78443C6.57584 7.87325 6.61015 7.98831 6.61015 8.12962C6.61015 8.23862 6.59037 8.33027 6.5508 8.40455C6.51124 8.47884 6.46077 8.53738 6.39941 8.58017C6.33885 8.62216 6.27708 8.65002 6.2141 8.66374C6.12851 8.6807 6.00456 8.68918 5.84227 8.68918H5.60851V9.35896H5.25ZM5.60851 7.88375V8.3876H5.80472C5.94602 8.3876 6.0405 8.37831 6.08813 8.35974C6.13577 8.34117 6.17292 8.3121 6.19956 8.27253C6.22702 8.23297 6.24074 8.18694 6.24074 8.13446C6.24074 8.06986 6.22177 8.01657 6.18382 7.97458C6.14587 7.9326 6.09782 7.90635 6.03969 7.89586C5.99689 7.88778 5.9109 7.88375 5.78171 7.88375H5.60851Z" fill="#FF494E"/>
<path d="M6.90326 7.58337H7.5585C7.70627 7.58337 7.81891 7.59468 7.89642 7.61729C8.00058 7.64797 8.08981 7.70247 8.16409 7.7808C8.23838 7.85912 8.2949 7.95521 8.33366 8.06906C8.37242 8.1821 8.39179 8.32179 8.39179 8.48812C8.39179 8.63427 8.37363 8.76023 8.33729 8.86601C8.29288 8.9952 8.2295 9.09977 8.14714 9.17971C8.08496 9.24026 8.00099 9.2875 7.89521 9.32141C7.81608 9.34644 7.71031 9.35896 7.57788 9.35896H6.90326V7.58337ZM7.26177 7.88375V9.0598H7.52944C7.62956 9.0598 7.70183 9.05415 7.74624 9.04284C7.80437 9.02831 7.85242 9.00368 7.89037 8.96896C7.92912 8.93424 7.96062 8.87732 7.98484 8.79819C8.00906 8.71825 8.02117 8.60965 8.02117 8.47238C8.02117 8.33511 8.00906 8.22974 7.98484 8.15626C7.96062 8.08278 7.9267 8.02545 7.8831 7.98427C7.8395 7.94309 7.78419 7.91524 7.71717 7.9007C7.66711 7.8894 7.569 7.88375 7.42285 7.88375H7.26177Z" fill="#FF494E"/>
<path d="M8.69943 9.35896V7.58337H9.91667V7.88375H9.05794V8.30402H9.79918V8.6044H9.05794V9.35896H8.69943Z" fill="#FF494E"/>
</g>
<defs>
<clipPath id="clip0_3172_7230">
<rect width="14" height="14" fill="white"/>
</clipPath>
</defs>
</svg>
