<svg width="19" height="18" viewBox="0 0 19 18" fill="none" xmlns="http://www.w3.org/2000/svg">
<path d="M13.0185 4.68224L11.4181 7.65361C11.0595 8.3192 10.9361 9.05004 11.0237 9.74129L7.62788 7.91217C8.27105 7.59925 8.80204 7.0879 9.15415 6.4342L10.7546 3.46282L13.0185 4.68224ZM15.3567 4.40825L9.69689 1.35971C9.38561 1.19204 8.98687 1.32228 8.81082 1.64913C8.63477 1.97598 8.74541 2.38059 9.0567 2.54826L9.62268 2.85311L8.02219 5.82449C7.49083 6.81099 6.3035 7.19881 5.36398 6.69275L4.72378 7.8813L8.10266 9.70128L5.86199 13.8612L6.10787 14.7603L6.99394 14.4709L9.23461 10.311L12.6475 12.1493L13.2876 10.9607C12.3481 10.4547 12.0186 9.24982 12.55 8.26332L14.1505 5.29194L14.7165 5.5968C15.0278 5.76447 15.4265 5.63423 15.6025 5.30738C15.7786 4.98053 15.6679 4.57592 15.3567 4.40825Z" fill="#272727"/>
</svg>
