<svg width="18" height="18" viewBox="0 0 18 18" fill="none" xmlns="http://www.w3.org/2000/svg">
<path d="M9.15 9C8.4075 9 7.8 8.3925 7.8 7.65C7.8 6.9075 8.4075 6.3 9.15 6.3C9.8925 6.3 10.5 6.9075 10.5 7.65C10.5 8.3925 9.8925 9 9.15 9ZM13.2 7.785C13.2 5.33475 11.4113 3.6 9.15 3.6C6.88875 3.6 5.1 5.33475 5.1 7.785C5.1 9.3645 6.41625 11.457 9.15 13.9545C11.8837 11.457 13.2 9.3645 13.2 7.785ZM9.15 2.25C11.985 2.25 14.55 4.4235 14.55 7.785C14.55 10.026 12.7478 12.6788 9.15 15.75C5.55225 12.6788 3.75 10.026 3.75 7.785C3.75 4.4235 6.315 2.25 9.15 2.25Z" fill="#272727" fill-opacity="0.6"/>
</svg>
