<svg width="17" height="18" viewBox="0 0 17 18" fill="none" xmlns="http://www.w3.org/2000/svg">
<path d="M16.1053 7.371H13.5195C11.3989 7.371 9.67211 5.634 9.67211 3.501V0.9C9.67211 0.405 9.26947 0 8.77737 0H4.98368C2.22789 0 0 1.8 0 5.013V12.987C0 16.2 2.22789 18 4.98368 18H12.0163C14.7721 18 17 16.2 17 12.987V8.271C17 7.776 16.5974 7.371 16.1053 7.371ZM8.07947 10.377C7.94526 10.512 7.77526 10.575 7.60526 10.575C7.43526 10.575 7.26526 10.512 7.13105 10.377L6.48684 9.729V13.5C6.48684 13.869 6.18263 14.175 5.81579 14.175C5.44895 14.175 5.14474 13.869 5.14474 13.5V9.729L4.50053 10.377C4.24105 10.638 3.81158 10.638 3.5521 10.377C3.29263 10.116 3.29263 9.684 3.5521 9.423L5.34158 7.623C5.40421 7.569 5.46684 7.524 5.53842 7.488C5.55632 7.479 5.58316 7.47 5.60105 7.461C5.65474 7.443 5.70842 7.434 5.77105 7.425C5.79789 7.425 5.81579 7.425 5.84263 7.425C5.91421 7.425 5.98579 7.443 6.05737 7.47C6.06632 7.47 6.06632 7.47 6.07526 7.47C6.14684 7.497 6.21842 7.551 6.27211 7.605C6.28105 7.614 6.29 7.614 6.29 7.623L8.07947 9.423C8.33895 9.684 8.33895 10.116 8.07947 10.377Z" fill="#FED035"/>
<path d="M13.4254 5.99118C14.2632 6 15.4274 6 16.424 6C16.9267 6 17.1913 5.40925 16.8385 5.05656C15.5685 3.77806 13.2931 1.47676 11.9878 0.171809C11.6262 -0.189697 11 0.0571854 11 0.559768V3.63698C11 4.9243 12.0936 5.99118 13.4254 5.99118Z" fill="#FED035"/>
</svg>
