<svg width="18" height="18" viewBox="0 0 18 18" fill="none" xmlns="http://www.w3.org/2000/svg">
<path d="M15.3518 8.7165L9.27675 2.6415C9.03375 2.3985 8.69625 2.25 8.325 2.25H3.6C2.8575 2.25 2.25 2.8575 2.25 3.6V8.325C2.25 8.69625 2.3985 9.03375 2.64825 9.2835L8.72325 15.3585C8.96625 15.6015 9.30375 15.75 9.675 15.75C10.0463 15.75 10.3837 15.6015 10.6267 15.3518L15.3518 10.6267C15.6015 10.3837 15.75 10.0463 15.75 9.675C15.75 9.30375 15.5948 8.9595 15.3518 8.7165ZM9.675 14.4068L3.6 8.325V3.6H8.325V3.59325L14.4 9.66825L9.675 14.4068Z" fill="#272727" fill-opacity="0.6"/>
<path d="M5.28752 6.30002C5.84671 6.30002 6.30002 5.84671 6.30002 5.28752C6.30002 4.72834 5.84671 4.27502 5.28752 4.27502C4.72834 4.27502 4.27502 4.72834 4.27502 5.28752C4.27502 5.84671 4.72834 6.30002 5.28752 6.30002Z" fill="#272727" fill-opacity="0.6"/>
</svg>
