<svg width="14" height="13" viewBox="0 0 14 13" fill="none" xmlns="http://www.w3.org/2000/svg">
<path d="M12.4 4.125C12.5 4.425 12.6 4.825 12.7 5.125C12.8 5.725 12.9 6.225 12.8 6.825C12.8 7.325 12.7 7.825 12.5 8.325C12.3 9.025 12 9.725 11.5 10.325C11.2 10.625 10.9 10.925 10.6 11.225C10.1 11.725 9.5 12.025 8.9 12.325C8.3 12.625 7.6 12.725 6.9 12.825C5.9 12.925 5 12.725 4 12.425C3 12.025 2.2 11.425 1.5 10.625C1 10.025 0.6 9.325 0.4 8.525C0.1 7.725 0 6.925 0 6.025C0.1 4.725 0.5 3.625 1.3 2.625C2 1.725 2.8 1.025 3.7 0.625C4.8 0.125 5.9 -0.075 7.1 0.025C7.9 0.125 8.6 0.325 9.3 0.625C9.9 0.925 10.4 1.325 10.9 1.725C11 1.825 10.9 1.825 10.9 1.925C10.7 2.125 10.5 2.325 10.3 2.525C10.1 2.725 10 2.825 9.9 2.925C9.9 3.025 9.8 3.025 9.8 2.925C9.3 2.425 8.8 2.125 8.2 1.925C7.8 1.725 7.4 1.625 7 1.525C6.5 1.425 5.9 1.525 5.4 1.625C4.9 1.725 4.4 1.925 3.9 2.225C3.3 2.625 2.8 3.025 2.4 3.625C2 4.125 1.8 4.725 1.6 5.325C1.4 6.225 1.5 7.125 1.8 7.925C2.1 8.925 2.7 9.625 3.5 10.325C4.5 11.025 5.6 11.425 6.8 11.325C8.3 11.225 9.5 10.625 10.4 9.425C10.9 8.725 11.3 8.025 11.4 7.125C11.5 6.525 11.5 5.925 11.3 5.325C11.3 5.225 11.3 5.225 11.3 5.125C11.6 4.925 12 4.525 12.4 4.125Z" fill="#272727"/>
<path d="M5.90002 9.82499C5.80002 9.82499 5.80002 9.82499 5.90002 9.82499C5.40002 9.42499 5.00002 9.02499 4.60002 8.62499C4.20002 8.22499 3.80002 7.72499 3.30002 7.32499C3.10002 7.12499 2.90002 6.92499 2.70002 6.72499C2.70002 6.72499 2.60002 6.62499 2.70002 6.62499C3.00002 6.32499 3.30002 6.02499 3.70002 5.72499C3.80002 5.62499 3.80002 5.72499 3.90002 5.82499C4.00002 5.92499 4.20002 6.12499 4.40002 6.32499C4.80002 6.72499 5.30002 7.22499 5.70002 7.62499C5.80002 7.72499 5.90002 7.72499 5.90002 7.62499C6.90002 6.62499 8.00002 5.52499 9.00002 4.52499C9.80002 3.72499 10.6 2.82499 11.5 2.02499C11.6 1.92499 11.7 1.82499 11.8 1.72499C11.8 1.62499 11.9 1.72499 11.9 1.72499C12.3 2.02499 12.6 2.32499 13 2.62499C13.1 2.72499 13.1 2.72499 13 2.82499C12.8 2.92499 12.7 3.12499 12.5 3.22499C12.2 3.52499 12 3.72499 11.7 4.02499C11.4 4.32499 11 4.72499 10.7 5.02499C10.4 5.32499 10.1 5.72499 9.70002 6.02499C9.60002 6.12499 9.40002 6.32499 9.30002 6.42499C9.00002 6.72499 8.70002 7.02499 8.30002 7.42499C8.10002 7.62499 8.00002 7.72499 7.80002 7.92499C7.70002 8.02499 7.60002 8.22499 7.40002 8.32499C7.10002 8.52499 6.90002 8.72499 6.70002 9.02499C6.50002 9.22499 6.20002 9.52499 6.00002 9.72499C5.90002 9.82499 5.90002 9.82499 5.90002 9.82499Z" fill="#272727"/>
</svg>
