<svg width="14" height="14" viewBox="0 0 14 14" fill="none" xmlns="http://www.w3.org/2000/svg">
<g clip-path="url(#clip0_3172_7208)">
<path d="M8.16666 1.75H3.96666C3.68819 1.75 3.42112 1.86062 3.2242 2.05754C3.02729 2.25445 2.91666 2.52152 2.91666 2.8V11.2C2.91666 11.7828 3.38391 12.25 3.96666 12.25H10.2667C10.8494 12.25 11.3167 11.7828 11.3167 11.2V4.9L8.16666 1.75ZM10.2667 11.2H3.96666V2.8H7.64166V5.425H10.2667V11.2Z" fill="#32A1C8"/>
<path d="M4.66666 7.61223H5.2538C5.3862 7.61223 5.48713 7.62301 5.55659 7.64455C5.64992 7.6738 5.72987 7.72574 5.79643 7.80039C5.86299 7.87504 5.91364 7.96662 5.94837 8.07513C5.9831 8.18287 6.00046 8.316 6.00046 8.47453C6.00046 8.61383 5.98418 8.73388 5.95163 8.83469C5.91183 8.95782 5.85504 9.05748 5.78124 9.13367C5.72553 9.19139 5.65028 9.23641 5.5555 9.26873C5.4846 9.29259 5.38982 9.30452 5.27116 9.30452H4.66666V7.61223ZM4.9879 7.89851V9.01939H5.22775C5.31747 9.01939 5.38222 9.014 5.42201 9.00323C5.47411 8.98938 5.51716 8.9659 5.55116 8.93281C5.58589 8.89972 5.61411 8.84547 5.63581 8.77005C5.65752 8.69386 5.66837 8.59036 5.66837 8.45953C5.66837 8.3287 5.65752 8.22827 5.63581 8.15824C5.61411 8.08821 5.58372 8.03357 5.54465 7.99432C5.50558 7.95508 5.45602 7.92853 5.39597 7.91467C5.35111 7.9039 5.2632 7.89851 5.13225 7.89851H4.9879Z" fill="#32A1C8"/>
<path d="M6.20883 8.46876C6.20883 8.29638 6.23307 8.1517 6.28155 8.03473C6.31772 7.94853 6.36692 7.87119 6.42914 7.8027C6.49209 7.73421 6.56082 7.68342 6.63535 7.65033C6.73447 7.60569 6.84878 7.58337 6.97829 7.58337C7.21271 7.58337 7.4001 7.66072 7.54046 7.8154C7.68155 7.97008 7.75209 8.18518 7.75209 8.46068C7.75209 8.73388 7.68227 8.94782 7.54263 9.1025C7.40299 9.25642 7.21633 9.33337 6.98263 9.33337C6.74604 9.33337 6.55793 9.2568 6.41829 9.10366C6.27865 8.94974 6.20883 8.73811 6.20883 8.46876ZM6.53984 8.45722C6.53984 8.64884 6.58144 8.79429 6.66465 8.89357C6.74785 8.99207 6.85349 9.04132 6.98155 9.04132C7.10961 9.04132 7.21452 8.99246 7.29628 8.89472C7.37876 8.79621 7.42 8.64884 7.42 8.4526C7.42 8.25867 7.37984 8.11399 7.29953 8.01857C7.21995 7.92314 7.11395 7.87543 6.98155 7.87543C6.84914 7.87543 6.74243 7.92391 6.66139 8.02087C6.58036 8.11707 6.53984 8.26252 6.53984 8.45722Z" fill="#32A1C8"/>
<path d="M9.02186 8.68232L9.33333 8.78736C9.28558 8.97206 9.20599 9.10943 9.09457 9.19947C8.98387 9.28874 8.84315 9.33337 8.6724 9.33337C8.46113 9.33337 8.28749 9.2568 8.15147 9.10366C8.01545 8.94974 7.94744 8.73965 7.94744 8.47338C7.94744 8.19172 8.01581 7.97316 8.15256 7.81771C8.2893 7.66149 8.46909 7.58337 8.69194 7.58337C8.88656 7.58337 9.04465 7.64455 9.1662 7.76692C9.23855 7.83926 9.29281 7.94315 9.32899 8.07859L9.01101 8.1594C8.99219 8.07167 8.95276 8.0024 8.89271 7.95161C8.83338 7.90082 8.76103 7.87543 8.67566 7.87543C8.55772 7.87543 8.46186 7.92045 8.38806 8.01048C8.31498 8.10052 8.27845 8.24636 8.27845 8.44798C8.27845 8.66193 8.31462 8.8143 8.38697 8.90511C8.45933 8.99592 8.55338 9.04132 8.66915 9.04132C8.75452 9.04132 8.82796 9.01246 8.88945 8.95475C8.95095 8.89703 8.99509 8.80622 9.02186 8.68232Z" fill="#32A1C8"/>
</g>
<defs>
<clipPath id="clip0_3172_7208">
<rect width="14" height="14" fill="white"/>
</clipPath>
</defs>
</svg>
