<svg width="17" height="17" viewBox="0 0 17 17" fill="none" xmlns="http://www.w3.org/2000/svg">
<path opacity="0.4" fill-rule="evenodd" clip-rule="evenodd" d="M9.24997 5.74561C9.24997 5.33139 8.91418 4.99561 8.49997 4.99561C8.08575 4.99561 7.74997 5.33139 7.74997 5.74561V7.74303H5.75C5.33579 7.74303 5 8.07882 5 8.49303C5 8.90725 5.33579 9.24303 5.75 9.24303H7.74997V11.2404C7.74997 11.6546 8.08575 11.9904 8.49997 11.9904C8.91418 11.9904 9.24997 11.6546 9.24997 11.2404V9.24303H11.25C11.6642 9.24303 12 8.90725 12 8.49303C12 8.07882 11.6642 7.74303 11.25 7.74303H9.24997V5.74561Z" fill="#022F96"/>
<path fill-rule="evenodd" clip-rule="evenodd" d="M12.0143 1H4.98571C2.53571 1 1 2.73406 1 5.18887V11.8111C1 14.2659 2.52857 16 4.98571 16H12.0143C14.4714 16 16 14.2659 16 11.8111V5.18887C16 2.73406 14.4714 1 12.0143 1Z" stroke="#022F96" stroke-width="1.5" stroke-linecap="round" stroke-linejoin="round"/>
</svg>
