<svg width="22" height="22" viewBox="0 0 22 22" fill="none" xmlns="http://www.w3.org/2000/svg">
<path opacity="0.4" d="M10.2652 1.04095H6.30242C3.04339 1.04095 1 3.34824 1 6.6147V15.4263C1 18.6927 3.03385 21 6.30242 21H15.6545C18.9242 21 20.958 18.6927 20.958 15.4263V11.1572" stroke="#6E7B94" stroke-width="1.5" stroke-linecap="round" stroke-linejoin="round"/>
<path fill-rule="evenodd" clip-rule="evenodd" d="M7.44109 9.65949L15.3613 1.73924C16.3481 0.753585 17.9474 0.753585 18.9341 1.73924L20.2239 3.02908C21.2106 4.0158 21.2106 5.61617 20.2239 6.60183L12.2655 14.5602C11.8342 14.9916 11.2491 15.2343 10.6387 15.2343H6.66846L6.76808 11.2281C6.78292 10.6388 7.02351 10.0771 7.44109 9.65949Z" stroke="#6E7B94" stroke-width="1.5" stroke-linecap="round" stroke-linejoin="round"/>
<path d="M14.1582 2.96289L18.9975 7.80216" stroke="#6E7B94" stroke-width="1.5" stroke-linecap="round" stroke-linejoin="round"/>
</svg>
