<svg width="22" height="22" viewBox="0 0 22 22" fill="none" xmlns="http://www.w3.org/2000/svg">
<path opacity="0.4" fill-rule="evenodd" clip-rule="evenodd" d="M8.93664 7.86688C8.64377 7.57396 8.1689 7.57391 7.87598 7.86677C7.58305 8.15963 7.583 8.63451 7.87586 8.92743L9.93798 10.99L7.87856 13.0494C7.58567 13.3423 7.58567 13.8172 7.87856 14.1101C8.17146 14.403 8.64633 14.403 8.93922 14.1101L10.9985 12.0508L13.0607 14.1134C13.3536 14.4063 13.8285 14.4064 14.1214 14.1135C14.4143 13.8206 14.4144 13.3458 14.1215 13.0528L12.0592 10.9901L14.1198 8.92952C14.4127 8.63663 14.4127 8.16175 14.1198 7.86886C13.8269 7.57597 13.352 7.57597 13.0591 7.86886L10.9986 9.92932L8.93664 7.86688Z" fill="#6E7B94"/>
<path fill-rule="evenodd" clip-rule="evenodd" d="M15.6854 1H6.31351C3.04757 1 1 3.31243 1 6.58486V15.4151C1 18.6876 3.03784 21 6.31351 21H15.6843C18.9611 21 21 18.6876 21 15.4151V6.58486C21 3.31243 18.9611 1 15.6854 1Z" stroke="#6E7B94" stroke-width="1.5" stroke-linecap="round" stroke-linejoin="round"/>
</svg>
