<svg width="25" height="25" viewBox="0 0 25 25" fill="none" xmlns="http://www.w3.org/2000/svg">
<circle cx="12.5" cy="12.5" r="12.5" fill="#e7f3ff"/>
<path opacity="0.4" d="M17.3514 12.2369C18.5955 12.2369 19.6048 11.2283 19.6048 9.98416C19.6048 8.74001 18.5955 7.73145 17.3514 7.73145" stroke="#0571ed" stroke-linecap="round" stroke-linejoin="round"/>
<path d="M18.3874 14.6848C18.7589 14.7104 19.1283 14.7631 19.492 14.845C19.9974 14.9439 20.6052 15.151 20.8216 15.6044C20.9597 15.8948 20.9597 16.2329 20.8216 16.524C20.6059 16.9774 19.9974 17.1838 19.492 17.2877" stroke="#0571ed" stroke-linecap="round" stroke-linejoin="round"/>
<path opacity="0.4" d="M8.57356 12.2369C7.3294 12.2369 6.32013 11.2283 6.32013 9.98416C6.32013 8.74001 7.3294 7.73145 8.57356 7.73145" stroke="#0571ed" stroke-linecap="round" stroke-linejoin="round"/>
<path d="M7.5376 14.6848C7.16606 14.7104 6.79666 14.7631 6.43295 14.845C5.9276 14.9439 5.31976 15.151 5.10409 15.6044C4.9653 15.8948 4.9653 16.2329 5.10409 16.524C5.31905 16.9774 5.9276 17.1838 6.43295 17.2877" stroke="#0571ed" stroke-linecap="round" stroke-linejoin="round"/>
<path fill-rule="evenodd" clip-rule="evenodd" d="M12.9589 15.1699C15.4799 15.1699 17.6337 15.5514 17.6337 17.0781C17.6337 18.6042 15.4942 18.9999 12.9589 18.9999C10.4371 18.9999 8.28406 18.6184 8.28406 17.0917C8.28406 15.5649 10.4236 15.1699 12.9589 15.1699Z" stroke="#0571ed" stroke-linecap="round" stroke-linejoin="round"/>
<path opacity="0.4" fill-rule="evenodd" clip-rule="evenodd" d="M12.9589 12.9923C11.2962 12.9923 9.96307 11.6592 9.96307 9.99579C9.96307 8.33312 11.2962 7 12.9589 7C14.6215 7 15.9547 8.33312 15.9547 9.99579C15.9547 11.6592 14.6215 12.9923 12.9589 12.9923Z" stroke="#0571ed" stroke-linecap="round" stroke-linejoin="round"/>
<mask id="path-8-outside-1" maskUnits="userSpaceOnUse" x="15" y="14.6504" width="7" height="7" fill="black">
<rect fill="#0571ed" x="15" y="14.6504" width="7" height="7"/>
<path fill-rule="evenodd" clip-rule="evenodd" d="M16.3351 17.941C16.1459 17.9667 16 18.1289 16 18.3252C16 18.5393 16.1736 18.7129 16.3877 18.7129H19.6737L18.393 19.988L18.3553 20.0314C18.2424 20.1829 18.2545 20.3983 18.3918 20.5362C18.5429 20.688 18.7884 20.6885 18.9401 20.5374L20.8859 18.5999L20.8871 18.5985C20.8996 18.5859 20.9113 18.5725 20.922 18.5583L20.9236 18.5564C21.0368 18.4044 21.0242 18.1882 20.8859 18.0505L18.9401 16.113L18.8965 16.0755C18.7445 15.9632 18.5292 15.9762 18.3918 16.1141L18.3544 16.1577C18.2421 16.3097 18.255 16.5251 18.393 16.6624L19.6729 17.9375H16.3877L16.3351 17.941Z"/>
</mask>
<path fill-rule="evenodd" clip-rule="evenodd" d="M16.3351 17.941C16.1459 17.9667 16 18.1289 16 18.3252C16 18.5393 16.1736 18.7129 16.3877 18.7129H19.6737L18.393 19.988L18.3553 20.0314C18.2424 20.1829 18.2545 20.3983 18.3918 20.5362C18.5429 20.688 18.7884 20.6885 18.9401 20.5374L20.8859 18.5999L20.8871 18.5985C20.8996 18.5859 20.9113 18.5725 20.922 18.5583L20.9236 18.5564C21.0368 18.4044 21.0242 18.1882 20.8859 18.0505L18.9401 16.113L18.8965 16.0755C18.7445 15.9632 18.5292 15.9762 18.3918 16.1141L18.3544 16.1577C18.2421 16.3097 18.255 16.5251 18.393 16.6624L19.6729 17.9375H16.3877L16.3351 17.941Z" fill="#0571ed"/>
<path d="M16.3351 17.941L16.3015 17.4421L16.2846 17.4433L16.2679 17.4455L16.3351 17.941ZM19.6737 18.7129L20.0265 19.0672L20.8846 18.2129H19.6737V18.7129ZM18.393 19.988L18.0402 19.6336L18.0272 19.6466L18.0152 19.6604L18.393 19.988ZM18.3553 20.0314L17.9776 19.7038L17.9655 19.7178L17.9544 19.7326L18.3553 20.0314ZM18.3918 20.5362L18.7461 20.1835L18.7461 20.1835L18.3918 20.5362ZM18.9401 20.5374L18.5873 20.1831L18.5873 20.1831L18.9401 20.5374ZM20.8859 18.5999L21.2387 18.9542L21.2517 18.9413L21.2637 18.9274L20.8859 18.5999ZM20.8871 18.5985L20.5325 18.246L20.5205 18.2581L20.5093 18.271L20.8871 18.5985ZM20.922 18.5583L20.5441 18.2308L20.5329 18.2437L20.5227 18.2574L20.922 18.5583ZM20.9236 18.5564L21.3014 18.8839L21.3136 18.8699L21.3246 18.855L20.9236 18.5564ZM20.8859 18.0505L20.5331 18.4048L20.8859 18.0505ZM18.9401 16.113L19.2929 15.7587L19.2799 15.7457L19.266 15.7338L18.9401 16.113ZM18.8965 16.0755L19.2225 15.6964L19.2085 15.6843L19.1936 15.6734L18.8965 16.0755ZM18.3918 16.1141L18.0375 15.7613L18.0246 15.7743L18.0126 15.7882L18.3918 16.1141ZM18.3544 16.1577L17.9752 15.8318L17.9632 15.8458L17.9522 15.8606L18.3544 16.1577ZM18.393 16.6624L18.7459 16.3082L18.7458 16.3081L18.393 16.6624ZM19.6729 17.9375V18.4375H20.8834L20.0258 17.5832L19.6729 17.9375ZM16.3877 17.9375V17.4375H16.3709L16.3541 17.4386L16.3877 17.9375ZM16.5 18.3252C16.5 18.3824 16.4576 18.429 16.4023 18.4365L16.2679 17.4455C15.8341 17.5044 15.5 17.8754 15.5 18.3252H16.5ZM16.3877 18.2129C16.4497 18.2129 16.5 18.2632 16.5 18.3252H15.5C15.5 18.8154 15.8974 19.2129 16.3877 19.2129V18.2129ZM19.6737 18.2129H16.3877V19.2129H19.6737V18.2129ZM18.7458 20.3423L20.0265 19.0672L19.3209 18.3585L18.0402 19.6336L18.7458 20.3423ZM18.7331 20.3589L18.7708 20.3155L18.0152 19.6604L17.9776 19.7038L18.7331 20.3589ZM18.7461 20.1835C18.7862 20.2237 18.7892 20.2859 18.7563 20.3301L17.9544 19.7326C17.6956 20.0799 17.7227 20.5729 18.0375 20.889L18.7461 20.1835ZM18.5873 20.1831C18.6313 20.1394 18.7024 20.1395 18.7461 20.1835L18.0375 20.889C18.3834 21.2365 18.9455 21.2377 19.2929 20.8917L18.5873 20.1831ZM20.5331 18.2456L18.5873 20.1831L19.2929 20.8917L21.2387 18.9542L20.5331 18.2456ZM20.5093 18.271L20.508 18.2725L21.2637 18.9274L21.265 18.9259L20.5093 18.271ZM20.5227 18.2574C20.5257 18.2533 20.529 18.2495 20.5325 18.246L21.2418 18.9509C21.2703 18.9222 21.2969 18.8916 21.3213 18.8592L20.5227 18.2574ZM20.5458 18.2289L20.5441 18.2308L21.2998 18.8857L21.3014 18.8839L20.5458 18.2289ZM20.5331 18.4048C20.4927 18.3645 20.4895 18.3022 20.5226 18.2578L21.3246 18.855C21.5841 18.5066 21.5558 18.0119 21.2387 17.6962L20.5331 18.4048ZM18.5873 16.4673L20.5331 18.4048L21.2387 17.6962L19.2929 15.7587L18.5873 16.4673ZM18.5706 16.4547L18.6142 16.4921L19.266 15.7338L19.2225 15.6964L18.5706 16.4547ZM18.7461 16.4669C18.706 16.5072 18.6439 16.5105 18.5995 16.4777L19.1936 15.6734C18.8452 15.416 18.3523 15.4452 18.0375 15.7613L18.7461 16.4669ZM18.7335 16.4836L18.771 16.4401L18.0126 15.7882L17.9752 15.8318L18.7335 16.4836ZM18.7458 16.3081C18.786 16.3482 18.7893 16.4104 18.7565 16.4548L17.9522 15.8606C17.6948 16.2091 17.724 16.7019 18.0402 17.0167L18.7458 16.3081ZM20.0258 17.5832L18.7459 16.3082L18.0401 17.0167L19.3201 18.2917L20.0258 17.5832ZM16.3877 18.4375H19.6729V17.4375H16.3877V18.4375ZM16.3687 18.4399L16.4213 18.4363L16.3541 17.4386L16.3015 17.4421L16.3687 18.4399Z" fill="#022F96" mask="url(#path-8-outside-1)"/>
</svg>
