<svg width="27" height="27" viewBox="0 0 27 27" fill="none" xmlns="http://www.w3.org/2000/svg">
<path d="M13.5012 0C20.9345 0 27.0025 6.06795 27.0025 13.5012C27.0025 20.9344 21.0862 27.0024 13.5012 27.0024C6.06799 27.0024 0 20.9344 0 13.5012C0 5.91625 6.06799 0 13.5012 0ZM24.5753 13.5012C24.5753 7.43324 19.5692 2.42719 13.6529 2.42719C7.58495 2.42719 2.57899 7.43324 2.57899 13.5012C2.57899 19.5692 7.58495 24.5752 13.6529 24.5752C19.5692 24.4235 24.5753 19.5692 24.5753 13.5012Z" fill="#B3B3B3"/>
<path d="M14.6668 12.2595C15.954 12.2595 17.2412 12.2595 18.4212 12.1523C19.2793 12.1523 19.9229 12.5813 19.8156 13.3322C19.8156 14.1903 19.2793 14.5121 18.3139 14.6194C17.0267 14.6194 15.954 14.6193 14.5595 14.5121C14.5595 15.5847 14.5595 16.4429 14.6668 17.4083C14.6668 17.8374 14.6668 18.0519 14.6668 18.481C14.6668 19.3392 14.1304 19.8754 13.4868 19.8754C12.8432 19.8754 12.3069 19.3392 12.3069 18.481C12.3069 17.4083 12.3069 16.3357 12.3069 15.263C12.3069 15.0485 12.3069 14.8339 12.4141 14.5121C11.2342 14.6193 10.1615 14.6194 9.08884 14.6194C8.87431 14.6194 8.65987 14.6194 8.44533 14.6194C7.69446 14.5121 7.26529 14.083 7.26529 13.4394C7.26529 12.7958 7.8016 12.2595 8.4452 12.2595C9.08881 12.2595 9.73246 12.2595 10.3761 12.2595C11.0197 12.2595 11.6633 12.2595 12.4141 12.3667C12.4141 11.0795 12.4142 9.79241 12.4142 8.5052C12.4142 8.07613 12.6287 7.64699 12.9505 7.32518C13.8086 6.68158 14.8813 7.32522 14.8813 8.39789C14.7741 9.57783 14.774 10.865 14.6668 12.2595Z" fill="#B3B3B3"/>
</svg>
