<svg width="20" height="20" viewBox="0 0 20 20" fill="none" xmlns="http://www.w3.org/2000/svg">
<path fill-rule="evenodd" clip-rule="evenodd" d="M8.01206 13.2559C4.23005 13.2559 1 13.8275 1 16.1179C1 18.4074 4.20939 19.0007 8.01206 19.0007C11.7941 19.0007 15.0241 18.4281 15.0241 16.1386C15.0241 13.8491 11.8147 13.2559 8.01206 13.2559Z" stroke="white" stroke-width="1.5" stroke-linecap="round" stroke-linejoin="round"/>
<path opacity="0.4" fill-rule="evenodd" clip-rule="evenodd" d="M8.01191 9.98866C10.507 9.98866 12.5062 7.98845 12.5062 5.49433C12.5062 2.99923 10.507 1 8.01191 1C5.51779 1 3.51758 2.99923 3.51758 5.49433C3.51758 7.98845 5.51779 9.98866 8.01191 9.98866Z" stroke="white" stroke-width="1.5" stroke-linecap="round" stroke-linejoin="round"/>
<path d="M17.1882 6.82422V10.7695" stroke="white" stroke-width="1.5" stroke-linecap="round" stroke-linejoin="round"/>
<path d="M19.2018 8.79467H15.1777" stroke="white" stroke-width="1.5" stroke-linecap="round" stroke-linejoin="round"/>
</svg>
