<svg width="16" height="14" viewBox="0 0 16 14" fill="none" xmlns="http://www.w3.org/2000/svg">
<path d="M8.19995 8.00002C8.79995 7.60002 9.29998 7.00003 9.59998 6.30003C9.99998 5.30003 10.1 4.30003 9.80005 3.30003C9.30005 1.60003 7.70005 0.400024 5.80005 0.400024C4.00005 0.400024 2.40002 1.60003 1.90002 3.30003C1.60002 4.20003 1.7 5.00002 2 5.90002C2.3 6.80002 2.79998 7.40002 3.59998 7.90002C2.59998 8.30002 1.79995 8.90003 1.19995 9.80003C0.399951 10.9 0 12.1 0 13.5V13.9H1L1.40002 13.8V13.5C1.40002 12.2 1.89995 11.1 2.69995 10.3C3.59995 9.40003 4.70002 8.90002 5.90002 8.90002C7.00002 8.90002 8.00005 9.20002 8.80005 9.90002C10 10.8 10.6 12.1 10.6 13.6V13.9H11.9V13.5C11.9 13 11.9 11.7 11.1 10.4C10.4 9.30002 9.39995 8.50002 8.19995 8.00002ZM5.90002 1.80003C6.60002 1.80003 7.30002 2.10002 7.90002 2.60002C8.40002 3.10002 8.69995 3.80002 8.69995 4.60002C8.69995 6.10002 7.50002 7.40002 5.90002 7.40002C4.40002 7.40002 3.09998 6.20002 3.09998 4.60002C3.09998 3.90002 3.40002 3.20002 3.90002 2.60002C4.50002 2.10002 5.20002 1.80003 5.90002 1.80003Z" fill="#32A1C8"/>
<path d="M13.2 6.9V5.7C13.2 5.3 12.9 5 12.5 5C12.1 5 11.8 5.3 11.8 5.7V6.9H10.6C10.2 6.9 9.90002 7.2 9.90002 7.6C9.90002 8 10.2 8.3 10.6 8.3H11.8V9.5C11.8 9.9 12.1 10.2 12.5 10.2C12.9 10.2 13.2 9.9 13.2 9.5V8.3H14.4C14.8 8.3 15.1 8 15.1 7.6C15.1 7.2 14.8 6.9 14.4 6.9H13.2Z" fill="#32A1C8"/>
</svg>
