<svg width="15" height="16" viewBox="0 0 15 16" fill="none" xmlns="http://www.w3.org/2000/svg">
<path d="M7.5 0.501251C11.6292 0.501251 15 3.87202 15 8.00122C15 12.1304 11.7135 15.5012 7.5 15.5012C3.3708 15.5012 0 12.1304 0 8.00122C0 3.78775 3.3708 0.501251 7.5 0.501251ZM13.6517 8.00122C13.6517 4.63045 10.8708 1.84957 7.58425 1.84957C4.21347 1.84957 1.43264 4.63045 1.43264 8.00122C1.43264 11.372 4.21347 14.1529 7.58425 14.1529C10.8708 14.0686 13.6517 11.372 13.6517 8.00122Z" fill="#808080"/>
<path d="M8.14751 7.31143C8.86256 7.31143 9.57764 7.31148 10.2331 7.25189C10.7098 7.25189 11.0673 7.49021 11.0077 7.90732C11.0077 8.38402 10.7098 8.56281 10.1735 8.6224C9.45845 8.6224 8.86255 8.62236 8.08792 8.56277C8.08792 9.15864 8.08792 9.63537 8.14751 10.1717C8.14751 10.41 8.14751 10.5292 8.14751 10.7675C8.14751 11.2442 7.84957 11.5421 7.49204 11.5421C7.13452 11.5421 6.83661 11.2442 6.83661 10.7675C6.83661 10.1717 6.83661 9.57578 6.83661 8.97991C6.83661 8.86073 6.83658 8.74153 6.89617 8.56277C6.2407 8.62235 5.64483 8.62236 5.04895 8.62236C4.92978 8.62236 4.81065 8.6224 4.69148 8.6224C4.27436 8.56281 4.03596 8.3244 4.03596 7.96687C4.03596 7.60935 4.33388 7.31143 4.6914 7.31143C5.04893 7.31143 5.40648 7.31143 5.76401 7.31143C6.12153 7.31143 6.47905 7.31143 6.89617 7.37102C6.89617 6.65597 6.8962 5.94097 6.8962 5.22592C6.8962 4.98757 7.01536 4.74918 7.19412 4.57042C7.67082 4.21289 8.26671 4.57044 8.26671 5.16631C8.20712 5.82177 8.20709 6.53679 8.14751 7.31143Z" fill="#808080"/>
</svg>
