<svg id="Capa_1" enable-background="new 0 0 512 512" height="512" viewBox="0 0 512 512" width="512" xmlns="http://www.w3.org/2000/svg" xmlns:xlink="http://www.w3.org/1999/xlink"><linearGradient id="SVGID_1_" gradientUnits="userSpaceOnUse" x1="256" x2="256" y1="451" y2="65.499"><stop offset="0" stop-color="#000000"/><stop offset="1" stop-color="#000000"/></linearGradient><linearGradient id="SVGID_2_" gradientUnits="userSpaceOnUse" x1="256" x2="256" y1="512" y2="0"><stop offset="0" stop-color="#000000"/><stop offset=".5028" stop-color="#eaf6ff"/><stop offset="1" stop-color="#000000"/></linearGradient><g><g><g><path d="m406 391c-8.401 0-15-6.601-15-15v-150c0-57.9-36.599-108.6-90-127.2l-11.1-33.301h-67.5l-11.4 33.301c-53.401 18.6-90 69.3-90 127.2v150c0 8.399-6.599 15-15 15s-15 6.599-15 15c0 8.399 6.599 15 15 15h105l44.629 30 45.371-30h105c8.401 0 15-6.601 15-15 0-8.401-6.599-15-15-15z" fill="url(#SVGID_1_)"/></g></g><g><g><path d="m289.9 95.499c3.9.901 7.5 2.1 11.1 3.301v-22.8c0-24.901-20.1-45-45-45s-45 20.099-45 45v22.8c3.9-1.201 7.5-2.401 11.4-3.301 20.4-5.999 46.2-5.999 67.5 0zm-78.9 340.501c0 24.899 20.1 45 45 45s45-20.101 45-45v-15h-90zm-158.939-75.718c5.83-5.874 5.83-15.366-.059-21.211-14.18-14.15-22.002-33.003-22.002-53.071s7.822-38.921 22.002-53.071c5.889-5.845 5.889-15.337.059-21.211-5.859-5.889-15.41-5.859-21.211-.029-19.893 19.819-30.85 46.201-30.85 74.311s10.957 54.492 30.85 74.312c5.967 5.937 15.459 5.75 21.211-.03zm407.908-148.564c-5.859 5.859-5.859 15.352 0 21.211 14.209 14.179 22.031 33.017 22.031 53.071s-7.822 38.892-22.031 53.071c-5.859 5.859-5.859 15.352 0 21.211 5.855 5.885 15.348 5.863 21.211.029 19.863-19.848 30.82-46.245 30.82-74.311s-10.957-54.463-30.82-74.312c-5.86-5.83-15.352-5.859-21.211.03zm-364.574 106.098c5.859-5.859 5.859-15.352 0-21.211-2.842-2.841-4.395-6.606-4.395-10.605s1.553-7.764 4.395-10.605c5.859-5.859 5.859-15.352 0-21.211s-15.352-5.859-21.211 0c-8.496 8.496-13.184 19.804-13.184 31.816s4.688 23.32 13.184 31.816c5.859 5.86 15.351 5.86 21.211 0zm321.21-63.632c-5.859 5.859-5.859 15.352 0 21.211 2.842 2.841 4.395 6.606 4.395 10.605s-1.553 7.764-4.395 10.605c-5.859 5.859-5.859 15.352 0 21.211 5.86 5.859 15.352 5.859 21.211 0 8.497-8.496 13.184-19.804 13.184-31.816s-4.688-23.32-13.184-31.816c-5.859-5.86-15.351-5.86-21.211 0zm91-249.789c-5.859-5.859-15.352-5.859-21.211 0l-482 482c-5.859 5.859-5.859 15.352 0 21.211 5.86 5.859 15.352 5.859 21.211 0l482-482c5.86-5.86 5.86-15.352 0-21.211z" fill="url(#SVGID_2_)"/></g></g></g></svg>