<svg width="12" height="13" viewBox="0 0 12 13" fill="none" xmlns="http://www.w3.org/2000/svg">
<path d="M1.00597 1.40192C1.3223 1.10769 1.60879 0.836534 1.88334 0.582687C5.24362 3.83076 8.62181 7.09615 12 10.3673C11.7314 10.6096 11.433 10.8808 11.0987 11.1808C10.854 10.9385 10.5675 10.6615 10.293 10.3673C10.1438 10.2058 9.97666 10.1423 9.74986 10.1423C6.96853 10.1538 4.18719 10.1538 1.39989 10.1538C1.28052 10.1538 1.16712 10.1538 1.02984 10.1538C0.970154 9.80769 0.958217 9.51346 1.26858 9.25961C1.62072 8.96538 2.05643 8.67115 2.22355 8.28461C2.39066 7.89807 2.26532 7.39615 2.27129 6.94615C2.28323 6.1673 2.25936 5.38846 2.33098 4.61538C2.37276 4.17692 2.54585 3.74423 2.70103 3.3173C2.76071 3.15 2.74281 3.06346 2.61747 2.94807C2.07433 2.43461 1.54313 1.92115 1.00597 1.40192ZM8.59793 8.89038C6.96853 7.31538 5.34509 5.74038 3.6918 4.14807C3.3695 5.68846 3.62615 7.2923 3.51872 8.89615C5.25556 8.89038 6.93868 8.89038 8.59793 8.89038Z" fill="#78797D"/>
<path d="M4.69452 1.48846C4.8676 1.41923 4.99294 1.37308 5.11231 1.32115C5.21378 0.351923 5.47042 0 6.08518 0C6.71188 0 6.98046 0.357693 7.06402 1.31539C7.08789 1.32692 7.1058 1.35 7.13564 1.35577C8.72327 1.75962 9.7797 3.08077 9.89907 4.89808C9.93488 5.41154 9.90504 5.925 9.90504 6.49039C9.47531 6.08077 9.08138 5.71154 8.69343 5.33077C8.63971 5.27885 8.65762 5.16923 8.63971 5.08847C8.52631 4.64423 8.47259 4.17116 8.2816 3.76154C7.85783 2.86154 6.94465 2.4 5.91806 2.46923C5.8345 2.475 5.72707 2.46346 5.67335 2.41731C5.34508 2.11731 5.03472 1.81154 4.69452 1.48846Z" fill="#78797D"/>
<path d="M4.82582 10.7769C5.67336 10.7769 6.49702 10.7769 7.35649 10.7769C7.34455 11.2269 7.15355 11.5615 6.78351 11.7923C6.34183 12.0692 5.88226 12.075 5.43462 11.8096C5.04069 11.5788 4.83776 11.2385 4.82582 10.7769Z" fill="#78797D"/>
</svg>
