<svg width="23" height="23" viewBox="0 0 23 23" fill="none" xmlns="http://www.w3.org/2000/svg">
<path fill-rule="evenodd" clip-rule="evenodd" d="M5.41236 6.6851C5.62609 6.33121 6.80369 5.04403 7.64404 5.08289C7.89524 5.10371 8.1173 5.25567 8.29772 5.43192C8.712 5.83646 9.89792 7.3665 9.96523 7.68847C10.129 8.47812 9.18803 8.93332 9.47601 9.72921C10.2102 11.5257 11.4752 12.7907 13.2725 13.5241C14.0677 13.8121 14.523 12.8712 15.3127 13.0356C15.6339 13.1029 17.1648 14.2888 17.5693 14.7031C17.7449 14.8828 17.8975 15.1055 17.9184 15.3567C17.9496 16.2414 16.5826 17.4356 16.3161 17.5883C15.6874 18.0379 14.8672 18.0303 13.8672 17.5654C11.0769 16.4045 6.61772 12.0295 5.43526 9.13385C4.98282 8.1395 4.95159 7.31376 5.41236 6.6851Z" fill="#414346"/>
</svg>
