<?xml version="1.0" ?><svg id="Layer_3" style="enable-background:new 0 0 32 32;" version="1.1" viewBox="0 0 32 32" xml:space="preserve" xmlns="http://www.w3.org/2000/svg" xmlns:xlink="http://www.w3.org/1999/xlink"><g><path d="M29,7.78613h-6.26172l-0.87891,0.47754l0.87793-0.47754c0.00098,0,0.00098,0,0.00098,0l-1.3252-2.43652   c-0.34961-0.64551-1.02344-1.0459-1.75781-1.0459h-7.31055c-0.73438,0-1.4082,0.40039-1.75781,1.04492L9.2627,7.78613H3   c-1.10254,0-2,0.89746-2,2v15.89258c0,1.10254,0.89746,2,2,2h26c1.10254,0,2-0.89746,2-2V9.78613   C31,8.68359,30.10254,7.78613,29,7.78613z M29,25.67871H3V9.78613h6.2627c0.73242,0,1.40625-0.40039,1.75684-1.04492l1.3252-2.4375   h7.31055l1.3252,2.4375c0,0,0,0,0.00098,0c0.34961,0.64453,1.02344,1.04492,1.75586,1.04492H29V25.67871z"/><path d="M16,10.92871c-3.75195,0-6.80371,3.05176-6.80371,6.80371S12.24805,24.53613,16,24.53613s6.80371-3.05176,6.80371-6.80371   S19.75195,10.92871,16,10.92871z M16,22.53613c-2.64844,0-4.80371-2.15527-4.80371-4.80371S13.35156,12.92871,16,12.92871   s4.80371,2.15527,4.80371,4.80371S18.64844,22.53613,16,22.53613z"/></g></svg>