<svg width="20" height="20" viewBox="0 0 20 20" fill="none" xmlns="http://www.w3.org/2000/svg">
<path d="M19.3248 17.1959C16.8917 14.7627 14.4586 12.3296 12.0255 9.89647C14.4586 7.46333 16.8917 5.0302 19.3248 2.59706C20.7442 1.17773 18.5138 -0.951259 17.1959 0.46807C14.7627 2.90121 12.3297 5.33434 9.89652 7.76747C7.46339 5.33434 5.03018 2.90121 2.59704 0.46807C1.17771 -0.951259 -0.951256 1.27911 0.468073 2.59706C2.90121 5.0302 5.33429 7.46333 7.76743 9.89647C5.33429 12.3296 2.90121 14.7627 0.468073 17.1959C-0.951256 18.6152 1.27909 20.7442 2.59704 19.3249C5.03018 16.8917 7.46339 14.4586 9.89652 12.0255C12.3297 14.4586 14.7627 16.8917 17.1959 19.3249C18.5138 20.7442 20.6428 18.6152 19.3248 17.1959Z" fill="white"/>
</svg>
