<svg width="24" height="24" viewBox="0 0 24 24" fill="none" xmlns="http://www.w3.org/2000/svg">
<path d="M20.84 5.898C20.79 5.79 20.73 5.691 20.66 5.592C20.52 5.403 20.33 5.232 20.12 5.106C20.01 5.043 19.9 4.989 19.78 4.944C19.54 4.854 19.28 4.8 19 4.8H18V3H16V4.8H8V3H6V4.8H5C4.58 4.8 4.2 4.917 3.88 5.106C3.67 5.232 3.48 5.403 3.34 5.592C3.27 5.691 3.21 5.79 3.16 5.898C3.06 6.114 3 6.348 3 6.6V19.2C3 20.19 3.89 21 5 21H19C19.28 21 19.54 20.946 19.78 20.856C19.9 20.811 20.01 20.757 20.12 20.694C20.33 20.568 20.52 20.397 20.66 20.208C20.87 19.92 21 19.569 21 19.2V6.6C21 6.348 20.94 6.114 20.84 5.898ZM5 19.2V6.6H19V19.2H5ZM12 13.692C9.97 13.692 6 14.664 6 16.914V18.3H18V16.923C18 14.664 14.03 13.692 12 13.692ZM8.31 16.5C9 15.996 10.69 15.492 12 15.492C13.31 15.492 15.01 15.996 15.69 16.5H8.31ZM12 12.9C13.65 12.9 15 11.685 15 10.2C15 8.715 13.65 7.5 12 7.5C10.35 7.5 9 8.715 9 10.2C9 11.685 10.35 12.9 12 12.9ZM12 9.3C12.55 9.3 13 9.705 13 10.2C13 10.695 12.55 11.1 12 11.1C11.45 11.1 11 10.695 11 10.2C11 9.705 11.45 9.3 12 9.3Z" fill="#272727" fill-opacity="0.6"/>
</svg>
