<svg width="11" height="11" viewBox="0 0 11 11" fill="none" xmlns="http://www.w3.org/2000/svg">
<path d="M1.39999 8.29999C0.899994 8.19999 0.299988 8.39998 0.299988 7.69998C0.299988 6.99998 0.899994 7.19999 1.39999 7.09999C1.39999 6.69999 1.39999 6.39998 1.39999 5.99998C1.19999 5.99998 0.999994 5.99998 0.899994 5.99998C0.599994 5.99998 0.299988 5.69998 0.299988 5.39998C0.299988 5.09998 0.499994 4.89999 0.899994 4.79999C1.09999 4.79999 1.19999 4.79999 1.39999 4.79999C1.39999 4.39999 1.39999 4.09998 1.39999 3.69998C1.19999 3.69998 0.999994 3.69998 0.899994 3.69998C0.599994 3.69998 0.299988 3.49998 0.299988 3.19998C0.299988 2.89998 0.499994 2.69999 0.899994 2.59999C1.09999 2.59999 1.19999 2.59999 1.39999 2.59999C1.39999 2.39999 1.39999 2.19998 1.39999 1.99998C1.39999 0.999985 2.10001 0.299988 3.10001 0.299988C5.20001 0.299988 7.19999 0.299988 9.29999 0.299988C10.3 0.299988 11 0.999985 11 1.99998C11 4.19998 11 6.49998 11 8.69998C11 9.69998 10.3 10.4 9.29999 10.4C7.19999 10.4 5.20001 10.4 3.10001 10.4C2.10001 10.4 1.39999 9.59998 1.39999 8.69998C1.39999 8.69998 1.39999 8.49999 1.39999 8.29999ZM3.60001 1.49998C3.60001 4.09998 3.60001 6.79998 3.60001 9.39998H3.70001C5.50001 9.39998 7.40001 9.39998 9.20001 9.39998C9.60001 9.39998 9.79999 9.19999 9.79999 8.79999C9.79999 6.59999 9.79999 4.39998 9.79999 2.19998C9.79999 1.79998 9.60001 1.59999 9.10001 1.59999C8.00001 1.59999 6.99999 1.59999 5.89999 1.59999C5.19999 1.49999 4.40001 1.49998 3.60001 1.49998ZM3 3.79999C2.8 3.79999 2.6 3.79999 2.5 3.79999C2.5 4.19999 2.5 4.49998 2.5 4.89998C2.7 4.89998 2.9 4.89998 3 4.89998C3 4.49998 3 4.19999 3 3.79999ZM2.5 5.99998C2.5 6.39998 2.5 6.69999 2.5 7.09999C2.7 7.09999 2.9 7.09999 3 7.09999C3 6.69999 3 6.39998 3 5.99998C2.9 5.99998 2.7 5.99998 2.5 5.99998ZM3 1.49998C2.5 1.59998 2.4 1.79998 2.5 2.39998C2.5 2.79998 2.8 2.49999 3 2.59999C3 2.59999 3.00001 2.59999 3.10001 2.59999C3.00001 2.29999 3 1.89998 3 1.49998ZM3 8.29999C2.8 8.29999 2.6 8.29999 2.5 8.29999C2.4 9.09999 2.6 9.39998 3 9.39998C3 9.09998 3 8.79998 3 8.49998C3 8.39998 3 8.39999 3 8.29999Z" fill="#32A1C8"/>
<path d="M5.29999 4.60001C5.29999 4.00001 5.79999 3.5 6.39999 3.5C6.99999 3.5 7.5 4.00001 7.5 4.60001C7.5 5.20001 6.99999 5.7 6.39999 5.7C5.79999 5.7 5.29999 5.30001 5.29999 4.60001Z" fill="#32A1C8"/>
<path d="M6.39999 7.49999C5.99999 7.39999 5.69998 7.4 5.29998 7.3C4.99998 7.2 4.9 6.99999 5.1 6.69999C5.2 6.59999 5.29999 6.49999 5.39999 6.39999C5.99999 6.09999 6.69998 6.09999 7.29998 6.39999C7.39998 6.39999 7.5 6.5 7.6 6.6C7.9 6.9 7.79999 7.2 7.39999 7.3C7.09999 7.4 6.79999 7.39999 6.39999 7.49999Z" fill="#32A1C8"/>
</svg>
