<?xml version="1.0" ?><!DOCTYPE svg  PUBLIC '-//W3C//DTD SVG 1.1//EN'  'http://www.w3.org/Graphics/SVG/1.1/DTD/svg11.dtd'>
<svg enable-background="new 0 0 32 32" height="32px" id="Layer_1" version="1.1" viewBox="0 0 38 38"  width="32px" xml:space="preserve" xmlns="http://www.w3.org/2000/svg" 
xmlns:xlink="http://www.w3.org/1999/xlink"><g id="contact_list_x2C__contact_log_x2C__contact_book">
<path d="M26.5,31h-21C4.673,31,4,30.327,4,29.5C4,29.224,4.224,29,4.5,29S5,29.224,5,29.5C5,29.775,5.224,30,5.5,30 
  h21c0.276,0,0.5-0.225,0.5-0.5v-27C27,2.225,26.776,2,26.5,2h-21C5.224,2,5,2.225,5,2.5v1C5,3.776,4.776,4,4.5,4S4,3.776,4,3.5v-1   C4,1.673,4.673,1,5.5,1h21C27.327,1,28,1.673,28,2.5v27C28,30.327,27.327,31,26.5,31z" fill="#fff"/><g><path d="M16,22.002c-2.195,0-4.244-0.877-5.77-2.469c-0.127-0.132-0.171-0.323-0.116-0.498    c0.239-0.75,0.85-1.371,1.556-1.583l2.632-1.136c0.142-0.062,0.303-0.054,0.438,0.021l0.536,0.294    c0.441,0.243,1.004,0.244,1.446,0l0.536-0.295c0.136-0.075,0.298-0.083,0.439-0.021l2.746,1.18    c0.617,0.177,1.206,0.791,1.443,1.543c0.055,0.174,0.01,0.364-0.116,0.496C20.244,21.125,18.195,22.002,16,22.002z M11.184,19.072    c1.308,1.247,3.006,1.93,4.816,1.93c1.812,0,3.511-0.684,4.819-1.932c-0.168-0.31-0.438-0.557-0.714-0.638l-2.577-1.104    l-0.322,0.178c-0.737,0.406-1.674,0.405-2.411,0.001l-0.321-0.177l-2.461,1.059C11.659,18.499,11.362,18.754,11.184,19.072z" fill="#fff"/><g><g><g><g><g><g><path d="M9.253,17.75c-0.187,0-0.364-0.104-0.45-0.283C8.27,16.363,8,15.197,8,14c0-4.411,3.589-8,8-8          s8,3.589,8,8c0,1.215-0.266,2.381-0.787,3.467c-0.121,0.249-0.418,0.354-0.668,0.233c-0.249-0.12-0.354-0.419-0.234-0.667          C22.768,16.083,23,15.063,23,14c0-3.859-3.141-7-7-7s-7,3.141-7,7c0,1.046,0.236,2.066,0.703,3.033          C9.822,17.281,9.719,17.58,9.47,17.7C9.4,17.734,9.326,17.75,9.253,17.75z" fill="#fff"/></g></g></g></g></g></g><g><g><g><g><g><g><path d="M17.5,17.29c-0.276,0-0.5-0.224-0.5-0.5v-0.8c0-0.156,0.073-0.304,0.198-0.398          C17.708,15.206,18,14.626,18,14.001v-1c0-1.55-0.097-2.5-2-2.5s-2,0.95-2,2.5v1c0,0.625,0.292,1.205,0.802,1.591          C14.927,15.687,15,15.834,15,15.99v0.8c0,0.276-0.224,0.5-0.5,0.5s-0.5-0.224-0.5-0.5v-0.564c-0.639-0.571-1-1.369-1-2.225          v-1c0-1.309,0-3.5,3-3.5s3,2.191,3,3.5v1c0,0.855-0.361,1.653-1,2.225v0.564C18,17.066,17.776,17.29,17.5,17.29z" fill="#fff"/></g></g></g></g></g></g></g><g><g><path d="M6,28H3c-0.276,0-0.5-0.224-0.5-0.5S2.724,27,3,27h3c0.276,0,0.5,0.224,0.5,0.5S6.276,28,6,28z" fill="#fff"/></g><g><path d="M6,24H3c-0.276,0-0.5-0.224-0.5-0.5S2.724,23,3,23h3c0.276,0,0.5,0.224,0.5,0.5S6.276,24,6,24z" fill="#fff"/></g><g><path d="M6,20H3c-0.276,0-0.5-0.224-0.5-0.5S2.724,19,3,19h3c0.276,0,0.5,0.224,0.5,0.5S6.276,20,6,20z" fill="#fff"/></g><g><path d="M6,16H3c-0.276,0-0.5-0.224-0.5-0.5S2.724,15,3,15h3c0.276,0,0.5,0.224,0.5,0.5S6.276,16,6,16z" fill="#fff"/></g><g><path d="M6,12H3c-0.276,0-0.5-0.224-0.5-0.5S2.724,11,3,11h3c0.276,0,0.5,0.224,0.5,0.5S6.276,12,6,12z" fill="#fff"/></g><g><path d="M6,8H3C2.724,8,2.5,7.776,2.5,7.5S2.724,7,3,7h3c0.276,0,0.5,0.224,0.5,0.5S6.276,8,6,8z" fill="#fff"/></g><g><path d="M6,4H3C2.724,4,2.5,3.776,2.5,3.5S2.724,3,3,3h3c0.276,0,0.5,0.224,0.5,0.5S6.276,4,6,4z" fill="#fff"/></g></g><path d="M22.5,26h-13C9.224,26,9,25.776,9,25.5S9.224,25,9.5,25h13c0.276,0,0.5,0.224,0.5,0.5S22.776,26,22.5,26z" fill="#fff"/><path d="M4.5,28C4.224,28,4,27.776,4,27.5v-2C4,25.224,4.224,25,4.5,25S5,25.224,5,25.5v2C5,27.776,4.776,28,4.5,28   z" fill="#fff"/><path d="M4.5,24C4.224,24,4,23.776,4,23.5v-2C4,21.224,4.224,21,4.5,21S5,21.224,5,21.5v2C5,23.776,4.776,24,4.5,24   z" fill="#fff"/><path d="M4.5,20C4.224,20,4,19.776,4,19.5v-2C4,17.224,4.224,17,4.5,17S5,17.224,5,17.5v2C5,19.776,4.776,20,4.5,20   z" fill="#fff"/><path d="M4.5,16C4.224,16,4,15.776,4,15.5v-2C4,13.224,4.224,13,4.5,13S5,13.224,5,13.5v2C5,15.776,4.776,16,4.5,16   z" fill="#fff"/><path d="M4.5,12C4.224,12,4,11.776,4,11.5v-2C4,9.224,4.224,9,4.5,9S5,9.224,5,9.5v2C5,11.776,4.776,12,4.5,12z" fill="#fff"/><path d="M4.5,8C4.224,8,4,7.776,4,7.5v-2C4,5.224,4.224,5,4.5,5S5,5.224,5,5.5v2C5,7.776,4.776,8,4.5,8z" fill="#fff"/></g></svg>