<svg width="24" height="24" viewBox="0 0 24 24" fill="none" xmlns="http://www.w3.org/2000/svg">
<path d="M19.068 19.0004H5.56272C5.2551 19.0004 5 18.7453 5 18.4377C5 18.1301 5.2551 17.875 5.56272 17.875H19.068C19.3756 17.875 19.6307 18.1301 19.6307 18.4377C19.6307 18.7453 19.3756 19.0004 19.068 19.0004Z" fill="#414346"/>
<path d="M17.5828 5.10579C16.1273 3.65022 14.7017 3.61271 13.2086 5.10579L12.3008 6.01364C12.2257 6.08867 12.1957 6.20872 12.2257 6.31376C12.796 8.30204 14.3866 9.89266 16.3749 10.4629C16.4049 10.4704 16.4349 10.4779 16.4649 10.4779C16.5474 10.4779 16.6225 10.4479 16.6825 10.3879L17.5828 9.48C18.3256 8.74471 18.6858 8.03193 18.6858 7.31165C18.6933 6.56886 18.3331 5.84858 17.5828 5.10579Z" fill="#414346"/>
<path d="M15.0242 11.1448C14.8066 11.0398 14.5965 10.9347 14.3939 10.8147C14.2288 10.7171 14.0713 10.6121 13.9137 10.4996C13.7862 10.417 13.6361 10.297 13.4936 10.1769C13.4786 10.1694 13.426 10.1244 13.366 10.0644C13.1184 9.85431 12.8408 9.5842 12.5932 9.28408C12.5707 9.26908 12.5332 9.21656 12.4807 9.14903C12.4056 9.05899 12.2781 8.90894 12.1655 8.73637C12.0755 8.62382 11.9705 8.45876 11.8729 8.2937C11.7529 8.09112 11.6478 7.88854 11.5428 7.67845C11.4051 7.38334 11.0177 7.29566 10.7874 7.52595L6.56835 11.745C6.47082 11.8426 6.38078 12.0302 6.35827 12.1577L5.95311 15.0313C5.87808 15.5415 6.02064 16.0217 6.33576 16.3443C6.60587 16.6069 6.98101 16.7495 7.38617 16.7495C7.47621 16.7495 7.56624 16.742 7.65628 16.727L10.5374 16.3218C10.6725 16.2993 10.86 16.2093 10.9501 16.1117L15.1761 11.8857C15.4018 11.66 15.317 11.2717 15.0242 11.1448Z" fill="#414346"/>
</svg>
