<svg width="17" height="4" viewBox="0 0 17 4" fill="none" xmlns="http://www.w3.org/2000/svg">
<path d="M2.39184 3.91442C3.4977 3.91442 4.39417 3.03815 4.39417 1.95721C4.39417 0.876273 3.4977 0 2.39184 0C1.28598 0 0.389526 0.876273 0.389526 1.95721C0.389526 3.03815 1.28598 3.91442 2.39184 3.91442Z" fill="#32A1C8"/>
<path d="M8.33418 3.91442C9.44004 3.91442 10.3365 3.03815 10.3365 1.95721C10.3365 0.876273 9.44004 0 8.33418 0C7.22833 0 6.33185 0.876273 6.33185 1.95721C6.33185 3.03815 7.22833 3.91442 8.33418 3.91442Z" fill="#32A1C8"/>
<path d="M14.2767 3.91442C15.3826 3.91442 16.2791 3.03815 16.2791 1.95721C16.2791 0.876273 15.3826 0 14.2767 0C13.1709 0 12.2744 0.876273 12.2744 1.95721C12.2744 3.03815 13.1709 3.91442 14.2767 3.91442Z" fill="#32A1C8"/>
</svg>
