<svg width="23" height="23" viewBox="0 0 23 23" fill="none" xmlns="http://www.w3.org/2000/svg">
<g clip-path="url(#clip0)">
<path d="M20.5718 6.89511C20.5742 7.79844 20.3974 8.69327 20.0517 9.52782C19.706 10.3624 19.1982 11.12 18.5576 11.757L9.8758 20.4388C8.95139 21.362 7.69823 21.8803 6.39178 21.8799C5.08533 21.8795 3.83251 21.3603 2.90871 20.4365C1.98491 19.5127 1.46573 18.2599 1.4653 16.9534C1.46487 15.647 1.98322 14.3938 2.90641 13.4694L11.6964 4.67968C11.9728 4.40119 12.3014 4.18 12.6635 4.02882C13.0255 3.87764 13.4139 3.79943 13.8062 3.79868C14.1986 3.79793 14.5872 3.87467 14.9499 4.02447C15.3125 4.17428 15.642 4.39421 15.9194 4.67165C16.1968 4.94909 16.4168 5.27858 16.5666 5.64122C16.7164 6.00385 16.7931 6.39249 16.7923 6.78485C16.7916 7.1772 16.7133 7.56555 16.5622 7.9276C16.411 8.28966 16.1898 8.6183 15.9113 8.89467L9.25141 15.5544C9.18684 15.6189 9.09928 15.6552 9.00797 15.6552C8.91667 15.6552 8.8291 15.6189 8.76453 15.5544L7.79082 14.5807C7.72626 14.5161 7.69 14.4285 7.69 14.3372C7.69 14.2459 7.72626 14.1584 7.79082 14.0938L14.4507 7.43408C14.5357 7.34913 14.6031 7.24828 14.649 7.13728C14.695 7.02628 14.7187 6.90732 14.7187 6.78717C14.7187 6.66703 14.695 6.54807 14.649 6.43707C14.6031 6.32607 14.5357 6.22522 14.4507 6.14027C14.2761 5.97448 14.0446 5.88204 13.8038 5.88204C13.563 5.88204 13.3315 5.97448 13.1569 6.14027L4.3669 14.93C3.83007 15.4668 3.52849 16.1949 3.5285 16.9541C3.52851 17.7133 3.83011 18.4414 4.36695 18.9783C4.90379 19.5151 5.63189 19.8167 6.39109 19.8167C7.15029 19.8167 7.87838 19.5151 8.41521 18.9782L17.0972 10.2966C17.9993 9.39445 18.5061 8.17093 18.5061 6.89517C18.5061 5.6194 17.9993 4.39589 17.0972 3.49379C16.1951 2.59169 14.9715 2.0849 13.6958 2.0849C12.42 2.08491 11.1965 2.5917 10.2944 3.49381L6.49701 7.29119C6.43244 7.35575 6.34488 7.39202 6.25357 7.39202C6.16227 7.39202 6.0747 7.35575 6.01014 7.29119L5.03642 6.31748C4.97187 6.25291 4.9356 6.16535 4.9356 6.07404C4.9356 5.98274 4.97187 5.89517 5.03642 5.83061L8.83381 2.03336C9.79542 1.07179 11.0206 0.416953 12.3543 0.151653C13.6881 -0.113648 15.0706 0.0225026 16.327 0.542887C17.5834 1.06327 18.6572 1.94452 19.4128 3.0752C20.1684 4.20588 20.5717 5.53522 20.5718 6.89511Z" fill="#FD830E"/>
</g>
<defs>
<clipPath id="clip0">
<rect width="22.0352" height="22.0352" fill="white" transform="translate(0 0.0195312)"/>
</clipPath>
</defs>
</svg>
