<svg width="13" height="13" viewBox="0 0 13 13" fill="none" xmlns="http://www.w3.org/2000/svg">
<path d="M9.40002 8.89999C9.10002 8.59999 8.89998 8.39998 8.59998 8.09998V7.99998C8.89998 7.59998 9.09999 7.09998 9.29999 6.69998C9.49999 6.29998 9.49998 5.79999 9.59998 5.29999C9.59998 4.99999 9.59998 4.79998 9.59998 4.49998C9.59998 4.19998 9.50002 3.79998 9.40002 3.49998C9.20002 2.99998 8.99998 2.49998 8.59998 2.09998C8.09998 1.49998 7.50001 0.999982 6.70001 0.699982C6.20001 0.499982 5.70001 0.399988 5.20001 0.299988C4.70001 0.299988 4.09998 0.299986 3.59998 0.399986C3.19998 0.499986 2.69999 0.699986 2.29999 0.899986C1.79999 1.19999 1.4 1.59998 1 1.99998C0.5 2.59998 0.199976 3.29998 0.0999756 3.99998C-2.44156e-05 4.29998 0 4.59999 0 4.89999C0 5.49999 0.0999878 5.99998 0.299988 6.49998C0.499988 7.09998 0.899988 7.69998 1.29999 8.19998C1.79999 8.79998 2.49999 9.19998 3.29999 9.49998C3.59999 9.59999 4.00002 9.69998 4.40002 9.69998C4.70002 9.69998 4.99999 9.69998 5.29999 9.69998C5.59999 9.69998 5.90001 9.59999 6.20001 9.49998C6.80001 9.29998 7.29999 9.09998 7.79999 8.69998H7.90002C8.60002 9.39998 9.20002 9.99998 9.90002 10.7C10.3 11.1 10.7 11.5 11.1 11.9C11.2 12 11.4 12.1 11.6 12.1C11.8 12.1 12 11.9 12.1 11.7C12.2 11.5 12.1 11.3 11.9 11.1C11 10.5 10.2 9.69999 9.40002 8.89999ZM4.79999 8.69998C2.79999 8.69998 1.20001 7.09998 1.20001 5.09998C1.20001 3.09998 2.79999 1.49998 4.79999 1.49998C6.79999 1.49998 8.40002 3.09998 8.40002 5.09998C8.40002 7.09998 6.79999 8.69998 4.79999 8.69998Z" fill="#32A1C8"/>
</svg>
