<svg width="16" height="13" viewBox="0 0 16 13" fill="none" xmlns="http://www.w3.org/2000/svg">
<path d="M7.09998 2.30002C8.49998 2.30002 9.89999 2.30002 11.3 2.30002C12.7 2.30002 13.6 3.10001 13.6 4.60001C13.6 4.80001 13.6 4.90001 13.6 5.10001C14 5.10001 14.5 5.10001 14.9 5.10001C15.5 5.10001 15.8 5.50001 15.7 6.10001C15.3 7.70001 15 9.40001 14.6 11C14.4 12.1 13.6 12.7 12.5 12.7C9.2 12.7 6.00001 12.7 2.70001 12.7C1.40001 12.7 0.5 11.8 0.5 10.5C0.5 7.80002 0.5 5.10002 0.5 2.40002C0.5 1.10002 1.40001 0.200012 2.70001 0.200012C3.50001 0.200012 4.2 0.200012 5 0.200012C6.1 0.200012 6.79998 0.700012 7.09998 1.70001C6.99998 1.90001 7.09998 2.10002 7.09998 2.30002ZM4.70001 11.3C4.90001 11.3 4.99998 11.3 5.09998 11.3C7.29998 11.3 9.59999 11.3 11.8 11.3C12.9 11.3 12.9 11.3 13.2 10.2C13.5 9.00001 13.8 7.70002 14.1 6.50002C11.3 6.50002 8.59999 6.50002 5.79999 6.50002C5.39999 8.00002 5.10001 9.60002 4.70001 11.3ZM12.2 5.00002C12.2 4.80002 12.2 4.70001 12.2 4.60001C12.2 3.80001 12 3.60001 11.2 3.60001C9.70001 3.60001 8.29999 3.60001 6.79999 3.60001C6.39999 3.60001 6.2 3.50002 6 3.00002C5.9 2.70002 5.80001 2.30002 5.70001 2.00002C5.60001 1.60002 5.4 1.50002 5 1.50002C4.2 1.50002 3.39998 1.50002 2.59998 1.50002C2.09998 1.50002 1.90002 1.80002 1.90002 2.30002C1.90002 2.80002 1.90002 3.30002 1.90002 3.80002C1.90002 6.00002 1.90002 8.30002 1.90002 10.5C1.90002 10.8 1.99999 11.1 2.29999 11.2C2.79999 11.5 3.49998 11.2 3.59998 10.6C3.99998 9.00001 4.30001 7.40002 4.70001 5.80002C4.80001 5.20002 4.99998 5.10001 5.59998 5.10001C7.69998 5.10001 9.80002 5.10001 11.9 5.10001C11.9 5.00001 12 5.00002 12.2 5.00002Z" fill="#32A1C8"/>
</svg>
