<svg width="24" height="24" viewBox="0 0 24 24" fill="none" xmlns="http://www.w3.org/2000/svg">
<path d="M5.25397 19.5163L6.12051 18.9451C6.90986 18.4249 7.64453 17.8259 8.3132 17.1574L11.5292 13.9425L10.604 13.0176L7.38801 16.2325C6.71934 16.901 6.12014 17.6354 5.59971 18.4245L5.02834 19.2908C4.93052 19.4391 5.10561 19.6141 5.25397 19.5163Z" fill="#414346"/>
<path d="M17.8634 9.01023C17.6169 8.76382 15.7845 6.93198 15.538 6.68555L12.2385 9.77639L14.7716 12.3086L17.8634 9.01023Z" fill="#414346"/>
<path d="M19.3059 7.75784L16.791 5.24378C16.4659 4.91874 15.9338 4.91874 15.6087 5.24378L15.4048 5.44767C15.0796 5.77272 15.0796 6.30459 15.4048 6.62963L17.9196 9.14369C18.2448 9.46873 18.7768 9.46873 19.102 9.14369L19.3059 8.9398C19.631 8.61479 19.6311 8.08288 19.3059 7.75784Z" fill="#414346"/>
<path d="M14.7071 16.4324C15.2654 15.4057 15.429 14.4762 15.4592 13.828C15.4842 13.292 15.2822 12.7705 14.9026 12.3911L12.1571 9.64638C11.7775 9.26694 11.2558 9.06499 10.7196 9.08996C10.0712 9.12017 9.14141 9.28379 8.11441 9.8419C7.87596 9.97152 7.82994 10.2947 8.02186 10.4866L14.0622 16.5249C14.2541 16.7167 14.5774 16.6707 14.7071 16.4324Z" fill="#414346"/>
</svg>
