<svg width="18" height="11" viewBox="0 0 18 11" fill="none" xmlns="http://www.w3.org/2000/svg">
<path d="M17.6 10.3C17.6 10 17.6 9.70002 17.5 9.30002C17.3 8.20002 16.6 7.40002 15.6 6.80002C16.6 
5.50002 16.5 4.30002 15.5 3.30002C14.9 2.70002 14.2 2.50001 13.4 2.70001C12.8 2.80001 12.4 3.10001 
12 3.50001C11.8 1.90001 10.6 1.00002 9.39999 0.800017C8.39999 0.700017 7.59999 1.00002 6.89999 
1.60002C6.39999 2.10002 6.1 2.70001 6 3.40001C5.7 3.00001 5.19999 2.80002 4.79999 2.60002C4.09999 
2.40002 3.39999 2.60001 2.89999 2.90001C2.29999 3.30001 1.99999 3.80001 1.89999 4.50001C1.79999 
5.30001 2.00001 6.00002 2.60001 6.60002C1.30001 7.30002 0.600006 8.50002 0.600006 10.1C0.600006 10.7 0.799994 10.9 1.39999 10.9H16.9H17C17 10.9 17 10.9 17.1 10.9H17.2C17.5 10.9 17.7 10.6 17.7 10.3H17.6ZM4.20001 6.40001C3.90001 6.40001 3.49999 6.30001 
3.29999 6.00001C3.09999 5.80001 2.89999 5.40002 2.89999 5.10002C2.89999 4.40002 3.50001 3.80002 4.20001 3.80002C4.50001 3.80002 4.90001 3.90001 5.10001 4.20001C5.30001 4.40001 5.5 4.80002 5.5 5.10002C5.5 5.90002 4.90001 6.40001 
4.20001 6.40001ZM5.10001 7.80002C4.70001 8.40002 4.5 9.20001 4.5 10H1.60001C1.70001 9.10001 2.09999 8.50001 2.79999 8.00001C3.59999 7.60001 4.30001 7.50002 5.10001 7.80002ZM9.10001 5.70001C8.60001 5.70001 
8.09999 5.50001 7.79999 5.20001C7.49999 4.90001 7.29999 4.40001 7.29999 3.90001C7.29999 2.90001 8.10001 2.10002 9.10001 2.10002C10.1 2.10002 10.9 2.90001 10.9 3.90001C10.9 4.90001 10.1 5.70001 9.10001 
5.70001ZM6.79999 7.50001C7.29999 7.10001 7.79999 6.90001 8.39999 6.90001H8.5C9.1 6.90001 9.70001 6.80001 10.2 7.00001C11.5 7.40001 12.4 8.70001 12.3 10H5.70001C5.70001 8.90001 6.09999 8.20001 6.79999 
7.50001ZM15.1 7.90001C15.9 8.30001 16.3 9.00001 16.4 9.90001H13.5C13.5 9.80001 13.5 9.80001 13.5 9.70001C13.5 9.40001 13.4 9.10002 13.4 8.80002C13.3 8.50002 13.2 8.20001 13.1 7.90001C13.1 7.80001 13 
7.80001 13 7.70001C13.7 7.50001 14.4 7.50001 15.1 7.90001ZM13.9 6.40001C13.6 6.40001 13.2 6.30001 13 6.00001C12.8 5.80001 12.6 5.40002 12.6 5.10002C12.6 4.40002 13.2 3.80002 13.9 3.80002C14.2 3.80002 
14.6 3.90001 14.8 4.20001C15 4.40001 15.2 4.80002 15.2 5.10002C15.1 5.90002 14.6 6.40001 13.9 6.40001ZM11.3 6.10002L11.2 6.00001L11.6 5.50001C11.7 5.90001 11.8 6.20001 12 6.50001C11.7 6.40001 11.5 6.30002 
11.3 6.10002ZM7 6.00001L6.89999 6.10002C6.69999 6.30002 6.40001 6.40002 6.20001 6.60002C6.50001 6.20002 6.60001 6.00001 6.70001 5.50001L7 6.00001Z" fill="#32A1C8"/>
</svg>
