<svg width="20" height="20" viewBox="0 0 20 20" fill="none" xmlns="http://www.w3.org/2000/svg">
<path d="M17.3808 15H13.0951V12.1429H11.1808C10.3665 13.8714 8.60936 15 6.6665 15C3.90936 15 1.6665 12.7571 1.6665 10C1.6665 7.24286 3.90936 5 6.6665 5C8.60936 5 10.3594 6.12857 11.1808 7.85714H18.8094V12.1429H17.3808V15ZM14.5236 13.5714H15.9522V10.7143H17.3808V9.28571H10.1951L10.0308 8.80714C9.53079 7.38571 8.17365 6.42857 6.6665 6.42857C4.69508 6.42857 3.09508 8.02857 3.09508 10C3.09508 11.9714 4.69508 13.5714 6.6665 13.5714C8.17365 13.5714 9.53079 12.6143 10.0308 11.1929L10.1951 10.7143H14.5236V13.5714ZM6.6665 12.1429C5.48793 12.1429 4.52365 11.1786 4.52365 10C4.52365 8.82143 5.48793 7.85714 6.6665 7.85714C7.84508 7.85714 8.80936 8.82143 8.80936 10C8.80936 11.1786 7.84508 12.1429 6.6665 12.1429ZM6.6665 9.28571C6.27365 9.28571 5.95222 9.60714 5.95222 10C5.95222 10.3929 6.27365 10.7143 6.6665 10.7143C7.05936 10.7143 7.38079 10.3929 7.38079 10C7.38079 9.60714 7.05936 9.28571 6.6665 9.28571Z" fill="#32A1C8"/>
</svg>
