<svg width="15" height="13" viewBox="0 0 15 13" fill="none" xmlns="http://www.w3.org/2000/svg">
<path d="M1.60001 10.1C2.10001 10.1 2.69999 10.1 3.29999 10.1C3.29999 10.8 3.19999 11.3 3.29999 11.9C3.29999 12.2 3.49999 12.6 3.79999 12.8C4.19999 13.1 4.6 12.9 5 12.6C5.9 11.9 6.89999 11.1 7.79999 10.4C8.09999 10.2 8.49999 10 8.79999 10C10.4 10 12 10 13.5 10C14.4 10 14.8 9.70003 14.8 8.80003C14.8 6.40003 14.8 4.00004 14.8 1.60004C14.8 0.800037 14.5 0.400024 13.6 0.400024C9.60001 0.400024 5.5 0.400024 1.5 0.400024C0.7 0.400024 0.299988 0.700037 0.299988 1.60004C0.299988 4.00004 0.299988 6.50002 0.299988 8.90002C0.499988 9.70002 0.800006 10 1.60001 10.1ZM2.39999 2.40002C5.89999 2.40002 9.4 2.40002 13 2.40002C13 4.20002 13 6.00003 13 7.80003C13 7.90003 12.7 8.10004 12.5 8.10004C11.2 8.10004 9.90001 8.10004 8.60001 8.10004C8.00001 8.10004 7.5 8.20003 7 8.70003C6.5 9.10003 5.99999 9.50003 5.39999 10C5.39999 9.80003 5.29999 9.60003 5.29999 9.50003C5.29999 8.50003 5 8.20003 4 8.20003C3.6 8.20003 3.10001 8.20003 2.70001 8.20003C2.70001 8.20003 2.6 8.20004 2.5 8.10004C2.4 6.20004 2.39999 4.30002 2.39999 2.40002Z" fill="#32A1C8"/>
<path d="M5.4 6.20004C6.9 6.20004 8.40001 6.20004 10 6.20004C10.7 6.20004 11.1 5.80004 11.1 5.20004C11.1 4.70004 10.7 4.30005 10 4.30005C9.60001 4.30005 9.3 4.30005 8.9 4.30005C8.5 4.30005 8.2 4.30005 7.8 4.30005C7.6 4.30005 7.40002 4.30005 7.20002 4.30005C6.60002 4.30005 6.00001 4.30005 5.50001 4.30005C4.80001 4.30005 4.4 4.70004 4.4 5.20004C4.3 5.80004 4.7 6.20004 5.4 6.20004Z" fill="#32A1C8"/>
</svg>
