<svg width="17" height="16" viewBox="0 0 17 16" fill="none" xmlns="http://www.w3.org/2000/svg">
<path d="M6.16599 8.00203C6.70856 8.00203 7.23895 7.84113 7.69008 7.53968C8.14121 7.23823 8.49281 6.80977 8.70042 6.30849C8.90803 5.80721 8.96233 5.25562 8.85645 4.72348C8.75056 4.19134 8.48925 3.70255 8.10556 3.31892C7.72186 2.9353 7.23303 2.67407 6.70087 2.56828C6.16871 2.46248 5.61713 2.51688 5.11588 2.72458C4.61463 2.93228 4.18624 3.28396 3.88487 3.73514C3.5835 4.18632 3.4227 4.71673 3.42279 5.25931C3.42355 5.98657 3.71283 6.68382 4.22713 7.19803C4.74142 7.71224 5.43873 8.00139 6.16599 8.00203Z" fill="white"/>
<path d="M9.75437 10.268C9.05925 9.555 8.16736 9.0654 7.19264 8.86173C6.21791 8.65807 5.2046 8.74959 4.28214 9.1246C3.35968 9.49961 2.56995 10.1411 2.01382 10.9671C1.4577 11.7931 1.16042 12.7661 1.15997 13.7619C1.15997 13.8892 1.21054 14.0113 1.30056 14.1013C1.39058 14.1913 1.51267 14.2419 1.63997 14.2419H10.6928C10.8201 14.2419 10.9422 14.1913 11.0322 14.1013C11.1222 14.0113 11.1728 13.8892 11.1728 13.7619C11.1746 13.2529 11.0961 12.7469 10.94 12.2624C10.7076 11.5134 10.3013 10.83 9.75437 10.268Z" fill="white"/>
<path d="M11.96 8.24211C13.0866 8.24211 14 7.32877 14 6.20211C14 5.07545 13.0866 4.16211 11.96 4.16211C10.8333 4.16211 9.91998 5.07545 9.91998 6.20211C9.91998 7.32877 10.8333 8.24211 11.96 8.24211Z" fill="white"/>
<path d="M11.96 8.80469C11.3166 8.8071 10.6856 8.98233 10.1331 9.31205C10.2373 9.40517 10.3424 9.49685 10.4408 9.59765C11.0944 10.2694 11.5799 11.0862 11.8578 11.9813C11.9529 12.276 12.0231 12.5782 12.0675 12.8847H15.08C15.2073 12.8847 15.3294 12.8341 15.4194 12.7441C15.5094 12.6541 15.56 12.532 15.56 12.4047C15.559 11.4502 15.1794 10.5351 14.5045 9.86023C13.8295 9.18531 12.9145 8.8057 11.96 8.80469Z" fill="white"/>
</svg>
