<svg width="12" height="12" viewBox="0 0 12 12" fill="none" xmlns="http://www.w3.org/2000/svg">
<path d="M0.888889 2.68451C0.888889 5.4934 0.888889 8.30229 0.888889 11.0756C3.69778 11.0756 6.47111 11.0756 9.28 11.0756C9.28 11.0401 9.28 11.0401 9.28 11.0045C9.28 9.61784 9.28 8.26673 9.28 6.88007C9.28 6.63118 9.45778 6.4534 9.70667 6.4534C9.95556 6.4534 10.1333 6.63118 10.1333 6.88007C10.1333 8.01784 10.1333 9.15562 10.1333 10.2934C10.1333 10.6845 10.1333 11.0756 10.1333 11.5023C10.1333 11.7867 9.95556 11.9645 9.67111 11.9645C6.61333 11.9645 3.52 11.9645 0.462222 11.9645C0.177778 11.9645 0 11.7867 0 11.5023C0.0355556 8.44451 0.0355556 5.35118 0.0355556 2.2934C0.0355556 2.00895 0.213333 1.83118 0.497778 1.83118C2.02667 1.83118 3.55556 1.83118 5.08444 1.83118C5.29778 1.83118 5.47556 1.9734 5.51111 2.18673C5.54667 2.36451 5.44 2.57784 5.26222 2.64895C5.19111 2.68451 5.12 2.68451 5.04889 2.68451C3.69778 2.68451 2.34667 2.68451 0.995556 2.68451C0.96 2.68451 0.924445 2.68451 0.888889 2.68451Z" fill="#78797D"/>
<path d="M2.95111 8.62222C2.95111 8.55111 2.98667 8.48 3.02222 8.44444C3.34222 7.69778 3.66222 6.91555 3.98222 6.16889C4.01778 6.09778 4.05333 6.02667 4.12444 5.99111C6.04444 4.03555 8 2.11556 9.92 0.16C10.1333 -0.0533333 10.3822 -0.0533333 10.56 0.16C10.9867 0.586667 11.4133 1.01333 11.84 1.44C12.0533 1.65333 12.0533 1.90222 11.84 2.11556C10.3467 3.60889 8.81778 5.13778 7.32444 6.63111C6.89778 7.05778 6.47111 7.48444 6.04444 7.87556C5.97333 7.94667 5.90222 7.98222 5.79556 8.01778C5.04889 8.33778 4.30222 8.65778 3.55556 8.97778C3.27111 9.08444 2.98667 8.94222 2.95111 8.69333C2.95111 8.69333 2.95111 8.65778 2.95111 8.62222ZM9.06667 2.22222C7.68 3.60889 6.29333 4.99555 4.90667 6.38222C5.15556 6.63111 5.36889 6.84444 5.61778 7.09333C7.00444 5.70667 8.39111 4.32 9.77778 2.93333C9.56444 2.72 9.31556 2.47111 9.06667 2.22222ZM10.9511 1.79556C10.7022 1.54667 10.4889 1.33333 10.24 1.08444C9.99111 1.33333 9.74222 1.58222 9.49333 1.83111C9.74222 2.08 9.95556 2.29333 10.2044 2.54222C10.4533 2.29333 10.7022 2.04444 10.9511 1.79556ZM4.19556 7.80444C4.51556 7.66222 4.8 7.55555 5.08444 7.41333C4.90667 7.23555 4.72889 7.09333 4.58667 6.91555C4.44444 7.2 4.33778 7.52 4.19556 7.80444Z" fill="#78797D"/>
</svg>
