<svg width="23" height="23" viewBox="0 0 23 23" fill="none" xmlns="http://www.w3.org/2000/svg">
<path d="M18.987 1.88181L2.46062 7.39061C2.29282 7.44748 2.14498 7.55151 2.03477 7.69024C1.92457 7.82896 1.85669 7.99652 1.83925 8.17283C1.82182 8.34914 1.85556 8.52674 1.93645 8.68437C2.01735 8.84199 2.14195 8.97297 2.29536 9.06161L8.26322 12.4679V19.2804C8.26312 19.4774 8.32652 19.6691 8.44401 19.8272C8.56151 19.9853 8.72683 20.1013 8.91545 20.158C9.10408 20.2147 9.30596 20.209 9.49113 20.1419C9.6763 20.0748 9.8349 19.9498 9.9434 19.7854L13.1385 14.9927L18.8218 18.2429C18.9619 18.3213 19.1201 18.3619 19.2807 18.3607C19.4414 18.3594 19.5989 18.3164 19.7378 18.2358C19.8768 18.1552 19.9924 18.0398 20.0732 17.901C20.1541 17.7622 20.1974 17.6048 20.199 17.4442V2.75404C20.198 2.60852 20.1626 2.4653 20.0958 2.33601C20.029 2.20673 19.9327 2.09505 19.8146 2.01004C19.6965 1.92504 19.5599 1.86912 19.4161 1.84684C19.2723 1.82456 19.1253 1.83654 18.987 1.88181ZM12.0367 13.3493L10.0995 16.2506V12.4036L13.469 9.99811L12.0367 13.3493Z" fill="white"/>
</svg>
