<svg width="23" height="23" viewBox="0 0 23 23" fill="none" xmlns="http://www.w3.org/2000/svg">
<g clip-path="url(#clip0)">
<path d="M11.0176 0.0195312C8.8385 0.0195313 6.70836 0.665702 4.89652 1.87633C3.08469 3.08696 1.67253 4.80767 0.838639 6.82087C0.00474321 8.83408 -0.213442 11.0493 0.211674 13.1866C0.636791 15.3238 1.68611 17.2869 3.22695 18.8277C4.76779 20.3686 6.73094 21.4179 8.86814 21.843C11.0053 22.2681 13.2206 22.05 15.2338 21.2161C17.247 20.3822 18.9677 18.97 20.1784 17.1582C21.389 15.3463 22.0352 13.2162 22.0352 11.0371C22.0352 8.11508 20.8744 5.31271 18.8082 3.24651C16.742 1.18031 13.9396 0.0195313 11.0176 0.0195313V0.0195312ZM15.6305 6.78665C15.91 6.78665 16.1833 6.86955 16.4157 7.02486C16.6482 7.18017 16.8293 7.40092 16.9363 7.65919C17.0433 7.91747 17.0713 8.20166 17.0167 8.47584C16.9622 8.75002 16.8276 9.00188 16.6299 9.19955C16.4322 9.39722 16.1804 9.53184 15.9062 9.58638C15.632 9.64091 15.3478 9.61292 15.0896 9.50595C14.8313 9.39896 14.6105 9.2178 14.4552 8.98536C14.2999 8.75292 14.217 8.47965 14.217 8.2001C14.217 7.82523 14.3659 7.46571 14.631 7.20064C14.8961 6.93557 15.2556 6.78665 15.6305 6.78665ZM6.40468 6.78665C6.68423 6.78665 6.9575 6.86955 7.18994 7.02486C7.42238 7.18017 7.60355 7.40092 7.71053 7.65919C7.81751 7.91747 7.8455 8.20166 7.79096 8.47584C7.73642 8.75002 7.6018 9.00188 7.40413 9.19955C7.20646 9.39722 6.95461 9.53184 6.68043 9.58638C6.40624 9.64091 6.12205 9.61292 5.86378 9.50595C5.6055 9.39896 5.38475 9.2178 5.22944 8.98536C5.07413 8.75292 4.99124 8.47965 4.99124 8.2001C4.99124 7.82523 5.14015 7.46571 5.40522 7.20064C5.67029 6.93557 6.02981 6.78665 6.40468 6.78665ZM16.9613 15.1702C15.1405 17.0548 13.1776 18.0058 11.1161 18.0058H10.9712C8.23418 17.9463 6.10314 16.211 5.08112 15.1905C4.99314 15.1035 4.92473 14.9988 4.88044 14.8833C4.83615 14.7678 4.817 14.6442 4.82427 14.5207C4.83155 14.3972 4.86507 14.2767 4.92261 14.1672C4.98015 14.0577 5.06038 13.9618 5.15795 13.8858C5.32455 13.7556 5.53283 13.6906 5.74387 13.7029C5.95491 13.7152 6.15426 13.8039 6.30465 13.9524C7.13242 14.7773 8.88363 16.2241 11.0161 16.2719C12.6108 16.3024 14.1924 15.5311 15.7029 13.9756C15.8232 13.8502 15.9783 13.7637 16.1483 13.7273C16.3182 13.6908 16.4951 13.7061 16.6563 13.7712C16.8174 13.8362 16.9554 13.9481 17.0524 14.0922C17.1494 14.2364 17.201 14.4064 17.2005 14.5802C17.2001 14.8004 17.1143 15.0119 16.9613 15.1702Z" fill="#FD830E"/>
</g>
<defs>
<clipPath id="clip0">
<rect width="22.0352" height="22.0352" fill="white" transform="translate(0 0.0195312)"/>
</clipPath>
</defs>
</svg>
