<svg width="15" height="16" viewBox="0 0 15 16" fill="none" xmlns="http://www.w3.org/2000/svg">
<path d="M5.35743 7.82266C5.88729 7.82266 6.40525 7.66553 6.8458 7.37115C7.28636 7.07676 7.62972 6.65835 7.83247 6.16882C8.03521 5.67928 8.08824 5.14062 7.98483 4.62095C7.88143 4.10128 7.62624 3.62395 7.25154 3.24931C6.87684 2.87468 6.39946 2.61958 5.87978 2.51626C5.36009 2.41295 4.82143 2.46607 4.33194 2.6689C3.84244 2.87173 3.42408 3.21517 3.12978 3.65577C2.83547 4.09638 2.67844 4.61436 2.67853 5.14422C2.67927 5.85444 2.96177 6.53535 3.46401 7.0375C3.96626 7.53966 4.64722 7.82204 5.35743 7.82266Z" fill="#414346"/>
<path d="M8.86172 10.0353C8.18289 9.339 7.3119 8.86088 6.36002 8.66199C5.40814 8.4631 4.41858 8.55247 3.51774 8.91869C2.6169 9.28491 1.84568 9.91136 1.30259 10.718C0.759497 11.5247 0.469189 12.4749 0.46875 13.4473C0.46875 13.5716 0.518136 13.6909 0.606044 13.7788C0.693951 13.8667 0.81318 13.9161 0.9375 13.9161H9.77813C9.90245 13.9161 10.0217 13.8667 10.1096 13.7788C10.1975 13.6909 10.2469 13.5716 10.2469 13.4473C10.2487 12.9503 10.172 12.456 10.0195 11.9829C9.79257 11.2515 9.39583 10.5841 8.86172 10.0353Z" fill="#414346"/>
<path d="M11.0156 8.05664C12.1159 8.05664 13.0078 7.16471 13.0078 6.06445C13.0078 4.9642 12.1159 4.07227 11.0156 4.07227C9.91537 4.07227 9.02344 4.9642 9.02344 6.06445C9.02344 7.16471 9.91537 8.05664 11.0156 8.05664Z" fill="#414346"/>
<path d="M11.0156 8.60547C10.3873 8.60783 9.77113 8.77895 9.23157 9.10094C9.33329 9.19187 9.43594 9.28141 9.53204 9.37984C10.1703 10.0359 10.6444 10.8335 10.9158 11.7077C11.0087 11.9954 11.0772 12.2906 11.1206 12.5898H14.0625C14.1868 12.5898 14.3061 12.5405 14.394 12.4526C14.4819 12.3646 14.5313 12.2454 14.5313 12.1211C14.5303 11.189 14.1595 10.2954 13.5005 9.63627C12.8414 8.97718 11.9477 8.60646 11.0156 8.60547Z" fill="#414346"/>
</svg>
