<svg width="16" height="15" viewBox="0 0 16 15" fill="none" xmlns="http://www.w3.org/2000/svg">
<path fill-rule="evenodd" clip-rule="evenodd" d="M11.0145 0H3.98548C1.53519 0 0 1.7343 0 4.18865V10.8113C0 13.2657 1.52869 15 3.98548 15H11.0137C13.4713 15 15 13.2657 15 10.8113V4.18865C15 1.7343 13.4713 0 11.0145 0Z" fill="#414346"/>
<path fill-rule="evenodd" clip-rule="evenodd" d="M6.4633 4.90454C6.4633 5.73268 5.79119 6.40478 4.96305 6.40478C4.13573 6.40478 3.46362 5.73268 3.46362 4.90454C3.46362 4.0764 4.13573 3.4043 4.96305 3.4043C5.79119 3.4043 6.4633 4.0764 6.4633 4.90454Z" fill="white"/>
<path d="M14.9996 9.9152C14.1917 9.21221 13.4887 8.36619 12.5623 7.80787C11.6342 7.24954 10.637 7.59413 9.99332 8.42715C9.37161 9.23253 8.98314 10.3159 8.04447 10.8238C6.888 11.4504 6.20858 10.4402 5.24391 10.0355C4.16708 9.58443 3.3495 10.3955 2.72047 11.1749C2.09063 11.9551 1.45266 12.7271 0.812256 13.4992" stroke="white" stroke-linecap="round" stroke-linejoin="round"/>
</svg>
