<svg width="16" height="15" viewBox="0 0 16 15" fill="none" xmlns="http://www.w3.org/2000/svg">
<path fill-rule="evenodd" clip-rule="evenodd" d="M5.77875 10.0996C2.66194 10.0996 0 10.5707 0 12.4583C0 14.3451 2.64491 14.834 5.77875 14.834C8.89557 14.834 11.5575 14.3621 11.5575 12.4753C11.5575 10.5885 8.91259 10.0996 5.77875 10.0996Z" fill="#414346"/>
<path fill-rule="evenodd" clip-rule="evenodd" d="M5.7788 7.4077C7.83505 7.4077 9.48265 5.75929 9.48265 3.70385C9.48265 1.6476 7.83505 0 5.7788 0C3.72336 0 2.07495 1.6476 2.07495 3.70385C2.07495 5.75929 3.72336 7.4077 5.7788 7.4077Z" fill="#414346"/>
<path d="M13.341 4.79883V8.05024" stroke="#414346" stroke-linecap="round" stroke-linejoin="round"/>
<path d="M15 6.42494H11.6837" stroke="#414346" stroke-linecap="round" stroke-linejoin="round"/>
</svg>
