<svg width="13" height="18" viewBox="0 0 13 18" fill="none" xmlns="http://www.w3.org/2000/svg">
<path d="M12.3 6.50006C12.3 3.40006 9.79998 0.800049 6.59998 0.800049C3.49998 0.800049 0.900024 3.30006 0.900024 6.50006C0.900024 7.30006 1.10002 8.10005 1.40002 8.80005C1.60002 9.10005 1.7 9.50005 2 9.80005C2.5 10.7 3.4 12 4.5 13.3C5.4 14.4 5.99999 15.8 6.29999 16.8C6.39999 17.1 6.9 17.1 7 16.8C7.3 15.7 7.79999 14.4 8.79999 13.3C9.89999 12 10.8 10.6 11.3 9.80005C11.5 9.50005 11.7 9.20005 11.9 8.80005C12.1 8.10005 12.3 7.30006 12.3 6.50006ZM6.70001 9.30005C5.20001 9.30005 3.90002 8.10006 3.90002 6.50006C3.90002 5.00006 5.10001 3.70007 6.70001 3.70007C8.20001 3.70007 9.5 4.90006 9.5 6.50006C9.4 8.00006 8.20001 9.30005 6.70001 9.30005Z" fill="#ffffff"/>
</svg>
