<svg width="24" height="22" viewBox="0 0 24 22" fill="none" xmlns="http://www.w3.org/2000/svg">
<path d="M13.7 4.90002C16.4 4.90002 19.1 4.90002 21.9 4.90002C22.8 4.90002 23.1 5.19998 23.1 6.09998C23.1 10.7 23.1 15.2 23.1 19.8C23.1 21 23 21.1 21.9 21.1C16.5 21.1 11.1 21.1 5.70001 21.1C4.80001 21.1 4.5 20.8 4.5 19.9C4.5 15.3 4.5 10.8 4.5 6.20001C4.5 5.00001 4.49999 5 5.79999 5C8.29999 4.9 11 4.90002 13.7 4.90002ZM5.40002 19.7C10.9 19.7 16.4 19.7 22 19.7C22 15.1 22 10.5 22 5.90002C16.4 5.90002 10.9 5.90002 5.40002 5.90002C5.40002 10.6 5.40002 15.1 5.40002 19.7Z" fill="#ffffff"/>
<path d="M19.5 4.20003C18.7 4.60003 18.5 4.20002 18.4 3.50002C18.3 3.00002 18.2 2.50004 18.1 1.90004C12.6 2.90004 7.19999 4.00001 1.79999 5.00001C2.39999 9.90001 4.2 14.6 3.5 19.6C3.3 18.7 3.1 17.9 3 17C2.3 13.1 1.49999 9.2 0.799988 5.3C0.599988 4.5 0.900012 4.10001 1.70001 4.00002C7.10001 3.00002 12.5 2.00004 17.9 0.900039C18.4 0.800039 18.9 0.800039 19 1.40004C19.2 2.30004 19.3 3.30003 19.5 4.20003Z" fill="#ffffff"/>
<path d="M14.3 14.3C15.1 13.8 15.8 13.2 16.5 12.8C16.8 12.6 17.3 12.5 17.7 12.7C18.8 13.2 19.8 13.7 20.9 14.3C21.1 14.4 21.4 14.7 21.4 14.9C21.4 16.3 21.4 17.8 21.4 19.2C16.2 19.2 11.1 19.2 5.90002 19.2C5.90002 17.7 5.90002 16.1 5.90002 14.6C5.90002 14.4 6.09999 14.2 6.29999 14C7.59999 12.9 8.89998 11.9 10.1 10.8C10.6 10.4 11 10.4 11.4 10.9C12.4 12 13.4 13.1 14.3 14.3Z" fill="#ffffff"/>
<path d="M17.8 7C18.5 7 19.1 7.59999 19.1 8.29999C19.1 9.09999 18.5 9.69997 17.7 9.59997C17 9.59997 16.4 8.99999 16.4 8.29999C16.5 7.59999 17.1 6.9 17.8 7Z" fill="#ffffff"/>
</svg>
