<svg width="13" height="16" viewBox="0 0 13 16" fill="none" xmlns="http://www.w3.org/2000/svg">
<path d="M12.7 0.5C12.7 1 12.7 1.40002 12.7 1.90002C12.7 2.30002 12.7 2.6 12.6 3C12.6 3.4 12.5 3.80001 12.5 4.20001C12.5 4.40001 12.5 4.50001 12.4 4.70001C12.2 4.70001 12 4.70001 11.9 4.70001L11.8 4.59998C11.7 4.19998 11.5 3.8 11.4 3.5C11.2 2.9 11 2.39999 10.8 1.79999L10.7 1.70001C9.80001 1.70001 8.99998 1.70001 8.09998 1.70001C8.09998 5.90001 8.09998 10.1 8.09998 14.2C8.49998 14.3 8.90001 14.4 9.20001 14.4C9.50001 14.5 9.7 14.5 10 14.6L10.1 14.7C10.1 14.9 10.1 15.1 10.1 15.2C7.69998 15.2 5.30002 15.2 2.90002 15.2C2.90002 15 2.90002 14.8 2.90002 14.5C3.60002 14.3 4.20002 14.2 4.90002 14C4.90002 9.8 4.90002 5.7 4.90002 1.5H4.79999C3.99999 1.5 3.20002 1.5 2.40002 1.5C2.30002 1.5 2.20001 1.49998 2.20001 1.59998C1.90001 2.29998 1.70002 2.99999 1.40002 3.79999C1.30002 3.99999 1.19998 4.3 1.09998 4.5C0.899976 4.5 0.7 4.5 0.5 4.5C0.5 4.3 0.400024 4.10002 0.400024 3.90002C0.400024 3.40002 0.299988 2.90002 0.299988 2.40002C0.299988 2.20002 0.299988 1.99999 0.299988 1.79999C0.299988 1.29999 0.299988 0.900024 0.299988 0.400024C4.29999 0.500024 8.50001 0.5 12.7 0.5Z" fill="#6E6F72"/>
</svg>
