<svg width="23" height="24" viewBox="0 0 23 24" fill="none" xmlns="http://www.w3.org/2000/svg">
<path d="M22.4 12.0001C22.4 18.1001 17.4 23.1 11.2 23.1C5.10001 23.1 0.0999756 18.1001 0.0999756 11.9001C0.0999756 5.7001 5.09999 0.700058 11.3 0.800058C17.4 0.800058 22.4 5.80007 22.4 12.0001ZM11.3 2.40009C5.99999 2.40009 1.70001 6.7001 1.70001 11.9001C1.70001 17.2001 6.00001 21.5001 11.2 21.5001C16.5 21.5001 20.8 17.2001 20.8 12.0001C20.8 6.70007 16.5 2.40009 11.3 2.40009Z" fill="white"/>
<path d="M11.6 19.1001C8 19.1001 5.10003 17.0001 4.20003 14.0001C4.10003 13.7001 4.10001 13.2001 4.30001 13.0001C4.60001 12.5001 5.4 12.7001 5.6 13.4001C6.3 15.4001 7.6 16.7001 9.6 17.3001C12.5 18.2001 15.6 16.5001 16.7 13.7001C16.8 13.6001 16.8 13.4001 16.8 13.3001C17 12.9001 17.4 12.7001 17.8 12.8001C18.2 13.0001 18.4 13.3001 18.3 13.8001C18 15.0001 17.3 16.1001 16.5 16.9001C15.1 18.4001 13.3 19.1001 11.6 19.1001Z" fill="white"/>
<path d="M12.7 8.80007C12.9 8.20007 13.1 7.50009 13.4 7.00009C13.9 6.20009 14.9 6.20009 15.5 7.00009C16.2 7.90009 16.2 9.60006 15.5 10.6001C14.9 11.4001 14 11.4001 13.4 10.6001C13.1 10.1001 12.9 9.40007 12.7 8.80007Z" fill="white"/>
<path d="M7.29998 11.2001C5.89998 11.2001 4.9 10.6001 4.2 9.40007C3.9 8.90007 4.00002 8.40005 4.40002 8.20005C4.80002 8.00005 5.29997 8.10005 5.59997 8.70005C5.89997 9.30005 6.5 9.70005 7.2 9.70005C7.9 9.70005 8.49998 9.30005 8.79998 8.70005C9.09998 8.20005 9.50001 8.00005 9.90001 8.20005C10.3 8.40005 10.4 8.90007 10.2 9.40007C9.7 10.5001 8.69998 11.1001 7.29998 11.2001Z" fill="white"/>
</svg>
