<svg width="17" height="16" viewBox="0 0 17 16" fill="none" xmlns="http://www.w3.org/2000/svg">
<path d="M13.9 15.7001H2.89996C1.69996 15.7001 0.699951 14.7001 0.699951 13.5001V2.50006C0.699951 1.30006 1.69996 0.300049 2.89996 0.300049H13.9C15.1 0.300049 16.0999 1.30006 16.0999 2.50006V13.5001C16.0999 14.7001 15.1 15.7001 13.9 15.7001ZM2.79993 1.10004C2.09993 1.10004 1.49994 1.70009 1.49994 2.40009V13.4001C1.49994 14.1001 2.09993 14.7001 2.79993 14.7001H13.7999C14.4999 14.7001 15.0999 14.1001 15.0999 13.4001V2.40009C15.0999 1.70009 14.4999 1.10004 13.7999 1.10004H2.79993Z" fill="#6E6F72"/>
<path d="M8.39996 12.7001C5.79996 12.7001 3.59991 10.6001 3.59991 7.90009C3.59991 5.20009 5.69996 3.10004 8.39996 3.10004C11.1 3.10004 13.2 5.20009 13.2 7.90009C13.2 10.6001 11 12.7001 8.39996 12.7001ZM8.39996 4.50006C6.49996 4.50006 4.99994 6.00009 4.99994 7.90009C4.99994 9.80009 6.49996 11.3 8.39996 11.3C10.3 11.3 11.7999 9.80009 11.7999 7.90009C11.7999 6.10009 10.3 4.50006 8.39996 4.50006Z" fill="#6E6F72"/>
</svg>
