<svg width="8" height="16" viewBox="0 0 8 16" fill="none" xmlns="http://www.w3.org/2000/svg">
<path d="M3.70001 15.5C2.90001 15.3 2.19998 15 1.59998 14.4C0.799976 13.6 0.400024 12.7 0.400024 11.6C0.400024 8.89998 0.400024 6.29998 0.400024 3.59998C0.400024 2.09998 1.39999 0.899976 2.79999 0.599976H2.90002C3.10002 0.599976 3.3 0.599976 3.5 0.599976C4.3 0.799976 5 1.2 5.5 2C5.8 2.5 6 3 6 3.5C6 5.9 6 8.39999 6 10.8C6 11.8 5.09998 12.8 4.09998 12.8C3.09998 12.8 2.20001 11.9 2.20001 10.9C2.20001 8.80002 2.20001 6.80001 2.20001 4.70001C2.20001 4.60001 2.20001 4.50002 2.20001 4.40002C2.50001 4.40002 2.79998 4.40002 3.09998 4.40002C3.09998 4.50002 3.09998 4.69999 3.09998 4.79999C3.09998 6.79999 3.09998 8.70001 3.09998 10.7C3.09998 11.4 3.49998 11.9 4.09998 11.9C4.59998 11.9 5 11.4 5 10.7C5 8.30001 5 5.99998 5 3.59998C5 2.69998 4.50001 2.00001 3.70001 1.70001C2.50001 1.30001 1.20001 2.29998 1.20001 3.59998C1.20001 5.89998 1.20001 8.2 1.20001 10.5C1.20001 10.9 1.20001 11.3 1.20001 11.8C1.20001 13.2 2.39999 14.5 3.79999 14.7C4.79999 14.8 5.99998 14.2 6.59998 13.1C6.79998 12.7 6.90002 12.2 6.90002 11.7C6.90002 9.40001 6.90002 7.09999 6.90002 4.79999C6.90002 4.69999 6.90002 4.50002 6.90002 4.40002C7.20002 4.40002 7.49999 4.40002 7.79999 4.40002C7.79999 4.50002 7.79999 4.69999 7.79999 4.79999C7.79999 7.09999 7.79999 9.29998 7.79999 11.6C7.79999 13.6 6.5 15.2 4.5 15.6H4.40002C4.20002 15.5 3.90001 15.5 3.70001 15.5Z" fill="#6E6F72"/>
</svg>
