<svg width="32" height="32" viewBox="6 6 22 22" fill="none" xmlns="http://www.w3.org/2000/svg">
<path d="M6.19995 14.5045C6.19995 13.3331 6.6244 12.3337 7.35294 11.4733C7.62536 11.149 7.92311 10.8512 8.22086 10.56C8.8417 9.95775 9.65893 9.97098 10.2608 10.5931C10.9703 11.3211 11.6672 12.0558 12.364 12.7904C12.9152 13.3728 12.9532 14.1472 12.4401 14.7759C12.2183 15.0406 11.9713 15.2789 11.7369 15.537C11.4264 15.8679 11.211 16.2452 11.135 16.7085C11.0527 17.2048 11.173 17.6152 11.5151 17.9726C12.6111 19.1043 13.6944 20.2493 14.784 21.3876C15.3732 22.0031 16.0511 22.1024 16.7479 21.606C17.0584 21.3876 17.3434 21.1097 17.5905 20.8118C18.3317 19.925 19.1299 20.0772 19.7635 20.6464C20.5997 21.4009 21.3916 22.2149 22.1455 23.0621C22.6649 23.6511 22.5889 24.4453 22.0631 25.0343C21.2395 25.9543 20.3146 26.6889 19.0919 26.9206C17.9263 27.1456 16.8303 26.8875 15.766 26.4043C14.3659 25.769 13.1559 24.8292 12.0283 23.7768C10.3241 22.1884 8.74667 20.4743 7.50499 18.4491C6.89682 17.4563 6.41535 16.4106 6.25063 15.2326C6.23163 14.9943 6.21896 14.7494 6.19995 14.5045ZM18.2874 26.1197C18.4077 26.1065 18.5788 26.0999 18.7435 26.08C19.8331 25.941 20.6567 25.3123 21.3789 24.5049C21.7337 24.1078 21.74 23.8364 21.3789 23.4525C20.8531 22.8966 20.3273 22.334 19.7825 21.798C19.5544 21.5729 19.2947 21.381 19.0349 21.1957C18.7815 21.017 18.5535 21.0501 18.3317 21.295C18.0656 21.5928 17.7932 21.884 17.4891 22.1487C16.4819 23.0157 15.1705 23.0224 14.3216 22.1487C13.1623 20.9574 12.0093 19.7595 10.8816 18.5417C10.6409 18.2836 10.4382 17.9328 10.3495 17.5887C10.0897 16.6026 10.4128 15.7488 11.0463 15.0075C11.2617 14.756 11.5088 14.5244 11.7369 14.2795C12.0409 13.942 12.0283 13.6905 11.7242 13.3728C11.154 12.7772 10.5902 12.1881 10.02 11.5925C9.25348 10.7917 9.17746 10.7983 8.39824 11.5991C7.83441 12.1815 7.35294 12.8103 7.15656 13.6309C6.90315 14.6634 7.12488 15.6429 7.52399 16.5893C8.12583 18.0321 9.03175 19.2631 10.0264 20.428C11.4708 22.1156 13.0165 23.6974 14.8727 24.9086C15.9054 25.577 16.995 26.08 18.2874 26.1197Z" fill="#32A1C8"/>
<path d="M26.1999 17.6748C26.0985 18.4425 26.0099 19.1506 25.9022 19.8588C25.8515 20.1963 25.6424 20.3618 25.389 20.3089C25.1166 20.2493 25.0089 20.0243 25.0786 19.6669C26.2252 13.9222 22.8296 8.40908 17.3497 7.13835C15.9307 6.80744 14.5053 6.82067 13.0799 7.13835C12.7378 7.21116 12.5224 7.09203 12.4653 6.80744C12.4147 6.5427 12.573 6.34415 12.8961 6.27135C18.9652 4.87488 24.9519 9.09738 25.9782 15.4907C26.0985 16.232 26.1302 16.9798 26.1999 17.6748Z" fill="#32A1C8"/>
<path d="M22.6016 17.4233C22.5382 17.9461 22.4875 18.469 22.4052 18.9918C22.3482 19.3492 22.1328 19.5213 21.8794 19.4617C21.6006 19.3955 21.4676 19.1441 21.5309 18.7933C22.1835 15.2194 20.3463 11.9433 17.1154 10.9241C16.0637 10.5932 14.9994 10.5667 13.9288 10.7785C13.7641 10.8116 13.555 10.7983 13.4283 10.7057C13.3206 10.6262 13.2256 10.388 13.2636 10.2622C13.3016 10.1166 13.4727 9.94456 13.612 9.91147C14.8917 9.58717 16.1651 9.65335 17.4194 10.0571C20.492 11.0498 22.5762 14.0413 22.6016 17.4233Z" fill="#32A1C8"/>
<path d="M19.1616 17.3703C19.1299 17.6549 19.1109 17.9395 19.0603 18.2175C19.0096 18.502 18.8005 18.6543 18.5661 18.6146C18.319 18.5682 18.1797 18.3432 18.2367 18.0388C18.6295 15.8812 17.1597 14.4516 15.7977 14.2266C15.4302 14.167 15.0438 14.1869 14.67 14.2266C14.3216 14.2597 14.1062 14.1803 14.0428 13.8957C13.9858 13.6243 14.1632 13.4125 14.499 13.3464C16.9 12.8632 19.1489 14.8156 19.1616 17.3703Z" fill="#32A1C8"/>
<path d="M16.2 31.4C24.5947 31.4 31.3999 24.5947 31.3999 16.2C31.3999 7.80527 24.5947 1 16.2 1C7.80522 1 1 7.80527 1 16.2C1 24.5947 7.80522 31.4 16.2 31.4Z" stroke="#ffffff" stroke-width="1.0151" stroke-miterlimit="10"/>
</svg>
