<svg width="32" height="32" viewBox="6 6 20 20" fill="none" xmlns="http://www.w3.org/2000/svg">
<path d="M16.2 31.4C24.5947 31.4 31.3999 24.5947 31.3999 16.2C31.3999 7.80527 24.5947 1 16.2 1C7.80522 1 1 7.80527 1 16.2C1 24.5947 7.80522 31.4 16.2 31.4Z" stroke="#ffffff" stroke-width="1.0151" stroke-miterlimit="10"/>
<path d="M22.8983 13.6452C23.322 13.4032 23.7119 13.1935 24.1017 12.9677C24.4237 12.7903 24.7458 12.7419 25.1017 12.8387C25.6271 12.9839 26 13.4355 26 13.9516C26 15.629 26 17.3065 26 18.9839C26 19.8871 25 20.4516 24.1695 20.0161C23.7966 19.8226 23.4407 19.6129 23.0847 19.4032C23.0339 19.371 22.9831 19.3548 22.8983 19.3065C22.8983 19.3871 22.8983 19.4516 22.8983 19.5161C22.8814 20.0161 22.9153 20.5323 22.8475 21.0323C22.6949 22.129 21.6271 22.9839 20.4746 22.9839C17.1186 22.9839 13.7797 22.9839 10.4237 22.9839C9.11864 23 8 21.9355 8 20.6774C8 17.9032 8 15.1129 8 12.3226C8 11.0645 9.11864 10 10.4407 10C13.7966 10 17.1525 10 20.5085 10C21.7627 10 22.8814 11.0645 22.8983 12.2742C22.8983 12.7097 22.8983 13.1613 22.8983 13.6452ZM15.4576 11.1774C13.8475 11.1774 12.2203 11.1774 10.6102 11.1774C9.77966 11.1774 9.25424 11.6774 9.25424 12.4677C9.25424 13.2903 9.25424 14.1129 9.25424 14.9355C9.25424 16.8065 9.25424 18.6774 9.25424 20.5484C9.25424 21.0161 9.44068 21.4032 9.86441 21.6452C10.1017 21.7742 10.3559 21.8065 10.6271 21.8065C13.8475 21.8065 17.0847 21.8065 20.3051 21.8065C21.1525 21.8065 21.661 21.3065 21.661 20.5C21.661 17.8226 21.661 15.1452 21.661 12.4677C21.661 11.6613 21.1525 11.1613 20.3051 11.1613C18.678 11.1774 17.0678 11.1774 15.4576 11.1774ZM24.7458 18.9677C24.7458 17.3065 24.7458 15.6613 24.7458 14C24.2373 14.2903 23.7627 14.5645 23.2881 14.8387C23.0339 14.9839 22.8983 15.2097 22.8983 15.4839C22.8983 16.1613 22.8983 16.8226 22.8983 17.5C22.8983 17.7419 22.9831 17.9516 23.2034 18.0968C23.7119 18.3871 24.2203 18.6774 24.7458 18.9677Z" fill="#32A1C8"/>
</svg>
