<svg width="15" height="18" viewBox="0 0 15 18" fill="none" xmlns="http://www.w3.org/2000/svg">
<path fill-rule="evenodd" clip-rule="evenodd" d="M14.3604 2.51354C14.5898 2.51354 14.7781 2.59875 14.8957 2.75698C14.9958 2.89696 15.0252 3.07954 14.9781 3.28647C14.9016 3.58469 14.6898 3.74292 14.3663 3.74901H14.2133C13.9133 3.7551 13.6074 3.76118 13.3015 3.74293C13.2133 3.74293 13.1603 3.74901 13.1368 3.77336C13.1133 3.7977 13.1015 3.85856 13.1015 3.96202C13.1074 5.59917 13.1074 7.26675 13.1074 8.87956V10.2307V10.322V12.0626V16.5297C13.1074 17.2844 12.672 17.7409 11.9485 17.7409H7.58928H3.06539C2.31239 17.7409 1.89471 17.2905 1.89471 16.475V7.70495V4.0594C1.89471 3.91333 1.89471 3.79161 1.87118 3.76727C1.84765 3.74293 1.71823 3.74293 1.57704 3.74293H1.28878C1.077 3.74293 0.853452 3.74293 0.635787 3.73684C0.435771 3.73075 0.26517 3.65772 0.147513 3.52991C0.0475053 3.41428 -0.00544013 3.26821 0.000442693 3.10389C0.0122083 2.75698 0.271052 2.51963 0.647553 2.51963H0.971108C1.22271 2.51963 1.4765 2.51925 1.73165 2.51887C2.50262 2.51773 3.28609 2.51657 4.05959 2.52571C4.1596 2.52571 4.22431 2.51354 4.24784 2.48311C4.27725 2.45268 4.28902 2.39182 4.28314 2.29444C4.27137 1.91102 4.27137 1.52151 4.27725 1.15026V0.827704C4.28314 0.304303 4.51257 0.0486885 5.01849 0.0182582C5.34204 0 5.67148 0 5.98915 0H6.25976H9.64239C9.77181 0 9.91888 0 10.0659 0.0182582C10.5072 0.0730327 10.7366 0.328647 10.7425 0.791187V0.973769C10.7484 1.39371 10.7542 1.8319 10.7366 2.25793C10.7307 2.37356 10.7425 2.44659 10.7719 2.47703C10.8013 2.50746 10.866 2.51963 10.9778 2.51963C11.9661 2.50746 12.9721 2.50746 13.9427 2.51354H14.3604ZM3.10657 3.80379C3.08892 3.82204 3.07716 3.87682 3.07716 3.96202C3.08304 8.52048 3.08304 12.5555 3.07716 16.3106C3.07716 16.3958 3.08892 16.4506 3.11246 16.475C3.13599 16.4932 3.18305 16.5054 3.27717 16.5054C4.83612 16.4993 6.27153 16.4993 7.62458 16.4993C9.05999 16.4993 10.4072 16.4993 11.7131 16.5054C11.8073 16.5054 11.8661 16.4932 11.8896 16.4689C11.9132 16.4384 11.9249 16.3776 11.9249 16.268C11.919 14.6613 11.919 13.0302 11.919 11.4479V10.1272V8.76392C11.919 7.19372 11.919 5.57483 11.9249 3.98028C11.9249 3.8829 11.919 3.82813 11.8955 3.80379C11.872 3.78553 11.819 3.77336 11.7426 3.77336C9.08352 3.77944 6.30683 3.77944 3.24776 3.77336C3.17128 3.77336 3.12422 3.78553 3.10657 3.80379ZM8.35202 1.23014H8.35197H8.35193C8.24203 1.22976 8.13278 1.22938 8.02461 1.22938H6.97159C6.53626 1.23547 6.08916 1.23547 5.64795 1.2233C5.55971 1.2233 5.50088 1.23547 5.47735 1.25981C5.45382 1.29024 5.44205 1.34502 5.44793 1.4424C5.46558 1.75887 5.4597 2.06926 5.44793 2.36139C5.44793 2.42834 5.45382 2.47094 5.47147 2.4892C5.48911 2.50746 5.52441 2.51354 5.58912 2.51354C6.20679 2.50746 6.83035 2.50746 7.45978 2.50746H7.45986H7.45994C8.1129 2.50746 8.75999 2.50746 9.40707 2.51354H9.41296C9.48943 2.51354 9.51885 2.50137 9.53061 2.4892C9.54826 2.47094 9.55414 2.42834 9.55414 2.36139C9.54238 2.07535 9.5365 1.74061 9.55414 1.41197C9.56003 1.35719 9.56003 1.29024 9.53061 1.25981C9.50708 1.22938 9.44825 1.2233 9.35413 1.2233C9.02257 1.23244 8.68438 1.23128 8.35202 1.23014ZM5.09557 15.5864C5.07204 15.5864 5.0485 15.5864 5.02497 15.5803C4.7073 15.5316 4.52493 15.3369 4.49552 15.0265C4.48964 14.9291 4.48964 14.8317 4.48964 14.7404V14.6796V5.30704V5.25835C4.48964 5.19141 4.48964 5.12446 4.49552 5.05751C4.51905 4.74104 4.7073 4.5402 5.01909 4.49151C5.29558 4.44891 5.57208 4.64975 5.64267 4.94797C5.67208 5.0636 5.67208 5.18532 5.67208 5.30096V8.93433V10.748V14.7343C5.67208 14.85 5.67208 14.99 5.64267 15.1178C5.57796 15.3916 5.34265 15.5864 5.09557 15.5864ZM7.08957 15.1726C7.17193 15.4343 7.37195 15.5864 7.62491 15.5864H7.67785C7.97788 15.5621 8.17201 15.3734 8.21907 15.0752C8.23084 14.9778 8.23084 14.8804 8.23084 14.783V14.7283V10.9549V9.25081V5.27052V5.23401C8.23084 5.16097 8.23084 5.08794 8.21907 5.01491C8.17789 4.72886 7.99552 4.54628 7.71315 4.50976C7.43077 4.47325 7.21311 4.60714 7.10722 4.88101C7.07192 4.97839 7.05427 5.09403 7.05427 5.24009V14.85C7.04839 14.9717 7.06016 15.0813 7.08957 15.1726ZM9.61959 11.6061V10.0359L9.61371 8.73347V5.22182C9.61371 4.99663 9.64312 4.76536 9.84902 4.60713C10.0314 4.46715 10.2373 4.4428 10.4373 4.53409C10.6609 4.63756 10.7903 4.8384 10.7903 5.1001C10.7962 5.45917 10.7962 5.81825 10.7962 6.16516V6.50598V14.7222V14.8743C10.7903 15.3064 10.555 15.5864 10.2079 15.5864C9.84902 15.5864 9.61959 15.3064 9.61959 14.8743V11.6061Z" fill="#808080"/>
</svg>
