<svg width="20" height="20" viewBox="0 0 20 20" fill="none" xmlns="http://www.w3.org/2000/svg">
<path d="M17.5 5.5V16C17.5 16.825 16.8269 17.5 16.0042 17.5H3.99584C3.16564 17.5 2.49999 16.825 2.49999 16L2.50747 5.5C2.50747 4.675 3.16564 4 3.99584 4H5.03462V2.5H6.53046V4H13.7604V2.5H15.2562V4H16.0042C16.8269 4 17.5 4.675 17.5 5.5ZM3.62188 7H16.3781V5.125H3.62188V7ZM16.3781 16.375V8.5H3.62188V16.375H16.3781Z" fill="#32A1C8"/>
<path d="M12.7348 11.9053L10.8479 11.7421L10.1105 10L9.37307 11.7447L7.48621 11.9053L8.91907 13.15L8.48869 15L10.1105 14.0184L11.7323 15L11.3045 13.15L12.7348 11.9053ZM10.1105 13.5263L9.12376 14.1237L9.38619 12.9974L8.51493 12.2395L9.66437 12.1395L10.1105 11.0789L10.5592 12.1421L11.7087 12.2421L10.8374 13L11.0999 14.1263L10.1105 13.5263Z" fill="#32A1C8"/>
</svg>
