<svg width="20" height="20" viewBox="0 0 20 20" fill="none" xmlns="http://www.w3.org/2000/svg">
<path d="M8.33333 9.99967C10.175 9.99967 11.6667 8.50801 11.6667 6.66634C11.6667 4.82467 10.175 3.33301 8.33333 3.33301C6.49167 3.33301 5 4.82467 5 6.66634C5 8.50801 6.49167 9.99967 8.33333 9.99967ZM8.33333 4.99967C9.25 4.99967 10 5.74967 10 6.66634C10 7.58301 9.25 8.33301 8.33333 8.33301C7.41667 8.33301 6.66667 7.58301 6.66667 6.66634C6.66667 5.74967 7.41667 4.99967 8.33333 4.99967Z" fill="#32A1C8"/>
<path d="M8.33329 10.833C6.10829 10.833 1.66663 11.9497 1.66663 14.1663V16.6663H15V14.1663C15 11.9497 10.5583 10.833 8.33329 10.833ZM13.3333 14.9997H3.33329V14.1747C3.49996 13.5747 6.08329 12.4997 8.33329 12.4997C10.5833 12.4997 13.1666 13.5747 13.3333 14.1663V14.9997Z" fill="#32A1C8"/>
<path d="M12.0917 3.375C12.8583 4.25833 13.3333 5.40833 13.3333 6.66667C13.3333 7.925 12.8583 9.075 12.0917 9.95833C13.725 9.75 15 8.36667 15 6.66667C15 4.96667 13.725 3.58333 12.0917 3.375Z" fill="#32A1C8"/>
<path d="M15.4417 11.5244C16.1833 12.2161 16.6666 13.0827 16.6666 14.1661V16.6661H18.3333V14.1661C18.3333 12.9577 17.0083 12.0744 15.4417 11.5244Z" fill="#32A1C8"/>
</svg>
