<svg width="16" height="17" viewBox="0 0 16 17" fill="none" xmlns="http://www.w3.org/2000/svg">
<path opacity="0.4" d="M1.06958 6.55383H14.4375" stroke="#414346" stroke-width="1.5" stroke-linecap="round" stroke-linejoin="round"/>
<path opacity="0.4" fill-rule="evenodd" clip-rule="evenodd" d="M3.66821 9.48242C3.66821 9.06821 4.004 8.73242 4.41821 8.73242H4.42516C4.83937 8.73242 5.17516 9.06821 5.17516 9.48242C5.17516 9.89664 4.83937 10.2324 4.42516 10.2324H4.41821C4.004 10.2324 3.66821 9.89664 3.66821 9.48242ZM7.7533 8.73242C7.33908 8.73242 7.0033 9.06821 7.0033 9.48242C7.0033 9.89664 7.33908 10.2324 7.7533 10.2324H7.76024C8.17446 10.2324 8.51024 9.89664 8.51024 9.48242C8.51024 9.06821 8.17446 8.73242 7.76024 8.73242H7.7533ZM11.0814 8.73242C10.6672 8.73242 10.3314 9.06821 10.3314 9.48242C10.3314 9.89664 10.6672 10.2324 11.0814 10.2324H11.0884C11.5026 10.2324 11.8384 9.89664 11.8384 9.48242C11.8384 9.06821 11.5026 8.73242 11.0884 8.73242H11.0814ZM11.0814 11.6475C10.6672 11.6475 10.3314 11.9832 10.3314 12.3975C10.3314 12.8117 10.6672 13.1475 11.0814 13.1475H11.0884C11.5026 13.1475 11.8384 12.8117 11.8384 12.3975C11.8384 11.9832 11.5026 11.6475 11.0884 11.6475H11.0814ZM7.0033 12.3975C7.0033 11.9832 7.33908 11.6475 7.7533 11.6475H7.76024C8.17446 11.6475 8.51024 11.9832 8.51024 12.3975C8.51024 12.8117 8.17446 13.1475 7.76024 13.1475H7.7533C7.33908 13.1475 7.0033 12.8117 7.0033 12.3975ZM4.41821 11.6475C4.004 11.6475 3.66821 11.9832 3.66821 12.3975C3.66821 12.8117 4.004 13.1475 4.41821 13.1475H4.42516C4.83937 13.1475 5.17516 12.8117 5.17516 12.3975C5.17516 11.9832 4.83937 11.6475 4.42516 11.6475H4.41821Z" fill="#414346"/>
<path d="M10.7829 1V3.46809" stroke="#414346" stroke-width="1.5" stroke-linecap="round" stroke-linejoin="round"/>
<path d="M4.72411 1V3.46809" stroke="#414346" stroke-width="1.5" stroke-linecap="round" stroke-linejoin="round"/>
<path fill-rule="evenodd" clip-rule="evenodd" d="M10.9287 2.18359H4.57822C2.3757 2.18359 1 3.41054 1 5.66586V12.4531C1 14.7439 2.3757 15.9992 4.57822 15.9992H10.9218C13.1312 15.9992 14.5 14.7652 14.5 12.5098V5.66586C14.5069 3.41054 13.1382 2.18359 10.9287 2.18359Z" stroke="#414346" stroke-width="1.5" stroke-linecap="round" stroke-linejoin="round"/>
</svg>
