<svg width="18" height="20" viewBox="0 0 18 20" fill="none" xmlns="http://www.w3.org/2000/svg">
<path opacity="0.4" d="M1.33276 7.66381H17.3743" stroke="#414346" stroke-linecap="round" stroke-linejoin="round"/>
<path opacity="0.4" fill-rule="evenodd" clip-rule="evenodd" d="M4.60095 11.1777C4.60095 10.7635 4.93674 10.4277 5.35095 10.4277H5.35929C5.7735 10.4277 6.10929 10.7635 6.10929 11.1777C6.10929 11.5919 5.7735 11.9277 5.35929 11.9277H5.35095C4.93674 11.9277 4.60095 11.5919 4.60095 11.1777ZM9.3532 10.4277C8.93898 10.4277 8.6032 10.7635 8.6032 11.1777C8.6032 11.5919 8.93898 11.9277 9.3532 11.9277H9.36154C9.77575 11.9277 10.1115 11.5919 10.1115 11.1777C10.1115 10.7635 9.77575 10.4277 9.36154 10.4277H9.3532ZM13.3469 10.4277C12.9327 10.4277 12.5969 10.7635 12.5969 11.1777C12.5969 11.5919 12.9327 11.9277 13.3469 11.9277H13.3553C13.7695 11.9277 14.1053 11.5919 14.1053 11.1777C14.1053 10.7635 13.7695 10.4277 13.3553 10.4277H13.3469ZM13.3469 13.9253C12.9327 13.9253 12.5969 14.2611 12.5969 14.6753C12.5969 15.0896 12.9327 15.4253 13.3469 15.4253H13.3553C13.7695 15.4253 14.1053 15.0896 14.1053 14.6753C14.1053 14.2611 13.7695 13.9253 13.3553 13.9253H13.3469ZM8.6032 14.6753C8.6032 14.2611 8.93898 13.9253 9.3532 13.9253H9.36154C9.77575 13.9253 10.1115 14.2611 10.1115 14.6753C10.1115 15.0896 9.77575 15.4253 9.36154 15.4253H9.3532C8.93898 15.4253 8.6032 15.0896 8.6032 14.6753ZM5.35095 13.9253C4.93674 13.9253 4.60095 14.2611 4.60095 14.6753C4.60095 15.0896 4.93674 15.4253 5.35095 15.4253H5.35929C5.7735 15.4253 6.10929 15.0896 6.10929 14.6753C6.10929 14.2611 5.7735 13.9253 5.35929 13.9253H5.35095Z" fill="#414346"/>
<path d="M12.9885 1V3.9617" stroke="#414346" stroke-linecap="round" stroke-linejoin="round"/>
<path d="M5.71815 1V3.9617" stroke="#414346" stroke-linecap="round" stroke-linejoin="round"/>
<path fill-rule="evenodd" clip-rule="evenodd" d="M13.1637 2.42188H5.54313C2.90011 2.42188 1.24927 3.89422 1.24927 6.6006V14.7453C1.24927 17.4942 2.90011 19.0006 5.54313 19.0006H13.1554C15.8067 19.0006 17.4492 17.5197 17.4492 14.8134V6.6006C17.4576 3.89422 15.8151 2.42188 13.1637 2.42188Z" stroke="#414346" stroke-linecap="round" stroke-linejoin="round"/>
</svg>
