<svg width="22" height="15" viewBox="0 0 22 15" fill="none" xmlns="http://www.w3.org/2000/svg">
<g opacity="0.6">
<path d="M20.0457 14.5451H8.38431C7.82597 14.5451 7.37335 14.0856 7.37335 13.5187C7.37335 12.9518 7.82597 12.4922 8.38431 12.4922H20.058C20.6163 12.4922 21.069 12.9518 21.069 13.5187C21.069 14.0856 20.6163 14.5451 20.058 14.5451H20.0457Z" fill="#414346"/>
<path d="M20.0458 8.55075H11.9833C11.5932 8.59442 11.2129 8.40769 11.0043 8.07009C10.7958 7.7325 10.7958 7.30353 11.0043 6.96594C11.2129 6.62834 11.5932 6.44161 11.9833 6.48528L20.0581 6.48528C20.5767 6.54334 20.9692 6.98827 20.9692 7.51801C20.9692 8.04776 20.5767 8.49269 20.0581 8.55075H20.0458Z" fill="#414346"/>
<path d="M20.0458 2.55326H15.5462C15.0276 2.4952 14.6351 2.05027 14.6351 1.52052C14.6351 0.990775 15.0276 0.545853 15.5462 0.487793H20.0458C20.5644 0.545853 20.9569 0.990775 20.9569 1.52052C20.9569 2.05027 20.5644 2.4952 20.0458 2.55326Z" fill="#414346"/>
<path d="M3.43876 14.6938C3.63982 14.8894 3.9108 15 4.19635 15C4.48044 15 4.75288 14.8894 4.95393 14.6938L12.8198 1.77947C13.2379 1.37261 13.2379 0.712001 12.8198 0.305143C12.4016 -0.101714 11.7227 -0.101714 11.3046 0.305143L3.88675 12.207L1.94034 10.3144C1.52221 9.90617 0.844754 9.90617 0.425169 10.3144C0.00704018 10.7227 0.00704018 11.3805 0.425169 11.7888L3.43876 14.6938Z" fill="#414346"/>
</g>
</svg>
