<svg width="14" height="15" viewBox="0 0 14 15" fill="none" xmlns="http://www.w3.org/2000/svg">
<g opacity="0.6">
<path fill-rule="evenodd" clip-rule="evenodd" d="M13.7108 4.17143L13.2258 3.32857C12.8154 2.61539 11.906 2.36935 11.1928 2.77857C10.8533 2.97883 10.4482 3.03565 10.0668 2.93649C9.68544 2.83734 9.35912 2.59035 9.1598 2.25C9.03158 2.03367 8.96268 1.78727 8.96007 1.53571C8.97164 1.13241 8.81969 0.741594 8.53884 0.45229C8.25799 0.162986 7.87215 -0.000166169 7.46922 1.27001e-07H6.49196C6.09722 -4.44122e-06 5.71874 0.157506 5.44029 0.437678C5.16183 0.71785 5.00635 1.09759 5.00824 1.49286C4.99655 2.30896 4.33248 2.96437 3.51739 2.96429C3.26618 2.96167 3.02011 2.89268 2.80407 2.76429C2.09086 2.35507 1.18145 2.6011 0.771087 3.31429L0.250359 4.17143C-0.159508 4.88372 0.082849 5.79379 0.792487 6.20714C1.25376 6.47382 1.53792 6.96665 1.53792 7.5C1.53792 8.03335 1.25376 8.52619 0.792487 8.79286C0.0837501 9.20343 -0.158872 10.1113 0.250359 10.8214L0.742554 11.6714C0.934826 12.0188 1.25743 12.2752 1.63897 12.3838C2.02051 12.4924 2.42953 12.4442 2.77553 12.25C3.11567 12.0513 3.521 11.9968 3.90142 12.0988C4.28184 12.2007 4.60583 12.4506 4.80138 12.7929C4.9296 13.0092 4.9985 13.2556 5.00111 13.5071C5.00111 14.3316 5.66859 15 6.49196 15H7.46922C8.28982 15 8.95615 14.336 8.96007 13.5143C8.95816 13.1178 9.11462 12.7369 9.39463 12.4566C9.67463 12.1762 10.0549 12.0195 10.4509 12.0214C10.7015 12.0281 10.9466 12.0969 11.1643 12.2214C11.8756 12.6318 12.7844 12.3892 13.1972 11.6786L13.7108 10.8214C13.9096 10.4797 13.9642 10.0728 13.8624 9.69071C13.7607 9.30862 13.511 8.98291 13.1687 8.78572C12.8264 8.58852 12.5767 8.26281 12.475 7.88072C12.3732 7.49863 12.4278 7.09168 12.6266 6.75C12.7558 6.52399 12.943 6.3366 13.1687 6.20714C13.8741 5.79401 14.1159 4.88926 13.7108 4.17857V4.17143Z" fill="#414346"/>
<ellipse cx="6.98425" cy="7.49953" rx="2.05432" ry="2.05714" fill="white"/>
</g>
</svg>
