<svg width="16" height="15" viewBox="0 0 16 15" fill="none" xmlns="http://www.w3.org/2000/svg">
<path d="M10.9024 0H4.62581C1.89948 0 0.27417 1.6275 0.27417 4.3575V10.635C0.27417 13.3725 1.89948 15 4.62581 15H10.8949C13.6212 15 15.2465 13.3725 15.2465 10.6425V4.3575C15.254 1.6275 13.6287 0 10.9024 0ZM10.2807 9.225C10.4979 9.4425 10.4979 9.8025 10.2807 10.02C10.1684 10.1325 10.026 10.185 9.88373 10.185C9.74143 10.185 9.59912 10.1325 9.48677 10.02L7.76409 8.295L6.04141 10.02C5.92906 10.1325 5.78675 10.185 5.64444 10.185C5.50213 10.185 5.35982 10.1325 5.24748 10.02C5.03027 9.8025 5.03027 9.4425 5.24748 9.225L6.97016 7.5L5.24748 5.775C5.03027 5.5575 5.03027 5.1975 5.24748 4.98C5.46468 4.7625 5.8242 4.7625 6.04141 4.98L7.76409 6.705L9.48677 4.98C9.70398 4.7625 10.0635 4.7625 10.2807 4.98C10.4979 5.1975 10.4979 5.5575 10.2807 5.775L8.55802 7.5L10.2807 9.225Z" fill="#292D32"/>
</svg>
