<svg width="13" height="13" viewBox="0 0 13 13" fill="none" xmlns="http://www.w3.org/2000/svg">
<rect width="13" height="13" rx="5" fill="#0498C1"/>
<path opacity="0.4" d="M9.03642 6.62734C9.72001 6.62734 10.2746 6.07319 10.2746 5.3896C10.2746 4.70601 9.72001 4.15186 9.03642 4.15186" stroke="white" stroke-width="0.5" stroke-linecap="round" stroke-linejoin="round"/>
<path d="M9.60563 7.97266C9.80977 7.98673 10.0127 8.01567 10.2126 8.06065C10.4902 8.11501 10.8242 8.22881 10.9431 8.47792C11.019 8.63748 11.019 8.82324 10.9431 8.98319C10.8246 9.2323 10.4902 9.34571 10.2126 9.40281" stroke="white" stroke-width="0.5" stroke-linecap="round" stroke-linejoin="round"/>
<path opacity="0.4" d="M4.21345 6.62734C3.52986 6.62734 2.97532 6.07319 2.97532 5.3896C2.97532 4.70601 3.52986 4.15186 4.21345 4.15186" stroke="white" stroke-width="0.5" stroke-linecap="round" stroke-linejoin="round"/>
<path d="M3.64427 7.97266C3.44013 7.98673 3.23716 8.01567 3.03733 8.06065C2.75967 8.11501 2.42569 8.22881 2.30719 8.47792C2.23094 8.63748 2.23094 8.82324 2.30719 8.98319C2.4253 9.2323 2.75967 9.34571 3.03733 9.40281" stroke="white" stroke-width="0.5" stroke-linecap="round" stroke-linejoin="round"/>
<path fill-rule="evenodd" clip-rule="evenodd" d="M6.62295 8.23926C8.00813 8.23926 9.19152 8.44887 9.19152 9.28772C9.19152 10.1262 8.01595 10.3436 6.62295 10.3436C5.23738 10.3436 4.05439 10.134 4.05439 9.29515C4.05439 8.4563 5.22995 8.23926 6.62295 8.23926Z" stroke="white" stroke-width="0.5" stroke-linecap="round" stroke-linejoin="round"/>
<path opacity="0.4" fill-rule="evenodd" clip-rule="evenodd" d="M6.62293 7.04244C5.70938 7.04244 4.97691 6.30996 4.97691 5.39602C4.97691 4.48248 5.70938 3.75 6.62293 3.75C7.53647 3.75 8.26895 4.48248 8.26895 5.39602C8.26895 6.30996 7.53647 7.04244 6.62293 7.04244Z" stroke="white" stroke-width="0.5" stroke-linecap="round" stroke-linejoin="round"/>
</svg>
