<svg width="13" height="13" viewBox="0 0 13 13" fill="none" xmlns="http://www.w3.org/2000/svg">
<rect width="13" height="13" rx="5" fill="#FD830E"/>
<path fill-rule="evenodd" clip-rule="evenodd" d="M6.51989 3.00003C5.2914 2.99506 4.14995 3.63247 3.51118 4.68013C2.8724 5.72779 2.82952 7.03284 3.39815 8.12004L3.46826 8.25671C3.52573 8.36425 3.53775 8.49027 3.50165 8.60671C3.4016 8.87245 3.31797 9.14407 3.25124 9.42004C3.25124 9.56005 3.29131 9.64004 3.44155 9.63671C3.70766 9.57795 3.96974 9.50224 4.22616 9.41004C4.3366 9.37963 4.45403 9.38666 4.56004 9.43004C4.65686 9.47671 4.85385 9.59671 4.86052 9.59671C6.14704 10.2732 7.71828 10.0866 8.80991 9.12762C9.90155 8.16868 10.287 6.63651 9.77866 5.27642C9.27037 3.91634 7.97388 3.01069 6.51989 3.00003V3.00003Z" stroke="white" stroke-linecap="round" stroke-linejoin="round"/>
</svg>
