<svg width="25" height="24" viewBox="0 0 25 24" fill="none" xmlns="http://www.w3.org/2000/svg">
<path fill-rule="evenodd" clip-rule="evenodd" d="M6.27345 12.8403V12.6761C6.29751 12.1902 6.45303 11.7194 6.72399 11.3122C7.17499 10.8231 7.48372 10.2237 7.6178 9.57698C7.6178 9.07713 7.6178 8.57013 7.6614 8.07027C7.88667 5.66381 10.2629 4 12.6101 4H12.6682C15.0154 4 17.3916 5.66381 17.6242 8.07027C17.6678 8.57013 17.6242 9.07713 17.6605 9.57698C17.7964 10.2252 18.1048 10.8265 18.5543 11.3193C18.8273 11.7229 18.9831 12.192 19.0049 12.6761V12.8332C19.0211 13.486 18.7965 14.1226 18.3727 14.6255C17.8125 15.2136 17.0524 15.5795 16.2362 15.6538C13.8429 15.9109 11.4282 15.9109 9.03483 15.6538C8.21956 15.5762 7.46055 15.2109 6.89839 14.6255C6.48105 14.1222 6.25953 13.4894 6.27345 12.8403Z" fill="#414346"/>
<path fill-rule="evenodd" clip-rule="evenodd" d="M10.8077 18.1387C11.1817 18.6087 11.7308 18.9129 12.3337 18.9839C12.9365 19.0549 13.5432 18.8869 14.0197 18.5171C14.1662 18.4078 14.298 18.2806 14.4121 18.1387" fill="#414346"/>
<path d="M18.756 4L5.27417 18.8854" stroke="white" stroke-width="1.5" stroke-linecap="round" stroke-linejoin="round"/>
</svg>
