<svg width="32" height="32" viewBox="0 0 32 32" fill="none" xmlns="http://www.w3.org/2000/svg">
<circle cx="16" cy="16" r="16" fill="white"/>
<path d="M21.1822 10.6C20.6332 10.6 20.1292 10.285 19.8772 9.799L19.2292 8.494C18.8152 7.675 17.7352 7 16.8172 7H14.7562C13.8292 7 12.7492 7.675 12.3352 8.494L11.6872 9.799C11.4352 10.285 10.9312 10.6 10.3822 10.6C8.42918 10.6 6.88118 12.247 7.00718 14.191L7.47518 21.625C7.58318 23.479 8.58218 25 11.0662 25H20.4982C22.9822 25 23.9722 23.479 24.0892 21.625L24.5572 14.191C24.6832 12.247 23.1352 10.6 21.1822 10.6ZM14.4322 11.725H17.1322C17.5012 11.725 17.8072 12.031 17.8072 12.4C17.8072 12.769 17.5012 13.075 17.1322 13.075H14.4322C14.0632 13.075 13.7572 12.769 13.7572 12.4C13.7572 12.031 14.0632 11.725 14.4322 11.725ZM15.7822 21.508C14.1082 21.508 12.7402 20.149 12.7402 18.466C12.7402 16.783 14.0992 15.424 15.7822 15.424C17.4652 15.424 18.8242 16.783 18.8242 18.466C18.8242 20.149 17.4562 21.508 15.7822 21.508Z" fill="#414346"/>
</svg>
