<svg width="19" height="18" viewBox="0 0 19 18" fill="none" xmlns="http://www.w3.org/2000/svg">
<path opacity="0.6" d="M14.1101 2.20499L14.9104 2.80632V1.80525C14.9104 1.4605 15.0474 1.12986 15.2912 0.886053C15.5351 0.642243 15.8659 0.50525 16.2108 0.50525C16.5558 0.50525 16.8865 0.642242 17.1304 0.886053C17.3743 1.12986 17.5112 1.4605 17.5112 1.80525V7.20525C17.5112 7.54999 17.3743 7.88064 17.1304 8.12444C16.8865 8.36825 16.5558 8.50525 16.2108 8.50525H10.8095C10.4646 8.50525 10.1338 8.36825 9.88996 8.12444C9.6461 7.88064 9.50912 7.54999 9.50912 7.20525C9.50912 6.8605 9.6461 6.52986 9.88996 6.28605C10.1338 6.04224 10.4646 5.90525 10.8095 5.90525H13.0241H14.1423L13.3967 5.07187C12.8445 4.45464 12.1686 3.96055 11.4128 3.62172C10.657 3.2829 9.83839 3.10693 9.01013 3.10524L9.0065 3.10525C8.05301 3.11025 7.11493 3.34617 6.27256 3.79281C5.43018 4.23946 4.70859 4.88353 4.16957 5.66991C3.63054 6.45629 3.29013 7.36155 3.17749 8.30821C3.06485 9.25486 3.18333 10.2147 3.52279 11.1056C3.86225 11.9964 4.41257 12.7918 5.12664 13.4236C5.84071 14.0553 6.69726 14.5047 7.62297 14.7332C8.54867 14.9617 9.51597 14.9625 10.4421 14.7356C11.3682 14.5087 12.2255 14.0608 12.9406 13.4303L12.9621 13.4114L12.9812 13.3902C13.1046 13.2534 13.2556 13.1444 13.4243 13.0704C13.593 12.9964 13.7755 12.9591 13.9598 12.9609C14.144 12.9628 14.3257 13.0037 14.4929 13.081C14.6601 13.1584 14.809 13.2703 14.9296 13.4095C15.0503 13.5487 15.14 13.7119 15.1928 13.8883C15.2455 14.0647 15.2602 14.2503 15.2359 14.4328C15.2115 14.6154 15.1486 14.7906 15.0514 14.947C14.9542 15.1035 14.8248 15.2374 14.6718 15.3401L14.6447 15.3583L14.6202 15.3799C13.4135 16.4419 11.9305 17.1402 10.3429 17.3936C8.75544 17.6471 7.12859 17.4454 5.6511 16.8119C4.17362 16.1785 2.90607 15.1392 1.99547 13.8147C1.08488 12.4902 0.568546 10.9348 0.506364 9.32878C0.444183 7.72281 0.838698 6.13211 1.64416 4.74121C2.44961 3.35031 3.63301 2.21619 5.05708 1.47044C6.48116 0.724677 8.08755 0.397846 9.68991 0.527862C11.2923 0.657878 12.8249 1.23941 14.1101 2.20499Z" fill="#414346" stroke="white"/>
</svg>
