<svg width="32" height="32" viewBox="0 0 32 32" fill="none" xmlns="http://www.w3.org/2000/svg">
<rect width="32" height="32" rx="16" fill="#0498C1" fill-opacity="0.1"/>
<path d="M14.2508 15.2858C15.2366 15.2858 16.0358 14.4866 16.0358 13.5008C16.0358 12.515 15.2366 11.7158 14.2508 11.7158C13.265 11.7158 12.4658 12.515 12.4658 13.5008C12.4658 14.4866 13.265 15.2858 14.2508 15.2858Z" fill="#0498C1"/>
<path d="M19.6425 9H13.3575C10.6275 9 9 10.6275 9 13.3575V19.6425C9 20.46 9.1425 21.1725 9.42 21.7725C10.065 23.1975 11.445 24 13.3575 24H19.6425C22.3725 24 24 22.3725 24 19.6425V17.925V13.3575C24 10.6275 22.3725 9 19.6425 9ZM22.7775 16.875C22.1925 16.3725 21.2475 16.3725 20.6625 16.875L17.5425 19.5525C16.9575 20.055 16.0125 20.055 15.4275 19.5525L15.1725 19.3425C14.64 18.8775 13.7925 18.8325 13.1925 19.2375L10.3875 21.12C10.2225 20.7 10.125 20.2125 10.125 19.6425V13.3575C10.125 11.2425 11.2425 10.125 13.3575 10.125H19.6425C21.7575 10.125 22.875 11.2425 22.875 13.3575V16.9575L22.7775 16.875Z" fill="#0498C1"/>
</svg>
