<svg width="19" height="18" viewBox="0 0 19 18" fill="none" xmlns="http://www.w3.org/2000/svg">
<path d="M7.23465 14.085L5.62318 15.6434C5.20063 16.0639 4.62751 16.3002 4.02993 16.3002C3.43234 16.3002 2.85923 16.0639 2.43667 15.6434C2.01411 15.2229 1.77672 14.6525 1.77672 14.0578C1.77672 13.4631 2.01411 12.8927 2.43667 12.4722L6.57004 8.34957C6.97574 7.94451 7.52237 7.71014 8.09685 7.69497C8.67132 7.67979 9.22968 7.88496 9.6564 8.26803L9.76566 8.35863C9.9383 8.52685 10.171 8.61992 10.4126 8.61737C10.6542 8.61482 10.8849 8.51686 11.0539 8.34504C11.2229 8.17323 11.3165 7.94163 11.3139 7.70119C11.3113 7.46075 11.2129 7.23117 11.0403 7.06296C10.9889 6.99684 10.9342 6.93334 10.8764 6.87269C10.0992 6.19977 9.09406 5.84598 8.06457 5.88299C7.03509 5.92 6.05822 6.34505 5.33185 7.07202L1.14385 11.1946C0.432219 11.9655 0.0473461 12.9802 0.0696098 14.0267C0.0918735 15.0733 0.519552 16.0709 1.26333 16.8111C2.00711 17.5513 3.00948 17.9769 4.06111 17.9991C5.11273 18.0212 6.1323 17.6382 6.9069 16.93L8.48195 15.3988C8.63746 15.2299 8.72295 15.0087 8.72122 14.7797C8.71948 14.5506 8.63064 14.3307 8.47258 14.1643C8.31452 13.9978 8.09896 13.897 7.86928 13.8823C7.63961 13.8676 7.41286 13.94 7.23465 14.085ZM16.9672 1.18261C16.2013 0.425142 15.1654 0 14.0857 0C13.0059 0 11.97 0.425142 11.2041 1.18261L9.62909 2.71385C9.47357 2.8827 9.38808 3.1039 9.38982 3.33294C9.39156 3.56198 9.4804 3.78187 9.63846 3.94835C9.79652 4.11484 10.0121 4.21558 10.2418 4.23029C10.4714 4.245 10.6982 4.1726 10.8764 4.02765L12.4514 2.46922C12.874 2.04869 13.4471 1.81244 14.0447 1.81244C14.6423 1.81244 15.2154 2.04869 15.6379 2.46922C16.0605 2.88975 16.2979 3.46011 16.2979 4.05483C16.2979 4.64955 16.0605 5.21991 15.6379 5.64044L11.5046 9.76303C11.0989 10.1681 10.5523 10.4025 9.97778 10.4176C9.4033 10.4328 8.84494 10.2277 8.41822 9.84458L8.30896 9.75397C8.13632 9.58576 7.9036 9.49269 7.662 9.49524C7.42041 9.49779 7.18972 9.59575 7.0207 9.76756C6.85168 9.93938 6.75816 10.171 6.76072 10.4114C6.76328 10.6519 6.86171 10.8814 7.03436 11.0496C7.10049 11.117 7.1704 11.1805 7.24376 11.2399C8.02188 11.9108 9.02659 12.2633 10.0554 12.2263C11.0843 12.1893 12.0608 11.7656 12.7883 11.0406L16.9308 6.91799C17.6967 6.16059 18.1305 5.13235 18.1373 4.05777C18.1441 2.9832 17.7235 1.94958 16.9672 1.18261Z" fill="#262B32"/>
</svg>
