<svg width="16" height="20" viewBox="0 0 16 20" fill="none" xmlns="http://www.w3.org/2000/svg">
<path d="M0 10C0 6.93333 0 3.86667 0 0.8C0 0.266667 0.266667 0 0.8 0C3.8 0 6.8 0 9.8 0C10.0667 0 10.2 0.0666667 10.4 0.2C11.7333 1.53333 13 2.8 14.3333 4.13333C14.5333 4.33333 14.5333 4.53333 14.5333 4.73333C14.5333 6.6 14.5333 8.46667 14.5333 10.3333C14.5333 11 14.5333 11.6 15 12.1333C15.9333 14.0667 15.8667 15.8667 14.6667 17.6667C14.6 17.8 14.5333 17.9333 14.5333 18.0667C14.5333 18.4667 14.5333 18.8 14.5333 19.2C14.5333 19.7333 14.2667 20 13.8 20C9.46667 20 5.13333 20 0.8 20C0.266667 20 0 19.7333 0 19.2C0 16.1333 0 13.0667 0 10ZM1.33333 18.6667C3.13333 18.6667 4.86667 18.6667 6.66667 18.6667C6.4 18.3333 6.06667 17.9333 5.8 17.5333C5.2 16.6667 4.93333 15.7333 4.93333 14.6667C4.93333 14.2667 5.2 13.9333 5.6 13.9333C6 13.9333 6.26667 14.2 6.26667 14.6C6.26667 14.7333 6.26667 14.9333 6.26667 15.0667C6.53333 17.4 8.8 19.0667 11.1333 18.4667C13.2 18 14.4667 16.0667 14.2 14C13.9333 12 12.1333 10.4667 10.0667 10.5333C9.6 10.5333 9.2 10.6 8.8 10.8C8.93333 10.8667 9.06667 10.9333 9.13333 11C9.46667 11.2 9.53333 11.6 9.33333 11.8667C9.13333 12.2 8.73333 12.2667 8.4 12.1333C7.8 11.8 7.26667 11.4667 6.66667 11.1333C6.33333 10.9333 6.26667 10.5333 6.46667 10.2667C6.8 9.66667 7.13333 9.13333 7.46667 8.6C7.66667 8.26667 8.06667 8.2 8.33333 8.4C8.66667 8.6 8.73333 8.93333 8.6 9.26667C8.53333 9.33333 8.53333 9.4 8.46667 9.53333C10.1333 9 11.6667 9.2 13.1333 10.0667C13.1333 8.4 13.1333 6.8 13.1333 5.2C13.0667 5.2 13 5.2 12.8667 5.2C11.8667 5.2 10.8667 5.2 9.86667 5.2C9.33333 5.2 9.06667 4.93333 9.06667 4.46667C9.06667 3.46667 9.06667 2.46667 9.06667 1.46667C9.06667 1.4 9.06667 1.33333 9.06667 1.2C6.53333 1.33333 3.93333 1.33333 1.33333 1.33333C1.33333 7.13333 1.33333 12.8667 1.33333 18.6667ZM10.5333 2.33333C10.5333 2.86667 10.5333 3.4 10.5333 3.93333C11.0667 3.93333 11.6 3.93333 12.2 3.93333C11.6667 3.4 11.0667 2.86667 10.5333 2.33333Z" fill="white"/>
<path d="M9.93328 14.3333C9.93328 13.6666 9.93328 13.0666 9.93328 12.4666C9.93328 12.4 9.93328 12.2666 9.93328 12.2C9.99994 11.8666 10.3333 11.6666 10.6666 11.6666C10.9999 11.7333 11.2666 12 11.2666 12.3333C11.2666 13.2666 11.2666 14.1333 11.2666 15.0666C11.2666 15.4 10.9999 15.7333 10.5999 15.7333C9.86661 15.7333 9.13328 15.7333 8.39994 15.7333C8.06661 15.7333 7.73328 15.4 7.73328 15.0666C7.73328 14.7333 7.99994 14.4 8.39994 14.4C8.93328 14.3333 9.39994 14.3333 9.93328 14.3333Z" fill="white"/>
</svg>
