<svg width="17" height="17" viewBox="0 0 17 17" fill="none" xmlns="http://www.w3.org/2000/svg">
<path d="M8.5 16C12.6421 16 16 12.6421 16 8.5C16 4.35786 12.6421 1 8.5 1C4.35786 1 1 4.35786 1 8.5C1 12.6421 4.35786 16 8.5 16Z" fill="#FBC100" stroke="white" stroke-width="0.8" stroke-miterlimit="10"/>
<path d="M8.60714 3.10725C8.82143 3.21439 8.85714 3.42868 8.85714 3.64296C8.85714 4.32153 8.85714 5.03582 8.85714 5.71439C8.85714 5.78582 8.85714 5.85725 8.85714 6.0001C9.10714 5.7501 9.32143 5.53582 9.53572 5.32153C9.60714 5.2501 9.67857 5.17868 9.75 5.10725C9.92857 4.96439 10.1429 4.96439 10.2857 5.10725C10.4286 5.2501 10.4286 5.46439 10.2857 5.64296C10.0714 5.85725 9.85714 6.07153 9.67857 6.28582C9.39286 6.57153 9.10714 6.85725 8.82143 7.14296C8.60714 7.35725 8.39286 7.35725 8.17857 7.14296C7.71429 6.67868 7.21429 6.21439 6.75 5.71439C6.53572 5.5001 6.53572 5.28582 6.67857 5.10725C6.85714 4.92868 7.07143 4.96439 7.28572 5.17868C7.53572 5.42868 7.78572 5.67868 8.10714 5.92868C8.10714 5.85725 8.10714 5.78582 8.10714 5.67868C8.10714 4.96439 8.10714 4.28582 8.10714 3.57153C8.10714 3.35725 8.17857 3.17868 8.35714 3.07153C8.46429 3.10725 8.53572 3.10725 8.60714 3.10725Z" fill="#333333"/>
<path d="M8.35714 13.8573C8.14286 13.7501 8.10714 13.5716 8.10714 13.3573C8.10714 12.643 8.10714 11.9644 8.10714 11.2501C8.10714 11.1787 8.10714 11.1073 8.10714 11.0359C8.07143 11.0359 8.07143 11.0001 8.03571 11.0001C7.89285 11.143 7.78571 11.2859 7.64286 11.4287C7.5 11.5716 7.35714 11.7144 7.21428 11.8573C7.03571 12.0001 6.82143 12.0001 6.67857 11.8573C6.53571 11.7144 6.53571 11.4644 6.67857 11.3216C7.17857 10.7859 7.71428 10.2859 8.21428 9.78585C8.35714 9.643 8.60714 9.643 8.75 9.78585C9.25 10.2859 9.78571 10.8216 10.2857 11.3216C10.4286 11.4644 10.4286 11.7144 10.2857 11.8573C10.1429 12.0001 9.92857 12.0001 9.75 11.8573C9.46428 11.5716 9.21428 11.2859 8.92857 11.0359C8.89285 11.0359 8.89286 11.0359 8.85714 11.0716C8.85714 11.143 8.85714 11.2144 8.85714 11.3216C8.85714 12.0359 8.85714 12.7144 8.85714 13.4287C8.85714 13.643 8.78571 13.8216 8.60714 13.9287C8.53571 13.8573 8.46428 13.8573 8.35714 13.8573Z" fill="#333333"/>
<path d="M8.5 8.10725C9.85714 8.10725 11.1786 8.10725 12.5357 8.10725C12.6429 8.10725 12.7143 8.10725 12.8214 8.10725C13 8.14296 13.1071 8.28582 13.1071 8.46439C13.1071 8.64296 13 8.78582 12.8214 8.82153C12.75 8.82153 12.6429 8.82153 12.5714 8.82153C9.85714 8.82153 7.17857 8.82153 4.46428 8.82153C4.10714 8.82153 3.92857 8.71439 3.89285 8.46439C3.89285 8.21439 4.07142 8.07153 4.46428 8.07153C5.78571 8.10725 7.14285 8.10725 8.5 8.10725Z" fill="#333333"/>
</svg>
