<svg width="24" height="24" viewBox="0 0 24 24" fill="none" xmlns="http://www.w3.org/2000/svg">
<path d="M10.1035 3C11.3106 3 12.4684 3.47411 13.322 4.31802C14.1756 5.16193 14.6552 6.30653 14.6552 7.5C14.6552 8.69347 14.1756 9.83807 13.322 10.682C12.4684 11.5259 11.3106 12 10.1035 12C8.89626 12 7.73851 11.5259 6.8849 10.682C6.03128 9.83807 5.55172 8.69347 5.55172 7.5C5.55172 6.30653 6.03128 5.16193 6.8849 4.31802C7.73851 3.47411 8.89626 3 10.1035 3ZM10.1035 5.1375C9.78964 5.1375 9.4789 5.19861 9.18897 5.31733C8.89904 5.43606 8.63561 5.61008 8.41371 5.82946C8.19181 6.04884 8.01579 6.30928 7.8957 6.59591C7.77561 6.88254 7.7138 7.18975 7.7138 7.5C7.7138 7.81025 7.77561 8.11746 7.8957 8.40409C8.01579 8.69072 8.19181 8.95116 8.41371 9.17054C8.63561 9.38992 8.89904 9.56394 9.18897 9.68267C9.4789 9.80139 9.78964 9.8625 10.1035 9.8625C10.4173 9.8625 10.728 9.80139 11.0179 9.68267C11.3079 9.56394 11.5713 9.38992 11.7932 9.17054C12.0151 8.95116 12.1911 8.69072 12.3112 8.40409C12.4313 8.11746 12.4931 7.81025 12.4931 7.5C12.4931 6.87343 12.2413 6.27251 11.7932 5.82946C11.345 5.38641 10.7372 5.1375 10.1035 5.1375ZM20.5977 6.5V8.8625H23V10.8875H20.5977V13H18.3218V10.8875H15.9195V8.8625H18.3218V6.5H20.5977ZM10.1035 13.125C13.1417 13.125 19.2069 14.6213 19.2069 17.625V21H1V17.625C1 14.6213 7.06518 13.125 10.1035 13.125ZM10.1035 15.2625C6.7238 15.2625 3.16207 16.905 3.16207 17.625V18.8625H17.0448V17.625C17.0448 16.905 13.5172 15.2625 10.1035 15.2625Z" fill="white"/>
</svg>
