<svg width="24" height="24" viewBox="0 0 24 24" fill="none" xmlns="http://www.w3.org/2000/svg">
<path d="M11.1 17.4H12.9V15.6H11.1V17.4ZM12 3C10.8181 3 9.64778 3.23279 8.55585 3.68508C7.46392 4.13738 6.47177 4.80031 5.63604 5.63604C3.94821 7.32387 3 9.61305 3 12C3 14.3869 3.94821 16.6761 5.63604 18.364C6.47177 19.1997 7.46392 19.8626 8.55585 20.3149C9.64778 20.7672 10.8181 21 12 21C14.3869 21 16.6761 20.0518 18.364 18.364C20.0518 16.6761 21 14.3869 21 12C21 10.8181 20.7672 9.64778 20.3149 8.55585C19.8626 7.46392 19.1997 6.47177 18.364 5.63604C17.5282 4.80031 16.5361 4.13738 15.4442 3.68508C14.3522 3.23279 13.1819 3 12 3ZM12 19.2C8.031 19.2 4.8 15.969 4.8 12C4.8 8.031 8.031 4.8 12 4.8C15.969 4.8 19.2 8.031 19.2 12C19.2 15.969 15.969 19.2 12 19.2ZM12 6.6C11.0452 6.6 10.1295 6.97928 9.45442 7.65442C8.77928 8.32955 8.4 9.24522 8.4 10.2H10.2C10.2 9.72261 10.3896 9.26477 10.7272 8.92721C11.0648 8.58964 11.5226 8.4 12 8.4C12.4774 8.4 12.9352 8.58964 13.2728 8.92721C13.6104 9.26477 13.8 9.72261 13.8 10.2C13.8 12 11.1 11.775 11.1 14.7H12.9C12.9 12.675 15.6 12.45 15.6 10.2C15.6 9.24522 15.2207 8.32955 14.5456 7.65442C13.8705 6.97928 12.9548 6.6 12 6.6Z" fill="white"/>
</svg>
