<svg width="15" height="18" viewBox="0 0 15 18" fill="none" xmlns="http://www.w3.org/2000/svg">
<path fill-rule="evenodd" clip-rule="evenodd" d="M0.000727923 10.5165V10.3234C0.0290579 9.75203 0.212171 9.19845 0.531184 8.71971C1.06218 8.14462 1.42568 7.43989 1.58354 6.67945C1.58354 6.09172 1.58354 5.49559 1.63488 4.90787C1.9001 2.07837 4.69783 0.12207 7.46134 0.12207H7.52978C10.2933 0.12207 13.091 2.07837 13.3648 4.90787C13.4161 5.49559 13.3648 6.09172 13.4076 6.67945C13.5676 7.44165 13.9307 8.14857 14.4599 8.72811C14.7813 9.20261 14.9647 9.75416 14.9904 10.3234V10.5081C15.0095 11.2757 14.7451 12.0242 14.246 12.6155C13.5865 13.307 12.6916 13.7371 11.7307 13.8246C8.9128 14.1268 6.06977 14.1268 3.25191 13.8246C2.29204 13.7333 1.39839 13.3038 0.736522 12.6155C0.245153 12.0237 -0.015661 11.2797 0.000727923 10.5165Z" fill="#0498C1"/>
<path fill-rule="evenodd" clip-rule="evenodd" d="M5.33966 16.7463C5.77994 17.299 6.4265 17.6566 7.13624 17.7401C7.84597 17.8236 8.56036 17.6261 9.1213 17.1913C9.29382 17.0627 9.44906 16.9132 9.58331 16.7463" fill="#0498C1"/>
</svg>
