<svg width="18" height="20" viewBox="0 0 18 20" fill="none" xmlns="http://www.w3.org/2000/svg">
<path d="M16.7531 18.2143C16.7531 19.2005 15.952 20 14.9638 20H2.66234C1.67413 20 0.873047 19.2005 0.873047 18.2143V1.78571C0.873047 0.799477 1.67413 0 2.66234 0H10.3204C10.6768 0 11.0186 0.141489 11.2704 0.39328L16.3611 5.48467C16.6122 5.73573 16.7531 6.07598 16.7531 6.43066V18.2143Z" fill="white"/>
<path d="M3.86943 20H2.66218C1.67425 20 0.873047 19.2004 0.873047 18.2141V1.78592C0.873047 0.799598 1.67425 0 2.66218 0H3.86943C2.8815 0 2.08029 0.799598 2.08029 1.78592V18.2141C2.08029 19.2004 2.8815 20 3.86943 20Z" fill="#E9F0F4"/>
<path d="M16.7532 6.43058V7.0841H12.0868C10.754 7.0841 9.66992 5.9996 9.66992 4.6668V0H10.3206C10.6768 0 11.0188 0.14165 11.2703 0.393159L16.3613 5.48451C16.6124 5.73561 16.7532 6.07606 16.7532 6.43058Z" fill="#E9F0F4"/>
<path d="M16.6327 5.87707H12.0866C11.4186 5.87707 10.877 5.33542 10.877 4.66701V0.121338C11.0222 0.186931 11.1554 0.278682 11.2701 0.39337L16.3611 5.48472C16.4757 5.5994 16.5671 5.7322 16.6327 5.87707Z" fill="#B9A1D3"/>
<path d="M16.0161 17.3441H1.60966C0.720684 17.3441 0 16.6234 0 15.7344V9.85917C0 8.9702 0.720684 8.24951 1.60966 8.24951H16.0161C16.9051 8.24951 17.6258 8.9702 17.6258 9.85917V15.7344C17.6258 16.6234 16.9051 17.3441 16.0161 17.3441Z" fill="#B9A1D3"/>
<path d="M2.61569 17.3441H1.60966C0.720724 17.3441 0 16.6234 0 15.7344V9.85917C0 8.97024 0.720724 8.24951 1.60966 8.24951H2.61569C1.72676 8.24951 1.00604 8.97024 1.00604 9.85917V15.7344C1.00604 16.6234 1.72676 17.3441 2.61569 17.3441Z" fill="#9573BB"/>
<path d="M9.20511 10.3339C9.2041 10.3312 9.20297 10.3284 9.20189 10.3257C9.13814 10.1707 8.98873 10.0706 8.82112 10.0706C8.821 10.0706 8.82088 10.0706 8.82076 10.0706C8.65303 10.0707 8.50358 10.1711 8.44004 10.3263C8.43911 10.3286 8.43818 10.3309 8.43734 10.3333L6.61653 15.1141C6.55718 15.2698 6.63541 15.4442 6.79118 15.5035C6.94672 15.5629 7.12128 15.4847 7.18064 15.3289L7.56008 14.3326H10.069L10.4447 15.328C10.4903 15.4489 10.6051 15.5234 10.7271 15.5234C10.7625 15.5234 10.7985 15.5171 10.8336 15.5038C10.9895 15.445 11.0682 15.2709 11.0094 15.1149L9.20511 10.3339ZM7.78993 13.729L8.82024 11.0237L9.84116 13.729H7.78993Z" fill="white"/>
<path d="M5.82102 11.6326C5.82102 10.7713 5.0883 10.0706 4.18766 10.0706H2.89908C2.8988 10.0706 2.89856 10.0706 2.89828 10.0706C2.89804 10.0706 2.89776 10.0706 2.89751 10.0706C2.73079 10.0706 2.5957 10.2056 2.5957 10.3724V15.2215C2.5957 15.3882 2.73079 15.5233 2.89751 15.5233C3.06423 15.5233 3.19932 15.3882 3.19932 15.2215V13.1985C3.24214 13.1983 3.28802 13.198 3.33607 13.1978L5.2926 15.4209C5.35224 15.4887 5.43558 15.5233 5.51928 15.5233C5.59011 15.5233 5.66122 15.4985 5.71856 15.448C5.84367 15.3379 5.85582 15.1472 5.74572 15.0221L4.13739 13.1947C4.15502 13.1947 4.17208 13.1946 4.18766 13.1946C5.0883 13.1946 5.82102 12.4939 5.82102 11.6326ZM4.1877 10.6742C4.74584 10.6742 5.21743 11.1131 5.21743 11.6326C5.21743 12.1521 4.74584 12.591 4.1877 12.591C3.96262 12.591 3.51063 12.5932 3.20814 12.5948C3.20645 12.2957 3.20415 11.8514 3.20415 11.6326C3.20415 11.4484 3.20287 10.985 3.20186 10.6742H4.1877Z" fill="white"/>
<path d="M13.3474 13.1949C13.365 13.1949 13.382 13.1948 13.3976 13.1948C14.2983 13.1948 15.031 12.4941 15.031 11.6328C15.031 10.7715 14.2983 10.0708 13.3976 10.0708H12.109C12.1088 10.0708 12.1085 10.0708 12.1082 10.0708C12.108 10.0708 12.1077 10.0708 12.1075 10.0708C11.9408 10.0708 11.8057 10.2059 11.8057 10.3726V15.2217C11.8057 15.3884 11.9408 15.5235 12.1075 15.5235C12.2742 15.5235 12.4093 15.3884 12.4093 15.2217V13.1988C12.4521 13.1985 12.498 13.1983 12.546 13.198L14.5026 15.4211C14.5622 15.4889 14.6455 15.5235 14.7292 15.5235C14.8001 15.5235 14.8712 15.4987 14.9285 15.4483C15.0536 15.3382 15.0658 15.1474 14.9557 15.0223L13.3474 13.1949ZM13.3976 10.6744C13.9557 10.6744 14.4273 11.1133 14.4273 11.6328C14.4273 12.1523 13.9557 12.5912 13.3976 12.5912C13.1725 12.5912 12.7205 12.5934 12.418 12.595C12.4163 12.2959 12.414 11.8516 12.414 11.6328C12.414 11.4486 12.4127 10.9852 12.4117 10.6744H13.3976Z" fill="white"/>
</svg>
