<svg width="20" height="21" viewBox="0 0 20 21" fill="none" xmlns="http://www.w3.org/2000/svg">
<path d="M12.5 10.8584H14.1667C14.1667 8.5584 12.3 6.69173 10 6.69173V8.3584C11.3833 8.3584 12.5 9.47506 12.5 10.8584ZM15.8333 10.8584H17.5C17.5 6.71673 14.1417 3.3584 10 3.3584V5.02507C13.225 5.02507 15.8333 7.6334 15.8333 10.8584ZM16.6667 13.7751C15.625 13.7751 14.625 13.6084 13.6917 13.3001C13.6083 13.2751 13.5167 13.2584 13.4333 13.2584C13.2167 13.2584 13.0083 13.3417 12.8417 13.5001L11.0083 15.3334C8.65 14.1334 6.71667 12.2084 5.51667 9.84173L7.35 8.00006C7.58333 7.7834 7.65 7.4584 7.55833 7.16673C7.25 6.2334 7.08333 5.2334 7.08333 4.19173C7.08333 3.7334 6.70833 3.3584 6.25 3.3584H3.33333C2.875 3.3584 2.5 3.7334 2.5 4.19173C2.5 12.0167 8.84167 18.3584 16.6667 18.3584C17.125 18.3584 17.5 17.9834 17.5 17.5251V14.6084C17.5 14.1501 17.125 13.7751 16.6667 13.7751ZM4.19167 5.02507H5.44167C5.5 5.7584 5.625 6.4834 5.81667 7.17507L4.81667 8.1834C4.48333 7.17507 4.26667 6.12507 4.19167 5.02507ZM15.8333 16.6667C14.7333 16.5917 13.6667 16.3751 12.6667 16.0334L13.6667 15.0334C14.375 15.2334 15.1 15.3584 15.8333 15.4084V16.6667Z" fill="#272727"/>
</svg>
