<svg width="26" height="22" viewBox="0 0 26 22" fill="none" xmlns="http://www.w3.org/2000/svg">
<path d="M2.45496 16.5644C3.41237 16.5644 4.27404 16.5644 5.42294 16.5644C5.42294 17.7133 5.32719 18.6708 5.42294 19.6283C5.51868 20.2028 5.8059 20.873 6.28461 21.256C6.95479 21.7347 7.62498 21.4475 8.29517 20.9688C9.92277 19.724 11.5504 18.3836 13.178 17.2346C13.6567 16.8516 14.3269 16.6601 14.9013 16.5644C17.5821 16.4686 20.3586 16.5644 23.0393 16.5644C24.5712 16.5644 25.2413 15.9899 25.2413 14.4579C25.2413 10.3408 25.2413 6.2236 25.2413 2.0107C25.2413 0.574486 24.6669 0 23.2308 0C16.3374 0 9.34832 0 2.45496 0C1.01884 0 0.444397 0.574486 0.444397 2.0107C0.444397 6.2236 0.444397 10.3408 0.444397 14.5537C0.444397 15.9899 1.01884 16.5644 2.45496 16.5644ZM3.79534 3.35117C9.73129 3.35117 15.763 3.35117 21.8904 3.35117C21.8904 6.51085 21.8904 9.57477 21.8904 12.6387C21.8904 12.8302 21.316 13.2132 21.0287 13.2132C18.8267 13.3089 16.5289 13.3089 14.3269 13.2132C13.2737 13.2132 12.412 13.5004 11.6461 14.1707C10.7844 14.9366 9.92277 15.6069 8.86962 16.3729C8.77388 15.9899 8.77388 15.7026 8.77388 15.4154C8.67813 13.6919 8.29517 13.2132 6.47609 13.2132C5.71016 13.2132 4.94423 13.2132 4.1783 13.2132C4.08256 13.2132 4.08256 13.2132 3.89108 13.1174C3.79534 9.95777 3.79534 6.70234 3.79534 3.35117Z" fill="#32A1C8"/>
<path d="M8.96536 9.95769C11.5504 9.95769 14.1354 9.95769 16.8161 9.95769C17.965 9.95769 18.731 9.19171 18.731 8.23423C18.731 7.27676 17.965 6.70227 16.8161 6.70227C16.1459 6.70227 15.5715 6.70227 14.9013 6.70227C14.2311 6.70227 13.6567 6.70227 12.9865 6.70227C12.6993 6.70227 12.3163 6.70227 12.0291 6.70227C11.0717 6.70227 10.0185 6.70227 9.0611 6.70227C7.81647 6.70227 7.05054 7.27676 7.05054 8.23423C7.05054 9.19171 7.72072 9.86195 8.96536 9.95769Z" fill="#32A1C8"/>
</svg>
