<svg width="20" height="21" viewBox="0 0 20 21" fill="none" xmlns="http://www.w3.org/2000/svg">
<path d="M18.2 5.7734C18.1583 5.6834 18.1083 5.6009 18.05 5.5184C17.9333 5.3609 17.775 5.2184 17.6 5.1134C17.5083 5.0609 17.4166 5.0159 17.3166 4.9784C17.1166 4.9034 16.9 4.8584 16.6666 4.8584H15.8333V3.3584H14.1666V4.8584H7.49998V3.3584H5.83331V4.8584H4.99998C4.64998 4.8584 4.33331 4.9559 4.06665 5.1134C3.89165 5.2184 3.73331 5.3609 3.61665 5.5184C3.55831 5.6009 3.50831 5.6834 3.46665 5.7734C3.38331 5.9534 3.33331 6.1484 3.33331 6.3584V16.8584C3.33331 17.6834 4.07498 18.3584 4.99998 18.3584H16.6666C16.9 18.3584 17.1166 18.3134 17.3166 18.2384C17.4166 18.2009 17.5083 18.1559 17.6 18.1034C17.775 17.9984 17.9333 17.8559 18.05 17.6984C18.225 17.4584 18.3333 17.1659 18.3333 16.8584V6.3584C18.3333 6.1484 18.2833 5.9534 18.2 5.7734ZM4.99998 16.8584V6.3584H16.6666V16.8584H4.99998ZM10.8333 12.2684C9.14165 12.2684 5.83331 13.0784 5.83331 14.9534V16.1084H15.8333V14.9609C15.8333 13.0784 12.525 12.2684 10.8333 12.2684ZM7.75831 14.6084C8.33331 14.1884 9.74165 13.7684 10.8333 13.7684C11.925 13.7684 13.3416 14.1884 13.9083 14.6084H7.75831ZM10.8333 11.6084C12.2083 11.6084 13.3333 10.5959 13.3333 9.3584C13.3333 8.1209 12.2083 7.1084 10.8333 7.1084C9.45831 7.1084 8.33331 8.1209 8.33331 9.3584C8.33331 10.5959 9.45831 11.6084 10.8333 11.6084ZM10.8333 8.6084C11.2916 8.6084 11.6666 8.9459 11.6666 9.3584C11.6666 9.7709 11.2916 10.1084 10.8333 10.1084C10.375 10.1084 9.99998 9.7709 9.99998 9.3584C9.99998 8.9459 10.375 8.6084 10.8333 8.6084Z" fill="#272727"/>
</svg>
