<svg width="21" height="23" viewBox="0 0 21 23" fill="none" xmlns="http://www.w3.org/2000/svg">
<path d="M17.9479 22.3441H3.02182C1.37355 22.3441 0 20.9266 0 19.2257V3.91701C0 2.21605 1.37355 0.798584 3.02182 0.798584H17.9479C19.5961 0.798584 20.9697 2.21605 20.9697 3.91701V19.3202C20.9697 20.9266 19.5961 22.3441 17.9479 22.3441ZM3.02182 2.02706C2.01454 2.02706 1.28198 2.87754 1.28198 3.82252V19.2257C1.28198 20.2651 2.10611 21.0211 3.02182 21.0211H17.9479C18.9551 21.0211 19.6877 20.1706 19.6877 19.2257V3.91701C19.6877 2.87754 18.8636 2.12155 17.9479 2.12155H3.02182V2.02706Z" fill="#32A1C8"/>
<path d="M10.4391 18.1862C6.86781 18.1862 4.02911 15.1622 4.02911 11.5713C4.02911 7.98041 6.95938 4.95648 10.4391 4.95648C14.0103 4.95648 16.849 7.98041 16.849 11.5713C16.849 15.1622 14.0103 18.1862 10.4391 18.1862ZM10.4391 6.84644C7.87509 6.84644 5.86053 9.01989 5.86053 11.5713C5.86053 14.1228 7.96666 16.2962 10.4391 16.2962C13.003 16.2962 15.0176 14.1228 15.0176 11.5713C15.0176 9.01989 13.003 6.84644 10.4391 6.84644Z" fill="#32A1C8"/>
</svg>
