<svg width="20" height="21" viewBox="0 0 20 21" fill="none" xmlns="http://www.w3.org/2000/svg">
<path d="M8.41957 3.3584C9.42556 3.3584 10.3904 3.75349 11.1017 4.45675C11.813 5.16001 12.2127 6.11384 12.2127 7.1084C12.2127 8.10296 11.813 9.05679 11.1017 9.76005C10.3904 10.4633 9.42556 10.8584 8.41957 10.8584C7.41357 10.8584 6.44878 10.4633 5.73743 9.76005C5.02609 9.05679 4.62646 8.10296 4.62646 7.1084C4.62646 6.11384 5.02609 5.16001 5.73743 4.45675C6.44878 3.75349 7.41357 3.3584 8.41957 3.3584ZM8.41957 5.13965C8.15805 5.13965 7.8991 5.19057 7.6575 5.28951C7.41589 5.38845 7.19636 5.53347 7.01145 5.71628C6.82653 5.8991 6.67985 6.11613 6.57977 6.35499C6.47969 6.59385 6.42819 6.84986 6.42819 7.1084C6.42819 7.36694 6.47969 7.62295 6.57977 7.86181C6.67985 8.10067 6.82653 8.3177 7.01145 8.50052C7.19636 8.68333 7.41589 8.82835 7.6575 8.92729C7.8991 9.02623 8.15805 9.07715 8.41957 9.07715C8.68108 9.07715 8.94003 9.02623 9.18163 8.92729C9.42324 8.82835 9.64277 8.68333 9.82768 8.50052C10.0126 8.3177 10.1593 8.10067 10.2594 7.86181C10.3594 7.62295 10.4109 7.36694 10.4109 7.1084C10.4109 6.58625 10.2011 6.08549 9.82768 5.71628C9.45423 5.34707 8.94771 5.13965 8.41957 5.13965ZM17.1648 6.27506V8.24382H19.1667V9.93131H17.1648V11.6917H15.2682V9.93131H13.2663V8.24382H15.2682V6.27506H17.1648ZM8.41957 11.7959C10.9515 11.7959 16.0058 13.0428 16.0058 15.5459V18.3584H0.833355V15.5459C0.833355 13.0428 5.88767 11.7959 8.41957 11.7959ZM8.41957 13.5771C5.60319 13.5771 2.63508 14.9459 2.63508 15.5459V16.5771H14.204V15.5459C14.204 14.9459 11.2644 13.5771 8.41957 13.5771Z" fill="#272727"/>
</svg>
