<svg width="24" height="24" viewBox="0 0 24 24" fill="none" xmlns="http://www.w3.org/2000/svg">
<path d="M7.8463 18.0758C7.8463 17.0136 6.98528 16.1516 5.92315 16.1516C4.86102 16.1516 4 17.0136 4 18.0758C4 19.1379 4.86102 19.9999 5.92315 19.9999C6.98528 19.9999 7.8463 19.1379 7.8463 18.0758Z" fill="#05D24F"/>
<path d="M14.0805 18.0758C14.0805 17.0136 13.2195 16.1516 12.1573 16.1516C11.0952 16.1516 10.2342 17.0136 10.2342 18.0758C10.2342 19.1379 11.0952 19.9999 12.1573 19.9999C13.2195 19.9999 14.0805 19.1379 14.0805 18.0758Z" fill="#FEA800"/>
<path d="M7.8463 12.1583C7.8463 11.0962 6.98528 10.2341 5.92315 10.2341C4.86102 10.2341 4 11.0962 4 12.1583C4 13.2204 4.86102 14.0824 5.92315 14.0824C6.98528 14.0824 7.8463 13.2204 7.8463 12.1583Z" fill="#05D24F"/>
<path d="M14.0805 12.1583C14.0805 11.0962 13.2195 10.2341 12.1573 10.2341C11.0952 10.2341 10.2342 11.0962 10.2342 12.1583C10.2342 13.2204 11.0952 14.0824 12.1573 14.0824C13.2195 14.0824 14.0805 13.2204 14.0805 12.1583Z" fill="#05D24F"/>
<path d="M7.8463 5.92415C7.8463 4.86202 6.98528 4 5.92315 4C4.86102 4 4 4.86202 4 5.92415C4 6.98628 4.86102 7.8483 5.92315 7.8483C6.98528 7.8483 7.8463 6.98628 7.8463 5.92415Z" fill="#F20504"/>
<path d="M14.0805 5.92415C14.0805 4.86202 13.2195 4 12.1573 4C11.0952 4 10.2342 4.86202 10.2342 5.92415C10.2342 6.98628 11.0952 7.8483 12.1573 7.8483C13.2195 7.8483 14.0805 6.98628 14.0805 5.92415Z" fill="#F20504"/>
<path d="M20.3148 18.0758C20.3148 17.0136 19.4538 16.1516 18.3917 16.1516C17.3295 16.1516 16.4685 17.0136 16.4685 18.0758C16.4685 19.1379 17.3295 19.9999 18.3917 19.9999C19.4538 19.9999 20.3148 19.1379 20.3148 18.0758Z" fill="#FEA800"/>
<path d="M20.3148 12.1583C20.3148 11.0962 19.4538 10.2341 18.3917 10.2341C17.3295 10.2341 16.4685 11.0962 16.4685 12.1583C16.4685 13.2204 17.3295 14.0824 18.3917 14.0824C19.4538 14.0824 20.3148 13.2204 20.3148 12.1583Z" fill="#FEA800"/>
<path d="M20.3148 5.92415C20.3148 4.86202 19.4538 4 18.3917 4C17.3295 4 16.4685 4.86202 16.4685 5.92415C16.4685 6.98628 17.3295 7.8483 18.3917 7.8483C19.4538 7.8483 20.3148 6.98628 20.3148 5.92415Z" fill="#F20504"/>
</svg>
