<svg width="19" height="21" viewBox="0 0 19 21" fill="none" xmlns="http://www.w3.org/2000/svg">
<path d="M0 20.0756C0 14.0756 0 8.07558 0 2.07558C0.1 2.07558 0.199999 2.07558 0.299999 2.07558C2.2 2.07558 4.1 2.07558 6 2.07558C6.1 2.07558 6.3 1.97559 6.4 1.87559C8.6 -0.0244129 11.1 -0.524416 13.8 0.575584C15.9 1.37558 17.3 2.97558 17.9 5.17558C18.5 7.47558 18 9.57558 16.6 11.3756C16 12.1756 15.2 12.7756 14.2 13.2756C14 13.3756 13.9 13.4756 13.9 13.7756C13.9 15.7756 13.9 17.7756 13.9 19.7756C13.9 19.8756 13.9 19.9756 13.9 20.0756C9.2 20.0756 4.6 20.0756 0 20.0756ZM11.2 12.5756C14.3 12.5756 16.8 10.0756 16.8 6.97559C16.8 3.87559 14.3 1.37559 11.2 1.37559C8.1 1.37559 5.6 3.87559 5.6 6.97559C5.6 10.0756 8.1 12.5756 11.2 12.5756ZM5.2 3.47559C3.9 3.47559 2.7 3.47559 1.5 3.47559C1.5 8.57559 1.5 13.5756 1.5 18.6756C5.2 18.6756 8.8 18.6756 12.5 18.6756C12.5 17.0756 12.5 15.4756 12.5 13.8756C12.4 13.8756 12.4 13.8756 12.3 13.8756C10.8 14.0756 9.4 13.8756 8 13.1756C7.9 13.0756 7.7 13.0756 7.6 13.0756C6.3 13.0756 5.1 13.0756 3.8 13.0756C3.7 13.0756 3.6 13.0756 3.5 13.0756C3.5 12.5756 3.5 12.1756 3.5 11.6756C4.3 11.6756 5.2 11.6756 6 11.6756C5.7 11.2756 5.4 10.8756 5.2 10.4756C5.1 10.3756 5 10.2756 4.9 10.2756C4.5 10.2756 4 10.2756 3.6 10.2756C3.6 9.77559 3.6 9.37558 3.6 8.87558C3.9 8.87558 4.2 8.87558 4.6 8.87558C4 7.07558 4.2 5.17559 5.2 3.47559Z" fill="#78797D"/>
<path d="M14.2 4.27563C14.5 4.57563 14.9 4.97563 15.1 5.17563C13.4 6.87563 11.8 8.47563 10.1 10.1756C8.99999 9.07563 7.89999 7.97563 6.79999 6.87563C7.09999 6.57563 7.39999 6.27563 7.69999 5.97563C8.49999 6.77563 9.19999 7.47563 9.99999 8.27563C11.5 6.97563 12.8 5.57563 14.2 4.27563Z" fill="#78797D"/>
<path d="M3.5 15.8756C3.5 15.3756 3.5 14.9756 3.5 14.4756C5.8 14.4756 8.1 14.4756 10.4 14.4756C10.4 14.8756 10.4 15.3756 10.4 15.8756C8.1 15.8756 5.8 15.8756 3.5 15.8756Z" fill="#78797D"/>
</svg>
