<svg width="24" height="24" viewBox="0 0 24 24" fill="none" xmlns="http://www.w3.org/2000/svg">
<rect width="24" height="24" rx="2" fill="#267996"/>
<path d="M13.0859 17.9687H5.91406C5.40922 17.9687 5 17.5595 5 17.0547C5 16.5499 5.40922 16.1406 5.91406 16.1406H13.0859C13.5907 16.1406 14 16.5499 14 17.0547C13.9999 17.5595 13.5907 17.9687 13.0859 17.9687Z" fill="white"/>
<path d="M18.7109 13.3984H5.91406C5.40922 13.3984 5 12.9892 5 12.4844C5 11.9796 5.40922 11.5703 5.91406 11.5703H18.7109C19.2157 11.5703 19.625 11.9795 19.625 12.4844C19.625 12.9892 19.2157 13.3984 18.7109 13.3984Z" fill="white"/>
<path d="M18.7109 8.82813H5.91406C5.40922 8.82813 5 8.41891 5 7.91406C5 7.40922 5.40922 7 5.91406 7H18.7109C19.2157 7 19.625 7.40922 19.625 7.91406C19.625 8.41891 19.2157 8.82813 18.7109 8.82813Z" fill="white"/>
</svg>
