<svg width="18" height="17" viewBox="0 0 18 17" fill="none" xmlns="http://www.w3.org/2000/svg">
<path d="M16.2819 5.99002C14.6537 5.99002 13.988 4.83859 14.7976 3.4263C15.2654 2.60771 14.9865 1.56423 14.1679 1.09646L12.6117 0.205908C11.901 -0.21688 10.9835 0.0349938 10.5607 0.745638L10.4618 0.916553C9.65217 2.32885 8.32084 2.32885 7.50225 0.916553L7.4033 0.745638C6.9985 0.0349938 6.08096 -0.21688 5.37031 0.205908L3.81409 1.09646C2.9955 1.56423 2.71664 2.6167 3.18441 3.43529C4.003 4.83859 3.33733 5.99002 1.70915 5.99002C0.773613 5.99002 0 6.75463 0 7.69916V9.28237C0 10.2179 0.764618 10.9915 1.70915 10.9915C3.33733 10.9915 4.003 12.1429 3.18441 13.5552C2.71664 14.3738 2.9955 15.4173 3.81409 15.8851L5.37031 16.7756C6.08096 17.1984 6.9985 16.9465 7.42129 16.2359L7.52024 16.065C8.32983 14.6527 9.66117 14.6527 10.4798 16.065L10.5787 16.2359C11.0015 16.9465 11.919 17.1984 12.6297 16.7756L14.1859 15.8851C15.0045 15.4173 15.2834 14.3648 14.8156 13.5552C13.997 12.1429 14.6627 10.9915 16.2909 10.9915C17.2264 10.9915 18 10.2269 18 9.28237V7.69916C17.991 6.76363 17.2264 5.99002 16.2819 5.99002ZM8.9955 11.4143C7.38531 11.4143 6.07196 10.101 6.07196 8.49077C6.07196 6.88057 7.38531 5.56723 8.9955 5.56723C10.6057 5.56723 11.919 6.88057 11.919 8.49077C11.919 10.101 10.6057 11.4143 8.9955 11.4143Z" fill="#0498C1"/>
</svg>
