<svg width="15" height="18" viewBox="0 0 15 18" fill="none" xmlns="http://www.w3.org/2000/svg">
<path fill-rule="evenodd" clip-rule="evenodd" d="M1.28571 14.1429V16.7143H7.06539H7.926H13.7057V14.1429H10.2771H7.76914H7.22225H4.71429H1.28571ZM7.4957 11.3571C7.84858 11.3548 8.13425 11.0677 8.13425 10.7143C8.13425 10.3609 7.84858 10.0738 7.4957 10.0714C7.14282 10.0738 6.85714 10.3609 6.85714 10.7143C6.85714 11.0677 7.14282 11.3548 7.4957 11.3571ZM7.4957 8.7857C7.84858 8.78338 8.13425 8.49628 8.13425 8.14286C8.13425 7.78944 7.84858 7.50233 7.4957 7.50001C7.14282 7.50233 6.85714 7.78944 6.85714 8.14286C6.85714 8.49628 7.14282 8.78338 7.4957 8.7857ZM7.4957 6.21427C7.84858 6.21195 8.13425 5.92485 8.13425 5.57143C8.13425 5.21801 7.84858 4.9309 7.4957 4.92859C7.14282 4.9309 6.85714 5.21801 6.85714 5.57143C6.85714 5.92485 7.14282 6.21195 7.4957 6.21427ZM7.4957 3.64284C7.84858 3.64053 8.13425 3.35342 8.13425 3C8.13425 2.64658 7.84858 2.35947 7.4957 2.35716C7.14282 2.35947 6.85714 2.64658 6.85714 3C6.85714 3.35342 7.14282 3.64053 7.4957 3.64284ZM5.99139 0H9H10.2771C10.632 0 10.92 0.288 10.92 0.642857V2.35714H12.6343C12.9891 2.35714 13.2771 2.64514 13.2771 3V12.8571H14.3485C14.7034 12.8571 14.9914 13.1451 14.9914 13.5V17.3571C14.9914 17.712 14.7034 18 14.3485 18H8.36829H6.62311H0.642857C0.288 18 0 17.712 0 17.3571V13.5C0 13.1451 0.288 12.8571 0.642857 12.8571H1.71429V3C1.71429 2.64514 2.00229 2.35714 2.35714 2.35714H4.07143V0.642857C4.07143 0.288 4.35943 0 4.71429 0H5.99139ZM4.07143 3.64286H3V4.92857H4.07143V3.64286ZM4.07143 6.21429H3V7.5H4.07143V6.21429ZM4.07143 8.78571H3V10.0714H4.07143V8.78571ZM4.07143 11.3571H3V12.8571H4.07143V11.3571ZM10.92 3.64286H11.9914V4.92857H10.92V3.64286ZM10.92 6.21429H11.9914V7.5H10.92V6.21429ZM10.92 8.78571H11.9914V10.0714H10.92V8.78571ZM10.92 11.3571H11.9914V12.8571H10.92V11.3571Z" fill="#FD830E"/>
</svg>
