<svg width="24" height="24" viewBox="0 0 24 24" fill="none" xmlns="http://www.w3.org/2000/svg">
<path d="M17.5125 10.53C17.2606 9.25329 16.5732 8.10364 15.5678 7.27743C14.5624 6.45122 13.3013 5.99971 12 6C9.8325 6 7.95 7.23 7.0125 9.03C5.91018 9.14912 4.89075 9.67141 4.15012 10.4965C3.40948 11.3216 2.99987 12.3913 3 13.5C3 14.6935 3.47411 15.8381 4.31802 16.682C5.16193 17.5259 6.30653 18 7.5 18H17.25C17.7425 18 18.2301 17.903 18.6851 17.7145C19.14 17.5261 19.5534 17.2499 19.9016 16.9017C20.2499 16.5534 20.5261 16.14 20.7145 15.6851C20.903 15.2301 21 14.7425 21 14.25C21 12.27 19.4625 10.665 17.5125 10.53ZM17.25 16.5H7.5C6.70435 16.5 5.94129 16.1839 5.37868 15.6213C4.81607 15.0587 4.5 14.2956 4.5 13.5C4.5 11.9625 5.6475 10.68 7.17 10.5225L7.9725 10.44L8.3475 9.7275C8.69241 9.05608 9.2159 8.49286 9.86034 8.09985C10.5048 7.70683 11.2452 7.49926 12 7.5C13.965 7.5 15.66 8.895 16.0425 10.8225L16.2675 11.9475L17.415 12.03C17.9788 12.0679 18.5073 12.318 18.8942 12.7299C19.281 13.1418 19.4975 13.6849 19.5 14.25C19.5 14.8467 19.2629 15.419 18.841 15.841C18.419 16.2629 17.8467 16.5 17.25 16.5ZM9 12.75H10.9125V15H13.0875V12.75H15L12 9.75L9 12.75Z" fill="#272727"/>
</svg>
