<svg width="20" height="20" viewBox="0 0 20 20" fill="none" xmlns="http://www.w3.org/2000/svg">
<path d="M10 20C4.5 20 0 15.6 0 10.1C0 4.60001 4.4 0.1 10 0C15.5 0 20 4.5 20 10C20 15.6 15.5 20 10 20ZM18.7 10C18.7 5.2 14.8 1.29999 10 1.29999C5.2 1.29999 1.3 5.2 1.3 10C1.3 14.8 5.2 18.7 10 18.7C14.8 18.7 18.7 14.8 18.7 10Z" fill="#78797D"/>
<path d="M6.89999 10C6.89999 8.7 6.89999 7.3 6.89999 6C6.89999 5.1 7.19999 4.9 7.99999 5.4C10.2 6.7 12.3 8.1 14.5 9.5C15.2 9.9 15.2 10.3 14.5 10.7C12.3 12.1 10.1 13.4 7.89999 14.8C7.19999 15.2 6.89999 15 6.89999 14.2C6.89999 12.7 6.89999 11.4 6.89999 10Z" fill="#78797D"/>
</svg>
