<svg width="21" height="17" viewBox="0 0 21 17" fill="none" xmlns="http://www.w3.org/2000/svg">
<path d="M8.8 3.21268C10.7 3.21268 12.5 3.21268 14.3 3.21268C16.2 3.21268 17.3 4.31268 17.3 6.21268C17.3 6.41268 17.3 6.61266 17.3 6.91266C17.9 6.91266 18.4 6.91266 19 6.91266C19.8 6.91266 20.2 7.41268 20 8.21268C19.5 10.4127 19 12.5127 18.5 14.7127C18.2 16.1127 17.1 16.9127 15.7 16.9127C11.4 16.9127 7.1 16.9127 2.8 16.9127C1.1 16.9127 0 15.7127 0 14.1127C0 10.5127 0 7.01266 0 3.41266C0 1.71266 1.2 0.612671 2.8 0.612671C3.8 0.612671 4.8 0.612671 5.8 0.612671C7.2 0.612671 8.2 1.31267 8.6 2.61267C8.7 2.71267 8.7 2.91268 8.8 3.21268ZM5.6 15.0127C5.8 15.0127 6 15.0127 6.1 15.0127C9.1 15.0127 12 15.0127 15 15.0127C16.5 15.0127 16.5 15.0127 16.8 13.6127C17.2 12.0127 17.5 10.3127 17.9 8.71268C14.3 8.71268 10.6 8.71268 7 8.71268C6.6 10.7127 6.1 12.8127 5.6 15.0127ZM15.4 6.81268C15.4 6.61268 15.4 6.51268 15.4 6.31268C15.4 5.21268 15.1 5.01266 14.1 5.01266C12.2 5.01266 10.2 5.01266 8.3 5.01266C7.7 5.01266 7.5 4.81268 7.3 4.31268C7.2 3.91268 7 3.41266 6.9 3.01266C6.7 2.51266 6.5 2.31268 6 2.31268C4.9 2.31268 3.9 2.31268 2.8 2.31268C2.2 2.31268 1.8 2.71268 1.8 3.31268C1.8 3.91268 1.8 4.61268 1.8 5.21268C1.8 8.11268 1.8 11.1127 1.8 14.0127C1.8 14.4127 1.9 14.7127 2.3 14.9127C3 15.3127 3.8 14.9127 4 14.1127C4.5 12.0127 4.9 9.91268 5.4 7.81268C5.6 7.01268 5.8 6.81268 6.6 6.81268C9.4 6.81268 12.1 6.81268 14.9 6.81268C15 6.81268 15.2 6.81268 15.4 6.81268Z" fill="#78797D"/>
</svg>
