<svg width="13" height="18" viewBox="0 0 13 18" fill="none" xmlns="http://www.w3.org/2000/svg">
<path d="M6.33548 0C3.97735 0 2.06024 1.9171 2.06024 4.27523C2.06024 6.58836 3.86934 8.46046 6.22747 8.54147C6.29947 8.53247 6.37148 8.53247 6.42548 8.54147C6.44348 8.54147 6.45248 8.54147 6.47048 8.54147C6.47948 8.54147 6.47948 8.54147 6.48848 8.54147C8.79261 8.46046 10.6017 6.58836 10.6107 4.27523C10.6107 1.9171 8.6936 0 6.33548 0Z" fill="#0498C1"/>
<path d="M10.9086 10.9346C8.39746 9.26052 4.30224 9.26052 1.7731 10.9346C0.630034 11.6997 0 12.7347 0 13.8418C0 14.9488 0.630035 15.9749 1.7641 16.7309C3.02417 17.577 4.68026 18 6.33635 18C7.99244 18 9.64853 17.577 10.9086 16.7309C12.0427 15.9659 12.6727 14.9398 12.6727 13.8238C12.6637 12.7167 12.0427 11.6907 10.9086 10.9346Z" fill="#0498C1"/>
</svg>
