<svg width="24" height="24" viewBox="0 0 24 24" fill="none" xmlns="http://www.w3.org/2000/svg">
<g opacity="0.8">
<path d="M7.26316 11.1H5.36842V17.4H7.26316V11.1ZM12.9474 11.1H11.0526V17.4H12.9474V11.1ZM21 19.2H3V21H21V19.2ZM18.6316 11.1H16.7368V17.4H18.6316V11.1ZM12 5.034L16.9358 7.5H7.06421L12 5.034ZM12.4472 3.22361C12.1657 3.08284 11.8343 3.08284 11.5528 3.22361L3.55279 7.22361C3.214 7.393 3 7.73926 3 8.11803V9.3H21V8.11803C21 7.73926 20.786 7.393 20.4472 7.22361L12.4472 3.22361Z" fill="#F20504"/>
</g>
</svg>
