<svg width="20" height="16" viewBox="0 0 20 16" fill="none" xmlns="http://www.w3.org/2000/svg">
<path d="M15.4 13.7C15.4 12.1 15.4 10.6 15.4 9.10002C15.4 7.00002 15.4 4.80001 15.4 2.70001C15.4 1.20001 16.2 0.400024 17.7 0.400024C19.2 0.400024 20 1.20001 20 2.70001C20 6.00001 20 9.40001 20 12.7C20 13 20 13.4 19.9 13.7C18.4 13.7 17 13.7 15.4 13.7Z" fill="#78797D"/>
<path d="M1.1 14.6C7.5 14.6 13.6 14.6 19.9 14.6C19.9 15 19.9 15.4 19.9 15.8C13.3 15.8 6.7 15.8 0 15.8C0 10.6 0 5.40001 0 0.100006C0.3 0.100006 0.699998 0.1 1.1 0C1.1 4.9 1.1 9.70001 1.1 14.6Z" fill="#78797D"/>
<path d="M13.7 13.8C12.1 13.8 10.7 13.8 9.09999 13.8C9.09999 11.6 8.99999 9.4 9.09999 7.3C9.09999 6.1 10.1 5.5 11.4 5.5C12.6 5.5 13.6 6.20001 13.6 7.40001C13.8 9.40001 13.7 11.6 13.7 13.8Z" fill="#78797D"/>
<path d="M7.39997 13.8C5.89997 13.8 4.39997 13.8 2.89997 13.8C2.89997 12.5 2.79997 11.3 2.89997 10.1C2.99997 9.10002 3.79997 8.50002 4.99997 8.40002C6.29997 8.40002 7.19997 8.90002 7.29997 10.1C7.49997 11.3 7.39997 12.5 7.39997 13.8Z" fill="#78797D"/>
<path d="M3.5 3.50003C4.8 2.70003 6 2.10004 7.4 1.30004C6.6 1.10004 6 0.900039 5.2 0.600039C6.7 -0.399961 7.8 0.700036 9.1 0.800036C8.5 2.00004 8.8 3.40003 7.2 4.20003C7.4 3.40003 7.5 2.80004 7.7 2.10004C6.3 2.80004 5 3.40003 3.7 4.00003C3.8 4.00003 3.6 3.70003 3.5 3.50003Z" fill="#78797D"/>
</svg>
