<svg width="20" height="16" viewBox="0 0 20 16" fill="none" xmlns="http://www.w3.org/2000/svg">
<path d="M7.38983 13.7483C7.25424 13.7483 7.18644 13.7483 7.11864 13.7483C5.01695 13.7483 2.98305 13.7483 0.881356 13.7483C0.271186 13.7483 0 13.4877 0 12.9013C0 8.92665 0 4.88685 0 0.847054C0 0.260632 0.271186 0 0.881356 0C6.98305 0 13.0847 0 19.1186 0C19.661 0 20 0.260632 20 0.847054C20 4.88685 20 8.92665 20 12.9664C20 13.5529 19.7288 13.8135 19.1186 13.8135C17.017 13.8135 14.9831 13.8135 12.8814 13.8135C12.6102 13.8135 12.6102 13.8135 12.7458 14.009C12.9492 14.4651 13.2203 14.9212 13.4237 15.3773C13.5593 15.7031 13.4915 15.8986 13.0847 15.8986C11.0508 15.8986 8.94915 15.8986 6.91525 15.8986C6.57627 15.8986 6.44068 15.7031 6.57627 15.3773C6.84746 14.856 7.11864 14.3348 7.38983 13.7483ZM9.9661 1.238C7.11864 1.238 4.33898 1.238 1.49153 1.238C1.15254 1.238 1.15254 1.238 1.15254 1.56379C1.15254 2.80179 1.15254 3.97464 1.15254 5.21264C1.15254 6.97191 1.15254 8.79633 1.15254 10.5556C1.15254 10.8162 1.22034 10.8814 1.42373 10.8814C1.89831 10.8814 2.44068 10.8814 2.91525 10.8814C3.05085 10.8814 3.11864 10.8162 3.11864 10.6859C3.11864 10.4904 3.11864 10.2298 3.11864 9.96917C3.25424 9.12212 3.86441 8.34022 4.88136 8.27507C5.28814 8.20991 5.76271 8.20991 6.16949 7.88412C6.23729 7.81896 6.37288 7.88412 6.44068 7.94928C6.77966 8.34022 7.18644 8.79633 7.52542 9.18728C7.72881 9.38275 7.72881 9.38275 7.86441 9.18728C8.20339 8.79633 8.61017 8.34022 8.94915 7.94928C9.01695 7.88412 9.08475 7.81896 9.22034 7.88412C9.55932 8.14475 9.8983 8.20991 10.3051 8.20991C10.7797 8.27507 11.322 8.34022 11.661 8.73117C12.2034 9.25244 12.339 9.90402 12.2712 10.6208C12.2712 10.8162 12.339 10.8162 12.4746 10.8162C14.4407 10.8162 16.4068 10.8162 18.4407 10.8162C18.7797 10.8162 18.7797 10.8162 18.7797 10.4904C18.7797 7.49317 18.7797 4.56106 18.7797 1.56379C18.7797 1.238 18.7797 1.238 18.4407 1.238C15.5932 1.238 12.8136 1.238 9.9661 1.238Z" fill="#78797D"/>
<path d="M9.89836 4.03978C9.89836 4.17009 9.83057 4.36557 10.1018 4.43073C10.1696 4.43073 10.1696 4.56104 10.2373 4.6262C10.3729 4.95199 10.1018 5.47325 9.76277 5.53841C9.62718 5.60357 9.62718 5.66873 9.62718 5.73389C9.28819 6.38547 8.88142 6.90673 8.13565 7.16736C7.86447 7.23252 7.66108 7.29768 7.38989 7.16736C6.64413 6.90673 6.23735 6.38547 5.89836 5.73389C5.83057 5.60357 5.76277 5.53841 5.62718 5.53841C5.35599 5.4081 5.28819 5.08231 5.2204 4.82167C5.2204 4.6262 5.28819 4.43073 5.49158 4.36557C5.55938 4.36557 5.55938 4.23525 5.55938 4.23525C5.55938 3.97462 5.55938 3.64883 5.62718 3.3882C5.89836 2.41083 6.77972 1.82441 7.86447 1.88956C9.1526 1.95472 9.89836 2.80178 9.89836 4.03978Z" fill="#78797D"/>
<path d="M15.3222 4.36555C14.5087 4.36555 13.7629 4.36555 12.9493 4.36555C12.6781 4.36555 12.6104 4.36555 12.6104 4.10491C12.6104 3.58365 12.6104 2.99723 12.6104 2.47596C12.6104 2.28049 12.6781 2.21533 12.8815 2.21533C14.4409 2.21533 16.0002 2.21533 17.5595 2.21533C17.8307 2.21533 17.8307 2.21533 17.8307 2.47596C17.8307 2.99723 17.8307 3.51849 17.8307 4.03976C17.8307 4.30039 17.8307 4.36555 17.4917 4.36555C16.8815 4.36555 16.068 4.36555 15.3222 4.36555ZM15.6612 3.51849C15.5256 3.25786 15.4578 3.06239 15.39 2.80175C15.3222 2.67144 15.2544 2.67144 15.1866 2.7366C15.051 2.7366 15.1188 2.86691 15.1866 2.86691C15.2544 3.12754 15.39 3.38818 15.4578 3.64881C15.4578 3.77912 15.5256 3.77912 15.6612 3.77912C15.7968 3.77912 15.7968 3.71397 15.8646 3.64881C15.9324 3.38818 16.068 3.12754 16.1358 2.86691C16.1358 2.80175 16.2036 2.7366 16.1358 2.67144C16.068 2.60628 16.0002 2.67144 15.9324 2.80175C15.7968 3.06239 15.729 3.32302 15.6612 3.51849ZM16.407 3.25786C16.407 3.84428 16.407 3.84428 16.9493 3.77912C16.9493 3.77912 16.9493 3.77912 17.0171 3.77912C17.0849 3.77912 17.1527 3.77912 17.1527 3.71397C17.1527 3.64881 17.0849 3.64881 17.0171 3.64881C16.9493 3.64881 16.8815 3.64881 16.8137 3.64881C16.6781 3.64881 16.6781 3.58365 16.6781 3.51849C16.6781 3.32302 16.8137 3.38818 16.9493 3.38818C17.0171 3.38818 17.0849 3.38818 17.0849 3.32302C17.0849 3.25786 17.0171 3.25786 16.9493 3.25786C16.8815 3.25786 16.8815 3.25786 16.8137 3.25786C16.7459 3.25786 16.6781 3.25786 16.6781 3.12754C16.6781 2.99723 16.7459 2.99723 16.8137 2.99723C16.8815 2.99723 16.9493 2.99723 17.0171 2.99723C17.0849 2.99723 17.0849 2.99723 17.1527 2.93207C17.1527 2.86691 17.0849 2.86691 17.0171 2.86691C16.4748 2.67144 16.407 2.67144 16.407 3.25786C16.407 3.1927 16.407 3.25786 16.407 3.25786ZM13.5595 3.25786C13.5595 3.32302 13.5595 3.38818 13.5595 3.45333C13.5595 3.90944 13.4917 3.84428 13.9663 3.84428C14.0341 3.84428 14.1697 3.90944 14.1697 3.77912C14.1697 3.64881 14.0341 3.64881 13.9663 3.71397C13.8307 3.71397 13.7629 3.64881 13.7629 3.51849C13.7629 3.32302 13.7629 3.12754 13.7629 2.93207C13.7629 2.86691 13.7629 2.80175 13.6273 2.80175C13.5595 2.7366 13.5595 2.80175 13.5595 2.86691C13.5595 2.99723 13.5595 3.12754 13.5595 3.25786ZM14.4409 3.25786C14.4409 3.38818 14.4409 3.51849 14.4409 3.71397C14.4409 3.77912 14.4409 3.84428 14.5765 3.84428C14.6442 3.84428 14.712 3.77912 14.712 3.71397C14.712 3.45333 14.712 3.12754 14.712 2.86691C14.712 2.80175 14.712 2.7366 14.5765 2.7366C14.5087 2.7366 14.4409 2.80175 14.4409 2.86691C14.4409 2.99723 14.4409 3.12754 14.4409 3.25786Z" fill="#78797D"/>
</svg>
