<svg width="30" height="22" viewBox="0 0 30 22" fill="none" xmlns="http://www.w3.org/2000/svg">
<path d="M30 2.31777C30 7.98652 30 13.6553 30 19.324C30 19.324 30 19.324 30 19.4217C29.7917 20.7901 28.6458 21.572 27.0833 21.572C25.7292 21.572 24.4792 21.572 23.125 21.572C16.3542 21.572 9.58333 21.572 2.8125 21.572C1.14583 21.572 0 20.4969 0 19.0308C0 13.5575 0 8.08426 0 2.61099C0 2.22004 0.104167 1.82909 0.3125 1.43814C0.833333 0.460772 1.66667 0.0698242 2.8125 0.0698242C10.9375 0.0698242 19.0625 0.0698242 27.1875 0.0698242C27.2917 0.0698242 27.2917 0.0698242 27.3958 0.0698242C28.2292 0.0698242 28.9583 0.363035 29.4792 1.04719C29.7917 1.43814 29.8958 1.82909 30 2.31777ZM15 12.8734C18.9583 9.15936 22.9167 5.44536 26.875 1.73135C18.9583 1.73135 11.0417 1.73135 3.125 1.73135C7.08333 5.44536 11.0417 9.15936 15 12.8734ZM3.125 19.8127C11.0417 19.8127 19.0625 19.8127 26.875 19.8127C24.0625 17.1738 21.3542 14.6326 18.5417 11.9937C17.6042 12.8734 16.7708 13.6553 15.8333 14.5349C15.3125 15.0236 14.8958 15.0236 14.375 14.5349C13.5417 13.753 12.6042 12.8734 11.7708 12.0915C11.6667 11.9937 11.6667 11.9937 11.5625 11.896C8.64583 14.6326 5.83333 17.1738 3.125 19.8127ZM1.77083 2.9042C1.77083 8.18199 1.77083 13.4598 1.77083 18.6399C4.58333 16.001 7.39583 13.3621 10.2083 10.7232C7.39583 8.18199 4.58333 5.5431 1.77083 2.9042ZM19.8958 10.7232C22.7083 13.3621 25.4167 15.9032 28.2292 18.5421C28.2292 13.3621 28.2292 8.18199 28.2292 3.00193C25.4167 5.5431 22.7083 8.18199 19.8958 10.7232Z" fill="#78797D"/>
</svg>
