<svg width="21" height="17" viewBox="0 0 21 17" fill="none" xmlns="http://www.w3.org/2000/svg">
<path d="M15.7 8.34954C15.7 7.94954 15.6 7.54954 15.6 7.14954C15.1 4.94954 13.2 3.24954 10.9 2.94954C9.39999 2.74954 7.99999 3.14954 6.79999 4.04954C6.39999 4.34954 5.89999 4.34954 5.49999 4.04954C4.89999 3.64954 4.89999 2.84954 5.49999 2.34954C6.39999 1.54954 7.49999 1.04954 8.69999 0.849538C12.4 0.149538 16 2.14954 17.4 5.64954C17.7 6.44954 17.9 7.24954 17.9 8.14954V8.24954C18 8.24954 18 8.24954 18.1 8.24954C18.7 8.24954 19.3 8.24954 19.9 8.24954C20 8.24954 20.1 8.24954 20.1 8.34954V8.54954C19.1 9.94954 18.1 11.2495 17.1 12.6495C17 12.8495 16.9 12.8495 16.8 12.6495C15.8 11.2495 14.8 9.94954 13.8 8.54954C13.8 8.44954 13.7 8.34954 13.8 8.34954C13.8 8.34954 13.9 8.24954 14 8.24954C14.6 8.24954 15.2 8.24954 15.8 8.24954C15.6 8.34954 15.6 8.34954 15.7 8.34954Z" fill="#78797D"/>
<path d="M2.1 8.84951C2 8.84951 2 8.84951 2 8.84951C1.4 8.84951 0.799999 8.84951 0.199999 8.84951C0.0999989 8.84951 0 8.84951 0 8.74951C0 8.64951 0 8.54951 0 8.54951C1 7.14951 2 5.84951 3 4.44951C3.1 4.34951 3.2 4.34951 3.3 4.44951C4.3 5.84951 5.3 7.14951 6.3 8.54951C6.4 8.64951 6.4 8.64951 6.3 8.74951C6.3 8.74951 6.2 8.84951 6.1 8.84951C5.5 8.84951 4.9 8.84951 4.3 8.84951C4.3 8.84951 4.2 8.84951 4.1 8.84951C4.1 9.04951 4.1 9.24951 4.1 9.44951C4.4 11.8495 6.3 13.8495 8.7 14.2495C10.3 14.5495 11.7 14.1495 13 13.1495C13.4 12.8495 13.7 12.8495 14.1 13.0495C14.5 13.2495 14.7 13.5495 14.7 14.0495C14.7 14.3495 14.6 14.6495 14.3 14.8495C13.2 15.7495 11.9 16.2495 10.5 16.4495C8 16.7495 5.9 16.0495 4.1 14.2495C2.7 12.8495 2 11.1495 1.9 9.14951C2.2 8.94951 2.1 8.94951 2.1 8.84951Z" fill="#78797D"/>
</svg>
