<svg width="20" height="18" viewBox="0 0 20 18" fill="none" xmlns="http://www.w3.org/2000/svg">
<path d="M10 17.1528C7.63889 17.1528 5.34722 17.1528 2.98611 17.1528C1.73611 17.1528 0.625 16.3889 0.208333 15.2083C0.0694445 14.9306 0 14.5833 0 14.2361C0 10.4861 0 6.73611 0 2.91667C0 1.31944 1.31944 0 2.91667 0C7.15278 0 11.3889 0 15.625 0C17.0139 0 18.2639 1.11111 18.4722 2.5C18.4722 2.63889 18.5417 2.70833 18.6111 2.77778C19.5139 3.33333 20 4.23611 20 5.27778C20 8.26389 20 11.25 20 14.2361C20 15.8333 18.6806 17.1528 17.0833 17.1528C14.7222 17.2222 12.3611 17.1528 10 17.1528ZM9.23611 1.59722C7.15278 1.59722 5.06944 1.59722 2.98611 1.59722C2.15278 1.59722 1.52778 2.15278 1.52778 3.05556C1.52778 6.80556 1.52778 10.4861 1.52778 14.2361C1.52778 15.0694 2.08333 15.625 2.91667 15.625C7.08333 15.625 11.25 15.625 15.4167 15.625C16.25 15.625 16.8056 15.0694 16.8056 14.1667C16.8056 10.4167 16.8056 6.73611 16.8056 2.98611C16.8056 2.84722 16.8056 2.77778 16.8056 2.63889C16.6667 1.94444 16.1111 1.52778 15.4167 1.52778C13.4028 1.59722 11.3194 1.59722 9.23611 1.59722Z" fill="#78797D"/>
<path d="M8.95825 10.5555C8.95825 9.58325 8.95825 8.61103 8.95825 7.63881C8.95825 7.22214 9.09714 7.08325 9.51381 7.08325C11.4583 7.08325 13.4027 7.08325 15.3471 7.08325C15.7638 7.08325 15.9027 7.22214 15.9027 7.63881C15.9027 9.58325 15.9027 11.5971 15.9027 13.5416C15.9027 13.9583 15.7638 14.0971 15.3471 14.0971C13.4027 14.0971 11.4583 14.0971 9.51381 14.0971C9.09714 14.0971 8.95825 13.9583 8.95825 13.5416C8.95825 12.5694 8.95825 11.5277 8.95825 10.5555Z" fill="#78797D"/>
<path d="M10.0695 4.23611C10.1389 3.95833 10.2778 3.68055 10.3473 3.40277C10.4167 3.19444 10.4862 2.91666 10.5556 2.70833C10.6251 2.5 10.7639 2.43055 10.9723 2.43055C11.1806 2.43055 11.3195 2.56944 11.3889 2.77777C11.5278 3.19444 11.6667 3.61111 11.8056 4.09722C11.8056 4.16666 11.8751 4.16666 11.8751 4.30555C11.9445 4.23611 11.9445 4.16666 11.9445 4.09722C12.0834 3.68055 12.2223 3.26388 12.3612 2.84722C12.4306 2.70833 12.5001 2.56944 12.6389 2.56944C12.8473 2.5 12.9862 2.56944 13.1251 2.63888C13.2639 2.77777 13.2639 2.91666 13.1945 3.125C12.9862 3.68055 12.7778 4.30555 12.6389 4.86111C12.5695 5 12.5001 5.27777 12.3612 5.55555C12.2917 5.76388 12.1528 5.90277 11.9445 5.90277C11.7362 5.90277 11.5973 5.76388 11.5278 5.55555C11.3889 5.13888 11.2501 4.72222 11.1112 4.30555C11.1112 4.23611 11.0417 4.23611 11.0417 4.09722C10.9723 4.30555 10.9028 4.375 10.9028 4.51388C10.7639 4.86111 10.6945 5.20833 10.5556 5.55555C10.4862 5.76388 10.3473 5.90277 10.1389 5.90277C9.93061 5.90277 9.79172 5.76388 9.72228 5.55555C9.4445 4.65277 9.09728 3.81944 8.8195 2.91666C8.75005 2.63888 8.8195 2.43055 9.02783 2.36111C9.30561 2.29166 9.51394 2.36111 9.58339 2.63888C9.72228 3.05555 9.86117 3.47222 10.0001 3.88888C10.0001 4.02777 10.0695 4.09722 10.0695 4.23611Z" fill="#78797D"/>
<path d="M5.48614 8.75007C4.86114 8.75007 4.16669 8.75007 3.54169 8.75007C3.12502 8.75007 2.84725 8.47229 2.7778 8.05562C2.70836 7.7084 2.98614 7.29173 3.33336 7.22229C3.4028 7.22229 3.47225 7.22229 3.61114 7.22229C4.86114 7.22229 6.18058 7.22229 7.43058 7.22229C7.91669 7.22229 8.26391 7.50007 8.26391 7.98618C8.26391 8.47229 7.91669 8.81951 7.50003 8.81951C6.80558 8.75007 6.11114 8.75007 5.48614 8.75007Z" fill="#78797D"/>
<path d="M5.48615 9.79161C6.11115 9.79161 6.73615 9.79161 7.36115 9.79161C7.84726 9.79161 8.19449 10.1388 8.19449 10.5555C8.19449 11.0416 7.84726 11.3194 7.36115 11.3194C6.11115 11.3194 4.79171 11.3194 3.54171 11.3194C3.12504 11.3194 2.77782 11.0416 2.70837 10.6249C2.63893 10.2777 2.84726 9.9305 3.19448 9.79161C3.33337 9.72217 3.40282 9.72217 3.54171 9.72217C4.23615 9.79161 4.86115 9.79161 5.48615 9.79161Z" fill="#78797D"/>
<path d="M5.48603 12.4305C6.11103 12.4305 6.80547 12.4305 7.43047 12.4305C7.7777 12.4305 8.05547 12.6389 8.12492 12.9167C8.26381 13.1944 8.19436 13.5417 7.91658 13.8194C7.7777 13.9583 7.56936 14.0278 7.43047 14.0278C6.11103 14.0278 4.79159 14.0278 3.47214 14.0278C3.05547 14.0278 2.70825 13.6805 2.70825 13.2639C2.70825 12.8472 3.05547 12.5 3.54159 12.5C4.16659 12.4305 4.86103 12.4305 5.48603 12.4305Z" fill="#78797D"/>
<path d="M3.6111 4.16665C3.6111 4.37499 3.6111 4.65276 3.6111 4.8611C3.6111 5.06943 3.6111 5.27776 3.6111 5.4861C3.6111 5.76388 3.40277 5.97221 3.19444 5.97221C2.91666 5.90276 2.77777 5.76388 2.77777 5.4861C2.77777 4.65276 2.77777 3.74999 2.77777 2.91665C2.77777 2.70832 2.84722 2.49999 3.05555 2.49999C3.26388 2.43054 3.47222 2.49999 3.6111 2.70832C3.95833 2.9861 4.2361 3.47221 4.51388 3.88888C4.58333 4.02776 4.65277 4.09721 4.79166 4.30554C4.79166 4.2361 4.79166 4.16665 4.79166 4.09721C4.79166 3.68054 4.79166 3.33332 4.79166 2.91665C4.79166 2.63888 4.93055 2.43054 5.20833 2.43054C5.4861 2.43054 5.62499 2.63888 5.62499 2.91665C5.62499 3.74999 5.62499 4.65276 5.62499 5.4861C5.62499 5.69443 5.55555 5.90276 5.34722 5.90276C5.20833 5.97221 4.99999 5.90276 4.8611 5.69443C4.44444 5.20832 4.02777 4.65276 3.6111 4.16665C3.68055 4.09721 3.6111 4.09721 3.6111 4.16665Z" fill="#78797D"/>
<path d="M6.9444 3.26388C6.9444 3.40276 6.9444 3.54165 6.9444 3.68054C7.15274 3.68054 7.36107 3.68054 7.63885 3.68054C7.77774 3.68054 7.91663 3.68054 8.05552 3.68054C8.26385 3.68054 8.40274 3.88888 8.47218 4.09721C8.47218 4.30554 8.33329 4.51388 8.12496 4.51388C7.91663 4.51388 7.63885 4.51388 7.43051 4.51388C7.29163 4.51388 7.15274 4.51388 7.01385 4.51388C7.01385 4.72221 7.01385 4.8611 7.01385 5.06943C7.08329 5.06943 7.15274 5.06943 7.15274 5.06943C7.49996 5.06943 7.84718 5.06943 8.1944 5.06943C8.47218 5.06943 8.68051 5.27776 8.61107 5.4861C8.61107 5.69443 8.40274 5.90276 8.1944 5.90276C7.63885 5.90276 7.08329 5.90276 6.52774 5.90276C6.24996 5.90276 6.04163 5.76388 6.04163 5.4861C6.04163 4.58332 6.04163 3.74999 6.04163 2.84721C6.04163 2.56943 6.18052 2.43054 6.45829 2.43054C7.01385 2.43054 7.5694 2.43054 8.12496 2.43054C8.40274 2.43054 8.54163 2.63888 8.54163 2.84721C8.54163 3.12499 8.40274 3.26388 8.12496 3.26388C7.77774 3.26388 7.43052 3.26388 7.15274 3.26388C7.08329 3.26388 7.01385 3.26388 6.9444 3.26388Z" fill="#78797D"/>
<path d="M14.6528 5.97229C14.1667 5.97229 13.8195 5.8334 13.4723 5.55562C13.2639 5.34729 13.2639 5.13896 13.4028 4.93062C13.5417 4.72229 13.8195 4.72229 14.0278 4.93062C14.3056 5.13896 14.5834 5.2084 14.8612 5.13896C14.9306 5.13896 15.0695 5.00007 15.0695 5.00007C15.0695 4.93062 15.0001 4.86118 14.9306 4.79173C14.7223 4.72229 14.4445 4.65285 14.2362 4.51396C13.8889 4.37507 13.6806 4.23618 13.5417 3.88896C13.3334 3.3334 13.6112 2.77785 14.1667 2.63896C14.6528 2.43062 15.1389 2.50007 15.6251 2.77785C15.8334 2.91673 15.9723 3.12507 15.8334 3.3334C15.6945 3.54173 15.4862 3.61118 15.2778 3.54173C15.0695 3.40285 14.7917 3.40285 14.5834 3.47229C14.5139 3.47229 14.4445 3.54173 14.4445 3.61118C14.5139 3.68062 14.5139 3.75007 14.5834 3.75007C14.7223 3.81951 14.9306 3.88896 15.0695 3.9584C15.2084 4.02785 15.2778 4.02785 15.4167 4.09729C15.9028 4.30562 16.1806 4.72229 16.1112 5.2084C16.0417 5.69451 15.6945 6.04173 15.2084 6.11118C14.9306 5.90285 14.7917 5.90285 14.6528 5.97229Z" fill="#78797D"/>
</svg>
