<svg width="24" height="18" viewBox="0 0 24 18" fill="none" xmlns="http://www.w3.org/2000/svg">
<path d="M11.7007 0C9.34258 0 7.42548 1.9171 7.42548 4.27523C7.42548 6.58836 9.23458 8.46046 11.5927 8.54147C11.6647 8.53247 11.7367 8.53247 11.7907 8.54147C11.8087 8.54147 11.8177 8.54147 11.8357 8.54147C11.8447 8.54147 11.8447 8.54147 11.8537 8.54147C14.1578 8.46046 15.9669 6.58836 15.9759 4.27523C15.9759 1.9171 14.0588 0 11.7007 0Z" fill="#0498C1"/>
<path d="M16.2738 10.9346C13.7626 9.26052 9.66741 9.26052 7.13827 10.9346C5.99521 11.6997 5.36517 12.7347 5.36517 13.8418C5.36517 14.9488 5.99521 15.9749 7.12927 16.7309C8.38934 17.577 10.0454 18 11.7015 18C13.3576 18 15.0137 17.577 16.2738 16.7309C17.4078 15.9659 18.0379 14.9398 18.0379 13.8238C18.0289 12.7167 17.4078 11.6907 16.2738 10.9346Z" fill="#0498C1"/>
<path d="M21.5917 4.80461C21.7357 6.5507 20.4936 8.08079 18.7745 8.2878C18.7655 8.2878 18.7655 8.2878 18.7565 8.2878H18.7295C18.6755 8.2878 18.6215 8.2878 18.5765 8.3058C17.7035 8.3508 16.9024 8.07179 16.2994 7.55876C17.2264 6.73071 17.7575 5.48865 17.6495 4.13857C17.5864 3.40953 17.3344 2.7435 16.9564 2.17647C17.2984 2.00546 17.6945 1.89745 18.0995 1.86145C19.8636 1.70844 21.4387 3.02251 21.5917 4.80461Z" fill="#0498C1"/>
<path d="M23.3908 13.1321C23.3188 14.0051 22.7608 14.7612 21.8247 15.2742C20.9247 15.7692 19.7906 16.0032 18.6656 15.9762C19.3136 15.3912 19.6916 14.6622 19.7636 13.8881C19.8536 12.7721 19.3226 11.701 18.2605 10.846C17.6575 10.3689 16.9555 9.99092 16.1904 9.7119C18.1795 9.13587 20.6817 9.52289 22.2208 10.765C23.0488 11.431 23.4718 12.268 23.3908 13.1321Z" fill="#0498C1"/>
<path d="M1.80909 4.80461C1.66508 6.5507 2.90715 8.08079 4.62624 8.2878C4.63524 8.2878 4.63524 8.2878 4.64424 8.2878H4.67125C4.72525 8.2878 4.77925 8.2878 4.82426 8.3058C5.6973 8.3508 6.49835 8.07179 7.10138 7.55876C6.17433 6.73071 5.6433 5.48865 5.75131 4.13857C5.81431 3.40953 6.06632 2.7435 6.44434 2.17647C6.10232 2.00546 5.7063 1.89745 5.30128 1.86145C3.53718 1.70844 1.9621 3.02251 1.80909 4.80461Z" fill="#0498C1"/>
<path d="M0.00993395 13.1321C0.0819378 14.0051 0.639968 14.7612 1.57602 15.2742C2.47607 15.7692 3.61013 16.0032 4.73519 15.9762C4.08716 15.3912 3.70914 14.6622 3.63713 13.8881C3.54713 12.7721 4.07816 11.701 5.14021 10.846C5.74325 10.3689 6.44529 9.99092 7.21033 9.7119C5.22122 9.13587 2.71908 9.52289 1.18 10.765C0.351952 11.431 -0.0710707 12.268 0.00993395 13.1321Z" fill="#0498C1"/>
</svg>
