<svg width="24" height="24" viewBox="0 0 24 24" fill="none" xmlns="http://www.w3.org/2000/svg">
<path d="M17.9525 13.9411L18.5005 14.494L13.2068 19.8235H12.6704V19.2823L17.9525 13.9411ZM20.0513 10.4116C19.9056 10.4116 19.754 10.4704 19.6432 10.5822L18.5763 11.6587L20.7626 13.8646L21.8295 12.7881C22.0569 12.5587 22.0569 12.1763 21.8295 11.9587L20.4652 10.5822C20.3486 10.4646 20.2029 10.4116 20.0513 10.4116ZM17.9525 12.2881L11.5044 18.7941V21H13.6907L20.1388 14.494L17.9525 12.2881Z" fill="#272727"/>
<path d="M2 16.7649V19.9414H10.3965V17.9402H3.99417V16.7649C3.99417 16.0872 7.2793 14.5413 10.3965 14.5413C11.4041 14.5519 12.4012 14.6895 13.3668 14.9437L14.9621 13.3342C13.4927 12.8366 11.9708 12.5613 10.3965 12.5295C7.59417 12.5295 2 13.9378 2 16.7649ZM10.3965 3C8.07696 3 6.19825 4.89531 6.19825 7.23534C6.19825 9.57537 8.07696 11.4707 10.3965 11.4707C12.716 11.4707 14.5947 9.57537 14.5947 7.23534C14.5947 4.89531 12.716 3 10.3965 3ZM10.3965 9.35301C9.24198 9.35301 8.29737 8.41065 8.29737 7.23534C8.29737 6.06003 9.24198 5.11767 10.3965 5.11767C11.551 5.11767 12.4956 6.07062 12.4956 7.23534C12.4956 8.40006 11.5615 9.35301 10.3965 9.35301Z" fill="#272727"/>
</svg>
