<svg width="20" height="19" viewBox="0 0 20 19" fill="none" xmlns="http://www.w3.org/2000/svg">
<path d="M7.84146 0C8.19389 0 8.54631 0 8.89874 0C8.98684 0 9.07495 0.0823054 9.16306 0.0823054C11.1895 0.411527 12.5111 1.5638 12.8635 3.45683C13.3041 5.76138 12.5111 7.6544 10.9252 9.38281C10.3084 10.1236 10.4847 11.1112 11.4538 11.4404C11.5419 11.4404 11.63 11.5228 11.7181 11.5228C11.63 11.6051 11.5419 11.6874 11.4538 11.7697C10.749 12.4281 10.0441 13.0866 9.33927 13.745C9.07495 13.9919 8.81063 14.3211 8.72253 14.7327C8.3701 15.9672 7.75336 17.2018 7.66525 18.5187C6.87229 18.5187 6.07934 18.5187 5.37449 18.3541C4.2291 18.1895 2.99562 18.0249 1.85023 17.6957C0.96917 17.4487 0.264319 17.0372 0 16.2142C0 15.8026 0 15.3911 0 14.9796C0.264319 14.1565 0.881063 13.5804 1.67402 13.1689C2.8194 12.3458 4.141 11.852 5.46259 11.3581C6.43176 11.0289 6.69608 10.0413 5.99123 9.38281C4.49342 7.98362 3.78857 6.25521 3.87668 4.27988C3.96478 1.81072 5.5507 0.329222 7.75336 0.0823054L7.84146 0Z" fill="#78797D"/>
<path d="M19.9119 11.1112C19.6475 11.3581 19.4713 11.6873 19.207 11.9342C18.2378 11.0289 17.3568 10.2058 16.4757 9.30045C16.6519 9.13584 16.9162 8.88892 17.1806 8.80662C17.533 8.64201 17.8854 8.64201 18.1497 8.88892C18.7665 9.46506 19.3832 10.1235 20 10.6996C19.9119 10.7819 19.9119 10.9466 19.9119 11.1112Z" fill="#78797D"/>
<path d="M14.89 10.6997C15.8592 11.6051 16.7403 12.5104 17.7975 13.4158C17.5332 13.6627 17.1808 13.9919 16.8284 14.2388C15.683 15.3088 14.5376 16.3788 13.3922 17.4487C13.216 17.6134 13.0398 17.6957 12.7755 17.778C11.8063 18.0249 10.8371 18.3541 9.86796 18.601C9.69175 18.6833 9.42743 18.601 9.33933 18.5187C9.25122 18.4364 9.25122 18.1895 9.25122 18.0249C9.51554 17.1195 9.77986 16.1319 10.1323 15.2265C10.1323 15.1442 10.2204 14.9796 10.3085 14.8973C11.8063 13.4981 13.3041 12.1812 14.7138 10.782C14.8019 10.782 14.89 10.782 14.89 10.6997ZM12.3349 17.1195C12.2468 16.6257 12.1587 16.2965 12.1587 15.8849C11.7182 15.8026 11.2777 15.8026 10.8371 15.7203C10.6609 16.1319 10.5728 16.6257 10.3966 17.1195C10.3085 17.2841 10.6609 17.6134 10.8371 17.5311C11.4539 17.3664 11.9825 17.2018 12.3349 17.1195Z" fill="#78797D"/>
<path d="M18.7666 12.4282C18.5904 12.5928 18.4142 12.7575 18.238 12.9221C17.2688 12.0167 16.3877 11.1113 15.4186 10.206C15.5948 10.0414 15.771 9.87677 15.9472 9.71216C16.9164 10.6175 17.8856 11.5229 18.7666 12.4282Z" fill="#78797D"/>
</svg>
