<svg width="20" height="16" viewBox="0 0 20 16" fill="none" xmlns="http://www.w3.org/2000/svg">
<path fill-rule="evenodd" clip-rule="evenodd" d="M15.6114 4.23966C15.8656 3.98436 16.0804 3.74882 16.2772 3.53305L16.2772 3.53301L16.2773 3.5329L16.2774 3.53281C16.4437 3.35054 16.597 3.18238 16.7504 3.02833C17.2194 2.55725 17.4874 2.55725 17.9564 3.02833L19.6985 4.77803C20.1005 5.2491 20.1005 5.51829 19.6985 5.98936C18.892 6.84437 18.0556 7.66929 17.2293 8.48425C16.8199 8.88801 16.413 9.28933 16.0134 9.69065C15.7454 9.95983 15.5444 10.2963 15.6114 10.7001V13.9303C15.6114 15.007 14.9414 15.6127 13.8693 15.6127H1.67504C0.670017 15.6127 0 14.9398 0 13.9303V1.7497C0 0.672962 0.670017 0 1.74204 0H13.8693C14.9414 0 15.5444 0.672962 15.6114 1.6824V4.23966ZM14.2714 11.6422L14.1374 11.5076C13.6013 12.5844 12.6633 12.5844 11.6583 12.5171H11.1893C10.4523 12.5171 10.2513 12.3152 10.2513 11.5749C10.2513 11.4204 10.244 11.2585 10.2367 11.0942L10.2367 11.0942V11.0941C10.2217 10.7577 10.2062 10.4109 10.2513 10.0944C10.3183 9.75795 10.4523 9.35417 10.6533 9.15228C11.1893 8.58026 11.7421 8.02506 12.2864 7.47828C12.8308 6.9315 13.3668 6.39313 13.8693 5.85477C14.0704 5.65288 14.2044 5.3164 14.2044 5.04721C14.2489 4.33193 14.2342 3.64634 14.2194 2.95099V2.95098V2.95097V2.95096V2.95092V2.95089V2.95086C14.2119 2.59953 14.2044 2.2457 14.2044 1.88429C14.2044 1.41322 14.0704 1.27863 13.6013 1.27863C9.78224 1.34592 5.82915 1.34592 1.87605 1.34592C1.47404 1.34592 1.34003 1.48052 1.34003 1.95159V13.7957C1.34003 14.2668 1.47404 14.4014 1.94305 14.4014H13.7353H13.9363C13.9838 14.3537 14.0397 14.306 14.0921 14.2613C14.1875 14.1799 14.2714 14.1084 14.2714 14.0649V11.6422ZM11.6583 11.1712C12.3283 11.3731 12.8643 11.1712 13.2663 10.6328C13.445 10.4085 13.6237 10.244 13.8023 10.0795C13.8917 9.99722 13.981 9.91497 14.0704 9.82524C14.5059 9.38782 14.9414 8.93357 15.3769 8.47933C15.8124 8.02508 16.2479 7.57082 16.6834 7.13339C16.5159 6.96515 16.3317 6.79691 16.1474 6.62867L16.1474 6.62866C15.9631 6.46042 15.7789 6.29219 15.6114 6.12395C14.4724 7.26799 13.2663 8.47932 12.0603 9.62335C11.6583 10.0271 11.5243 10.4982 11.6583 11.1712ZM16.8174 4.91262C17.0194 5.19659 17.2213 5.43165 17.3939 5.63254C17.5076 5.76491 17.6086 5.88244 17.6884 5.98936L17.6885 5.98934C17.9565 5.78746 18.2245 5.58558 18.3585 5.45099C18.1993 5.25921 18.0402 5.08261 17.8883 4.91399L17.8882 4.91394L17.8882 4.91389L17.8882 4.91385C17.7203 4.7275 17.5611 4.55087 17.4204 4.37425C17.1524 4.57613 16.9514 4.77801 16.8174 4.9126L16.8174 4.91262ZM7.83914 4.50868H3.61804C2.94802 4.50868 2.68001 4.3068 2.68001 3.83572C2.68001 3.36465 2.94802 3.16276 3.61804 3.16276H12.0602C12.4623 3.16276 12.7973 3.23006 12.9313 3.70113C13.0653 4.1722 12.7303 4.50868 12.1272 4.50868H7.83914ZM10.9212 5.85465H7.23607H3.48398C3.01497 5.85465 2.67996 5.98925 2.61296 6.52762C2.61296 6.93139 2.88096 7.20058 3.48398 7.20058H10.9212C11.4572 7.20058 11.7922 6.99869 11.7922 6.52762C11.7922 6.05654 11.5242 5.85465 10.9212 5.85465ZM5.96313 9.89255H3.48406C2.94805 9.89255 2.61304 9.62337 2.68004 9.21959C2.68004 8.74852 3.01505 8.54663 3.48406 8.54663H8.57619C9.0452 8.54663 9.31321 8.74852 9.38021 9.21959C9.38021 9.62337 9.11221 9.89255 8.57619 9.89255H5.96313ZM8.5091 11.2384H5.96304H3.41698C2.94796 11.2384 2.67996 11.4403 2.61296 11.9114C2.61296 12.3152 2.88096 12.5844 3.41698 12.5844H8.5091C9.11212 12.5844 9.38013 12.3152 9.38013 11.9114C9.38013 11.5076 9.04512 11.2384 8.5091 11.2384Z" fill="#78797D"/>
</svg>
