<svg width="24" height="24" viewBox="0 0 24 24" fill="none" xmlns="http://www.w3.org/2000/svg">
<path d="M15.2727 14.4545H9.54545V12.8182H15.2727V14.4545ZM17.7273 11.1818H9.54545V9.54545H17.7273V11.1818ZM17.7273 7.90909H9.54545V6.27273H17.7273V7.90909ZM4.63636 6.27273V19.3636H17.7273V21H4.63636C4.20237 21 3.78616 20.8276 3.47928 20.5207C3.1724 20.2138 3 19.7976 3 19.3636V6.27273H4.63636ZM19.3636 3C19.7976 3 20.2138 3.1724 20.5207 3.47928C20.8276 3.78616 21 4.20237 21 4.63636V16.0909C21 16.9991 20.2718 17.7273 19.3636 17.7273H7.90909C7.4751 17.7273 7.05888 17.5549 6.75201 17.248C6.44513 16.9411 6.27273 16.5249 6.27273 16.0909V4.63636C6.27273 3.72818 7.00091 3 7.90909 3H19.3636ZM7.90909 4.63636V16.0909H19.3636V4.63636H7.90909Z" fill="#272727"/>
</svg>
