<svg width="16" height="20" viewBox="0 0 16 20" fill="none" xmlns="http://www.w3.org/2000/svg">
<g clip-path="url(#clip0)">
<path d="M12.5 20C8.7 20 4.8 20 1 20C0.2 19.7 0 19.2 0 18.4C0 13.4 0 8.4 0 3.3C0 3.2 0 3 0 2.9C0.1 2.2 0.5 1.8 1.2 1.8C1.4 1.8 1.6 1.8 1.9 1.8C1.8 1 1.9 0.3 2.7 0C5.4 0 8.2 0 10.9 0C10.9 0.7 10.9 1.4 10.9 2.1C10.9 2.8 11 3.5 11 4.3C11.7 4.3 12.4 4.4 13.1 4.4C13.8 4.4 14.5 4.4 15.2 4.4C15.2 4.5 15.2 4.6 15.2 4.7C15.2 8.8 15.2 13 15.2 17.1C15.2 17.7 14.8 18.1 14.2 18.2C14 18.2 13.7 18.2 13.5 18.2C13.6 19.1 13.4 19.8 12.5 20ZM14.6 5.2C14.5 5.2 14.5 5.2 14.4 5.1C13.5 5.1 12.5 5.1 11.6 5.1C10.5 5.1 10.1 4.7 10.1 3.7C10.1 2.7 10.1 1.7 10.1 0.7C9.9 0.7 9.8 0.7 9.6 0.7C7.5 0.7 5.3 0.7 3.2 0.7C2.6 0.7 2.5 0.8 2.5 1.4C2.5 6.5 2.5 11.6 2.5 16.6C2.5 17.3 2.5 17.3 3.2 17.3C6.7 17.3 10.2 17.3 13.7 17.3C14.4 17.3 14.4 17.3 14.4 16.6C14.4 13 14.4 9.4 14.4 5.8C14.6 5.6 14.6 5.4 14.6 5.2ZM1.9 2.6C0.9 2.5 0.8 2.5 0.8 3.5C0.8 8.5 0.8 13.5 0.8 18.5C0.8 19.2 0.8 19.3 1.6 19.3C5 19.3 8.5 19.3 11.9 19.3C12.8 19.3 12.9 19.2 12.7 18.2C12.5 18.2 12.3 18.2 12.1 18.2C9.2 18.2 6.2 18.2 3.3 18.2C2.2 18.2 1.8 17.8 1.8 16.7C1.8 12.2 1.8 7.7 1.8 3.3C1.9 3.1 1.9 2.9 1.9 2.6Z" fill="#78797D"/>
<path d="M11.7 0.199951C12.9 1.39995 14 2.49995 15.2 3.69995C14 3.69995 12.9 3.69995 11.7 3.69995C11.7 2.49995 11.7 1.29995 11.7 0.199951Z" fill="#78797D"/>
<path d="M3.59998 12C3.59998 11.7 3.59998 11.5 3.59998 11.3C6.89998 11.3 10.2 11.3 13.6 11.3C13.6 11.5 13.6 11.7 13.6 12C10.2 12 6.89998 12 3.59998 12Z" fill="#78797D"/>
<path d="M4.79999 7.19995C4.99999 6.99995 5.09999 6.89995 5.19999 6.69995C5.49999 6.79995 5.79999 6.99995 6.19999 7.09995C6.19999 6.69995 6.19999 6.39995 6.19999 5.99995C5.99999 5.99995 5.89999 5.99995 5.69999 5.89995C5.29999 5.69995 4.99999 5.49995 4.99999 4.99995C4.99999 4.49995 5.29999 4.19995 5.69999 3.99995C5.89999 3.89995 6.09999 3.79995 6.19999 3.69995C6.29999 3.69995 6.39999 3.69995 6.39999 3.69995C6.59999 4.19995 7.19999 3.99995 7.49999 4.29995L7.59999 4.39995C7.59999 4.39995 7.49999 4.59995 7.39999 4.79995C7.09999 4.69995 6.89999 4.59995 6.59999 4.39995C6.59999 4.69995 6.59999 4.89995 6.59999 5.09995C6.59999 5.39995 6.69999 5.49995 6.89999 5.59995C7.69999 5.89995 7.79999 6.09995 7.79999 6.69995C7.79999 7.19995 7.49999 7.49995 6.79999 7.69995C6.69999 7.79995 6.69999 7.89995 6.59999 7.99995C6.49999 8.09995 6.39999 8.19995 6.39999 8.19995C6.29999 8.19995 6.19999 8.09995 6.19999 7.99995C6.09999 7.89995 5.99999 7.79995 5.79999 7.69995C5.49999 7.49995 5.19999 7.39995 4.79999 7.19995ZM6.69999 6.19995L6.59999 6.29995C6.59999 6.59995 6.59999 6.89995 6.59999 7.09995L6.69999 7.19995C6.89999 6.99995 7.09999 6.79995 7.09999 6.69995C7.09999 6.49995 6.89999 6.29995 6.69999 6.19995ZM5.99999 5.39995C6.09999 5.39995 6.09999 5.29995 6.19999 5.29995C6.19999 4.99995 6.19999 4.79995 6.19999 4.49995C6.09999 4.39995 5.99999 4.39995 5.99999 4.39995C5.89999 4.59995 5.69999 4.69995 5.69999 4.89995C5.69999 4.99995 5.89999 5.19995 5.99999 5.39995Z" fill="#78797D"/>
<path d="M12.2 13.2C13 13.2 13.6 13.8 13.6 14.6C13.6 15.4 13 16 12.2 16C11.4 16 10.8 15.4 10.8 14.6C10.8 13.8 11.4 13.2 12.2 13.2Z" fill="#78797D"/>
<path d="M9.39998 13.3C9.39998 13.5 9.39998 13.7 9.39998 14C7.49998 14 5.59998 14 3.59998 14C3.59998 13.8 3.59998 13.6 3.59998 13.3C5.49998 13.3 7.39998 13.3 9.39998 13.3Z" fill="#78797D"/>
<path d="M3.59998 16C3.59998 15.8 3.59998 15.6 3.59998 15.3C5.49998 15.3 7.39998 15.3 9.39998 15.3C9.39998 15.5 9.39998 15.7 9.39998 16C7.49998 16 5.59998 16 3.59998 16Z" fill="#78797D"/>
<path d="M3.59998 10C3.59998 9.80005 3.59998 9.60005 3.59998 9.30005C5.49998 9.30005 7.29998 9.30005 9.19998 9.30005C9.19998 9.50005 9.19998 9.70005 9.19998 10C7.39998 10 5.49998 10 3.59998 10Z" fill="#78797D"/>
</g>
<defs>
<clipPath id="clip0">
<rect width="15.3" height="20" fill="white"/>
</clipPath>
</defs>
</svg>
