<svg width="21" height="17" viewBox="0 0 21 17" fill="none" xmlns="http://www.w3.org/2000/svg">
<path d="M4.20002 7.55981C4.00002 7.55981 3.90002 7.75982 3.90002 7.95982C3.90002 8.35982 4.00002 8.65982 4.50002 8.85982C4.50002 8.55982 4.50002 8.25982 4.50002 7.95982C4.50002 7.65982 4.40002 7.55981 4.20002 7.55981Z" fill="#78797D"/>
<path d="M5.20002 10.5598C5.20002 10.9598 5.20002 11.3598 5.20002 11.6598C5.20002 11.8598 5.10002 12.1598 5.40002 12.1598C5.70002 12.1598 5.90002 11.9598 6.00002 11.7598C6.10002 11.1598 5.80002 10.8598 5.20002 10.5598Z" fill="#78797D"/>
<path d="M9.2 4.85972L0.699999 3.25973C0.399999 3.15973 0 3.45973 0 3.75973V14.6597C0 14.9597 0.2 15.1597 0.5 15.1597L9 16.7597C9.3 16.8597 9.7 16.5597 9.7 16.2597V5.35972C9.7 5.15972 9.5 4.95972 9.2 4.85972ZM7.2 11.9597C7.1 12.6597 6.6 13.0597 5.7 13.2597C5.2 13.3597 5.2 13.5597 5.2 13.9597C5.2 14.1597 5.3 14.4597 4.9 14.4597C4.5 14.4597 4.6 14.1597 4.6 13.9597C4.6 13.3597 4.2 13.0597 3.7 12.7597C3.1 12.3597 2.7 11.9597 2.5 11.1597C2.4 10.8597 2.4 10.4597 2.8 10.3597C3.2 10.2597 3.5 10.3597 3.6 10.7597C3.8 11.1597 3.8 11.6597 4.3 11.9597C4.7 10.9597 4.5 10.3597 3.6 9.75973C3.1 9.35973 2.7 8.95973 2.6 8.25973C2.4 7.25973 2.8 6.55972 3.8 6.45972C4.1 6.35972 4.4 6.45972 4.4 5.95972C4.4 5.75972 4.6 5.65973 4.7 5.75973C4.9 5.75973 5 5.85972 5 6.05972C5 6.45972 5.3 6.65972 5.6 6.85972C6.2 7.15972 6.5 7.55972 6.7 8.15972C6.8 8.45972 6.9 8.75972 6.5 8.95972C6.1 9.15972 5.8 8.95972 5.6 8.55972C5.5 8.25972 5.4 7.95973 5.1 7.75973C4.8 8.85973 5 9.35973 5.9 9.75973C6.9 10.1597 7.3 11.0597 7.2 11.9597Z" fill="#78797D"/>
<path d="M16.1 10.4597C15.8 10.4597 15.9 10.7597 15.9 10.9597C15.9 11.2597 15.9 11.6597 15.9 12.0597C16.6 11.7597 16.9 11.3597 16.7 10.9597C16.6 10.5597 16.4 10.4597 16.1 10.4597Z" fill="#78797D"/>
<path d="M19.4 3.3597L10.9 4.95971C10.6 4.95971 10.4 5.25971 10.4 5.45971V16.3597C10.4 16.6597 10.7 16.9597 11.1 16.8597L19.6 15.2597C19.9 15.2597 20.1 14.9597 20.1 14.7597V3.8597C20.1 3.5597 19.8 3.2597 19.4 3.3597ZM17.8 11.2597C17.6 12.0597 17.2 12.6597 16.4 12.9597C15.9 13.1597 15.7 13.4597 15.8 13.9597C15.8 14.1597 15.9 14.4597 15.5 14.5597C15.1 14.5597 15.1 14.2597 15.2 13.9597C15.3 13.5597 15 13.4597 14.7 13.3597C14 13.2597 13.4 12.8597 13.2 12.1597C13.1 11.7597 13.3 11.4597 13.7 11.2597C14.1 11.0597 14.3 11.2597 14.5 11.5597C14.6 11.8597 14.7 12.2597 15.1 12.1597C15.5 12.0597 15.3 11.6597 15.3 11.3597C15.4 10.7597 15.2 10.3597 14.5 10.2597C13.7 10.1597 13.3 9.45971 13.4 8.65971C13.5 7.85971 14 7.1597 14.8 6.8597C15.1 6.7597 15.4 6.55971 15.3 6.15971C15.3 5.95971 15.4 5.75971 15.6 5.75971C15.8 5.75971 15.9 5.8597 15.9 6.0597C15.9 6.4597 16.1 6.45971 16.4 6.45971C17 6.55971 17.4 6.7597 17.6 7.3597C17.7 7.7597 17.7 8.1597 17.2 8.3597C16.8 8.5597 16.6 8.35971 16.4 7.95971C16.3 7.75971 16.2 7.5597 16 7.5597C15.7 7.6597 15.9 7.8597 15.9 8.0597C15.8 8.7597 16 9.05971 16.7 9.25971C17.7 9.45971 18.1 10.2597 17.8 11.2597Z" fill="#78797D"/>
<path d="M15 7.85974C14.7 7.85974 14.6 8.15974 14.6 8.35974C14.6 8.55974 14.7 8.75975 15 8.75975C15.4 8.75975 15.3 8.45975 15.3 8.25975C15.2 8.15975 15.3 7.85974 15 7.85974Z" fill="#78797D"/>
<path d="M19.2 2.85976C19.4 2.85976 19.5 2.45977 19.2 2.45977L10.6 0.459766C10.4 0.359766 10.1 0.359766 9.9 0.459766L0.9 2.15976C0.7 2.15976 0.7 2.55976 0.9 2.55976L9.2 4.15976C9.9 4.25976 10.6 4.25976 11.2 4.15976L19.2 2.85976Z" fill="#78797D"/>
</svg>
