<svg width="195" height="132" viewBox="0 0 195 132" fill="none" xmlns="http://www.w3.org/2000/svg">
<path d="M90.0609 23.064L89.7823 22.7324C89.8586 22.6681 97.583 16.2395 108.751 12.9793C119.067 9.96591 134.515 9.11252 149.516 22.1575L149.231 22.4839C134.383 9.57349 119.097 10.4123 108.887 13.3906C97.8084 16.6251 90.1372 22.9997 90.0609 23.064Z" fill="#0498C1"/>
<path d="M60.5195 40.2277C69.3759 40.2277 76.5554 33.0515 76.5554 24.1993C76.5554 15.3471 69.3759 8.17091 60.5195 8.17091C51.663 8.17091 44.4835 15.3471 44.4835 24.1993C44.4835 33.0515 51.663 40.2277 60.5195 40.2277Z" fill="#F6F5F5"/>
<path d="M91.9483 14.599C94.5437 12.0048 94.5437 7.7988 91.9483 5.2046C89.3528 2.6104 85.1448 2.61039 82.5494 5.20459C79.9539 7.79879 79.9539 12.0048 82.5494 14.599C85.1448 17.1932 89.3528 17.1932 91.9483 14.599Z" fill="#EB5D60"/>
<path d="M193.66 60.9541C196.256 58.3599 196.256 54.1539 193.66 51.5597C191.065 48.9655 186.857 48.9655 184.261 51.5597C181.666 54.1539 181.666 58.3599 184.261 60.9541C186.857 63.5483 191.065 63.5483 193.66 60.9541Z" fill="#0498C1"/>
<path d="M208.223 132.173L207.84 131.97C215.636 117.282 216.461 101.493 210.105 88.653C203.419 75.1522 189.781 66.07 171.697 63.0771L171.768 62.6487C189.993 65.6647 203.742 74.8317 210.493 88.4593C216.913 101.428 216.085 117.36 208.223 132.173Z" fill="#0498C1"/>
<path d="M-5.08687 132.796C-14.4777 122.686 -20.6737 110.519 -23.0027 97.5921C-25.1741 85.559 -23.7742 73.6185 -19.0518 63.9716C-11.7638 49.0691 2.34607 41.3869 19.6525 42.9L19.6147 43.3284C2.49351 41.8367 -11.4577 49.4289 -18.6652 64.1627C-23.3439 73.7273 -24.7343 85.5718 -22.5793 97.515C-20.2648 110.356 -14.1031 122.454 -4.76885 132.501L-5.08687 132.796Z" fill="#0498C1"/>
<path d="M56.3303 100.952H0.562256V132.33H56.3303V100.952Z" fill="#FF9064"/>
<path opacity="0.5" d="M20.544 100.952H0.562256V132.33H20.544V100.952Z" fill="#B25834"/>
<path opacity="0.3" d="M31.1196 100.952V108.596H36.3212V100.952H31.1196Z" fill="white"/>
<path d="M137.436 66.7683H45.3151V132.33H137.436V66.7683Z" fill="#102048"/>
<path d="M146.406 43.589H129.364V28.0404C129.357 26.534 129.949 25.0866 131.01 24.0166C132.071 22.9466 133.513 22.3417 135.02 22.3349C136.527 22.3281 137.976 22.9199 139.046 23.9803C140.117 25.0406 140.722 26.4826 140.729 27.989V28.0404V37.91C140.729 37.9571 140.729 38.0094 140.729 38.0574V38.3556L140.746 38.347C140.855 39.7729 141.498 41.1051 142.548 42.0771C143.597 43.049 144.975 43.589 146.406 43.589Z" fill="#86A7FF"/>
<path d="M152.084 34.4785V37.9143C152.084 39.382 151.515 40.7925 150.496 41.8496C149.477 42.9068 148.089 43.5283 146.621 43.5838C145.154 43.6392 143.722 43.1242 142.627 42.147C141.531 41.1697 140.857 39.8062 140.746 38.3427L152.084 34.4785Z" fill="#D3DFFF"/>
<path d="M135.046 22.3657C134.924 22.3657 134.808 22.37 134.69 22.3786C134.612 22.3828 134.539 22.3871 134.465 22.3957C134.391 22.4043 134.305 22.4128 134.222 22.4257C134.175 22.4308 134.127 22.4394 134.079 22.448C134.031 22.4565 133.958 22.4694 133.902 22.4822C133.816 22.4994 133.73 22.5174 133.645 22.5388C133.523 22.5688 133.402 22.6039 133.28 22.6467C133.219 22.6647 133.159 22.6862 133.103 22.7076C133.047 22.729 132.985 22.7513 132.931 22.7727C132.85 22.8028 132.771 22.8375 132.693 22.8764C132.622 22.9063 132.553 22.9397 132.486 22.9766C132.465 22.9856 132.445 22.9956 132.425 23.0066C132.364 23.0366 132.303 23.0717 132.243 23.106C132.004 23.2392 131.777 23.3914 131.562 23.561C131.502 23.6089 131.436 23.6612 131.38 23.7083C131.323 23.7555 131.25 23.8214 131.185 23.8797C131.12 23.938 131.059 24.0014 130.998 24.0622C130.828 24.2353 130.669 24.419 130.522 24.6123C130.457 24.6979 130.397 24.7836 130.336 24.8693C130.145 25.16 129.978 25.4658 129.837 25.7835C129.803 25.8615 129.772 25.9438 129.737 26.026C129.645 26.2753 129.569 26.5299 129.508 26.7886C129.491 26.8794 129.473 26.9659 129.455 27.0533C129.425 27.2307 129.4 27.4123 129.386 27.5948V107.265H53.4184V31.2166C53.4191 28.8688 54.3527 26.6174 56.014 24.9576C57.6752 23.2978 59.928 22.3655 62.2769 22.3657H135.046Z" fill="#D3DFFF"/>
<path d="M120.045 30.4798H62.3984V33.512H120.045V30.4798Z" fill="#ADC3FF"/>
<path d="M115.578 39.3606H62.3984V42.3928H115.578V39.3606Z" fill="#ADC3FF"/>
<path d="M112.775 48.2423H62.3984V51.2745H112.775V48.2423Z" fill="#ADC3FF"/>
<path d="M120.045 57.1232H62.3984V60.1554H120.045V57.1232Z" fill="#ADC3FF"/>
<path d="M115.928 66.1128H84.6752V69.1451H115.928V66.1128Z" fill="#ADC3FF"/>
<path d="M90.9652 83.1411C90.6223 83.1411 90.3026 83.0237 90.0849 82.723C89.8174 82.3537 89.8363 81.8465 89.8483 81.5115L90.1432 73.6751L90.5761 73.6913L90.2812 81.5277C90.2683 81.8927 90.2692 82.2397 90.4355 82.4702C90.8041 82.9783 91.6904 82.5388 91.8645 82.4445C92.7371 81.9767 93.3637 81.0968 93.9698 80.2451C94.6436 79.3026 95.3413 78.3198 96.394 77.8597C97.0189 77.5864 97.4792 77.9874 97.8513 78.307C98.0613 78.4895 98.2593 78.6608 98.4693 78.7225C99.0197 78.8853 99.5683 78.7431 100.149 78.5914C100.664 78.4569 101.194 78.3173 101.74 78.4012C102.239 78.4775 102.642 78.6763 103.032 78.8691C103.608 79.1535 104.107 79.3994 104.826 79.2246C105.819 78.9856 106.741 78.4209 107.633 77.8743C107.89 77.7166 108.147 77.5581 108.41 77.4073C109.413 76.8247 110.919 76.0904 112.417 76.434L112.321 76.8564C110.969 76.5479 109.566 77.236 108.627 77.7818C108.37 77.9308 108.113 78.0876 107.856 78.2436C106.936 78.8082 105.984 79.3909 104.925 79.6462C104.052 79.8561 103.433 79.5528 102.837 79.2572C102.477 79.0798 102.105 78.8956 101.671 78.8288C101.213 78.7594 100.749 78.881 100.256 79.0096C99.6429 79.1689 99.0119 79.3343 98.3425 79.1372C98.0433 79.0516 97.799 78.8382 97.5641 78.6343C97.1775 78.2984 96.9229 78.1013 96.5663 78.2556C95.6234 78.6677 94.9907 79.5554 94.3221 80.4953C93.6869 81.3872 93.0303 82.31 92.0685 82.8258C91.731 83.0171 91.3528 83.1252 90.9652 83.1411Z" fill="#102048"/>
<path opacity="0.3" d="M129.385 69.5135V107.26H53.4184V66.2251L77.1496 85.9592C78.4578 87.0507 80.1748 87.4663 81.8644 87.2281C82.3594 87.1582 82.8595 87.1296 83.3593 87.1424L99.5351 87.5974C100.092 87.615 100.646 87.683 101.191 87.8005C102.868 88.1646 104.62 87.8313 106.006 86.8091L129.385 69.5135Z" fill="#86A7FF"/>
<path d="M79.9526 93.9472L79.3199 94.649L50.7308 126.336L45.3167 132.332V66.7666L79.9526 93.9472Z" fill="#7D69ED"/>
<path d="M137.436 66.7683L102.799 93.9472L137.436 132.33V66.7683Z" fill="#7D69ED"/>
<path d="M79.3199 94.6489L50.7308 126.336L45.3167 127.527V115.874C59.6073 105.637 75.6399 93.7681 79.3019 93.5111L79.3199 94.6489Z" fill="#5B4DAD"/>
<path d="M103.433 94.6489L132.022 126.336L137.436 127.527V115.874C123.146 105.637 107.113 93.7681 103.45 93.5111L103.433 94.6489Z" fill="#5B4DAD"/>
<path d="M137.436 132.33H45.3151L45.3323 123.704L77.0751 94.9214C78.7416 93.4103 80.9113 92.5737 83.1613 92.5746H99.3439C101.559 92.5744 103.697 93.3862 105.354 94.8563L137.53 123.407L137.436 132.33Z" fill="#7D69ED"/>
<path opacity="0.4" d="M142.5 127.698C148.678 121.522 148.678 111.51 142.5 105.335C136.322 99.1602 126.305 99.1602 120.127 105.335C113.949 111.511 113.949 121.522 120.127 127.698C126.305 133.873 136.322 133.873 142.5 127.698Z" fill="#5B4DAD"/>
<path d="M147.268 127.698C153.446 121.523 153.446 111.511 147.268 105.335C141.09 99.1603 131.073 99.1603 124.895 105.335C118.717 111.511 118.717 121.523 124.895 127.698C131.073 133.873 141.09 133.873 147.268 127.698Z" fill="#09BD3C"/>
<path d="M135.743 125.085C135.369 125.086 134.998 125.007 134.656 124.855C134.314 124.703 134.008 124.481 133.758 124.203L128.161 118.025C127.935 117.769 127.82 117.434 127.839 117.093C127.858 116.752 128.011 116.432 128.264 116.203C128.518 115.974 128.851 115.854 129.193 115.868C129.534 115.883 129.856 116.031 130.089 116.281L135.686 122.458C135.694 122.469 135.706 122.477 135.719 122.482C135.733 122.486 135.747 122.487 135.761 122.484C135.775 122.483 135.788 122.477 135.799 122.469C135.81 122.46 135.819 122.448 135.824 122.435L141.848 108.726C141.99 108.416 142.248 108.173 142.567 108.051C142.887 107.93 143.241 107.938 143.554 108.075C143.867 108.213 144.113 108.467 144.239 108.785C144.366 109.102 144.362 109.456 144.229 109.771L138.205 123.48C137.994 123.957 137.649 124.362 137.212 124.647C136.775 124.932 136.265 125.084 135.743 125.085V125.085Z" fill="white"/>
<path d="M26.2797 92.2148L26.7854 100.951H40.2215L34.1532 95.9694L33.7923 92.2148L31.4084 89.904L26.2797 92.2148Z" fill="#102048"/>
<path d="M10.1699 88.3154L8.00281 96.1133L19.0558 100.951L15.8044 93.5865L16.599 90.2647L13.8542 86.6549L10.1699 88.3154Z" fill="#102048"/>
<path d="M14.4318 49.6123C14.4318 49.6123 13.1314 55.0274 13.5651 66.9413C13.5651 66.9413 9.73679 80.299 10.1697 88.3137L16.5988 90.2629C19.9677 82.7821 22.7374 75.5849 24.2101 69.0037C24.9443 66.6786 24.9314 64.1821 24.1732 61.8647L21.0778 52.4295L14.4318 49.6123Z" fill="#1F3C88"/>
<path d="M34.8106 67.1915L33.7923 92.2147H26.2804C24.3217 84.0656 23.5931 77.1083 23.3376 72.4464C23.125 68.517 23.2467 66.2208 23.2467 66.2208C18.418 60.5238 15.5489 56.4086 13.8799 53.3626C11.4008 48.8412 11.5526 46.6692 11.8295 45.1355C12.2023 43.0954 13.5285 40.453 14.4251 38.8285C14.9283 37.9271 15.2969 37.3376 15.2969 37.3376L27.8672 41.3869L26.367 46.8063L26.3413 46.8971C26.2302 47.3012 26.2003 47.7232 26.2531 48.1389C26.3059 48.5546 26.4405 48.9558 26.649 49.3193L33.2419 60.7954C34.3566 62.7374 34.9003 64.9544 34.8106 67.1915Z" fill="#3A6BEA"/>
<path d="M30.9026 92.3767H30.8923C30.8495 92.3739 30.8096 92.3543 30.7812 92.3222C30.7528 92.2901 30.7382 92.2481 30.7406 92.2054C30.756 91.9543 32.3058 67.0733 30.4662 63.1131C30.1431 62.4174 29.5953 61.5297 28.9601 60.5016C26.3027 56.2004 21.8615 49.0006 22.7941 38.6254C22.7952 38.6034 22.8007 38.5819 22.8104 38.5621C22.8202 38.5424 22.8339 38.5248 22.8507 38.5106C22.8675 38.4964 22.887 38.4858 22.9081 38.4794C22.9292 38.4731 22.9514 38.4712 22.9733 38.4738C23.0162 38.4777 23.0559 38.4985 23.0835 38.5316C23.1112 38.5646 23.1245 38.6073 23.1207 38.6503C22.1975 48.9183 26.6062 56.0599 29.2396 60.3276C29.8799 61.3644 30.432 62.2597 30.7637 62.9726C32.6376 67.0073 31.1323 91.1943 31.0672 92.2225C31.0652 92.2645 31.0469 92.3042 31.0161 92.3329C30.9854 92.3617 30.9447 92.3774 30.9026 92.3767Z" fill="#1F3C88"/>
<path opacity="0.6" d="M27.8673 41.3869L26.3671 46.8063C20.5852 44.4278 16.4234 40.8086 14.4261 38.8311C14.9293 37.9297 15.2979 37.3402 15.2979 37.3402L27.8673 41.3869Z" fill="#1F3C88"/>
<path d="M29.9914 96.3188L29.8636 94.1485L34.0057 94.074C34.0274 94.0723 34.0491 94.0752 34.0696 94.0825C34.09 94.0898 34.1087 94.1014 34.1243 94.1165C34.14 94.1315 34.1522 94.1497 34.1603 94.1699C34.1684 94.19 34.1721 94.2117 34.1712 94.2334C34.1716 94.2547 34.1679 94.2759 34.1601 94.2958C34.1523 94.3157 34.1407 94.3338 34.1258 94.3492C34.111 94.3645 34.0933 94.3768 34.0737 94.3853C34.0541 94.3938 34.0331 94.3984 34.0117 94.3987L30.2083 94.4681L30.294 95.9795L34.1437 95.8082C34.1871 95.8065 34.2293 95.822 34.2613 95.8511C34.2934 95.8803 34.3127 95.9209 34.3152 95.9641C34.3173 96.0074 34.3021 96.0497 34.273 96.0819C34.244 96.114 34.2033 96.1333 34.16 96.1355L29.9914 96.3188Z" fill="white"/>
<path d="M15.8043 93.7493C15.7878 93.7493 15.7713 93.7467 15.7555 93.7416L12.1895 92.6038L13.0792 90.5294L16.221 91.6647C16.2614 91.6794 16.2944 91.7095 16.3127 91.7485C16.3309 91.7874 16.3329 91.832 16.3182 91.8725C16.3036 91.9129 16.2734 91.9459 16.2345 91.9641C16.1955 91.9824 16.1508 91.9844 16.1104 91.9697L13.2567 90.9415L12.6292 92.4058L15.8541 93.434C15.8911 93.4458 15.9227 93.4705 15.9431 93.5036C15.9635 93.5366 15.9714 93.5759 15.9654 93.6143C15.9594 93.6526 15.9399 93.6876 15.9104 93.7129C15.8808 93.7381 15.8432 93.752 15.8043 93.7519V93.7493Z" fill="white"/>
<path d="M32.31 17.4091L32.0752 18.2847L31.1391 21.8242L30.5064 24.1984L24.8719 22.1747L27.5893 16.6165L28.9163 14.7015L32.31 17.4091Z" fill="#F9B384"/>
<path d="M32.0761 18.2847L31.1392 21.8242C29.4796 20.0249 29.8173 17.7732 29.8173 17.7732L32.0761 18.2847Z" fill="#102048"/>
<path d="M36.537 12.4267C36.537 12.4267 36.1761 20.4413 32.1309 19.7558C28.0857 19.0704 28.1577 12.1739 28.1577 12.1739L33.4313 10.4791L36.537 12.4267Z" fill="#F9B384"/>
<path d="M30.9206 13.6382C30.9206 13.6382 33.2411 11.246 36.5371 12.4267C36.5371 12.4267 37.9944 13.041 38.5601 11.8492C38.5601 11.8492 33.9003 5.68013 30.2451 8.65412C30.2451 8.65412 23.6891 10.0893 27.5877 16.6148L30.9206 13.6382Z" fill="#102048"/>
<path d="M31.2168 15.2269C31.8957 15.1187 32.3454 14.4007 32.2214 13.6231C32.0973 12.8455 31.4464 12.3028 30.7676 12.411C30.0888 12.5192 29.639 13.2373 29.7631 14.0149C29.8871 14.7925 30.538 15.3351 31.2168 15.2269Z" fill="#F9B384"/>
<path d="M36.6697 16.5861C36.7334 16.1923 36.4657 15.8214 36.0718 15.7577C35.6778 15.694 35.3067 15.9616 35.243 16.3554C35.1792 16.7492 35.4469 17.12 35.8409 17.1837C36.2349 17.2475 36.606 16.9799 36.6697 16.5861Z" fill="#F9B384"/>
<path opacity="0.4" d="M33.1596 16.978C33.848 16.978 34.406 16.4203 34.406 15.7322C34.406 15.0442 33.848 14.4864 33.1596 14.4864C32.4712 14.4864 31.9132 15.0442 31.9132 15.7322C31.9132 16.4203 32.4712 16.978 33.1596 16.978Z" fill="#EB5D60"/>
<path d="M62.0584 3.64351C52.0077 3.64351 43.8175 11.8232 43.8175 21.8611C43.8175 31.899 52.0077 40.0787 62.0584 40.0787C72.1091 40.0787 80.2993 31.899 80.2993 21.8611C80.2993 11.8232 72.1091 3.64351 62.0584 3.64351ZM69.3547 23.2274H63.4265V29.1481C63.4265 29.895 62.8063 30.5144 62.0584 30.5144C61.3105 30.5144 60.6903 29.895 60.6903 29.1481V23.2274H54.762C54.0142 23.2274 53.394 22.608 53.394 21.8611C53.394 21.1142 54.0142 20.4948 54.762 20.4948H60.6903V14.5741C60.6903 13.8271 61.3105 13.2077 62.0584 13.2077C62.8063 13.2077 63.4265 13.8271 63.4265 14.5741V20.4948H69.3547C70.1026 20.4948 70.7228 21.1142 70.7228 21.8611C70.7228 22.608 70.1026 23.2274 69.3547 23.2274Z" fill="#FD830E"/>
<path d="M56.5472 28.695C56.5472 28.695 57.293 29.7171 55.7757 30.7393C55.7757 30.7393 56.9852 31.567 52.8157 32.9319C52.352 33.0835 51.8231 33.2395 51.2161 33.404L49.5386 27.3301C49.5386 27.3301 56.9809 24.8179 57.1678 25.6233C57.3547 26.4287 55.8374 27.5168 55.8374 27.5168C55.8374 27.5168 58.5016 26.8622 56.5472 28.695Z" fill="#F9B384"/>
<path d="M49.5395 27.3292L40.7273 28.4585C40.7273 28.4585 28.0491 19.4328 25.4491 20.2991C22.8492 21.1653 14.0713 35.2453 14.0713 35.2453C14.0713 35.2453 11.6874 36.0036 11.7954 36.9787C11.9034 37.9537 27.2904 45.9281 29.3495 43.9103C30.6439 42.6388 32.1312 32.5018 32.1312 32.5018L37.7382 34.8323C39.4004 35.5238 41.2369 35.6801 42.9921 35.2796L51.2137 33.4057L49.5395 27.3292Z" fill="#FBC343"/>
<g opacity="0.8">
<path opacity="0.8" d="M48.9812 32.7554C48.6786 31.573 48.3811 30.4189 48.1145 29.3093C48.0399 29 47.9714 28.6847 47.9028 28.3668C47.8445 28.0987 47.7836 27.8296 47.7211 27.5614L47.397 27.6026C47.4622 27.8802 47.5248 28.1578 47.5848 28.4354C47.6542 28.755 47.7236 29.0728 47.7991 29.3847C48.0682 30.4986 48.3631 31.651 48.6666 32.8351C48.7592 33.1958 48.8517 33.5591 48.9443 33.9224L49.2615 33.8496C49.1661 33.4846 49.0726 33.1199 48.9812 32.7554Z" fill="white"/>
<path opacity="0.8" d="M33.8959 23.9517C33.7622 23.9808 33.6285 24.0108 33.4939 24.0374C31.0525 24.5463 28.4363 24.9576 25.8852 24.5257C24.6458 24.3226 23.4567 23.8846 22.3818 23.2354L22.176 23.4924C23.2953 24.1766 24.5366 24.6378 25.8312 24.8505C28.4389 25.2909 31.0877 24.8745 33.5608 24.3595C33.8059 24.309 34.0511 24.2541 34.2962 24.2019L33.8959 23.9517Z" fill="white"/>
<path opacity="0.8" d="M30.5167 39.5576C29.783 39.6184 29.0243 39.681 28.288 39.6125C26.1235 39.4111 24.2033 38.065 22.9475 37.0694C22.5017 36.7173 22.0654 36.3506 21.63 35.9847C20.5233 35.0525 19.3729 34.0886 18.0871 33.3706C17.3819 32.9757 16.6272 32.6766 15.8429 32.4812C15.7786 32.5789 15.7186 32.6714 15.6577 32.7657C16.4526 32.9539 17.217 33.253 17.9285 33.6542C19.1929 34.3576 20.3287 35.3113 21.4251 36.2332C21.8631 36.6016 22.302 36.97 22.7495 37.3248C24.0353 38.3452 26.0069 39.7238 28.2623 39.9363C29.0277 40.0066 29.8052 39.9432 30.5485 39.8815C30.623 39.8755 30.6968 39.8721 30.7705 39.8661C30.7962 39.7564 30.821 39.6459 30.8459 39.5353C30.7362 39.5439 30.6282 39.5482 30.5167 39.5576Z" fill="white"/>
</g>
<path d="M32.1309 32.5018L29.8481 31.501C29.8481 31.501 30.4311 35.1253 31.5317 35.6437L32.1309 32.5018Z" fill="#E49B31"/>
<path d="M52.8114 32.9319C52.3477 33.0835 51.8188 33.2395 51.2119 33.404L49.5386 27.33L52.8114 32.9319Z" fill="#E28B6D"/>
<path d="M153.094 69.5761L158.403 71.9589L162.357 58.943L157.178 57.5807C155.808 60.6412 154.411 64.5586 153.094 69.5761Z" fill="#E28B6D"/>
<path d="M157.178 57.5807L162.357 58.9431L166.779 46.7977C166.779 46.7977 161.437 46.0763 157.178 57.5807Z" fill="#102048"/>
<path d="M150.891 65.0658L147.062 75.6072L161.365 81.0951L164.255 70.1202L150.891 65.0658Z" fill="#102048"/>
<path d="M155.596 79.1132C155.493 79.4114 154.636 79.7687 154.087 79.2846C153.016 79.0952 152.293 78.9599 151.626 78.2221C151.026 77.9917 150.756 77.3388 151.031 76.7896C151.556 75.7365 152.371 74.2517 152.757 74.3108C153.243 74.3845 152.891 75.8839 152.891 75.8839C152.891 75.8839 153.701 73.9818 154.47 74.2328C154.813 74.3459 153.988 76.1564 153.905 76.3474C154.034 76.1761 155.062 74.7915 155.456 75.0819C155.849 75.3724 154.891 77.0098 154.789 77.1828C154.9 77.0449 155.803 75.9576 156.242 76.3166C156.433 76.4725 156.134 77.577 155.596 79.1132Z" fill="#E28B6D"/>
<path d="M182.459 115.392C182.459 115.392 189.394 114.634 192.317 108.244L184.623 108.678L182.459 115.392Z" fill="#102048"/>
<path d="M190.117 108.316L183.471 112.432L186.46 116.822L192.869 112.457L190.117 108.316Z" fill="#E28B6D"/>
<path d="M196.979 118.641L192.869 112.457L186.46 116.822L187.552 118.425L186.902 126.981L196.979 118.641Z" fill="#102048"/>
<path d="M190.792 118.051L187.538 118.216L187.56 118.648L190.814 118.483L190.792 118.051Z" fill="white"/>
<path d="M171.19 120.013L163.894 119.58V125.485L171.743 124.986L171.19 120.013Z" fill="#E28B6D"/>
<path d="M163.894 125.485V126.873L158.403 132.36H172.562L171.743 124.986L163.894 125.485Z" fill="#102048"/>
<path d="M163.832 126.785L163.615 127.16L166.724 128.965L166.942 128.59L163.832 126.785Z" fill="white"/>
<path d="M170.821 82.3151C170.709 85.0012 170.688 87.8347 170.736 90.6896C170.779 93.1675 170.87 95.6591 171.001 98.1019C171.625 110.22 173.067 120.951 173.067 120.951L161.798 122.398C156.454 85.14 159.922 69.3961 159.922 69.3961L164.833 68.3954L169.193 67.5077L174.079 66.5112C174.018 66.6021 173.957 66.6972 173.901 66.7974C173.156 68.0149 172.566 69.6352 172.111 71.5587C171.398 74.5516 171 78.2693 170.821 82.3151Z" fill="#3A6BEA"/>
<path d="M171 98.102C166.274 88.0644 168.047 80.084 168.047 80.084L170.821 82.3118C170.709 84.9979 170.687 87.8313 170.735 90.6862C170.778 93.1676 170.869 95.6626 171 98.102Z" fill="#1F3C88"/>
<path d="M192.319 108.244C186.902 110.3 182.461 115.392 182.461 115.392C177.785 107.13 173.793 98.8345 170.737 90.6896C168.193 83.9139 166.299 77.242 165.202 70.7867C165.068 69.9856 164.945 69.1888 164.834 68.3954C164.821 68.3217 164.808 68.2437 164.799 68.1709L169.194 67.5077L173.909 66.7974L176.289 66.4375C176.546 67.9541 176.889 69.5392 177.298 71.1732C181.392 87.4834 192.319 108.244 192.319 108.244Z" fill="#3A6BEA"/>
<g opacity="0.8">
<path opacity="0.8" d="M182.785 87.4723L182.58 86.9582C181.692 86.391 180.842 85.7664 180.111 85.0166C178.067 82.9217 177.034 79.8192 177.414 76.918C177.535 76.021 177.782 75.1457 178.15 74.3185C178.103 74.16 178.059 74.0023 178.013 73.8455C177.546 74.7998 177.235 75.8231 177.092 76.8761C176.699 79.8749 177.767 83.0794 179.878 85.2428C180.737 86.1236 181.744 86.8314 182.785 87.4723Z" fill="white"/>
<path opacity="0.8" d="M188.456 100.411C188.411 100.315 188.365 100.219 188.32 100.121C187.124 100.61 185.691 100.694 184.205 100.778C182.704 100.863 181.152 100.949 179.792 101.481C178.409 102.02 177.337 102.981 176.558 104.16L176.729 104.503C177.481 103.304 178.534 102.32 179.913 101.783C181.226 101.269 182.752 101.183 184.226 101.097C185.701 101.012 187.187 100.935 188.456 100.411Z" fill="white"/>
<path opacity="0.8" d="M162.493 99.1763C166.098 101.006 169.018 104.072 171.6 106.949C171.585 106.772 171.57 106.593 171.556 106.414C169.025 103.61 166.163 100.673 162.641 98.8876C161.55 98.3315 160.396 97.9092 159.203 97.6298L159.224 97.9725C160.357 98.2445 161.454 98.6485 162.493 99.1763Z" fill="white"/>
<path opacity="0.8" d="M172.463 115.889C171.56 116.104 170.577 116.05 169.76 115.859C168.912 115.661 168.081 115.332 167.274 115.015C166.417 114.678 165.532 114.33 164.617 114.128C163.328 113.855 161.995 113.876 160.716 114.19C160.729 114.297 160.743 114.407 160.756 114.515C161.998 114.205 163.294 114.18 164.547 114.445C165.441 114.64 166.314 114.985 167.157 115.318C167.973 115.639 168.815 115.972 169.685 116.175C170.609 116.395 171.569 116.408 172.498 116.212C172.487 116.108 172.472 115.997 172.463 115.889Z" fill="white"/>
<path opacity="0.8" d="M161.516 85.3894C161.635 87.6574 160.604 89.8902 158.911 91.3656C158.911 91.5027 158.921 91.6441 158.926 91.7829C160.812 90.2475 161.969 87.8279 161.84 85.3722C161.726 83.1882 160.601 81.1422 158.926 79.779C158.921 79.9144 158.915 80.0506 158.911 80.1885C160.411 81.4909 161.414 83.3784 161.516 85.3894Z" fill="white"/>
</g>
<path opacity="0.4" d="M177.292 71.1732C175.582 71.4683 173.848 71.5974 172.113 71.5588C169.79 71.5059 167.477 71.2479 165.2 70.7876C162.053 70.1681 159.921 69.397 159.921 69.397L164.832 68.3963C164.818 68.3226 164.805 68.2446 164.797 68.1718L169.192 67.5086L174.078 66.5121C174.017 66.603 173.956 66.6981 173.9 66.7983L176.279 66.4384C176.538 67.9541 176.881 69.5392 177.292 71.1732Z" fill="#1F3C88"/>
<path d="M170.735 90.9106C170.69 90.9106 170.646 90.8967 170.61 90.8709C170.573 90.8452 170.546 90.8088 170.531 90.7667L167.4 81.9672L163.637 79.6958C163.591 79.6645 163.559 79.6169 163.547 79.5627C163.536 79.5085 163.545 79.4519 163.574 79.4045C163.603 79.3571 163.648 79.3225 163.702 79.3078C163.755 79.2932 163.813 79.2995 163.861 79.3257L167.757 81.6716L170.939 90.6167C170.949 90.6435 170.953 90.6719 170.952 90.7003C170.951 90.7288 170.944 90.7566 170.931 90.7824C170.919 90.8081 170.902 90.8311 170.881 90.8502C170.86 90.8693 170.835 90.884 170.808 90.8935C170.785 90.9039 170.76 90.9097 170.735 90.9106Z" fill="#1F3C88"/>
<path d="M178.125 68.1195C170.865 70.8793 158.403 69.3285 158.403 69.3285C158.911 64.0556 158.945 48.4599 167.072 46.5098L170.704 46.8911C172.607 47.6365 174.094 50.4786 175.212 53.8536C175.884 55.8637 176.421 58.0639 176.846 60.1263C177.739 64.4352 178.125 68.1195 178.125 68.1195Z" fill="#1F3C88"/>
<path d="M176.844 60.1254C173.425 58.1368 172.705 53.6573 172.705 53.6573L175.21 53.8527C175.884 55.8671 176.421 58.0631 176.844 60.1254Z" fill="#102048"/>
<path d="M170.702 46.8886L170.214 53.8741L177.672 57.8557L179.182 50.6183C172.626 46.7455 170.702 46.8886 170.702 46.8886Z" fill="#1F3C88"/>
<path d="M184.912 56.4908C184.737 56.7593 184.536 57.0104 184.312 57.2406C183.902 57.6654 183.419 58.0136 182.887 58.2687C182.167 58.6172 181.375 58.7907 180.576 58.7749C179.777 58.7591 178.993 58.5545 178.288 58.1779L177.676 57.8532L179.189 50.614C179.592 50.8564 180.012 51.1075 180.459 51.3808C180.459 51.3808 186.363 43.0406 186.796 43.2051C187.186 43.3482 186.523 44.6394 186.388 44.8947C186.646 44.5177 188.56 41.7108 189.071 41.9062C189.479 42.057 188.963 43.3054 188.9 43.457C189.017 43.2857 190.044 41.7759 190.664 42.1401C190.95 42.3115 189.845 43.9463 189.737 44.1108C189.87 43.9805 191.097 42.7938 191.401 43.1494C191.704 43.505 190.521 44.9256 190.386 45.0858C190.508 44.977 191.557 44.0636 191.891 44.5049C192.324 45.0755 186.959 53.3712 184.912 56.4908Z" fill="#E28B6D"/>
<path opacity="0.4" d="M184.31 57.238C183.899 57.6628 183.417 58.011 182.884 58.2661C182.101 58.6462 181.234 58.8177 180.366 58.7639C180.327 58.6066 180.308 58.4452 180.309 58.2833C180.31 57.8112 180.467 57.3527 180.756 56.9793C181.045 56.6059 181.449 56.3386 181.906 56.2193C182.363 56.0999 182.847 56.1351 183.281 56.3194C183.716 56.5037 184.078 56.8267 184.31 57.238Z" fill="#EB5D60"/>
<path d="M166.215 67.8624C163.01 67.8624 160.14 67.6576 158.732 67.5368L158.56 67.5231C158.518 67.5211 158.478 67.5027 158.448 67.4716C158.419 67.4406 158.403 67.3995 158.404 67.3569C158.404 67.3145 158.421 67.2741 158.451 67.2444C158.482 67.2147 158.522 67.1981 158.565 67.1984L158.758 67.2129C161.967 67.488 172.816 68.2051 177.73 65.914C177.769 65.8958 177.813 65.8939 177.854 65.9086C177.894 65.9233 177.927 65.9534 177.945 65.9924C177.963 66.0314 177.965 66.076 177.951 66.1164C177.936 66.1568 177.906 66.1897 177.867 66.2079C175.057 67.5197 170.357 67.8624 166.215 67.8624Z" fill="#86A7FF"/>
<path d="M167.916 51.4348C166.192 51.4348 165.43 50.2961 165.418 50.2798C165.397 50.2436 165.39 50.2004 165.4 50.1594C165.409 50.1184 165.435 50.0828 165.47 50.0599C165.505 50.0371 165.548 50.0288 165.59 50.0369C165.631 50.045 165.668 50.0688 165.692 50.1033C165.748 50.189 167.109 52.1871 170.535 50.3372C170.554 50.3256 170.575 50.318 170.597 50.3149C170.619 50.3117 170.641 50.3131 170.662 50.3188C170.684 50.3246 170.704 50.3347 170.721 50.3484C170.739 50.3621 170.753 50.3793 170.763 50.3988C170.774 50.4183 170.78 50.4397 170.782 50.4617C170.784 50.4838 170.782 50.506 170.775 50.527C170.768 50.5481 170.757 50.5674 170.742 50.584C170.727 50.6006 170.709 50.614 170.689 50.6234C169.577 51.224 168.657 51.4348 167.916 51.4348Z" fill="#86A7FF"/>
<path d="M173.621 33.3081C174.531 32.794 175.76 32.7511 176.567 33.4126C176.988 33.7553 177.258 34.2531 177.649 34.6327C178.486 35.4458 179.792 35.6497 180.591 36.498C181.211 37.1526 181.432 38.1071 181.37 39.0067C181.308 39.9064 180.992 40.7658 180.656 41.6029C180.177 42.7973 179.627 44.0105 178.667 44.8707C178.301 45.1998 177.873 45.4705 177.393 45.5845C176.913 45.6984 176.379 45.6239 175.989 45.3274C175.577 45.0113 175.374 44.4817 175.338 43.9634C175.302 43.445 175.413 42.9301 175.522 42.4211C175.654 42.5021 175.806 42.5443 175.96 42.543C176.115 42.5417 176.266 42.4969 176.396 42.4137C176.526 42.3305 176.63 42.2123 176.696 42.0727C176.762 41.9331 176.788 41.7777 176.769 41.6243C176.708 41.1102 176.198 40.7829 175.741 40.5327L173.469 39.2886C173.027 39.0461 172.573 38.7959 172.24 38.4164C171.683 37.7823 171.236 36.3883 171.605 35.5889C172.014 34.6978 172.766 33.7887 173.621 33.3081Z" fill="#FBB81D"/>
<path d="M164.634 37.5202C164.634 37.5202 164.588 32.387 170.965 33.7391C172.037 33.9645 172.997 34.5543 173.682 35.4081C174.72 36.6934 175.385 42.0913 172.418 43.5847C168.701 45.462 164.634 37.5202 164.634 37.5202Z" fill="#FBC343"/>
<path d="M171.242 41.8522L171.095 47.0076C171.076 47.6389 170.82 48.2401 170.379 48.6919C169.937 49.1436 169.342 49.4128 168.711 49.4461C168.667 49.4504 168.625 49.4504 168.58 49.4504C168.232 49.4498 167.887 49.3768 167.568 49.2362C167.249 49.0956 166.963 48.8903 166.728 48.6334C166.492 48.3765 166.313 48.0735 166.201 47.7437C166.088 47.4138 166.046 47.0643 166.076 46.7171L166.084 46.6315L166.422 42.715L166.851 42.637L171.242 41.8522Z" fill="#E28B6D"/>
<path d="M169.057 43.6935C168.451 44.9989 167.396 46.043 166.084 46.6349L166.422 42.7184L166.851 42.6405L169.057 43.6935Z" fill="#102048"/>
<path d="M164.634 37.5202C164.634 37.5202 163.005 44.289 166.422 44.6137C169.839 44.9384 171.244 41.8522 171.244 41.8522L171.678 38.0068L169.565 34.9746L166.205 36.0028L164.634 37.5202Z" fill="#E28B6D"/>
<path d="M164.634 37.5201C164.634 37.5201 167.775 35.7594 168.914 38.1156C169.709 39.7581 170.919 40.6604 172.111 40.1188C173.302 39.5773 172.327 35.6788 172.327 35.6788L167.885 34.541L165.228 36.0576L164.634 37.5201Z" fill="#FBC343"/>
<path d="M172.264 40.8816C172.674 40.1722 172.53 39.3226 171.944 38.9841C171.357 38.6455 170.549 38.9461 170.139 39.6555C169.73 40.3648 169.873 41.2144 170.46 41.553C171.046 41.8915 171.854 41.5909 172.264 40.8816Z" fill="#E28B6D"/>
<path d="M170.865 40.8592H170.856C170.828 40.857 170.801 40.8436 170.783 40.8219C170.764 40.8002 170.755 40.772 170.757 40.7435C170.784 40.3588 171.027 39.6296 171.749 39.6296C171.765 39.6283 171.78 39.6301 171.794 39.6349C171.808 39.6398 171.821 39.6475 171.833 39.6577C171.844 39.6679 171.853 39.6803 171.859 39.6941C171.865 39.708 171.868 39.7229 171.868 39.738C171.868 39.7531 171.865 39.7681 171.859 39.7819C171.853 39.7957 171.844 39.8081 171.833 39.8183C171.821 39.8285 171.808 39.8363 171.794 39.8411C171.78 39.8459 171.765 39.8477 171.749 39.8464C171.049 39.8464 170.978 40.7203 170.973 40.7572C170.971 40.7847 170.959 40.8105 170.939 40.8294C170.919 40.8484 170.892 40.859 170.865 40.8592Z" fill="#102048"/>
<path d="M165.152 39.9509C165.152 40.0056 165.135 40.0591 165.105 40.1046C165.075 40.1501 165.031 40.1856 164.981 40.2066C164.93 40.2275 164.874 40.233 164.821 40.2223C164.767 40.2116 164.718 40.1853 164.679 40.1466C164.64 40.1079 164.614 40.0586 164.603 40.0049C164.593 39.9512 164.598 39.8955 164.619 39.845C164.64 39.7944 164.675 39.7512 164.721 39.7208C164.766 39.6904 164.82 39.6741 164.875 39.6741C164.948 39.6741 165.019 39.7033 165.071 39.7552C165.123 39.8071 165.152 39.8775 165.152 39.9509Z" fill="#102048"/>
<path d="M166.991 40.2362C167.161 40.2362 167.298 40.0989 167.298 39.9295C167.298 39.7601 167.161 39.6228 166.991 39.6228C166.822 39.6228 166.684 39.7601 166.684 39.9295C166.684 40.0989 166.822 40.2362 166.991 40.2362Z" fill="#102048"/>
<path d="M165.73 41.6371C165.49 41.6371 165.327 41.5617 165.245 41.4126C165.031 41.0219 165.528 40.2894 165.629 40.1463C165.646 40.1237 165.671 40.1087 165.699 40.1044C165.727 40.1001 165.756 40.1068 165.779 40.1232C165.802 40.1396 165.818 40.1643 165.823 40.1921C165.828 40.22 165.822 40.2487 165.807 40.2722C165.543 40.6424 165.33 41.117 165.435 41.3081C165.481 41.3938 165.6 41.4281 165.784 41.4186H165.79C165.818 41.4202 165.843 41.4319 165.862 41.4515C165.881 41.471 165.892 41.497 165.893 41.5243C165.894 41.5515 165.884 41.5781 165.866 41.5987C165.848 41.6193 165.823 41.6324 165.796 41.6354L165.73 41.6371Z" fill="#102048"/>
<path opacity="0.4" d="M168.899 42.0627C169.393 41.8581 169.628 41.2917 169.423 40.7977C169.219 40.3037 168.652 40.0691 168.158 40.2737C167.663 40.4783 167.429 41.0447 167.633 41.5387C167.838 42.0327 168.405 42.2673 168.899 42.0627Z" fill="#EB5D60"/>
<path d="M165.865 42.5737C165.687 42.576 165.512 42.5386 165.351 42.464C165.338 42.4575 165.327 42.4485 165.318 42.4377C165.308 42.4268 165.302 42.4143 165.297 42.4007C165.293 42.3872 165.291 42.373 165.293 42.3588C165.294 42.3447 165.298 42.3309 165.304 42.3183C165.311 42.3057 165.32 42.2945 165.331 42.2854C165.341 42.2762 165.354 42.2693 165.368 42.265C165.381 42.2607 165.395 42.2591 165.409 42.2603C165.424 42.2615 165.437 42.2655 165.45 42.272C165.476 42.284 166.06 42.5711 166.666 42.015C166.676 42.0052 166.688 41.9977 166.702 41.9927C166.715 41.9877 166.729 41.9854 166.744 41.986C166.758 41.9865 166.772 41.9899 166.785 41.9959C166.798 42.002 166.809 42.0105 166.819 42.021C166.829 42.0316 166.836 42.0439 166.841 42.0574C166.846 42.0708 166.848 42.0851 166.847 42.0993C166.846 42.1136 166.843 42.1276 166.837 42.1404C166.831 42.1533 166.822 42.1649 166.811 42.1744C166.559 42.4242 166.22 42.5672 165.865 42.5737Z" fill="#102048"/>
<path d="M165.482 39.34C165.299 39.2872 165.111 39.2539 164.921 39.2406C164.838 39.2356 164.754 39.2446 164.674 39.2672C164.584 39.2923 164.495 39.3259 164.411 39.3674H164.401C164.393 39.3707 164.384 39.3724 164.375 39.3722C164.366 39.3721 164.358 39.3703 164.35 39.3667C164.342 39.3632 164.335 39.3581 164.329 39.3518C164.323 39.3454 164.318 39.3379 164.315 39.3297C164.312 39.3217 164.31 39.3131 164.31 39.3044C164.31 39.2958 164.312 39.2872 164.315 39.2792C164.364 39.1633 164.45 39.0668 164.559 39.0041C164.673 38.943 164.802 38.9134 164.931 38.9185C165.052 38.9252 165.17 38.9571 165.277 39.012C165.385 39.0668 165.479 39.1436 165.555 39.2372C165.561 39.2441 165.565 39.2519 165.567 39.2603C165.569 39.2686 165.57 39.2773 165.569 39.2859C165.567 39.2945 165.565 39.3028 165.56 39.3103C165.556 39.3178 165.55 39.3244 165.543 39.3297C165.536 39.3355 165.527 39.3396 165.518 39.3417C165.509 39.3438 165.499 39.3438 165.49 39.3417L165.482 39.34Z" fill="#102048"/>
<path d="M166.285 39.2449C166.363 39.1122 166.472 39 166.603 38.9175C166.733 38.8349 166.881 38.7845 167.035 38.7703C167.197 38.7583 167.359 38.794 167.5 38.8731C167.633 38.9483 167.744 39.057 167.821 39.1884C167.828 39.2002 167.832 39.214 167.831 39.2279C167.83 39.2419 167.824 39.255 167.815 39.2656C167.806 39.2762 167.794 39.2835 167.78 39.2866C167.766 39.2896 167.752 39.2882 167.739 39.2826H167.732C167.621 39.225 167.507 39.1761 167.389 39.1361C167.284 39.0982 167.172 39.0839 167.061 39.0941C166.839 39.0993 166.613 39.2115 166.382 39.334L166.375 39.3383C166.36 39.3456 166.342 39.3469 166.326 39.3418C166.31 39.3367 166.297 39.3256 166.289 39.3109C166.282 39.3014 166.278 39.2902 166.277 39.2785C166.277 39.2669 166.279 39.2552 166.285 39.2449Z" fill="#102048"/>
</svg>
