<svg width="24" height="24" viewBox="0 0 24 24" fill="none" xmlns="http://www.w3.org/2000/svg">
<path d="M11.9999 8.4C12.9813 8.4 13.9224 8.77928 14.6163 9.45442C15.3103 10.1295 15.7001 11.0452 15.7001 12C15.7001 12.9548 15.3103 13.8705 14.6163 14.5456C13.9224 15.2207 12.9813 15.6 11.9999 15.6C11.0186 15.6 10.0774 15.2207 9.38348 14.5456C8.68956 13.8705 8.29972 12.9548 8.29972 12C8.29972 11.0452 8.68956 10.1295 9.38348 9.45442C10.0774 8.77928 11.0186 8.4 11.9999 8.4ZM11.9999 10.2C11.5092 10.2 11.0387 10.3896 10.6917 10.7272C10.3447 11.0648 10.1498 11.5226 10.1498 12C10.1498 12.4774 10.3447 12.9352 10.6917 13.2728C11.0387 13.6104 11.5092 13.8 11.9999 13.8C12.4906 13.8 12.9612 13.6104 13.3081 13.2728C13.6551 12.9352 13.85 12.4774 13.85 12C13.85 11.5226 13.6551 11.0648 13.3081 10.7272C12.9612 10.3896 12.4906 10.2 11.9999 10.2ZM10.1498 21C9.91856 21 9.7243 20.838 9.68729 20.622L9.34503 18.237C8.76225 18.012 8.26272 17.706 7.7817 17.346L5.47833 18.255C5.27482 18.327 5.02506 18.255 4.91405 18.057L3.06396 14.943C3.00734 14.8503 2.98738 14.7406 3.00781 14.6346C3.02824 14.5286 3.08766 14.4335 3.17496 14.367L5.12681 12.873L5.06206 12L5.12681 11.1L3.17496 9.633C3.08766 9.56652 3.02824 9.47138 3.00781 9.36537C2.98738 9.25935 3.00734 9.14973 3.06396 9.057L4.91405 5.943C5.02506 5.745 5.27482 5.664 5.47833 5.745L7.7817 6.645C8.26272 6.294 8.76225 5.988 9.34503 5.763L9.68729 3.378C9.7243 3.162 9.91856 3 10.1498 3H13.85C14.0813 3 14.2755 3.162 14.3125 3.378L14.6548 5.763C15.2376 5.988 15.7371 6.294 16.2181 6.645L18.5215 5.745C18.725 5.664 18.9748 5.745 19.0858 5.943L20.9359 9.057C21.0561 9.255 21.0006 9.498 20.8249 9.633L18.873 11.1L18.9378 12L18.873 12.9L20.8249 14.367C21.0006 14.502 21.0561 14.745 20.9359 14.943L19.0858 18.057C18.9748 18.255 18.725 18.336 18.5215 18.255L16.2181 17.355C15.7371 17.706 15.2376 18.012 14.6548 18.237L14.3125 20.622C14.2755 20.838 14.0813 21 13.85 21H10.1498ZM11.3061 4.8L10.9639 7.149C9.8538 7.374 8.87325 7.95 8.16097 8.751L5.9316 7.815L5.23782 8.985L7.18967 10.38C6.81965 11.43 6.81965 12.57 7.18967 13.62L5.22857 15.024L5.92235 16.194L8.17022 15.258C8.8825 16.05 9.8538 16.626 10.9546 16.842L11.2969 19.2H12.7029L13.0452 16.851C14.146 16.626 15.1173 16.05 15.8296 15.258L18.0775 16.194L18.7713 15.024L16.8102 13.629C17.1802 12.576 17.1802 11.433 16.8102 10.38L18.762 8.985L18.0682 7.815L15.8389 8.751C15.112 7.93229 14.126 7.37191 13.036 7.158L12.6937 4.8H11.3061Z" fill="#272727"/>
</svg>
