<svg width="20" height="16" viewBox="0 0 20 16" fill="none" xmlns="http://www.w3.org/2000/svg">
<path d="M19.7333 4.3305C19.2 2.94715 17.6667 1.98481 16.0667 1.98481C14.6 1.98481 13.1333 1.98481 11.6667 1.98481C11.6 1.98481 11.5333 1.98481 11.4667 1.98481C11.0667 0.781896 10 0 8.66667 0C6.73333 0 4.73333 0 2.8 0C1.26667 0 0 1.14277 0 2.58627C0 3.5486 0 4.51094 0 5.47327C0 6.37546 0.466667 7.09721 1.26667 7.57838C1.53333 7.75881 1.93333 7.87911 2.2 7.9994C2.2 8.36027 2.2 8.72115 2.2 9.02188C2.2 9.26246 2.33333 9.4429 2.53333 9.56319C2.73333 9.62333 2.93333 9.62333 3.13333 9.56319C3.33333 9.50304 3.53333 9.38275 3.73333 9.32261C3.73333 9.68348 3.73333 9.98421 3.8 10.3451C4.13333 12.0292 5.73333 13.2321 7.66667 13.2321C8.73333 13.2321 9.8 13.2321 10.8 13.2321C10.9333 13.2321 11.0667 13.2321 11.1333 13.2922C12.6667 14.014 14.2667 14.7357 15.8 15.4575C16.3333 15.6981 16.8667 15.3372 16.8 14.9162C16.7333 14.4951 16.7333 14.0741 16.7333 13.6531C16.7333 13.4727 16.7333 13.3524 16.7333 13.1719H16.8C18.6667 12.8712 20 11.4277 20 9.74363C20 8.36027 20 6.97692 20 5.53342C20 5.1124 19.9333 4.75152 19.7333 4.3305ZM3.73333 5.1124C3.73333 5.29283 3.73333 5.47327 3.73333 5.65371C3.73333 6.43561 3.73333 7.2175 3.73333 7.93925C3.73333 8.05954 3.66667 8.11969 3.53333 8.17984C3.53333 7.9994 3.53333 7.81896 3.53333 7.63852C3.53333 7.27765 3.33333 7.03706 2.86667 6.97692C1.86667 6.91677 1.26667 6.31531 1.26667 5.41313C1.26667 4.51094 1.26667 3.5486 1.26667 2.64642C1.26667 1.74423 1.93333 1.14277 2.93333 1.14277C4.86667 1.14277 6.73333 1.14277 8.66667 1.14277C9.26667 1.14277 9.73333 1.38335 10.0667 1.86452C10.0667 1.92467 10.1333 1.98481 10.1333 2.04496C10.0667 2.04496 10 2.04496 9.93333 2.04496C9.13333 2.04496 8.4 2.04496 7.6 2.04496C5.66667 2.04496 4 3.30802 3.73333 5.1124ZM18.7333 9.74363C18.7333 11.0668 17.6 12.0893 16.1333 12.1495C15.6 12.1495 15.4 12.39 15.4 12.8712C15.4 13.2321 15.4667 13.6531 15.4667 14.014C15.4667 14.014 15.4667 14.0741 15.4667 14.1343C15.2 14.014 15 13.9538 14.8 13.8335C13.6667 13.2922 12.6 12.8111 11.4667 12.2698C11.3333 12.2096 11.1333 12.1495 11 12.1495C9.86667 12.1495 8.73333 12.1495 7.6 12.1495C6.13333 12.1495 4.93333 11.0668 4.93333 9.74363C4.93333 8.36027 4.93333 6.91677 4.93333 5.53342C4.93333 4.15006 6.13333 3.12758 7.66667 3.12758C10.4667 3.12758 13.2667 3.12758 16 3.12758C17.5333 3.12758 18.7333 4.21021 18.7333 5.59356C18.7333 6.97692 18.7333 8.36027 18.7333 9.74363Z" fill="#78797D"/>
<path d="M12.0666 6.67615C11.5333 6.67615 11.1333 7.03702 11.1333 7.51819C11.1333 7.99936 11.5333 8.36023 12.0666 8.36023C12.6 8.36023 13 7.99936 13 7.51819C13 7.09717 12.6 6.67615 12.0666 6.67615Z" fill="#78797D"/>
<path d="M8.73332 6.67615C8.19999 6.67615 7.79999 7.03702 7.79999 7.51819C7.79999 7.99936 8.19999 8.36023 8.73332 8.36023C9.26665 8.36023 9.66665 7.99936 9.66665 7.51819C9.66665 7.09717 9.19999 6.67615 8.73332 6.67615Z" fill="#78797D"/>
<path d="M15.4667 6.67615C14.9334 6.67615 14.5334 7.03702 14.5334 7.51819C14.5334 7.99936 14.9334 8.36023 15.4667 8.36023C16.0001 8.36023 16.4001 7.99936 16.4001 7.51819C16.4001 7.03702 15.9334 6.67615 15.4667 6.67615Z" fill="#78797D"/>
</svg>
