<svg width="18" height="17" viewBox="0 0 18 17" fill="none" xmlns="http://www.w3.org/2000/svg">
<path fill-rule="evenodd" clip-rule="evenodd" d="M14.6988 16.2165C16.5231 16.2165 18.0001 14.7386 18.0001 12.9152V10.2882C16.7936 10.2882 15.8207 9.31524 15.8207 8.10973C15.8207 6.90324 16.7936 5.93124 18.0001 5.93124L17.9982 3.3013C17.9982 1.47795 16.5212 0 14.6979 0H3.30239C1.47904 0 0.00109504 1.47795 0.00109504 3.3013L0.00012207 6.01589C1.20564 6.01589 2.17861 6.90324 2.17861 8.10973C2.17861 9.31524 1.20564 10.2882 0.00012207 10.2882V12.9152C0.00012207 14.7386 1.4771 16.2165 3.30045 16.2165H14.6988Z" fill="#0498C1"/>
<path fill-rule="evenodd" clip-rule="evenodd" d="M8.99948 9.83145L10.6925 10.7217C10.8511 10.8044 11.0369 10.6701 11.0067 10.494L10.6827 8.60745L12.0536 7.2735C12.1821 7.14799 12.1111 6.93101 11.934 6.90474L10.0406 6.62939L9.19311 4.91307C9.11429 4.75253 8.88565 4.75253 8.80586 4.91307L7.9584 6.62939L6.06597 6.90474C5.88889 6.93101 5.81786 7.14799 5.9463 7.2735L7.31624 8.60745L6.99224 10.494C6.96208 10.6701 7.14792 10.8044 7.30651 10.7217L8.99948 9.83145Z" fill="white"/>
</svg>
