<svg width="18" height="20" viewBox="0 0 18 20" fill="none" xmlns="http://www.w3.org/2000/svg">
<path d="M6.6 2.2C6.9 0.699997 7.7 0 8.9 0C10.1 0 10.9 0.799997 11.1 2.2C12 2.2 13 2.2 13.9 2.2C14.4 2.2 14.8 2.2 15.3 2.3C16.6 2.6 17.6 3.8 17.7 5.2C17.7 5.4 17.7 5.6 17.7 5.8C17.7 9.3 17.7 12.8 17.7 16.3C17.7 17.8 17.1 18.9 15.8 19.5C15.3 19.7 14.7 19.9 14.2 19.9C10.6 19.9 7.1 19.9 3.5 19.9C1.4 19.9 0 18.5 0 16.4C0 12.8 0 9.2 0 5.5C0 3.5 1.4 2.1 3.5 2.1C4.5 2.2 5.6 2.2 6.6 2.2ZM4.4 3.4C4.1 3.4 3.8 3.4 3.4 3.4C2 3.4 1.1 4.3 1.1 5.7C1.1 9.3 1.1 13 1.1 16.6C1.1 17.9 2 18.9 3.3 18.9C7 18.9 10.7 18.9 14.4 18.9C15.7 18.9 16.6 17.9 16.6 16.6C16.6 16.1 16.6 15.6 16.6 15C16.6 11.9 16.6 8.8 16.6 5.7C16.6 4.6 16 3.7 14.9 3.4C14.4 3.3 13.8 3.3 13.3 3.3C13 4.2 12.7 4.4 11.9 4.4C9.9 4.4 7.8 4.4 5.8 4.4C5 4.4 4.7 4.2 4.4 3.4Z" fill="#78797D"/>
<path d="M8.3 12.2C7.3 12.2 6.4 12.2 5.5 12.2C5.4 12.2 5.2 12.2 5.1 12.2C4.7 12.2 4.5 12 4.5 11.6C4.5 11.2 4.8 11 5.1 11C6 11 6.9 11 7.8 11C8 11 8.1 11 8.3 11C8.3 10.4 8.3 9.79997 8.3 9.19997C8.3 8.79997 8.3 8.39998 8.3 7.89998C8.3 7.29998 8.5 7.09998 8.9 7.09998C9.3 7.09998 9.5 7.39998 9.5 7.99998C9.5 8.79998 9.5 9.69998 9.5 10.5C9.5 10.6 9.5 10.8 9.5 11C10.2 11 10.9 11 11.6 11C12 11 12.3 11 12.7 11C13.1 11 13.4 11.3 13.3 11.6C13.3 12 13 12.1 12.6 12.1C11.6 12.1 10.5 12.1 9.4 12.1C9.4 12.3 9.4 12.6 9.4 12.8C9.4 13.7 9.4 14.5 9.4 15.4C9.4 15.7 9.3 16 8.9 16C8.6 16 8.4 15.9 8.3 15.6C8.3 15.4 8.3 15.2 8.3 15.1C8.3 14.3 8.3 13.5 8.3 12.7C8.3 12.6 8.3 12.5 8.3 12.2Z" fill="#78797D"/>
</svg>
