<svg width="22" height="22" viewBox="0 0 22 22" fill="none" xmlns="http://www.w3.org/2000/svg">
<path d="M17.8933 22H4.10667C1.83333 22 0 20.1667 0 17.8933V4.10667C0 1.83333 1.83333 0 4.10667 0H17.8933C20.1667 0 22 1.83333 22 4.10667V17.8933C22 20.1667 20.1667 22 17.8933 22ZM4.10667 0.953333C2.34667 0.953333 0.953333 2.34667 0.953333 4.10667V17.8933C0.953333 19.6533 2.34667 21.0467 4.10667 21.0467H17.8933C19.6533 21.0467 21.0467 19.6533 21.0467 17.8933V4.10667C21.0467 2.34667 19.6533 0.953333 17.8933 0.953333H4.10667Z" fill="#32A1C8"/>
<path d="M19.5799 14.2266C16.2066 14.2266 12.9066 14.2266 9.60657 14.2266C9.60657 14.5932 9.60657 14.9599 9.60657 15.3266C12.9799 15.3266 16.2799 15.3266 19.5799 15.3266C19.5799 15.0332 19.5799 14.6666 19.5799 14.2266Z" fill="#32A1C8"/>
<path d="M19.5799 8.5802C16.2066 8.5802 12.9066 8.5802 9.60657 8.5802C9.60657 8.94687 9.60657 9.31353 9.60657 9.6802C12.9799 9.6802 16.2799 9.6802 19.5799 9.6802C19.5799 9.31353 19.5799 8.94687 19.5799 8.5802Z" fill="#32A1C8"/>
<path d="M7.47998 11.8068C6.52665 12.6868 5.57332 13.4934 4.61998 14.3001C4.17998 13.7868 3.73998 13.2734 3.22665 12.7601C2.93332 13.0534 2.63998 13.2734 2.34665 13.5668C3.07998 14.3734 3.73998 15.1801 4.47332 15.9134C5.71998 14.8134 6.96665 13.7134 8.21332 12.6134C7.99332 12.3201 7.77332 12.1001 7.47998 11.8068Z" fill="#32A1C8"/>
<path d="M7.55338 6.08667C6.60004 6.96667 5.64671 7.77334 4.69338 8.58C4.18004 8.06667 3.74004 7.55334 3.30004 7.04C3.00671 7.33334 2.71338 7.55334 2.42004 7.84667C3.15338 8.65334 3.81338 9.46 4.54671 10.1933C5.79338 9.09334 7.04004 7.99334 8.28671 6.89334C7.99338 6.67334 7.77338 6.38 7.55338 6.08667Z" fill="#32A1C8"/>
</svg>
