<svg width="18" height="13" viewBox="0 0 18 13" fill="none" xmlns="http://www.w3.org/2000/svg">
<path fill-rule="evenodd" clip-rule="evenodd" d="M3.41704 12.3654H8.99674H14.6364C16.0764 12.3054 17.0963 11.6454 17.6963 10.3255C18.2362 9.06555 18.0562 7.86561 17.1563 6.78567C16.9763 6.54569 16.8563 6.3057 16.7963 6.00571C16.4363 4.26581 15.1164 3.06587 13.3765 2.82589C13.1965 2.82589 13.0765 2.76589 13.0165 2.5859C11.9966 0.306023 9.05673 -0.713922 6.83685 0.54601C5.57692 1.26597 4.79696 2.34591 4.55698 3.78583C4.55698 3.90583 4.55698 3.96582 4.37699 4.02582C3.47704 4.26581 2.87707 4.80578 2.45709 5.64573C2.45709 5.70573 2.3371 5.82572 2.2771 5.82572C0.657189 6.36569 -0.242762 7.92561 0.0572214 9.60552C0.297208 11.2254 1.73713 12.3654 3.41704 12.3654ZM4.73697 5.10576C5.03695 5.04577 5.33694 5.04577 5.63692 5.04577C5.57692 3.90583 5.81691 2.94588 6.53687 2.16592C7.07684 1.62595 7.67681 1.32597 8.33677 1.20597C9.29672 1.02598 10.1367 1.20597 10.8566 1.62595C11.5766 2.16592 12.0566 2.88588 12.2366 3.78583C12.6565 3.78583 12.9565 3.78583 13.3165 3.84583C14.6964 4.08582 15.6564 5.16576 15.6564 6.54569C15.6564 6.84567 15.7764 6.96566 15.9564 7.14565C16.6763 7.74562 16.9763 8.52558 16.7363 9.42553C16.5563 10.3255 15.9564 10.8655 15.0564 11.1054C14.9364 11.1654 14.7564 11.1654 14.5764 11.1654H3.35704C1.67713 11.1654 0.537195 9.42553 1.31715 7.92561C1.67713 7.26565 2.2771 6.84567 3.05706 6.72568C3.23705 6.72568 3.29705 6.66568 3.35704 6.48569C3.53703 5.76573 3.95701 5.28575 4.73697 5.10576ZM9.53676 10.1455V6.48568C10.0167 6.84566 10.4367 7.26564 10.7367 7.74562L11.5167 6.96566L8.9368 4.3858L6.35694 6.96566L7.13689 7.74562L8.39683 6.48568V10.1455H9.53676Z" fill="white"/>
</svg>
