<svg width="24" height="24" viewBox="0 0 24 24" fill="none" xmlns="http://www.w3.org/2000/svg">
<path d="M20.1818 3H3.81818C2.81818 3 2 3.81 2 4.8V17.4C2 18.39 2.81818 19.2 3.81818 19.2H8.36364V21H15.6364V19.2H20.1818C21.1818 19.2 22 18.39 22 17.4V4.8C22 3.81 21.1818 3 20.1818 3ZM20.1818 17.4H3.81818V4.8H20.1818V17.4ZM18.3636 6.6H8.36364V8.4H18.3636V6.6ZM18.3636 10.2H8.36364V12H18.3636V10.2ZM7.45455 7.5L5.63636 6.6V8.4L7.45455 7.5ZM7.45455 11.1L5.63636 10.2V12L7.45455 11.1Z" fill="#272727"/>
<path d="M8.36364 13.8H18.3636V15.6H8.36364V13.8Z" fill="#272727"/>
<path d="M5.63636 13.8L7.45455 14.7L5.63636 15.6V13.8Z" fill="#272727"/>
</svg>
