<svg width="20" height="20" viewBox="0 0 20 20" fill="none" xmlns="http://www.w3.org/2000/svg">
<path d="M10 20C4.46667 20 0 15.5333 0 10.0667C0 4.53333 4.46667 0 10 0C15.5333 0 20 4.46667 20 10C20 15.5333 15.5333 20 10 20ZM18.6667 10C18.6667 5.2 14.7333 1.33333 10 1.33333C5.2 1.33333 1.33333 5.2 1.33333 10C1.26667 14.8 5.2 18.7333 10 18.6667C14.8 18.6667 18.7333 14.7333 18.6667 10Z" fill="#78797D"/>
<path d="M7.02095 9.99883C7.02095 8.68821 7.02095 7.37758 7.02095 6.06695C7.02095 5.21505 7.34302 5.01845 8.05155 5.41164C10.1772 6.72227 12.2383 8.03289 14.2995 9.40905C14.9437 9.80224 14.9437 10.1954 14.2995 10.5886C12.1739 11.9648 10.1127 13.2754 7.98714 14.586C7.34302 14.9792 7.02096 14.7826 6.95654 13.9962C7.02096 12.6856 7.02095 11.3095 7.02095 9.99883Z" fill="#78797D"/>
</svg>
