<svg width="24" height="24" viewBox="0 0 24 24" fill="none" xmlns="http://www.w3.org/2000/svg">
<path d="M12.5 4C8.3675 4 5 7.3675 5 11.5C5 15.6325 8.3675 19 12.5 19C16.6325 19 20 15.6325 20 11.5C20 7.3675 16.6325 4 12.5 4ZM15.02 13.225C15.2375 13.4425 15.2375 13.8025 15.02 14.02C14.9075 14.1325 14.765 14.185 14.6225 14.185C14.48 14.185 14.3375 14.1325 14.225 14.02L12.5 12.295L10.775 14.02C10.6625 14.1325 10.52 14.185 10.3775 14.185C10.235 14.185 10.0925 14.1325 9.98 14.02C9.7625 13.8025 9.7625 13.4425 9.98 13.225L11.705 11.5L9.98 9.775C9.7625 9.5575 9.7625 9.1975 9.98 8.98C10.1975 8.7625 10.5575 8.7625 10.775 8.98L12.5 10.705L14.225 8.98C14.4425 8.7625 14.8025 8.7625 15.02 8.98C15.2375 9.1975 15.2375 9.5575 15.02 9.775L13.295 11.5L15.02 13.225Z" fill="#414346"/>
</svg>
