<svg width="69" height="54" viewBox="0 0 69 54" fill="none" xmlns="http://www.w3.org/2000/svg">
<g opacity="0.5">
<path opacity="0.4" d="M52.7959 23.7985C58.0133 23.7985 62.2457 19.569 62.2457 14.3516C62.2457 9.13422 58.0133 4.90479 52.7959 4.90479" stroke="#414346" stroke-width="2" stroke-linecap="round" stroke-linejoin="round"/>
<path d="M57.1406 34.0659C58.6987 34.1734 60.2478 34.3942 61.773 34.7375C63.8922 35.1524 66.4412 36.021 67.3486 37.9223C67.9276 39.14 67.9276 40.5578 67.3486 41.7786C66.4442 43.6799 63.8922 44.5455 61.773 44.9813" stroke="#414346" stroke-width="2" stroke-linecap="round" stroke-linejoin="round"/>
<path opacity="0.4" d="M15.986 23.7985C10.7686 23.7985 6.53613 19.569 6.53613 14.3516C6.53613 9.13422 10.7686 4.90479 15.986 4.90479" stroke="#414346" stroke-width="2" stroke-linecap="round" stroke-linejoin="round"/>
<path d="M11.6415 34.0659C10.0834 34.1734 8.53434 34.3942 7.00911 34.7375C4.88992 35.1524 2.34091 36.021 1.43652 37.9223C0.854492 39.14 0.854492 40.5578 1.43652 41.7786C2.33793 43.6799 4.88992 44.5455 7.00911 44.9813" stroke="#414346" stroke-width="2" stroke-linecap="round" stroke-linejoin="round"/>
<path fill-rule="evenodd" clip-rule="evenodd" d="M34.3758 36.1006C44.9479 36.1006 53.9798 37.7004 53.9798 44.1028C53.9798 50.5022 45.0076 52.1617 34.3758 52.1617C23.8007 52.1617 14.7717 50.5619 14.7717 44.1595C14.7717 37.7571 23.744 36.1006 34.3758 36.1006Z" stroke="#414346" stroke-width="2" stroke-linecap="round" stroke-linejoin="round"/>
<path opacity="0.4" fill-rule="evenodd" clip-rule="evenodd" d="M34.3757 26.9673C27.4032 26.9673 21.8127 21.3768 21.8127 14.4013C21.8127 7.42888 27.4032 1.83838 34.3757 1.83838C41.3481 1.83838 46.9386 7.42888 46.9386 14.4013C46.9386 21.3768 41.3481 26.9673 34.3757 26.9673Z" stroke="#414346" stroke-width="2" stroke-linecap="round" stroke-linejoin="round"/>
</g>
</svg>
