<svg width="24" height="24" viewBox="0 0 24 24" fill="none" xmlns="http://www.w3.org/2000/svg">
<path fill-rule="evenodd" clip-rule="evenodd" d="M6.00062 12.8403V12.6761C6.02471 12.1902 6.18045 11.7194 6.45177 11.3122C6.90338 10.8231 7.21253 10.2237 7.34679 9.57698C7.34679 9.07713 7.34679 8.57013 7.39044 8.07027C7.61602 5.66381 9.99546 4 12.3458 4H12.404C14.7543 4 17.1338 5.66381 17.3666 8.07027C17.4103 8.57013 17.3666 9.07713 17.403 9.57698C17.5391 10.2252 17.8479 10.8265 18.298 11.3193C18.5714 11.7229 18.7274 12.192 18.7492 12.6761V12.8332C18.7654 13.486 18.5406 14.1226 18.1161 14.6255C17.5552 15.2136 16.7941 15.5795 15.9768 15.6538C13.5802 15.9109 11.1623 15.9109 8.76572 15.6538C7.94936 15.5762 7.18932 15.2109 6.6264 14.6255C6.2085 14.1222 5.98668 13.4894 6.00062 12.8403Z" fill="#414346"/>
<path fill-rule="evenodd" clip-rule="evenodd" d="M10.541 18.1387C10.9155 18.6087 11.4654 18.9129 12.069 18.9839C12.6726 19.0549 13.2802 18.8869 13.7573 18.5171C13.904 18.4078 14.036 18.2806 14.1502 18.1387" fill="#414346"/>
</svg>
