<svg width="15" height="15" viewBox="0 0 15 15" fill="none" xmlns="http://www.w3.org/2000/svg">
<path d="M10.5 1.25H8.875C6.875 1.25 5.625 2.5 5.625 4.5V7.03125H9.53125C9.7875 7.03125 10 7.24375 10 7.5C10 7.75625 9.7875 7.96875 9.53125 7.96875H5.625V10.5C5.625 12.5 6.875 13.75 8.875 13.75H10.4938C12.4938 13.75 13.7437 12.5 13.7437 10.5V4.5C13.75 2.5 12.5 1.25 10.5 1.25Z" fill="#414346"/>
<path d="M2.85039 7.03164L4.14414 5.73789C4.23789 5.64414 4.28164 5.52539 4.28164 5.40664C4.28164 5.28789 4.23789 5.16289 4.14414 5.07539C3.96289 4.89414 3.66289 4.89414 3.48164 5.07539L1.38789 7.16914C1.20664 7.35039 1.20664 7.65039 1.38789 7.83164L3.48164 9.92539C3.66289 10.1066 3.96289 10.1066 4.14414 9.92539C4.32539 9.74414 4.32539 9.44414 4.14414 9.26289L2.85039 7.96914H5.62539V7.03164H2.85039Z" fill="#414346"/>
</svg>
