<svg width="16" height="4" viewBox="0 0 16 4" fill="none" xmlns="http://www.w3.org/2000/svg">
<path d="M2.00231 3.91442C3.10817 3.91442 4.00465 3.03815 4.00465 1.95721C4.00465 0.876273 3.10817 0 2.00231 0C0.896458 0 0 0.876273 0 1.95721C0 3.03815 0.896458 3.91442 2.00231 3.91442Z" fill="#32A1C8"/>
<path d="M7.94466 3.91442C9.05051 3.91442 9.94699 3.03815 9.94699 1.95721C9.94699 0.876273 9.05051 0 7.94466 0C6.8388 0 5.94232 0.876273 5.94232 1.95721C5.94232 3.03815 6.8388 3.91442 7.94466 3.91442Z" fill="#32A1C8"/>
<path d="M13.8872 3.91442C14.9931 3.91442 15.8895 3.03815 15.8895 1.95721C15.8895 0.876273 14.9931 0 13.8872 0C12.7814 0 11.8849 0.876273 11.8849 1.95721C11.8849 3.03815 12.7814 3.91442 13.8872 3.91442Z" fill="#32A1C8"/>
</svg>
