<svg width="24" height="24" viewBox="0 0 24 24" fill="none" xmlns="http://www.w3.org/2000/svg">
<path d="M0.0125237 11.931C-0.0084343 18.3595 5.25702 23.6459 11.6961 23.6669C18.1875 23.6826 23.4634 18.4433 23.4949 11.9833C23.5263 5.51811 18.3394 0.378404 12.1362 0.184551C5.39847 -0.025019 -0.0136738 5.43428 0.0125237 11.931ZM1.1704 11.9414C1.16516 6.10491 5.94336 1.18525 12.0628 1.34767C17.6898 1.49436 22.4889 6.16254 22.3265 12.2506C22.1798 17.8408 17.5326 22.6557 11.4446 22.4985C5.82285 22.3518 1.20183 17.7518 1.1704 11.9414Z" fill="#32A1C8"/>
<path d="M15.2901 16.4421C14.9181 16.4421 14.5461 16.4421 14.1532 16.4421C14.1165 17.0761 13.8283 17.5738 13.3149 17.9353C12.8434 18.2706 12.3089 18.4331 11.7431 18.3964C10.3914 18.3178 9.57929 17.621 9.42735 16.4421C9.05012 16.4421 8.6729 16.4421 8.29567 16.4421C8.2328 18.1344 9.86745 19.5752 11.8322 19.57C13.7183 19.57 15.3634 18.0925 15.2901 16.4421Z" fill="#32A1C8"/>
<path d="M19.2876 14.1998C19.4762 13.8592 19.6544 13.5344 19.8482 13.1833C19.099 12.7642 18.3655 12.3555 17.5849 11.9207C18.3603 11.4858 19.0938 11.0772 19.843 10.658C19.6544 10.3122 19.4762 9.98739 19.2824 9.6416C17.9202 10.3961 16.5737 11.14 15.1748 11.9154C16.5737 12.6961 17.9202 13.4401 19.2876 14.1998Z" fill="#32A1C8"/>
<path d="M3.58037 11.9312C3.58037 12.8166 4.31386 13.5501 5.19406 13.5501C6.06901 13.5448 6.80775 12.8061 6.81299 11.9312C6.81299 11.0405 6.05854 10.286 5.17834 10.3018C4.28767 10.3122 3.57513 11.0405 3.58037 11.9312Z" fill="#32A1C8"/>
</svg>
