<svg width="18" height="18" viewBox="0 0 18 18" fill="none" xmlns="http://www.w3.org/2000/svg">
<path d="M7.57759 2.25C8.48298 2.25 9.3513 2.60558 9.99151 3.23851C10.6317 3.87145 10.9914 4.72989 10.9914 5.625C10.9914 6.52011 10.6317 7.37855 9.99151 8.01149C9.3513 8.64442 8.48298 9 7.57759 9C6.6722 9 5.80388 8.64442 5.16367 8.01149C4.52346 7.37855 4.16379 6.52011 4.16379 5.625C4.16379 4.72989 4.52346 3.87145 5.16367 3.23851C5.80388 2.60558 6.6722 2.25 7.57759 2.25ZM7.57759 3.85313C7.34223 3.85313 7.10917 3.89896 6.89173 3.988C6.67428 4.07705 6.47671 4.20756 6.31028 4.3721C6.14386 4.53663 6.01184 4.73196 5.92177 4.94693C5.8317 5.16191 5.78535 5.39231 5.78535 5.625C5.78535 5.85769 5.8317 6.08809 5.92177 6.30307C6.01184 6.51804 6.14386 6.71337 6.31028 6.87791C6.47671 7.04244 6.67428 7.17295 6.89173 7.262C7.10917 7.35104 7.34223 7.39688 7.57759 7.39688C7.81295 7.39688 8.04601 7.35104 8.26345 7.262C8.4809 7.17295 8.67847 7.04244 8.8449 6.87791C9.01132 6.71337 9.14334 6.51804 9.23341 6.30307C9.32347 6.08809 9.36983 5.85769 9.36983 5.625C9.36983 5.15507 9.18101 4.70439 8.8449 4.3721C8.50878 4.0398 8.05292 3.85313 7.57759 3.85313ZM15.4483 4.875V6.64688H17.25V8.16562H15.4483V9.75H13.7414V8.16562H11.9397V6.64688H13.7414V4.875H15.4483ZM7.57759 9.84375C9.8563 9.84375 14.4052 10.9659 14.4052 13.2188V15.75H0.75V13.2188C0.75 10.9659 5.29888 9.84375 7.57759 9.84375ZM7.57759 11.4469C5.04285 11.4469 2.37155 12.6788 2.37155 13.2188V14.1469H12.7836V13.2188C12.7836 12.6788 10.1379 11.4469 7.57759 11.4469Z" fill="#272727"/>
</svg>
