<svg width="17" height="17" viewBox="0 0 17 17" fill="none" xmlns="http://www.w3.org/2000/svg">
<path opacity="0.4" fill-rule="evenodd" clip-rule="evenodd" d="M9.25021 5.74536C9.25021 5.33115 8.91442 4.99536 8.50021 4.99536C8.086 4.99536 7.75021 5.33115 7.75021 5.74536V7.74279H5.75024C5.33603 7.74279 5.00024 8.07858 5.00024 8.49279C5.00024 8.907 5.33603 9.24279 5.75024 9.24279H7.75021V11.2401C7.75021 11.6543 8.086 11.9901 8.50021 11.9901C8.91442 11.9901 9.25021 11.6543 9.25021 11.2401V9.24279H11.2502C11.6645 9.24279 12.0002 8.907 12.0002 8.49279C12.0002 8.07858 11.6645 7.74279 11.2502 7.74279H9.25021V5.74536Z" fill="#414346"/>
<path fill-rule="evenodd" clip-rule="evenodd" d="M12.0143 1H4.98571C2.53571 1 1 2.73406 1 5.18887V11.8111C1 14.2659 2.52857 16 4.98571 16H12.0143C14.4714 16 16 14.2659 16 11.8111V5.18887C16 2.73406 14.4714 1 12.0143 1Z" stroke="#414346" stroke-width="1.5" stroke-linecap="round" stroke-linejoin="round"/>
</svg>
