<svg width="24" height="24" viewBox="0 0 24 24" fill="none" xmlns="http://www.w3.org/2000/svg">
<path d="M12 13.8C9.903 13.8 8.112 15.105 7.392 16.95H8.895C9.516 15.879 10.668 15.15 12 15.15C13.332 15.15 14.475 15.879 15.105 16.95H16.608C15.888 15.105 14.097 13.8 12 13.8ZM11.991 3C7.023 3 3 7.032 3 12C3 16.968 7.023 21 11.991 21C16.968 21 21 16.968 21 12C21 7.032 16.968 3 11.991 3ZM12 19.2C8.022 19.2 4.8 15.978 4.8 12C4.8 8.022 8.022 4.8 12 4.8C15.978 4.8 19.2 8.022 19.2 12C19.2 15.978 15.978 19.2 12 19.2Z" fill="#DB0100"/>
<path d="M13.8 10.3084L15.708 8.40039L16.662 9.35439L15.708 10.3084L16.662 11.2624L15.708 12.2164L13.8 10.3084Z" fill="#DB0100"/>
<path d="M10.362 10.3084L8.454 8.40039L7.5 9.35439L8.454 10.3084L7.5 11.2624L8.454 12.2164L10.362 10.3084Z" fill="#DB0100"/>
</svg>
