<svg width="18" height="18" viewBox="0 0 18 18" fill="none" xmlns="http://www.w3.org/2000/svg">
<g opacity="0.8">
<path d="M5.72783 8.325H7.07409V9.675H5.72783V8.325ZM15.75 4.95V14.4C15.75 15.1425 15.1442 15.75 14.4037 15.75H3.59625C2.84908 15.75 2.24999 15.1425 2.24999 14.4L2.25672 4.95C2.25672 4.2075 2.84908 3.6 3.59625 3.6H4.53116V2.25H5.87742V3.6H12.3843V2.25H13.7306V3.6H14.4037C15.1442 3.6 15.75 4.2075 15.75 4.95ZM3.25969 6.3H14.7403V4.6125H3.25969V6.3ZM14.7403 14.7375V7.65H3.25969V14.7375H14.7403ZM11.1129 9.675H12.4591V8.325H11.1129V9.675ZM8.42035 9.675H9.76661V8.325H8.42035V9.675Z" fill="#272727"/>
</g>
</svg>
