<svg width="18" height="18" viewBox="0 0 18 18" fill="none" xmlns="http://www.w3.org/2000/svg">
<path d="M9 2.25C5.26725 2.25 2.25 5.26725 2.25 9C2.25 12.7327 5.26725 15.75 9 15.75C12.7327 15.75 15.75 12.7327 15.75 9C15.75 5.26725 12.7327 2.25 9 2.25ZM9 14.4C6.02325 14.4 3.6 11.9768 3.6 9C3.6 6.02325 6.02325 3.6 9 3.6C11.9768 3.6 14.4 6.02325 14.4 9C14.4 11.9768 11.9768 14.4 9 14.4ZM11.4233 5.625L9 8.04825L6.57675 5.625L5.625 6.57675L8.04825 9L5.625 11.4233L6.57675 12.375L9 9.95175L11.4233 12.375L12.375 11.4233L9.95175 9L12.375 6.57675L11.4233 5.625Z" fill="#272727"/>
</svg>
