<svg width="18" height="18" viewBox="0 0 18 18" fill="none" xmlns="http://www.w3.org/2000/svg">
<g opacity="0.8">
<path d="M8.99325 2.25C5.26725 2.25 2.25 5.274 2.25 9C2.25 12.726 5.26725 15.75 8.99325 15.75C12.726 15.75 15.75 12.726 15.75 9C15.75 5.274 12.726 2.25 8.99325 2.25ZM9 14.4C6.0165 14.4 3.6 11.9835 3.6 9C3.6 6.0165 6.0165 3.6 9 3.6C11.9835 3.6 14.4 6.0165 14.4 9C14.4 11.9835 11.9835 14.4 9 14.4ZM9.3375 5.625H8.325V9.675L11.8688 11.8012L12.375 10.971L9.3375 9.16875V5.625Z" fill="#272727"/>
</g>
</svg>
