<svg width="16" height="17" viewBox="0 0 16 17" fill="none" xmlns="http://www.w3.org/2000/svg">
<path d="M13.8933 3.932C13.86 3.86 13.82 3.794 13.7733 3.728C13.68 3.602 13.5533 3.488 13.4133 3.404C13.34 3.362 13.2667 3.326 13.1867 3.296C13.0267 3.236 12.8533 3.2 12.6667 3.2H12V2H10.6667V3.2H5.33333V2H4V3.2H3.33333C3.05333 3.2 2.8 3.278 2.58667 3.404C2.44667 3.488 2.32 3.602 2.22667 3.728C2.18 3.794 2.14 3.86 2.10667 3.932C2.04 4.076 2 4.232 2 4.4V12.8C2 13.46 2.59333 14 3.33333 14H12.6667C12.8533 14 13.0267 13.964 13.1867 13.904C13.2667 13.874 13.34 13.838 13.4133 13.796C13.5533 13.712 13.68 13.598 13.7733 13.472C13.9133 13.28 14 13.046 14 12.8V4.4C14 4.232 13.96 4.076 13.8933 3.932ZM3.33333 12.8V4.4H12.6667V12.8H3.33333ZM8 9.128C6.64667 9.128 4 9.776 4 11.276V12.2H12V11.282C12 9.776 9.35333 9.128 8 9.128ZM5.54 11C6 10.664 7.12667 10.328 8 10.328C8.87333 10.328 10.0067 10.664 10.46 11H5.54ZM8 8.6C9.1 8.6 10 7.79 10 6.8C10 5.81 9.1 5 8 5C6.9 5 6 5.81 6 6.8C6 7.79 6.9 8.6 8 8.6ZM8 6.2C8.36667 6.2 8.66667 6.47 8.66667 6.8C8.66667 7.13 8.36667 7.4 8 7.4C7.63333 7.4 7.33333 7.13 7.33333 6.8C7.33333 6.47 7.63333 6.2 8 6.2Z" fill="#272727"/>
</svg>
