<svg width="24" height="24" viewBox="0 0 24 24" fill="none" xmlns="http://www.w3.org/2000/svg">
<path d="M15.1566 11.1004C15.9022 11.1004 16.5066 10.496 16.5066 9.75039C16.5066 9.00481 15.9022 8.40039 15.1566 8.40039C14.4111 8.40039 13.8066 9.00481 13.8066 9.75039C13.8066 10.496 14.4111 11.1004 15.1566 11.1004Z" fill="#3C8BB2"/>
<path d="M8.85665 11.1004C9.60224 11.1004 10.2067 10.496 10.2067 9.75039C10.2067 9.00481 9.60224 8.40039 8.85665 8.40039C8.11107 8.40039 7.50665 9.00481 7.50665 9.75039C7.50665 10.496 8.11107 11.1004 8.85665 11.1004Z" fill="#3C8BB2"/>
<path d="M7.39865 16.9498C8.11865 15.1048 9.90965 13.7998 12.0067 13.7998C14.1037 13.7998 15.8947 15.1048 16.6147 16.9498H15.1117C14.4817 15.8788 13.3387 15.1498 12.0067 15.1498C10.6747 15.1498 9.52265 15.8788 8.90165 16.9498H7.39865Z" fill="#3C8BB2"/>
<path fill-rule="evenodd" clip-rule="evenodd" d="M7.69985 4.09524C6.54574 4.72069 5.51124 5.60911 4.69187 6.74665C2.41473 9.90797 2.49409 14.051 4.58183 17.0899C6.19977 19.4502 8.90992 21 11.9887 21C16.9747 21 21.0067 16.968 21.0067 12C21.0067 11.505 20.9527 11.019 20.8807 10.542C20.6287 10.605 20.3767 10.65 20.1067 10.65C19.7287 10.65 19.3687 10.569 19.0357 10.452C19.1437 10.947 19.2067 11.469 19.2067 12C19.2067 15.978 15.9847 19.2 12.0067 19.2C8.98265 19.2 6.39965 17.337 5.32865 14.691C5.32704 14.691 5.32546 14.691 5.3239 14.6911C4.63912 12.988 4.61472 11.0557 5.31983 9.30868C5.32267 9.30889 5.32561 9.309 5.32865 9.309C6.03153 7.57248 7.38563 6.17321 9.08822 5.41645C9.63294 5.17678 10.2043 5.00564 10.7883 4.90441C10.7879 4.9039 10.7874 4.90338 10.787 4.90287C11.1833 4.83523 11.5908 4.8 12.0067 4.8C13.9777 4.8 15.7507 5.592 17.0557 6.87C17.1907 6.33 17.4607 5.709 17.7847 5.106C16.2187 3.792 14.2027 3 11.9977 3C10.4406 3 8.97634 3.39703 7.69985 4.09524ZM18.3067 7.5C18.3067 6.51 20.1067 3.9 20.1067 3.9C20.1067 3.9 21.9067 6.51 21.9067 7.5C21.9067 8.49 21.0967 9.3 20.1067 9.3C19.1167 9.3 18.3067 8.49 18.3067 7.5Z" fill="#3C8BB2"/>
</svg>
