<svg width="18" height="18" viewBox="0 0 18 18" fill="none" xmlns="http://www.w3.org/2000/svg">
<path d="M14.3924 8.91428C14.3924 8.53708 14.0906 8.23152 13.7184 8.23152H9.59398V4.11316V4.11303C9.59398 3.73457 9.28689 3.42761 8.90869 3.42761C8.53023 3.42761 8.22314 3.73457 8.22314 4.11303V8.91161C8.22314 9.2902 8.53023 9.59716 8.90869 9.59716H13.7188C14.0906 9.59716 14.3924 9.29147 14.3924 8.91428ZM16.4507 8.90996C16.4507 13.0753 13.0745 16.452 8.91008 16.452C4.74536 16.452 1.36944 13.0753 1.36944 8.90996C1.36944 4.7446 4.74536 1.36792 8.91008 1.36792C13.0745 1.36792 16.4507 4.7446 16.4507 8.90996ZM17.8199 8.90996C17.8199 3.98908 13.8308 0 8.91008 0C3.98908 0 0 3.98908 0 8.90996C0 13.8308 3.98908 17.8199 8.91008 17.8199C13.8308 17.8199 17.8199 13.8308 17.8199 8.90996Z" fill="#ED3237"/>
</svg>
