<svg width="20" height="20" viewBox="0 0 20 20" fill="none" xmlns="http://www.w3.org/2000/svg">
<g opacity="0.8">
<path d="M15.3571 9.31818V5.22727C15.3571 4.47727 14.7143 3.86364 13.9286 3.86364H13.2143V2.5H11.7857V3.86364H6.07143V2.5H4.64286V3.86364H3.92857C3.14286 3.86364 2.5 4.47727 2.5 5.22727V14.7727C2.5 15.5227 3.14286 16.1364 3.92857 16.1364H8.92857V14.7727H3.92857V7.95455H13.9286V9.31818H15.3571ZM13.9286 6.59091H3.92857V5.22727H13.9286V6.59091ZM11.5286 14.7727C11.8357 15.7614 12.7929 16.4773 13.9286 16.4773C15.3071 16.4773 16.4286 15.4068 16.4286 14.0909C16.4286 12.775 15.3071 11.7045 13.9286 11.7045C13.25 11.7045 12.6286 11.9636 12.1786 12.3864H13.2143V13.4091H10.3571V10.6818H11.4286V11.6568C12.0714 11.0568 12.9571 10.6818 13.9286 10.6818C15.9 10.6818 17.5 12.2091 17.5 14.0909C17.5 15.9727 15.9 17.5 13.9286 17.5C12.2 17.5 10.7571 16.3273 10.4286 14.7727H11.5286Z" fill="#272727"/>
</g>
</svg>
