<svg width="24" height="24" viewBox="0 0 24 24" fill="none" xmlns="http://www.w3.org/2000/svg">
<path d="M16.05 3C14.484 3 12.981 3.79455 12 5.05014C11.019 3.79455 9.516 3 7.95 3C5.178 3 3 5.37384 3 8.3951C3 12.103 6.06 15.1243 10.695 19.715L12 21L13.305 19.7052C17.94 15.1243 21 12.103 21 8.3951C21 5.37384 18.822 3 16.05 3ZM12.09 18.2534L12 18.3515L11.91 18.2534C7.626 14.0256 4.8 11.23 4.8 8.3951C4.8 6.43324 6.15 4.96185 7.95 4.96185C9.336 4.96185 10.686 5.93297 11.163 7.27684H12.846C13.314 5.93297 14.664 4.96185 16.05 4.96185C17.85 4.96185 19.2 6.43324 19.2 8.3951C19.2 11.23 16.374 14.0256 12.09 18.2534Z" fill="#FF494E"/>
</svg>
