<svg width="18" height="18" viewBox="0 0 18 18" fill="none" xmlns="http://www.w3.org/2000/svg">
<g opacity="0.8">
<path d="M7.5 9C9.1575 9 10.5 7.6575 10.5 6C10.5 4.3425 9.1575 3 7.5 3C5.8425 3 4.5 4.3425 4.5 6C4.5 7.6575 5.8425 9 7.5 9ZM7.5 4.5C8.325 4.5 9 5.175 9 6C9 6.825 8.325 7.5 7.5 7.5C6.675 7.5 6 6.825 6 6C6 5.175 6.675 4.5 7.5 4.5Z" fill="#272727" fill-opacity="0.8"/>
<path d="M7.5 9.75C5.4975 9.75 1.5 10.755 1.5 12.75V15H13.5V12.75C13.5 10.755 9.5025 9.75 7.5 9.75ZM12 13.5H3V12.7575C3.15 12.2175 5.475 11.25 7.5 11.25C9.525 11.25 11.85 12.2175 12 12.75V13.5Z" fill="#272727" fill-opacity="0.8"/>
<path d="M10.8824 3.03748C11.5724 3.83248 11.9999 4.86748 11.9999 5.99998C11.9999 7.13247 11.5724 8.16747 10.8824 8.96247C12.3524 8.77497 13.4999 7.52997 13.4999 5.99998C13.4999 4.46998 12.3524 3.22498 10.8824 3.03748Z" fill="#272727" fill-opacity="0.8"/>
<path d="M13.8975 10.3726C14.565 10.9951 15 11.7751 15 12.7501V15.0001H16.5V12.7501C16.5 11.6626 15.3075 10.8676 13.8975 10.3726Z" fill="#272727" fill-opacity="0.8"/>
</g>
</svg>
