<svg width="24" height="24" viewBox="0 0 24 24" fill="none" xmlns="http://www.w3.org/2000/svg">
<g opacity="0.8">
<path d="M22 9V7H20V9H18V11H20V13H22V11H24V9H22Z" fill="#272727" fill-opacity="0.8"/>
<path d="M8 12C10.21 12 12 10.21 12 8C12 5.79 10.21 4 8 4C5.79 4 4 5.79 4 8C4 10.21 5.79 12 8 12ZM8 6C9.1 6 10 6.9 10 8C10 9.1 9.1 10 8 10C6.9 10 6 9.1 6 8C6 6.9 6.9 6 8 6Z" fill="#272727" fill-opacity="0.8"/>
<path d="M8 13C5.33 13 0 14.34 0 17V20H16V17C16 14.34 10.67 13 8 13ZM14 18H2V17.01C2.2 16.29 5.3 15 8 15C10.7 15 13.8 16.29 14 17V18Z" fill="#272727" fill-opacity="0.8"/>
<path d="M12.51 4.0498C13.43 5.1098 14 6.4898 14 7.9998C14 9.5098 13.43 10.8898 12.51 11.9498C14.47 11.6998 16 10.0398 16 7.9998C16 5.9598 14.47 4.2998 12.51 4.0498Z" fill="#272727" fill-opacity="0.8"/>
<path d="M16.53 13.8301C17.42 14.6601 18 15.7001 18 17.0001V20.0001H20V17.0001C20 15.5501 18.41 14.4901 16.53 13.8301Z" fill="#272727" fill-opacity="0.8"/>
</g>
</svg>
