<svg width="16" height="17" viewBox="0 0 16 17" fill="none" xmlns="http://www.w3.org/2000/svg">
<path d="M6.66667 8.11458C8.14 8.11458 9.33333 6.92125 9.33333 5.44792C9.33333 3.97458 8.14 2.78125 6.66667 2.78125C5.19333 2.78125 4 3.97458 4 5.44792C4 6.92125 5.19333 8.11458 6.66667 8.11458ZM6.66667 4.11458C7.4 4.11458 8 4.71458 8 5.44792C8 6.18125 7.4 6.78125 6.66667 6.78125C5.93333 6.78125 5.33333 6.18125 5.33333 5.44792C5.33333 4.71458 5.93333 4.11458 6.66667 4.11458Z" fill="white"/>
<path d="M6.66671 8.78125C4.88671 8.78125 1.33337 9.67458 1.33337 11.4479V13.4479H12V11.4479C12 9.67458 8.44671 8.78125 6.66671 8.78125ZM10.6667 12.1146H2.66671V11.4546C2.80004 10.9746 4.86671 10.1146 6.66671 10.1146C8.46671 10.1146 10.5334 10.9746 10.6667 11.4479V12.1146Z" fill="white"/>
<path d="M9.67334 2.81445C10.2867 3.52112 10.6667 4.44112 10.6667 5.44779C10.6667 6.45445 10.2867 7.37445 9.67334 8.08112C10.98 7.91445 12 6.80779 12 5.44779C12 4.08779 10.98 2.98112 9.67334 2.81445Z" fill="white"/>
<path d="M12.3534 9.33496C12.9467 9.88829 13.3334 10.5816 13.3334 11.4483V13.4483H14.6667V11.4483C14.6667 10.4816 13.6067 9.77496 12.3534 9.33496Z" fill="white"/>
</svg>
