<svg width="16" height="15" viewBox="0 0 16 15" fill="none" xmlns="http://www.w3.org/2000/svg">
<path d="M14.2499 4.50751L9.3374 0.577513C8.37741 -0.187486 6.87741 -0.194986 5.92491 0.570013L1.01241 4.50751C0.307413 5.07001 -0.120086 6.19501 0.0299136 7.08001L0.974913 12.735C1.19241 14.0025 2.36991 15 3.65241 15H11.6024C12.8699 15 14.0699 13.98 14.2874 12.7275L15.2324 7.07251C15.3674 6.19501 14.9399 5.07001 14.2499 4.50751ZM8.18991 12C8.18991 12.3075 7.93491 12.5625 7.62741 12.5625C7.31991 12.5625 7.06491 12.3075 7.06491 12V9.75C7.06491 9.4425 7.31991 9.1875 7.62741 9.1875C7.93491 9.1875 8.18991 9.4425 8.18991 9.75V12Z" fill="#414346"/>
</svg>
