<svg width="14" height="15" viewBox="0 0 14 15" fill="none" xmlns="http://www.w3.org/2000/svg">
<path d="M9.93996 1.66989V0.542173C9.93996 0.245785 9.69417 0 9.39779 0C9.1014 0 8.85561 0.245785 8.85561 0.542173V1.62652H4.15678V0.542173C4.15678 0.245785 3.911 0 3.61461 0C3.31822 0 3.07244 0.245785 3.07244 0.542173V1.66989C1.12062 1.85062 0.173621 3.01448 0.0290416 4.7422C0.0145837 4.95184 0.188079 5.12534 0.39049 5.12534H12.6219C12.8315 5.12534 13.005 4.94462 12.9834 4.7422C12.8388 3.01448 11.8918 1.85062 9.93996 1.66989Z" fill="#0498C1"/>
<path d="M12.2892 6.20996H0.722897C0.325304 6.20996 0 6.53526 0 6.93286V11.3859C0 13.5546 1.08435 15.0004 3.61449 15.0004H9.39766C11.9278 15.0004 13.0121 13.5546 13.0121 11.3859V6.93286C13.0121 6.53526 12.6868 6.20996 12.2892 6.20996ZM4.48919 12.2606C4.45305 12.2895 4.4169 12.3257 4.38076 12.3474C4.33738 12.3763 4.29401 12.398 4.25063 12.4124C4.20726 12.4341 4.16389 12.4486 4.12051 12.4558C4.06991 12.463 4.02654 12.4702 3.97593 12.4702C3.88196 12.4702 3.78798 12.4486 3.70123 12.4124C3.60726 12.3763 3.53497 12.3257 3.46268 12.2606C3.33256 12.1233 3.25304 11.9353 3.25304 11.7474C3.25304 11.5594 3.33256 11.3714 3.46268 11.2341C3.53497 11.169 3.60726 11.1184 3.70123 11.0823C3.83135 11.0245 3.97593 11.01 4.12051 11.0389C4.16389 11.0461 4.20726 11.0606 4.25063 11.0823C4.29401 11.0967 4.33738 11.1184 4.38076 11.1473C4.4169 11.1763 4.45305 11.2052 4.48919 11.2341C4.61931 11.3714 4.69883 11.5594 4.69883 11.7474C4.69883 11.9353 4.61931 12.1233 4.48919 12.2606ZM4.48919 9.73047C4.35184 9.86059 4.16389 9.94011 3.97593 9.94011C3.78798 9.94011 3.60003 9.86059 3.46268 9.73047C3.33256 9.59312 3.25304 9.40517 3.25304 9.21721C3.25304 9.02926 3.33256 8.84131 3.46268 8.70396C3.66509 8.50154 3.98316 8.43648 4.25063 8.55215C4.34461 8.58829 4.42413 8.63889 4.48919 8.70396C4.61931 8.84131 4.69883 9.02926 4.69883 9.21721C4.69883 9.40517 4.61931 9.59312 4.48919 9.73047ZM7.01933 12.2606C6.88198 12.3907 6.69403 12.4702 6.50607 12.4702C6.31812 12.4702 6.13017 12.3907 5.99282 12.2606C5.86269 12.1233 5.78318 11.9353 5.78318 11.7474C5.78318 11.5594 5.86269 11.3714 5.99282 11.2341C6.26029 10.9666 6.75186 10.9666 7.01933 11.2341C7.14945 11.3714 7.22897 11.5594 7.22897 11.7474C7.22897 11.9353 7.14945 12.1233 7.01933 12.2606ZM7.01933 9.73047C6.98318 9.75939 6.94704 9.7883 6.9109 9.81722C6.86752 9.84613 6.82415 9.86782 6.78077 9.88228C6.7374 9.90396 6.69403 9.91842 6.65065 9.92565C6.60005 9.93288 6.55668 9.94011 6.50607 9.94011C6.31812 9.94011 6.13017 9.86059 5.99282 9.73047C5.86269 9.59312 5.78318 9.40517 5.78318 9.21721C5.78318 9.02926 5.86269 8.84131 5.99282 8.70396C6.05788 8.63889 6.1374 8.58829 6.23137 8.55215C6.49884 8.43648 6.81692 8.50154 7.01933 8.70396C7.14945 8.84131 7.22897 9.02926 7.22897 9.21721C7.22897 9.40517 7.14945 9.59312 7.01933 9.73047ZM9.54947 12.2606C9.41212 12.3907 9.22417 12.4702 9.03621 12.4702C8.84826 12.4702 8.66031 12.3907 8.52296 12.2606C8.39283 12.1233 8.31332 11.9353 8.31332 11.7474C8.31332 11.5594 8.39283 11.3714 8.52296 11.2341C8.79043 10.9666 9.282 10.9666 9.54947 11.2341C9.67959 11.3714 9.75911 11.5594 9.75911 11.7474C9.75911 11.9353 9.67959 12.1233 9.54947 12.2606ZM9.54947 9.73047C9.51332 9.75939 9.47718 9.7883 9.44103 9.81722C9.39766 9.84613 9.35429 9.86782 9.31091 9.88228C9.26754 9.90396 9.22417 9.91842 9.18079 9.92565C9.13019 9.93288 9.07959 9.94011 9.03621 9.94011C8.84826 9.94011 8.66031 9.86059 8.52296 9.73047C8.39283 9.59312 8.31332 9.40517 8.31332 9.21721C8.31332 9.02926 8.39283 8.84131 8.52296 8.70396C8.59525 8.63889 8.66753 8.58829 8.76151 8.55215C8.89163 8.49432 9.03621 8.47986 9.18079 8.50877C9.22417 8.516 9.26754 8.53046 9.31091 8.55215C9.35429 8.5666 9.39766 8.58829 9.44103 8.61721C9.47718 8.64612 9.51332 8.67504 9.54947 8.70396C9.67959 8.84131 9.75911 9.02926 9.75911 9.21721C9.75911 9.40517 9.67959 9.59312 9.54947 9.73047Z" fill="#0498C1"/>
</svg>
