<svg width="17" height="17" viewBox="0 0 17 17" fill="none" xmlns="http://www.w3.org/2000/svg">
<path fill-rule="evenodd" clip-rule="evenodd" d="M7.4633 5.90454C7.4633 6.73268 6.7912 7.40478 5.96305 7.40478C5.13573 7.40478 4.46362 6.73268 4.46362 5.90454C4.46362 5.0764 5.13573 4.4043 5.96305 4.4043C6.7912 4.4043 7.4633 5.0764 7.4633 5.90454Z" fill="#0498C1"/>
<path d="M15.9996 10.9152C15.1917 10.2122 14.4888 9.36619 13.5623 8.80787C12.6342 8.24954 11.637 8.59413 10.9933 9.42715C10.3716 10.2325 9.98314 11.3159 9.04447 11.8238C7.888 12.4504 7.20858 11.4402 6.24391 11.0355C5.16708 10.5844 4.34951 11.3955 3.72048 12.1749C3.09063 12.9551 2.45266 13.7271 1.81226 14.4992" stroke="#0498C1" stroke-linecap="round" stroke-linejoin="round"/>
<path fill-rule="evenodd" clip-rule="evenodd" d="M12.0145 1H4.98548C2.53519 1 1 2.7343 1 5.18865V11.8113C1 14.2657 2.52869 16 4.98548 16H12.0137C14.4713 16 16 14.2657 16 11.8113V5.18865C16 2.7343 14.4713 1 12.0145 1Z" stroke="#FD830E" stroke-linecap="round" stroke-linejoin="round"/>
</svg>
