<svg width="24" height="24" viewBox="0 0 24 24" fill="none" xmlns="http://www.w3.org/2000/svg">
<path d="M9.54545 21H16.9091C17.5882 21 18.1691 20.55 18.4145 19.902L20.8855 13.557C20.9591 13.35 21 13.134 21 12.9V11.1C21 10.11 20.2636 9.3 19.3636 9.3H14.2009L14.9782 5.187L15.0027 4.899C15.0027 4.53 14.8636 4.188 14.6427 3.945L13.7755 3L8.38364 8.931C8.08909 9.255 7.90909 9.705 7.90909 10.2V19.2C7.90909 20.19 8.64545 21 9.54545 21ZM9.54545 10.2L13.0964 6.294L12 11.1H19.3636V12.9L16.9091 19.2H9.54545V10.2ZM3 10.2H6.27273V21H3V10.2Z" fill="#FEA800"/>
</svg>
