<svg width="20" height="20" viewBox="0 0 20 20" fill="none" xmlns="http://www.w3.org/2000/svg">
<g opacity="0.8">
<path d="M10.1666 10C9.34163 10 8.66663 9.325 8.66663 8.5C8.66663 7.675 9.34163 7 10.1666 7C10.9916 7 11.6666 7.675 11.6666 8.5C11.6666 9.325 10.9916 10 10.1666 10ZM14.6666 8.65C14.6666 5.9275 12.6791 4 10.1666 4C7.65413 4 5.66663 5.9275 5.66663 8.65C5.66663 10.405 7.12913 12.73 10.1666 15.505C13.2041 12.73 14.6666 10.405 14.6666 8.65ZM10.1666 2.5C13.3166 2.5 16.1666 4.915 16.1666 8.65C16.1666 11.14 14.1641 14.0875 10.1666 17.5C6.16913 14.0875 4.16663 11.14 4.16663 8.65C4.16663 4.915 7.01663 2.5 10.1666 2.5Z" fill="#272727"/>
</g>
</svg>
