<svg width="15" height="13" viewBox="0 0 15 13" fill="none" xmlns="http://www.w3.org/2000/svg">
<path d="M11.25 0H3.75C1.5 0 0 1.125 0 3.75V9C0 11.625 1.5 12.75 3.75 12.75H11.25C13.5 12.75 15 11.625 15 9V3.75C15 1.125 13.5 0 11.25 0ZM11.6025 4.5675L9.255 6.4425C8.76 6.84 8.13 7.035 7.5 7.035C6.87 7.035 6.2325 6.84 5.745 6.4425L3.3975 4.5675C3.1575 4.3725 3.12 4.0125 3.3075 3.7725C3.5025 3.5325 3.855 3.4875 4.095 3.6825L6.4425 5.5575C7.0125 6.015 7.98 6.015 8.55 5.5575L10.8975 3.6825C11.1375 3.4875 11.4975 3.525 11.685 3.7725C11.88 4.0125 11.8425 4.3725 11.6025 4.5675Z" fill="#414346"/>
</svg>
