<svg width="17" height="4" viewBox="0 0 17 4" fill="none" xmlns="http://www.w3.org/2000/svg">
<path d="M2.04609 4C3.17612 4 4.0922 3.10457 4.0922 2C4.0922 0.89543 3.17612 0 2.04609 0C0.916056 0 0 0.89543 0 2C0 3.10457 0.916056 4 2.04609 4Z" fill="#272727" fill-opacity="0.6"/>
<path d="M8.11831 4C9.24835 4 10.1644 3.10457 10.1644 2C10.1644 0.89543 9.24835 0 8.11831 0C6.98828 0 6.0722 0.89543 6.0722 2C6.0722 3.10457 6.98828 4 8.11831 4Z" fill="#272727" fill-opacity="0.6"/>
<path d="M14.1908 4C15.3208 4 16.2369 3.10457 16.2369 2C16.2369 0.89543 15.3208 0 14.1908 0C13.0607 0 12.1447 0.89543 12.1447 2C12.1447 3.10457 13.0607 4 14.1908 4Z" fill="#272727" fill-opacity="0.6"/>
</svg>
