<svg width="18" height="18" viewBox="0 0 18 18" fill="none" xmlns="http://www.w3.org/2000/svg">
<path d="M8.97024 10.0493C11.6304 10.0493 13.788 7.89164 13.788 5.23156C13.788 2.57148 11.6303 0.428589 8.97024 0.428589C6.31016 0.428589 4.15251 2.58624 4.15251 5.23156C4.15251 7.87688 6.31013 10.0493 8.97024 10.0493ZM8.97024 1.68475C10.921 1.68475 12.5171 3.2808 12.5171 5.23156C12.5171 7.18232 10.921 8.77834 8.97024 8.77834C7.01952 8.77834 5.42343 7.18229 5.42343 5.23153C5.42343 3.28077 7.01948 1.68475 8.97024 1.68475Z" fill="#414346"/>
<path d="M0.635461 17.5714H17.3645C17.7192 17.5714 18 17.2906 18 16.936C18 13.6108 15.2956 10.8916 11.9557 10.8916H6.04434C2.71922 10.8916 0 13.596 0 16.936C0 17.2906 0.280784 17.5714 0.635461 17.5714ZM6.04434 12.1625H11.9557C14.3793 12.1625 16.3744 13.9655 16.6847 16.3005H1.31527C1.6256 13.9803 3.6207 12.1625 6.04434 12.1625Z" fill="#414346"/>
</svg>
