<svg width="12" height="8" viewBox="0 0 12 8" fill="none" xmlns="http://www.w3.org/2000/svg">
<g opacity="0.6">
<path d="M6.1365 0C5.02356 0 4.11877 0.852047 4.11877 1.9001C4.11877 2.92816 4.97259 3.76021 6.08552 3.79621C6.11951 3.79221 6.15349 3.79221 6.17898 3.79621C6.18747 3.79621 6.19172 3.79621 6.20021 3.79621C6.20446 3.79621 6.20446 3.79621 6.20871 3.79621C7.29616 3.76021 8.14997 2.92816 8.15422 1.9001C8.15422 0.852047 7.24943 0 6.1365 0Z" fill="#414346"/>
<path d="M8.2948 4.85979C7.10965 4.11575 5.17688 4.11575 3.98323 4.85979C3.44376 5.19981 3.14641 5.65983 3.14641 6.15186C3.14641 6.64389 3.44376 7.09991 3.97899 7.43593C4.57369 7.81195 5.35529 7.99996 6.13689 7.99996C6.9185 7.99996 7.7001 7.81195 8.2948 7.43593C8.83003 7.09591 9.12738 6.63989 9.12738 6.14386C9.12313 5.65183 8.83003 5.19581 8.2948 4.85979Z" fill="#414346"/>
<path d="M10.8046 2.13572C10.8726 2.91176 10.2864 3.5918 9.47503 3.68381C9.47078 3.68381 9.47078 3.68381 9.46653 3.68381H9.45379C9.4283 3.68381 9.40282 3.68381 9.38158 3.69181C8.96954 3.71181 8.59148 3.5878 8.30687 3.35979C8.7444 2.99177 8.99502 2.43974 8.94405 1.8397C8.91431 1.51569 8.79537 1.21967 8.61696 0.967657C8.77838 0.891653 8.96529 0.843651 9.15644 0.82765C9.98902 0.759646 10.7324 1.34368 10.8046 2.13572Z" fill="#414346"/>
<path d="M11.6537 5.83644C11.6197 6.22447 11.3564 6.56048 10.9146 6.7885C10.4898 7.00851 9.95459 7.11251 9.4236 7.10051C9.72945 6.8405 9.90786 6.51648 9.94184 6.17246C9.98432 5.67644 9.7337 5.20041 9.23245 4.82039C8.94785 4.60838 8.61651 4.44037 8.25545 4.31636C9.19422 4.06035 10.3751 4.23236 11.1015 4.78439C11.4923 5.0804 11.692 5.45242 11.6537 5.83644Z" fill="#414346"/>
<path d="M1.46807 2.13572C1.4001 2.91176 1.9863 3.5918 2.79764 3.68381C2.80188 3.68381 2.80188 3.68381 2.80613 3.68381H2.81888C2.84436 3.68381 2.86985 3.68381 2.89109 3.69181C3.30313 3.71181 3.68119 3.5878 3.96579 3.35979C3.52826 2.99177 3.27764 2.43974 3.32862 1.8397C3.35835 1.51569 3.47729 1.21967 3.6557 0.967657C3.49428 0.891653 3.30738 0.843651 3.11622 0.82765C2.28365 0.759646 1.54028 1.34368 1.46807 2.13572Z" fill="#414346"/>
<path d="M0.618967 5.83644C0.65295 6.22447 0.916316 6.56048 1.35809 6.7885C1.78288 7.00851 2.3181 7.11251 2.84909 7.10051C2.54324 6.8405 2.36483 6.51648 2.33085 6.17246C2.28837 5.67644 2.53899 5.20041 3.04024 4.82039C3.32484 4.60838 3.65618 4.44037 4.01724 4.31636C3.07847 4.06035 1.89757 4.23236 1.17119 4.78439C0.780385 5.0804 0.580736 5.45242 0.618967 5.83644Z" fill="#414346"/>
</g>
</svg>
