<svg width="24" height="24" viewBox="0 0 24 24" fill="none" xmlns="http://www.w3.org/2000/svg">
<path d="M10.2222 19.2857H13.7778C13.7778 20.2286 12.9778 21 12 21C11.0222 21 10.2222 20.2286 10.2222 19.2857ZM20 17.5714V18.4286H4V17.5714L5.77778 15.8571V10.7143C5.77778 8.05714 7.55556 5.74286 10.2222 4.97143V4.71429C10.2222 3.77143 11.0222 3 12 3C12.9778 3 13.7778 3.77143 13.7778 4.71429V4.97143C16.4444 5.74286 18.2222 8.05714 18.2222 10.7143V15.8571L20 17.5714ZM16.4444 10.7143C16.4444 8.31429 14.4889 6.42857 12 6.42857C9.51111 6.42857 7.55556 8.31429 7.55556 10.7143V16.7143H16.4444V10.7143Z" fill="#272727" fill-opacity="0.6"/>
</svg>
