<svg width="24" height="24" viewBox="0 0 24 24" fill="none" xmlns="http://www.w3.org/2000/svg">
<path d="M11.3846 21C12.4 21 13.2308 20.1692 13.2308 19.1538H9.53846C9.53846 20.1692 10.3692 21 11.3846 21ZM11.3846 6.69231C13.6831 6.69231 15.0769 8.55692 15.0769 10.8462V10.9385L16.9231 12.7846V10.8462C16.9231 8.01231 15.4185 5.64 12.7692 5.01231V4.38462C12.7692 3.61846 12.1508 3 11.3846 3C10.6185 3 10 3.61846 10 4.38462V5.01231C9.77846 5.06769 9.56615 5.15077 9.36308 5.22462L10.8769 6.73846C11.0431 6.72 11.2092 6.69231 11.3846 6.69231ZM5.30154 3.78462L4 5.08615L6.59385 7.68C6.11385 8.60308 5.84615 9.68308 5.84615 10.8462V15.4615L4 17.3077V18.2308H17.1446L18.7508 19.8369L20.0523 18.5354L5.30154 3.78462ZM15.0769 16.3846H7.69231V10.8462C7.69231 10.2185 7.80308 9.62769 8.00615 9.09231L15.0769 16.1631V16.3846Z" fill="#272727" fill-opacity="0.6"/>
</svg>
