<svg width="24" height="24" viewBox="0 0 24 24" fill="none" xmlns="http://www.w3.org/2000/svg">
<path fill-rule="evenodd" clip-rule="evenodd" d="M13.1867 3.44209L15.4977 8.09802C15.6123 8.33299 15.835 8.49596 16.0936 8.53481L21.265 9.28427C21.4744 9.31174 21.6639 9.4226 21.7918 9.59125C22.0324 9.90487 21.9964 10.3521 21.7075 10.6231L17.9611 14.2614C17.7716 14.4386 17.6863 14.702 17.7356 14.9559L18.6386 20.0846C18.7011 20.511 18.4121 20.907 17.9886 20.9772C17.8124 21.0046 17.6323 20.9762 17.4741 20.8966L12.8618 18.4796C12.6306 18.3536 12.352 18.3536 12.1218 18.4796L7.47911 20.9137C7.09159 21.1089 6.62163 20.962 6.41129 20.5849C6.33076 20.4323 6.30139 20.2561 6.32981 20.0846L7.23276 14.9559C7.27635 14.702 7.19202 14.4414 7.00726 14.2614L3.23154 10.6221C2.92361 10.3151 2.92266 9.81675 3.22965 9.50787C3.23059 9.50787 3.23059 9.50693 3.23154 9.50598C3.35756 9.39133 3.51389 9.31364 3.68254 9.28427L8.8539 8.53481C9.11067 8.49312 9.33333 8.33015 9.44987 8.09802L11.7608 3.44209C11.8527 3.25259 12.0175 3.10763 12.2175 3.0413C12.4174 2.97403 12.6363 2.98919 12.8258 3.08489C12.9811 3.16258 13.1072 3.28765 13.1867 3.44209Z" fill="#0498c1"/>
</svg>
