<svg width="18" height="18" viewBox="0 0 18 18" fill="none" xmlns="http://www.w3.org/2000/svg">
<path d="M17.7236 8.29298L10.5288 0.292794C10.403 0.152981 10.2428 0.0577724 10.0683 0.0192039C9.89389 -0.0193645 9.71309 0.000438958 9.54878 0.0761108C9.38447 0.151783 9.24402 0.279925 9.1452 0.444339C9.04637 0.608753 8.99361 0.802056 8.99357 0.999811V4.5449C6.53679 4.79769 4.25326 6.06079 2.58987 8.08701C0.926476 10.1132 0.00294245 12.7567 0 15.5002V17.0002C0.000141969 17.2078 0.058377 17.4102 0.166628 17.5793C0.274878 17.7484 0.427778 17.8759 0.604121 17.944C0.780463 18.0122 0.971507 18.0176 1.15075 17.9596C1.33 17.9016 1.48856 17.783 1.60445 17.6202C2.48555 16.4551 3.56663 15.497 4.78453 14.8018C6.00243 14.1065 7.33272 13.6882 8.69768 13.5711C8.74265 13.5651 8.85507 13.5551 8.99357 13.5451V17.0002C8.99361 17.1979 9.04637 17.3912 9.1452 17.5557C9.24402 17.7201 9.38447 17.8482 9.54878 17.9239C9.71309 17.9996 9.89389 18.0194 10.0683 17.9808C10.2428 17.9422 10.403 17.847 10.5288 17.7072L17.7236 9.70702C17.8922 9.51949 17.9869 9.26517 17.9869 9C17.9869 8.73483 17.8922 8.48052 17.7236 8.29298Z" fill="#414346"/>
</svg>
