<svg width="24" height="24" viewBox="0 0 24 24" fill="none" xmlns="http://www.w3.org/2000/svg">
<path d="M11.991 3C7.023 3 3 7.023 3 12C3 16.977 7.023 21 11.991 21C16.959 21 21 16.977 21 12C21 7.023 16.968 3 11.991 3ZM12 19.2C8.022 19.2 4.8 15.978 4.8 12C4.8 8.022 8.022 4.8 12 4.8C15.978 4.8 19.2 8.022 19.2 12C19.2 15.978 15.978 19.2 12 19.2ZM12.9 10.146L13.854 11.1L14.808 10.146L15.762 11.1L16.716 10.146L14.808 8.238L12.9 10.146ZM9.192 10.146L10.146 11.1L11.1 10.146L9.192 8.238L7.284 10.146L8.238 11.1L9.192 10.146ZM12 16.95C14.097 16.95 15.879 15.636 16.599 13.8H7.401C8.121 15.636 9.903 16.95 12 16.95Z" fill="#FEA800"/>
</svg>
