<svg width="24" height="24" viewBox="0 0 24 24" fill="none" xmlns="http://www.w3.org/2000/svg">
<path d="M15.15 11.1004C15.8956 11.1004 16.5 10.496 16.5 9.75039C16.5 9.00481 15.8956 8.40039 15.15 8.40039C14.4044 8.40039 13.8 9.00481 13.8 9.75039C13.8 10.496 14.4044 11.1004 15.15 11.1004Z" fill="#832CA2"/>
<path d="M8.85 11.1004C9.59558 11.1004 10.2 10.496 10.2 9.75039C10.2 9.00481 9.59558 8.40039 8.85 8.40039C8.10442 8.40039 7.5 9.00481 7.5 9.75039C7.5 10.496 8.10442 11.1004 8.85 11.1004Z" fill="#832CA2"/>
<path d="M11.991 3C7.023 3 3 7.032 3 12C3 16.968 7.023 21 11.991 21C16.968 21 21 16.968 21 12C21 7.032 16.968 3 11.991 3ZM12 19.2C8.022 19.2 4.8 15.978 4.8 12C4.8 8.022 8.022 4.8 12 4.8C15.978 4.8 19.2 8.022 19.2 12C19.2 15.978 15.978 19.2 12 19.2Z" fill="#832CA2"/>
<ellipse cx="12" cy="15.1504" rx="1.8" ry="2.25" fill="#832CA2"/>
</svg>
