<svg width="18" height="18" viewBox="0 0 18 18" fill="none" xmlns="http://www.w3.org/2000/svg">
<g opacity="0.8">
<path d="M13.4644 10.4558L13.8754 10.8705L9.90509 14.8676H9.50281V14.4617L13.4644 10.4558ZM15.0385 7.80872C14.9292 7.80872 14.8155 7.85283 14.7324 7.93666L13.9322 8.74402L15.5719 10.3984L16.3721 9.59109C16.5426 9.41903 16.5426 9.13226 16.3721 8.96902L15.3489 7.93666C15.2615 7.84842 15.1522 7.80872 15.0385 7.80872ZM13.4644 9.21608L8.6283 14.0955V15.75H10.268L15.1041 10.8705L13.4644 9.21608Z" fill="#272727"/>
<path d="M1.5 12.5736V14.956H7.79737V13.4551H2.99563V12.5736C2.99563 12.0654 5.45947 10.906 7.79737 10.906C8.55306 10.9139 9.30087 11.0172 10.0251 11.2077L11.2216 10.0007C10.1195 9.62743 8.97813 9.42096 7.79737 9.39714C5.69562 9.39714 1.5 10.4533 1.5 12.5736ZM7.79737 2.25C6.05772 2.25 4.64869 3.67149 4.64869 5.4265C4.64869 7.18152 6.05772 8.60301 7.79737 8.60301C9.53702 8.60301 10.9461 7.18152 10.9461 5.4265C10.9461 3.67149 9.53702 2.25 7.79737 2.25ZM7.79737 7.01476C6.93148 7.01476 6.22303 6.30798 6.22303 5.4265C6.22303 4.54502 6.93148 3.83825 7.79737 3.83825C8.66326 3.83825 9.37171 4.55297 9.37171 5.4265C9.37171 6.30004 8.67113 7.01476 7.79737 7.01476Z" fill="#272727"/>
</g>
</svg>
