<svg width="14" height="15" viewBox="0 0 14 15" fill="none" xmlns="http://www.w3.org/2000/svg">
<path d="M12.5648 13.6607C12.5648 14.4004 11.964 15 11.2229 15H1.99676C1.2556 15 0.654785 14.4004 0.654785 13.6607V1.33929C0.654785 0.599608 1.2556 0 1.99676 0H7.74031C8.00762 0 8.26395 0.106117 8.45276 0.29496L12.2708 4.1135C12.4591 4.3018 12.5648 4.55698 12.5648 4.823V13.6607Z" fill="white"/>
<path d="M2.90207 15H1.99664C1.25569 15 0.654785 14.4003 0.654785 13.6606V1.33944C0.654785 0.599698 1.25569 0 1.99664 0H2.90207C2.16112 0 1.56022 0.599698 1.56022 1.33944V13.6606C1.56022 14.4003 2.16112 15 2.90207 15Z" fill="#E9F0F4"/>
<path d="M12.5649 4.82294V5.31308H9.06512C8.06552 5.31308 7.25244 4.4997 7.25244 3.5001V0H7.74047C8.00757 0 8.26411 0.106237 8.45274 0.294869L12.271 4.11338C12.4593 4.30171 12.5649 4.55704 12.5649 4.82294Z" fill="#E9F0F4"/>
<path d="M12.4745 4.40762H9.06496C8.56395 4.40762 8.15771 4.00138 8.15771 3.50008V0.0908203C8.26667 0.140015 8.36657 0.208828 8.45258 0.294844L12.2708 4.11335C12.3568 4.19937 12.4253 4.29897 12.4745 4.40762Z" fill="#0275B1"/>
<path d="M12.0121 13.0084H1.20724C0.540513 13.0084 0 12.4679 0 11.8012V7.39474C0 6.72801 0.540513 6.1875 1.20724 6.1875H12.0121C12.6788 6.1875 13.2193 6.72801 13.2193 7.39474V11.8012C13.2193 12.4679 12.6788 13.0084 12.0121 13.0084Z" fill="#0275B1"/>
<path d="M1.96177 13.0084H1.20724C0.540543 13.0084 0 12.4679 0 11.8012V7.39474C0 6.72804 0.540543 6.1875 1.20724 6.1875H1.96177C1.29507 6.1875 0.754527 6.72804 0.754527 7.39474V11.8012C0.754527 12.4679 1.29507 13.0084 1.96177 13.0084Z" fill="#022F96"/>
<path d="M1.4421 11.4936C1.38238 11.4936 1.32503 11.47 1.28266 11.4279C1.24004 11.3855 1.21596 11.328 1.21575 11.268C1.21572 11.2559 1.2114 10.053 1.2114 9.59417C1.2114 9.21344 1.20898 7.92896 1.20898 7.92893C1.20886 7.86884 1.23268 7.81116 1.27511 7.76861C1.31758 7.72605 1.37522 7.70215 1.43534 7.70215H2.38092C3.32275 7.70215 3.95552 8.46395 3.95552 9.59785C3.95552 10.1022 3.81235 10.5668 3.55234 10.9062C3.27186 11.2722 2.86707 11.4782 2.41252 11.4862C2.14442 11.4908 1.47147 11.4934 1.44295 11.4936C1.44271 11.4936 1.44241 11.4936 1.4421 11.4936ZM1.66212 8.15486C1.66279 8.54145 1.66412 9.3134 1.66412 9.59414C1.66412 9.93012 1.66641 10.6664 1.66768 11.0397C1.89539 11.0385 2.23617 11.0364 2.40464 11.0335C3.05121 11.0222 3.50281 10.4318 3.50281 9.59782C3.50281 8.90025 3.20809 8.15483 2.38092 8.15483H1.66212V8.15486Z" fill="white"/>
<path d="M10.701 11.5445C9.62762 11.5445 8.75439 10.6713 8.75439 9.59793C8.75439 8.5246 9.62762 7.65137 10.701 7.65137C11.091 7.65137 11.4674 7.76639 11.7894 7.98393C11.893 8.05392 11.9203 8.19463 11.8503 8.29821C11.7804 8.40185 11.6396 8.42901 11.536 8.35908C11.2891 8.19227 11.0004 8.10411 10.701 8.10411C9.87725 8.10411 9.20711 8.77426 9.20711 9.59796C9.20711 10.4217 9.87725 11.0918 10.701 11.0918C11.0158 11.0918 11.2827 10.9962 11.4945 10.8076C11.5357 10.7709 11.575 10.7304 11.6112 10.6872C11.6915 10.5913 11.8343 10.5788 11.9301 10.6591C12.0259 10.7394 12.0385 10.8822 11.9581 10.9779C11.9078 11.038 11.8531 11.0944 11.7956 11.1456C11.5026 11.4066 11.1241 11.5445 10.701 11.5445Z" fill="white"/>
<path d="M6.35525 11.5445C5.28192 11.5445 4.40869 10.6713 4.40869 9.59793C4.40869 8.5246 5.28192 7.65137 6.35525 7.65137C7.42858 7.65137 8.30184 8.5246 8.30184 9.59793C8.30184 10.6713 7.42858 11.5445 6.35525 11.5445ZM6.35525 8.10408C5.53155 8.10408 4.86141 8.77422 4.86141 9.59793C4.86141 10.4216 5.53155 11.0918 6.35525 11.0918C7.17898 11.0918 7.84912 10.4216 7.84912 9.59793C7.84912 8.77422 7.17898 8.10408 6.35525 8.10408Z" fill="white"/>
</svg>
