<svg width="15" height="15" viewBox="0 0 15 15" fill="none" xmlns="http://www.w3.org/2000/svg">
<path d="M13.9927 3.81943C13.3696 3.13032 12.3286 2.78576 10.8184 2.78576H10.6424V2.75644C10.6424 1.52484 10.6424 0 7.88599 0H6.77169C4.01525 0 4.01525 1.53217 4.01525 2.75644V2.7931H3.8393C2.32179 2.7931 1.28813 3.13765 0.664997 3.82676C-0.0607679 4.63317 -0.0387751 5.71815 0.0345345 6.45858L0.0418654 6.50989L0.0926305 7.04293C0.106895 7.1927 0.187633 7.32811 0.313718 7.41019C0.491247 7.52578 0.747333 7.68949 0.906919 7.77815C1.00955 7.84413 1.11952 7.90278 1.22948 7.96142C2.48308 8.65053 3.8613 9.11238 5.26151 9.33964C5.32749 10.0288 5.62806 10.8352 7.23354 10.8352C8.83902 10.8352 9.15425 10.0361 9.20557 9.32498C10.7011 9.08306 12.1453 8.56256 13.4502 7.80014C13.4942 7.77815 13.5235 7.75616 13.5602 7.73416C13.8344 7.57917 14.1183 7.39026 14.3803 7.20288C14.4937 7.12183 14.5659 6.99563 14.5813 6.85712L14.5865 6.81046L14.6231 6.46591C14.6305 6.42192 14.6305 6.38527 14.6378 6.33395C14.6965 5.59352 14.6818 4.58185 13.9927 3.81943ZM8.12792 8.84114C8.12792 9.61822 8.12792 9.73552 7.22621 9.73552C6.3245 9.73552 6.3245 9.59623 6.3245 8.84847V7.92477H8.12792V8.84114ZM5.06357 2.78576V2.75644C5.06357 1.51018 5.06357 1.04833 6.77169 1.04833H7.88599C9.59411 1.04833 9.59411 1.51751 9.59411 2.75644V2.7931H5.06357V2.78576Z" fill="#414346"/>
<path d="M13.6174 8.8731C13.9718 8.70654 14.3787 8.98752 14.3433 9.3775L14.1018 12.0377C13.9478 13.5038 13.3467 14.9994 10.1211 14.9994H4.53489C1.30927 14.9994 0.708127 13.5038 0.554177 12.045L0.325565 9.53025C0.290523 9.14479 0.688558 8.86443 1.04192 9.02237C1.88367 9.39861 3.20914 9.96382 4.08734 10.2054C4.25111 10.2504 4.38448 10.3688 4.46091 10.5205C4.91907 11.4299 5.87146 11.913 7.23268 11.913C8.58052 11.913 9.54426 11.4112 10.0043 10.4987C10.0808 10.3469 10.2143 10.2286 10.3781 10.1832C11.3135 9.92407 12.7323 9.2891 13.6174 8.8731Z" fill="#414346"/>
</svg>
